<?xml version="1.0" encoding="UTF-8"?>
<svg xmlns="http://www.w3.org/2000/svg" width="124" height="124" viewBox="0 0 124 124" fill="none">
  <g clip-path="url(#clip0_4859_3415)">
    <path d="M124 62C124 96.2417 96.2417 124 62 124C27.7583 124 0 96.2417 0 62C0 27.7583 27.7583 0 62 0C96.2417 0 124 27.7583 124 62Z" fill="black"></path>
    <path d="M74.6416 27.8672C86.1232 27.8726 96.2867 33.5343 102.523 42.228L96.5476 46.6563C95.6837 45.4456 94.7255 44.3016 93.6801 43.248C88.7957 38.3507 82.0856 35.3278 74.6416 35.3278C67.1911 35.328 60.4843 38.3508 55.6005 43.248C50.7216 48.1552 47.7148 54.8871 47.7148 62.3692C47.7148 69.8455 50.7215 76.584 55.6005 81.489C60.4843 86.3888 67.1911 89.4064 74.6416 89.4065C82.0856 89.4065 88.7957 86.389 93.6801 81.489C94.7255 80.4344 95.6837 79.2895 96.5476 78.0781L102.523 82.5064C96.2868 91.2023 86.1233 96.8672 74.6416 96.8672C56.9071 96.8659 42.322 83.3773 40.4825 66.0616H27.4317V90.7839L20.5234 95.8564V28.7239H49.5718L43.6913 36.1075H27.4317V58.678H40.4825C42.322 41.3581 56.9071 27.8729 74.6416 27.8672Z" fill="white"></path>
    <path d="M74.639 42.5255C81.3042 42.5286 87.2006 45.8482 90.7755 50.9305L84.7918 55.3628C82.5692 52.1222 78.8518 49.9946 74.639 49.9835C67.8293 49.9971 62.3194 55.5314 62.3091 62.3692C62.3191 69.2051 67.8291 74.7359 74.639 74.7496C78.852 74.7405 82.5692 72.6161 84.7918 69.3716L90.7755 73.8052C87.2006 78.8855 81.3042 82.2089 74.639 82.2089C63.7241 82.2048 54.881 73.3269 54.881 62.3692C54.8813 51.4081 63.7242 42.5289 74.639 42.5255Z" fill="white"></path>
  </g>
  <defs>
    <clipPath id="clip0_4859_3415">
      <rect width="124" height="124" fill="white"></rect>
    </clipPath>
  </defs>
</svg>
