<svg width="760" height="378" viewBox="0 0 760 378" fill="none" xmlns="http://www.w3.org/2000/svg">
<g opacity="0.1">
<path d="M0.5 378H4.88129C6.14312 171.774 173.923 4.39061 379.999 4.39063C586.075 4.39064 753.855 171.777 755.119 378H759.5C758.238 169.355 588.494 1.8227e-05 380.001 0C171.506 -1.82272e-05 1.76183 169.355 0.5 378Z" fill="white"/>
<path d="M38.5 378H42.8775C44.1382 192.727 194.872 42.3878 380 42.3878C565.128 42.3878 715.864 192.727 717.123 378H721.5C720.239 190.308 567.542 38 380 38C192.458 38 39.7608 190.307 38.5 378Z" fill="white"/>
<path d="M75.5 378H79.887C81.1505 213.679 215.282 80.3842 380 80.3842C544.718 80.3842 678.852 213.679 680.113 378H684.5C683.237 211.261 547.137 76 380 76C212.863 76 76.7613 211.261 75.5 378Z" fill="white"/>
<path d="M113.5 378H117.883C119.143 234.628 236.233 118.38 380 118.38C523.768 118.38 640.857 234.629 642.117 378H646.5C645.24 232.215 526.185 114 380 114C233.815 114 114.76 232.215 113.5 378Z" fill="white"/>
<path d="M151.5 378H155.877C157.134 255.04 257.181 155.393 380.001 155.393C502.819 155.393 602.867 255.04 604.123 378H608.5C607.244 252.615 505.233 151 380.001 151C254.767 151 152.756 252.615 151.5 378Z" fill="white"/>
<path d="M188.5 378H192.923C194.186 275.994 277.598 193.388 380.002 193.388C482.407 193.388 565.816 275.994 567.079 378H571.5C570.242 273.57 484.829 189 380 189C275.171 189 189.758 273.57 188.5 378Z" fill="white"/>
<path d="M226.5 378H230.887C232.144 296.943 298.529 231.381 380.001 231.381C461.471 231.381 527.856 296.943 529.113 378H533.5C532.241 294.527 463.891 227 380.001 227C296.111 227 227.757 294.527 226.5 378Z" fill="white"/>
<path d="M264.5 378H268.878C270.128 317.359 319.476 268.408 380.001 268.408C440.526 268.408 489.875 317.359 491.122 378H495.5C494.25 314.928 442.938 264 380.001 264C317.064 264 265.752 314.928 264.5 378Z" fill="white"/>
<path d="M302.5 378H306.859C308.093 338.311 340.415 306.403 380.001 306.403C419.585 306.403 451.91 338.311 453.141 378H457.5C456.266 335.883 421.989 302 380.001 302C338.013 302 303.736 335.883 302.5 378Z" fill="white"/>
</g>
</svg>
