<svg width="17" height="16" viewBox="0 0 17 16" fill="none" xmlns="http://www.w3.org/2000/svg">
<path d="M10.2227 7.99999L13.5346 4.68812C13.9208 4.30194 13.9208 3.67582 13.5346 3.28964C13.1484 2.90345 12.5223 2.90345 12.1361 3.28964L8.82422 6.60151L5.51234 3.28964C5.12615 2.90345 4.50004 2.90345 4.11386 3.28964C3.72767 3.67582 3.72767 4.30194 4.11386 4.68812L7.42574 7.99999L4.11386 11.3119C3.72767 11.6981 3.72767 12.3242 4.11386 12.7103C4.30697 12.9035 4.56004 13 4.8131 13C5.06616 13 5.31927 12.9035 5.51234 12.7103L8.82422 9.39847L12.1361 12.7103C12.2278 12.8023 12.3368 12.8752 12.4568 12.925C12.5768 12.9747 12.7054 13.0002 12.8353 13C12.9652 13.0002 13.0939 12.9747 13.2139 12.925C13.3339 12.8753 13.4429 12.8023 13.5346 12.7103C13.9208 12.3242 13.9208 11.6981 13.5346 11.3119L10.2227 7.99999Z" fill="#C11020"/>
</svg>
