<svg width="16" height="16" viewBox="0 0 16 16" fill="none" xmlns="http://www.w3.org/2000/svg">
<path d="M7.03156 13C6.84311 13 6.65704 12.9579 6.48683 12.8767C6.31661 12.7956 6.16653 12.6774 6.04745 12.5309L2.98098 8.89359C2.53785 8.34809 2.61922 7.54543 3.16282 7.10069C3.70636 6.65602 4.5063 6.73773 4.94942 7.28323L6.79559 9.94466L10.9089 3.68689C11.2324 3.06244 11.999 2.81931 12.6214 3.14385C13.2436 3.46839 13.4859 4.23772 13.1625 4.86223L8.15843 12.3133C8.05122 12.5203 7.88945 12.6938 7.69074 12.8149C7.49204 12.936 7.26403 13 7.03156 13Z" fill="#10C331"/>
</svg>
