<svg width="44" height="32" viewBox="0 0 44 32" fill="none" xmlns="http://www.w3.org/2000/svg">
    <path
        d="M21.6396 1.51807L20.3611 9.6997C19.9634 12.1144 19.0827 14.657 17.7191 17.3274C16.3838 19.9694 14.6935 22.5119 12.648 24.9551C10.6309 27.3982 8.40078 29.5004 5.95757 31.2617L0.33252 26.7448C2.4064 24.3017 4.28142 21.7023 5.95757 18.9467C7.63373 16.191 8.75589 13.1513 9.32408 9.82754L10.7304 1.51807H21.6396ZM43.3301 1.51807L42.0517 9.6997C41.6539 12.1144 40.7733 14.657 39.4096 17.3274C38.0744 19.9694 36.384 22.5119 34.3385 24.9551C32.3215 27.3982 30.0771 29.5004 27.6055 31.2617L21.9805 26.7448C24.0544 24.3017 25.9294 21.7023 27.6055 18.9467C29.3101 16.191 30.4465 13.1513 31.0146 9.82754L32.4209 1.51807H43.3301Z"
        fill="white" fill-opacity="0.2" />
</svg>
    