<svg width="24" height="24" viewBox="0 0 24 24" fill="none" xmlns="http://www.w3.org/2000/svg">
<path d="M9.66799 22.5H9.66605C8.96198 22.4994 8.29988 22.2248 7.80225 21.7263L0.79241 14.7064C-0.232887 13.6792 -0.232887 12.0078 0.79241 10.9807L10.2417 1.51323C11.2156 0.537504 12.5112 0 13.89 0H19.8851C21.3389 0 22.5218 1.18266 22.5218 2.63672V8.61342C22.5218 9.99123 21.9849 11.2864 21.0101 12.26L11.5314 21.7289C11.0335 22.2262 10.3717 22.5 9.66799 22.5ZM13.89 1.75781C12.9815 1.75781 12.1277 2.11198 11.486 2.75495L2.03648 12.2224C1.69466 12.5649 1.69466 13.1219 2.03648 13.4644L9.04628 20.4843C9.21205 20.6503 9.43262 20.742 9.66742 20.7422H9.66813C9.78348 20.7425 9.89775 20.7199 10.0043 20.6758C10.1109 20.6317 10.2077 20.5669 10.2891 20.4852L19.7678 11.0166C20.4103 10.375 20.764 9.52136 20.764 8.61345V2.63672C20.764 2.15209 20.3698 1.75781 19.8851 1.75781H13.89ZM16.1496 8.92089C14.6957 8.92089 13.5129 7.73824 13.5129 6.28418C13.5129 4.83011 14.6957 3.64746 16.1496 3.64746C17.6036 3.64746 18.7864 4.83011 18.7864 6.28418C18.7864 7.73824 17.6036 8.92089 16.1496 8.92089ZM16.1496 5.40527C15.665 5.40527 15.2707 5.79955 15.2707 6.28418C15.2707 6.76881 15.665 7.16308 16.1496 7.16308C16.6344 7.16308 17.0285 6.76881 17.0285 6.28418C17.0285 5.79955 16.6344 5.40527 16.1496 5.40527Z" fill="currentColor"/>
</svg>
