<svg xmlns="http://www.w3.org/2000/svg" width="32" height="32" viewBox="0 0 32 32" fill="none"><path d="M27.905 12.005C27.965 11.72 27.995 11.435 27.995 11.15C27.995 8.87503 26.145 7.02503 23.865 7.02503H23.75V6.91003C23.75 4.63503 21.9 2.78003 19.625 2.78003C18.06 2.78003 16.7 3.65503 16 4.94503C15.3 3.65503 13.94 2.78003 12.375 2.78003C10.1 2.78003 8.25 4.63503 8.25 6.91003V7.02503H8.135C5.855 7.02503 4.005 8.87503 4.005 11.15C4.005 11.435 4.035 11.72 4.095 12.005C2.295 12.465 1 14.09 1 16C1 17.91 2.295 19.535 4.095 19.995C4.03541 20.2761 4.00525 20.5627 4.005 20.85C4.005 23.125 5.855 24.975 8.135 24.975H8.25V25.09C8.25 27.365 10.1 29.22 12.375 29.22C13.94 29.22 15.3 28.345 16 27.055C16.7 28.345 18.06 29.22 19.625 29.22C21.9 29.22 23.75 27.365 23.75 25.09V24.975H23.865C26.145 24.975 27.995 23.125 27.995 20.85C27.995 20.565 27.965 20.28 27.905 19.995C29.705 19.535 31 17.91 31 16C31 14.09 29.705 12.465 27.905 12.005ZM14.91 13.935L16.1 16.495L16.64 17.655C16.755 17.905 16.65 18.205 16.4 18.32C16.3346 18.3516 16.2626 18.367 16.19 18.365C16.0949 18.3657 16.0016 18.3393 15.921 18.2888C15.8404 18.2383 15.7759 18.1659 15.735 18.08L15.32 17.19H13.585L13.17 18.08C13.085 18.26 12.905 18.365 12.72 18.365C12.6473 18.368 12.5751 18.3526 12.51 18.32C12.4501 18.2927 12.3961 18.2537 12.3513 18.2054C12.3065 18.1571 12.2717 18.1004 12.2489 18.0386C12.2262 17.9768 12.2159 17.911 12.2186 17.8452C12.2214 17.7794 12.2371 17.7147 12.265 17.655L12.805 16.495L14 13.92C14.01 13.905 14.015 13.885 14.03 13.87C14.055 13.83 14.085 13.79 14.12 13.76C14.125 13.76 14.125 13.755 14.13 13.75C14.164 13.7203 14.2029 13.6966 14.245 13.68C14.275 13.66 14.315 13.65 14.35 13.645C14.43 13.625 14.515 13.63 14.595 13.655C14.62 13.66 14.64 13.67 14.665 13.68C14.685 13.69 14.7 13.7 14.72 13.71C14.725 13.71 14.725 13.715 14.73 13.715C14.765 13.74 14.8 13.77 14.825 13.8C14.83 13.8 14.83 13.805 14.835 13.81C14.865 13.845 14.885 13.88 14.905 13.92L14.91 13.935ZM17.5 14.635C17.225 14.635 17 14.41 17 14.135C17 13.855 17.225 13.635 17.5 13.635H18.7C18.975 13.635 19.2 13.855 19.2 14.135C19.2 14.41 18.975 14.635 18.7 14.635H18.6V17.365H18.7C18.975 17.365 19.2 17.59 19.2 17.865C19.2 18.145 18.975 18.365 18.7 18.365H17.5C17.225 18.365 17 18.145 17 17.865C17 17.59 17.225 17.365 17.5 17.365H17.6V14.635H17.5ZM12.375 28.22C10.65 28.22 9.25 26.815 9.25 25.09C9.25 24.885 9.27 24.69 9.305 24.51C9.34 24.345 9.285 24.175 9.17 24.055C9.075 23.96 8.945 23.91 8.815 23.91C8.78 23.91 8.75 23.915 8.715 23.92C8.535 23.955 8.34 23.975 8.135 23.975C6.41 23.975 5.005 22.575 5.005 20.85C5.005 20.49 5.07 20.125 5.195 19.775C5.22137 19.7041 5.23112 19.628 5.22348 19.5527C5.21584 19.4773 5.19102 19.4048 5.15094 19.3405C5.11086 19.2763 5.05657 19.2221 4.99226 19.1822C4.92796 19.1422 4.85534 19.1175 4.78 19.11C3.195 18.935 2 17.595 2 16C2 14.405 3.195 13.065 4.78 12.89C4.85534 12.8825 4.92796 12.8579 4.99226 12.8179C5.05657 12.7779 5.11086 12.7238 5.15094 12.6595C5.19102 12.5953 5.21584 12.5227 5.22348 12.4474C5.23112 12.3721 5.22137 12.296 5.195 12.225C5.07066 11.8802 5.00639 11.5166 5.005 11.15C5.005 9.42503 6.41 8.02503 8.135 8.02503C8.34 8.02503 8.535 8.04503 8.715 8.08003C8.88 8.11503 9.05 8.06003 9.17 7.94503C9.285 7.82503 9.34 7.65503 9.305 7.49003C9.27 7.31003 9.25 7.11503 9.25 6.91003C9.25 5.18503 10.65 3.78003 12.375 3.78003C14.1 3.78003 15.5 5.18503 15.5 6.91003V9.51503H10.895C10.135 9.51503 9.515 10.135 9.515 10.895V11.9515H7.9355C7.80289 11.9515 7.67571 12.0042 7.58195 12.098C7.48818 12.1917 7.4355 12.3189 7.4355 12.4515C7.4355 12.5841 7.48818 12.7113 7.58195 12.8051C7.67571 12.8989 7.80289 12.9515 7.9355 12.9515H9.515V15.5H7.9355C7.80289 15.5 7.67571 15.5527 7.58195 15.6465C7.48818 15.7402 7.4355 15.8674 7.4355 16C7.4355 16.1326 7.48818 16.2598 7.58195 16.3536C7.67571 16.4474 7.80289 16.5 7.9355 16.5H9.515V19.0485H7.9355C7.80289 19.0485 7.67571 19.1012 7.58195 19.195C7.48818 19.2887 7.4355 19.4159 7.4355 19.5485C7.4355 19.6811 7.48818 19.8083 7.58195 19.9021C7.67571 19.9959 7.80289 20.0485 7.9355 20.0485H9.515V21.105C9.515 21.865 10.135 22.485 10.895 22.485H15.5V25.09C15.5 26.815 14.1 28.22 12.375 28.22ZM27.22 19.11C27.1447 19.1175 27.072 19.1422 27.0077 19.1822C26.9434 19.2221 26.8891 19.2763 26.8491 19.3405C26.809 19.4048 26.7842 19.4773 26.7765 19.5527C26.7689 19.628 26.7786 19.7041 26.805 19.775C26.93 20.125 26.995 20.49 26.995 20.85C26.995 22.575 25.59 23.975 23.865 23.975C23.66 23.975 23.465 23.955 23.285 23.92C23.12 23.885 22.95 23.94 22.83 24.055C22.715 24.175 22.66 24.345 22.695 24.51C22.73 24.69 22.75 24.885 22.75 25.09C22.75 26.815 21.35 28.22 19.625 28.22C17.9 28.22 16.5 26.815 16.5 25.09V22.485H21.105C21.865 22.485 22.485 21.865 22.485 21.105V20.0485H24.0645C24.1971 20.0485 24.3243 19.9959 24.4181 19.9021C24.5118 19.8083 24.5645 19.6811 24.5645 19.5485C24.5645 19.4159 24.5118 19.2887 24.4181 19.195C24.3243 19.1012 24.1971 19.0485 24.0645 19.0485H22.485V16.5H24.0645C24.1971 16.5 24.3243 16.4474 24.4181 16.3536C24.5118 16.2598 24.5645 16.1326 24.5645 16C24.5645 15.8674 24.5118 15.7402 24.4181 15.6465C24.3243 15.5527 24.1971 15.5 24.0645 15.5H22.485V12.9515H24.0645C24.1971 12.9515 24.3243 12.8989 24.4181 12.8051C24.5118 12.7113 24.5645 12.5841 24.5645 12.4515C24.5645 12.3189 24.5118 12.1917 24.4181 12.098C24.3243 12.0042 24.1971 11.9515 24.0645 11.9515H22.485V10.895C22.485 10.135 21.865 9.51503 21.105 9.51503H16.5V6.91003C16.5 5.18503 17.9 3.78003 19.625 3.78003C21.35 3.78003 22.75 5.18503 22.75 6.91003C22.75 7.11503 22.73 7.31003 22.695 7.49003C22.66 7.65503 22.715 7.82503 22.83 7.94503C22.95 8.06003 23.12 8.11503 23.285 8.08003C23.465 8.04503 23.66 8.02503 23.865 8.02503C25.59 8.02503 26.995 9.42503 26.995 11.15C26.995 11.51 26.93 11.875 26.805 12.225C26.7786 12.296 26.7689 12.3721 26.7765 12.4474C26.7842 12.5227 26.809 12.5953 26.8491 12.6595C26.8891 12.7238 26.9434 12.7779 27.0077 12.8179C27.072 12.8579 27.1447 12.8825 27.22 12.89C28.805 13.065 30 14.405 30 16C30 17.595 28.805 18.935 27.22 19.11Z" fill="#FF845E"></path><path d="M14.05 16.1901H14.855L14.455 15.3201L14.05 16.1901Z" fill="#FF845E"></path></svg>