<svg xmlns="http://www.w3.org/2000/svg" width="60" height="60" viewBox="0 0 60 60" fill="none"><path fill-rule="evenodd" clip-rule="evenodd" d="M40.7157 41.4984C40.0896 41.4984 39.5798 40.9894 39.5798 40.3631C39.5798 39.7367 40.0896 39.2266 40.7157 39.2266C41.3419 39.2266 41.8519 39.7367 41.8519 40.3631C41.8519 40.9894 41.3421 41.4984 40.7157 41.4984ZM53.2213 36.2142C53.4196 34.1135 53.7335 31.7522 53.2682 29.4058C52.9036 27.5675 52.074 25.9083 50.9159 24.4688C50.6006 24.4947 50.2815 24.5085 49.9588 24.5085C49.0085 24.5094 48.0618 24.3933 47.1398 24.1628L43.1747 27.3848C43.0285 27.5038 42.8458 27.5686 42.6573 27.5683C42.5356 27.5683 42.4154 27.5411 42.3054 27.4889C42.1955 27.4366 42.0986 27.3606 42.0217 27.2662C41.9448 27.1718 41.8898 27.0615 41.8609 26.9433C41.8319 26.8251 41.8296 26.7019 41.8541 26.5826L42.8075 21.9639C41.6993 21.0255 40.8476 19.8921 40.2959 18.648C39.1421 18.464 37.9737 18.3881 36.8058 18.4212L37.2152 18.8307C37.5703 19.1855 37.7911 19.6527 37.8399 20.1523C37.8887 20.6519 37.7624 21.153 37.4827 21.5698L37.1037 22.1349L37.5325 23.1699L38.1998 23.3015C38.6926 23.398 39.1365 23.6628 39.4554 24.0507C39.7742 24.4386 39.9483 24.9253 39.9476 25.4274V28.2616C39.9483 28.7637 39.7742 29.2505 39.4554 29.6383C39.1365 30.0262 38.6926 30.2911 38.1998 30.3876L37.5325 30.5192L37.1037 31.5542L37.4827 32.1193C37.7624 32.5361 37.8886 33.0371 37.8398 33.5367C37.791 34.0363 37.5703 34.5035 37.2152 34.8583L36.7932 35.2803L39.4204 37.9074C39.8193 37.6959 40.2641 37.5856 40.7156 37.5861C42.2467 37.5861 43.4925 38.8315 43.4925 40.3628C43.4925 41.8941 42.2467 43.1391 40.7156 43.1391C39.1846 43.1391 37.9391 41.8937 37.9391 40.3628C37.9391 39.8951 38.0555 39.4543 38.2604 39.0672L35.6332 36.44L35.2111 36.8621C34.8562 37.2172 34.3891 37.438 33.8895 37.4867C33.3898 37.5355 32.8888 37.4092 32.472 37.1295L31.907 36.7505L30.8721 37.1793L30.7405 37.8468C30.6441 38.3396 30.3792 38.7835 29.9913 39.1023C29.6034 39.4212 29.1167 39.5952 28.6146 39.5945H25.7804C25.2783 39.5952 24.7916 39.4212 24.4037 39.1023C24.0158 38.7835 23.7509 38.3396 23.6544 37.8468L23.5228 37.1793L22.4879 36.7505L21.9229 37.1295C21.7761 37.228 21.6178 37.3082 21.4516 37.3683C23.1265 43.4664 27.9185 48.8465 25.8666 59.0637H40.1167C40.3665 58.3676 40.6118 57.6187 40.9114 56.9484C41.8925 54.7536 43.2786 54.4518 45.5518 54.7693C48.3747 55.1634 50.8496 56.5989 51.4315 52.9444C51.5884 51.9584 51.527 50.9837 51.8495 50.765C52.6028 50.5216 52.8632 49.6897 52.5717 49.109C52.3685 48.7044 51.8408 48.513 51.4389 48.3193C51.0073 48.1113 50.6706 47.9862 50.625 47.9583C51.2297 47.8177 51.9321 47.6368 52.2354 47.5611C53.1026 47.3445 53.1257 46.7356 52.8152 46.1112C52.6973 45.509 52.4184 44.9245 52.6659 44.6447C53.0609 44.1987 53.8839 44.1073 54.6588 44.0281C56.9464 43.7943 56.883 42.6441 55.7905 40.9517C54.2678 38.621 53.2405 36.9785 53.2212 36.214L53.2213 36.2142ZM22.3041 34.8988L21.0091 35.7673C20.9082 35.836 20.7863 35.8671 20.6648 35.8552C20.5433 35.8433 20.4297 35.7892 20.344 35.7023L19.922 35.2803L14.6818 40.5204C14.8934 40.9192 15.0038 41.3638 15.0034 41.8153C15.0034 43.3465 13.7576 44.592 12.2268 44.592C10.6959 44.592 9.45023 43.3465 9.45023 41.8153C9.45023 40.284 10.6957 39.0385 12.2268 39.0385C12.6943 39.0385 13.135 39.1552 13.522 39.3603L18.762 34.1203L18.3398 33.6981C18.253 33.6123 18.1989 33.4988 18.187 33.3773C18.1752 33.2557 18.2063 33.1339 18.2749 33.0329L19.1433 31.7379L18.042 29.0794L16.5125 28.7779C16.3926 28.7551 16.2844 28.6909 16.2069 28.5966C16.1293 28.5022 16.0873 28.3837 16.0881 28.2616V27.6616H9.34945C9.24194 27.6621 9.13538 27.6415 9.03586 27.6008C8.93635 27.5601 8.84583 27.5002 8.76949 27.4245L5.36062 24.0156C4.96177 24.2271 4.51714 24.3375 4.0657 24.3371C2.53465 24.3371 1.28906 23.0916 1.28906 21.5608C1.28906 20.03 2.53465 18.784 4.0657 18.784C5.59676 18.784 6.84223 20.0295 6.84223 21.5608C6.84223 22.0283 6.72563 22.4689 6.52066 22.8557L9.69223 26.0273H16.0881V25.4274C16.0873 25.3053 16.1293 25.1868 16.2069 25.0924C16.2844 24.9981 16.3926 24.9339 16.5125 24.9111L18.042 24.6096L19.1433 21.951L18.2749 20.6561C18.2063 20.5551 18.1752 20.4333 18.187 20.3117C18.1989 20.1902 18.253 20.0766 18.3398 19.9908L18.762 19.5688L14.2846 15.0916C13.8857 15.3031 13.4411 15.4135 12.9896 15.4131C11.4586 15.4131 10.2131 14.1677 10.2131 12.6364C10.2131 11.1051 11.4587 9.86021 12.9896 9.86021C14.5206 9.86021 15.7662 11.1057 15.7662 12.6364C15.7662 13.1041 15.6495 13.5447 15.4445 13.9318L19.9218 18.409L20.3439 17.9869C20.4296 17.9 20.5432 17.846 20.6647 17.8341C20.7862 17.8222 20.9081 17.8533 21.009 17.922L22.3039 18.7904L24.9625 17.6889L25.264 16.1595C25.2868 16.0396 25.351 15.9314 25.4453 15.8539C25.5397 15.7763 25.6582 15.7343 25.7803 15.7351H26.3771V9.33592L23.2088 6.16752C22.8099 6.37907 22.3652 6.48948 21.9137 6.48908C20.3829 6.48908 19.1372 5.24361 19.1372 3.71232C19.1372 2.18104 20.3829 0.936035 21.9137 0.936035C23.4445 0.936035 24.6904 2.1815 24.6904 3.71232C24.6904 4.1799 24.5738 4.62064 24.3688 5.0076L27.7719 8.41072C27.8499 8.48699 27.9118 8.57809 27.9541 8.67866C27.9963 8.77923 28.018 8.88723 28.0179 8.99631V15.7351H28.6146C28.7367 15.7343 28.8552 15.7763 28.9496 15.8539C29.0439 15.9314 29.1081 16.0396 29.1309 16.1595L29.4325 17.6889L32.091 18.7904L33.3858 17.922C33.4868 17.8534 33.6086 17.8223 33.7302 17.8341C33.8517 17.846 33.9652 17.9 34.0511 17.9869L36.0552 19.991C36.1421 20.0768 36.1962 20.1903 36.208 20.3118C36.2199 20.4334 36.1888 20.5552 36.1201 20.6562L35.2518 21.9512L36.3532 24.6097L37.8826 24.9112C38.0026 24.934 38.1107 24.9982 38.1883 25.0925C38.2658 25.1869 38.3079 25.3054 38.3071 25.4275V28.2617C38.3079 28.3838 38.2658 28.5023 38.1883 28.5967C38.1107 28.691 38.0026 28.7552 37.8826 28.778L36.3532 29.0796L35.2518 31.7381L36.1201 33.033C36.1888 33.134 36.2199 33.2558 36.208 33.3774C36.1962 33.4989 36.1421 33.6125 36.0552 33.6983L34.0511 35.7023C33.9653 35.7892 33.8517 35.8433 33.7302 35.8552C33.6086 35.867 33.4868 35.836 33.3858 35.7673L32.0909 34.8988L29.4323 36.0003L29.1308 37.5298C29.108 37.6498 29.0438 37.7579 28.9495 37.8355C28.8551 37.913 28.7366 37.9551 28.6145 37.9543H25.7803C25.6582 37.9551 25.5397 37.913 25.4453 37.8355C25.351 37.7579 25.2868 37.6498 25.264 37.5298L24.9625 36.0003L22.3039 34.899L22.3041 34.8988ZM21.9138 4.84822C22.5402 4.84822 23.05 4.33869 23.05 3.71232C23.05 3.08596 22.5402 2.57643 21.9138 2.57643C21.2875 2.57643 20.7779 3.08584 20.7779 3.71232C20.7779 4.33881 21.2873 4.84822 21.9138 4.84822ZM12.9896 13.7728C13.616 13.7728 14.1258 13.2628 14.1258 12.6363C14.1258 12.0098 13.6161 11.5004 12.9896 11.5004C12.3632 11.5004 11.8538 12.0099 11.8538 12.6363C11.8538 13.2626 12.3632 13.7728 12.9896 13.7728ZM4.06547 22.6968C4.69184 22.6968 5.20137 22.1867 5.20137 21.5609C5.20137 20.9351 4.69195 20.4244 4.06547 20.4244C3.43898 20.4244 2.92957 20.934 2.92957 21.5609C2.92957 22.1879 3.43898 22.6968 4.06547 22.6968ZM13.3625 41.8153C13.3625 41.1888 12.853 40.6794 12.2266 40.6794C11.6003 40.6794 11.0905 41.1889 11.0905 41.8153C11.0905 42.4416 11.6002 42.9512 12.2266 42.9512C12.8531 42.9512 13.3625 42.4416 13.3625 41.8153ZM21.2179 26.8446C21.2179 30.147 23.895 32.8242 27.1975 32.8242C30.4999 32.8242 33.1771 30.147 33.1771 26.8446C33.1771 23.5421 30.4999 20.8648 27.1975 20.8648C23.895 20.8648 21.2179 23.5421 21.2179 26.8446ZM25.3182 29.058C25.5894 29.5299 26.2404 29.6191 26.6261 29.2337L30.2266 25.6332C30.3828 25.477 30.4705 25.2652 30.4705 25.0443C30.4705 24.8235 30.3828 24.6117 30.2266 24.4555C30.0704 24.2993 29.8586 24.2116 29.6377 24.2116C29.4169 24.2116 29.2051 24.2994 29.0489 24.4556L26.2132 27.2913L25.476 26.0144C25.3647 25.8271 25.1842 25.691 24.9735 25.6357C24.7627 25.5804 24.5387 25.6103 24.3497 25.7188C24.1608 25.8274 24.0222 26.0059 23.9639 26.2158C23.9055 26.4258 23.9322 26.6502 24.038 26.8407L25.3182 29.058ZM41.2064 15.2275C41.2064 11.0149 45.1328 7.58678 49.9587 7.58678C54.7846 7.58678 58.7111 11.0149 58.7111 15.2275C58.7111 19.4402 54.7847 22.8681 49.9587 22.8681C49.0084 22.8681 48.0732 22.7354 47.1792 22.4739C47.0517 22.4365 46.917 22.4307 46.7867 22.457C46.6564 22.4833 46.5345 22.5408 46.4314 22.6247L43.9257 24.6604L44.5155 21.8046C44.5467 21.6531 44.5345 21.496 44.4803 21.3512C44.4261 21.2064 44.3322 21.0798 44.2092 20.9861C42.3008 19.5322 41.2064 17.4332 41.2064 15.2275ZM53.3484 15.2275C53.3484 15.994 53.9698 16.6154 54.7363 16.6154C55.5028 16.6154 56.1241 15.994 56.1241 15.2275C56.1241 14.461 55.5028 13.8397 54.7363 13.8397C53.9698 13.8397 53.3484 14.461 53.3484 15.2275ZM48.5708 15.2275C48.5708 15.994 49.1921 16.6154 49.9587 16.6154C50.7252 16.6154 51.3465 15.994 51.3465 15.2275C51.3465 14.461 50.7252 13.8397 49.9587 13.8397C49.1921 13.8397 48.5708 14.461 48.5708 15.2275ZM43.7932 15.2275C43.7932 15.994 44.4145 16.6154 45.1811 16.6154C45.9476 16.6154 46.5689 15.994 46.5689 15.2275C46.5689 14.461 45.9476 13.8397 45.1811 13.8397C44.4145 13.8397 43.7932 14.461 43.7932 15.2275Z" fill="#FF845E"></path></svg>