<svg xmlns="http://www.w3.org/2000/svg" width="60" height="60" viewBox="0 0 60 60" fill="none"><path d="M22.5001 56.25C22.1686 56.25 21.8506 56.1183 21.6162 55.8839C21.3818 55.6495 21.2501 55.3315 21.2501 55V41.875C21.25 41.5804 21.354 41.2953 21.5438 41.07L29.9939 31.0325C30.0997 30.9068 30.2292 30.8033 30.3751 30.7277C30.521 30.6521 30.6803 30.6061 30.844 30.5921C31.0077 30.5782 31.1725 30.5967 31.3291 30.6465C31.4856 30.6963 31.6308 30.7765 31.7564 30.8825C34.0119 32.7805 35.6293 35.3261 36.3891 38.1744C37.149 41.0226 37.0145 44.0357 36.0041 46.8049C34.9936 49.5742 33.156 51.9657 30.7404 53.6553C28.3247 55.3449 25.448 56.2507 22.5001 56.25ZM23.7501 42.3313V53.685C25.96 53.4518 28.0601 52.6029 29.8115 51.235C31.5628 49.8671 32.895 48.0351 33.6565 45.9475C34.418 43.8598 34.5783 41.6003 34.1191 39.4261C33.6598 37.2518 32.5996 35.2501 31.0589 33.6487L23.7501 42.3313ZM27.6189 29.3537L18.7138 39.9325H4.88135C4.88046 37.2975 5.63247 34.7172 7.04882 32.4953C8.46516 30.2733 10.4869 28.5023 12.8759 27.3908C15.265 26.2793 17.9219 25.8735 20.5338 26.2213C23.1457 26.5691 25.6039 27.6559 27.6189 29.3537ZM18.7126 42.5675V56.4C16.8963 56.3998 15.0977 56.0419 13.4197 55.3467C11.7417 54.6514 10.217 53.6325 8.93279 52.348C7.64856 51.0636 6.6299 49.5387 5.93496 47.8606C5.24003 46.1824 4.88243 44.3838 4.8826 42.5675H18.7126Z" fill="#FF845E"></path><path d="M33.675 50H22.5C22.1685 50 21.8505 49.8683 21.6161 49.6339C21.3817 49.3995 21.25 49.0815 21.25 48.75V43.75C21.25 43.4185 21.3817 43.1005 21.6161 42.8661C21.8505 42.6317 22.1685 42.5 22.5 42.5H35.4875C35.819 42.5 36.137 42.6317 36.3714 42.8661C36.6058 43.1005 36.7375 43.4185 36.7375 43.75C36.7375 44.0815 36.6058 44.3995 36.3714 44.6339C36.137 44.8683 35.819 45 35.4875 45H23.75V47.5H33.675C34.0065 47.5 34.3245 47.6317 34.5589 47.8661C34.7933 48.1005 34.925 48.4185 34.925 48.75C34.925 49.0815 34.7933 49.3995 34.5589 49.6339C34.3245 49.8683 34.0065 50 33.675 50ZM35.25 40H25.625C25.2935 40 24.9755 39.8683 24.7411 39.6339C24.5067 39.3995 24.375 39.0815 24.375 38.75C24.375 38.4185 24.5067 38.1005 24.7411 37.8661C24.9755 37.6317 25.2935 37.5 25.625 37.5H35.25C35.5815 37.5 35.8995 37.6317 36.1339 37.8661C36.3683 38.1005 36.5 38.4185 36.5 38.75C36.5 39.0815 36.3683 39.3995 36.1339 39.6339C35.8995 39.8683 35.5815 40 35.25 40ZM17.5013 36.25C17.2687 36.2505 17.0407 36.186 16.8428 36.0639C16.6449 35.9418 16.4851 35.7668 16.3813 35.5588L9.2275 21.25H5C4.66848 21.25 4.35054 21.1183 4.11612 20.8839C3.8817 20.6495 3.75 20.3315 3.75 20C3.75 19.6685 3.8817 19.3505 4.11612 19.1161C4.35054 18.8817 4.66848 18.75 5 18.75H10C10.2323 18.7499 10.46 18.8145 10.6576 18.9366C10.8552 19.0587 11.0149 19.2335 11.1188 19.4413L18.6188 34.4413C18.714 34.6319 18.7589 34.8437 18.7493 35.0566C18.7397 35.2694 18.6758 35.4763 18.5637 35.6575C18.4516 35.8388 18.295 35.9883 18.1088 36.092C17.9227 36.1957 17.7131 36.2501 17.5 36.25H17.5013Z" fill="#FF845E"></path><path d="M7.5 25.625H5C4.66848 25.625 4.35054 25.4933 4.11612 25.2589C3.8817 25.0245 3.75 24.7065 3.75 24.375C3.75 24.0435 3.8817 23.7255 4.11612 23.4911C4.35054 23.2567 4.66848 23.125 5 23.125H7.5C7.83152 23.125 8.14946 23.2567 8.38388 23.4911C8.6183 23.7255 8.75 24.0435 8.75 24.375C8.75 24.7065 8.6183 25.0245 8.38388 25.2589C8.14946 25.4933 7.83152 25.625 7.5 25.625Z" fill="#FF845E"></path><path d="M55.625 3.75H50.625C50.2798 3.75 50 4.02982 50 4.375V25.625C50 25.9702 50.2798 26.25 50.625 26.25H55.625C55.9702 26.25 56.25 25.9702 56.25 25.625V4.375C56.25 4.02982 55.9702 3.75 55.625 3.75Z" fill="#FF845E"></path><path d="M48.125 7.5H43.125C42.7798 7.5 42.5 7.77982 42.5 8.125V25.625C42.5 25.9702 42.7798 26.25 43.125 26.25H48.125C48.4702 26.25 48.75 25.9702 48.75 25.625V8.125C48.75 7.77982 48.4702 7.5 48.125 7.5Z" fill="#FF845E"></path><path d="M40.625 11.25H35.625C35.2798 11.25 35 11.5298 35 11.875V25.625C35 25.9702 35.2798 26.25 35.625 26.25H40.625C40.9702 26.25 41.25 25.9702 41.25 25.625V11.875C41.25 11.5298 40.9702 11.25 40.625 11.25Z" fill="#FF845E"></path><path d="M33.125 15H28.125C27.7798 15 27.5 15.2798 27.5 15.625V25.625C27.5 25.9702 27.7798 26.25 28.125 26.25H33.125C33.4702 26.25 33.75 25.9702 33.75 25.625V15.625C33.75 15.2798 33.4702 15 33.125 15Z" fill="#FF845E"></path><path d="M22.5 6.875H12.5C12.1685 6.875 11.8505 6.7433 11.6161 6.50888C11.3817 6.27446 11.25 5.95652 11.25 5.625C11.25 5.29348 11.3817 4.97554 11.6161 4.74112C11.8505 4.5067 12.1685 4.375 12.5 4.375H22.5C22.8315 4.375 23.1495 4.5067 23.3839 4.74112C23.6183 4.97554 23.75 5.29348 23.75 5.625C23.75 5.95652 23.6183 6.27446 23.3839 6.50888C23.1495 6.7433 22.8315 6.875 22.5 6.875ZM22.5 11.25H12.5C12.1685 11.25 11.8505 11.1183 11.6161 10.8839C11.3817 10.6495 11.25 10.3315 11.25 10C11.25 9.66848 11.3817 9.35054 11.6161 9.11612C11.8505 8.8817 12.1685 8.75 12.5 8.75H22.5C22.8315 8.75 23.1495 8.8817 23.3839 9.11612C23.6183 9.35054 23.75 9.66848 23.75 10C23.75 10.3315 23.6183 10.6495 23.3839 10.8839C23.1495 11.1183 22.8315 11.25 22.5 11.25ZM17.5 15.625H12.5C12.1685 15.625 11.8505 15.4933 11.6161 15.2589C11.3817 15.0245 11.25 14.7065 11.25 14.375C11.25 14.0435 11.3817 13.7255 11.6161 13.4911C11.8505 13.2567 12.1685 13.125 12.5 13.125H17.5C17.8315 13.125 18.1495 13.2567 18.3839 13.4911C18.6183 13.7255 18.75 14.0435 18.75 14.375C18.75 14.7065 18.6183 15.0245 18.3839 15.2589C18.1495 15.4933 17.8315 15.625 17.5 15.625ZM55 33.75H41.25C40.9185 33.75 40.6005 33.8817 40.3661 34.1161C40.1317 34.3505 40 34.6685 40 35V55C40 55.3315 40.1317 55.6495 40.3661 55.8839C40.6005 56.1183 40.9185 56.25 41.25 56.25H55C55.3315 56.25 55.6495 56.1183 55.8839 55.8839C56.1183 55.6495 56.25 55.3315 56.25 55V35C56.25 34.6685 56.1183 34.3505 55.8839 34.1161C55.6495 33.8817 55.3315 33.75 55 33.75ZM50.625 51.25H45.625C45.2935 51.25 44.9755 51.1183 44.7411 50.8839C44.5067 50.6495 44.375 50.3315 44.375 50C44.375 49.6685 44.5067 49.3505 44.7411 49.1161C44.9755 48.8817 45.2935 48.75 45.625 48.75H50.625C50.9565 48.75 51.2745 48.8817 51.5089 49.1161C51.7433 49.3505 51.875 49.6685 51.875 50C51.875 50.3315 51.7433 50.6495 51.5089 50.8839C51.2745 51.1183 50.9565 51.25 50.625 51.25ZM50.625 46.25H45.625C45.2935 46.25 44.9755 46.1183 44.7411 45.8839C44.5067 45.6495 44.375 45.3315 44.375 45C44.375 44.6685 44.5067 44.3505 44.7411 44.1161C44.9755 43.8817 45.2935 43.75 45.625 43.75H50.625C50.9565 43.75 51.2745 43.8817 51.5089 44.1161C51.7433 44.3505 51.875 44.6685 51.875 45C51.875 45.3315 51.7433 45.6495 51.5089 45.8839C51.2745 46.1183 50.9565 46.25 50.625 46.25ZM50.625 41.25H45.625C45.2935 41.25 44.9755 41.1183 44.7411 40.8839C44.5067 40.6495 44.375 40.3315 44.375 40C44.375 39.6685 44.5067 39.3505 44.7411 39.1161C44.9755 38.8817 45.2935 38.75 45.625 38.75H50.625C50.9565 38.75 51.2745 38.8817 51.5089 39.1161C51.7433 39.3505 51.875 39.6685 51.875 40C51.875 40.3315 51.7433 40.6495 51.5089 40.8839C51.2745 41.1183 50.9565 41.25 50.625 41.25Z" fill="#FF845E"></path></svg>