<svg xmlns="http://www.w3.org/2000/svg" width="62" height="62" viewBox="0 0 62 62" fill="none"><rect x="1.5" y="1.5" width="59" height="59" rx="29.5" fill="white"></rect><rect x="1.5" y="1.5" width="59" height="59" rx="29.5" stroke="#FF845E" stroke-width="3"></rect><path d="M28.3263 40.3906C28.1738 40.2525 28.1631 40.015 28.3031 39.8643C28.4413 39.7118 28.6788 39.7012 28.8294 39.8393C29.4563 40.4131 30.1881 40.8512 31.0225 41.1518C31.8638 41.4531 32.81 41.6181 33.8644 41.6462H33.8838C36.9663 41.79 38.8938 41.8356 39.9181 41.4493C40.7844 41.1231 40.9494 40.3831 40.6425 38.9281C40.54 38.4356 40.9931 38.12 41.0038 37.915C41.0231 37.5287 40.7913 37.1281 40.8319 36.505H40.8338C40.8444 36.3437 40.9594 36.2018 41.1244 36.165C41.6438 36.0481 42.6075 36.1543 43.0713 35.9243C43.275 35.8218 43.3425 35.5756 43.0644 35.0187H43.0663L41.1919 31.435C41.1438 31.355 41.1244 31.2562 41.1475 31.1587C41.3444 30.31 41.4381 29.4612 41.4381 28.6268H41.44C41.44 23.4893 37.8575 18.945 32.8369 17.7825C29.0206 16.8987 25.1019 18.0731 22.4194 20.7575C20.4031 22.7737 19.1562 25.5587 19.1562 28.6343C19.1562 32.4312 20.3063 33.7812 21.5406 35.2318C23.0375 36.9931 24.655 38.8918 24.7188 44.8712H33.4938V42.3787C31.5313 42.2725 29.7419 41.6856 28.3263 40.3906ZM31.425 19.8393L31.8944 21.0868C32.5869 21.2625 33.2425 21.5331 33.85 21.8962L35.0444 21.3543C35.1863 21.28 35.365 21.3012 35.4838 21.4218L36.8725 22.8093C36.9788 22.9156 37.0144 23.0825 36.9488 23.2275L36.3963 24.4431C36.7575 25.0506 37.0325 25.71 37.2056 26.4006L38.4494 26.8668C38.5944 26.92 38.6975 27.0562 38.6975 27.2193V29.1718C38.7013 29.3262 38.6069 29.475 38.455 29.5312L37.2063 30.0006C37.0338 30.6886 36.7611 31.3475 36.3969 31.9562L36.9388 33.1506C37.0131 33.2925 36.9919 33.4712 36.8731 33.59L35.4844 34.9787V34.9768C35.431 35.031 35.3623 35.0675 35.2876 35.0815C35.2128 35.0955 35.1356 35.0862 35.0663 35.055L33.8506 34.5025C33.2431 34.8656 32.5875 35.1368 31.895 35.3118L31.4275 36.5556C31.4017 36.6284 31.3539 36.6913 31.2907 36.7358C31.2276 36.7802 31.1522 36.804 31.075 36.8037H29.1244C29.0465 36.8054 28.97 36.783 28.9054 36.7396C28.8407 36.6962 28.791 36.6339 28.7631 36.5612L28.2956 35.3125C27.6031 35.1368 26.9456 34.8662 26.34 34.5031L25.1444 35.045C25.0025 35.1193 24.8238 35.0981 24.705 34.9793L23.3175 33.5906C23.2113 33.4843 23.1756 33.3175 23.2413 33.1725L23.7925 31.9568C23.4296 31.3475 23.157 30.6888 22.9831 30.0012L21.7394 29.5337C21.6667 29.5077 21.6039 29.4598 21.5595 29.3967C21.5151 29.3337 21.4913 29.2584 21.4913 29.1812V27.2287C21.4875 27.0743 21.5819 26.9256 21.7356 26.8693L22.9831 26.4018C23.1588 25.7093 23.4313 25.0518 23.7925 24.4443L23.2506 23.25C23.1763 23.1081 23.1975 22.9293 23.3181 22.8106L24.7056 21.4231C24.8119 21.315 24.9788 21.2793 25.1238 21.3468L26.3406 21.8981C26.9481 21.535 27.6038 21.2637 28.2963 21.0887L28.7625 19.845C28.8156 19.7012 28.9538 19.5968 29.115 19.5968H31.0675C31.2194 19.5912 31.3681 19.6856 31.425 19.8393ZM31.2638 21.535L30.8156 20.3425H29.3719L28.9238 21.535C28.902 21.5944 28.8653 21.6473 28.8173 21.6885C28.7692 21.7298 28.7114 21.758 28.6494 21.7706C27.9281 21.925 27.1875 22.2418 26.5656 22.6368C26.4506 22.7093 26.3106 22.7112 26.1956 22.6543L25.0513 22.1337L24.0288 23.1562L24.5569 24.3168C24.61 24.4356 24.5956 24.5687 24.5319 24.6712C24.1263 25.3087 23.8288 26.0212 23.6638 26.76C23.6507 26.821 23.6225 26.8777 23.5816 26.9248C23.5407 26.9719 23.4886 27.0079 23.43 27.0293L22.2375 27.4775V28.9212L23.43 29.3693C23.5556 29.4156 23.6406 29.5237 23.6656 29.6437C23.82 30.365 24.1369 31.1056 24.5319 31.7275C24.5663 31.7825 24.5859 31.8454 24.589 31.9102C24.5921 31.975 24.5784 32.0395 24.5494 32.0975L24.0288 33.2437L25.0513 34.2643L26.2119 33.7362C26.3306 33.6831 26.4631 33.6975 26.5663 33.7625V33.7606C27.2044 34.1662 27.9163 34.4637 28.655 34.6287C28.7844 34.6568 28.8819 34.7475 28.9244 34.8625L29.3725 36.055H30.8163L31.2644 34.8625C31.3106 34.7368 31.4188 34.6518 31.5388 34.6268C32.26 34.4725 33.0019 34.1556 33.6225 33.7606C33.6775 33.7262 33.7404 33.7065 33.8052 33.7035C33.87 33.7004 33.9345 33.7141 33.9925 33.7431L35.1388 34.2637L36.1594 33.2431L35.6313 32.0806C35.5781 31.9618 35.5925 31.8287 35.6581 31.7262H35.6563C36.0619 31.0887 36.3594 30.3762 36.5244 29.6375C36.5525 29.51 36.6431 29.4106 36.7581 29.3681L37.9506 28.92V27.4762L36.7581 27.0281C36.6989 27.006 36.6462 26.9692 36.605 26.9213C36.5638 26.8733 36.5354 26.8156 36.5225 26.7537C36.3681 26.0306 36.0531 25.2937 35.6563 24.67C35.6219 24.615 35.6022 24.5521 35.5991 24.4873C35.5961 24.4225 35.6097 24.358 35.6388 24.3L36.1594 23.1556L35.1388 22.1331L33.9763 22.6612C33.8575 22.7143 33.725 22.7 33.6219 22.6362C32.9838 22.2306 32.2719 21.9331 31.5331 21.7681C31.4722 21.755 31.4156 21.7268 31.3685 21.6861C31.3215 21.6453 31.2854 21.5933 31.2638 21.535ZM32.8813 25.4131C32.1675 24.6993 31.1825 24.2581 30.0944 24.2581C27.9169 24.2581 26.1525 26.0225 26.1525 28.2C26.1525 30.3756 27.9169 32.14 30.0944 32.14C32.27 32.14 34.0344 30.3756 34.0344 28.2C34.0344 27.1106 33.5938 26.1256 32.8813 25.4131ZM30.0944 23.5087C32.6844 23.5087 34.7838 25.6081 34.7838 28.2C34.7838 30.79 32.6844 32.8893 30.0944 32.8893C27.5025 32.8893 25.4031 30.79 25.4031 28.2C25.4031 25.6081 27.5025 23.5087 30.0944 23.5087ZM28.3581 28.5012C28.2306 28.3381 28.2588 28.1025 28.42 27.975C28.5831 27.8475 28.8188 27.8756 28.9463 28.0387L29.46 28.6906L31.2706 26.88C31.4156 26.7331 31.6531 26.7331 31.8006 26.88C31.9475 27.025 31.9475 27.2625 31.8006 27.41L29.6906 29.52V29.5181C29.5331 29.6756 29.2706 29.6618 29.1306 29.4862L28.3581 28.5012Z" fill="#FF845E"></path></svg>