<svg xmlns="http://www.w3.org/2000/svg" width="32" height="32" viewBox="0 0 32 32" fill="none"><path d="M29.9412 24.928C27.7592 25.9188 22.7799 28.2004 19.502 29.696C17.4991 30.6116 15.2287 30.7556 13.1261 30.1005L7.0745 28.2252V20.0048H11.6179C15.0208 20.0048 15.0268 22.3414 16.5604 22.3414H20.1746C20.54 22.3414 20.8904 22.4866 21.1488 22.745C21.4072 23.0034 21.5524 23.3538 21.5524 23.7192C21.55 24.0838 21.404 24.4328 21.1461 24.6904C20.8882 24.9481 20.5392 25.0938 20.1746 25.0958H13.4751C13.351 25.0958 13.232 25.1451 13.1442 25.2329C13.0565 25.3206 13.0072 25.4397 13.0072 25.5638C13.0072 25.6879 13.0565 25.8069 13.1442 25.8946C13.232 25.9824 13.351 26.0317 13.4751 26.0317H20.2313C21.0971 26.0317 22.0384 25.4454 22.3687 24.442L26.7062 22.8341C28.0961 22.3789 29.2553 22.5413 30.1779 23.3703C30.682 23.8189 30.5589 24.6412 29.9412 24.928ZM5.18771 29.7117H2.46469C2.33934 29.7118 2.21519 29.6872 2.09935 29.6393C1.98351 29.5914 1.87823 29.5211 1.78953 29.4325C1.70084 29.344 1.63046 29.2388 1.58241 29.123C1.53437 29.0072 1.5096 28.8831 1.50952 28.7577V19.5327C1.50952 19.005 1.93699 18.5775 2.46409 18.5775H5.18711C5.7148 18.5775 6.14228 19.005 6.14228 19.5327V28.7565C6.14228 29.2842 5.7148 29.7117 5.18771 29.7117ZM16.6624 10.394H18.2884L17.4757 8.43652L16.6624 10.394Z" fill="#FF845E"></path><path d="M26.2263 10.3385C26.3502 10.3385 26.4691 10.2892 26.5567 10.2016C26.6444 10.114 26.6936 9.99509 26.6936 9.87115C26.6936 9.74721 26.6444 9.62834 26.5567 9.5407C26.4691 9.45306 26.3502 9.40383 26.2263 9.40383H24.7802V6.94828H26.2263C26.3503 6.94828 26.4692 6.89901 26.5569 6.81132C26.6446 6.72362 26.6939 6.60468 26.6939 6.48066C26.6939 6.35663 26.6446 6.23769 26.5569 6.15C26.4692 6.0623 26.3503 6.01303 26.2263 6.01303H24.7802V5.4962C24.7802 4.34903 23.8396 3.40835 22.693 3.40835H22.1756V1.96232C22.1756 1.83837 22.1263 1.71951 22.0387 1.63187C21.951 1.54423 21.8322 1.495 21.7082 1.495C21.5843 1.495 21.4654 1.54423 21.3778 1.63187C21.2902 1.71951 21.2409 1.83837 21.2409 1.96232V3.40835H18.7848V1.96232C18.7848 1.83837 18.7355 1.71951 18.6479 1.63187C18.5603 1.54423 18.4414 1.495 18.3174 1.495C18.1935 1.495 18.0746 1.54423 17.987 1.63187C17.8994 1.71951 17.8501 1.83837 17.8501 1.96232V3.40835H15.3946V1.96232C15.3946 1.90095 15.3825 1.84018 15.359 1.78348C15.3355 1.72678 15.3011 1.67526 15.2577 1.63187C15.2143 1.58848 15.1628 1.55405 15.1061 1.53057C15.0494 1.50708 14.9886 1.495 14.9273 1.495C14.8659 1.495 14.8051 1.50708 14.7484 1.53057C14.6917 1.55405 14.6402 1.58848 14.5968 1.63187C14.5534 1.67526 14.519 1.72678 14.4955 1.78348C14.472 1.84018 14.4599 1.90095 14.4599 1.96232V3.40835H13.9425C13.3891 3.40947 12.8587 3.6298 12.4674 4.0211C12.0761 4.41241 11.8558 4.94281 11.8547 5.4962V6.01303H10.4092C10.3478 6.01295 10.2869 6.02501 10.2301 6.0485C10.1734 6.072 10.1218 6.10647 10.0784 6.14994C10.035 6.19342 10.0006 6.24504 9.97713 6.30184C9.95371 6.35865 9.94174 6.41952 9.9419 6.48096C9.9419 6.74239 10.1478 6.94828 10.4092 6.94828H11.8553V9.40383H10.4092C10.3478 9.40375 10.287 9.41578 10.2303 9.43924C10.1736 9.46269 10.122 9.49711 10.0786 9.54052C10.0352 9.58393 10.0008 9.63548 9.97731 9.69222C9.95385 9.74895 9.94182 9.80976 9.9419 9.87115C9.9419 10.1326 10.1478 10.3385 10.4092 10.3385H11.8553V12.794H10.4092C10.3478 12.7939 10.287 12.806 10.2303 12.8294C10.1736 12.8529 10.122 12.8873 10.0786 12.9307C10.0352 12.9741 10.0008 13.0257 9.97731 13.0824C9.95385 13.1391 9.94182 13.1999 9.9419 13.2613C9.9419 13.5234 10.1478 13.7287 10.4092 13.7287H11.8553V14.2461C11.8553 14.7998 12.0752 15.3309 12.4668 15.7224C12.8583 16.114 13.3894 16.3339 13.9431 16.3339H14.4605V17.786C14.4605 17.91 14.5098 18.0288 14.5974 18.1165C14.6851 18.2041 14.8039 18.2533 14.9279 18.2533C15.0518 18.2533 15.1707 18.2041 15.2583 18.1165C15.3459 18.0288 15.3952 17.91 15.3952 17.786V16.3339H17.8507V17.786C17.8507 17.91 17.9 18.0288 17.9876 18.1165C18.0752 18.2041 18.1941 18.2533 18.318 18.2533C18.442 18.2533 18.5609 18.2041 18.6485 18.1165C18.7361 18.0288 18.7854 17.91 18.7854 17.786V16.3339H21.2409V17.786C21.2409 17.91 21.2902 18.029 21.3779 18.1167C21.4656 18.2044 21.5845 18.2536 21.7085 18.2536C21.8326 18.2536 21.9515 18.2044 22.0392 18.1167C22.1269 18.029 22.1762 17.91 22.1762 17.786V16.3339H22.6936C23.8402 16.3339 24.7808 15.3993 24.7808 14.2461V13.7287H26.2269C26.3508 13.7287 26.4697 13.6794 26.5573 13.5918C26.645 13.5041 26.6942 13.3853 26.6942 13.2613C26.6942 13.1374 26.645 13.0185 26.5573 12.9309C26.4697 12.8432 26.3508 12.794 26.2269 12.794H24.7808V10.3385H26.2263ZM19.7357 12.3454C19.6972 12.385 19.6508 12.4162 19.5996 12.4369C19.5483 12.4576 19.4933 12.4673 19.438 12.4656C19.3562 12.4661 19.276 12.4426 19.2074 12.3979C19.1384 12.3528 19.0837 12.2889 19.0498 12.2138L18.6139 11.1662H16.3377L15.903 12.2108C15.8757 12.2742 15.8335 12.33 15.7798 12.3733C15.7261 12.4167 15.6627 12.4463 15.595 12.4595C15.5273 12.4728 15.4573 12.4694 15.3913 12.4495C15.3252 12.4296 15.265 12.3939 15.2159 12.3454C15.1785 12.3069 15.1492 12.2613 15.1296 12.2113C15.11 12.1614 15.1005 12.108 15.1017 12.0544C15.1017 12.0031 15.1162 11.9457 15.144 11.8775L16.9451 7.62692C16.9891 7.5273 17.0519 7.44579 17.1322 7.38179C17.2202 7.31356 17.3289 7.27773 17.4402 7.28035H17.5114C17.631 7.28035 17.7348 7.31477 17.8193 7.38179C17.8996 7.44518 17.9624 7.52669 18.0065 7.62571L19.807 11.8769C19.8359 11.9463 19.8492 12.0037 19.8492 12.0544C19.8492 12.1691 19.8118 12.2657 19.7357 12.3454ZM21.5301 12.0544C21.5311 12.1093 21.5205 12.1638 21.4991 12.2143C21.4776 12.2648 21.4458 12.3103 21.4057 12.3478C21.367 12.386 21.3211 12.4161 21.2706 12.4363C21.2201 12.4565 21.1661 12.4665 21.1117 12.4656C21.0575 12.4667 21.0036 12.4567 20.9533 12.4363C20.903 12.4158 20.8575 12.3853 20.8195 12.3466C20.7808 12.3086 20.7503 12.263 20.7299 12.2128C20.7094 12.1625 20.6994 12.1086 20.7005 12.0544V7.69877C20.6996 7.6443 20.7096 7.5902 20.7298 7.53961C20.75 7.48903 20.7801 7.44297 20.8183 7.40413C20.8567 7.36522 20.9025 7.33431 20.953 7.31318C21.0035 7.29204 21.0576 7.2811 21.1124 7.28099C21.1671 7.28088 21.2213 7.2916 21.2718 7.31252C21.3224 7.33345 21.3683 7.36417 21.407 7.40292C21.4885 7.48443 21.5301 7.58405 21.5301 7.69877V12.0544Z" fill="#FF845E"></path></svg>