<svg xmlns="http://www.w3.org/2000/svg" width="25" height="25" viewBox="0 0 25 25" fill="none"><g clip-path="url(#clip0_1472_2942)"><path d="M8.98438 15.625H10.9375V24.2188H8.98438V15.625ZM5.46875 15.625H7.42188V24.2188H5.46875V15.625ZM0.78125 17.1875V22.6562C0.78125 23.5156 1.48438 24.2188 2.34375 24.2188H3.90625V15.625H2.34375C1.48438 15.625 0.78125 16.3281 0.78125 17.1875ZM15.1172 14.0625C15.7422 14.0625 16.3281 13.8203 16.7734 13.375L18.4531 11.6953C18.8984 11.25 19.1406 10.6641 19.1406 10.0391V4.80469C19.1406 4.17969 18.8984 3.59375 18.4531 3.14844L16.7734 1.46875C16.3281 1.02344 15.7422 0.78125 15.1172 0.78125H9.88281C9.25781 0.78125 8.67188 1.02344 8.22656 1.46875L6.54688 3.14844C6.10156 3.59375 5.85938 4.17969 5.85938 4.80469V10.0391C5.85938 10.6641 6.10156 11.25 6.54688 11.6953L8.22656 13.375C8.67188 13.8203 9.25781 14.0625 9.88281 14.0625H15.1172ZM8.20312 7.42188C8.20312 5.05469 10.1328 3.125 12.5 3.125C14.8672 3.125 16.7969 5.05469 16.7969 7.42188C16.7969 9.78906 14.8672 11.7188 12.5 11.7188C10.1328 11.7188 8.20312 9.78906 8.20312 7.42188Z" fill="#FF845E"></path><path d="M12.5 10.1562C14.0102 10.1562 15.2344 8.93203 15.2344 7.42188C15.2344 5.91172 14.0102 4.6875 12.5 4.6875C10.9898 4.6875 9.76562 5.91172 9.76562 7.42188C9.76562 8.93203 10.9898 10.1562 12.5 10.1562Z" fill="#FF845E"></path><path d="M22.6562 15.625H12.5V24.2188H22.6562C23.5156 24.2188 24.2188 23.5156 24.2188 22.6562V17.1875C24.2188 16.3281 23.5156 15.625 22.6562 15.625ZM16.4062 20.3125C16.4062 20.7422 16.0547 21.0938 15.625 21.0938C15.1953 21.0938 14.8438 20.7422 14.8438 20.3125V19.5312C14.8438 19.1016 15.1953 18.75 15.625 18.75C16.0547 18.75 16.4062 19.1016 16.4062 19.5312V20.3125ZM19.1406 20.3125C19.1406 20.7422 18.7891 21.0938 18.3594 21.0938C17.9297 21.0938 17.5781 20.7422 17.5781 20.3125V19.5312C17.5781 19.1016 17.9297 18.75 18.3594 18.75C18.7891 18.75 19.1406 19.1016 19.1406 19.5312V20.3125ZM21.875 20.3125C21.875 20.7422 21.5234 21.0938 21.0938 21.0938C20.6641 21.0938 20.3125 20.7422 20.3125 20.3125V19.5312C20.3125 19.1016 20.6641 18.75 21.0938 18.75C21.5234 18.75 21.875 19.1016 21.875 19.5312V20.3125Z" fill="#FF845E"></path></g><defs><clipPath id="clip0_1472_2942"><rect width="25" height="25" fill="white"></rect></clipPath></defs></svg>