<svg xmlns="http://www.w3.org/2000/svg" width="60" height="60" viewBox="0 0 60 60" fill="none"><path fill-rule="evenodd" clip-rule="evenodd" d="M17.1831 33.2367L11.4198 36.5758L16.6552 45.8264L17.5275 45.3227L29.3634 48.4942C31.0659 48.9505 32.7081 48.7349 34.2089 47.811L50.5268 37.7631C52.8508 36.3323 51.8241 30.0697 44.8345 34.1404L35.8427 39.3777C35.4673 39.5963 35.0861 39.7672 34.6981 39.8931C33.996 41.3652 32.5118 41.9311 30.9455 41.7376C29.0059 41.5012 26.785 40.649 24.8687 40.1358C24.6317 40.0691 24.4305 39.9118 24.3087 39.6978C24.1868 39.4839 24.1541 39.2306 24.2177 38.9927C24.2812 38.7548 24.4359 38.5516 24.6483 38.4269C24.8606 38.3023 25.1134 38.2663 25.3521 38.3267C27.206 38.8234 29.3168 39.6877 31.1726 39.8774C32.3864 40.0274 33.3826 39.2422 33.6945 38.0784C34.0562 36.7285 33.2272 35.3972 31.8977 34.9661C28.3158 34.3201 24.8034 32.8222 22.6525 32.1247C20.7231 31.4988 18.9383 32.2199 17.1831 33.2367ZM12.2562 7.53162L14.9904 9.11025L5.5888 14.5384L2.85446 12.9597L12.2562 7.53162ZM8.91669 35.9599L16.3338 49.0656C16.6924 49.6992 16.4674 50.5112 15.8337 50.8698L13.3109 52.2977C12.6771 52.6563 11.8652 52.4313 11.5067 51.7977L4.08938 38.6919C3.73079 38.0583 3.95579 37.2463 4.58954 36.8877L7.11247 35.4599C7.7461 35.1011 8.55798 35.3263 8.91669 35.9599ZM7.06759 37.6624C6.95054 37.6795 6.83801 37.7195 6.73642 37.7802C6.63483 37.8408 6.54618 37.9208 6.47553 38.0157C6.40487 38.1106 6.35359 38.2184 6.32462 38.3331C6.29566 38.4478 6.28956 38.5671 6.30669 38.6842C6.32382 38.8012 6.36383 38.9137 6.42445 39.0153C6.48507 39.1169 6.5651 39.2056 6.65998 39.2762C6.75486 39.3469 6.86273 39.3981 6.97742 39.4271C7.09212 39.4561 7.2114 39.4622 7.32845 39.4451C7.56484 39.4105 7.77781 39.2834 7.92051 39.0918C8.06321 38.9001 8.12394 38.6597 8.08935 38.4233C8.05475 38.1869 7.92767 37.9739 7.73605 37.8312C7.54444 37.6885 7.30398 37.6278 7.06759 37.6624ZM36.8303 22.362C37.0789 22.362 37.3174 22.4608 37.4932 22.6366C37.669 22.8124 37.7678 23.0509 37.7678 23.2995C37.7678 23.5482 37.669 23.7866 37.4932 23.9625C37.3174 24.1383 37.0789 24.237 36.8303 24.237H28.9243L29.3366 24.5168C29.5415 24.6557 29.6829 24.8703 29.7296 25.1134C29.7763 25.3565 29.7245 25.6082 29.5856 25.8131C29.4468 26.018 29.2322 26.1594 28.989 26.2061C28.7459 26.2528 28.4942 26.201 28.2893 26.0621L25.3566 24.0723C24.7986 23.6942 24.8182 22.8743 25.3731 22.5157L28.2893 20.537C28.3908 20.4682 28.5048 20.4201 28.6249 20.3954C28.7449 20.3706 28.8687 20.3698 28.9891 20.393C29.1094 20.4161 29.2241 20.4627 29.3264 20.5301C29.4288 20.5976 29.5169 20.6845 29.5856 20.786C29.6544 20.8875 29.7025 21.0015 29.7272 21.1215C29.752 21.2416 29.7528 21.3654 29.7297 21.4857C29.7065 21.6061 29.6599 21.7208 29.5925 21.8231C29.525 21.9255 29.4381 22.0136 29.3366 22.0823L28.9243 22.362H36.8303ZM34.4214 18.3985C34.2165 18.5374 33.9647 18.5892 33.7216 18.5425C33.4785 18.4958 33.2639 18.3544 33.125 18.1495C32.9862 17.9446 32.9344 17.6929 32.9811 17.4498C33.0278 17.2067 33.1691 16.9921 33.3741 16.8532L33.7863 16.5735H25.8804C25.6318 16.5735 25.3933 16.4747 25.2175 16.2989C25.0417 16.123 24.9429 15.8846 24.9429 15.636C24.9429 15.3873 25.0417 15.1489 25.2175 14.973C25.3933 14.7972 25.6318 14.6985 25.8804 14.6985H33.7862L33.3741 14.4188C33.2726 14.3501 33.1857 14.262 33.1182 14.1596C33.0508 14.0573 33.0042 13.9426 32.9811 13.8223C32.958 13.7019 32.9588 13.5781 32.9835 13.4581C33.0082 13.338 33.0563 13.224 33.125 13.1225C33.1938 13.021 33.2819 12.9341 33.3843 12.8667C33.4866 12.7993 33.6013 12.7526 33.7216 12.7295C33.842 12.7064 33.9658 12.7072 34.0858 12.7319C34.2059 12.7566 34.3199 12.8047 34.4214 12.8735L37.3377 14.8522C37.8925 15.2109 37.9122 16.0306 37.3542 16.4088L34.4214 18.3985ZM39.0012 28.9658L57.4943 28.9657C57.5801 28.9661 57.6649 28.9475 57.7427 28.9114C57.8205 28.8753 57.8893 28.8225 57.9444 28.7568C57.9995 28.691 58.0394 28.6139 58.0613 28.531C58.0832 28.4481 58.0865 28.3613 58.0711 28.277C57.2387 23.6065 53.1574 20.0605 48.2477 20.0605C43.3379 20.0605 39.2568 23.6065 38.4243 28.2771C38.4089 28.3615 38.4123 28.4482 38.4342 28.5311C38.4561 28.614 38.496 28.6911 38.5511 28.7568C38.6062 28.8226 38.675 28.8754 38.7528 28.9115C38.8306 28.9476 38.9154 28.9662 39.0012 28.9658ZM48.2479 9.00748C51.0343 9.00748 53.2933 11.2664 53.2933 14.0529C53.2933 16.8394 51.0343 19.0983 48.2479 19.0983C45.4614 19.0983 43.2025 16.8394 43.2025 14.0529C43.2024 11.2664 45.4614 9.00748 48.2479 9.00748ZM16.8611 10.1902L7.45946 15.6184L7.81653 15.8245L8.58657 16.2691L17.9882 10.841L16.8611 10.1902ZM19.8587 11.921L10.4571 17.3491L12.2562 18.3879L21.6579 12.9597L19.8587 11.921ZM22.5932 14.5796V25.4359L13.1937 30.8626V20.0065L22.5932 14.5796ZM11.3187 30.8626L1.91919 25.4359V14.5796L4.6513 16.1571L4.65517 20.3185C4.65515 20.4827 4.69846 20.644 4.78072 20.7861C4.86298 20.9282 4.98129 21.0461 5.12368 21.1278L8.04388 22.8138C8.18415 22.9134 8.34911 22.9724 8.5207 22.9845C8.69228 22.9965 8.86388 22.9612 9.01671 22.8822C9.16953 22.8033 9.2977 22.6838 9.38716 22.5369C9.47663 22.39 9.52395 22.2213 9.52396 22.0493V18.9703L11.3186 20.0065L11.3187 30.8626ZM7.64907 17.8878L6.5263 17.2395V19.7819L7.64907 20.4301V17.8878Z" fill="#FF845E"></path></svg>