<svg xmlns="http://www.w3.org/2000/svg" width="62" height="62" viewBox="0 0 62 62" fill="none"><rect x="1.5" y="1.5" width="59" height="59" rx="29.5" fill="white"></rect><rect x="1.5" y="1.5" width="59" height="59" rx="29.5" stroke="#FF845E" stroke-width="3"></rect><g clip-path="url(#clip0_878_945)"><path d="M22.5 37.625H17V43.25H18.927V41.4294C21.9268 44.9054 26.3151 47 30.9863 47C32.334 47 33.7036 46.8316 35 46.4983L34.5312 44.6819C33.3905 44.9758 32.1765 45.125 30.9863 45.125C26.5514 45.125 22.3873 43.0016 19.7482 39.5H22.5V37.625ZM30.9863 16.875C35.4221 16.875 39.5852 18.9986 42.2241 22.5H39.4375V24.375H44.9375V18.75H43V20.5642C40.0002 17.0917 35.6541 15 30.9863 15C29.6387 15 28.2964 15.1684 27 15.5017L27.4688 17.3181C28.6095 17.0243 29.7961 16.875 30.9863 16.875ZM44.6819 27.4669C44.9767 28.6113 45.125 29.8116 45.125 31C45.125 35.4355 43.0013 39.5992 39.5 42.2372V39.5H37.625V44.9375H43.25V43H41.4411C44.9095 40.0006 47 35.6656 47 31C47 29.6542 46.8316 28.2973 46.4983 27L44.6819 27.4669ZM15 31C15 32.3458 15.1684 33.7027 15.5017 35L17.3181 34.5331C17.0233 33.3887 16.875 32.1884 16.875 31C16.875 26.5641 18.9987 22.3996 22.5 19.7612V22.5625H24.375V17.0625H18.75V19H20.5728C17.0953 21.9996 15 26.3281 15 31ZM24.4631 30.4736C24.429 30.8237 24.429 31.1763 24.4631 31.5264L22.2878 32.7826L25.1003 37.655L27.2939 36.387C27.5778 36.5828 27.8766 36.756 28.1875 36.9052V39.4375H33.8125V36.9051C34.1234 36.756 34.4222 36.5827 34.7061 36.3869L36.8997 37.6549L39.7122 32.7825L37.5369 31.5264C37.571 31.1762 37.571 30.8236 37.5369 30.4735L39.7122 29.2174L36.8997 24.3449L34.7061 25.6129C34.4222 25.4172 34.1234 25.2439 33.8125 25.0948V22.5625H28.1875V25.0949C27.8766 25.244 27.5778 25.4173 27.2939 25.6131L25.1003 24.3451L22.2878 29.2175L24.4631 30.4736ZM31.0247 28.1875C32.5756 28.1875 33.8125 29.4491 33.8125 31C33.8125 32.5509 32.5756 33.8125 31.0247 33.8125C29.4738 33.8125 28.1875 32.5509 28.1875 31C28.1875 29.4491 29.4737 28.1875 31.0247 28.1875Z" fill="#FF845E"></path></g><defs><clipPath id="clip0_878_945"><rect width="32" height="32" fill="white" transform="translate(15 15)"></rect></clipPath></defs></svg>