<svg xmlns="http://www.w3.org/2000/svg" width="36" height="36" viewBox="0 0 36 36" fill="none"><path d="M17.4796 18.6827C17.4656 18.4437 17.5394 18.2004 17.7046 18.0049C17.7145 17.9951 17.7243 17.9831 17.7349 17.9733C17.9015 17.793 18.1317 17.6843 18.3768 17.6702C18.6201 17.6562 18.8711 17.7342 19.0687 17.9093C19.2663 18.0865 19.3738 18.3241 19.3879 18.5667C19.402 18.8037 19.3281 19.0491 19.1629 19.2424C19.1531 19.2544 19.1432 19.2642 19.1348 19.2741C18.9597 19.4611 18.7284 19.5652 18.4928 19.5792C18.2538 19.5933 18.0105 19.5173 17.815 19.3521C17.8052 19.3423 17.7932 19.3324 17.7834 19.324C17.6031 19.1575 17.4943 18.9277 17.4796 18.6827ZM33.1952 23.4724C30.3672 19.8408 31.0963 18.8564 30.9191 16.9052C30.4706 11.9447 26.4867 8.65758 21.9023 7.54945V7.82226C21.9023 8.59922 21.4101 9.27703 20.6725 9.51609L20.29 9.63984C20.178 9.98591 20.0388 10.3226 19.8738 10.6467L20.0573 11.0053C20.4081 11.6951 20.2788 12.5241 19.7303 13.0718L19.0827 13.7173C18.5343 14.2671 17.7053 14.3972 17.0156 14.0463L16.657 13.8628C16.3321 14.028 15.9974 14.1659 15.6522 14.2791L15.5263 14.6616C15.2873 15.3991 14.6095 15.8913 13.8339 15.8913H13.1463C13.3364 16.1364 13.4527 16.4306 13.4816 16.7395C13.5105 17.0483 13.4508 17.359 13.3094 17.6351L13.2334 17.7862C13.3171 17.9634 13.3931 18.147 13.4584 18.3326L13.6202 18.3846C13.8916 18.4746 14.1264 18.6279 14.312 18.8248C14.312 18.8086 14.3099 18.7945 14.3099 18.7791V18.315C14.3099 18.1216 14.3718 17.9402 14.4815 17.7905C14.5891 17.6407 14.7445 17.5254 14.9301 17.4656L15.1277 17.4016C15.1579 17.3116 15.1895 17.2245 15.2254 17.1366C15.2613 17.0529 15.2992 16.9692 15.3428 16.8834L15.2472 16.6957C15.1593 16.5241 15.1333 16.335 15.1614 16.1494C15.1917 15.9659 15.2753 15.7943 15.4124 15.6572L15.7394 15.3302C15.7577 15.312 15.7774 15.2944 15.797 15.2803C15.9229 15.1727 16.0741 15.1052 16.2337 15.0792C16.4172 15.0497 16.6063 15.0771 16.7779 15.165L16.9649 15.2606C17.0507 15.217 17.1344 15.1791 17.2181 15.1432C17.3059 15.1073 17.3931 15.0757 17.4831 15.0455L17.5471 14.8479C17.6069 14.6623 17.7222 14.5069 17.872 14.3993C18.024 14.2876 18.2078 14.2275 18.3965 14.2277H18.8606C19.056 14.2277 19.2374 14.2896 19.3865 14.3993C19.5363 14.5069 19.6516 14.6623 19.7113 14.8479L19.7753 15.0455C19.8632 15.075 19.9504 15.1073 20.0383 15.1432C20.1241 15.1791 20.2077 15.217 20.2914 15.2606L20.4784 15.165C20.65 15.0771 20.8391 15.0511 21.0227 15.0792H21.0248C21.2083 15.1095 21.3799 15.1931 21.5149 15.3302H21.517L21.846 15.6572C21.9817 15.795 22.0675 15.9659 22.097 16.1494C22.097 16.1613 22.0991 16.1712 22.1013 16.181C22.1231 16.3547 22.0935 16.534 22.0113 16.695L21.9156 16.8827C21.9578 16.9685 21.9972 17.0522 22.0309 17.1359C22.0689 17.2237 22.1006 17.3109 22.1308 17.4009L22.3284 17.4649C22.514 17.5247 22.6673 17.6407 22.777 17.7898C22.8871 17.9425 22.9464 18.126 22.9464 18.3143V18.7784C22.9464 18.9738 22.8845 19.1552 22.777 19.3043C22.6673 19.4541 22.514 19.5673 22.3284 19.6291L22.1308 19.6931C22.1006 19.781 22.0689 19.8689 22.0309 19.9561C21.9972 20.0398 21.9571 20.1255 21.9156 20.2092L22.0113 20.397C22.097 20.5685 22.1252 20.7577 22.097 20.9412L22.0949 20.9433H22.097C22.0668 21.1268 21.9817 21.2998 21.846 21.4355L21.517 21.7645C21.3836 21.8982 21.2113 21.9861 21.0248 22.0155C20.8413 22.0437 20.6521 22.0155 20.4784 21.9277L20.2914 21.8341C20.2077 21.8763 20.122 21.9157 20.0383 21.9495C19.9504 21.9874 19.8632 22.0191 19.7753 22.0493L19.7113 22.2469C19.6516 22.4325 19.5363 22.5858 19.3865 22.6955C19.2334 22.8059 19.0493 22.8651 18.8606 22.8649H18.3965C18.2031 22.8649 18.0217 22.803 17.872 22.6955C17.7189 22.5842 17.6051 22.4271 17.5471 22.2469L17.4831 22.0493C17.3939 22.0204 17.3061 21.9871 17.2202 21.9495C17.1344 21.9157 17.0507 21.8756 16.9649 21.8341L16.7779 21.9277C16.6063 22.0155 16.4172 22.043 16.2337 22.0155C16.0502 21.9853 15.8786 21.9002 15.7415 21.7624L15.7394 21.7645L15.4124 21.4355C15.2746 21.2998 15.1909 21.1268 15.1614 20.9433C15.1333 20.7598 15.1593 20.5706 15.2472 20.397L15.3428 20.2092C15.2992 20.1255 15.2613 20.0398 15.2254 19.9561C15.1895 19.8682 15.1579 19.7803 15.1277 19.6931L14.9301 19.6291C14.8443 19.601 14.7649 19.5616 14.6952 19.5117C14.7311 19.6495 14.7508 19.793 14.7508 19.9385V20.6381C14.7508 21.3476 14.2987 21.9712 13.6209 22.1906L13.4592 22.2448C13.3931 22.4304 13.3178 22.6132 13.2342 22.7911L13.3101 22.9423C13.6328 23.5758 13.5133 24.3373 13.0092 24.84L12.517 25.3343C12.2964 25.5557 12.0167 25.709 11.7114 25.7758C11.406 25.8427 11.0879 25.8202 10.795 25.7112C12.1084 27.7523 12.8678 30.0262 11.0404 34.4531C10.8927 34.8075 10.9286 35.1823 11.1438 35.5015C11.3568 35.8221 11.688 36 12.0726 36H23.7184C24.2409 36 24.6831 35.6534 24.8048 35.145L25.4306 32.5716C29.5382 33.409 32.452 33.267 30.8017 29.3984C31.8044 29.0552 32.1334 28.0273 31.0091 27.5688C31.5794 27.4036 32.5216 26.6379 31.5077 25.7653C32.4899 25.7379 34.5866 25.7224 33.1952 23.4724ZM10.0954 13.8635L9.73892 14.047C9.68899 14.0709 9.63907 14.0948 9.58915 14.1145C9.71079 14.2657 9.80642 14.4415 9.86829 14.6348L9.92243 14.7945C10.1081 14.862 10.2909 14.9379 10.4688 15.0216L10.6199 14.9456C10.8252 14.8402 11.0446 14.7818 11.264 14.7684C11.2499 14.7347 11.238 14.6988 11.226 14.663L11.1023 14.2805C10.757 14.1666 10.4202 14.0287 10.0954 13.8635ZM16.4235 17.3215C16.4952 17.19 16.5332 17.0487 16.5353 16.901C16.5395 16.7555 16.5072 16.612 16.4397 16.4805L16.3701 16.3448L16.4256 16.2893L16.5613 16.3589C16.6949 16.4264 16.8363 16.4587 16.9839 16.4545C17.1295 16.4524 17.2708 16.4144 17.4023 16.3406C17.4877 16.2941 17.5755 16.2521 17.6652 16.2148C17.7489 16.1789 17.8403 16.1487 17.9381 16.1212C18.0794 16.0798 18.2074 16.0059 18.3128 15.9061C18.4183 15.8041 18.4963 15.679 18.542 15.5377L18.5899 15.3921H18.6693L18.7171 15.5377C18.7628 15.679 18.8409 15.8048 18.9463 15.9061C19.0521 16.0069 19.1807 16.0807 19.3211 16.1212C19.4188 16.1494 19.5081 16.1789 19.5939 16.2148C19.6895 16.2548 19.7774 16.2963 19.8569 16.3406C19.9844 16.4134 20.1284 16.4526 20.2752 16.4545C20.4229 16.4587 20.5642 16.4264 20.6957 16.3589L20.8335 16.2893L20.8891 16.3448L20.8195 16.4805C20.752 16.6141 20.7196 16.7555 20.7217 16.901C20.7259 17.0487 20.7639 17.19 20.8356 17.3215C20.8834 17.4055 20.9255 17.4926 20.9615 17.5823C20.9974 17.6681 21.029 17.7595 21.0571 17.8552C21.0966 17.9966 21.1706 18.1261 21.2723 18.232C21.3742 18.3375 21.4973 18.4155 21.6407 18.4612L21.7863 18.5091V18.5885L21.6407 18.6342C21.4973 18.682 21.3735 18.7601 21.2723 18.8655C21.1703 18.9689 21.0972 19.0969 21.0571 19.2403C21.029 19.3359 20.9974 19.428 20.9615 19.5131C20.9235 19.6087 20.882 19.6945 20.8356 19.7761C20.7647 19.9044 20.7257 20.0479 20.7217 20.1945C20.7196 20.34 20.752 20.4834 20.8195 20.6149L20.8891 20.7527L20.8335 20.8083L20.6957 20.7387C20.5642 20.6712 20.4229 20.6388 20.2752 20.6409C20.1297 20.6452 19.9863 20.6831 19.8569 20.7548C19.7724 20.803 19.6845 20.8451 19.5939 20.8807C19.5081 20.9166 19.4188 20.9482 19.3211 20.9763C19.1777 21.0164 19.0518 21.0902 18.9463 21.1915C18.8409 21.2934 18.7628 21.4165 18.7171 21.5599L18.6693 21.7055H18.5899L18.542 21.5599C18.4963 21.4165 18.4183 21.2927 18.3128 21.1915C18.2076 21.0899 18.0789 21.0159 17.9381 20.9763C17.8403 20.9482 17.751 20.9166 17.6652 20.8807C17.5696 20.8427 17.4817 20.8012 17.4023 20.7548C17.2738 20.6842 17.1304 20.6452 16.9839 20.6409C16.8363 20.6388 16.6928 20.6705 16.5613 20.7387L16.4256 20.8083L16.3701 20.7527L16.4397 20.6149C16.5072 20.4834 16.5395 20.34 16.5353 20.1945C16.5332 20.0489 16.4952 19.9055 16.4235 19.7761C16.3778 19.6945 16.3356 19.6087 16.2963 19.5131C16.2608 19.4237 16.2296 19.3327 16.2027 19.2403C16.1606 19.0969 16.0874 18.9696 15.9876 18.8655C15.8856 18.7601 15.7605 18.682 15.6192 18.6342L15.4736 18.5885V18.5091L15.6192 18.4612C15.7605 18.4155 15.8863 18.3375 15.9876 18.232C16.0895 18.1266 16.1613 17.9986 16.2027 17.8552C16.2309 17.7595 16.2625 17.6674 16.2963 17.5823C16.3356 17.4888 16.3771 17.4009 16.4235 17.3215ZM16.3216 18.7446C16.3532 19.2867 16.5909 19.8169 17.0268 20.2036V20.2057C17.4634 20.5924 18.0154 20.7675 18.5533 20.7359C19.0954 20.7042 19.6256 20.4666 20.0123 20.0306C20.4011 19.594 20.5762 19.0441 20.5445 18.5041C20.5129 17.962 20.2752 17.4319 19.8393 17.0452C19.4027 16.6563 18.8507 16.4834 18.3128 16.5129C17.7707 16.5445 17.2406 16.7822 16.8538 17.2181C16.465 17.6541 16.292 18.206 16.3216 18.7446ZM9.10821 19.0055C8.75313 18.6884 8.30313 18.547 7.86228 18.573C7.42353 18.5991 6.99532 18.7924 6.68032 19.1468C6.36321 19.5019 6.22188 19.9519 6.2479 20.3927C6.27181 20.823 6.45884 21.2435 6.80407 21.5585C6.81603 21.5684 6.82798 21.5782 6.83782 21.5902C7.17744 21.8845 7.61898 22.034 8.06759 22.0064C8.4979 21.9825 8.91837 21.7934 9.23337 21.4502C9.24321 21.4383 9.25306 21.4263 9.26501 21.4144C9.57017 21.0635 9.70728 20.6191 9.68126 20.1867C9.65665 19.7487 9.46329 19.3205 9.10821 19.0055ZM11.1452 24.6002L10.6811 24.3633C10.5356 24.2895 10.3781 24.2937 10.2367 24.3731C9.92595 24.5447 9.59478 24.6839 9.24603 24.7816C9.09063 24.8273 8.97462 24.937 8.9254 25.0903L8.76368 25.5867C8.6997 25.7857 8.52251 25.9137 8.31509 25.9137H7.61548C7.40806 25.9137 7.23087 25.7864 7.16478 25.5867L7.00517 25.0903C6.95313 24.937 6.83993 24.8273 6.68454 24.7816C6.33579 24.6839 6.00462 24.5447 5.69384 24.3731C5.55251 24.2937 5.3929 24.2895 5.24946 24.3633L4.7854 24.6002C4.59837 24.6959 4.38251 24.6621 4.23556 24.5145L3.74126 24.0202C3.5936 23.8725 3.55985 23.6552 3.65548 23.4703L3.89032 23.0062C3.96415 22.8607 3.96204 22.7032 3.88259 22.5619C3.70883 22.2482 3.57108 21.9158 3.47196 21.5712C3.42837 21.4158 3.31868 21.2998 3.16329 21.2505L2.66899 21.0888C2.47001 21.0248 2.34204 20.8477 2.34204 20.6402V19.9406C2.34204 19.7332 2.46931 19.556 2.66899 19.4899L3.16329 19.3303C3.31868 19.2783 3.42837 19.1651 3.47196 19.0097C3.57108 18.665 3.70883 18.3327 3.88259 18.019C3.96204 17.8777 3.96415 17.7202 3.89032 17.5746L3.65548 17.1105C3.55985 16.9228 3.5936 16.7077 3.74126 16.5607L4.23556 16.0664C4.38321 15.9187 4.59837 15.885 4.7854 15.9806L5.24946 16.2162C5.3929 16.29 5.55251 16.2879 5.69384 16.2084C6.00755 16.0347 6.33989 15.8969 6.68454 15.7978C6.83993 15.7542 6.95384 15.6445 7.00517 15.4891L7.16478 14.9948C7.23087 14.7959 7.40806 14.6679 7.61548 14.6679H8.31509C8.52251 14.6679 8.6997 14.7952 8.76368 14.9948L8.9254 15.4891C8.97532 15.6445 9.09063 15.7542 9.24603 15.7978C9.59067 15.8969 9.92302 16.0347 10.2367 16.2084C10.3781 16.2879 10.5356 16.29 10.6811 16.2162L11.1452 15.9806C11.3308 15.885 11.5481 15.9187 11.695 16.0664L12.1893 16.5607C12.337 16.7084 12.3707 16.9235 12.2751 17.1105L12.0381 17.5746C11.9643 17.7202 11.9685 17.8777 12.048 18.019C12.2195 18.3298 12.3588 18.6609 12.4565 19.0097C12.5022 19.1651 12.6119 19.279 12.7652 19.3303L13.2616 19.4899C13.4606 19.5553 13.5885 19.7332 13.5885 19.9406V20.6402C13.5885 20.8477 13.4613 21.0248 13.2616 21.0888L12.7652 21.2505C12.6119 21.3005 12.5022 21.4158 12.4565 21.5712C12.3588 21.9199 12.2195 22.2511 12.048 22.5619C11.9685 22.7032 11.9643 22.8607 12.0381 23.0062L12.2751 23.4703C12.3707 23.6559 12.337 23.8732 12.1893 24.0202L11.695 24.5145C11.5481 24.6621 11.3308 24.6959 11.1452 24.6002ZM10.8386 20.1234C10.8173 19.7458 10.7217 19.3761 10.5572 19.0355C10.3928 18.6948 10.1627 18.39 9.88024 18.1385C9.2861 17.6105 8.53517 17.3735 7.7997 17.415C7.06212 17.4586 6.34282 17.782 5.81478 18.3755C5.28673 18.9689 5.04837 19.7212 5.09056 20.4567C5.13415 21.1943 5.45759 21.9136 6.05103 22.4416C6.64517 22.9697 7.3961 23.2066 8.13157 23.163C8.86704 23.1209 9.58845 22.7981 10.1165 22.2047C10.6452 21.6105 10.8822 20.8589 10.8386 20.1234ZM6.01095 7.82226V6.90961C6.01095 6.63679 6.17829 6.40336 6.43774 6.31969L7.08743 6.10875C7.29064 6.04265 7.43407 5.89359 7.49173 5.69039C7.61988 5.23849 7.8004 4.80312 8.02962 4.39312C8.13298 4.2075 8.1372 4.00078 8.03946 3.81094L7.73079 3.20133C7.60493 2.95804 7.65134 2.67539 7.8447 2.48203L8.49017 1.83656C8.68353 1.6432 8.96618 1.5975 9.20946 1.72265L9.81907 2.03133C10.0082 2.12906 10.2156 2.12484 10.4013 2.02148C10.8113 1.79227 11.2466 1.61175 11.6985 1.48359C11.9017 1.42594 12.0515 1.2825 12.1169 1.07929L12.3278 0.429607C12.4115 0.170857 12.6449 0.00140381 12.9177 0.00140381H13.8325C14.1053 0.00140381 14.3367 0.170857 14.4203 0.429607L14.6313 1.07929C14.6974 1.2825 14.8464 1.42594 15.0517 1.48359C15.5033 1.6115 15.9382 1.79203 16.3476 2.02148C16.5346 2.12484 16.742 2.12906 16.9319 2.03133L17.5401 1.72265C17.7834 1.59679 18.066 1.6432 18.2594 1.83656L18.907 2.48203C19.0982 2.67539 19.1439 2.95804 19.0209 3.20133L18.7101 3.81094C18.6145 4.00008 18.6187 4.2075 18.722 4.39312C18.947 4.79953 19.1284 5.23406 19.2585 5.69039C19.3183 5.89359 19.4617 6.04336 19.6628 6.10875L20.3125 6.31969C20.572 6.40336 20.7407 6.63679 20.7407 6.90961V7.82226C20.7407 8.09508 20.5713 8.32851 20.3125 8.41219L19.6628 8.62312C19.4617 8.68851 19.3162 8.83828 19.2585 9.04359C19.1297 9.4946 18.9497 9.92938 18.722 10.3395C18.6187 10.5251 18.6145 10.7318 18.7101 10.923L19.0209 11.5312C19.1446 11.7745 19.0989 12.0572 18.907 12.2505L18.2594 12.8981C18.066 13.0894 17.7834 13.1351 17.5401 13.012L16.9319 12.7012C16.7427 12.6056 16.5332 12.6098 16.3476 12.7132C15.9377 12.9413 15.5029 13.1213 15.0517 13.2497C14.8464 13.3073 14.6967 13.4529 14.6313 13.654L14.4203 14.3037C14.3367 14.5624 14.1053 14.7319 13.8325 14.7319H12.9177C12.6449 14.7319 12.4115 14.5624 12.3278 14.3037L12.1169 13.654C12.0508 13.4529 11.9017 13.3073 11.6985 13.2497C11.2469 13.1214 10.8116 12.9414 10.4013 12.7132C10.2156 12.6098 10.0089 12.6056 9.81907 12.7012L9.20946 13.012C8.96618 13.1358 8.68353 13.0901 8.49017 12.8981L7.8447 12.2505C7.65134 12.0572 7.60563 11.7745 7.73079 11.5312L8.03946 10.923C8.1372 10.7318 8.13298 10.5244 8.02962 10.3395C7.80065 9.92983 7.62014 9.49495 7.49173 9.04359C7.43407 8.83828 7.29064 8.68851 7.08743 8.62312L6.43774 8.41219C6.17899 8.32851 6.01095 8.09508 6.01095 7.82226ZM9.79446 7.57336C9.8486 8.49234 10.2508 9.38883 10.9905 10.0491C11.7316 10.7065 12.6667 11.0018 13.5836 10.9498C14.5026 10.8956 15.3991 10.4913 16.0593 9.75164C16.7167 9.01195 17.012 8.07539 16.96 7.15851C16.9059 6.23953 16.5016 5.34304 15.7619 4.68492C15.0222 4.02539 14.0856 3.73008 13.1688 3.78422C12.2498 3.83765 11.3533 4.24054 10.6952 4.98023C10.0356 5.71922 9.74032 6.65648 9.79446 7.57336ZM11.7611 9.1814C12.2631 9.62789 12.8974 9.82687 13.5189 9.79101C14.1391 9.75515 14.7445 9.48234 15.1909 8.97961C15.6374 8.47969 15.8385 7.84336 15.8006 7.22179C15.7825 6.90331 15.7015 6.59156 15.5622 6.30457C15.4229 6.01758 15.2282 5.76103 14.9892 5.54976C14.4892 5.10328 13.8529 4.90429 13.2313 4.94015C12.6133 4.97601 12.0058 5.24883 11.5593 5.75156C11.1312 6.23358 10.912 6.86581 10.9497 7.50937C10.9863 8.12883 11.2591 8.73492 11.7611 9.1814Z" fill="#FF845E"></path></svg>