<svg xmlns="http://www.w3.org/2000/svg" width="50" height="50" viewBox="0 0 50 50" fill="none"><g clip-path="url(#clip0_985_730)"><path d="M10.3464 38.7956H39.6568C39.8854 38.7956 40.1047 38.7048 40.2664 38.5432C40.428 38.3815 40.5189 38.1622 40.5189 37.9336C40.5189 37.7049 40.428 37.4857 40.2664 37.324C40.1047 37.1623 39.8854 37.0715 39.6568 37.0715H36.2085V18.9681C36.2085 18.7394 36.1177 18.5202 35.956 18.3585C35.7943 18.1968 35.5751 18.106 35.3464 18.106H33.6223C33.3937 18.106 33.1744 18.1968 33.0127 18.3585C32.8511 18.5202 32.7602 18.7394 32.7602 18.9681V37.0715H29.312V22.4163C29.312 22.1877 29.2211 21.9684 29.0595 21.8068C28.8978 21.6451 28.6785 21.5543 28.4499 21.5543H26.7258C26.4971 21.5543 26.2778 21.6451 26.1162 21.8068C25.9545 21.9684 25.8637 22.1877 25.8637 22.4163V37.0715H22.4154V25.8646C22.4154 25.636 22.3246 25.4167 22.1629 25.255C22.0012 25.0934 21.782 25.0025 21.5533 25.0025H19.8292C19.6006 25.0025 19.3813 25.0934 19.2196 25.255C19.058 25.4167 18.9671 25.636 18.9671 25.8646V37.0715H15.5189V31.037C15.5189 30.8084 15.428 30.5891 15.2664 30.4274C15.1047 30.2658 14.8854 30.175 14.6568 30.175H12.9327C12.704 30.175 12.4847 30.2658 12.3231 30.4274C12.1614 30.5891 12.0706 30.8084 12.0706 31.037V37.0715H10.3464C10.1178 37.0715 9.89854 37.1623 9.73687 37.324C9.5752 37.4857 9.48438 37.7049 9.48438 37.9336C9.48438 38.1622 9.5752 38.3815 9.73687 38.5432C9.89854 38.7048 10.1178 38.7956 10.3464 38.7956ZM11.3301 25.4431C11.447 25.6391 11.6369 25.7808 11.8581 25.8371C12.0794 25.8933 12.3139 25.8595 12.5102 25.7431L34.0163 12.975L33.6482 14.4482C33.6007 14.667 33.6402 14.8957 33.7583 15.0858C33.8764 15.276 34.0639 15.4128 34.281 15.4672C34.4982 15.5216 34.728 15.4894 34.9218 15.3775C35.1157 15.2655 35.2584 15.0825 35.3197 14.8672L36.1818 11.4189C36.2093 11.3091 36.2149 11.1948 36.1982 11.0828C36.1815 10.9708 36.143 10.8631 36.0847 10.766C36.0264 10.6689 35.9495 10.5843 35.8585 10.5169C35.7675 10.4495 35.6641 10.4006 35.5542 10.3732L32.1059 9.51116C31.9951 9.48078 31.8794 9.47285 31.7655 9.48784C31.6516 9.50283 31.5418 9.54043 31.4426 9.59845C31.3435 9.65646 31.2569 9.73371 31.188 9.82565C31.1191 9.9176 31.0693 10.0224 31.0415 10.1339C31.0137 10.2453 31.0084 10.3612 31.0261 10.4748C31.0437 10.5883 31.0838 10.6972 31.1441 10.795C31.2044 10.8927 31.2837 10.9775 31.3772 11.0442C31.4707 11.111 31.5766 11.1584 31.6887 11.1836L33.068 11.5284L11.6301 24.2612C11.5327 24.3191 11.4478 24.3955 11.38 24.4863C11.3123 24.577 11.2631 24.6802 11.2352 24.79C11.2074 24.8997 11.2014 25.0139 11.2177 25.1259C11.2339 25.238 11.2721 25.3458 11.3301 25.4431Z" fill="#FF845E"></path><path d="M25.0012 1.72579V0.819752C25.0016 0.669079 24.9609 0.521145 24.8836 0.391842C24.8062 0.262539 24.6951 0.156753 24.5622 0.0858474C24.4292 0.0149419 24.2795 -0.0184038 24.129 -0.0106077C23.9785 -0.00281157 23.833 0.0458318 23.7081 0.130097L21.0598 1.8982C20.9462 1.97383 20.853 2.07636 20.7886 2.19667C20.7241 2.31699 20.6904 2.45136 20.6904 2.58786C20.6904 2.72435 20.7241 2.85872 20.7886 2.97904C20.853 3.09936 20.9462 3.20188 21.0598 3.27751L23.7081 5.04561C23.833 5.12988 23.9785 5.17852 24.129 5.18632C24.2795 5.19412 24.4292 5.16077 24.5622 5.08986C24.6951 5.01896 24.8062 4.91317 24.8836 4.78387C24.9609 4.65457 25.0016 4.50663 25.0012 4.35596V3.44992C37.3805 3.44992 47.415 13.4844 47.415 25.8637C47.415 38.243 37.3805 48.2775 25.0012 48.2775C12.6219 48.2775 2.58742 38.243 2.58742 25.8637C2.58742 25.6351 2.49659 25.4158 2.33493 25.2541C2.17326 25.0925 1.95399 25.0017 1.72535 25.0017C1.49672 25.0017 1.27744 25.0925 1.11578 25.2541C0.954106 25.4158 0.863281 25.6351 0.863281 25.8637C0.863281 39.1948 11.6702 50.0017 25.0012 50.0017C38.3322 50.0017 49.1391 39.1948 49.1391 25.8637C49.1391 12.5327 38.3322 1.72579 25.0012 1.72579ZM1.85207 23.268C1.96442 23.2853 2.07907 23.2801 2.18942 23.2529C2.29977 23.2256 2.40364 23.1768 2.49506 23.1093C2.58648 23.0417 2.66364 22.9568 2.7221 22.8593C2.78056 22.7618 2.81916 22.6538 2.8357 22.5413C2.87707 22.2629 2.9219 21.9861 2.97535 21.7111C3.01347 21.488 2.96225 21.2587 2.83278 21.073C2.7033 20.8873 2.50595 20.7599 2.28336 20.7185C2.06078 20.6771 1.83082 20.7248 1.64318 20.8515C1.45554 20.9782 1.32527 21.1737 1.28052 21.3956C1.22535 21.6913 1.17449 21.9887 1.13052 22.2896C1.09712 22.5149 1.15426 22.7443 1.28946 22.9277C1.42466 23.111 1.62693 23.2334 1.85207 23.268ZM2.75983 18.9172C2.97532 18.9934 3.21225 18.9809 3.41853 18.8824C3.6248 18.784 3.78354 18.6076 3.85983 18.3922C3.95897 18.1129 4.06328 17.8361 4.1719 17.5629C4.25673 17.3505 4.2537 17.1131 4.16349 16.9029C4.07328 16.6927 3.90327 16.527 3.69087 16.4422C3.47847 16.3573 3.24107 16.3604 3.0309 16.4506C2.82073 16.5408 2.655 16.7108 2.57018 16.9232C2.4525 17.2192 2.3407 17.5176 2.23483 17.818C2.15891 18.0334 2.17154 18.2701 2.26998 18.4762C2.36841 18.6823 2.54458 18.8409 2.75983 18.9172ZM4.64604 14.531C4.8412 14.6499 5.0756 14.6865 5.29771 14.6326C5.51982 14.5788 5.71147 14.439 5.83052 14.2439C6.00294 13.9629 6.17966 13.6861 6.36156 13.4129C6.48891 13.2229 6.53557 12.9901 6.49127 12.7657C6.44697 12.5413 6.31535 12.3437 6.12535 12.2163C5.93535 12.089 5.70255 12.0423 5.47815 12.0866C5.25376 12.1309 5.05615 12.2625 4.9288 12.4525C4.73225 12.7456 4.54259 13.043 4.35897 13.3456C4.29995 13.4423 4.26055 13.5496 4.24303 13.6615C4.22552 13.7734 4.23022 13.8877 4.25688 13.9978C4.28354 14.1079 4.33163 14.2116 4.39841 14.3031C4.46518 14.3946 4.54933 14.472 4.64604 14.531ZM7.75983 11.0887C7.88015 11.0888 7.99914 11.0636 8.10915 11.0149C8.21917 10.9662 8.31778 10.8951 8.39863 10.806C8.61845 10.5629 8.84518 10.3258 9.07621 10.0922C9.2374 9.92984 9.3275 9.71012 9.32669 9.48136C9.32588 9.2526 9.23423 9.03353 9.0719 8.87234C8.90957 8.71115 8.68986 8.62105 8.4611 8.62186C8.23233 8.62267 8.01326 8.71432 7.85207 8.87665C7.60207 9.12837 7.35897 9.38613 7.12104 9.64734C7.00883 9.77099 6.93495 9.92457 6.90837 10.0894C6.88179 10.2543 6.90365 10.4233 6.97131 10.5759C7.03896 10.7286 7.14949 10.8583 7.28947 10.9493C7.42945 11.0404 7.59286 11.0888 7.75983 11.0887ZM11.2081 7.97493C11.3926 7.97363 11.5717 7.9132 11.7193 7.80251C11.9469 7.6301 12.1797 7.46975 12.415 7.30941C12.5086 7.24573 12.5888 7.16423 12.6509 7.06957C12.713 6.97491 12.7559 6.86894 12.7771 6.75771C12.7983 6.64648 12.7973 6.53217 12.7743 6.4213C12.7513 6.31044 12.7067 6.20519 12.643 6.11156C12.5793 6.01794 12.4978 5.93778 12.4032 5.87565C12.3085 5.81352 12.2026 5.77065 12.0913 5.74947C11.9801 5.7283 11.8658 5.72924 11.7549 5.75225C11.6441 5.77525 11.5388 5.81987 11.4452 5.88355C11.1909 6.05596 10.9417 6.23268 10.6952 6.41458C10.5507 6.52292 10.4439 6.67388 10.3899 6.84617C10.3358 7.01845 10.3372 7.20337 10.3939 7.37481C10.4506 7.54625 10.5596 7.69557 10.7057 7.8017C10.8518 7.90783 11.0275 7.96541 11.2081 7.96631V7.97493ZM14.8038 5.79734C14.9343 5.79748 15.0631 5.76801 15.1805 5.71113C15.4107 5.59993 15.64 5.49303 15.8702 5.38958C16.0789 5.2963 16.2421 5.12391 16.3237 4.91035C16.4053 4.69678 16.3988 4.45953 16.3055 4.25079C16.2122 4.04204 16.0399 3.87891 15.8263 3.79726C15.6127 3.71562 15.3755 3.72216 15.1667 3.81544C14.9167 3.92751 14.6702 4.04303 14.4245 4.16027C14.2486 4.24546 14.1069 4.38788 14.0225 4.56419C13.9382 4.7405 13.9163 4.94023 13.9604 5.13063C14.0045 5.32103 14.112 5.49079 14.2652 5.61209C14.4185 5.73338 14.6084 5.79815 14.8038 5.79734Z" fill="#FF845E"></path></g><defs><clipPath id="clip0_985_730"><rect width="50" height="50" fill="white"></rect></clipPath></defs></svg>