<svg xmlns="http://www.w3.org/2000/svg" width="25" height="25" viewBox="0 0 25 25" fill="none"><path fill-rule="evenodd" clip-rule="evenodd" d="M20.0361 1.43604C19.5259 2.06201 19.0991 2.7417 18.7661 3.45605L21.2808 3.46582C20.9556 2.74902 20.5386 2.06641 20.0361 1.43604ZM8.26514 20.9658H2.34912L3.82666 23.5278L8.26514 20.9658ZM10.8335 17.0586C10.8335 15.7109 9.73682 14.6143 8.38867 14.6143C7.04053 14.6143 5.94385 15.7109 5.94385 17.0586C5.94385 18.4062 7.04053 19.5024 8.38867 19.5024C9.73682 19.5024 10.8335 18.4062 10.8335 17.0586ZM9.35596 16.1323C9.41357 16.2832 9.33789 16.4526 9.18652 16.5098C9.03516 16.5669 8.86572 16.4912 8.80762 16.3398C8.75586 16.1997 8.59033 16.102 8.40674 16.102C8.1792 16.102 7.98975 16.252 7.98975 16.4292C7.98975 16.5176 8.02344 16.6235 8.12158 16.6572L8.48437 16.7812C8.48828 16.7827 8.49219 16.7847 8.49854 16.7861L8.94141 16.9634C9.2124 17.0713 9.37598 17.3423 9.37598 17.6875C9.37598 18.0923 9.08301 18.436 8.68213 18.5557V18.7944C8.68213 18.9561 8.55029 19.0874 8.38916 19.0874C8.22754 19.0874 8.09619 18.9561 8.09619 18.7944V18.5654C7.78711 18.4849 7.53174 18.272 7.42236 17.9849C7.36475 17.8335 7.44238 17.6646 7.59375 17.6069C7.74512 17.5498 7.9126 17.626 7.9707 17.7773C8.02441 17.9175 8.18799 18.0151 8.37158 18.0151C8.59912 18.0151 8.79053 17.8652 8.79053 17.6875C8.79053 17.6133 8.77051 17.5254 8.72461 17.5073L8.28809 17.3335L7.93311 17.2114C7.6123 17.1011 7.40478 16.7944 7.40478 16.4292C7.40478 16.0244 7.6958 15.6807 8.09668 15.561V15.3228C8.09668 15.1606 8.22852 15.0298 8.38965 15.0298C8.55127 15.0298 8.68262 15.1606 8.68262 15.3228V15.5518C8.99121 15.6323 9.24658 15.8452 9.35596 16.1323ZM8.51465 13.1509H14.4312L12.9517 10.5894L8.51465 13.1509ZM15.5737 20.3799H1.2041V13.7368H15.5732V20.3799H15.5737ZM14.2896 19.062H13.1909C13.0273 19.062 12.8979 19.1934 12.8979 19.355C12.8979 19.5171 13.0273 19.6479 13.1909 19.6479H14.583C14.7446 19.6479 14.876 19.5171 14.876 19.355V17.9614C14.876 17.7998 14.7441 17.6685 14.583 17.6685C14.4214 17.6685 14.29 17.7998 14.29 17.9614V19.062H14.2896ZM13.1885 15.0547H14.2891V16.1553C14.2891 16.3174 14.4209 16.4482 14.582 16.4482C14.7437 16.4482 14.875 16.3174 14.875 16.1553V14.7617C14.875 14.6001 14.7432 14.4688 14.582 14.4688H13.1885C13.0269 14.4688 12.8955 14.6001 12.8955 14.7617C12.8955 14.9233 13.0269 15.0547 13.1885 15.0547ZM11.4199 17.0586C11.4199 18.729 10.0601 20.0884 8.38916 20.0884C6.71826 20.0884 5.36035 18.729 5.36035 17.0586C5.36035 15.3877 6.71826 14.0283 8.38916 14.0283C10.0601 14.0283 11.4199 15.3877 11.4199 17.0586ZM2.48828 17.9614C2.48828 17.7998 2.35645 17.6685 2.19531 17.6685C2.03369 17.6685 1.90234 17.7998 1.90234 17.9614V19.355C1.90234 19.5171 2.03418 19.6479 2.19531 19.6479H3.58936C3.75098 19.6479 3.88232 19.5171 3.88232 19.355C3.88232 19.1934 3.75049 19.062 3.58936 19.062H2.48828V17.9614ZM2.48828 15.0547H3.58887C3.75049 15.0547 3.88184 14.9233 3.88184 14.7617C3.88184 14.6001 3.75 14.4688 3.58887 14.4688H2.19531C2.03369 14.4688 1.90234 14.6001 1.90234 14.7617V16.1553C1.90234 16.3174 2.03418 16.4482 2.19531 16.4482C2.35693 16.4482 2.48828 16.3174 2.48828 16.1553V15.0547ZM18.3374 17.8643V16.1328C18.3374 15.9712 18.2056 15.8398 18.0444 15.8398C17.8828 15.8398 17.7515 15.9712 17.7515 16.1328V17.8643C17.7515 18.0259 17.8833 18.1572 18.0444 18.1572C18.2056 18.1572 18.3374 18.0259 18.3374 17.8643ZM21.5117 16.1328V17.8643C21.5117 18.0259 21.6436 18.1572 21.8047 18.1572C21.9663 18.1572 22.0977 18.0259 22.0977 17.8643V16.1328C22.0977 15.9712 21.9658 15.8398 21.8047 15.8398C21.6436 15.8398 21.5117 15.9712 21.5117 16.1328ZM19.9243 16.4272C19.7627 16.4272 19.6313 16.5586 19.6313 16.7202V18.563C19.6313 18.7251 19.7632 18.856 19.9243 18.856C20.0859 18.856 20.2173 18.7251 20.2173 18.563V16.7202C20.2178 16.5586 20.0859 16.4272 19.9243 16.4272ZM16.4092 11.6768C16.8657 11.3252 17.416 10.9839 18.0645 10.7793C17.8174 10.1875 17.6299 9.57666 17.5039 8.95654C16.8735 9.7168 16.5127 10.6143 16.4092 11.6768ZM21.8008 13.6411C21.5396 12.8237 21.0171 11.9966 19.9741 11.9902H19.9619C18.9248 11.9902 18.3965 12.8081 18.1255 13.6191L18.7056 13.6226C18.7689 13.6232 18.8302 13.6442 18.8806 13.6826C18.9309 13.721 18.9675 13.7746 18.9849 13.8354C19.1943 14.5674 19.5532 15.0781 19.9521 15.5449C20.3569 15.083 20.7217 14.5767 20.939 13.8472C20.9771 13.7227 21.0903 13.6377 21.2202 13.6377H21.2222L21.8008 13.6411ZM22.481 8.98389C22.3452 9.60303 22.1519 10.2119 21.8965 10.8013C22.5444 11.0132 23.0908 11.3618 23.5435 11.7188C23.4521 10.6543 23.1011 9.75195 22.481 8.98389ZM21.436 10.3872L18.5327 10.376C18.6924 10.7827 18.8818 11.1812 19.0991 11.5679C19.3643 11.46 19.6514 11.4043 19.9624 11.4043H19.9766C20.2935 11.4062 20.585 11.4653 20.8521 11.5781C21.0752 11.1924 21.2705 10.7944 21.436 10.3872ZM20.9058 7.00439C20.9097 6.52588 20.5229 6.13428 20.0444 6.13135H20.0386C19.562 6.13135 19.1733 6.51709 19.1714 6.99414C19.1694 7.22607 19.2593 7.44434 19.4229 7.60937C19.5845 7.77441 19.8018 7.86572 20.0352 7.86719H20.0391C20.2705 7.86719 20.4858 7.77832 20.6494 7.6167C20.814 7.45361 20.9058 7.23633 20.9058 7.00439ZM21.522 4.05273C21.897 5.05029 22.0981 6.10156 22.1104 7.16016C22.0903 8.05322 21.9351 8.94336 21.6499 9.80176L18.3257 9.78906C18.0503 8.92529 17.9048 8.03125 17.897 7.13525C17.9189 6.0791 18.1323 5.03271 18.5171 4.04102L21.522 4.05273ZM20.0464 5.54541C20.8501 5.5498 21.498 6.20605 21.4922 7.00781C21.4902 7.396 21.3364 7.76025 21.0615 8.0332C20.7861 8.3042 20.4233 8.45312 20.0386 8.45312H20.0308C19.6421 8.45068 19.2788 8.29736 19.0039 8.021C18.7329 7.74512 18.583 7.37891 18.585 6.99072C18.5889 6.19189 19.2412 5.54541 20.0386 5.54541H20.0464Z" fill="#FF845E"></path></svg>