<svg xmlns="http://www.w3.org/2000/svg" width="32" height="32" viewBox="0 0 32 32" fill="none"><g clip-path="url(#clip0_1781_3737)"><path d="M23.2188 29.5375C23.0625 29.775 22.8062 29.9188 22.525 29.9188H9.475C9.19375 29.9188 8.93125 29.775 8.78125 29.5375C8.63125 29.3063 8.6125 29.0188 8.71875 28.7688C9.0375 28.0563 9.75 27.6 10.5312 27.6H12.0938V26.225H19.9125V27.6H21.475C22.2563 27.6 22.9625 28.0625 23.2875 28.7688C23.3938 29.0188 23.3688 29.3125 23.2188 29.5375ZM10.4187 9.83752C9.9875 11.4438 8.5125 12.6313 6.775 12.6313C4.69375 12.625 3 10.9375 3 8.85627C3 7.11252 4.1875 5.64377 5.79375 5.21252C5.75 5.38127 5.775 5.26877 5.76875 8.85627C5.76875 9.40627 6.21875 9.85627 6.76875 9.85627C10.3375 9.85002 10.2437 9.86877 10.4187 9.83752Z" fill="#FF845E"></path><path d="M10.5437 8.85627C10.5437 9.03752 10.3937 9.18752 10.2125 9.18752H6.775C6.59375 9.18752 6.44375 9.03752 6.44375 8.85627V5.41877C6.44375 5.23127 6.59375 5.08752 6.775 5.08752C8.85625 5.08752 10.5437 6.77502 10.5437 8.85627ZM10.2125 14.65H3.33125C3.15 14.65 3 14.5 3 14.3188C3 14.1375 3.15 13.9875 3.33125 13.9875H10.2125C10.3937 13.9875 10.5437 14.1375 10.5437 14.3188C10.5437 14.5 10.3937 14.65 10.2125 14.65ZM10.2125 16.6125H3.33125C3.15 16.6125 3 16.4625 3 16.2813C3 16.1 3.15 15.95 3.33125 15.95H10.2125C10.3937 15.95 10.5437 16.1 10.5437 16.2813C10.5437 16.4688 10.3937 16.6125 10.2125 16.6125ZM10.2125 18.5813H3.33125C3.15 18.5813 3 18.4313 3 18.25C3 18.0688 3.15 17.9188 3.33125 17.9188H10.2125C10.3937 17.9188 10.5437 18.0688 10.5437 18.25C10.5437 18.4313 10.3937 18.5813 10.2125 18.5813ZM16.65 13.0313V17.9125C16.65 18.2813 16.35 18.5813 15.9812 18.5813H14.5938C14.225 18.5813 13.925 18.2813 13.925 17.9125V13.0313C13.925 12.6625 14.2188 12.3625 14.5938 12.3625H15.9812C16.35 12.3625 16.65 12.6625 16.65 13.0313ZM20.7687 9.59377V17.9125C20.7687 18.2813 20.4688 18.5813 20.1 18.5813H18.7125C18.3437 18.5813 18.0438 18.2813 18.0438 17.9125V9.59377C18.0438 9.22502 18.3375 8.92502 18.7125 8.92502H20.1C20.4688 8.92502 20.7687 9.22502 20.7687 9.59377ZM24.8813 13.0313V17.9125C24.8813 18.2813 24.5812 18.5813 24.2125 18.5813H22.8188C22.45 18.5813 22.15 18.2813 22.15 17.9125V13.0313C22.15 12.6625 22.45 12.3625 22.8188 12.3625H24.2125C24.5812 12.3625 24.8813 12.6625 24.8813 13.0313ZM29 10.9938V17.9125C29 18.2813 28.7 18.5813 28.3312 18.5813H26.9375C26.5687 18.5813 26.2687 18.2813 26.2687 17.9125V10.9938C26.2687 10.625 26.5687 10.325 26.9375 10.325H28.3312C28.7 10.325 29 10.625 29 10.9938Z" fill="#FF845E"></path><path d="M23.5188 10.6437C23.425 10.6437 23.3313 10.6 23.2625 10.525L19.375 5.89999L15.5188 9.62499C15.3875 9.74999 15.175 9.74999 15.05 9.61874C14.925 9.48749 14.925 9.27499 15.0563 9.14999L19.175 5.17499C19.2438 5.11249 19.3313 5.07499 19.425 5.08124C19.5188 5.08749 19.6063 5.13124 19.6625 5.19999L23.5813 9.86249L27.45 7.13124C27.6 7.02499 27.8063 7.06249 27.9125 7.21249C28.0188 7.36249 27.9813 7.56874 27.8313 7.67499L23.7125 10.5875C23.6563 10.625 23.5875 10.6437 23.5188 10.6437ZM16 22.45C15.75 22.45 15.5438 22.6562 15.5438 22.9062C15.5438 23.1562 15.75 23.3625 16 23.3625C16.25 23.3625 16.4563 23.1562 16.4563 22.9062C16.4563 22.6562 16.25 22.45 16 22.45Z" fill="#FF845E"></path><path d="M30.3312 2.0813H1.66875C0.74375 2.0813 0 2.82505 0 3.7438V23.8938C0 24.8125 0.74375 25.5625 1.66875 25.5625H30.3375C31.2562 25.5625 32.0062 24.8125 32.0062 23.8938V3.7438C32 2.82505 31.25 2.0813 30.3312 2.0813ZM16 24.0313C15.3813 24.0313 14.875 23.525 14.875 22.9063C14.875 22.2875 15.3813 21.7813 16 21.7813C16.6187 21.7813 17.125 22.2875 17.125 22.9063C17.125 23.525 16.6187 24.0313 16 24.0313ZM30.6688 20.2438H1.33125V3.7438C1.33125 3.56255 1.48125 3.41255 1.6625 3.41255H30.3312C30.5125 3.41255 30.6625 3.56255 30.6625 3.7438V20.2438H30.6688Z" fill="#FF845E"></path></g><defs><clipPath id="clip0_1781_3737"><rect width="32" height="32" fill="white"></rect></clipPath></defs></svg>