<svg xmlns="http://www.w3.org/2000/svg" width="60" height="60" viewBox="0 0 60 60" fill="none"><g clip-path="url(#clip0_1392_3632)"><path d="M43.5352 55.3828C43.2422 55.8281 42.7617 56.0977 42.2344 56.0977H17.7656C17.2383 56.0977 16.7461 55.8281 16.4648 55.3828C16.1836 54.9492 16.1484 54.4102 16.3477 53.9414C16.9453 52.6055 18.2813 51.75 19.7461 51.75H22.6758V49.1719H37.3359V51.75H40.2656C41.7305 51.75 43.0547 52.6172 43.6641 53.9414C43.8633 54.4102 43.8164 54.9609 43.5352 55.3828ZM19.5352 18.4453C18.7266 21.457 15.9609 23.6836 12.7031 23.6836C8.80078 23.6719 5.625 20.5078 5.625 16.6055C5.625 13.3359 7.85156 10.582 10.8633 9.77344C10.7812 10.0898 10.8281 9.87891 10.8164 16.6055C10.8164 17.6367 11.6602 18.4805 12.6914 18.4805C19.3828 18.4688 19.207 18.5039 19.5352 18.4453Z" fill="#FF845E"></path><path d="M19.7695 16.6055C19.7695 16.9453 19.4883 17.2266 19.1484 17.2266H12.7031C12.3633 17.2266 12.082 16.9453 12.082 16.6055V10.1602C12.082 9.80859 12.3633 9.53906 12.7031 9.53906C16.6055 9.53906 19.7695 12.7031 19.7695 16.6055ZM19.1484 27.4688H6.24609C5.90625 27.4688 5.625 27.1875 5.625 26.8477C5.625 26.5078 5.90625 26.2266 6.24609 26.2266H19.1484C19.4883 26.2266 19.7695 26.5078 19.7695 26.8477C19.7695 27.1875 19.4883 27.4688 19.1484 27.4688ZM19.1484 31.1484H6.24609C5.90625 31.1484 5.625 30.8672 5.625 30.5273C5.625 30.1875 5.90625 29.9062 6.24609 29.9062H19.1484C19.4883 29.9062 19.7695 30.1875 19.7695 30.5273C19.7695 30.8789 19.4883 31.1484 19.1484 31.1484ZM19.1484 34.8398H6.24609C5.90625 34.8398 5.625 34.5586 5.625 34.2188C5.625 33.8789 5.90625 33.5977 6.24609 33.5977H19.1484C19.4883 33.5977 19.7695 33.8789 19.7695 34.2188C19.7695 34.5586 19.4883 34.8398 19.1484 34.8398ZM31.2187 24.4336V33.5859C31.2187 34.2773 30.6562 34.8398 29.9648 34.8398H27.3633C26.6719 34.8398 26.1094 34.2773 26.1094 33.5859V24.4336C26.1094 23.7422 26.6602 23.1797 27.3633 23.1797H29.9648C30.6562 23.1797 31.2187 23.7422 31.2187 24.4336ZM38.9414 17.9883V33.5859C38.9414 34.2773 38.3789 34.8398 37.6875 34.8398H35.0859C34.3945 34.8398 33.832 34.2773 33.832 33.5859V17.9883C33.832 17.2969 34.3828 16.7344 35.0859 16.7344H37.6875C38.3789 16.7344 38.9414 17.2969 38.9414 17.9883ZM46.6523 24.4336V33.5859C46.6523 34.2773 46.0898 34.8398 45.3984 34.8398H42.7852C42.0938 34.8398 41.5312 34.2773 41.5312 33.5859V24.4336C41.5312 23.7422 42.0938 23.1797 42.7852 23.1797H45.3984C46.0898 23.1797 46.6523 23.7422 46.6523 24.4336ZM54.375 20.6133V33.5859C54.375 34.2773 53.8125 34.8398 53.1211 34.8398H50.5078C49.8164 34.8398 49.2539 34.2773 49.2539 33.5859V20.6133C49.2539 19.9219 49.8164 19.3594 50.5078 19.3594H53.1211C53.8125 19.3594 54.375 19.9219 54.375 20.6133Z" fill="#FF845E"></path><path d="M44.0977 19.957C43.9219 19.957 43.7461 19.875 43.6172 19.7344L36.3282 11.0625L29.0977 18.0469C28.8516 18.2812 28.4532 18.2812 28.2188 18.0351C27.9844 17.789 27.9844 17.3906 28.2305 17.1562L35.9532 9.70311C36.0821 9.58592 36.2461 9.51561 36.4219 9.52733C36.5977 9.53905 36.7617 9.62108 36.8672 9.74999L44.2149 18.4922L51.4688 13.3711C51.75 13.1719 52.1367 13.2422 52.336 13.5234C52.5352 13.8047 52.4649 14.1914 52.1836 14.3906L44.461 19.8515C44.3555 19.9219 44.2266 19.957 44.0977 19.957ZM30 42.0937C29.5313 42.0937 29.1446 42.4805 29.1446 42.9492C29.1446 43.418 29.5313 43.8047 30 43.8047C30.4688 43.8047 30.8555 43.418 30.8555 42.9492C30.8555 42.4805 30.4688 42.0937 30 42.0937Z" fill="#FF845E"></path><path d="M56.8711 3.90234H3.12891C1.39453 3.90234 0 5.29688 0 7.01953V44.8008C0 46.5234 1.39453 47.9297 3.12891 47.9297H56.8828C58.6055 47.9297 60.0117 46.5234 60.0117 44.8008V7.01953C60 5.29688 58.5937 3.90234 56.8711 3.90234ZM30 45.0586C28.8398 45.0586 27.8906 44.1094 27.8906 42.9492C27.8906 41.7891 28.8398 40.8398 30 40.8398C31.1602 40.8398 32.1094 41.7891 32.1094 42.9492C32.1094 44.1094 31.1602 45.0586 30 45.0586ZM57.5039 37.957H2.49609V7.01953C2.49609 6.67969 2.77734 6.39844 3.11719 6.39844H56.8711C57.2109 6.39844 57.4922 6.67969 57.4922 7.01953V37.957H57.5039Z" fill="#FF845E"></path></g><defs><clipPath id="clip0_1392_3632"><rect width="60" height="60" fill="white"></rect></clipPath></defs></svg>