<svg xmlns="http://www.w3.org/2000/svg" width="62" height="62" viewBox="0 0 62 62" fill="none"><rect x="1.5" y="1.5" width="59" height="59" rx="29.5" fill="white"></rect><rect x="1.5" y="1.5" width="59" height="59" rx="29.5" stroke="#FF845E" stroke-width="3"></rect><g clip-path="url(#clip0_878_926)"><path fill-rule="evenodd" clip-rule="evenodd" d="M21.7112 46.1019H15.4312C15.1875 46.1019 15 45.9144 15 45.6707V16.4077C15 16.1828 15.1687 15.9953 15.3937 15.9578C15.8811 15.9203 16.3872 15.8828 16.8934 15.8828C19.5554 15.8828 22.0861 16.6327 24.017 17.9637C26.1728 19.4446 27.4101 21.5442 27.6163 24C27.635 24.1687 27.635 24.3374 27.6538 24.5061C27.6913 24.9185 27.7288 25.3497 27.7663 25.7809C27.935 27.3181 28.3099 29.5114 29.6971 30.7674C29.7159 30.7674 29.7346 30.7862 29.7346 30.8049C30.6344 31.5922 30.6157 32.3046 30.5032 32.642C30.3533 33.2607 29.7534 33.6918 28.8348 33.8793C28.7786 33.898 28.6286 34.048 28.5536 34.3292C28.4599 34.6479 28.4974 35.0791 28.7598 35.3228C29.1347 35.6602 29.266 36.0914 29.1347 36.56C29.041 36.9162 28.8161 37.2349 28.5911 37.5536C28.3661 37.891 28.1037 38.2659 28.1974 38.4347C28.5161 39.147 28.5161 39.7844 28.1787 40.2905C27.71 41.0217 26.6415 41.3778 24.9168 41.3778C24.4856 41.3778 23.9982 41.3591 23.4733 41.3028H23.2296C22.686 41.3028 22.3111 41.4716 22.0674 41.8277C21.4862 42.6526 21.6924 44.321 22.1236 45.5208C22.1798 45.652 22.1611 45.802 22.0674 45.9144C21.9924 46.0457 21.8612 46.1019 21.7112 46.1019ZM31.553 38.8471C31.3468 38.8471 31.1781 38.6784 31.1781 38.4722V36.1664C31.1781 35.9414 31.3468 35.7914 31.553 35.7914C31.7592 35.7914 31.9279 35.9414 31.9279 36.1664V38.4722C31.9279 38.6784 31.7592 38.8471 31.553 38.8471ZM34.5712 41.7903C34.365 41.7903 34.1963 41.6215 34.1963 41.4153V33.2232C34.1963 33.017 34.365 32.8482 34.5712 32.8482C34.7774 32.8482 34.9461 33.017 34.9461 33.2232V41.4153C34.9461 41.6215 34.7774 41.7903 34.5712 41.7903ZM37.5893 40.328C37.3831 40.328 37.2144 40.1593 37.2144 39.9531V34.6666C37.2144 34.4604 37.3831 34.2917 37.5893 34.2917C37.7955 34.2917 37.9455 34.4604 37.9455 34.6666V39.9531C37.9455 40.1593 37.7955 40.328 37.5893 40.328ZM40.5888 41.7903C40.3825 41.7903 40.2138 41.6215 40.2138 41.4153V33.2232C40.2138 33.017 40.3825 32.8482 40.5888 32.8482C40.795 32.8482 40.9637 33.017 40.9637 33.2232V41.4153C40.9637 41.6215 40.795 41.7903 40.5888 41.7903ZM43.6069 40.328C43.4007 40.328 43.232 40.1593 43.232 39.9531V34.6666C43.232 34.4604 43.4007 34.2917 43.6069 34.2917C43.8131 34.2917 43.9818 34.4604 43.9818 34.6666V39.9531C43.9818 40.1593 43.8131 40.328 43.6069 40.328ZM46.6251 38.8471C46.4189 38.8471 46.2501 38.6784 46.2501 38.4722V36.1664C46.2501 35.9414 46.4189 35.7914 46.6251 35.7914C46.8313 35.7914 47 35.9414 47 36.1664V38.4722C47 38.6784 46.8313 38.8471 46.6251 38.8471Z" fill="#FF845E"></path></g><defs><clipPath id="clip0_878_926"><rect width="32" height="32" fill="white" transform="translate(15 15)"></rect></clipPath></defs></svg>