<svg xmlns="http://www.w3.org/2000/svg" width="62" height="62" viewBox="0 0 62 62" fill="none"><rect x="1.5" y="1.5" width="59" height="59" rx="29.5" fill="white"></rect><rect x="1.5" y="1.5" width="59" height="59" rx="29.5" stroke="#FF845E" stroke-width="3"></rect><path fill-rule="evenodd" clip-rule="evenodd" d="M26.8892 19.7406H35.1105C35.3858 19.7406 35.6105 19.9652 35.6105 20.2406V40.8274C35.015 40.38 34.3577 40.0215 33.6592 39.7631C34.7037 38.963 35.3775 37.7033 35.3775 36.2859C35.3775 34.4573 34.2562 32.8908 32.6637 32.2359H33.8079V29.9279H31.4998V31.9369C31.1676 31.899 30.8321 31.899 30.4998 31.9369V29.9279H28.1918V32.2359H29.3361C27.7437 32.8909 26.6223 34.4573 26.6223 36.2859C26.6223 37.7032 27.2962 38.9629 28.3407 39.763C27.6421 40.0214 26.9847 40.3799 26.3893 40.8273V20.2406C26.3892 19.9652 26.6138 19.7406 26.8892 19.7406ZM16.543 41.9199V24.8321C16.543 24.5567 16.7676 24.3321 17.043 24.3321H25.3893V41.7238C25.1828 41.9443 24.9895 42.1767 24.8104 42.4198H17.0429C16.7675 42.4199 16.543 42.1952 16.543 41.9199ZM18.158 37.7569V39.8984H20.4661V37.7569H18.158ZM21.4661 37.7569V39.8984H23.7742V37.7569H21.4661ZM23.7742 36.7569V34.6154H21.4661V36.7569H23.7742ZM20.4661 36.7569V34.6154H18.158V36.7569H20.4661ZM23.7742 33.6155V31.474H21.4661V33.6155H23.7742ZM20.4661 33.6155V31.474H18.158V33.6155H20.4661ZM23.54 26.5878H18.3922C18.1172 26.5878 17.8922 26.8128 17.8922 27.0878V28.345C17.8922 28.62 18.1172 28.845 18.3922 28.845H23.54C23.815 28.845 24.04 28.62 24.04 28.345V27.0878C24.04 26.8128 23.815 26.5878 23.54 26.5878ZM45.4567 42.4199V24.3322H36.6104V41.7239C36.8169 41.9443 37.0102 42.1767 37.1893 42.4199H45.4567ZM43.8417 37.7569V39.8984H41.5336V37.7569H43.8417ZM40.5336 37.7569V39.8984H38.2255V37.7569H40.5336ZM38.2255 36.7569V34.6154H40.5336V36.7569H38.2255ZM41.5336 36.7569V34.6154H43.8417V36.7569H41.5336ZM38.2255 33.6155V31.474H40.5336V33.6155H38.2255ZM41.5336 33.6155V31.474H43.8417V33.6155H41.5336ZM38.4597 26.5878H43.6074C43.8824 26.5878 44.1074 26.8128 44.1074 27.0878V28.345C44.1074 28.62 43.8825 28.845 43.6074 28.845H38.4597C38.1847 28.845 37.9597 28.62 37.9597 28.345V27.0878C37.9597 26.8128 38.1847 26.5878 38.4597 26.5878ZM30.9999 32.9084C29.1345 32.9084 27.6223 34.4206 27.6223 36.2859C27.6223 38.1513 29.1345 39.6635 30.9999 39.6635C32.8653 39.6635 34.3775 38.1513 34.3775 36.2859C34.3775 34.4206 32.8653 32.9084 30.9999 32.9084ZM24.94 46.25L37.0597 46.2499C37.1338 46.2502 37.207 46.234 37.274 46.2025C37.3411 46.1709 37.4002 46.1248 37.4472 46.0676C37.4941 46.0103 37.5278 45.9432 37.5456 45.8713C37.5634 45.7994 37.5649 45.7245 37.5501 45.6519C36.9385 42.5932 34.2384 40.2885 30.9999 40.2885C27.7613 40.2885 25.0612 42.5933 24.4497 45.6519C24.4348 45.7245 24.4364 45.7995 24.4542 45.8714C24.472 45.9433 24.5056 46.0104 24.5525 46.0676C24.5995 46.1249 24.6587 46.171 24.7257 46.2026C24.7927 46.2341 24.8659 46.2503 24.94 46.25ZM28.7142 17.5618H30.4998V16.25C30.4998 16.1174 30.5525 15.9902 30.6463 15.8964C30.7401 15.8027 30.8672 15.75 30.9998 15.75C31.1325 15.75 31.2596 15.8027 31.3534 15.8964C31.4472 15.9902 31.4998 16.1174 31.4998 16.25V17.5618H33.2855C33.5609 17.5618 33.7855 17.7864 33.7855 18.0618V18.7406H28.2142V18.0617C28.2142 17.7864 28.4387 17.5618 28.7142 17.5618ZM28.1918 28.9279H30.4998V26.6199H28.1918V28.9279ZM31.4998 28.9279H33.8079V26.6199H31.4998V28.9279ZM28.6917 21.8928C28.4167 21.8928 28.1917 22.1178 28.1917 22.3928V23.4548C28.1917 23.7298 28.4167 23.9548 28.6917 23.9548H33.3078C33.5828 23.9548 33.8078 23.7298 33.8078 23.4548V22.3928C33.8078 22.1178 33.5828 21.8928 33.3078 21.8928H28.6917Z" fill="#FF845E"></path></svg>