<svg xmlns="http://www.w3.org/2000/svg" width="62" height="62" viewBox="0 0 62 62" fill="none"><rect x="1.5" y="1.5" width="59" height="59" rx="29.5" fill="white"></rect><rect x="1.5" y="1.5" width="59" height="59" rx="29.5" stroke="#FF845E" stroke-width="3"></rect><path d="M25.3416 42.9637C25.2202 43.0856 25.0759 43.1823 24.917 43.2483C24.7581 43.3143 24.5878 43.3483 24.4157 43.3483C24.2437 43.3483 24.0733 43.3143 23.9144 43.2483C23.7555 43.1823 23.6112 43.0856 23.4898 42.9637L16.9839 36.4363C16.739 36.1896 16.6016 35.856 16.6016 35.5083C16.6016 35.1607 16.739 34.8271 16.9839 34.5803C17.1052 34.4584 17.2495 34.3617 17.4084 34.2956C17.5672 34.2296 17.7376 34.1956 17.9096 34.1956C18.0817 34.1956 18.252 34.2296 18.4109 34.2956C18.5698 34.3617 18.714 34.4584 18.8354 34.5803L25.3426 41.1083C25.587 41.3553 25.724 41.6888 25.7238 42.0362C25.7237 42.3837 25.5863 42.717 25.3416 42.9637ZM33.0405 21.9186C33.04 22.4583 32.8259 22.976 32.445 23.3584C32.0641 23.7408 31.5473 23.9569 31.0076 23.9595H30.9919C30.5887 23.958 30.195 23.8371 29.8604 23.6119C29.5259 23.3868 29.2656 23.0677 29.1124 22.6947C28.9591 22.3218 28.9198 21.9118 28.9994 21.5165C29.079 21.1212 29.2739 20.7584 29.5595 20.4738C29.8452 20.1892 30.2088 19.9957 30.6043 19.9176C30.9999 19.8394 31.4097 19.8803 31.7821 20.0349C32.1545 20.1896 32.4727 20.4511 32.6965 20.7865C32.9204 21.1218 33.0399 21.516 33.0399 21.9192L33.0405 21.9186ZM45.3999 32.1064C45.3999 32.3463 45.3485 32.5834 45.2491 32.8017C45.1497 33.02 45.0047 33.2145 44.8239 33.372L44.8069 33.388L39.5151 38.4715C39.1919 38.7432 37.7964 39.2981 37.4204 39.3035L27.7653 39.4287C27.2599 39.4347 26.7668 39.5856 26.3445 39.8635L25.8271 40.204L19.637 33.9944C20.3315 33.3314 21.094 32.7435 21.9119 32.2405C23.414 31.3125 25.829 30.2245 28.8044 30.3093C29.8716 30.3435 30.93 30.5156 31.9532 30.8213C32.6612 31.0281 33.3903 31.1546 34.1266 31.1986L36.2748 31.332C36.3045 31.3343 36.3308 31.3362 36.3557 31.3391H36.3621L36.4085 31.3445C36.4102 31.3448 36.4119 31.3448 36.4136 31.3445H36.4248C37.5144 31.4882 38.334 32.4491 38.3013 33.5599C38.3007 33.5821 38.3016 33.6043 38.3039 33.6264L37.589 34.2891C37.2875 34.5677 36.8938 34.7251 36.4834 34.7314L29.8079 34.8274C29.6778 34.8283 29.5534 34.8809 29.462 34.9735C29.3707 35.0662 29.3199 35.1913 29.3208 35.3215C29.3218 35.4516 29.3743 35.576 29.467 35.6673C29.5597 35.7586 29.6848 35.8094 29.8149 35.8085H29.8223L36.4978 35.7109C37.1497 35.7012 37.7751 35.4513 38.2543 35.0091L39.8463 33.5403L39.8556 33.5317L42.5688 30.8981C42.805 30.6697 43.1034 30.516 43.4265 30.4563C43.7496 30.3967 44.0832 30.4336 44.3854 30.5626C44.6876 30.6916 44.9451 30.9069 45.1255 31.1815C45.306 31.4561 45.4014 31.7778 45.3999 32.1064Z" fill="#FF845E"></path><path d="M24.0316 21.629C24.8538 21.629 25.5202 20.9626 25.5202 20.1407C25.5202 19.3187 24.8538 18.6523 24.0316 18.6523C23.2095 18.6523 22.543 19.3187 22.543 20.1407C22.543 20.9626 23.2095 21.629 24.0316 21.629Z" fill="#FF845E"></path><path d="M27.587 25.0302L27.5572 25.0513C27.4859 25.1015 27.4158 25.1535 27.347 25.2071C27.3137 25.2331 27.2808 25.259 27.2481 25.2852C27.2257 25.3031 27.2036 25.3214 27.1816 25.3399C27.0798 25.424 26.9809 25.5119 26.8849 25.6036L26.8392 25.6475C26.807 25.6784 26.775 25.7104 26.7432 25.7435C26.7294 25.7572 26.716 25.7707 26.7025 25.7847C26.6891 25.7988 26.6756 25.8126 26.6625 25.8263L26.6222 25.8692C26.6091 25.8836 26.5956 25.8977 26.5828 25.9124C26.5569 25.9403 26.5313 25.9687 26.506 25.9975C26.4808 26.0263 26.4552 26.0555 26.4302 26.0849C26.38 26.1436 26.3311 26.2035 26.2836 26.2644C26.2657 26.2868 26.2481 26.3095 26.2305 26.3323C26.2049 26.3643 26.18 26.3995 26.1553 26.4334C26.1536 26.435 26.1521 26.437 26.1512 26.4391C26.1265 26.4711 26.1028 26.5057 26.0792 26.539C26.0782 26.5404 26.0773 26.5419 26.0766 26.5435C26.0545 26.5755 26.0328 26.6075 26.0126 26.6395C26.0027 26.6535 25.9937 26.6673 25.9848 26.6814C25.9758 26.6955 25.9662 26.7092 25.9576 26.7233C25.9121 26.7928 25.8685 26.8632 25.8267 26.9345C25.8072 26.9665 25.7883 27.0004 25.7697 27.0334C25.7512 27.0663 25.7297 27.1038 25.7112 27.1396C25.6926 27.1755 25.6766 27.2036 25.6596 27.2356L25.6488 27.2564H20.5374C20.452 27.255 20.3705 27.2203 20.3102 27.1597C20.25 27.0991 20.2157 27.0174 20.2148 26.9319V26.4318C20.2148 24.3239 21.9256 22.6094 24.0286 22.6094H24.0404C25.6052 22.6094 27.0158 23.5886 27.587 25.0302Z" fill="#FF845E"></path><path d="M37.9652 21.629C38.7874 21.629 39.4538 20.9626 39.4538 20.1407C39.4538 19.3187 38.7874 18.6523 37.9652 18.6523C37.143 18.6523 36.4766 19.3187 36.4766 20.1407C36.4766 20.9626 37.143 21.629 37.9652 21.629Z" fill="#FF845E"></path><path d="M36.0203 29.9671V30.3342L34.1874 30.2203C33.5247 30.1809 32.8685 30.067 32.2312 29.8807C31.1267 29.5512 29.9842 29.366 28.8322 29.3297C27.8795 29.3027 26.9268 29.3832 25.9922 29.5697C26.036 29.0092 26.1748 28.4602 26.4027 27.9463C26.4136 27.922 26.4245 27.8977 26.4347 27.8737C26.4495 27.8417 26.4645 27.8097 26.4802 27.7777C26.4959 27.7457 26.5106 27.7156 26.5269 27.6849V27.6827C26.5368 27.6635 26.5464 27.6446 26.5567 27.6257C26.5631 27.6135 26.5698 27.6014 26.5759 27.5895L26.6008 27.5444C26.6139 27.5211 26.6267 27.4977 26.6405 27.475C26.6543 27.4523 26.6693 27.4254 26.684 27.4011C26.6987 27.3767 26.7135 27.3521 26.7285 27.3278C26.7586 27.2791 26.7896 27.231 26.8216 27.1835C26.8319 27.1681 26.8421 27.1515 26.8536 27.1374C26.8827 27.0948 26.9128 27.0523 26.9435 27.0094C26.9531 26.9959 26.9631 26.9828 26.9733 26.9694C27.0081 26.9222 27.0439 26.876 27.0808 26.8308C27.1023 26.8039 27.1234 26.7774 27.1448 26.7515C27.2142 26.6683 27.2865 26.587 27.3618 26.5076C27.3794 26.4891 27.3973 26.4705 27.4155 26.4523C27.4338 26.434 27.4527 26.4142 27.4715 26.3956C27.4808 26.386 27.4904 26.3767 27.5 26.3675L27.5285 26.3399C27.5647 26.3047 27.6011 26.2708 27.6383 26.2372L27.6907 26.1905C27.7163 26.1675 27.7426 26.1451 27.7691 26.123C27.7906 26.1047 27.8127 26.0862 27.8347 26.0683C27.8479 26.0574 27.861 26.0465 27.8744 26.0363C27.8879 26.026 27.9064 26.0116 27.9215 25.9991C27.9509 25.9758 27.981 25.9531 28.0111 25.9307C28.0603 25.8939 28.1109 25.8577 28.1618 25.8222C28.2203 25.7815 28.2799 25.7425 28.34 25.7044L28.4194 25.6558L28.4229 25.6539C29.1973 25.1872 30.0842 24.9405 30.9883 24.9403H31.004C31.9082 24.9405 32.7953 25.1872 33.5698 25.6539L33.581 25.6603C34.4635 26.1976 35.1626 26.9898 35.5861 27.9323V27.9342C35.5896 27.9431 35.5935 27.9515 35.5973 27.9598C35.8765 28.5922 36.0205 29.2759 36.0203 29.9671ZM41.7848 26.4324V26.9329C41.7838 27.0182 41.7495 27.0997 41.6894 27.1601C41.6292 27.2206 41.5479 27.2552 41.4626 27.2567H36.3525C35.8975 26.3674 35.2316 25.603 34.413 25.0305C34.9842 23.5886 36.3947 22.6094 37.9592 22.6094H37.9714C40.0738 22.61 41.7848 24.3246 41.7848 26.4324Z" fill="#FF845E"></path></svg>