<svg xmlns="http://www.w3.org/2000/svg" width="62" height="62" viewBox="0 0 62 62" fill="none"><rect x="1.5" y="1.5" width="59" height="59" rx="29.5" fill="white"></rect><rect x="1.5" y="1.5" width="59" height="59" rx="29.5" stroke="#FF845E" stroke-width="3"></rect><path fill-rule="evenodd" clip-rule="evenodd" d="M33.6013 30.1502L33.601 30.1489C33.5776 30.0636 33.5772 29.9736 33.5998 29.8881C33.6224 29.8025 33.6672 29.7245 33.7296 29.6618L38.6612 24.717L34.6989 20.7548C34.8066 20.3873 34.8611 20.0063 34.8608 19.6234C34.8611 19.2448 34.8079 18.8681 34.7026 18.5045H43.7312C44.3491 18.5045 44.85 19.0054 44.85 19.6232V19.6235C44.85 20.1021 44.5494 20.5106 44.1266 20.6703L40.08 24.717L45.0114 29.6618C45.0738 29.7245 45.1186 29.8025 45.1412 29.8881C45.1638 29.9736 45.1634 30.0636 45.1401 30.1489L45.1397 30.1502C44.4449 32.6842 42.1238 34.5485 39.3706 34.5485C36.6173 34.5485 34.2961 32.6842 33.6013 30.1502ZM39.3706 25.4274L35.2946 29.5143H43.4464L39.3706 25.4274ZM42.635 20.7422H36.1061L39.3706 24.0067L42.635 20.7422ZM21.5584 24.3226L17.978 20.7422H17.9625C17.3446 20.7422 16.8438 20.2413 16.8438 19.6235V19.6232C16.8438 19.0054 17.3446 18.5045 17.9625 18.5045H26.9911C26.8859 18.8681 26.8326 19.2448 26.8329 19.6234C26.8324 20.0963 26.9157 20.5657 27.079 21.0096L23.766 24.3226C26.3673 24.8388 28.3388 27.1422 28.3388 29.8911C28.3388 33.0176 25.7887 35.5677 22.6622 35.5677C19.5358 35.5677 16.9857 33.0176 16.9857 29.8911C16.9857 27.1422 18.9571 24.8388 21.5584 24.3226ZM25.9267 20.7422H19.3977L22.6622 24.0067L25.9267 20.7422ZM22.1603 26.9048C22.0489 26.9298 21.9396 26.9633 21.8334 27.0049C21.1365 27.2791 20.6344 27.8806 20.6745 28.6982C20.725 29.7669 21.6854 30.2207 22.5867 30.3676C22.8291 30.4075 23.0891 30.4647 23.318 30.5687C23.5644 30.6806 23.777 30.8511 23.8144 31.1626L23.8144 31.1631C23.8437 31.4045 23.7309 31.576 23.5648 31.6906C23.3282 31.8538 23.0068 31.9252 22.7183 31.9317H22.7172C22.1815 31.945 21.6264 31.7107 21.4901 31.1629C21.4232 30.8941 21.1506 30.7302 20.8818 30.7971C20.6129 30.8639 20.449 31.1366 20.5159 31.4054C20.7202 32.2261 21.3876 32.7313 22.1603 32.8856V33.1663C22.1603 33.4433 22.3851 33.6683 22.6622 33.6683C22.9392 33.6683 23.1642 33.4433 23.1642 33.1663V32.8929C24.0727 32.7313 24.9408 32.1139 24.8111 31.0425C24.6794 29.9478 23.6699 29.5285 22.7489 29.3768L22.7481 29.3767C22.5236 29.3401 22.2858 29.2841 22.0802 29.1836C21.8686 29.0803 21.6902 28.9246 21.6773 28.6507L21.6772 28.6495C21.6598 28.2978 21.9011 28.057 22.2009 27.9391C22.7233 27.7337 23.4512 27.865 23.7238 28.5143C23.7753 28.637 23.8735 28.7343 23.9967 28.7846C24.1199 28.835 24.2581 28.8344 24.3808 28.7829C24.5035 28.7314 24.6008 28.6332 24.6511 28.51C24.7015 28.3868 24.7009 28.2486 24.6494 28.1259C24.3553 27.4251 23.7829 27.0315 23.1642 26.899V26.6177C23.1642 26.3407 22.9392 26.1157 22.6622 26.1157C22.3851 26.1157 22.1603 26.3407 22.1603 26.6177V26.9048ZM29.728 36.3952V23.479C30.0916 23.5843 30.4683 23.6376 30.8468 23.6373C31.2254 23.6376 31.6021 23.5843 31.9657 23.479V36.3952H29.728ZM28.5701 41.602V37.7129C28.5701 37.6297 28.6032 37.5499 28.662 37.4911C28.7208 37.4322 28.8006 37.3992 28.8838 37.3992H32.8099C32.8931 37.3992 32.9729 37.4322 33.0317 37.4911C33.0905 37.5499 33.1236 37.6297 33.1236 37.7129V41.602H28.5701ZM35.479 42.6059C35.7189 42.6059 35.9491 42.7012 36.1187 42.8709C36.2884 43.0405 36.3837 43.2706 36.3838 43.5106V45.0741C36.3838 45.1573 36.3507 45.2371 36.2919 45.2959C36.233 45.3548 36.1532 45.3878 36.07 45.3878H25.6237C25.5405 45.3878 25.4607 45.3548 25.4018 45.2959C25.343 45.2371 25.3099 45.1573 25.3099 45.0741V43.5106C25.31 43.2707 25.4053 43.0405 25.575 42.8709C25.7446 42.7012 25.9747 42.6059 26.2147 42.6059H35.479ZM30.8468 16.6133C32.5081 16.6133 33.8569 17.9621 33.8569 19.6234C33.8569 21.2847 32.5081 22.6334 30.8468 22.6334C29.1856 22.6334 27.8368 21.2847 27.8368 19.6234C27.8368 17.9621 29.1856 16.6133 30.8468 16.6133ZM30.8468 18.0799C29.995 18.0799 29.3034 18.7715 29.3034 19.6234C29.3034 20.4752 29.995 21.1668 30.8468 21.1668C31.6987 21.1668 32.3903 20.4752 32.3903 19.6234C32.3903 18.7715 31.6987 18.0799 30.8468 18.0799Z" fill="#FF845E"></path></svg>