<svg xmlns="http://www.w3.org/2000/svg" width="60" height="60" viewBox="0 0 60 60" fill="none"><path fill-rule="evenodd" clip-rule="evenodd" d="M14.9561 51.2114L17.1472 49.9465C17.3683 49.8191 17.631 49.7847 17.8775 49.8509L32.2636 53.7026C34.0768 54.1886 35.792 53.969 37.3952 52.9821C44.0059 48.9124 50.6177 44.844 57.2281 40.7736C58.2336 40.1547 58.3638 38.4638 57.768 37.5039C56.454 35.3867 52.8145 37.1492 51.3022 38.0299L40.3735 44.3953C38.6727 45.3858 36.7968 45.6863 34.8616 45.3607C31.8737 44.8747 29.0838 43.984 26.1804 43.206C25.9344 43.1378 25.7253 42.9752 25.5985 42.7536C25.4718 42.532 25.4376 42.2693 25.5035 42.0227C25.5694 41.776 25.73 41.5654 25.9504 41.4365C26.1708 41.3077 26.4331 41.2711 26.6804 41.3346C29.0439 41.9678 31.3866 42.729 33.7828 43.2244C34.9999 43.3733 36.0042 42.9893 36.3419 41.7287C36.6484 40.585 35.9271 39.5072 34.8468 39.1329C31.5648 38.5321 28.3794 37.3805 25.8746 36.475C22.2443 35.1626 21.2736 34.8594 17.6946 36.9314L9.54488 41.6499L14.9561 51.2114ZM6.14141 39.563L15.1566 55.4923C15.3293 55.798 15.2172 56.1935 14.9122 56.3663C13.9143 56.9483 12.815 57.496 11.8453 58.102C11.5394 58.2747 11.1439 58.1626 10.9713 57.8576L1.95641 41.9289C1.78356 41.6234 1.8957 41.2268 2.20063 41.0543L5.26754 39.3185C5.57328 39.1459 5.96879 39.2579 6.14141 39.563ZM6.15688 42.3982C6.13609 42.256 6.08748 42.1192 6.01383 41.9957C5.94019 41.8723 5.84294 41.7645 5.72764 41.6786C5.61234 41.5927 5.48126 41.5304 5.34187 41.4952C5.20249 41.46 5.05753 41.4526 4.91528 41.4734C4.77302 41.4942 4.63625 41.5428 4.51278 41.6164C4.38931 41.6901 4.28156 41.7873 4.19568 41.9026C4.1098 42.0179 4.04747 42.149 4.01225 42.2884C3.97703 42.4278 3.96962 42.5727 3.99043 42.715C4.00912 42.859 4.0563 42.9979 4.1292 43.1236C4.20211 43.2492 4.29929 43.3591 4.41509 43.4469C4.53089 43.5346 4.66298 43.5984 4.80368 43.6345C4.94438 43.6707 5.09087 43.6785 5.23461 43.6575C5.37836 43.6365 5.51648 43.587 5.64094 43.5121C5.76539 43.4372 5.87369 43.3382 5.95953 43.221C6.04537 43.1038 6.10702 42.9707 6.1409 42.8295C6.17478 42.6882 6.18021 42.5416 6.15688 42.3982ZM26.2781 9.52455V22.0567H22.482V9.52455H20.8277C20.3596 9.52455 20.0809 9.00646 20.3387 8.61587L23.8911 3.23404C24.1223 2.88365 24.6378 2.88365 24.869 3.23404L28.4214 8.61587C28.6793 9.00646 28.4005 9.52455 27.9324 9.52455H26.2781ZM39.4989 15.5936C45.0605 15.5936 49.5692 20.1021 49.5692 25.6638C49.5692 31.2254 45.0605 35.7341 39.4989 35.7341C33.9373 35.7341 29.4287 31.2254 29.4287 25.6638C29.4287 20.1022 33.9373 15.5936 39.4989 15.5936ZM43.3279 22.2421C42.8028 20.9915 41.7597 20.1465 40.4364 19.8716V19.2913C40.4364 19.0427 40.3377 18.8042 40.1619 18.6284C39.986 18.4526 39.7476 18.3538 39.4989 18.3538C39.2503 18.3538 39.0118 18.4526 38.836 18.6284C38.6602 18.8042 38.5614 19.0427 38.5614 19.2913V19.8854C36.8952 20.2507 35.5834 21.5474 35.6704 23.3391C35.7709 25.4085 37.5564 26.2546 39.358 26.5504C40.3319 26.7102 41.767 27.0476 41.795 28.2743C41.8194 29.3016 40.4348 29.6584 39.6085 29.678C38.5728 29.7027 37.4479 29.2379 37.1765 28.1492C37.114 27.9118 36.9607 27.7085 36.7497 27.5832C36.5387 27.4578 36.2869 27.4204 36.0486 27.479C35.8102 27.5376 35.6045 27.6876 35.4757 27.8965C35.3469 28.1054 35.3054 28.3566 35.3601 28.5959C35.7505 30.1615 37.0213 31.1593 38.5613 31.4556V32.036C38.5613 32.2847 38.6601 32.5231 38.8359 32.6989C39.0117 32.8748 39.2502 32.9735 39.4988 32.9735C39.7475 32.9735 39.9859 32.8748 40.1617 32.6989C40.3376 32.5231 40.4363 32.2847 40.4363 32.036V31.4736C42.1282 31.1909 43.7075 30.1179 43.6626 28.2302C43.6077 25.9282 41.6492 25.0313 39.6582 24.7045C38.8402 24.5702 37.5874 24.2701 37.538 23.251C37.4957 22.379 38.2257 21.8569 39.0023 21.7006C40.0689 21.4858 41.1615 21.9239 41.5994 22.967C41.647 23.0805 41.7165 23.1835 41.8039 23.2702C41.8914 23.3568 41.995 23.4254 42.1089 23.472C42.2228 23.5186 42.3448 23.5422 42.4679 23.5417C42.591 23.5411 42.7128 23.5163 42.8262 23.4687C42.9398 23.4211 43.0428 23.3517 43.1294 23.2643C43.2161 23.1769 43.2846 23.0732 43.3312 22.9593C43.3778 22.8454 43.4015 22.7234 43.4009 22.6004C43.4004 22.4773 43.3756 22.3556 43.3279 22.2421ZM55.6941 8.46318H40.4154C39.0784 8.46318 37.9844 7.36935 37.9844 6.03236V4.24759C37.9844 2.9106 39.0784 1.81677 40.4154 1.81677H55.6941C57.0311 1.81677 58.125 2.9106 58.125 4.24759V6.03224C58.125 7.36923 57.031 8.46318 55.6941 8.46318ZM55.6941 24.2203H51.3571C51.4141 24.6936 51.4442 25.1752 51.4442 25.6638C51.4442 27.5288 51.0165 29.2938 50.2541 30.8666H55.6941C57.0311 30.8666 58.125 29.7728 58.125 28.4358V26.6511C58.125 25.3142 57.031 24.2203 55.6941 24.2203ZM55.6941 23.3987C57.0311 23.3987 58.125 22.3049 58.125 20.9679V19.1833C58.125 17.8463 57.031 16.7524 55.6941 16.7524H47.4521C49.3657 18.4617 50.7256 20.7779 51.2288 23.3987H55.6941ZM55.6941 9.28466H40.4154C39.0784 9.28466 37.9844 10.3785 37.9844 11.7155V13.5001C37.9844 13.6056 37.9912 13.7095 38.0045 13.8115C38.4941 13.7503 38.9928 13.7186 39.4989 13.7186C42.0808 13.7186 44.4716 14.5379 46.4251 15.931H55.6941C57.0311 15.931 58.125 14.8371 58.125 13.5001V11.7155C58.125 10.3785 57.031 9.28466 55.6941 9.28466Z" fill="#FF845E"></path></svg>