<svg xmlns="http://www.w3.org/2000/svg" width="60" height="60" viewBox="0 0 60 60" fill="none"><path d="M23.3477 30.2496C23.5147 30.4332 23.602 30.6756 23.5903 30.9235C23.5787 31.1714 23.469 31.4045 23.2854 31.5716L21.7217 32.9907C21.3589 33.3629 20.7572 33.3623 20.3909 32.996L19.7314 32.3365C19.6443 32.2494 19.5753 32.1461 19.5281 32.0324C19.481 31.9187 19.4568 31.7968 19.4568 31.6737C19.4568 31.5506 19.481 31.4287 19.5281 31.315C19.5753 31.2012 19.6443 31.0979 19.7314 31.0109C19.8184 30.9238 19.9217 30.8548 20.0355 30.8076C20.1492 30.7605 20.2711 30.7363 20.3942 30.7363C20.5173 30.7363 20.6392 30.7605 20.7529 30.8076C20.8666 30.8548 20.97 30.9238 21.057 31.0109L21.0862 31.04L22.0257 30.1874C22.2092 30.0204 22.4516 29.9331 22.6995 29.9448C22.9475 29.9564 23.1806 30.0661 23.3477 30.2496ZM40.0558 6.51598H44.2577C44.2198 6.43423 44.1675 6.35996 44.1033 6.29672L39.9007 2.09414C39.8375 2.02997 39.7633 1.97769 39.6816 1.9398V6.1418C39.6818 6.24098 39.7213 6.33604 39.7914 6.40618C39.8615 6.47631 39.9566 6.51579 40.0558 6.51598ZM15.6775 38.2532V2.62348C15.6775 2.21121 16.0137 1.875 16.426 1.875H37.8066V6.1418C37.8066 7.38281 38.8148 8.39098 40.0558 8.39098H44.3226V38.2532C44.3226 38.6654 43.9864 39.0016 43.5741 39.0016H16.426C16.0137 39.0016 15.6775 38.6653 15.6775 38.2532ZM24.3728 29.1101C24.3728 28.9165 24.2148 28.7585 24.0212 28.7585H19.0285C18.8349 28.7585 18.6769 28.9165 18.6769 29.1101V34.1028C18.6769 34.2964 18.8349 34.4544 19.0285 34.4544H24.0212C24.2148 34.4544 24.3728 34.2964 24.3728 34.1028V29.1101ZM24.3728 19.828C24.3728 19.6344 24.2148 19.4764 24.0212 19.4764H19.0285C18.8349 19.4764 18.6769 19.6344 18.6769 19.828V24.8208C18.6769 25.0144 18.8349 25.1723 19.0285 25.1723H24.0212C24.2148 25.1723 24.3728 25.0144 24.3728 24.8208V19.828ZM40.5402 33.1534C40.5402 32.9048 40.4415 32.6663 40.2656 32.4905C40.0898 32.3147 39.8514 32.2159 39.6027 32.2159H27.4182C27.1695 32.2159 26.9311 32.3147 26.7552 32.4905C26.5794 32.6663 26.4807 32.9048 26.4807 33.1534C26.4807 33.402 26.5794 33.6405 26.7552 33.8163C26.9311 33.9921 27.1695 34.0909 27.4182 34.0909H39.6026C39.7257 34.0909 39.8477 34.0667 39.9614 34.0196C40.0752 33.9725 40.1785 33.9034 40.2656 33.8164C40.3527 33.7293 40.4217 33.6259 40.4689 33.5122C40.516 33.3984 40.5402 33.2765 40.5402 33.1534ZM40.5402 30.0594C40.5402 29.8108 40.4415 29.5723 40.2656 29.3965C40.0898 29.2207 39.8514 29.1219 39.6027 29.1219H27.4182C27.1695 29.1219 26.9311 29.2207 26.7552 29.3965C26.5794 29.5723 26.4807 29.8108 26.4807 30.0594C26.4807 30.3081 26.5794 30.5465 26.7552 30.7223C26.9311 30.8981 27.1695 30.9969 27.4182 30.9969H39.6026C39.7257 30.9969 39.8477 30.9727 39.9614 30.9256C40.0752 30.8785 40.1785 30.8094 40.2656 30.7224C40.3527 30.6353 40.4217 30.532 40.4689 30.4182C40.516 30.3045 40.5402 30.1825 40.5402 30.0594ZM40.5402 23.8714C40.5402 23.6228 40.4415 23.3843 40.2656 23.2085C40.0898 23.0327 39.8514 22.9339 39.6027 22.9339H27.4182C27.1695 22.9339 26.9311 23.0327 26.7552 23.2085C26.5794 23.3843 26.4807 23.6228 26.4807 23.8714C26.4807 24.1201 26.5794 24.3585 26.7552 24.5344C26.9311 24.7102 27.1695 24.8089 27.4182 24.8089H39.6026C39.7257 24.809 39.8477 24.7847 39.9614 24.7376C40.0752 24.6905 40.1785 24.6215 40.2656 24.5344C40.3527 24.4473 40.4217 24.344 40.4689 24.2302C40.516 24.1165 40.5402 23.9946 40.5402 23.8714ZM40.5402 20.7775C40.5402 20.5288 40.4415 20.2904 40.2656 20.1145C40.0898 19.9387 39.8514 19.84 39.6027 19.84H27.4182C27.1695 19.84 26.9311 19.9387 26.7552 20.1145C26.5794 20.2904 26.4807 20.5288 26.4807 20.7775C26.4807 21.0261 26.5794 21.2646 26.7552 21.4404C26.9311 21.6162 27.1695 21.715 27.4182 21.715H39.6026C39.8513 21.715 40.0897 21.6162 40.2656 21.4404C40.4414 21.2646 40.5402 21.0261 40.5402 20.7775ZM31.2012 8.01609C31.2012 8.26473 31.3 8.50319 31.4758 8.67901C31.6516 8.85482 31.8901 8.95359 32.1387 8.95359H36.478C36.7267 8.95359 36.9651 8.85482 37.141 8.67901C37.3168 8.50319 37.4155 8.26473 37.4155 8.01609C37.4155 7.76745 37.3168 7.529 37.141 7.35318C36.9651 7.17737 36.7267 7.07859 36.478 7.07859H32.1387C31.8901 7.07859 31.6516 7.17737 31.4758 7.35318C31.3 7.529 31.2012 7.76745 31.2012 8.01609ZM31.2012 11.5318C31.2012 11.7805 31.3 12.0189 31.4758 12.1947C31.6516 12.3706 31.8901 12.4693 32.1387 12.4693H41.5718C41.8205 12.4693 42.0589 12.3706 42.2348 12.1947C42.4106 12.0189 42.5093 11.7805 42.5093 11.5318C42.5093 11.2832 42.4106 11.0447 42.2348 10.8689C42.0589 10.6931 41.8205 10.5943 41.5718 10.5943H32.1387C31.8901 10.5943 31.6516 10.6931 31.4758 10.8689C31.3 11.0447 31.2012 11.2832 31.2012 11.5318ZM18.5999 9.22758C18.5999 12.1373 20.9589 14.4963 23.8687 14.4963C26.7784 14.4963 29.1374 12.1373 29.1374 9.22758C29.1374 6.31781 26.7784 3.95883 23.8687 3.95883C20.9589 3.95883 18.5999 6.31781 18.5999 9.22758ZM22.0257 20.9054L21.0862 21.7581L21.057 21.7289C20.97 21.6419 20.8666 21.5728 20.7529 21.5257C20.6392 21.4786 20.5173 21.4543 20.3942 21.4543C20.2711 21.4543 20.1492 21.4786 20.0355 21.5257C19.9217 21.5728 19.8184 21.6419 19.7314 21.7289C19.6443 21.8159 19.5753 21.9193 19.5281 22.033C19.481 22.1467 19.4568 22.2686 19.4568 22.3917C19.4568 22.5148 19.481 22.6367 19.5281 22.7504C19.5753 22.8642 19.6443 22.9675 19.7314 23.0545L20.3909 23.7141C20.7572 24.0804 21.359 24.081 21.7217 23.7088L23.2854 22.2896C23.4665 22.122 23.574 21.8895 23.5846 21.6429C23.5951 21.3964 23.5078 21.1556 23.3417 20.9731C23.1756 20.7905 22.9441 20.681 22.6976 20.6683C22.4511 20.6557 22.2096 20.7409 22.0257 20.9054ZM20.9298 12.178C20.1437 11.3998 19.7043 10.3327 19.7043 9.22758C19.7043 6.92754 21.5686 5.06332 23.8686 5.06332C26.1686 5.06332 28.0328 6.92766 28.0328 9.22758C28.0328 10.3327 27.5934 11.3998 26.8073 12.178C26.2638 11.1068 25.1519 10.3727 23.8684 10.3727C22.5852 10.3727 21.4734 11.1068 20.9298 12.178ZM22.2034 8.01715C22.2034 8.93684 22.949 9.68238 23.8687 9.68238C24.7884 9.68238 25.5339 8.93684 25.5339 8.01715C25.5339 7.09746 24.7884 6.35191 23.8687 6.35191C22.949 6.35191 22.2034 7.09746 22.2034 8.01715ZM48.6432 18.0509H46.1976V20.8833H48.7281C48.8526 20.8837 48.9719 20.9333 49.0599 21.0213C49.1479 21.1093 49.1975 21.2285 49.1979 21.353V42.4218H10.8023V21.3531C10.8026 21.2286 10.8523 21.1093 10.9403 21.0213C11.0283 20.9333 11.1476 20.8837 11.2721 20.8834H13.8026V18.051H11.3569C9.49398 18.051 7.96973 19.5752 7.96973 21.4382V44.7404C7.96973 46.6034 9.49398 48.1276 11.3569 48.1276H23.0762V53.5091H17.9204C16.3316 53.5091 15.0318 54.5476 15.0318 55.817V58.125H44.9682V55.817C44.9682 54.5476 43.6683 53.5091 42.0796 53.5091H36.9238V48.1276H48.6432C50.5061 48.1276 52.0304 46.6034 52.0304 44.7404V21.438C52.0304 19.5751 50.5061 18.0509 48.6432 18.0509Z" fill="#FF845E"></path></svg>