<svg xmlns="http://www.w3.org/2000/svg" width="32" height="32" viewBox="0 0 32 32" fill="none"><path d="M12.2955 13.4083C12.2955 15.1017 10.9169 16.4803 9.22351 16.4803C7.5301 16.4803 6.15151 15.1017 6.15151 13.4083V13.3737L4.72876 11.951C4.57707 11.8012 4.57707 11.5594 4.72876 11.4095C4.87857 11.2579 5.12044 11.2579 5.27026 11.4095L6.30704 12.4464C6.61042 11.5248 7.33998 10.7952 8.26164 10.4918L6.84076 9.07104C6.68908 8.92123 6.68908 8.67935 6.84076 8.52954C6.99058 8.37785 7.23245 8.37785 7.38227 8.52954L9.18892 10.3363H9.22352C10.9169 10.3363 12.2955 11.7149 12.2955 13.4083Z" fill="#FF845E"></path><path d="M17.8424 20.0975C17.4641 19.128 17.5851 18.0297 18.1649 17.1618C18.1801 17.1391 18.1975 17.1179 18.2167 17.0985C18.2167 17.0985 18.8235 16.4092 18.8235 13.9843C18.8235 8.88288 15.4501 7.26428 14.0235 7.26428C13.8315 7.26428 13.7259 7.2835 13.6395 7.45628L13.3995 7.82688L12.5663 6.99353C12.4952 6.9206 12.3973 6.88028 12.2955 6.88028H10.9189L9.68625 5.64953C9.53644 5.49784 9.29456 5.49784 9.14475 5.64953C8.99306 5.79935 8.99306 6.04122 9.14475 6.19104L10.4887 7.53504C10.5598 7.60797 10.6578 7.64828 10.7595 7.64828H12.1361L13.0347 8.54491L12.2955 9.95228C13.3534 10.9008 13.9237 12.3062 13.8181 13.752C13.6683 15.8178 12.1189 17.5632 10.0818 17.9375C9.65165 18.0163 9.21965 18.0355 8.79731 17.9971C8.49009 17.9683 8.1944 18.1181 8.05612 18.3926L7.96594 18.5673C7.8315 18.8592 7.74132 19.1778 7.70672 19.512L6.72751 18.4425V17.0563C6.72751 16.9545 6.6872 16.8566 6.61426 16.7855L5.27026 15.4415C5.12044 15.2898 4.87857 15.2898 4.72876 15.4415C4.57707 15.5913 4.57707 15.8332 4.72876 15.983L5.95951 17.2157V18.5923C5.95951 18.6883 5.99598 18.7804 6.05935 18.8495L7.83338 20.783C7.96594 21.2112 8.19441 21.6067 8.50163 21.9331L12.5778 26.0131C12.9291 26.3625 13.0731 26.4643 13.3515 26.4643C13.6299 26.4643 13.7739 26.3625 14.1253 26.0131L15.3637 24.7727L14.6552 23.5901C14.5823 23.471 14.5803 23.3232 14.6494 23.2022C14.7166 23.0832 14.8453 23.0083 14.9835 23.0083H16.5138L16.5195 22.4803C16.5195 22.031 16.8863 21.6643 17.3355 21.6643H18.4395C18.4395 21.4358 18.2513 21.023 18.0863 20.6601C18.0018 20.4758 17.9153 20.2838 17.8424 20.0975ZM16.9035 17.0563H15.5249L16.5023 18.0335C16.652 18.1833 16.652 18.4272 16.5023 18.5769C16.4274 18.6518 16.3294 18.6902 16.2296 18.6902C16.1317 18.6902 16.0338 18.6518 15.9589 18.5769L14.3269 16.943C14.2174 16.8335 14.1848 16.6684 14.2443 16.5244C14.3038 16.3824 14.444 16.2883 14.5995 16.2883H16.9035C17.1147 16.2883 17.2875 16.4611 17.2875 16.6723C17.2875 16.8835 17.1147 17.0563 16.9035 17.0563ZM22.2162 26.2089C22.1179 26.2089 22.0196 26.1714 21.9446 26.0965C21.7947 25.9465 21.7947 25.7034 21.9446 25.5534C22.7796 24.7183 23.2395 23.6099 23.2395 22.4323C23.2395 21.2546 22.7796 20.1462 21.9446 19.3112C21.7947 19.1612 21.7947 18.9181 21.9446 18.7681C22.0947 18.6182 22.3378 18.6183 22.4877 18.7681C23.4678 19.7482 24.0075 21.0495 24.0075 22.4323C24.0075 23.815 23.4678 25.1163 22.4877 26.0964C22.4127 26.1714 22.3144 26.2089 22.2162 26.2089Z" fill="#FF845E"></path><path d="M20.995 24.9878C20.897 24.9878 20.7989 24.9505 20.724 24.8759C20.5738 24.7261 20.5733 24.483 20.723 24.3328C21.2315 23.8225 21.5115 23.1476 21.5115 22.4323C21.5115 21.717 21.2315 21.0421 20.723 20.5318C20.5733 20.3816 20.5738 20.1385 20.724 19.9888C20.8743 19.839 21.1174 19.8395 21.267 19.9898C21.9199 20.6449 22.2795 21.5124 22.2795 22.4323C22.2795 23.3522 21.92 24.2197 21.267 24.8749C21.192 24.9502 21.0935 24.9878 20.995 24.9878ZM19.7739 23.7667C19.6756 23.7667 19.5774 23.7292 19.5024 23.6542C19.3524 23.5042 19.3524 23.2611 19.5024 23.1111C19.6837 22.9299 19.7835 22.6888 19.7835 22.4323C19.7835 22.1759 19.6837 21.9347 19.5024 21.7535C19.3524 21.6035 19.3524 21.3604 19.5024 21.2104C19.6523 21.0605 19.8955 21.0605 20.0454 21.2104C20.3718 21.5368 20.5515 21.9707 20.5515 22.4323C20.5515 22.8939 20.3718 23.3278 20.0454 23.6542C19.9704 23.7292 19.8722 23.7667 19.7739 23.7667ZM20.7417 17.6464C20.5413 17.6464 20.3456 17.5665 20.1979 17.4153C19.974 17.1859 19.9169 16.8499 20.0524 16.5594L20.3433 15.9362C20.7307 15.1059 20.9355 14.1828 20.9355 13.2666V11.4883C20.9355 10.8531 21.4523 10.3363 22.0875 10.3363H27.8475C28.4827 10.3363 28.9995 10.8531 28.9995 11.4883V15.5203C28.9995 16.1555 28.4827 16.6723 27.8475 16.6723H24.4483C23.5721 16.6723 22.7208 16.8504 21.9181 17.2016L21.05 17.5814C20.95 17.6251 20.8452 17.6464 20.7417 17.6464ZM22.0875 11.1043C21.8758 11.1043 21.7035 11.2766 21.7035 11.4883V13.2666C21.7035 14.2943 21.4738 15.3297 21.0392 16.261L20.7537 16.8726L21.6102 16.498C22.5106 16.104 23.4655 15.9043 24.4483 15.9043H27.8475C28.0592 15.9043 28.2315 15.732 28.2315 15.5203V11.4883C28.2315 11.2766 28.0592 11.1043 27.8475 11.1043H22.0875Z" fill="#FF845E"></path></svg>