<svg xmlns="http://www.w3.org/2000/svg" width="50" height="50" viewBox="0 0 50 50" fill="none"><path d="M18.4093 31.2892C20.6063 30.5316 21.8942 29.2437 21.8942 27.7286V23.2589C21.8942 20.7589 18.1063 18.8649 13.1063 18.8649C8.1063 18.8649 4.31842 20.7589 4.31842 23.2589V27.5013C2.04569 28.2589 0.757812 29.5468 0.757812 30.9862V35.4558C0.757812 36.971 2.12145 38.1831 4.31842 39.0165V43.7134C4.31842 46.2134 8.1063 48.1074 13.1063 48.1074C18.1063 48.1074 21.8942 46.2134 21.8942 43.7134V39.2437C21.8942 37.8043 20.6063 36.5165 18.3336 35.6831V31.2892H18.4093ZM2.27296 30.9862C2.27296 30.3043 3.18206 29.471 4.62145 28.9407C5.6063 30.8346 8.93963 32.1225 13.1063 32.1225C14.3184 32.1225 15.4548 31.971 16.5154 31.8195C15.6063 32.8801 12.879 33.8649 9.54569 33.8649C5.37903 33.8649 2.27296 32.3498 2.27296 30.9862ZM20.379 39.168C20.379 40.5316 17.273 42.0468 13.1063 42.0468C9.24266 42.0468 6.36387 40.7589 5.83357 39.5468C6.96993 39.774 8.18206 39.9255 9.54569 39.9255C13.4851 39.9255 16.5911 38.7892 17.8033 37.1225C19.3942 37.5771 20.379 38.4104 20.379 39.168ZM13.1063 26.0619C8.93963 26.0619 5.83357 24.5468 5.83357 23.1831C5.83357 21.8195 8.93963 20.3043 13.1063 20.3043C17.273 20.3043 20.379 21.8195 20.379 23.1831C20.379 24.6225 17.273 26.0619 13.1063 26.0619ZM10.5305 2.12251C6.36387 2.12251 3.03054 5.53161 3.03054 9.69827C3.03054 13.8649 6.43963 17.274 10.5305 17.274C14.6214 17.274 18.0305 13.8649 18.0305 9.69827C18.0305 5.53161 14.6972 2.12251 10.5305 2.12251ZM10.5305 9.01645C11.8942 9.01645 13.0305 10.2286 13.0305 11.668C13.0305 12.8043 12.273 13.8649 11.2881 14.168V14.5468C11.2881 14.9255 10.9851 15.3043 10.5305 15.3043C10.076 15.3043 9.77296 14.9255 9.77296 14.5468V14.168C8.78812 13.7892 8.03054 12.8043 8.03054 11.668C8.03054 11.2134 8.33357 10.9104 8.78812 10.9104C9.24266 10.9104 9.54569 11.2134 9.54569 11.668C9.54569 12.274 10.0002 12.8043 10.5305 12.8043C11.0608 12.8043 11.5154 12.274 11.5154 11.668C11.5154 11.0619 11.0608 10.5316 10.5305 10.5316C9.1669 10.5316 8.03054 9.31948 8.03054 7.88009C8.03054 6.66797 8.78812 5.75888 9.77296 5.38009V4.84979C9.77296 4.39524 10.076 4.09221 10.5305 4.09221C10.9851 4.09221 11.2881 4.39524 11.2881 4.84979V5.45585C12.273 5.75888 13.0305 6.74373 13.0305 7.95585C13.0305 8.41039 12.6518 8.71342 12.273 8.71342C11.8184 8.71342 11.5154 8.41039 11.5154 7.95585C11.5154 7.34979 11.0608 6.81948 10.5305 6.81948C10.0002 6.81948 9.54569 7.34979 9.54569 7.95585C9.54569 8.56191 10.0002 9.01645 10.5305 9.01645ZM20.1518 12.3498C20.1518 12.4255 20.2275 12.4255 20.2275 12.5013C20.2275 12.5013 20.2275 12.5771 20.3033 12.5771C20.379 12.6528 20.4548 12.6528 20.5305 12.7286H20.6063C20.6821 12.7286 20.7578 12.8043 20.9093 12.8043H24.5457C24.9245 12.8043 25.3033 12.4255 25.3033 12.0468C25.3033 11.5922 24.9245 11.2892 24.5457 11.2892H22.879L32.4245 2.72857L39.9245 9.01645C40.076 9.16797 40.3033 9.24373 40.5305 9.16797C40.7578 9.16797 40.9093 9.01645 41.0608 8.86494L44.1669 4.09221C44.3942 3.71342 44.3184 3.25888 43.9396 3.03161C43.5608 2.80433 43.1063 2.88009 42.879 3.25888L40.2275 7.34979L32.879 1.21342C32.576 0.986151 32.1972 0.986151 31.8942 1.21342L21.5911 10.3801V8.41039C21.5911 7.95585 21.2124 7.65282 20.8336 7.65282C20.4548 7.65282 20.076 7.95585 20.076 8.41039V12.1225C20.076 12.1983 20.076 12.274 20.1518 12.3498Z" fill="#FF845E"></path><path d="M48.6368 40.3814C47.9549 38.942 46.7428 37.8056 45.2277 37.2753C44.6216 37.0481 43.9398 36.9723 43.258 36.9723L40.6065 32.1996L47.0459 23.7147L47.1216 23.639C48.561 21.0632 48.9398 18.1087 48.1065 15.5329C47.5762 13.7905 46.5156 12.4269 45.0762 11.745C44.6974 11.5935 44.2428 11.6693 44.0913 12.0481L36.7428 25.0784L29.5459 11.9723C29.3943 11.5935 28.9398 11.442 28.561 11.6693C27.1216 12.4269 26.061 13.7147 25.4549 15.4572C24.6974 17.9572 25.0004 20.9875 26.4398 23.5632C26.4398 23.5632 26.4398 23.639 26.5156 23.639L32.8792 32.1238L30.1519 36.9723C29.4701 36.9723 28.7125 37.0481 28.0307 37.2753C26.5156 37.8056 25.3034 38.8663 24.6216 40.3056C23.0307 43.336 24.2428 46.9723 27.1974 48.4875C28.0307 48.942 28.9398 49.0935 29.8489 49.0935C30.4549 49.0935 31.1368 49.0178 31.7428 48.7905C33.258 48.2602 34.4701 47.1996 35.1519 45.7602C36.061 43.7905 35.9095 41.5935 34.7731 39.8511L36.5913 37.4269L38.3337 39.7753C37.1974 41.5178 36.9701 43.7147 37.9549 45.6844C38.6368 47.1238 39.8489 48.2602 41.364 48.7905C41.9701 49.0178 42.6519 49.0935 43.258 49.0935C44.1671 49.0935 45.0004 48.8663 45.8337 48.4875C48.864 46.9723 50.0762 43.336 48.6368 40.3814ZM31.4398 46.3663C30.9095 46.5935 30.3792 46.745 29.8489 46.745C29.4701 46.745 29.0913 46.6693 28.6368 46.5178C27.7277 46.2147 26.9701 45.5329 26.5156 44.6238C25.6822 42.8056 26.4398 40.6087 28.1822 39.6996C29.0913 39.245 30.0762 39.245 30.9852 39.5481C31.8943 39.8511 32.6519 40.5329 33.1065 41.442C34.0156 43.2602 33.258 45.4572 31.4398 46.3663ZM39.1671 31.6693L33.864 38.5632C33.4852 38.1844 33.0307 37.8814 32.5004 37.5784C32.1974 37.4269 31.9701 37.3511 31.6671 37.2753L34.3943 32.4269L45.0762 13.4875C46.061 14.1693 46.5156 15.2299 46.7428 16.0632C47.3489 18.1087 47.0459 20.7602 45.9095 22.8814L39.1671 31.6693ZM44.9246 46.3663C44.3943 46.5935 43.864 46.745 43.3337 46.745C42.9549 46.745 42.5762 46.6693 42.1974 46.5178C41.2883 46.2147 40.5307 45.5329 40.0762 44.6238C39.2428 42.8056 40.0004 40.6087 41.7428 39.6996C42.6519 39.245 43.561 39.245 44.4701 39.5481C45.3792 39.8511 46.1368 40.5329 46.5913 41.442C47.5004 43.2602 46.7428 45.4572 44.9246 46.3663Z" fill="#FF845E"></path></svg>