<svg xmlns="http://www.w3.org/2000/svg" width="60" height="60" viewBox="0 0 60 60" fill="none"><path fill-rule="evenodd" clip-rule="evenodd" d="M3.33154 5.89099H57.0034V3.65271H3.33154V5.89099ZM29.4644 48.4793V52.5328C28.0698 52.8527 27.0257 54.1031 27.0257 55.5914C27.0257 57.3222 28.4354 58.7308 30.1675 58.7308C31.8995 58.7308 33.3093 57.3222 33.3093 55.5914C33.3093 54.1031 32.2651 52.8527 30.8706 52.5328V48.4793H29.4644ZM30.1675 53.8593C31.1237 53.8593 31.903 54.6363 31.903 55.5914C31.903 56.5476 31.1237 57.3246 30.1675 57.3246C29.2112 57.3246 28.4319 56.5476 28.4319 55.5914C28.4319 54.6363 29.2112 53.8593 30.1675 53.8593ZM57.0034 44.8347H3.33154V47.073H57.0034V44.8347ZM20.3132 40.0277V35.1867H16.8714V40.0277H20.3132ZM28.2784 40.0277V32.2687H24.8378V40.0277H28.2784ZM36.2448 40.0277V28.1414H32.803V40.0277H36.2448ZM40.7694 21.8051V40.0277H44.2112V21.8051H40.7694ZM26.2229 13.3465L25.6886 13.9136C25.8116 14.1597 25.9159 14.414 26.0038 14.673L26.7855 14.6976C26.9963 14.7034 27.1965 14.7916 27.3433 14.9431C27.49 15.0947 27.5716 15.2976 27.5706 15.5086V17.7164C27.5706 18.1582 27.2249 18.5144 26.7843 18.5273L26.0038 18.5508C25.9159 18.8109 25.8116 19.0652 25.6886 19.3113L26.2229 19.8785C26.5253 20.2008 26.5183 20.6965 26.2065 21.0082L24.6433 22.5691C24.4947 22.7187 24.2936 22.8044 24.0828 22.8079C23.872 22.8114 23.6682 22.7324 23.5147 22.5879L22.9452 22.0523C22.699 22.1751 22.4445 22.2804 22.1835 22.3676L22.1601 23.1457V23.1469C22.1542 23.3578 22.0662 23.5582 21.9147 23.7051C21.7631 23.852 21.5602 23.9339 21.3491 23.9332H19.139C18.9279 23.9339 18.7249 23.852 18.5734 23.7051C18.4219 23.5582 18.3338 23.3578 18.328 23.1469L18.3046 22.3676C18.0433 22.2797 17.789 22.1742 17.5417 22.0523L16.9733 22.5867C16.8202 22.7316 16.6165 22.8109 16.4057 22.8079C16.195 22.8048 15.9937 22.7196 15.8448 22.5703L14.2815 21.0094C13.9698 20.6965 13.9616 20.1996 14.2651 19.8785L14.7995 19.3113C14.6765 19.0652 14.571 18.8109 14.4843 18.5508L13.7038 18.5273C13.4928 18.5217 13.2923 18.4338 13.1453 18.2822C12.9983 18.1306 12.9165 17.9275 12.9175 17.7164V15.5086C12.9175 15.0668 13.2632 14.7105 13.705 14.6976L14.4843 14.6742C14.571 14.414 14.6765 14.1597 14.7995 13.9136L14.2651 13.3465C14.1193 13.1932 14.0395 12.9889 14.0428 12.7774C14.046 12.566 14.1322 12.3642 14.2827 12.2156L15.8448 10.6558C15.9931 10.5056 16.1944 10.4196 16.4055 10.4163C16.6165 10.413 16.8204 10.4927 16.9733 10.6383L17.5417 11.1726C17.789 11.0508 18.0433 10.9453 18.3046 10.8574L18.328 10.0781C18.3336 9.86705 18.4216 9.66656 18.5732 9.51959C18.7247 9.37262 18.9278 9.29084 19.139 9.29177H21.3491C21.7897 9.29177 22.146 9.6363 22.1601 10.0769L22.1835 10.8574C22.4448 10.9453 22.6991 11.0496 22.9452 11.1726L23.5147 10.6371C23.6681 10.4922 23.8719 10.4131 24.0828 10.4166C24.2937 10.4201 24.4948 10.506 24.6433 10.6558L26.2065 12.2156C26.5183 12.5285 26.5253 13.0242 26.2229 13.3465ZM15.0339 27.0902C24.3151 27.5613 31.4495 23.639 37.3909 14.7679L35.8593 15.1125C35.4808 15.198 35.1046 14.9601 35.019 14.5804C34.9785 14.3985 35.0118 14.2079 35.1115 14.0504C35.2112 13.8929 35.3693 13.7814 35.5511 13.7402L38.7585 13.0195C39.137 12.934 39.5132 13.1719 39.5987 13.5504L40.3206 16.7554C40.4062 17.134 40.1683 17.5101 39.7897 17.5957C39.737 17.6074 39.6854 17.6133 39.6339 17.6133C39.3128 17.6133 39.0222 17.3906 38.9483 17.0636L38.5956 15.4969C32.6847 24.3539 25.6159 28.5351 16.5304 28.5351C16.0136 28.5351 15.4921 28.5211 14.9624 28.4941C14.5745 28.4754 14.2757 28.1449 14.2956 27.757C14.3155 27.3691 14.646 27.0703 15.0339 27.0902ZM32.0999 26.7351H36.948C37.3358 26.7351 37.6511 27.0504 37.6511 27.4383V40.0277H39.3632V21.1019C39.3632 20.7129 39.6772 20.3988 40.0663 20.3988H44.9144C45.3022 20.3988 45.6175 20.7129 45.6175 21.1019V40.0277H46.7144C47.1034 40.0277 47.4175 40.3429 47.4175 40.7308C47.4175 41.1199 47.1034 41.434 46.7144 41.434H14.3671C13.9792 41.434 13.664 41.1199 13.664 40.7308C13.664 40.3429 13.9792 40.0277 14.3671 40.0277H15.4651V34.4836C15.4651 34.0957 15.7804 33.7804 16.1683 33.7804H21.0163C21.4042 33.7804 21.7194 34.0957 21.7194 34.4836V40.0277H23.4315V31.5656C23.4315 31.1765 23.7456 30.8625 24.1347 30.8625H28.9815C29.3706 30.8625 29.6847 31.1765 29.6847 31.5656V40.0277H31.3968V27.4383C31.3968 27.0504 31.712 26.7351 32.0999 26.7351ZM7.22568 43.4285V7.29724H53.1093V43.4285H7.22568ZM21.0995 13.4238C19.3394 12.9515 17.5241 13.9992 17.053 15.7582C16.8245 16.6101 16.9417 17.4996 17.3823 18.2636C17.8241 19.0277 18.5366 19.5738 19.3886 19.8011C19.6745 19.8785 19.9604 19.9148 20.2429 19.9148C21.7019 19.9148 23.0401 18.941 23.4351 17.4668C23.6636 16.6148 23.5464 15.7254 23.1058 14.9613C22.664 14.1972 21.9515 13.6511 21.0995 13.4238ZM24.2624 18.9914C24.4897 18.6094 24.6597 18.198 24.7698 17.7691C24.8601 17.4164 25.1647 17.1715 25.5292 17.1586L26.1644 17.1386V16.0851L25.5304 16.0664C25.3548 16.06 25.1859 15.9971 25.0489 15.8872C24.9119 15.7772 24.814 15.6259 24.7698 15.4558C24.6608 15.0269 24.4897 14.6156 24.2636 14.2347C24.1737 14.0831 24.1355 13.9064 24.1547 13.7312C24.1739 13.556 24.2496 13.3918 24.3702 13.2633L24.8038 12.8027L24.0573 12.0574L23.5944 12.4922C23.3284 12.7418 22.9394 12.784 22.6253 12.5976C22.2436 12.3717 21.8316 12.2013 21.4019 12.0914C21.2318 12.0472 21.0805 11.9493 20.9705 11.8123C20.8605 11.6753 20.7977 11.5064 20.7913 11.3308L20.7726 10.698H19.7155L19.6968 11.3308C19.6904 11.5064 19.6275 11.6753 19.5175 11.8123C19.4075 11.9493 19.2563 12.0472 19.0862 12.0914C18.6562 12.2015 18.2437 12.3715 17.8616 12.5988C17.5534 12.7828 17.1538 12.7383 16.8925 12.4922L16.4308 12.0574L15.6854 12.8027L16.119 13.2621C16.2392 13.3909 16.3145 13.555 16.3337 13.7301C16.3529 13.9052 16.315 14.0818 16.2257 14.2336C15.9983 14.6156 15.8272 15.0269 15.7183 15.457C15.6292 15.8062 15.3151 16.0558 14.9565 16.0676L14.3237 16.0863V17.1386L14.9565 17.1574C15.3151 17.1679 15.6292 17.4187 15.7183 17.7691C15.8272 18.198 15.9983 18.6094 16.2257 18.9914C16.3153 19.1429 16.3533 19.3194 16.3341 19.4943C16.3148 19.6693 16.2394 19.8333 16.119 19.9617L15.6854 20.4222L16.4308 21.1676L16.8913 20.7328C17.0201 20.6126 17.1843 20.5374 17.3593 20.5181C17.5344 20.4989 17.711 20.5368 17.8628 20.6261C18.2445 20.8533 18.6569 21.0242 19.0874 21.1336C19.4355 21.2215 19.6862 21.5344 19.6979 21.8953L19.7167 22.5269H20.7714L20.7901 21.8953C20.8019 21.5344 21.0526 21.2215 21.4019 21.1336C21.8308 21.0246 22.2433 20.8535 22.6253 20.6273C22.7767 20.538 22.9529 20.5001 23.1276 20.5193C23.3023 20.5385 23.4661 20.6138 23.5944 20.734L24.0573 21.1676L24.8038 20.4222L24.369 19.9605C24.1194 19.6945 24.0761 19.3054 24.2624 18.9914ZM20.7351 14.782C19.7249 14.5113 18.6819 15.1125 18.4112 16.1215C18.28 16.6113 18.3468 17.1211 18.5999 17.5594C18.8542 17.9988 19.2632 18.3117 19.753 18.4429C20.7632 18.7136 21.8062 18.1125 22.0769 17.1023C22.2081 16.6136 22.1413 16.1039 21.8882 15.6644C21.7637 15.4485 21.5977 15.2594 21.3998 15.108C21.2019 14.9565 20.976 14.8457 20.7351 14.782Z" fill="#FF845E"></path></svg>