<svg xmlns="http://www.w3.org/2000/svg" width="32" height="32" viewBox="0 0 32 32" fill="none"><g clip-path="url(#clip0_1719_3690)"><path d="M31.1305 26.5872C31.0083 26.3231 30.7515 26.159 30.4602 26.159H29.432V13.4189C29.432 12.8804 28.9939 12.4423 28.4554 12.4423H25.9029C25.3643 12.4423 24.9262 12.8804 24.9262 13.4189V26.159H23.8981C23.6069 26.159 23.3501 26.3231 23.2278 26.5872C23.1056 26.8512 23.1467 27.1532 23.3352 27.3752L26.6164 31.2396C26.6856 31.3213 26.7718 31.3869 26.8689 31.4319C26.9661 31.4768 27.0719 31.5001 27.179 31.5H27.1792C27.3963 31.5 27.6014 31.4051 27.742 31.2396L31.023 27.3752C31.2115 27.1532 31.2527 26.8513 31.1305 26.5872ZM27.1792 30.3574L24.4635 27.159H25.4262C25.5588 27.159 25.686 27.1063 25.7798 27.0126C25.8735 26.9188 25.9262 26.7916 25.9262 26.659V13.4423H28.432V26.659C28.432 26.7916 28.4847 26.9188 28.5785 27.0126C28.6723 27.1063 28.7994 27.159 28.932 27.159H29.8947L27.1792 30.3574ZM8.10185 20.409H7.07372V13.4189C7.07372 12.8804 6.6356 12.4423 6.09704 12.4423H3.54454C3.00597 12.4423 2.56785 12.8804 2.56785 13.4189V20.409H1.53972C1.24854 20.409 0.991724 20.5731 0.869474 20.8372C0.747287 21.1012 0.788412 21.4032 0.976849 21.6252L4.25797 25.4896C4.3272 25.5713 4.4134 25.6369 4.51057 25.6819C4.60773 25.7268 4.71353 25.7501 4.8206 25.75H4.82079C5.03791 25.75 5.24297 25.6551 5.3836 25.4896L8.6646 21.6252C8.85316 21.4032 8.89435 21.1013 8.7721 20.8372C8.64985 20.5731 8.39304 20.409 8.10185 20.409ZM4.82079 24.6074L2.10516 21.409H3.06785C3.20046 21.409 3.32763 21.3563 3.4214 21.2626C3.51517 21.1688 3.56785 21.0416 3.56785 20.909V13.4423H6.07372V20.909C6.07372 21.0416 6.1264 21.1688 6.22017 21.2626C6.31394 21.3563 6.44112 21.409 6.57372 21.409H7.53635L4.82079 24.6074ZM23.5862 15.1069L23.0507 13.9013C23.3886 13.3104 23.6503 12.6791 23.8295 12.0224L25.06 11.5488C25.1543 11.5125 25.2354 11.4485 25.2925 11.3652C25.3497 11.2819 25.3804 11.1832 25.3804 11.0822V8.67856C25.3804 8.57752 25.3497 8.47885 25.2925 8.39555C25.2354 8.31225 25.1543 8.24824 25.06 8.21194L23.8293 7.73819C23.65 7.08176 23.3883 6.45067 23.0505 5.85994L23.5862 4.65381C23.6272 4.56147 23.6393 4.45887 23.6209 4.35953C23.6024 4.26018 23.5543 4.16876 23.4829 4.09731L21.7831 2.39762C21.7117 2.32617 21.6202 2.27805 21.5209 2.2596C21.4215 2.24114 21.3189 2.25322 21.2266 2.29425L20.0209 2.82969C19.43 2.49177 18.7987 2.23006 18.142 2.05081L17.6685 0.820437C17.6322 0.72612 17.5682 0.645013 17.4848 0.58781C17.4015 0.530607 17.3028 0.499991 17.2018 0.5H14.7982C14.6971 0.499999 14.5984 0.530611 14.5152 0.587802C14.4319 0.644993 14.3678 0.726079 14.3315 0.820375L13.8578 2.05113C13.2013 2.23037 12.5702 2.49204 11.9795 2.82987L10.7733 2.29419C10.681 2.25318 10.5784 2.24111 10.4791 2.25958C10.3797 2.27804 10.2883 2.32617 10.2168 2.39762L8.51722 4.09725C8.44578 4.1687 8.39766 4.26012 8.37921 4.35946C8.36076 4.45881 8.37283 4.56141 8.41385 4.65375L8.94929 5.85938C8.61135 6.45028 8.34965 7.08162 8.17041 7.73831L6.93991 8.21187C6.84562 8.24817 6.76453 8.31219 6.70734 8.39549C6.65015 8.47879 6.61954 8.57746 6.61954 8.6785V11.0821C6.61954 11.1832 6.65015 11.2818 6.70734 11.3651C6.76453 11.4484 6.84562 11.5125 6.93991 11.5487L8.17054 12.0224C8.3498 12.679 8.61149 13.3102 8.94935 13.901L8.41379 15.1069C8.37277 15.1993 8.36069 15.3019 8.37915 15.4012C8.3976 15.5006 8.44572 15.592 8.51716 15.6634L10.2167 17.3631C10.2882 17.4346 10.3796 17.4827 10.4789 17.5012C10.5783 17.5196 10.6809 17.5076 10.7732 17.4666L11.9793 16.9309C12.5367 17.2493 13.1301 17.4999 13.747 17.6775V23.2841H12.7188C12.4275 23.2841 12.1707 23.4482 12.0485 23.7124C11.9263 23.9765 11.9675 24.2784 12.156 24.5002L15.437 28.3647C15.5063 28.4464 15.5925 28.512 15.6897 28.557C15.7868 28.6019 15.8926 28.6252 15.9997 28.6251H15.9998C16.217 28.6251 16.422 28.5302 16.5627 28.3647L19.8436 24.5004C20.0322 24.2785 20.0734 23.9766 19.9512 23.7124C19.829 23.4482 19.5722 23.2841 19.281 23.2841H18.2528V17.6775C18.8696 17.4999 19.463 17.2493 20.0203 16.9309L21.2264 17.4666C21.3188 17.5075 21.4213 17.5196 21.5207 17.5011C21.62 17.4827 21.7114 17.4345 21.7829 17.3631L23.4825 15.6636C23.554 15.5921 23.6022 15.5007 23.6207 15.4013C23.6392 15.302 23.6272 15.1993 23.5862 15.1069ZM18.7155 24.284L16 27.4824L13.2844 24.284H14.2471C14.3797 24.284 14.5069 24.2313 14.6007 24.1376C14.6944 24.0438 14.7471 23.9166 14.7471 23.784V19.2568C14.764 19.2585 14.7809 19.2607 14.7982 19.2607H17.2017C17.219 19.2607 17.2359 19.2585 17.2528 19.2568V23.784C17.2528 23.9166 17.3055 24.0438 17.3993 24.1376C17.4931 24.2313 17.6202 24.284 17.7528 24.284H18.7155ZM22.0319 14.0712L22.5329 15.1991L21.3187 16.4132L20.1903 15.9121C20.1161 15.8791 20.035 15.8647 19.954 15.8702C19.8729 15.8756 19.7944 15.9007 19.7253 15.9433C19.0845 16.3383 18.3848 16.6284 17.6525 16.8027C17.5735 16.8215 17.5003 16.8593 17.4392 16.9127C17.378 16.9662 17.3308 17.0337 17.3017 17.1095L16.8585 18.2607H15.1415L14.6983 17.1095C14.6692 17.0337 14.622 16.9662 14.5608 16.9127C14.4997 16.8593 14.4265 16.8215 14.3475 16.8027C13.6152 16.6284 12.9154 16.3383 12.2747 15.9433C12.2055 15.9007 12.127 15.8757 12.046 15.8702C11.965 15.8648 11.8838 15.8792 11.8096 15.9121L10.6813 16.4132L9.46716 15.1991L9.96822 14.0709C10.0012 13.9967 10.0156 13.9156 10.0101 13.8345C10.0047 13.7535 9.9796 13.675 9.93704 13.6058C9.54195 12.965 9.2518 12.2652 9.07754 11.5328C9.05876 11.4538 9.02102 11.3806 8.96757 11.3194C8.91412 11.2583 8.84658 11.2111 8.77079 11.1819L7.61966 10.7389V9.02188L8.7706 8.57887C8.84639 8.54971 8.91393 8.50252 8.96738 8.44139C9.02083 8.38025 9.05857 8.30701 9.07735 8.228C9.25157 7.4955 9.54172 6.79555 9.93685 6.15462C9.97944 6.08546 10.0045 6.00697 10.01 5.92593C10.0154 5.84489 10.0011 5.76374 9.9681 5.6895L9.46716 4.56169L10.6812 3.3475L11.8096 3.84862C11.8838 3.88157 11.965 3.89594 12.046 3.89049C12.127 3.88505 12.2055 3.85995 12.2747 3.81737C12.9154 3.4224 13.6152 3.13229 14.3474 2.958C14.4264 2.9392 14.4997 2.90144 14.5608 2.84798C14.6219 2.79452 14.6691 2.72698 14.6983 2.65119L15.1415 1.5H16.8585L17.3015 2.65088C17.3307 2.72667 17.3779 2.79421 17.439 2.84767C17.5002 2.90112 17.5734 2.93889 17.6524 2.95769C18.3849 3.13191 19.0848 3.42207 19.7257 3.81719C19.7949 3.85982 19.8734 3.88495 19.9544 3.89039C20.0355 3.89584 20.1166 3.88144 20.1908 3.84844L21.3188 3.3475L22.5329 4.56163L22.0317 5.69C21.9988 5.76423 21.9844 5.84536 21.9898 5.92639C21.9953 6.00742 22.0203 6.0859 22.0629 6.15506C22.4579 6.79587 22.748 7.49564 22.9223 8.22794C22.9411 8.30693 22.9789 8.38016 23.0323 8.44128C23.0858 8.50241 23.1533 8.54959 23.2291 8.57875L24.3803 9.02188V10.7389L23.2294 11.1819C23.1536 11.2111 23.0861 11.2583 23.0326 11.3194C22.9792 11.3806 22.9414 11.4538 22.9227 11.5328C22.7484 12.2653 22.4583 12.9652 22.0632 13.6061C22.0206 13.6753 21.9954 13.7538 21.99 13.8348C21.9846 13.9159 21.9989 13.997 22.0319 14.0712ZM16 5.1885C13.4128 5.1885 11.3081 7.29325 11.3081 9.88037C11.3081 12.4675 13.4129 14.5723 16 14.5723C18.587 14.5723 20.6918 12.4675 20.6918 9.88037C20.6918 7.29325 18.5871 5.1885 16 5.1885ZM16 13.5722C13.9643 13.5722 12.3081 11.916 12.3081 9.88031C12.3081 7.84463 13.9643 6.18844 16 6.18844C18.0357 6.18844 19.6918 7.84463 19.6918 9.88031C19.6918 11.916 18.0357 13.5722 16 13.5722ZM17.8337 10.8013C17.881 11.1909 17.7755 11.5476 17.5287 11.833C17.2907 12.1081 16.9227 12.3046 16.5 12.3912V12.533C16.5 12.6656 16.4473 12.7928 16.3535 12.8866C16.2598 12.9803 16.1326 13.033 16 13.033C15.8674 13.033 15.7402 12.9803 15.6464 12.8866C15.5527 12.7928 15.5 12.6656 15.5 12.533V12.3827C14.8354 12.2264 14.3285 11.7645 14.17 11.1289C14.1542 11.0652 14.151 10.9989 14.1607 10.934C14.1704 10.8691 14.1928 10.8067 14.2266 10.7504C14.2604 10.6941 14.305 10.645 14.3578 10.606C14.4106 10.5669 14.4705 10.5387 14.5343 10.5228C14.598 10.5069 14.6642 10.5037 14.7291 10.5134C14.7941 10.5231 14.8565 10.5455 14.9127 10.5794C14.969 10.6132 15.0181 10.6578 15.0571 10.7105C15.0962 10.7633 15.1245 10.8233 15.1403 10.887C15.2455 11.3088 15.692 11.4481 16.0427 11.4402C16.3502 11.4329 16.6434 11.3278 16.7723 11.1788C16.8337 11.1078 16.8543 11.031 16.841 10.9218C16.8257 10.7959 16.7899 10.501 15.9228 10.3586C14.557 10.1343 14.3171 9.36006 14.2957 8.9185C14.2605 8.19575 14.7418 7.58838 15.5 7.38694V7.22762C15.5 7.09502 15.5527 6.96784 15.6465 6.87407C15.7403 6.7803 15.8674 6.72762 16 6.72762C16.1326 6.72762 16.2598 6.7803 16.3536 6.87407C16.4474 6.96784 16.5 7.09502 16.5 7.22762V7.38244C16.99 7.50719 17.4501 7.82969 17.6951 8.41325C17.7205 8.47379 17.7338 8.53874 17.7341 8.6044C17.7344 8.67006 17.7218 8.73514 17.697 8.79593C17.6721 8.85671 17.6356 8.91201 17.5894 8.95866C17.5432 9.00531 17.4882 9.0424 17.4277 9.06781C17.3054 9.11909 17.1678 9.11973 17.045 9.06958C16.9223 9.01943 16.8245 8.9226 16.7731 8.80037C16.5679 8.31156 16.0603 8.28394 15.7928 8.34456C15.6713 8.37213 15.276 8.4915 15.2944 8.87C15.2994 8.97256 15.3126 9.245 16.0848 9.37175C17.1514 9.54694 17.7398 10.0279 17.8337 10.8013Z" fill="#FF845E"></path></g><defs><clipPath id="clip0_1719_3690"><rect width="32" height="32" fill="white"></rect></clipPath></defs></svg>