<svg xmlns="http://www.w3.org/2000/svg" width="62" height="62" viewBox="0 0 62 62" fill="none"><rect x="1.5" y="1.5" width="59" height="59" rx="29.5" fill="white"></rect><rect x="1.5" y="1.5" width="59" height="59" rx="29.5" stroke="#FF845E" stroke-width="3"></rect><g clip-path="url(#clip0_878_941)"><path d="M31.0556 39.6994L32.0744 43.264L32.1043 43.2945H32.6388C32.8483 43.2945 33.0461 43.3394 33.2289 43.4131L32.084 39.4065L31.0556 39.6994ZM21.4141 44.4982V46.5015H23.4175C22.6153 45.9832 21.9324 45.3003 21.4141 44.4982ZM25.0921 40.4327C24.9914 40.0285 24.7584 39.6697 24.4301 39.4134C24.1018 39.157 23.6971 39.018 23.2806 39.0184C22.7857 39.0188 22.3112 39.2156 21.9613 39.5656C21.6113 39.9155 21.4145 40.39 21.4141 40.8849C21.4141 43.9819 23.9338 46.5015 27.0307 46.5015H31.0353V43.2945H25.8078L25.0921 40.4327ZM30.5008 30.4663H29.9663V31.5353H30.5008C30.6425 31.5353 30.7785 31.479 30.8787 31.3787C30.979 31.2785 31.0353 31.1425 31.0353 31.0008C31.0353 30.859 30.979 30.7231 30.8787 30.6228C30.7785 30.5226 30.6425 30.4663 30.5008 30.4663ZM28.8972 32.0698V28.8355L21.4483 28.4437C20.7204 28.4059 20.0223 28.1421 19.4514 27.6889L17.7859 28.4031C17.5934 28.4854 17.4295 28.6225 17.3143 28.7972C17.1991 28.972 17.1378 29.1767 17.138 29.386V32.0698C17.138 35.3116 19.7758 37.9494 23.0176 37.9494C26.2594 37.9494 28.8972 35.3116 28.8972 32.0698ZM26.2247 29.9317C26.3671 29.9285 26.5086 29.9538 26.6411 30.006C26.7736 30.0583 26.8942 30.1365 26.9961 30.236C27.0979 30.3355 27.1788 30.4544 27.2341 30.5856C27.2894 30.7169 27.3178 30.8578 27.3179 31.0002C27.3179 31.1426 27.2895 31.2836 27.2343 31.4149C27.1791 31.5461 27.0982 31.665 26.9965 31.7646C26.8947 31.8642 26.774 31.9424 26.6416 31.9948C26.5091 32.0471 26.3676 32.0724 26.2252 32.0693C25.9459 32.0631 25.6801 31.9478 25.4847 31.7481C25.2894 31.5484 25.1799 31.2801 25.1798 31.0008C25.1798 30.7214 25.2891 30.4531 25.4844 30.2533C25.6796 30.0535 25.9454 29.9381 26.2247 29.9317ZM19.8106 32.0698C19.6682 32.073 19.5267 32.0478 19.3942 31.9955C19.2617 31.9433 19.141 31.8651 19.0392 31.7655C18.9374 31.666 18.8564 31.5471 18.8012 31.4159C18.7459 31.2847 18.7174 31.1437 18.7174 31.0013C18.7174 30.8589 18.7458 30.7179 18.801 30.5867C18.8562 30.4554 18.937 30.3365 19.0388 30.2369C19.1406 30.1373 19.2613 30.0591 19.3937 30.0068C19.5261 29.9545 19.6677 29.9291 19.81 29.9323C20.0894 29.9385 20.3552 30.0537 20.5505 30.2534C20.7459 30.4531 20.8554 30.7214 20.8554 31.0008C20.8555 31.2802 20.7462 31.5485 20.5509 31.7483C20.3556 31.9481 20.0899 32.0635 19.8106 32.0698ZM21.4141 35.8114V34.7423H22.5751C23.4008 34.74 24.1923 34.4121 24.7778 33.8299L25.5336 34.5857C24.7471 35.3677 23.6841 35.8081 22.5751 35.8114H21.4141ZM15 31.0008C15 31.1425 15.0563 31.2785 15.1566 31.3787C15.2568 31.479 15.3927 31.5353 15.5345 31.5353H16.069V30.4663H15.5345C15.3927 30.4663 15.2568 30.5226 15.1566 30.6228C15.0563 30.7231 15 30.859 15 31.0008ZM34.0825 24.5081C34.2071 24.8005 34.2406 25.1237 34.1785 25.4355C34.1164 25.7473 33.9617 26.033 33.7345 26.2554L33.3839 26.6066L34.8955 28.1182L35.2467 27.7675C35.4691 27.5404 35.7548 27.3857 36.0666 27.3237C36.3783 27.2616 36.7015 27.295 36.994 27.4196C37.289 27.538 37.5413 27.7428 37.718 28.0071C37.8946 28.2713 37.9873 28.5828 37.9839 28.9007V29.3972H40.1219V28.9007C40.1219 28.2395 40.5014 27.6718 41.1124 27.419C41.4048 27.2944 41.728 27.2609 42.0398 27.323C42.3516 27.3851 42.6373 27.5398 42.8597 27.767L43.2109 28.1176L44.7225 26.606L44.3718 26.2549C44.1447 26.0325 43.9899 25.7467 43.9278 25.435C43.8658 25.1232 43.8992 24.8 44.0239 24.5075C44.1423 24.2126 44.3471 23.9602 44.6113 23.7836C44.8756 23.6069 45.1871 23.5142 45.505 23.5176H46.0015V21.3796H45.505C44.8438 21.3796 44.2761 21.0001 44.0233 20.3892C43.7705 19.7782 43.9041 19.109 44.3713 18.6418L44.7219 18.2907L43.2103 16.7791L42.8592 17.1303C42.6371 17.3578 42.3513 17.5129 42.0394 17.575C41.7275 17.6371 41.4042 17.6034 41.1118 17.4782C40.8169 17.3596 40.5645 17.1547 40.3879 16.8904C40.2113 16.626 40.1186 16.3145 40.1219 15.9966V15.5H37.9839V15.9966C37.9839 16.6577 37.6044 17.2254 36.9935 17.4782C36.7011 17.6033 36.3778 17.637 36.0659 17.5749C35.754 17.5128 35.4683 17.3578 35.2461 17.1303L34.895 16.7796L33.3834 18.2912L33.734 18.6424C33.9612 18.8648 34.1159 19.1505 34.178 19.4623C34.2401 19.774 34.2066 20.0973 34.082 20.3897C33.9635 20.6847 33.7588 20.937 33.4945 21.1137C33.2302 21.2903 32.9187 21.383 32.6009 21.3796H32.1043V23.5176H32.6009C33.262 23.5176 33.8297 23.8971 34.0825 24.5081ZM39.0529 18.1725C40.187 18.1725 41.2746 18.6231 42.0766 19.425C42.8785 20.2269 43.329 21.3145 43.329 22.4486C43.329 23.5827 42.8785 24.6703 42.0766 25.4723C41.2746 26.2742 40.187 26.7247 39.0529 26.7247C37.9188 26.7247 36.8312 26.2742 36.0293 25.4723C35.2274 24.6703 34.7768 23.5827 34.7768 22.4486C34.7768 21.3145 35.2274 20.2269 36.0293 19.425C36.8312 18.6231 37.9188 18.1725 39.0529 18.1725Z" fill="#FF845E"></path><path d="M39.0521 24.5886C40.2329 24.5886 41.1901 23.6313 41.1901 22.4505C41.1901 21.2697 40.2329 20.3125 39.0521 20.3125C37.8713 20.3125 36.9141 21.2697 36.9141 22.4505C36.9141 23.6313 37.8713 24.5886 39.0521 24.5886Z" fill="#FF845E"></path><path d="M34.2423 45.4338H43.864V46.5028H34.2423V45.4338ZM32.6388 44.3648H32.1043V45.4338H32.6388C32.7806 45.4338 32.9165 45.3775 33.0168 45.2772C33.117 45.177 33.1733 45.041 33.1733 44.8993C33.1733 44.7575 33.117 44.6216 33.0168 44.5213C32.9165 44.4211 32.7806 44.3648 32.6388 44.3648ZM24.8467 19.7773H24.6591C22.4634 19.7773 20.3985 20.6037 18.803 22.0955L19.26 23.9235L18.2231 24.1828L17.8142 22.5461C16.1813 22.9962 15 24.5013 15 26.2294V26.4208C15 26.9093 15.0919 27.3872 15.2737 27.841L15.8964 29.3985H16.069V29.3873C16.069 28.5305 16.5779 27.7592 17.3652 27.4219L18.6886 26.8548C18.4756 26.5271 18.3183 26.1664 18.2231 25.7874L19.2595 25.5276C19.3847 26.0365 19.6709 26.4914 20.0753 26.8247C20.4798 27.158 20.981 27.3519 21.5044 27.3775L28.8171 27.7629C28.7121 27.3967 28.5086 27.0664 28.2287 26.808C27.9489 26.5495 27.6035 26.3729 27.2301 26.2973L26.6539 26.1818L26.864 25.1337L27.4402 25.2491C28.1518 25.3926 28.792 25.7776 29.2524 26.339C29.7127 26.9003 29.9649 27.6035 29.9663 28.3295V29.3985H30.1389L30.5927 28.2643C30.8858 27.5335 31.0361 26.7533 31.0353 25.9659C31.0353 22.5536 28.259 19.7773 24.8467 19.7773ZM37.746 41.2475L37.1527 42.1369L39.5874 43.7597V30.4675H38.5184V41.7628L37.746 41.2475ZM42.1039 28.5246C42.0565 28.4744 41.9996 28.4343 41.9364 28.4065C41.8732 28.3788 41.8051 28.3641 41.7362 28.3632C41.7329 28.3632 41.7292 28.3653 41.7255 28.3653V38.4852H47L45.3772 36.0505L44.4878 36.6432L45.0031 37.4161H42.7945V29.2141L42.1039 28.5246ZM36.3804 28.3653C36.3772 28.3653 36.374 28.3632 36.3702 28.3632C36.3013 28.364 36.2332 28.3786 36.17 28.4062C36.1068 28.4339 36.0498 28.4739 36.0025 28.5241L35.3114 29.2141V37.4161H33.1028L33.618 36.6438L32.7286 36.051L31.1058 38.4852H36.3804V28.3653Z" fill="#FF845E"></path></g><defs><clipPath id="clip0_878_941"><rect width="32" height="32" fill="white" transform="translate(15 15)"></rect></clipPath></defs></svg>