<svg xmlns="http://www.w3.org/2000/svg" width="32" height="32" viewBox="0 0 32 32" fill="none"><path d="M19.1902 3.29999C16.9 3.29967 14.6792 4.08556 12.8991 5.52626C11.1189 6.96696 9.88728 8.97513 9.41016 11.215C10.501 10.8841 11.675 10.9615 12.7129 11.4328C13.7509 11.904 14.5819 12.7368 15.0509 13.7758C15.5199 14.8147 15.5947 15.9888 15.2615 17.079C14.9283 18.1691 14.2098 19.1007 13.2402 19.7C13.7368 19.777 14.2243 19.9043 14.6952 20.08L15.1252 19.34C15.1564 19.2802 15.1994 19.2274 15.2516 19.1847C15.3038 19.142 15.3641 19.1103 15.4289 19.0915C15.4937 19.0728 15.5615 19.0673 15.6285 19.0754C15.6954 19.0835 15.76 19.1051 15.8184 19.1389C15.8768 19.1726 15.9278 19.2178 15.9682 19.2718C16.0087 19.3257 16.0378 19.3873 16.0538 19.4528C16.0699 19.5183 16.0725 19.5864 16.0616 19.6529C16.0506 19.7194 16.0263 19.7831 15.9902 19.84L15.6152 20.49C16.8413 21.1332 17.8696 22.0976 18.5902 23.28C18.7902 23.295 18.9902 23.3 19.1902 23.3C21.8423 23.3 24.3859 22.2464 26.2612 20.3711C28.1366 18.4957 29.1902 15.9522 29.1902 13.3C29.1902 10.6478 28.1366 8.10428 26.2612 6.22892C24.3859 4.35356 21.8423 3.29999 19.1902 3.29999ZM13.3352 9.91999C13.268 10.0344 13.1586 10.1179 13.0305 10.1525C12.9024 10.1871 12.7658 10.17 12.6502 10.105L11.4252 9.39499C11.3654 9.36373 11.3126 9.32071 11.2699 9.26851C11.2272 9.21632 11.1955 9.15602 11.1767 9.09126C11.1579 9.02649 11.1524 8.9586 11.1606 8.89165C11.1687 8.82471 11.1903 8.76011 11.224 8.70172C11.2578 8.64334 11.303 8.59239 11.3569 8.55193C11.4109 8.51147 11.4725 8.48235 11.538 8.4663C11.6035 8.45026 11.6715 8.44763 11.7381 8.45857C11.8046 8.46952 11.8682 8.49381 11.9252 8.52999L13.1502 9.23999C13.207 9.27246 13.2569 9.31582 13.2969 9.36758C13.337 9.41934 13.3664 9.47848 13.3836 9.54164C13.4008 9.60479 13.4054 9.67072 13.397 9.73564C13.3887 9.80056 13.3677 9.8632 13.3352 9.91999ZM15.8052 7.44499C15.7313 7.49001 15.6466 7.5142 15.5602 7.51499C15.472 7.5156 15.3853 7.49277 15.3088 7.44884C15.2324 7.40491 15.169 7.34146 15.1252 7.26499L14.4152 6.03999C14.3823 5.98286 14.3611 5.91983 14.3526 5.85449C14.3441 5.78915 14.3486 5.72278 14.3658 5.65917C14.4005 5.53071 14.4848 5.42129 14.6002 5.35499C14.6573 5.32216 14.7203 5.3009 14.7857 5.29243C14.851 5.28396 14.9174 5.28844 14.981 5.30562C15.1094 5.34031 15.2189 5.42462 15.2852 5.53999L15.9902 6.76499C16.0232 6.82164 16.0447 6.88431 16.0533 6.94935C16.0619 7.01438 16.0575 7.08048 16.0402 7.14378C16.023 7.20708 15.9934 7.26632 15.953 7.31803C15.9126 7.36975 15.8624 7.41291 15.8052 7.44499ZM25.2252 9.23999L26.4502 8.52999C26.5071 8.49381 26.5707 8.46952 26.6372 8.45857C26.7038 8.44763 26.7719 8.45026 26.8373 8.4663C26.9028 8.48235 26.9644 8.51147 27.0184 8.55193C27.0723 8.59239 27.1175 8.64334 27.1513 8.70172C27.185 8.76011 27.2066 8.82471 27.2147 8.89165C27.2229 8.9586 27.2174 9.02649 27.1986 9.09126C27.1798 9.15602 27.1481 9.21632 27.1054 9.26851C27.0627 9.32071 27.0099 9.36373 26.9502 9.39499L25.7252 10.105C25.6095 10.17 25.4729 10.1871 25.3448 10.1525C25.2168 10.1179 25.1073 10.0344 25.0402 9.91999C25.0076 9.8632 24.9866 9.80056 24.9783 9.73564C24.97 9.67072 24.9745 9.60479 24.9917 9.54164C25.0089 9.47848 25.0383 9.41934 25.0784 9.36758C25.1185 9.31582 25.1683 9.27246 25.2252 9.23999ZM18.6852 4.62499C18.6852 4.49238 18.7378 4.3652 18.8316 4.27143C18.9254 4.17767 19.0525 4.12499 19.1852 4.12499C19.3178 4.12499 19.4449 4.17767 19.5387 4.27143C19.6325 4.3652 19.6852 4.49238 19.6852 4.62499V6.03999C19.6852 6.1726 19.6325 6.29977 19.5387 6.39354C19.4449 6.48731 19.3178 6.53999 19.1852 6.53999C19.0525 6.53999 18.9254 6.48731 18.8316 6.39354C18.7378 6.29977 18.6852 6.1726 18.6852 6.03999V4.62499ZM18.6852 7.78999C18.6852 7.65738 18.7378 7.5302 18.8316 7.43643C18.9254 7.34267 19.0525 7.28999 19.1852 7.28999C19.3178 7.28999 19.4449 7.34267 19.5387 7.43643C19.6325 7.5302 19.6852 7.65738 19.6852 7.78999V12.8H22.8202C22.9528 12.8 23.0799 12.8527 23.1737 12.9464C23.2675 13.0402 23.3202 13.1674 23.3202 13.3C23.3202 13.4326 23.2675 13.5598 23.1737 13.6535C23.0799 13.7473 22.9528 13.8 22.8202 13.8H19.1852C19.0527 13.7996 18.9257 13.7468 18.832 13.6531C18.7384 13.5594 18.6856 13.4325 18.6852 13.3V7.78999ZM19.6852 21.975C19.6852 22.1076 19.6325 22.2348 19.5387 22.3285C19.4449 22.4223 19.3178 22.475 19.1852 22.475C19.0525 22.475 18.9254 22.4223 18.8316 22.3285C18.7378 22.2348 18.6852 22.1076 18.6852 21.975V20.56C18.6852 20.4274 18.7378 20.3002 18.8316 20.2064C18.9254 20.1127 19.0525 20.06 19.1852 20.06C19.3178 20.06 19.4449 20.1127 19.5387 20.2064C19.6325 20.3002 19.6852 20.4274 19.6852 20.56V21.975ZM23.7752 21.25C23.6595 21.315 23.5229 21.3321 23.3948 21.2975C23.2668 21.2629 23.1573 21.1794 23.0902 21.065L22.3852 19.84C22.349 19.7831 22.3247 19.7194 22.3137 19.6529C22.3028 19.5864 22.3054 19.5183 22.3215 19.4528C22.3375 19.3873 22.3666 19.3257 22.4071 19.2718C22.4476 19.2178 22.4985 19.1726 22.5569 19.1389C22.6153 19.1051 22.6799 19.0835 22.7468 19.0754C22.8138 19.0673 22.8817 19.0728 22.9464 19.0915C23.0112 19.1103 23.0715 19.142 23.1237 19.1847C23.1759 19.2274 23.2189 19.2802 23.2502 19.34L23.9602 20.565C24.0256 20.6806 24.0429 20.8172 24.0082 20.9455C23.9736 21.0737 23.8899 21.1831 23.7752 21.25ZM23.9602 6.03999L23.2502 7.26499C23.2063 7.34146 23.1429 7.40491 23.0665 7.44884C22.99 7.49277 22.9033 7.5156 22.8152 7.51499C22.7287 7.5142 22.644 7.49001 22.5702 7.44499C22.5129 7.41291 22.4627 7.36975 22.4223 7.31803C22.382 7.26632 22.3523 7.20708 22.3351 7.14378C22.3179 7.08048 22.3134 7.01438 22.322 6.94935C22.3306 6.88431 22.3521 6.82164 22.3852 6.76499L23.0902 5.53999C23.1565 5.42462 23.2659 5.34031 23.3943 5.30562C23.5228 5.27093 23.6598 5.28868 23.7752 5.35499C23.8905 5.42129 23.9748 5.53071 24.0095 5.65917C24.0442 5.78764 24.0265 5.92462 23.9602 6.03999ZM27.1352 17.89C27.0909 17.9661 27.0274 18.0292 26.9511 18.0731C26.8747 18.117 26.7882 18.14 26.7002 18.14C26.6118 18.141 26.5251 18.1167 26.4502 18.07L25.2252 17.365C25.1104 17.2981 25.0267 17.1887 24.9921 17.0605C24.9575 16.9322 24.9747 16.7956 25.0402 16.68C25.0731 16.623 25.1171 16.5731 25.1694 16.5332C25.2218 16.4933 25.2815 16.4641 25.3452 16.4474C25.4089 16.4307 25.4752 16.4267 25.5404 16.4357C25.6056 16.4447 25.6684 16.4666 25.7252 16.5L26.9502 17.205C27.0649 17.2719 27.1486 17.3813 27.1832 17.5095C27.2179 17.6377 27.2006 17.7744 27.1352 17.89ZM27.8652 13.8H26.4502C26.3175 13.8 26.1904 13.7473 26.0966 13.6535C26.0028 13.5598 25.9502 13.4326 25.9502 13.3C25.9502 13.1674 26.0028 13.0402 26.0966 12.9464C26.1904 12.8527 26.3175 12.8 26.4502 12.8H27.8652C27.9978 12.8 28.1249 12.8527 28.2187 12.9464C28.3125 13.0402 28.3652 13.1674 28.3652 13.3C28.3652 13.4326 28.3125 13.5598 28.2187 13.6535C28.1249 13.7473 27.9978 13.8 27.8652 13.8Z" fill="#FF845E"></path><path d="M14.4651 15.71C14.4651 16.6072 14.1382 17.4737 13.5455 18.1474C12.9528 18.821 12.135 19.2557 11.2451 19.37C11.0879 19.3942 10.9291 19.4059 10.7701 19.405C9.92667 19.405 9.10867 19.1164 8.45196 18.5872C7.79525 18.058 7.33938 17.32 7.16007 16.4959C6.98076 15.6718 7.08882 14.8112 7.46629 14.0569C7.84376 13.3027 8.46791 12.7004 9.23506 12.35C9.71632 12.1281 10.2401 12.0138 10.7701 12.015C11.75 12.0152 12.6896 12.4046 13.3825 13.0975C14.0754 13.7904 14.4648 14.7301 14.4651 15.71ZM18.7351 27.3V28.2C18.7353 28.2657 18.7225 28.3308 18.6974 28.3915C18.6723 28.4523 18.6355 28.5075 18.5891 28.554C18.5426 28.6004 18.4874 28.6372 18.4266 28.6623C18.3659 28.6874 18.3008 28.7002 18.2351 28.7H3.31006C3.24434 28.7002 3.17924 28.6874 3.11849 28.6623C3.05773 28.6372 3.00253 28.6004 2.95607 28.554C2.9096 28.5075 2.87278 28.4523 2.84772 28.3915C2.82266 28.3308 2.80986 28.2657 2.81006 28.2V27.3C2.81006 25.5243 3.51543 23.8214 4.77098 22.5659C6.02654 21.3103 7.72944 20.605 9.50506 20.605H12.0351C12.1501 20.605 12.2601 20.61 12.3751 20.615H12.3801C13.0729 20.6484 13.7561 20.7901 14.4051 21.035C14.6044 21.1097 14.7997 21.1948 14.9901 21.29H14.9951C15.8734 21.7248 16.6464 22.3458 17.2601 23.11C18.2177 24.2961 18.7385 25.7755 18.7351 27.3Z" fill="#FF845E"></path></svg>