<svg xmlns="http://www.w3.org/2000/svg" width="32" height="32" viewBox="0 0 32 32" fill="none"><g clip-path="url(#clip0_1749_2920)"><path d="M20.6923 18.7009C20.6923 18.8336 20.6396 18.9609 20.5457 19.0548C20.4519 19.1486 20.3246 19.2014 20.1918 19.2014H11.8083C11.6887 19.2015 11.5729 19.1587 11.4821 19.0807C11.3912 19.0028 11.3313 18.8949 11.3132 18.7766C11.2951 18.6583 11.32 18.5374 11.3834 18.4359C11.4467 18.3344 11.5444 18.2589 11.6586 18.2232V16.55C11.6586 16.4173 11.7113 16.29 11.8052 16.1961C11.899 16.1022 12.0263 16.0495 12.1591 16.0495H13.7518C13.8845 16.0495 14.0118 16.1022 14.1057 16.1961C14.1995 16.29 14.2523 16.4173 14.2523 16.55V18.2003H14.7041V14.1104C14.7041 13.9777 14.7568 13.8504 14.8507 13.7565C14.9445 13.6627 15.0718 13.6099 15.2046 13.6099H16.7955C16.9283 13.6099 17.0556 13.6627 17.1494 13.7565C17.2433 13.8504 17.296 13.9777 17.296 14.1104V18.2003H17.7496V12.523C17.7496 12.3903 17.8023 12.263 17.8962 12.1691C17.99 12.0752 18.1173 12.0225 18.2501 12.0225H19.841C19.9738 12.0225 20.1011 12.0752 20.1949 12.1691C20.2888 12.263 20.3415 12.3903 20.3415 12.523V18.2231C20.4432 18.255 20.5321 18.3186 20.5952 18.4045C20.6583 18.4904 20.6923 18.5942 20.6923 18.7008V18.7009ZM1.94421 8.92082C0.020461 6.99713 0.020461 3.86694 1.94421 1.94326C3.86702 0.0203809 6.99721 0.0203184 8.92171 1.94307L8.9219 1.94326C10.8456 3.86694 10.8456 6.99713 8.9219 8.92088C7.95965 9.88226 6.69565 10.3631 5.43234 10.3631C4.16902 10.3631 2.90571 9.88244 1.94421 8.92088V8.92082ZM6.7104 6.65713C6.7104 6.99876 6.16377 7.38082 5.43221 7.38082C4.70065 7.38082 4.15571 6.99876 4.15571 6.65713C4.15571 6.38069 3.93165 6.15663 3.65521 6.15663C3.37877 6.15663 3.15471 6.38069 3.15471 6.65713C3.15471 7.49357 3.90327 8.17282 4.93171 8.34126V8.47482C4.93171 8.75126 5.15577 8.97532 5.43221 8.97532C5.70865 8.97532 5.93271 8.75126 5.93271 8.47482V8.34132C6.96209 8.17301 7.7114 7.49369 7.7114 6.65713C7.7114 5.68901 6.71021 4.93063 5.43221 4.93063C4.67996 4.93063 4.15571 4.54919 4.15571 4.20694C4.15571 3.86469 4.70159 3.48319 5.43221 3.48319C6.16284 3.48319 6.7104 3.86526 6.7104 4.20694C6.7104 4.48338 6.93446 4.70744 7.2109 4.70744C7.48734 4.70744 7.7114 4.48338 7.7114 4.20694C7.7114 3.37038 6.96209 2.69101 5.93271 2.52269V2.38919C5.93271 2.11276 5.70865 1.88869 5.43221 1.88869C5.15577 1.88869 4.93171 2.11276 4.93171 2.38919V2.52276C3.90327 2.69119 3.15471 3.37044 3.15471 4.20694C3.15471 5.17407 4.15509 5.93163 5.43215 5.93163C6.1854 5.93163 6.7104 6.31401 6.7104 6.65713ZM0.499023 19.1951V17.7158C0.499023 16.6346 1.29815 15.7177 2.3944 15.4151C2.04715 14.9927 1.8384 14.4524 1.8384 13.8643C1.8384 12.5156 2.93559 11.4184 4.28415 11.4184C5.63271 11.4184 6.72996 12.5156 6.72996 13.8643C6.72996 14.4525 6.52115 14.9928 6.17384 15.4151C7.26915 15.7179 8.06752 16.6346 8.06752 17.7158V19.1951C8.06752 19.9586 7.4464 20.5796 6.68296 20.5796H1.88534C1.12096 20.5796 0.499023 19.9585 0.499023 19.1951ZM2.83934 13.8643C2.83934 14.6609 3.48746 15.309 4.28409 15.309C5.08071 15.309 5.7289 14.6609 5.7289 13.8643C5.7289 13.0676 5.08077 12.4194 4.28409 12.4194C3.4874 12.4194 2.83934 13.0676 2.83934 13.8643ZM8.92184 23.0791C10.8451 25.0023 10.8451 28.1317 8.92184 30.0549C7.95959 31.0163 6.69559 31.4971 5.43227 31.4971C4.16896 31.4971 2.90565 31.0165 1.94415 30.0549C0.0208985 28.1317 0.0208985 25.0023 1.94415 23.0791C3.86696 21.1561 6.99715 21.1562 8.92165 23.0789L8.92184 23.0791ZM5.43215 30.1094C5.56489 30.1094 5.69219 30.0566 5.78606 29.9628C5.87992 29.8689 5.93265 29.7416 5.93265 29.6089V29.4754C6.96202 29.3071 7.71134 28.6278 7.71134 27.7912C7.71134 26.824 6.71015 26.0664 5.43215 26.0664C4.70159 26.0664 4.15565 25.6844 4.15565 25.3428C4.15565 25.0011 4.70152 24.6173 5.43215 24.6173C6.1854 24.6173 6.71034 24.9996 6.71034 25.3428C6.71034 25.6192 6.9344 25.8433 7.21084 25.8433C7.48727 25.8433 7.71134 25.6192 7.71134 25.3428C7.71134 24.5053 6.96202 23.8253 5.93265 23.6568V23.5251C5.93265 23.2486 5.70859 23.0246 5.43215 23.0246C5.15571 23.0246 4.93165 23.2486 4.93165 23.5251V23.6569C3.90321 23.8254 3.15465 24.5054 3.15465 25.3428C3.15465 26.3099 4.15502 27.0674 5.43209 27.0674C6.18534 27.0674 6.71027 27.4489 6.71027 27.7912C6.71027 28.1335 6.18534 28.5149 5.43209 28.5149C4.67884 28.5149 4.15559 28.1334 4.15559 27.7912C4.15559 27.5148 3.93152 27.2907 3.65509 27.2907C3.37865 27.2907 3.15459 27.5148 3.15459 27.7912C3.15459 28.6276 3.90315 29.3069 4.93159 29.4753V29.6089C4.93159 29.7416 4.98432 29.8689 5.07818 29.9628C5.17204 30.0566 5.29941 30.1094 5.43215 30.1094ZM19.2731 29.003V30.2538C19.2731 30.9411 18.7133 31.5001 18.025 31.5001H13.975C13.2868 31.5001 12.7268 30.9411 12.7268 30.2538V29.003C12.7268 28.0916 13.3725 27.3135 14.2736 27.0195C14.0027 26.6525 13.8567 26.2082 13.8571 25.7521C13.8571 24.5705 14.8184 23.6093 16 23.6093C17.1815 23.6093 18.1428 24.5705 18.1428 25.7521C18.1432 26.2082 17.9972 26.6525 17.7263 27.0195C18.6274 27.3136 19.2731 28.0916 19.2731 29.003ZM14.8581 25.752C14.8581 26.3816 15.3703 26.8939 16 26.8939C16.6297 26.8939 17.1419 26.3817 17.1419 25.752C17.1419 25.1223 16.6297 24.6101 16 24.6101C15.3703 24.6101 14.8581 25.1223 14.8581 25.752ZM22.0963 19.5194C21.156 21.1478 19.6377 22.3123 17.8214 22.7984C17.2235 22.9594 16.607 23.0411 15.9878 23.0416C14.7683 23.0416 13.5648 22.7216 12.4804 22.0953C10.8525 21.1551 9.68777 19.637 9.20071 17.8206C8.1969 14.0721 10.43 10.2048 14.1785 9.19963C17.9271 8.19613 21.7944 10.4293 22.7995 14.1774C23.2865 15.9938 23.0368 17.8908 22.0963 19.5194ZM21.8326 14.4368C21.11 11.7424 18.6632 9.96063 15.9971 9.96063C15.4705 9.96081 14.9462 10.03 14.4375 10.1666C11.2221 11.0288 9.30652 14.3462 10.1676 17.5615C10.5854 19.1196 11.5846 20.422 12.981 21.2285C14.3776 22.0351 16.0048 22.2493 17.5624 21.8316C19.1206 21.4145 20.423 20.4156 21.2296 19.0188C22.0361 17.6219 22.2503 15.9945 21.8326 14.4368H21.8326ZM30.0558 23.079C31.9791 25.0023 31.9791 28.1316 30.0558 30.0549C29.0942 31.0166 27.8311 31.4973 26.5679 31.4973C25.3047 31.4973 24.0416 31.0166 23.08 30.0549C22.1483 29.1233 21.6351 27.8845 21.6351 26.5669C21.6351 25.2493 22.1483 24.0106 23.08 23.0789C25.0031 21.1557 28.1326 21.1557 30.0558 23.0789L30.0558 23.079ZM25.2896 25.3428C25.2896 25.0003 25.8363 24.6173 26.5679 24.6173C27.2995 24.6173 27.8444 25.0003 27.8444 25.3428C27.8444 25.6192 28.0685 25.8433 28.3449 25.8433C28.6213 25.8433 28.8454 25.6192 28.8454 25.3428C28.8454 24.5054 28.0968 23.8254 27.0684 23.6569V23.5251C27.0684 23.2486 26.8443 23.0246 26.5679 23.0246C26.2915 23.0246 26.0674 23.2486 26.0674 23.5251V23.6568C25.038 23.8253 24.2886 24.5053 24.2886 25.3428C24.2886 26.3099 25.2898 27.0674 26.5679 27.0674C27.3201 27.0674 27.8444 27.4489 27.8444 27.7912C27.8444 28.1335 27.3201 28.5149 26.5679 28.5149C25.8363 28.5149 25.2896 28.1328 25.2896 27.7912C25.2896 27.5148 25.0656 27.2907 24.7891 27.2907C24.5127 27.2907 24.2886 27.5148 24.2886 27.7912C24.2886 28.6278 25.038 29.3071 26.0674 29.4754V29.6089C26.0674 29.8853 26.2915 30.1094 26.5679 30.1094C26.8443 30.1094 27.0684 29.8853 27.0684 29.6089V29.4753C28.0968 29.3069 28.8454 28.6276 28.8454 27.7912C28.8454 26.824 27.845 26.0664 26.568 26.0664C25.8363 26.0664 25.2897 25.6844 25.2897 25.3428H25.2896ZM31.5011 17.7158V19.1951C31.5011 19.9586 30.88 20.5796 30.1166 20.5796H25.3171C24.5537 20.5796 23.9326 19.9585 23.9326 19.1951V17.7158C23.9326 16.6351 24.7311 15.7184 25.8266 15.4154C25.4791 14.993 25.2703 14.4526 25.2703 13.8643C25.2703 12.5156 26.3675 11.4184 27.716 11.4184C29.0646 11.4184 30.1618 12.5156 30.1618 13.8643C30.1618 14.4524 29.953 14.9927 29.6058 15.4151C30.7021 15.7177 31.5012 16.6346 31.5012 17.7158H31.5011ZM26.2711 13.8643C26.2711 14.6609 26.9193 15.309 27.7159 15.309C28.5125 15.309 29.1607 14.6609 29.1607 13.8643C29.1607 13.0676 28.5126 12.4194 27.7159 12.4194C26.9192 12.4194 26.2711 13.0676 26.2711 13.8643ZM12.7269 7.14257V5.89357C12.7269 4.98138 13.3726 4.20263 14.2737 3.90838C14.0028 3.54134 13.8568 3.09703 13.8572 2.64082C13.8572 1.46019 14.8185 0.499756 16 0.499756C17.1816 0.499756 18.1428 1.46019 18.1428 2.64082C18.1433 3.09703 17.9973 3.54133 17.7263 3.90838C18.6275 4.20263 19.2731 4.98138 19.2731 5.89357V7.14257C19.2731 7.82982 18.7133 8.38888 18.025 8.38888H13.975C13.2868 8.38888 12.7269 7.82982 12.7269 7.14257ZM14.8582 2.64082C14.8582 3.27044 15.3704 3.78269 16.0001 3.78269C16.6298 3.78269 17.142 3.27051 17.142 2.64082C17.142 2.01113 16.6298 1.50076 16.0001 1.50076C15.3704 1.50076 14.8582 2.01219 14.8582 2.64082ZM23.0801 8.92082C22.1484 7.98919 21.6353 6.75019 21.6353 5.43201C21.6353 4.11382 22.1484 2.87488 23.0801 1.94326C25.0033 0.0200059 28.1327 0.0200059 30.0559 1.94326C31.9796 3.86694 31.9796 6.99713 30.0559 8.92088C29.1243 9.85257 27.8855 10.3657 26.568 10.3657C25.2504 10.3657 24.0117 9.85257 23.08 8.92088L23.0801 8.92082ZM27.8445 6.65713C27.8445 6.99876 27.2986 7.38082 26.568 7.38082C25.8373 7.38082 25.2897 6.99876 25.2897 6.65713C25.2897 6.38069 25.0656 6.15663 24.7892 6.15663C24.5128 6.15663 24.2887 6.38069 24.2887 6.65713C24.2887 7.49369 25.038 8.17301 26.0675 8.34132V8.47482C26.0675 8.75126 26.2915 8.97532 26.568 8.97532C26.8444 8.97532 27.0685 8.75126 27.0685 8.47482V8.34126C28.0969 8.17282 28.8455 7.49357 28.8455 6.65713C28.8455 5.68901 27.8451 4.93063 26.568 4.93063C25.8364 4.93063 25.2898 4.54857 25.2898 4.20694C25.2898 3.86532 25.8364 3.48319 26.568 3.48319C27.2996 3.48319 27.8445 3.86526 27.8445 4.20694C27.8445 4.48338 28.0686 4.70744 28.345 4.70744C28.6215 4.70744 28.8455 4.48338 28.8455 4.20694C28.8455 3.37044 28.097 2.69119 27.0685 2.52276V2.38919C27.0685 2.11276 26.8445 1.88869 26.568 1.88869C26.2916 1.88869 26.0675 2.11276 26.0675 2.38919V2.52269C25.0381 2.69101 24.2888 3.37032 24.2888 4.20694C24.2888 5.17407 25.29 5.93163 26.568 5.93163C27.2986 5.93163 27.8445 6.31469 27.8445 6.65713Z" fill="#FF845E"></path></g><defs><clipPath id="clip0_1749_2920"><rect width="32" height="32" fill="white"></rect></clipPath></defs></svg>