<svg xmlns="http://www.w3.org/2000/svg" width="50" height="50" viewBox="0 0 50 50" fill="none"><path d="M21.0938 36.9352V32.8125H19.5312V36.9352C19.2334 37.1071 19.0006 37.3726 18.8689 37.6904C18.7373 38.0082 18.7142 38.3605 18.8032 38.6927C18.8923 39.025 19.0884 39.3185 19.3613 39.5279C19.6342 39.7373 19.9685 39.8508 20.3125 39.8508C20.6565 39.8508 20.9908 39.7373 21.2637 39.5279C21.5366 39.3185 21.7327 39.025 21.8218 38.6927C21.9108 38.3605 21.8877 38.0082 21.7561 37.6904C21.6244 37.3726 21.3916 37.1071 21.0938 36.9352ZM35.9375 40.9961V41.8641L36.1656 42.0922C36.7353 42.6363 37.4927 42.94 38.2805 42.94C39.0682 42.94 39.8257 42.6363 40.3953 42.0922L40.625 41.8633V40.9961C39.1104 41.5432 37.4521 41.5432 35.9375 40.9961ZM45.3125 34.375C45.3109 34.901 45.2501 35.4251 45.1313 35.9375H45.3125C45.7269 35.9375 46.1243 35.7729 46.4174 35.4799C46.7104 35.1868 46.875 34.7894 46.875 34.375C46.875 33.9606 46.7104 33.5632 46.4174 33.2701C46.1243 32.9771 45.7269 32.8125 45.3125 32.8125V34.375ZM31.3141 24.2188C32.7261 22.6412 34.6315 21.5894 36.7188 21.2352V8.59375H3.90625V28.9062H29.0484C29.2334 27.8054 29.615 26.7469 30.175 25.7812H7.03125V24.2188H10.9375V14.0625H14.0625V24.2188H18.75V17.1875H21.875V24.2188H26.5625V20.3125H29.6875V24.2188H31.3141ZM27.3438 18.75V17.1875H28.5828L25.4578 14.0625H20.3125C20.1435 14.0625 19.979 14.0077 19.8437 13.9062L16.9273 11.7188H10.9375V10.1562H17.1875C17.3565 10.1562 17.521 10.2111 17.6563 10.3125L20.5727 12.5H25.7812C25.9884 12.5 26.1871 12.5824 26.3336 12.7289L29.6875 16.0828V14.8438H31.25V17.9688C31.25 18.176 31.1677 18.3747 31.0212 18.5212C30.8747 18.6677 30.676 18.75 30.4688 18.75H27.3438ZM43.75 34.375V31.25H42.6625C41.8432 31.2513 41.0322 31.0857 40.2789 30.7634C39.5257 30.441 38.846 29.9686 38.2812 29.375C37.7174 29.968 37.0387 30.4401 36.2866 30.7625C35.5344 31.0848 34.7246 31.2507 33.9063 31.25H32.8125V34.375C32.8125 35.8254 33.3887 37.2164 34.4143 38.242C35.4398 39.2676 36.8308 39.8438 38.2812 39.8438C39.7317 39.8438 41.1227 39.2676 42.1482 38.242C43.1738 37.2164 43.75 35.8254 43.75 34.375ZM39.0625 38.2812C39.0625 38.074 38.9802 37.8753 38.8337 37.7288C38.6872 37.5823 38.4885 37.5 38.2812 37.5C38.074 37.5 37.8753 37.5823 37.7288 37.7288C37.5823 37.8753 37.5 38.074 37.5 38.2812H35.9375C35.9375 37.6596 36.1844 37.0635 36.624 36.624C37.0635 36.1844 37.6596 35.9375 38.2812 35.9375C38.9029 35.9375 39.499 36.1844 39.9385 36.624C40.3781 37.0635 40.625 37.6596 40.625 38.2812H39.0625Z" fill="#FF845E"></path><path d="M30.4688 30.4688V31.3609C30.7233 31.2906 30.9859 31.2533 31.25 31.25V30.4688C31.25 30.2615 31.3323 30.0628 31.4788 29.9163C31.6253 29.7698 31.824 29.6875 32.0312 29.6875H33.9063C34.6444 29.6884 35.3712 29.5066 36.022 29.1583C36.6728 28.81 37.2272 28.306 37.6359 27.6914C37.7115 27.5904 37.8096 27.5083 37.9225 27.4518C38.0353 27.3953 38.1597 27.3659 38.2859 27.3659C38.4121 27.3659 38.5366 27.3953 38.6494 27.4518C38.7622 27.5083 38.8604 27.5904 38.9359 27.6914C39.3444 28.3055 39.8984 28.8091 40.5486 29.1573C41.1988 29.5056 41.9249 29.6877 42.6625 29.6875H44.5312C44.7385 29.6875 44.9372 29.7698 45.0837 29.9163C45.2302 30.0628 45.3125 30.2615 45.3125 30.4688V31.25C45.5766 31.2533 45.8392 31.2906 46.0938 31.3609V30.4688C46.0938 28.3967 45.2706 26.4096 43.8055 24.9445C42.3404 23.4794 40.3533 22.6563 38.2812 22.6562C36.2092 22.6563 34.2221 23.4794 32.757 24.9445C31.2919 26.4096 30.4688 28.3967 30.4688 30.4688ZM31.25 35.9375H31.4312C31.3124 35.4251 31.2516 34.901 31.25 34.375V32.8125C30.8356 32.8125 30.4382 32.9771 30.1451 33.2701C29.8521 33.5632 29.6875 33.9606 29.6875 34.375C29.6875 34.7894 29.8521 35.1868 30.1451 35.4799C30.4382 35.7729 30.8356 35.9375 31.25 35.9375ZM45.5203 44.382L41.618 43.0813L41.5016 43.1969C41.0789 43.6198 40.5771 43.9554 40.0247 44.1843C39.4724 44.4132 38.8803 44.531 38.2824 44.531C37.6845 44.531 37.0925 44.4132 36.5401 44.1843C35.9877 43.9554 35.4859 43.6198 35.0633 43.1969L34.9469 43.0805L31.0406 44.3812C30.4192 44.589 29.8788 44.9867 29.4958 45.5184C29.1128 46.05 28.9065 46.6885 28.9062 47.3437V47.6562H31.25V46.0938H32.8125V47.6562H43.75V46.0938H45.3125V47.6562H47.6562V47.3437C47.6557 46.6885 47.4492 46.0499 47.0659 45.5185C46.6826 44.987 46.1419 44.5894 45.5203 44.382ZM2.34375 30.4688H28.907V32.0312H2.34375V30.4688ZM2.34375 5.46875H38.2812V7.03125H2.34375V5.46875ZM16.4062 2.34375H24.2188V3.90625H16.4062V2.34375Z" fill="#FF845E"></path></svg>