<svg xmlns="http://www.w3.org/2000/svg" width="32" height="32" viewBox="0 0 32 32" fill="none"><g clip-path="url(#clip0_1781_3728)"><path fill-rule="evenodd" clip-rule="evenodd" d="M22.8448 3.97182H17.3379C17.2684 3.97032 17.2021 3.94161 17.1534 3.89186C17.1047 3.84211 17.0775 3.77527 17.0775 3.70566C17.0775 3.63604 17.1047 3.5692 17.1534 3.51945C17.2021 3.4697 17.2684 3.44099 17.3379 3.43949H22.8448V3.36563C22.8448 2.50937 23.54 1.81416 24.3963 1.81416H24.4701V0.883293C24.4712 0.813415 24.4997 0.746761 24.5495 0.697723C24.5993 0.648686 24.6664 0.6212 24.7363 0.6212C24.8062 0.6212 24.8732 0.648686 24.923 0.697723C24.9728 0.746761 25.0013 0.813415 25.0024 0.883293V1.81416H26.5422V0.883293C26.5437 0.813698 26.5724 0.747462 26.6221 0.698776C26.6719 0.65009 26.7387 0.622826 26.8083 0.622826C26.8779 0.622826 26.9448 0.65009 26.9945 0.698776C27.0443 0.747462 27.073 0.813698 27.0745 0.883293V1.81416H28.6142V0.883293C28.6143 0.812727 28.6423 0.745062 28.6922 0.695164C28.7421 0.645267 28.8098 0.617221 28.8803 0.617188C28.9509 0.617204 29.0186 0.645243 29.0685 0.695142C29.1184 0.745041 29.1465 0.812717 29.1465 0.883293V1.81416H29.2204C30.0766 1.81416 30.7718 2.50937 30.7718 3.36563V3.43949H31.7027C31.8496 3.43949 31.9689 3.55875 31.9689 3.70566C31.9689 3.85256 31.8496 3.97182 31.7027 3.97182H30.7718V5.51157H31.7027C31.7733 5.5116 31.8409 5.53964 31.8909 5.58954C31.9408 5.63943 31.9688 5.7071 31.9689 5.77767C31.9688 5.84825 31.9408 5.91593 31.8909 5.96584C31.841 6.01575 31.7733 6.04381 31.7027 6.04384H30.7718V7.58358H31.7027C31.8496 7.58358 31.9689 7.70285 31.9689 7.84975C31.9689 7.99665 31.8496 8.11585 31.7027 8.11585H30.7718V8.18977C30.7718 9.04604 30.0766 9.74118 29.2204 9.74118H29.1465V14.2018C29.1465 14.2367 29.1396 14.2713 29.1263 14.3036C29.1129 14.3359 29.0933 14.3653 29.0685 14.39L27.7543 15.7043C27.7044 15.7542 27.6367 15.7823 27.5661 15.7823H25.4398C25.2929 15.7823 25.1736 15.663 25.1736 15.5161C25.1736 15.3692 25.2929 15.2499 25.4398 15.2499H27.4559L28.6142 14.0916V9.74118H27.0745V12.719C27.0745 12.7896 27.0464 12.8573 26.9965 12.9072L26.1711 13.7327C26.1211 13.7826 26.0535 13.8106 25.9829 13.8106H20.0382C19.9676 13.8106 19.8999 13.7825 19.85 13.7326C19.8001 13.6827 19.7721 13.6151 19.772 13.5445C19.772 13.4739 19.8001 13.4062 19.85 13.3563C19.8999 13.3064 19.9676 13.2784 20.0382 13.2783H25.8726L26.5422 12.6088V9.74118H25.0024V10.6721C25.0013 10.742 24.9728 10.8086 24.923 10.8577C24.8732 10.9067 24.8062 10.9342 24.7363 10.9342C24.6664 10.9342 24.5993 10.9067 24.5495 10.8577C24.4997 10.8086 24.4712 10.742 24.4701 10.6721V9.74118H24.3963C23.54 9.74118 22.8448 9.04604 22.8448 8.18977V8.11585H20.1484L17.5261 10.7381C17.4223 10.842 17.2536 10.842 17.1498 10.7381C17.0459 10.6342 17.0459 10.4656 17.1498 10.3617L19.85 7.66155C19.8999 7.61165 19.9676 7.58358 20.0382 7.58358H22.8448V6.04384H18.4966C18.426 6.04381 18.3583 6.01575 18.3084 5.96584C18.2585 5.91593 18.2304 5.84825 18.2304 5.77767C18.2304 5.7071 18.2585 5.63943 18.3084 5.58954C18.3583 5.53964 18.426 5.5116 18.4966 5.51157H22.8448V3.97182ZM26.8083 3.81775C25.7266 3.81775 24.8484 4.69597 24.8484 5.77767C24.8484 6.85943 25.7266 7.73766 26.8083 7.73766C27.89 7.73766 28.7682 6.85943 28.7682 5.77767C28.7682 4.69597 27.89 3.81775 26.8083 3.81775ZM26.8083 4.35008C27.5963 4.35008 28.236 4.98977 28.236 5.77767C28.236 6.56563 27.5963 7.20532 26.8083 7.20532C26.0204 7.20532 25.3807 6.56563 25.3807 5.77767C25.3807 4.98977 26.0204 4.35008 26.8083 4.35008ZM25.2846 28.2463H25.1421C25.1549 28.2259 25.1675 28.2053 25.18 28.1845L25.2846 28.2463ZM20.1064 28.5803L20.7764 28.1845C21.0802 28.6886 21.4348 29.0848 21.8212 29.348L22.0615 31.3673C21.7424 31.3594 21.4421 31.3472 21.3453 31.3472C21.2148 31.3472 21.0857 31.3337 20.9585 31.3078L20.7019 29.1605C20.6971 29.1204 20.6833 29.0819 20.6614 29.048C20.6396 29.014 20.6103 28.9855 20.5757 28.9645C20.4117 28.865 20.2551 28.7353 20.1064 28.5803ZM19.4201 18.7135C19.197 19.2824 19.0114 19.9089 18.871 20.5797C18.8578 20.6425 18.8678 20.7079 18.899 20.764L19.7599 22.3066C19.7085 22.7437 19.6828 23.1835 19.6831 23.6237C19.6831 23.9693 19.6996 24.3074 19.7288 24.6368L18.8462 26.2184C18.8158 26.2728 18.8055 26.3361 18.8171 26.3973C18.9414 27.0575 19.1092 27.678 19.3125 28.2463H18.2475C18.0327 27.6816 17.8566 27.059 17.7262 26.3931L18.6009 24.8241C18.6272 24.7769 18.6385 24.7229 18.6334 24.6691C18.6001 24.3217 18.5834 23.9728 18.5834 23.6237C18.5834 23.1628 18.6123 22.715 18.6658 22.2857C18.6728 22.2295 18.6617 22.1726 18.6342 22.1231L17.7806 20.592C17.9287 19.9114 18.1252 19.2799 18.3624 18.7135H19.4201ZM22.0194 15.8783L21.7741 17.9334C21.4746 18.1468 21.195 18.4405 20.944 18.8026L20.3441 18.4482C20.4055 18.3985 20.4695 18.3522 20.5358 18.3094C20.5688 18.2882 20.5967 18.26 20.6175 18.2267C20.6383 18.1935 20.6515 18.156 20.6561 18.1171L20.9142 15.9496C21.0556 15.917 21.2002 15.9005 21.3453 15.9003C21.4442 15.9003 21.72 15.8874 22.0194 15.8783ZM24.2242 18.6734C24.2281 18.6777 24.232 18.6819 24.2362 18.686C24.4023 18.8606 24.5583 19.0673 24.7023 19.3008C24.7389 19.3601 24.7973 19.4027 24.865 19.4194C24.9326 19.4361 25.0042 19.4256 25.0642 19.3902L26.0103 18.8314C26.226 19.3671 26.4057 19.9582 26.5437 20.5919L25.6894 22.1231C25.6617 22.1726 25.6506 22.2298 25.6578 22.2861C25.712 22.7153 25.7409 23.163 25.7409 23.6237C25.7409 23.9812 25.7224 24.3301 25.6901 24.6692C25.685 24.723 25.6963 24.777 25.7226 24.8242L26.5981 26.3931C26.477 27.0109 26.3162 27.5914 26.1225 28.123L25.2177 27.5886C25.1868 27.5703 25.1525 27.5585 25.1169 27.5538C25.0813 27.5491 25.0451 27.5517 25.0105 27.5614C24.976 27.5711 24.9437 27.5876 24.9157 27.6101C24.8877 27.6326 24.8646 27.6605 24.8477 27.6922C24.7173 27.9358 24.5746 28.155 24.4224 28.3471L24.4222 28.3473C24.2155 28.6085 23.9895 28.8179 23.7477 28.9645C23.7132 28.9855 23.6838 29.014 23.6619 29.048C23.64 29.082 23.6262 29.1205 23.6214 29.1606L23.3657 31.3077C23.2385 31.3337 23.1093 31.3471 22.9781 31.3471C22.8479 31.347 22.7181 31.3339 22.5905 31.3078L22.3349 29.1606C22.3301 29.1205 22.3163 29.0819 22.2944 29.0479C22.2725 29.0139 22.2431 28.9854 22.2085 28.9644C21.7883 28.71 21.4167 28.267 21.1086 27.692C21.0917 27.6603 21.0685 27.6325 21.0405 27.61C21.0125 27.5875 20.9802 27.571 20.9457 27.5613C20.9111 27.5517 20.8749 27.5491 20.8394 27.5538C20.8038 27.5585 20.7695 27.5703 20.7386 27.5886L19.8339 28.123C19.6402 27.5914 19.4794 27.0109 19.3583 26.3932L20.2337 24.8242C20.2601 24.777 20.2714 24.723 20.2663 24.6692C20.2327 24.3217 20.2157 23.9728 20.2154 23.6237C20.2154 23.163 20.2443 22.7153 20.2987 22.2862C20.3058 22.2298 20.2947 22.1727 20.267 22.1231L19.4126 20.5919C19.5506 19.9581 19.7305 19.3669 19.9461 18.8312L20.892 19.3901C20.952 19.4256 21.0235 19.4361 21.0912 19.4194C21.1589 19.4027 21.2173 19.3601 21.2539 19.3008C21.5213 18.8677 21.8281 18.5268 22.1674 18.3098C22.2005 18.2886 22.2285 18.2603 22.2494 18.227C22.2703 18.1937 22.2836 18.1562 22.2882 18.1171L22.547 15.9495C22.6884 15.917 22.833 15.9005 22.9781 15.9003C23.1241 15.9003 23.2681 15.9172 23.4093 15.9495L23.6682 18.1171C23.6729 18.1563 23.6862 18.194 23.7073 18.2274C23.7283 18.2609 23.7566 18.2892 23.7899 18.3103C23.9419 18.4068 24.0863 18.5293 24.2242 18.6734ZM21.9619 26.4669L21.9622 26.4674C22.2578 26.8049 22.6094 26.9869 22.9781 26.9869C23.4105 26.9869 23.8209 26.7344 24.1448 26.2769C24.5689 25.6782 24.8521 24.7137 24.8521 23.6237C24.8521 22.5336 24.5689 21.5692 24.1448 20.9704C23.8209 20.5131 23.4105 20.2605 22.9781 20.2605C22.6095 20.2605 22.2591 20.4422 21.9625 20.7787L21.9619 20.7794C21.4563 21.3544 21.1042 22.4109 21.1042 23.6237C21.1042 24.8353 21.4563 25.8919 21.9619 26.4669ZM22.5173 26.2685C22.9378 25.6667 23.2192 24.7079 23.2192 23.6237C23.2192 22.5402 22.9379 21.5809 22.5176 20.9784C22.6594 20.8615 22.8133 20.7928 22.9781 20.7928C23.2562 20.7928 23.5021 20.9838 23.7104 21.2781C24.0847 21.8066 24.3199 22.6616 24.3199 23.6237C24.3199 24.5857 24.0847 25.4408 23.7104 25.9693C23.5021 26.2635 23.2562 26.4547 22.9781 26.4547C22.8133 26.4547 22.6591 26.3859 22.5173 26.2685ZM14.4511 3.85674L13.3261 5.23255C12.9647 4.89677 12.5818 4.62236 12.1823 4.41702L12.1377 3.98155L12.24 3.85674H14.4511ZM8.97983 1.15183L8.64511 4.41702C8.24571 4.62236 7.86283 4.89677 7.50141 5.23249L6.34305 3.81557L6.60079 1.29418C6.90103 1.22784 7.20759 1.19429 7.51507 1.19412C7.71206 1.19412 8.35225 1.16605 8.97983 1.15183ZM14.4511 25.3021H12.24L12.1377 25.1773L12.1823 24.7418C12.5818 24.5365 12.9647 24.2622 13.3261 23.9263L14.4511 25.3021ZM6.34311 25.3432L7.50141 23.9264C7.86283 24.2622 8.24571 24.5365 8.64511 24.7418L8.97983 28.0069C8.35225 27.9927 7.71206 27.9646 7.51507 27.9646C7.20789 27.9645 6.90163 27.931 6.60167 27.8648L6.34311 25.3432ZM5.29123 3.85674C4.78035 4.59323 4.32256 5.43946 3.93007 6.37563C3.90326 6.4396 3.90248 6.51151 3.92789 6.57605L5.0482 9.419C4.81877 10.1321 4.63607 10.8959 4.50564 11.6995L2.66929 12.2836C2.61913 12.2996 2.57483 12.33 2.54199 12.3712C2.50915 12.4123 2.48923 12.4623 2.48477 12.5147C2.42665 13.2014 2.39758 13.8903 2.39763 14.5794C2.39763 15.281 2.42769 15.9707 2.48477 16.6443C2.48923 16.6967 2.50914 16.7467 2.542 16.7878C2.57485 16.829 2.61917 16.8595 2.66935 16.8754L4.50564 17.4593C4.63607 18.263 4.81877 19.0267 5.0482 19.7399L3.92789 22.5828C3.90249 22.6474 3.90327 22.7193 3.93007 22.7833C4.32256 23.7194 4.78041 24.5656 5.29123 25.3021H3.0483C2.48739 24.5519 1.98793 23.6678 1.56432 22.6767L2.67902 19.8459C2.70178 19.7882 2.70359 19.7243 2.68426 19.6654C2.43449 18.905 2.23888 18.0836 2.10745 17.2156C2.09999 17.1665 2.07895 17.1205 2.0467 17.0827C2.01444 17.0449 1.97226 17.0169 1.92493 17.0019L0.102112 16.4223C0.0548022 15.8091 0.0311641 15.1944 0.0312502 14.5794C0.0312502 13.9545 0.0555153 13.3392 0.102112 12.7368L1.92493 12.157C1.97227 12.1419 2.01445 12.1139 2.04671 12.0761C2.07896 12.0384 2.1 11.9923 2.10745 11.9432C2.23888 11.0752 2.43449 10.2539 2.68426 9.49348C2.70362 9.43451 2.70176 9.37063 2.67902 9.31289L1.56432 6.48211C1.98793 5.49104 2.48739 4.6069 3.0483 3.85674H5.29123ZM11.597 3.9256L11.6678 4.61787C11.6725 4.66354 11.6889 4.70721 11.7155 4.74465C11.742 4.7821 11.7778 4.81204 11.8194 4.83158C12.2942 5.0549 12.7429 5.38818 13.1583 5.81198C13.1845 5.83869 13.216 5.85957 13.2508 5.87327C13.2857 5.88698 13.323 5.89319 13.3603 5.89151C13.3977 5.88982 13.4343 5.88028 13.4677 5.86351C13.5012 5.84673 13.5307 5.82309 13.5544 5.79414L15.0025 4.02341C15.5141 4.73677 15.9719 5.56346 16.3645 6.48211L15.249 9.31283C15.2262 9.37066 15.2244 9.43463 15.2438 9.49366C15.4942 10.2541 15.689 11.0754 15.8214 11.9434C15.8289 11.9925 15.8499 12.0385 15.8821 12.0762C15.9144 12.114 15.9565 12.1419 16.0038 12.157L17.8267 12.7367C17.874 13.3498 17.8976 13.9645 17.8975 14.5794C17.8975 15.2044 17.8732 15.8197 17.8267 16.4223L16.0039 17.0018C15.9566 17.0168 15.9144 17.0448 15.8822 17.0825C15.8499 17.1203 15.8289 17.1663 15.8214 17.2153C15.689 18.0834 15.4942 18.9047 15.2438 19.6651C15.2244 19.7241 15.2262 19.7881 15.249 19.8459L16.3645 22.6768C15.9719 23.5953 15.5141 24.4221 15.0025 25.1354L13.5544 23.3647C13.5307 23.3357 13.5012 23.3121 13.4677 23.2953C13.4343 23.2786 13.3977 23.269 13.3603 23.2674C13.3229 23.2657 13.2856 23.2719 13.2508 23.2856C13.216 23.2993 13.1845 23.3202 13.1583 23.3469C12.7428 23.7708 12.2942 24.1039 11.8193 24.3274C11.7778 24.3469 11.742 24.3769 11.7155 24.4143C11.6889 24.4517 11.6725 24.4954 11.6678 24.541L11.597 25.2332L11.3272 27.8648C11.0253 27.9314 10.7171 27.9649 10.408 27.9646C10.1027 27.9641 9.79841 27.9306 9.50032 27.8648L9.15961 24.541C9.15493 24.4954 9.13853 24.4517 9.11199 24.4143C9.08545 24.3768 9.04968 24.3469 9.00815 24.3274C8.53327 24.1039 8.08465 23.7708 7.66914 23.3469C7.64296 23.3202 7.61143 23.2993 7.57661 23.2856C7.5418 23.2719 7.50449 23.2656 7.46711 23.2673C7.42973 23.269 7.39312 23.2786 7.35969 23.2953C7.32625 23.3121 7.29672 23.3358 7.27304 23.3648L5.86111 25.0918L5.82518 25.1356C5.3135 24.4223 4.85564 23.5954 4.46303 22.6768L5.57848 19.8459C5.6013 19.7881 5.60313 19.7241 5.58366 19.6651C5.33321 18.9047 5.1384 18.0834 5.0061 17.2153C4.99859 17.1663 4.97754 17.1203 4.9453 17.0826C4.91306 17.0448 4.87092 17.0169 4.82364 17.0018L3.00083 16.4223C2.95355 15.8091 2.92991 15.1944 2.92996 14.5794C2.92996 13.9545 2.95429 13.3391 3.00083 12.7367L4.82364 12.157C4.87094 12.1419 4.91309 12.114 4.94533 12.0762C4.97757 12.0385 4.99862 11.9925 5.0061 11.9434C5.1384 11.0754 5.33321 10.2541 5.58366 9.49366C5.60313 9.43464 5.6013 9.37065 5.57848 9.31283L4.46303 6.48211C4.85564 5.5634 5.3135 4.73658 5.82518 4.02316L5.86111 4.06707L7.27304 5.79414C7.29674 5.82308 7.32627 5.84671 7.35971 5.86348C7.39315 5.88025 7.42974 5.88979 7.46711 5.89148C7.50448 5.89316 7.54179 5.88695 7.5766 5.87325C7.61141 5.85955 7.64294 5.83868 7.66914 5.81198C8.08465 5.38818 8.53327 5.0549 9.00815 4.83158C9.04969 4.81205 9.08546 4.7821 9.112 4.74465C9.13853 4.70721 9.15494 4.66353 9.15961 4.61787L9.50032 1.29412C9.80029 1.22783 10.1066 1.19432 10.4138 1.19419C10.7232 1.19419 11.028 1.22831 11.3271 1.29412L11.597 3.9256ZM8.79875 20.4796L8.79913 20.4799C9.29154 20.8693 9.83947 21.0819 10.4138 21.0819C11.2717 21.0819 12.0724 20.6054 12.7151 19.7755C13.6229 18.6036 14.2205 16.714 14.2205 14.5794C14.2205 12.4448 13.6229 10.5553 12.7151 9.38332C12.0724 8.5535 11.2717 8.07699 10.4138 8.07699C9.83947 8.07699 9.29247 8.28964 8.80006 8.67894L8.79975 8.67919C7.52031 9.69115 6.60697 11.9477 6.60697 14.5794C6.60697 17.2102 7.51931 19.4667 8.79875 20.4796ZM9.39403 20.2472C10.5327 19.1468 11.3208 17.0248 11.3208 14.5794C11.3208 12.1341 10.5327 10.0122 9.39477 8.91168C9.7144 8.71699 10.0566 8.60927 10.4138 8.60927C11.1201 8.60927 11.7651 9.02608 12.2943 9.7093C13.1443 10.8067 13.6882 12.5806 13.6882 14.5794C13.6882 16.5782 13.1443 18.3521 12.2943 19.4496C11.7651 20.1328 11.1201 20.5496 10.4138 20.5496C10.0565 20.5496 9.71384 20.442 9.39403 20.2472Z" fill="#FF845E"></path></g><defs><clipPath id="clip0_1781_3728"><rect width="32" height="32" fill="white"></rect></clipPath></defs></svg>