<svg xmlns="http://www.w3.org/2000/svg" width="25" height="25" viewBox="0 0 25 25" fill="none"><g clip-path="url(#clip0_1472_2915)"><path fill-rule="evenodd" clip-rule="evenodd" d="M10.1012 14.5691C9.26065 14.2965 8.45816 14.6631 7.73799 15.08L4.79434 16.7843L6.97427 20.6361L7.51753 20.3225C7.60661 20.2712 7.71243 20.2573 7.81172 20.284L13.6065 21.8354C14.3369 22.0312 15.0277 21.9427 15.6735 21.5452C18.3382 19.9089 20.9996 18.2672 23.6623 16.6276C24.0673 16.3783 24.1198 15.6971 23.8798 15.3105C23.3505 14.4577 21.8844 15.1677 21.2753 15.5224L16.8732 18.0865C16.5246 18.2895 16.1659 18.4185 15.7937 18.481C15.4262 18.5427 15.0477 18.5385 14.6545 18.4756L14.1351 18.3913C14.1155 18.3882 14.0961 18.3853 14.0768 18.3806C13.0878 18.1775 12.1299 17.8682 11.1562 17.6073C11.0574 17.5796 10.9736 17.514 10.9228 17.4249C10.872 17.3357 10.8584 17.2302 10.8849 17.1311C10.9114 17.032 10.9758 16.9473 11.0643 16.8953C11.1528 16.8434 11.2581 16.8284 11.3576 16.8536C12.3096 17.1087 13.2533 17.4153 14.2184 17.6148C14.7087 17.6748 15.1132 17.5201 15.2493 17.0123C15.3727 16.5516 15.0822 16.1175 14.6471 15.9667C13.325 15.7247 12.0419 15.2609 11.033 14.8961C10.6819 14.7693 10.3647 14.6546 10.1012 14.5691ZM15.2811 7.45901C15.5111 7.22898 15.8875 7.22898 16.1175 7.45901L16.7168 8.05833L18.3384 6.43679C18.5684 6.20676 18.9448 6.20676 19.1749 6.43679C19.4049 6.66682 19.4049 7.04324 19.1749 7.27327L17.1466 9.30149C16.8534 9.59475 16.4611 9.47556 16.201 9.2155L15.281 8.29553C15.051 8.06545 15.051 7.68904 15.2811 7.45901ZM22.5047 6.66936C22.372 6.11194 22.1512 5.57927 21.8506 5.09143L22.3058 4.06663L21.0976 2.85847L20.0725 3.31374C19.5848 3.01327 19.0522 2.79249 18.495 2.65974L18.0923 1.61365H16.3838L15.9811 2.65974C15.4239 2.7925 14.8913 3.01328 14.4036 3.31374L13.3785 2.85847L12.1704 4.06667L12.6256 5.09167C12.3251 5.57942 12.1043 6.112 11.9716 6.66931L10.9256 7.07195V8.78054L11.9714 9.18308C12.1042 9.7405 12.325 10.2732 12.6255 10.761L12.1704 11.7858L13.3786 12.9939L14.4037 12.5386C14.8914 12.8391 15.4239 13.0599 15.9812 13.1926L16.3838 14.2387H18.0924L18.4949 13.1928C19.0523 13.0601 19.585 12.8393 20.0729 12.5387L21.0976 12.9939L22.3058 11.7857L21.8505 10.7606C22.151 10.2729 22.3717 9.74038 22.5044 9.18313L23.5505 8.78049V7.0719L22.5047 6.66936ZM17.2279 11.2213C15.3763 11.2213 13.8752 9.72024 13.8752 7.86858C13.8752 6.01687 15.3763 4.5158 17.2279 4.5158C19.0796 4.5158 20.5807 6.01687 20.5807 7.86858C20.5807 9.72024 19.0796 11.2213 17.2279 11.2213ZM7.31118 7.82048L7.84795 9.2342C7.86406 9.27668 7.90166 9.30398 7.94702 9.30618L9.45742 9.37981C9.56016 9.38479 9.6022 9.51423 9.52202 9.57864L8.34336 10.526C8.32618 10.5395 8.3134 10.5577 8.30666 10.5785C8.29992 10.5992 8.29952 10.6215 8.30552 10.6425L8.70225 12.1017C8.7292 12.201 8.61919 12.2809 8.53311 12.2246L7.26787 11.3964C7.24977 11.3842 7.22845 11.3777 7.20664 11.3777C7.18483 11.3777 7.16351 11.3842 7.14541 11.3964L5.88023 12.2246C5.79419 12.2809 5.68413 12.201 5.71109 12.1017L6.10781 10.6425C6.1138 10.6215 6.1134 10.5992 6.10666 10.5785C6.09992 10.5577 6.08714 10.5395 6.06997 10.526L4.89131 9.57864C4.81113 9.51418 4.85318 9.38479 4.95591 9.37981L6.46631 9.30618C6.48811 9.30538 6.50918 9.29811 6.52684 9.2853C6.54449 9.27248 6.55793 9.25469 6.56543 9.2342L7.10215 7.82048C7.13838 7.72488 7.2749 7.72488 7.31118 7.82048ZM7.31118 1.04192L7.8479 2.45564C7.86406 2.49812 7.90161 2.52541 7.94702 2.52761L9.45737 2.60124C9.56011 2.60623 9.60215 2.73567 9.52197 2.80007L8.34331 3.74744C8.32615 3.7609 8.31339 3.77918 8.30665 3.79993C8.29991 3.82067 8.2995 3.84296 8.30547 3.86394L8.7022 5.32317C8.7292 5.42239 8.61914 5.50237 8.53306 5.44607L7.26787 4.61785C7.24977 4.60567 7.22845 4.59917 7.20664 4.59917C7.18483 4.59917 7.16351 4.60567 7.14541 4.61785L5.88023 5.44607C5.79419 5.50242 5.68408 5.42244 5.71109 5.32317L6.10781 3.86394C6.11379 3.84296 6.11338 3.82067 6.10664 3.79993C6.0999 3.77918 6.08713 3.7609 6.06997 3.74744L4.89131 2.80007C4.81113 2.73567 4.85322 2.60623 4.95591 2.60124L6.46631 2.52761C6.48811 2.52683 6.50918 2.51956 6.52683 2.50674C6.54447 2.49392 6.5579 2.47613 6.56538 2.45564L7.10215 1.04192C7.13838 0.946313 7.27486 0.946313 7.31118 1.04192ZM7.05435 22.3638L3.42315 15.9477C3.24756 15.6375 2.8501 15.5273 2.53985 15.7029L1.30474 16.4019C0.994484 16.5775 0.884328 16.975 1.05991 17.2852L4.69116 23.7013C4.86675 24.0116 5.26421 24.1218 5.57446 23.9462L6.80957 23.2471C7.11973 23.0716 7.22993 22.674 7.05435 22.3638ZM2.71807 17.7822C2.66064 17.7908 2.60208 17.788 2.54574 17.7739C2.48939 17.7599 2.43638 17.7348 2.38974 17.7003C2.3431 17.6657 2.30375 17.6222 2.27395 17.5723C2.24416 17.5225 2.22449 17.4673 2.2161 17.4098C2.2077 17.3524 2.21073 17.2938 2.22502 17.2375C2.23931 17.1812 2.26458 17.1283 2.29937 17.0818C2.33416 17.0353 2.37779 16.9962 2.42775 16.9666C2.47772 16.937 2.53303 16.9176 2.59053 16.9094C2.70602 16.893 2.8233 16.923 2.91669 16.9929C3.01009 17.0628 3.07199 17.1669 3.08886 17.2823C3.10573 17.3977 3.07618 17.5151 3.00669 17.6088C2.93719 17.7025 2.83342 17.7648 2.71807 17.7822Z" fill="#FF845E"></path></g><defs><clipPath id="clip0_1472_2915"><rect width="25" height="25" fill="white"></rect></clipPath></defs></svg>