<svg xmlns="http://www.w3.org/2000/svg" width="32" height="32" viewBox="0 0 32 32" fill="none"><path fill-rule="evenodd" clip-rule="evenodd" d="M19.4942 6.28703H16.9698C16.1042 6.28703 15.3975 6.99366 15.3975 7.85939V10.2627C15.3975 10.2957 15.3707 10.3226 15.3376 10.3226H13.1717C12.152 10.3226 11.2688 10.7144 10.5802 11.4656L8.78051 13.4289C8.77245 13.4379 8.76179 13.4442 8.75001 13.4469C8.73823 13.4497 8.72588 13.4487 8.71466 13.4442C8.70333 13.44 8.69358 13.4323 8.68675 13.4223C8.67991 13.4123 8.67632 13.4005 8.67645 13.3883V4.15903C8.67645 3.51167 9.20771 2.98035 9.85507 2.98035H18.3755C19.0229 2.98035 19.5541 3.51161 19.5541 4.15903V6.22713C19.5541 6.24301 19.5478 6.25823 19.5365 6.26946C19.5253 6.28068 19.5101 6.287 19.4942 6.28703ZM14.0268 16.9778L13.8434 18.2389C13.8418 18.249 13.8429 18.2594 13.8465 18.2689C13.8502 18.2785 13.8562 18.287 13.8642 18.2934C13.8719 18.3001 13.8813 18.3047 13.8914 18.3066C13.9014 18.3085 13.9118 18.3078 13.9215 18.3044C15.0064 17.9452 16.1545 18.8059 16.0413 19.9946C16.0018 20.4084 15.8058 20.807 15.4629 21.0902L13.1689 22.9849C13.1573 22.9942 13.1497 23.0077 13.1478 23.0225L12.6256 26.6139C12.6229 26.6317 12.6277 26.6481 12.6395 26.6617C12.6513 26.6753 12.6668 26.6824 12.6848 26.6824H17.6947C17.7091 26.6825 17.7231 26.6774 17.7339 26.6679C17.7448 26.6585 17.752 26.6454 17.754 26.6312L19.1552 16.9951C19.1566 16.9866 19.1561 16.9778 19.1536 16.9696C19.1512 16.9613 19.147 16.9537 19.1412 16.9473C19.1357 16.9407 19.1287 16.9354 19.1209 16.9318C19.1131 16.9282 19.1045 16.9264 19.0959 16.9265H14.0861C14.0716 16.9264 14.0577 16.9316 14.0468 16.941C14.0359 16.9504 14.0288 16.9635 14.0268 16.9778ZM5.85507 17.3695C6.94487 17.3695 7.82807 16.4863 7.82807 15.3965C7.82807 14.3068 6.9448 13.4236 5.85507 13.4236C4.76535 13.4236 3.88215 14.3068 3.88215 15.3965C3.88208 16.4863 4.76541 17.3695 5.85507 17.3695ZM9.62691 21.6737C9.43171 19.7602 7.80215 18.2686 5.85507 18.2686C3.77149 18.2686 2.06519 19.975 2.06519 22.0586V28.3325C2.06519 28.7105 2.37443 29.0198 2.75235 29.0198H8.95767C9.33559 29.0198 9.64483 28.7105 9.64483 28.3325V25.686C9.64497 25.6768 9.64294 25.6678 9.6389 25.6595C9.63486 25.6513 9.62894 25.6441 9.6216 25.6386C9.61443 25.6329 9.606 25.6289 9.59702 25.6271C9.58803 25.6253 9.57873 25.6256 9.56989 25.628C9.09623 25.7512 8.5981 25.7443 8.12804 25.6081C7.65797 25.4718 7.23338 25.2112 6.89904 24.8538L4.25008 22.0257L4.24951 22.0263C3.89783 21.6746 3.72291 21.1441 3.73821 20.6769C3.75376 20.202 3.94749 19.7332 4.31575 19.3833L4.31511 19.3827C4.66679 19.031 5.19728 18.8561 5.66461 18.8714C6.14371 18.887 6.61661 19.0841 6.96759 19.4588L9.23799 21.8827C9.25867 21.9053 9.28726 21.9191 9.31783 21.9211C9.34839 21.9232 9.37857 21.9134 9.40208 21.8938L9.60528 21.7259C9.61304 21.7198 9.6191 21.7118 9.62288 21.7026C9.62667 21.6935 9.62806 21.6835 9.62691 21.6737ZM10.0462 24.3993C9.30186 25.0141 8.2129 24.9445 7.55235 24.2392L4.88477 21.3912L4.88522 21.3907L4.8785 21.3841L4.87696 21.3825C4.53821 21.0273 4.54448 20.3926 4.95037 20.0178L4.95088 20.0182L4.95741 20.0116L4.95895 20.01C5.31171 19.6733 5.94512 19.6791 6.31447 20.0734L8.58487 22.4973C8.95191 22.8892 9.56042 22.9277 9.97456 22.5857L13.9714 19.2846C14.0445 19.2243 14.1288 19.1789 14.2195 19.1513C14.3102 19.1236 14.4054 19.1141 14.4997 19.1233C15.1394 19.1843 15.3836 19.9911 14.8903 20.3985L10.0462 24.3993ZM25.8614 22.137C25.8614 21.8704 25.9708 21.6276 26.147 21.4514C26.7646 20.8339 27.8037 21.2864 27.8037 22.137V27.1799C27.8037 28.1838 26.9839 29.0036 25.98 29.0036H19.4238C19.2258 29.0036 19.0455 28.9223 18.9146 28.7914C18.4553 28.332 18.7929 27.5607 19.4238 27.5607H24.9145C25.4366 27.5607 25.8614 27.1359 25.8614 26.6138V22.137ZM26.1449 18.2686C24.0613 18.2686 22.355 19.975 22.355 22.0586V26.6018C22.355 26.6348 22.3819 26.6617 22.4149 26.6617H24.9145C24.9271 26.6615 24.9392 26.6564 24.9481 26.6474C24.9571 26.6385 24.9622 26.6264 24.9624 26.6138V22.137C24.9624 21.1075 25.803 20.2667 26.8326 20.2667C27.8621 20.2667 28.7028 21.1075 28.7028 22.137V27.1799C28.7028 27.834 28.4703 28.4355 28.0838 28.9057C28.0765 28.9144 28.0718 28.925 28.0704 28.9363C28.069 28.9476 28.0709 28.9591 28.0759 28.9693C28.0807 28.9796 28.0883 28.9884 28.0979 28.9945C28.1075 29.0006 28.1187 29.0037 28.1301 29.0036H29.2476C29.6255 29.0036 29.9348 28.6943 29.9348 28.3163V22.0585C29.9347 19.975 28.2285 18.2686 26.1449 18.2686ZM26.1448 13.4236C25.0551 13.4236 24.1719 14.3068 24.1719 15.3965C24.1719 16.4863 25.0551 17.3695 26.1448 17.3695C27.2346 17.3695 28.1178 16.4863 28.1178 15.3965C28.1178 14.3068 27.2345 13.4236 26.1448 13.4236ZM22.81 7.19417H16.9698C16.6048 7.19417 16.3045 7.49446 16.3045 7.85939V11.2763C16.3045 11.6412 16.6048 11.9415 16.9698 11.9415H20.5366C21.2763 11.9415 21.9183 12.2272 22.4176 12.7719L23.3711 13.812C23.3792 13.821 23.3898 13.8274 23.4016 13.8301C23.4134 13.8329 23.4257 13.8319 23.437 13.8274C23.4483 13.8231 23.458 13.8155 23.4649 13.8055C23.4717 13.7955 23.4753 13.7836 23.4752 13.7715V7.85939C23.4752 7.49439 23.1749 7.19417 22.81 7.19417Z" fill="#FF845E"></path></svg>