<svg xmlns="http://www.w3.org/2000/svg" width="60" height="60" viewBox="0 0 60 60" fill="none"><path fill-rule="evenodd" clip-rule="evenodd" d="M10.1447 36.2408C10.7927 36.0038 11.129 35.3904 11.1183 34.7014L10.9982 26.9485C10.9853 26.1164 11.1272 25.3181 11.7627 24.7808L16.2861 20.9567C16.3021 20.9428 16.3218 20.9339 16.3428 20.9311C16.3638 20.9282 16.3852 20.9316 16.4043 20.9407C16.4444 20.9593 16.4685 20.9971 16.4685 21.0413V30.3774C16.4685 31.463 15.6827 34.9118 14.9043 38.1432C14.8961 38.1773 14.9032 38.2102 14.9249 38.2378C14.9466 38.2654 14.9769 38.28 15.012 38.28H20.6936C20.7229 38.28 20.7511 38.2683 20.7719 38.2475C20.7927 38.2268 20.8044 38.1986 20.8044 38.1692V35.7834C20.8044 33.9835 22.269 32.5188 24.0689 32.5188H27.3642C27.3977 32.5188 27.4265 32.5056 27.4482 32.4802C27.4588 32.4682 27.4666 32.454 27.471 32.4386C27.4754 32.4232 27.4763 32.407 27.4737 32.3912C27.423 32.0587 27.3952 31.748 27.406 31.396L27.6351 23.88C27.6455 23.5366 27.7026 23.3138 27.8025 23.1683C27.8334 23.123 35.9621 21.1213 36.7448 20.9117C37.7924 20.6312 38.4826 19.7855 38.799 18.748L40.7694 12.2866C40.7769 12.2615 40.793 12.24 40.8149 12.2258C40.8368 12.2116 40.8631 12.2056 40.889 12.2089L46.5509 12.9037C46.5924 12.9089 46.6307 12.8918 46.655 12.8576C46.6792 12.8234 46.6822 12.7817 46.6635 12.7441C45.5762 10.5733 45.5745 7.24572 46.6583 5.07132C46.6677 5.05309 46.6717 5.03258 46.67 5.01215C46.6682 4.99172 46.6606 4.97221 46.6482 4.95588C46.6363 4.93927 46.6198 4.92639 46.6009 4.91873C46.5819 4.91106 46.5611 4.90892 46.541 4.91256L27.0138 8.184C26.9883 8.18845 26.9619 8.18371 26.9395 8.17062C26.9171 8.15754 26.9 8.13694 26.8913 8.11248C26.7152 7.62612 26.621 7.30572 26.2871 6.86964C25.4289 5.74872 24.0772 5.02572 22.5563 5.02572C19.9626 5.02572 17.86 7.12824 17.86 9.72204C17.86 11.2182 18.5597 12.551 19.6497 13.411C19.6838 13.4378 19.6985 13.479 19.6894 13.5214C19.6803 13.5637 19.6498 13.5952 19.6078 13.6056L14.2589 14.9346C13.3474 15.161 12.7443 15.755 12.1752 16.5022L7.10788 23.1539C6.52696 23.9164 6.65992 24.8468 6.80356 25.7947L8.25724 35.3915C8.37736 36.1855 9.39052 36.5174 10.1447 36.2408ZM43.4722 22.6519H49.9606C50.8455 22.6519 51.5673 23.3737 51.5673 24.2586V54.8468C51.5673 55.7317 50.8456 56.4535 49.9606 56.4535H41.9764C41.947 56.4535 41.9189 56.4418 41.8981 56.421C41.8774 56.4003 41.8657 56.3721 41.8656 56.3428V24.2585C41.8655 23.3736 42.5872 22.6519 43.4722 22.6519ZM40.0968 28.2956C40.1579 28.2956 40.2076 28.3454 40.2076 28.4064V56.3425C40.2075 56.3719 40.1958 56.4 40.1751 56.4208C40.1543 56.4415 40.1262 56.4532 40.0968 56.4533H32.2746C32.2453 56.4532 32.2171 56.4415 32.1964 56.4208C32.1756 56.4 32.1639 56.3719 32.1639 56.3425V29.9023C32.1639 29.0174 32.8857 28.2956 33.7706 28.2956H40.0968ZM24.0688 34.1765H30.3951C30.4562 34.1765 30.5058 34.2263 30.5058 34.2872V56.3424C30.5058 56.3718 30.4941 56.3999 30.4733 56.4207C30.4526 56.4414 30.4244 56.4531 30.3951 56.4532H22.573C22.5436 56.4531 22.5155 56.4414 22.4947 56.4207C22.474 56.3999 22.4623 56.3718 22.4622 56.3424V35.7832C22.4622 34.8983 23.1839 34.1765 24.0688 34.1765ZM20.6934 39.9377H14.3672C13.4823 39.9377 12.7605 40.6595 12.7605 41.5444V56.3425C12.7605 56.4036 12.8103 56.4533 12.8712 56.4533H20.6934C20.7228 56.4533 20.751 56.4416 20.7718 56.4208C20.7925 56.4001 20.8043 56.3719 20.8043 56.3425V40.0486C20.8043 40.0192 20.7926 39.991 20.7718 39.9702C20.751 39.9494 20.7228 39.9377 20.6934 39.9377ZM4.1242 45.7012H10.9791C11.0402 45.7012 11.0898 45.751 11.0898 45.8119V56.3425C11.0898 56.3719 11.0781 56.4 11.0573 56.4208C11.0366 56.4415 11.0084 56.4532 10.9791 56.4533H4.1242C3.5374 56.4533 3.05884 55.7315 3.05884 54.8466V47.3076C3.05884 46.4228 3.5374 45.7012 4.1242 45.7012ZM27.2872 10.5397L37.2597 11.7636C37.2962 11.768 37.3257 11.7881 37.3433 11.8202C37.352 11.8356 37.3569 11.8528 37.3574 11.8704C37.3579 11.888 37.354 11.9055 37.3462 11.9213L35.7256 15.3192C35.3056 16.1998 34.52 16.7537 33.5495 16.8535L29.8871 17.2301C28.9398 17.3274 28.0884 17.0598 27.3671 16.4381L24.6519 14.0972C24.6231 14.0724 24.6096 14.0377 24.6142 13.9999C24.6188 13.9621 24.6401 13.9316 24.6742 13.9145C25.9448 13.2713 26.8836 12.0676 27.1649 10.6285C27.1703 10.601 27.1859 10.5765 27.2086 10.56C27.2313 10.5435 27.2594 10.5363 27.2872 10.5397ZM54.8814 9.54456C54.6616 9.54456 54.4507 9.45723 54.2953 9.30177C54.1398 9.14631 54.0525 8.93546 54.0525 8.7156C54.0525 8.49575 54.1398 8.2849 54.2953 8.12944C54.4507 7.97398 54.6616 7.88664 54.8814 7.88664H56.1123C56.3321 7.88664 56.543 7.97398 56.6984 8.12944C56.8539 8.2849 56.9412 8.49575 56.9412 8.7156C56.9412 8.93546 56.8539 9.14631 56.6984 9.30177C56.543 9.45723 56.3321 9.54456 56.1123 9.54456H54.8814ZM54.5642 13.3468C54.3656 13.2598 54.2091 13.0984 54.1282 12.8973C54.0474 12.6962 54.0486 12.4714 54.1318 12.2712C54.2149 12.071 54.3732 11.9114 54.5728 11.8268C54.7723 11.7421 54.9971 11.739 55.1988 11.8183L56.3345 12.2927C56.5331 12.3796 56.6896 12.541 56.7705 12.7421C56.8513 12.9432 56.85 13.168 56.7669 13.3682C56.6838 13.5684 56.5254 13.728 56.3259 13.8127C56.1264 13.8974 55.9016 13.9004 55.6998 13.8211L54.5642 13.3468ZM55.1988 5.61288C54.9966 5.6948 54.7702 5.69351 54.5688 5.6093C54.3675 5.52509 54.2076 5.36477 54.1239 5.16324C54.0403 4.9617 54.0396 4.73527 54.122 4.53323C54.2045 4.33119 54.3634 4.16989 54.5642 4.08444L55.6998 3.61008C55.9021 3.52816 56.1285 3.52945 56.3298 3.61366C56.5312 3.69788 56.6911 3.8582 56.7747 4.05973C56.8584 4.26126 56.8591 4.48769 56.7767 4.68973C56.6942 4.89178 56.5353 5.05308 56.3345 5.13852L55.1988 5.61288ZM49.6986 4.51548C50.9102 4.51548 51.8924 6.47976 51.8924 8.9028C51.8924 11.3258 50.9103 13.2901 49.6986 13.2901C48.487 13.2901 47.5049 11.3258 47.5049 8.9028C47.5049 6.47976 48.487 4.51548 49.6986 4.51548Z" fill="#FF845E"></path></svg>