<svg xmlns="http://www.w3.org/2000/svg" width="25" height="25" viewBox="0 0 25 25" fill="none"><path fill-rule="evenodd" clip-rule="evenodd" d="M17.6949 6.04409C18.0837 6.1367 18.4552 6.29072 18.7954 6.50034L19.5106 6.18272L20.3534 7.02554L20.0359 7.74043C20.2456 8.08076 20.3996 8.45236 20.4923 8.84121L21.2218 9.12202V10.314L20.4921 10.5949C20.3994 10.9836 20.2454 11.3552 20.0358 11.6954L20.3534 12.4105L19.5106 13.2534L18.7957 12.9359C18.4553 13.1456 18.0837 13.2996 17.6949 13.3922L17.4141 14.1218H16.2221L15.9412 13.392C15.5525 13.2994 15.1809 13.1454 14.8407 12.9357L14.1256 13.2534L13.5769 12.7047C14.2565 12.3135 14.8637 11.8083 15.372 11.2112C15.7461 11.5736 16.256 11.7967 16.8181 11.7967C17.9662 11.7967 18.8968 10.8662 18.8968 9.71802C18.8968 8.61147 18.0325 7.70718 16.9421 7.64302C16.9764 7.36437 16.9936 7.08388 16.9936 6.80313C16.9936 6.29165 16.9367 5.79346 16.8297 5.31421H17.414L17.6949 6.04409ZM14.0095 18.8447C13.0654 18.6507 12.1512 18.3557 11.2217 18.1066C11.1229 18.0789 11.0391 18.0133 10.9883 17.9242C10.9376 17.835 10.9239 17.7295 10.9504 17.6304C10.9769 17.5313 11.0414 17.4466 11.1298 17.3946C11.2183 17.3427 11.3237 17.3277 11.4231 17.3529C12.3309 17.5961 13.2308 17.8885 14.1511 18.0789C14.61 18.135 14.988 17.9928 15.1154 17.517C15.2307 17.0868 14.9592 16.6821 14.5533 16.5409C13.2906 16.3096 12.0658 15.8668 11.1027 15.5187C10.7679 15.3976 10.4652 15.2881 10.2142 15.2067C9.41764 14.9483 8.65543 15.2978 7.97311 15.6928L5.1945 17.3016L7.25748 20.9467L7.74499 20.6652C7.83406 20.6139 7.93988 20.6 8.03917 20.6267L8.03947 20.6255L13.5695 22.1073C14.2618 22.2929 14.9161 22.2092 15.5283 21.8323C18.0706 20.2696 20.6113 18.704 23.1525 17.1392C23.5305 16.9065 23.5781 16.2675 23.3542 15.9067C22.8561 15.1042 21.4636 15.7824 20.8926 16.1149L16.6914 18.562C16.3568 18.7568 16.0125 18.8807 15.6551 18.9407C15.1522 19.0252 14.5098 18.9657 14.0095 18.8447ZM7.31173 22.6289L3.84621 16.5055C3.67863 16.2094 3.29928 16.1043 3.00319 16.2719L1.82443 16.939C1.52833 17.1066 1.42321 17.4859 1.59074 17.782L5.05626 23.9053C5.22384 24.2014 5.60319 24.3065 5.89923 24.139L7.07804 23.4718C7.37414 23.3043 7.47931 22.925 7.31173 22.6289ZM3.17331 18.2563C2.94332 18.2899 2.72965 18.1307 2.69601 17.9007C2.66237 17.6708 2.82155 17.457 3.05158 17.4234C3.16201 17.4073 3.27434 17.4357 3.36385 17.5024C3.45335 17.569 3.51271 17.6685 3.52885 17.779C3.54499 17.8894 3.5166 18.0017 3.44992 18.0913C3.38325 18.1808 3.28374 18.2401 3.17331 18.2563ZM10.1902 2.24946C7.67531 2.24946 5.63644 4.28833 5.63644 6.80322C5.63644 9.31816 7.67531 11.357 10.1902 11.357C12.7051 11.357 14.744 9.31816 14.744 6.80322C14.744 4.28828 12.7052 2.24946 10.1902 2.24946ZM12.1999 4.24121L12.4777 3.96333C12.514 3.92706 12.5571 3.89829 12.6045 3.87865C12.6518 3.85902 12.7026 3.84892 12.7539 3.84892C12.8052 3.84892 12.856 3.85902 12.9034 3.87865C12.9508 3.89829 12.9938 3.92706 13.0301 3.96333C13.0664 3.9996 13.0951 4.04265 13.1148 4.09004C13.1344 4.13742 13.1445 4.18821 13.1445 4.2395C13.1445 4.29079 13.1344 4.34158 13.1148 4.38897C13.0951 4.43635 13.0664 4.47941 13.0301 4.51567L12.7522 4.79355C12.7159 4.82982 12.6729 4.85859 12.6255 4.87822C12.5781 4.89785 12.5273 4.90795 12.476 4.90795C12.3725 4.90795 12.2731 4.8668 12.1999 4.79355C12.1636 4.75729 12.1348 4.71423 12.1152 4.66685C12.0956 4.61946 12.0855 4.56867 12.0855 4.51738C12.0855 4.4138 12.1266 4.31446 12.1999 4.24121ZM9.79962 3.17754C9.79962 3.07394 9.84078 2.97458 9.91404 2.90133C9.98729 2.82807 10.0866 2.78691 10.1902 2.78691C10.2938 2.78691 10.3932 2.82807 10.4665 2.90133C10.5397 2.97458 10.5809 3.07394 10.5809 3.17754V3.57056C10.5809 3.67416 10.5397 3.77351 10.4665 3.84677C10.3932 3.92003 10.2938 3.96118 10.1902 3.96118C10.0866 3.96118 9.98729 3.92003 9.91404 3.84677C9.84078 3.77351 9.79962 3.67416 9.79962 3.57056V3.17754ZM6.95758 7.19385H6.56457C6.46097 7.19385 6.36161 7.15269 6.28835 7.07944C6.2151 7.00618 6.17394 6.90682 6.17394 6.80322C6.17394 6.69962 6.2151 6.60027 6.28835 6.52701C6.36161 6.45375 6.46097 6.4126 6.56457 6.4126H6.95758C7.06118 6.4126 7.16054 6.45375 7.2338 6.52701C7.30705 6.60027 7.34821 6.69962 7.34821 6.80322C7.34821 6.90682 7.30705 7.00618 7.2338 7.07944C7.16054 7.15269 7.06118 7.19385 6.95758 7.19385ZM8.18063 9.36524L7.90275 9.64316C7.75021 9.7957 7.50294 9.7957 7.3504 9.64316C7.19787 9.49063 7.19787 9.24331 7.3504 9.09082L7.62829 8.81289C7.66455 8.77662 7.70761 8.74785 7.75499 8.72822C7.80238 8.70859 7.85317 8.69848 7.90446 8.69848C7.95575 8.69848 8.00654 8.70859 8.05392 8.72822C8.10131 8.74785 8.14436 8.77662 8.18063 8.81289C8.2169 8.84916 8.24568 8.89221 8.26531 8.9396C8.28494 8.98698 8.29504 9.03777 8.29504 9.08906C8.29504 9.14035 8.28494 9.19114 8.26531 9.23853C8.24568 9.28592 8.2169 9.32897 8.18063 9.36524ZM8.18063 4.79355C8.14436 4.82983 8.10131 4.8586 8.05392 4.87823C8.00654 4.89786 7.95575 4.90797 7.90446 4.90797C7.85317 4.90797 7.80238 4.89786 7.75499 4.87823C7.70761 4.8586 7.66455 4.82983 7.62829 4.79355L7.3504 4.51567C7.31413 4.47941 7.28536 4.43635 7.26573 4.38897C7.2461 4.34158 7.236 4.29079 7.236 4.2395C7.236 4.18821 7.2461 4.13742 7.26573 4.09004C7.28536 4.04265 7.31413 3.9996 7.3504 3.96333C7.38667 3.92706 7.42973 3.89829 7.47711 3.87865C7.5245 3.85902 7.57529 3.84892 7.62658 3.84892C7.67787 3.84892 7.72866 3.85902 7.77604 3.87865C7.82343 3.89829 7.86648 3.92706 7.90275 3.96333L8.18063 4.24121C8.2169 4.27748 8.24568 4.32053 8.26531 4.36792C8.28494 4.4153 8.29504 4.46609 8.29504 4.51738C8.29504 4.56867 8.28494 4.61946 8.26531 4.66685C8.24568 4.71424 8.2169 4.75729 8.18063 4.79355ZM10.5809 10.4289C10.5809 10.5325 10.5397 10.6319 10.4665 10.7051C10.3932 10.7784 10.2938 10.8195 10.1902 10.8195C10.0866 10.8195 9.98729 10.7784 9.91404 10.7051C9.84078 10.6319 9.79962 10.5325 9.79962 10.4289V10.0359C9.79962 9.93229 9.84078 9.83293 9.91404 9.75968C9.98729 9.68642 10.0866 9.64526 10.1902 9.64526C10.2938 9.64526 10.3932 9.68642 10.4665 9.75968C10.5397 9.83293 10.5809 9.93229 10.5809 10.0359V10.4289ZM11.6778 7.66113C11.6264 7.75056 11.5416 7.81591 11.442 7.84281C11.3424 7.86971 11.2362 7.85596 11.1468 7.80459L10.0278 7.15859C9.95976 7.12746 9.90205 7.07742 9.86159 7.01443C9.82113 6.95143 9.79962 6.87814 9.79962 6.80327V5.08037C9.79962 4.97677 9.84078 4.87741 9.91404 4.80416C9.98729 4.7309 10.0866 4.68975 10.1902 4.68975C10.2938 4.68975 10.3932 4.7309 10.4665 4.80416C10.5397 4.87741 10.5809 4.97677 10.5809 5.08037V6.57969L11.5343 7.13018C11.6238 7.18156 11.6891 7.26637 11.716 7.36594C11.7429 7.46552 11.7292 7.5717 11.6778 7.66113ZM13.0301 9.64316C12.9939 9.67944 12.9508 9.70821 12.9034 9.72784C12.856 9.74747 12.8053 9.75758 12.754 9.75758C12.7027 9.75758 12.6519 9.74747 12.6045 9.72784C12.5571 9.70821 12.5141 9.67944 12.4778 9.64316L12.1999 9.36524C12.1636 9.32897 12.1349 9.28592 12.1152 9.23853C12.0956 9.19114 12.0855 9.14035 12.0855 9.08906C12.0855 9.03777 12.0956 8.98698 12.1152 8.9396C12.1349 8.89221 12.1636 8.84916 12.1999 8.81289C12.2362 8.77662 12.2792 8.74785 12.3266 8.72822C12.374 8.70859 12.4248 8.69848 12.4761 8.69848C12.5274 8.69848 12.5782 8.70859 12.6256 8.72822C12.6729 8.74785 12.716 8.77662 12.7523 8.81289L13.0301 9.09082C13.0664 9.12709 13.0952 9.17014 13.1148 9.21753C13.1344 9.26491 13.1446 9.3157 13.1446 9.36699C13.1446 9.41828 13.1344 9.46907 13.1148 9.51646C13.0952 9.56384 13.0664 9.6069 13.0301 9.64316ZM13.8159 7.19385H13.4229C13.3193 7.19385 13.22 7.15269 13.1467 7.07944C13.0734 7.00618 13.0323 6.90682 13.0323 6.80322C13.0323 6.69962 13.0734 6.60027 13.1467 6.52701C13.22 6.45375 13.3193 6.4126 13.4229 6.4126H13.8159C13.9195 6.4126 14.0189 6.45375 14.0921 6.52701C14.1654 6.60027 14.2066 6.69962 14.2066 6.80322C14.2066 6.90682 14.1654 7.00618 14.0921 7.07944C14.0189 7.15269 13.9195 7.19385 13.8159 7.19385ZM10.1902 0.78125C6.86442 0.78125 4.16828 3.47739 4.16828 6.80322C4.16828 10.1291 6.86442 12.8252 10.1902 12.8252C13.5161 12.8252 16.2122 10.1291 16.2122 6.80322C16.2122 3.47739 13.5161 0.78125 10.1902 0.78125ZM10.1902 12.1383C7.24411 12.1383 4.85524 9.74937 4.85524 6.80327C4.85524 3.85718 7.24411 1.46826 10.1902 1.46826C13.1364 1.46826 15.5253 3.85708 15.5253 6.80322C15.5253 9.74937 13.1364 12.1383 10.1902 12.1383Z" fill="#FF845E"></path></svg>