<svg xmlns="http://www.w3.org/2000/svg" width="32" height="32" viewBox="0 0 32 32" fill="none"><path d="M15.9902 12.8332C13.3792 12.8332 11.2551 14.9577 11.2551 17.5691C11.2551 20.1805 13.3793 22.305 15.9902 22.305C18.6012 22.305 20.7255 20.1805 20.7255 17.5691C20.7255 14.9577 18.6013 12.8332 15.9902 12.8332ZM8.22094 31.9949H23.7638L23.779 28.9808C23.779 26.3427 22.1959 23.8875 19.7939 22.732C18.6923 23.5448 17.3593 23.9833 15.9903 23.9832C14.6246 23.9832 13.2945 23.5468 12.1943 22.7375C9.79934 23.8955 8.22094 26.3487 8.22094 28.985V31.9949ZM7.19216 16.4062C5.13999 16.4062 3.47045 18.076 3.47045 20.1284C3.47045 22.1809 5.13999 23.8507 7.19216 23.8507C7.62529 23.8514 8.05517 23.776 8.46217 23.6278C9.05554 22.8891 9.75421 22.258 10.544 21.7473C10.6214 21.5873 10.6872 21.4219 10.7408 21.2524C9.98758 20.1783 9.57691 18.8863 9.57691 17.5691C9.57691 17.4731 9.57923 17.3757 9.58388 17.2771C8.91475 16.7131 8.07817 16.4062 7.19216 16.4062ZM4.13698 24.5804C2.26771 25.5295 1.04077 27.5048 1.04077 29.6346V32L6.54279 31.9956V28.985C6.54279 27.8041 6.8044 26.6216 7.2965 25.5279C6.1703 25.5492 5.06562 25.2179 4.13698 24.5804ZM23.5448 23.6364C23.9451 23.779 24.367 23.8515 24.792 23.8508C26.8442 23.8508 28.5137 22.181 28.5137 20.1285C28.5137 18.076 26.8442 16.4062 24.792 16.4062C23.9044 16.4062 23.0665 16.7142 22.3968 17.2802C22.4014 17.3777 22.4037 17.4742 22.4037 17.5692C22.4037 18.8847 21.9939 20.1755 21.2423 21.2488C21.2946 21.4144 21.3585 21.5762 21.4335 21.7328C22.2356 22.248 22.9443 22.8869 23.5448 23.6364ZM25.4419 31.9956L30.9475 32L30.9591 29.6304C30.9591 27.5349 29.7022 25.5195 27.8531 24.5763C26.9324 25.2103 25.8268 25.5468 24.7035 25.5282C25.1955 26.6219 25.4571 27.8043 25.4571 28.985L25.4419 31.9956ZM26.6522 0H5.3471C4.56392 0 3.92939 0.635487 3.93055 1.41867L3.93937 7.232C3.94053 8.01347 4.57445 8.64636 5.35592 8.64636H20.4267C20.6056 9.35433 21.4354 11.9232 24.2075 12.7489C24.2075 12.7489 23.7829 10.3694 24.4614 8.64636H26.2667C27.2619 8.64636 28.0687 7.83959 28.0687 6.84438V1.41655C28.0687 0.634188 27.4345 0 26.6522 0ZM10.4797 6.81826L8.85452 5.96376L7.22935 6.81826L7.53971 5.00834L6.22491 3.72663L8.04193 3.46256L8.85452 1.81586L9.6671 3.46256L11.4841 3.72663L10.1693 5.00841L10.4797 6.81826ZM17.6251 6.81826L16 5.96376L14.3748 6.81826L14.6851 5.00834L13.3703 3.72656L15.1874 3.4625L16 1.81586L16.8125 3.46256L18.6296 3.72663L17.3148 5.00841L17.6251 6.81826ZM24.7705 6.81826L23.1454 5.96376L21.5202 6.81826L21.8306 5.00834L20.5158 3.72656L22.3328 3.4625L23.1454 1.81579L23.958 3.4625L25.775 3.72656L24.4602 5.00834L24.7705 6.81826Z" fill="#FF845E"></path></svg>