<svg xmlns="http://www.w3.org/2000/svg" width="32" height="32" viewBox="0 0 32 32" fill="none"><path d="M5.21971 16.4788C5.73474 16.4798 6.24411 16.3713 6.71405 16.1606C6.74479 16.1461 6.77825 16.1385 6.8122 16.1381C6.84615 16.1376 6.8798 16.1445 6.91088 16.1582C7.43013 16.3822 8.00854 16.4987 8.58394 16.4926C8.67088 16.4914 8.7216 16.3954 8.67994 16.3194C8.44585 15.8912 8.27637 15.4308 8.17699 14.953C8.16523 14.8939 8.17418 14.8325 8.20235 14.7791C8.38952 14.4145 8.49579 14.0087 8.49579 13.5794C8.49579 11.9806 7.02862 10.6819 5.21971 10.6819C3.4108 10.6819 1.94605 11.98 1.94605 13.5794C1.94605 13.7527 1.96235 13.9236 1.99677 14.0872C2.26726 15.4457 3.60703 16.4788 5.21971 16.4788ZM29.8869 29.5963H29.1865L29.7299 20.4866C29.7426 20.275 29.7118 20.063 29.6396 19.8637C29.5674 19.6644 29.4551 19.4819 29.3098 19.3275C29.1645 19.1732 28.9892 19.0501 28.7946 18.966C28.6 18.8819 28.3902 18.8384 28.1782 18.8383H7.68613C6.79254 18.8383 6.08009 19.593 6.13443 20.4866L6.67782 29.5963H2.1133C1.95316 29.5963 1.79959 29.66 1.68636 29.7732C1.57313 29.8864 1.50952 30.04 1.50952 30.2001C1.50952 30.3603 1.57313 30.5138 1.68636 30.6271C1.79959 30.7403 1.95316 30.8039 2.1133 30.8039H29.8869C30.047 30.8039 30.2006 30.7403 30.3138 30.6271C30.427 30.5138 30.4907 30.3603 30.4907 30.2001C30.4907 30.04 30.427 29.8864 30.3138 29.7732C30.2006 29.66 30.047 29.5963 29.8869 29.5963ZM17.9322 22.5636C18.4614 22.5636 18.969 22.7738 19.3432 23.1481C19.7174 23.5223 19.9276 24.0298 19.9276 24.5591C19.9276 25.0883 19.7174 25.5959 19.3432 25.9701C18.969 26.3443 18.4614 26.5545 17.9322 26.5545C17.4029 26.5545 16.8954 26.3443 16.5212 25.9701C16.1469 25.5959 15.9367 25.0883 15.9367 24.5591C15.9367 24.0298 16.1469 23.5223 16.5212 23.1481C16.8954 22.7738 17.4029 22.5636 17.9322 22.5636ZM9.2499 17.6308H26.6144C26.2525 17.0061 25.7331 16.4872 25.108 16.126C24.483 15.7647 23.7741 15.5737 23.0522 15.5719H20.9631C22.0137 14.6904 22.8288 13.4406 23.3118 12.1908H25.0205C25.7993 12.1908 26.4333 11.5568 26.4333 10.7779V9.48586C26.4333 9.00888 26.1918 8.58623 25.8295 8.33265C25.4491 4.30548 22.0439 1.19604 17.9322 1.19604C13.8205 1.19604 10.4212 4.30548 10.0348 8.33265C9.67254 8.58623 9.43103 9.00888 9.43103 9.48586V10.7779C9.43103 11.5568 10.065 12.1908 10.8439 12.1908H12.5525C13.0356 13.4406 13.8507 14.6904 14.9012 15.5719H12.8122C11.339 15.5719 9.98046 16.3689 9.2499 17.6308ZM12.3352 7.09491V7.10095C12.2265 7.40888 12.148 7.74095 12.0876 8.07303H11.2725C11.7676 4.84888 14.5752 2.40359 17.9322 2.40359C21.2891 2.40359 24.0967 4.84888 24.5918 8.07303H23.7888C23.2574 5.16284 20.8303 3.03152 17.9322 3.03152C15.3722 3.03152 13.1805 4.70397 12.3352 7.09491ZM14.7261 13.6519C15.1367 13.7485 15.6257 13.827 16.1933 13.8753C16.4408 14.5153 17.0748 14.9681 17.8235 14.9681C18.7895 14.9681 19.5684 14.2194 19.5684 13.2957C19.5684 12.3779 18.7895 11.6293 17.8235 11.6293C17.099 11.6293 16.4831 12.0519 16.2174 12.6557C14.8952 12.541 14.1163 12.233 13.8144 12.0881C13.7178 11.8587 13.6273 11.6293 13.5488 11.3998C13.3012 10.6572 13.1744 9.93869 13.1744 9.25642C13.1722 8.75368 13.2434 8.2533 13.3857 7.77114C13.8627 7.62623 15.0522 7.38472 16.5616 8.0368C16.9661 8.21189 17.3827 8.28435 17.8054 8.28435C19.4476 8.28435 21.108 7.1734 21.9291 6.52737C22.3409 7.19994 22.5929 7.95799 22.6657 8.74321C22.6839 8.91227 22.6899 9.08133 22.6899 9.25642C22.6899 9.93869 22.5631 10.6572 22.3156 11.3998C21.6454 13.4104 19.991 15.5719 17.9322 15.5719C16.6642 15.5719 15.5473 14.7508 14.7261 13.6519Z" fill="#FF845E"></path></svg>