<svg xmlns="http://www.w3.org/2000/svg" width="62" height="62" viewBox="0 0 62 62" fill="none"><rect x="1.5" y="1.5" width="59" height="59" rx="29.5" fill="white"></rect><rect x="1.5" y="1.5" width="59" height="59" rx="29.5" stroke="#FF845E" stroke-width="3"></rect><path d="M43.5 27H18.5C18.1022 27 17.7206 27.158 17.4393 27.4393C17.158 27.7206 17 28.1022 17 28.5V33.5C17 33.8978 17.158 34.2794 17.4393 34.5607C17.7206 34.842 18.1022 35 18.5 35H43.5C43.8978 35 44.2794 34.842 44.5607 34.5607C44.842 34.2794 45 33.8978 45 33.5V28.5C45 28.1022 44.842 27.7206 44.5607 27.4393C44.2794 27.158 43.8978 27 43.5 27ZM20 32.5C20 32.6326 19.9473 32.7598 19.8536 32.8536C19.7598 32.9473 19.6326 33 19.5 33C19.3674 33 19.2402 32.9473 19.1464 32.8536C19.0527 32.7598 19 32.6326 19 32.5V29.5C19 29.3674 19.0527 29.2402 19.1464 29.1464C19.2402 29.0527 19.3674 29 19.5 29C19.6326 29 19.7598 29.0527 19.8536 29.1464C19.9473 29.2402 20 29.3674 20 29.5V32.5ZM24.5 32.5C24.5001 32.6028 24.4684 32.703 24.4095 32.7872C24.3505 32.8714 24.267 32.9353 24.1704 32.9703C24.0738 33.0054 23.9688 33.0098 23.8696 32.983C23.7703 32.9561 23.6818 32.8994 23.616 32.8205L22 30.881V32.5C22 32.6326 21.9473 32.7598 21.8536 32.8536C21.7598 32.9473 21.6326 33 21.5 33C21.3674 33 21.2402 32.9473 21.1464 32.8536C21.0527 32.7598 21 32.6326 21 32.5V29.5C20.9999 29.3972 21.0316 29.297 21.0905 29.2128C21.1495 29.1286 21.233 29.0647 21.3296 29.0297C21.4262 28.9946 21.5312 28.9902 21.6304 29.017C21.7297 29.0439 21.8182 29.1006 21.884 29.1795L23.5 31.119V29.5C23.5 29.3674 23.5527 29.2402 23.6464 29.1464C23.7402 29.0527 23.8674 29 24 29C24.1326 29 24.2598 29.0527 24.3536 29.1464C24.4473 29.2402 24.5 29.3674 24.5 29.5V32.5ZM29.447 29.7245L27.939 32.7245C27.8974 32.8073 27.8336 32.8769 27.7548 32.9255C27.6759 32.9742 27.5851 33 27.4925 33C27.3996 32.9999 27.3085 32.9738 27.2295 32.9248C27.1506 32.8758 27.0869 32.8057 27.0455 32.7225L25.553 29.7225C25.5238 29.6637 25.5064 29.5997 25.502 29.5341C25.4975 29.4686 25.5059 29.4028 25.5269 29.3405C25.5478 29.2783 25.5808 29.2208 25.624 29.1712C25.6672 29.1217 25.7197 29.0812 25.7785 29.052C25.8973 28.993 26.0347 28.9836 26.1605 29.0259C26.2862 29.0682 26.39 29.1587 26.449 29.2775L27.4955 31.382L28.554 29.2755C28.6137 29.1569 28.718 29.067 28.844 29.0253C28.97 28.9837 29.1074 28.9938 29.226 29.0535C29.3446 29.1132 29.4345 29.2175 29.4762 29.3435C29.5178 29.4695 29.5077 29.6069 29.448 29.7255L29.447 29.7245ZM33.5 31.5C33.5 31.8978 33.342 32.2794 33.0607 32.5607C32.7794 32.842 32.3978 33 32 33C31.6022 33 31.2206 32.842 30.9393 32.5607C30.658 32.2794 30.5 31.8978 30.5 31.5V30.5C30.5 30.1022 30.658 29.7206 30.9393 29.4393C31.2206 29.158 31.6022 29 32 29C32.3978 29 32.7794 29.158 33.0607 29.4393C33.342 29.7206 33.5 30.1022 33.5 30.5V31.5ZM35.5 32.5C35.5 32.6326 35.4473 32.7598 35.3536 32.8536C35.2598 32.9473 35.1326 33 35 33C34.8674 33 34.7402 32.9473 34.6464 32.8536C34.5527 32.7598 34.5 32.6326 34.5 32.5V29.5C34.5 29.3674 34.5527 29.2402 34.6464 29.1464C34.7402 29.0527 34.8674 29 35 29C35.1326 29 35.2598 29.0527 35.3536 29.1464C35.4473 29.2402 35.5 29.3674 35.5 29.5V32.5ZM38 32H39C39.1326 32 39.2598 32.0527 39.3536 32.1464C39.4473 32.2402 39.5 32.3674 39.5 32.5C39.5 32.6326 39.4473 32.7598 39.3536 32.8536C39.2598 32.9473 39.1326 33 39 33H38C37.6022 33 37.2206 32.842 36.9393 32.5607C36.658 32.2794 36.5 31.8978 36.5 31.5V30.5C36.5 30.1022 36.658 29.7206 36.9393 29.4393C37.2206 29.158 37.6022 29 38 29H39C39.1326 29 39.2598 29.0527 39.3536 29.1464C39.4473 29.2402 39.5 29.3674 39.5 29.5C39.5 29.6326 39.4473 29.7598 39.3536 29.8536C39.2598 29.9473 39.1326 30 39 30H38C37.8674 30 37.7402 30.0527 37.6464 30.1464C37.5527 30.2402 37.5 30.3674 37.5 30.5V31.5C37.5 31.6326 37.5527 31.7598 37.6464 31.8536C37.7402 31.9473 37.8674 32 38 32ZM42.5 30.5C42.6326 30.5 42.7598 30.5527 42.8536 30.6464C42.9473 30.7402 43 30.8674 43 31C43 31.1326 42.9473 31.2598 42.8536 31.3536C42.7598 31.4473 42.6326 31.5 42.5 31.5H41.5V32H42.5C42.6326 32 42.7598 32.0527 42.8536 32.1464C42.9473 32.2402 43 32.3674 43 32.5C43 32.6326 42.9473 32.7598 42.8536 32.8536C42.7598 32.9473 42.6326 33 42.5 33H41C40.8674 33 40.7402 32.9473 40.6464 32.8536C40.5527 32.7598 40.5 32.6326 40.5 32.5V29.5C40.5 29.3674 40.5527 29.2402 40.6464 29.1464C40.7402 29.0527 40.8674 29 41 29H42.5C42.6326 29 42.7598 29.0527 42.8536 29.1464C42.9473 29.2402 43 29.3674 43 29.5C43 29.6326 42.9473 29.7598 42.8536 29.8536C42.7598 29.9473 42.6326 30 42.5 30H41.5V30.5H42.5Z" fill="#FF845E"></path><path d="M32 30C31.8674 30 31.7402 30.0527 31.6464 30.1464C31.5527 30.2402 31.5 30.3674 31.5 30.5V31.5C31.5 31.6326 31.5527 31.7598 31.6464 31.8536C31.7402 31.9473 31.8674 32 32 32C32.1326 32 32.2598 31.9473 32.3536 31.8536C32.4473 31.7598 32.5 31.6326 32.5 31.5V30.5C32.5 30.3674 32.4473 30.2402 32.3536 30.1464C32.2598 30.0527 32.1326 30 32 30Z" fill="#FF845E"></path><path d="M37 20.5H25C24.7239 20.5 24.5 20.7239 24.5 21V24C24.5 24.2761 24.7239 24.5 25 24.5H37C37.2761 24.5 37.5 24.2761 37.5 24V21C37.5 20.7239 37.2761 20.5 37 20.5Z" fill="#FF845E"></path><path d="M42.5 18.5017C42.4776 18.0835 42.2907 17.691 41.9801 17.41C41.6695 17.129 41.2604 16.9822 40.842 17.0017H21.158C20.7396 16.9822 20.3305 17.129 20.0199 17.41C19.7093 17.691 19.5224 18.0835 19.5 18.5017V26.0017H42.5V18.5017ZM38.5 24.0017C38.5 24.3995 38.342 24.7811 38.0607 25.0624C37.7794 25.3437 37.3978 25.5017 37 25.5017H25C24.6022 25.5017 24.2206 25.3437 23.9393 25.0624C23.658 24.7811 23.5 24.3995 23.5 24.0017V21.0017C23.5 20.6039 23.658 20.2224 23.9393 19.9411C24.2206 19.6598 24.6022 19.5017 25 19.5017H37C37.3978 19.5017 37.7794 19.6598 38.0607 19.9411C38.342 20.2224 38.5 20.6039 38.5 21.0017V24.0017ZM19.5 43.5017C19.5224 43.92 19.7093 44.3124 20.0199 44.5934C20.3305 44.8744 20.7396 45.0212 21.158 45.0017H40.842C41.2604 45.0212 41.6695 44.8744 41.9801 44.5934C42.2907 44.3124 42.4776 43.92 42.5 43.5017V36.0017H19.5V43.5017ZM34 42.5017H28C27.8674 42.5017 27.7402 42.449 27.6464 42.3553C27.5527 42.2615 27.5 42.1343 27.5 42.0017C27.5 41.8691 27.5527 41.7419 27.6464 41.6482C27.7402 41.5544 27.8674 41.5017 28 41.5017H34C34.1326 41.5017 34.2598 41.5544 34.3536 41.6482C34.4473 41.7419 34.5 41.8691 34.5 42.0017C34.5 42.1343 34.4473 42.2615 34.3536 42.3553C34.2598 42.449 34.1326 42.5017 34 42.5017ZM35 40.0017H27C26.8674 40.0017 26.7402 39.949 26.6464 39.8553C26.5527 39.7615 26.5 39.6343 26.5 39.5017C26.5 39.3691 26.5527 39.2419 26.6464 39.1482C26.7402 39.0544 26.8674 39.0017 27 39.0017H35C35.1326 39.0017 35.2598 39.0544 35.3536 39.1482C35.4473 39.2419 35.5 39.3691 35.5 39.5017C35.5 39.6343 35.4473 39.7615 35.3536 39.8553C35.2598 39.949 35.1326 40.0017 35 40.0017ZM26 36.5017H36C36.1326 36.5017 36.2598 36.5544 36.3536 36.6482C36.4473 36.7419 36.5 36.8691 36.5 37.0017C36.5 37.1343 36.4473 37.2615 36.3536 37.3553C36.2598 37.449 36.1326 37.5017 36 37.5017H26C25.8674 37.5017 25.7402 37.449 25.6464 37.3553C25.5527 37.2615 25.5 37.1343 25.5 37.0017C25.5 36.8691 25.5527 36.7419 25.6464 36.6482C25.7402 36.5544 25.8674 36.5017 26 36.5017Z" fill="#FF845E"></path></svg>