<svg xmlns="http://www.w3.org/2000/svg" width="50" height="50" viewBox="0 0 50 50" fill="none"><path d="M16.8156 24.9403L19.505 22.2509C20.0807 21.6752 20.0807 20.7434 19.505 20.1676L15.6868 16.3494C15.111 15.7737 14.1792 15.7737 13.6035 16.3494L10.9141 19.0388L16.8156 24.9403ZM29.7247 30.3873C29.1489 29.8116 28.2171 29.8116 27.6413 30.3873L24.9519 33.0767L30.8535 38.9782L33.5429 36.2888C34.1186 35.7131 34.1186 34.7812 33.5429 34.2055L29.7247 30.3873ZM30.3762 14.3873C30.3116 14.3416 30.2552 14.2853 30.2095 14.2206C29.5491 13.2487 28.6633 12.451 27.6277 11.8956C26.5921 11.3403 25.4376 11.0437 24.2625 11.0312C24.2322 11.0312 24.2095 11.0388 24.1792 11.0388C24.1489 11.0388 24.1262 11.0312 24.0959 11.0312C21.7095 11.0616 19.4898 12.2434 18.1489 14.2206C18.1035 14.2888 18.0429 14.3343 17.9822 14.3873C19.4595 16.1752 21.6792 17.3191 24.1792 17.3191C26.6792 17.3191 28.8989 16.1752 30.3762 14.3873Z" fill="#FF845E"></path><path d="M21.4701 9.9768C21.2428 9.77225 21.0382 9.53741 20.8564 9.27225C20.4452 8.66741 20.2066 7.96197 20.1662 7.23172C20.1258 6.50147 20.2852 5.77401 20.6271 5.12751C20.9691 4.481 21.4807 3.93988 22.107 3.56229C22.7334 3.1847 23.4508 2.9849 24.1822 2.98438C26.4019 2.98438 28.2049 4.78741 28.2049 7.0071C28.2049 7.81013 27.9625 8.59801 27.5079 9.26468C27.3337 9.52225 27.1216 9.7571 26.8943 9.96922C28.6216 10.5298 30.1367 11.6132 31.2352 13.1056C31.8564 11.9616 32.2125 10.6586 32.2125 9.27225C32.2125 4.83286 28.614 1.23438 24.1746 1.23438C19.7352 1.23438 16.1367 4.83286 16.1367 9.27225C16.1367 10.6662 16.5004 11.9616 17.114 13.1056C18.2276 11.6207 19.7504 10.5374 21.4701 9.9768Z" fill="#FF845E"></path><path d="M24.1257 9.53741H24.2318C25.05 9.52225 25.8075 9.11316 26.2697 8.43892C26.5575 8.01468 26.709 7.52225 26.709 7.01468C26.709 5.62074 25.5727 4.48438 24.1787 4.48438C22.7848 4.48438 21.6484 5.62074 21.6484 7.01468C21.6484 7.52225 21.8 8.01468 22.0878 8.43892C22.55 9.11316 23.3075 9.52225 24.1257 9.53741ZM41.8909 27.2041H41.9818C42.6484 27.1889 43.2697 26.8556 43.6484 26.3026C43.8595 25.9901 43.9816 25.6261 44.0017 25.2495C44.0218 24.873 43.939 24.498 43.7623 24.1649C43.5856 23.8318 43.3217 23.553 42.9987 23.3584C42.6757 23.1637 42.3058 23.0607 41.9287 23.0601C41.3882 23.0689 40.8725 23.2886 40.4917 23.6722C40.1108 24.0558 39.8948 24.5731 39.8899 25.1136C39.885 25.6542 40.0914 26.1753 40.4652 26.5658C40.839 26.9564 41.3506 27.1854 41.8909 27.2041Z" fill="#FF845E"></path><path d="M41.9362 20.168C38.118 20.168 35.0195 23.2665 35.0195 27.0846C35.0195 28.2437 35.315 29.3195 35.815 30.2816C36.7392 29.0468 37.9892 28.1377 39.4059 27.6377C39.2544 27.4862 39.1104 27.3195 38.9892 27.1377C38.5877 26.5392 38.3756 25.8422 38.3756 25.1301C38.3756 23.168 39.9741 21.5619 41.9362 21.5619C43.8983 21.5619 45.5044 23.1604 45.5044 25.1301C45.5044 25.8422 45.2923 26.5392 44.8907 27.1301C44.7695 27.3119 44.6256 27.4786 44.4665 27.6301C45.8907 28.1301 47.1407 29.0392 48.0574 30.274C48.5781 29.2887 48.8511 28.1915 48.8529 27.0771C48.8529 23.2665 45.7544 20.168 41.9362 20.168Z" fill="#FF845E"></path><path d="M42.013 28.6983C41.9903 28.6983 41.9676 28.7058 41.9448 28.7058C41.9221 28.7058 41.8994 28.6983 41.8767 28.6983C40.8829 28.709 39.9064 28.9599 39.0306 29.4295C38.1547 29.8991 37.4053 30.5735 36.8464 31.3952C36.8009 31.4634 36.7403 31.5165 36.6797 31.5619C37.3276 32.3263 38.1343 32.9405 39.0435 33.3617C39.9527 33.783 40.9428 34.0012 41.9448 34.0013C44.0585 34.0013 45.9448 33.0543 47.2176 31.5619C47.1529 31.5162 47.0966 31.4599 47.0509 31.3952C46.4903 30.5734 45.7395 29.899 44.8624 29.4295C43.9853 28.9599 43.0078 28.7091 42.013 28.6983ZM37.4676 14.3346C37.4373 14.3725 37.3994 14.3952 37.3615 14.4255C38.3842 15.4483 39.7858 16.0771 41.3464 16.0771C42.907 16.0771 44.3161 15.4407 45.3312 14.418C45.2933 14.3877 45.2554 14.3649 45.2251 14.3271C44.2857 13.1149 42.8767 12.418 41.3464 12.418C39.8161 12.418 38.407 13.1225 37.4676 14.3346Z" fill="#FF845E"></path><path d="M39.0445 11.3621C38.5659 10.8116 38.3022 10.1067 38.3021 9.37725C38.3021 7.70301 39.6657 6.33937 41.34 6.33937C41.9213 6.34064 42.4901 6.50844 42.979 6.82289C43.4679 7.13734 43.8566 7.58529 44.0989 8.11372C44.3411 8.64214 44.427 9.22892 44.3462 9.8046C44.2654 10.3803 44.0214 10.9208 43.643 11.3621C44.6354 11.7485 45.5218 12.3772 46.2263 13.2182C46.6884 12.4 46.9763 11.4606 46.9763 10.453C46.9763 7.33937 44.4536 4.82422 41.3475 4.82422C38.2339 4.82422 35.7188 7.34695 35.7188 10.453C35.7188 11.4606 35.9991 12.4 36.4687 13.2182C37.1565 12.3916 38.0427 11.7529 39.0445 11.3621Z" fill="#FF845E"></path><path d="M41.3471 10.9308C41.5502 10.9315 41.7515 10.892 41.9393 10.8145C42.1271 10.7371 42.2978 10.6233 42.4414 10.4797C42.5851 10.336 42.6989 10.1654 42.7763 9.97755C42.8537 9.78973 42.8932 9.58845 42.8925 9.3853C42.8925 8.52924 42.1956 7.83984 41.3471 7.83984C40.4986 7.83984 39.8016 8.53681 39.8016 9.3853C39.8016 9.6959 39.8925 9.99893 40.0743 10.2565C40.3622 10.6808 40.8395 10.9308 41.3471 10.9308ZM25.4077 28.6353C25.4986 28.6732 25.5971 28.6959 25.6955 28.6959C25.9834 28.6959 26.2637 28.5217 26.3849 28.2414L27.8925 24.6277C27.991 24.4004 27.9607 24.1353 27.8243 23.9232C27.7559 23.8211 27.6635 23.7373 27.5552 23.6792C27.4469 23.6211 27.326 23.5904 27.2031 23.5898H25.2713L26.2259 21.1201C26.2896 20.938 26.2801 20.7382 26.1993 20.5629C26.1185 20.3876 25.9727 20.2506 25.7928 20.1808C25.6128 20.111 25.4128 20.1138 25.2349 20.1887C25.0571 20.2636 24.9153 20.4048 24.8395 20.5823L23.4834 24.0595C23.3925 24.2868 23.4228 24.5444 23.5668 24.7489C23.7031 24.9535 23.938 25.0747 24.1804 25.0747H26.0819L25.0062 27.658C24.9306 27.8409 24.9304 28.0463 25.0056 28.2294C25.0808 28.4124 25.2253 28.5583 25.4077 28.6353ZM7.6501 12.5823C7.80919 12.7641 8.05161 12.8626 8.30161 12.8323C8.54403 12.802 8.75616 12.658 8.86979 12.4383L9.74858 10.7489L11.5365 12.9004C11.688 13.0747 11.9001 13.1732 12.1122 13.1732C12.2789 13.1732 12.4456 13.1201 12.5895 12.9989C12.9077 12.7338 12.9531 12.2641 12.688 11.9459L10.1804 8.93075C10.102 8.8364 10.0015 8.76284 9.88784 8.71659C9.7742 8.67035 9.65091 8.65283 9.52888 8.6656C9.40645 8.67721 9.2889 8.71936 9.18698 8.78818C9.08507 8.85701 9.00205 8.95031 8.94555 9.05954L8.05161 10.7717L6.30919 8.78681C6.03646 8.47621 5.56676 8.4459 5.25616 8.71863C4.94555 8.99136 4.91525 9.46106 5.18797 9.77166L7.6501 12.5823ZM39.794 39.4686L37.9304 39.9989L38.1728 37.3626C38.2107 36.9535 37.9077 36.5898 37.4986 36.552C37.0895 36.5141 36.7259 36.8171 36.688 37.2262L36.3471 40.9459C36.3243 41.1883 36.4228 41.4308 36.6122 41.5898C36.8016 41.7489 37.0592 41.802 37.294 41.7338L39.1198 41.2111L38.7865 43.9914C38.7748 44.0884 38.7825 44.1868 38.809 44.2808C38.8354 44.3749 38.8802 44.4628 38.9408 44.5395C39.0013 44.6162 39.0764 44.6802 39.1617 44.7279C39.247 44.7755 39.3409 44.8058 39.438 44.8171C39.4683 44.8171 39.4986 44.8247 39.5289 44.8247C39.9001 44.8247 40.2259 44.5444 40.2713 44.1656L40.7334 40.2717C40.7476 40.1491 40.7316 40.025 40.6867 39.91C40.6418 39.7951 40.5694 39.693 40.4759 39.6126C40.3822 39.5355 40.2713 39.4821 40.1526 39.4571C40.0339 39.432 39.9109 39.436 39.794 39.4686ZM19.6501 38.3777C17.491 40.5368 13.9834 40.7792 11.688 38.7717C11.0671 38.2321 10.5698 37.565 10.2299 36.8159C9.89001 36.0669 9.71551 35.2533 9.71828 34.4308C9.7107 32.9611 10.2713 31.4914 11.4001 30.3626L15.7713 25.9914L9.86979 20.0898L5.27131 24.6883C-0.236269 30.1959 -0.236269 39.1201 5.27131 44.6201L5.27888 44.6277C10.7865 50.1353 19.7107 50.1353 25.2107 44.6277L29.8092 40.0292L23.9077 34.1277L19.6501 38.3777Z" fill="#FF845E"></path></svg>