<svg xmlns="http://www.w3.org/2000/svg" width="32" height="32" viewBox="0 0 32 32" fill="none"><g clip-path="url(#clip0_1749_2932)"><path d="M7.98619 16.4878L11.4829 12.9911C11.7138 12.7603 11.7238 12.3899 11.5128 12.1469L11.6601 11.9997C11.9974 11.6624 12.5038 11.5991 12.9137 11.8429C13.8109 12.3766 14.8589 12.6831 15.9786 12.6831C19.2945 12.6831 21.9826 9.995 21.9826 6.67906C21.9826 3.36312 19.2945 0.675 15.9785 0.675C12.6625 0.675 9.97444 3.36312 9.97444 6.67906C9.97444 7.79869 10.2809 8.84675 10.8146 9.74394C11.0585 10.1539 10.9952 10.6603 10.6579 10.9976L10.5107 11.1449C10.2678 10.9339 9.89737 10.9438 9.66644 11.1748L6.16975 14.6714C5.67025 15.1709 5.67025 15.9883 6.16975 16.4878C6.66931 16.9874 7.48662 16.9874 7.98619 16.4878ZM15.9786 2.27269C18.4121 2.27269 20.3849 4.24544 20.3849 6.67894C20.3849 9.11244 18.4121 11.0852 15.9786 11.0852C13.5451 11.0852 11.5724 9.11244 11.5724 6.67894C11.5724 4.24544 13.5451 2.27269 15.9786 2.27269ZM17.9492 29.5075V20.7198H21.0591V29.5075H17.9492ZM23.0759 29.5075V17.8127H26.1858V29.5075H23.0759ZM13.9606 29.5075V28.5979L13.9571 28.5587C13.8594 27.4635 13.4674 26.4151 12.8224 25.5246V23.5823H15.9323V29.5074H13.9606V29.5075ZM28.2026 14.2659H31.3125V29.5075H28.2026V14.2659ZM31.75 31.3125C31.75 31.4285 31.7039 31.5398 31.6219 31.6219C31.5398 31.7039 31.4285 31.75 31.3125 31.75H0.6875C0.571468 31.75 0.460188 31.7039 0.378141 31.6219C0.296094 31.5398 0.25 31.4285 0.25 31.3125V0.6875C0.25 0.630047 0.261316 0.573156 0.283303 0.520076C0.305289 0.466996 0.337515 0.418766 0.378141 0.378141C0.418766 0.337515 0.466996 0.305289 0.520076 0.283303C0.573156 0.261316 0.630047 0.25 0.6875 0.25C0.744953 0.25 0.801844 0.261316 0.854924 0.283303C0.908004 0.305289 0.956234 0.337515 0.996859 0.378141C1.03748 0.418766 1.06971 0.466996 1.0917 0.520076C1.11368 0.573156 1.125 0.630047 1.125 0.6875V30.875H31.3125C31.4285 30.875 31.5398 30.9211 31.6219 31.0031C31.7039 31.0852 31.75 31.1965 31.75 31.3125ZM13.3897 6.04044C13.3603 6.01349 13.3393 5.97853 13.3293 5.93984C13.3194 5.90114 13.3209 5.86039 13.3337 5.82256C13.3456 5.78442 13.3683 5.75055 13.3991 5.72509C13.4299 5.69963 13.4674 5.68368 13.5071 5.67919L15.1046 5.47837L15.7893 4.02112C15.8247 3.94575 15.8959 3.9005 15.9792 3.9005C16.0624 3.9005 16.1337 3.94575 16.1691 4.02112L16.8538 5.47837L18.4513 5.67919C18.491 5.68366 18.5285 5.6996 18.5593 5.72506C18.5901 5.75052 18.6128 5.7844 18.6246 5.82256C18.6374 5.86039 18.639 5.90114 18.629 5.93983C18.6191 5.97852 18.5981 6.01348 18.5686 6.04044L17.3943 7.14187L17.6969 8.72325C17.7126 8.805 17.6816 8.8835 17.6142 8.93244C17.5468 8.98138 17.4626 8.98662 17.3896 8.9465L15.9792 8.17L14.5688 8.9465C14.4958 8.98662 14.4116 8.98138 14.3442 8.93244C14.2768 8.8835 14.2458 8.805 14.2614 8.72325L14.5641 7.14187L13.3897 6.04044ZM27.4536 8.11825L26.4172 7.45131C26.3437 7.40394 26.305 7.32537 26.3123 7.23812C26.3197 7.15094 26.3709 7.07994 26.4514 7.0455L30.829 5.17487C30.9011 5.14406 30.9771 5.15025 31.0432 5.19231C31.1094 5.23438 31.1472 5.3005 31.1499 5.37887L31.3153 10.173C31.3183 10.2609 31.2752 10.3379 31.1987 10.3813C31.1222 10.4247 31.0341 10.4224 30.9601 10.3748L29.7432 9.59163C26.8163 13.7263 20.4405 18.0703 12.7529 16.2956C20.0624 15.644 25.019 11.6559 27.4536 8.11819L27.4536 8.11825ZM5.40731 20.9813C5.40731 19.6329 6.50031 18.5399 7.84863 18.5399C9.19694 18.5399 10.2899 19.6329 10.2899 20.9813C10.2899 22.3296 9.19694 23.4226 7.84863 23.4226C6.50031 23.4226 5.40731 22.3296 5.40731 20.9813ZM13.0856 29.5075H2.61162V28.6373C2.85312 25.9569 5.10538 23.8563 7.84863 23.8563C10.5919 23.8563 12.8441 25.9569 13.0856 28.6373V29.5075Z" fill="#FF845E"></path></g><defs><clipPath id="clip0_1749_2932"><rect width="32" height="32" fill="white"></rect></clipPath></defs></svg>