<svg xmlns="http://www.w3.org/2000/svg" width="25" height="25" viewBox="0 0 25 25" fill="none"><g clip-path="url(#clip0_1472_2927)"><path d="M3.23247 18.4959C2.08232 16.726 1.46484 14.6606 1.46484 12.5C1.46484 9.55239 2.6127 6.7812 4.69697 4.69697C6.78125 2.6127 9.55239 1.46484 12.5 1.46484C14.6606 1.46484 16.726 2.08232 18.4959 3.23252C18.7194 2.78121 19.064 2.40096 19.4912 2.13428C17.4428 0.746533 15.0289 0 12.5 0C9.16113 0 6.02212 1.30024 3.66118 3.66113C1.30024 6.02212 0 9.16113 0 12.5C0 15.0289 0.746484 17.4428 2.13423 19.4912C2.4009 19.064 2.78115 18.7194 3.23247 18.4959ZM23.1434 5.93774C22.8597 6.3537 22.4658 6.68251 22.0059 6.88735C23.0028 8.56924 23.5352 10.4936 23.5352 12.5C23.5352 15.4476 22.3873 18.2188 20.303 20.303C18.2188 22.3873 15.4476 23.5352 12.5 23.5352C10.4936 23.5352 8.56924 23.0028 6.88735 22.0059C6.68251 22.4658 6.3537 22.8597 5.93774 23.1434C7.89072 24.3526 10.1455 25 12.5 25C15.8389 25 18.9779 23.6998 21.3389 21.3389C23.6998 18.9779 25 15.8389 25 12.5C25 10.1455 24.3526 7.89077 23.1434 5.93774ZM19.683 4.42285C19.683 5.10181 20.2353 5.6542 20.9143 5.6542C21.5933 5.6542 22.1457 5.10181 22.1457 4.42285C22.1457 3.7439 21.5933 3.1915 20.9143 3.1915C20.2353 3.1915 19.683 3.7439 19.683 4.42285ZM5.65425 20.9143C5.65425 20.2354 5.10186 19.683 4.42285 19.683C3.74385 19.683 3.1915 20.2354 3.1915 20.9143C3.1915 21.5933 3.7439 22.1457 4.42285 22.1457C5.10181 22.1457 5.65425 21.5933 5.65425 20.9143Z" fill="#FF845E"></path><path d="M8.67749 18.9889C8.18589 17.8098 7.84277 16.384 7.67007 14.8403C7.06436 14.4932 6.60586 13.918 6.41201 13.2324H3.41748C3.579 15.2533 4.40283 17.0901 5.67109 18.5256C6.0043 18.9029 6.36793 19.2521 6.7583 19.5698C7.74185 20.3701 8.89478 20.9695 10.1543 21.3053C9.63911 20.8016 9.12559 20.0637 8.67749 18.9889ZM16.3223 6.0111C16.9808 7.59049 17.3731 9.61212 17.4458 11.7676H21.5824C21.4313 9.8777 20.701 8.14879 19.5697 6.75841C19.252 6.36802 18.9028 6.00438 18.5256 5.67115C17.4828 4.74996 16.2284 4.06339 14.8455 3.69464C15.3607 4.19845 15.8742 4.93634 16.3223 6.0111ZM6.41201 11.7676C6.60586 11.082 7.06436 10.5069 7.67007 10.1597C7.84277 8.61593 8.18589 7.1902 8.67749 6.0111C9.12559 4.93634 9.63911 4.19845 10.1543 3.69469C6.49077 4.67145 3.72822 7.87911 3.41748 11.7676H6.41201ZM17.4458 13.2324C17.3731 15.3879 16.9808 17.4095 16.3223 18.9889C15.8742 20.0637 15.3607 20.8016 14.8455 21.3053C18.509 20.3285 21.2716 17.1209 21.5823 13.2324H17.4458ZM12.4999 4.12047C10.9626 4.12047 9.65723 6.50201 9.19009 9.81075C10.3416 9.88878 11.2966 10.6926 11.6005 11.7676H15.9801C15.8254 7.48278 14.3265 4.12047 12.4999 4.12047ZM12.4999 20.8796C14.3265 20.8796 15.8254 17.5172 15.9801 13.2324H11.6005C11.2966 14.3074 10.3416 15.1112 9.19009 15.1893C9.65723 18.498 10.9626 20.8796 12.4999 20.8796ZM9.00625 11.2687C8.32729 11.2687 7.7749 11.8211 7.7749 12.5C7.7749 13.179 8.32725 13.7314 9.00625 13.7314C9.68525 13.7314 10.2376 13.179 10.2376 12.5C10.2376 11.8211 9.6852 11.2687 9.00625 11.2687Z" fill="#FF845E"></path></g><defs><clipPath id="clip0_1472_2927"><rect width="25" height="25" fill="white"></rect></clipPath></defs></svg>