<svg xmlns="http://www.w3.org/2000/svg" width="60" height="60" viewBox="0 0 60 60" fill="none"><g clip-path="url(#clip0_1049_3806)"><path d="M58.6219 20.5383C58.0125 18.5074 56.1926 16.8058 54.5543 16.7367C53.8497 16.7093 53.1441 16.7411 52.4449 16.8316C49.5785 7.11677 40.6019 0.00817871 30 0.00817871C19.398 0.00817871 10.4215 7.11677 7.55155 16.8316C6.85232 16.7411 6.14672 16.7093 5.44218 16.7367C3.80155 16.8058 1.98398 18.5074 1.3746 20.5383C0.847257 21.7347 -0.165243 28.8937 0.023429 31.2551C-0.165243 33.6164 0.843741 40.7754 1.37812 41.9719C1.99218 44.0027 3.80741 45.7031 5.44569 45.7734C6.80284 45.8156 8.1588 45.6576 9.46991 45.3047C10.781 44.971 12.0475 44.4816 13.2422 43.8469C14.6601 43.0523 15.6199 41.1644 15.6187 39.5426C15.5473 38.5359 15.3023 33.0328 15.3656 31.2551C15.3023 29.4773 15.5473 23.9742 15.6187 22.9676C15.6187 21.3457 14.6601 19.4519 13.2422 18.6633L12.9234 18.4992C15.082 11.0742 21.9199 5.63318 30 5.63318C38.0801 5.63318 44.918 11.0742 47.0754 18.4992L46.7566 18.6633C45.3387 19.4531 44.3789 21.3457 44.3801 22.9687C44.4516 23.9754 44.6965 29.4785 44.6332 31.2562C44.6965 33.034 44.4516 38.5371 44.3801 39.5437C44.3801 41.1656 45.3387 43.0535 46.7566 43.848L47.0215 43.9851C45.8985 46.3217 44.2626 48.3746 42.2358 49.991C40.2089 51.6073 37.8435 52.7453 35.3156 53.3203C34.7961 52.4701 34.0028 51.822 33.0662 51.4823C32.1295 51.1427 31.1052 51.1318 30.1615 51.4514C29.2179 51.7711 28.411 52.4022 27.8735 53.2411C27.336 54.08 27.0999 55.0768 27.2039 56.0677C27.308 57.0586 27.746 57.9846 28.446 58.6936C29.146 59.4025 30.0664 59.8523 31.0559 59.9689C32.0453 60.0856 33.0451 59.8621 33.8908 59.3354C34.7364 58.8086 35.3778 58.0098 35.7094 57.0703C42.3012 55.7355 47.7797 51.2789 50.5406 45.3105C51.8486 45.6608 53.201 45.8164 54.5543 45.7722C56.1949 45.7031 58.0125 44.0015 58.6219 41.9707C59.1527 40.7742 60.1652 33.6152 59.9766 31.2539C60.1652 28.8937 59.1516 21.7347 58.6219 20.5383Z" fill="#FF845E"></path><path d="M27.7183 30.6574C28.1278 30.2527 28.456 29.7734 28.6851 29.2453C28.9031 28.7344 29.0117 28.0914 29.0109 27.3164C29.0109 26.2664 28.7793 25.3429 28.316 24.5461C27.8646 23.7609 27.2047 23.116 26.4093 22.6828C25.5672 22.2288 24.6226 21.9988 23.666 22.0148C22.5504 22.0148 21.5738 22.2285 20.7363 22.6558C19.6511 23.1896 18.8121 24.1196 18.3925 25.2539C18.3103 25.4787 18.2835 25.7201 18.3145 25.9575C18.3456 26.1948 18.4334 26.4212 18.5707 26.6174C18.7079 26.8135 18.8905 26.9737 19.1029 27.0841C19.3153 27.1946 19.5512 27.2522 19.7906 27.2519H19.8867C20.1869 27.248 20.4791 27.1547 20.726 26.984C20.9729 26.8132 21.1633 26.5728 21.273 26.2933C21.3097 26.2067 21.3511 26.1222 21.3972 26.0402C21.6077 25.6668 21.9128 25.3556 22.282 25.1379C22.6825 24.9048 23.1394 24.7864 23.6027 24.7957C24.0407 24.7856 24.473 24.8967 24.8519 25.1168C25.2017 25.3283 25.4857 25.6331 25.6722 25.9969C25.8734 26.3917 25.9744 26.83 25.9664 27.273C25.9538 27.6511 25.8492 28.0203 25.6617 28.3488C25.4593 28.7332 25.1117 29.1422 24.6187 29.5758L18.6515 34.8715C18.4645 35.0374 18.3149 35.2412 18.2125 35.4692C18.1101 35.6973 18.0572 35.9445 18.0574 36.1945C18.0565 36.4276 18.1016 36.6585 18.1903 36.874C18.279 37.0896 18.4095 37.2854 18.5741 37.4503C18.7388 37.6152 18.9345 37.7459 19.1499 37.8349C19.3653 37.9239 19.5962 37.9693 19.8293 37.9687H27.6211C27.9897 37.9687 28.3432 37.8223 28.6038 37.5617C28.8645 37.301 29.0109 36.9475 29.0109 36.5789C29.0111 36.3963 28.9752 36.2154 28.9054 36.0467C28.8357 35.8779 28.7333 35.7245 28.6042 35.5954C28.4752 35.4662 28.3219 35.3637 28.1532 35.2938C27.9845 35.2239 27.8037 35.1879 27.6211 35.1879H22.65L26.1433 32.1246C26.7668 31.5769 27.2918 31.0879 27.7183 30.6574ZM40.5468 32.7926V30.3797C40.5465 29.982 40.3884 29.6008 40.1071 29.3198C39.8258 29.0387 39.4445 28.8808 39.0468 28.8808C38.6493 28.8808 38.2681 29.0387 37.987 29.3198C37.7059 29.6009 37.548 29.9822 37.548 30.3797V32.7926H34.139L38.039 24.5273C38.1492 24.2937 38.1986 24.036 38.1825 23.7782C38.1665 23.5204 38.0856 23.2708 37.9473 23.0527C37.809 22.8345 37.6178 22.6549 37.3914 22.5304C37.1651 22.4059 36.911 22.3406 36.6527 22.3406C36.3622 22.3407 36.0778 22.4234 35.8325 22.579C35.5873 22.7346 35.3913 22.9567 35.2675 23.2195L30.9656 32.3355C30.8236 32.6364 30.7499 32.9649 30.75 33.2976C30.75 33.8953 30.9874 34.4685 31.41 34.8911C31.8326 35.3137 32.4058 35.5511 33.0035 35.5511H37.5504V36.4886C37.5504 36.8862 37.7083 37.2674 37.9894 37.5485C38.2704 37.8296 38.6517 37.9875 39.0492 37.9875C39.4468 37.9869 39.8279 37.8284 40.1087 37.5469C40.3896 37.2654 40.5472 36.8839 40.5468 36.4863V35.5488H40.5574C40.9232 35.5488 41.274 35.4035 41.5327 35.1448C41.7914 34.8862 41.9367 34.5353 41.9367 34.1695C41.9367 33.8037 41.7914 33.4529 41.5327 33.1942C41.274 32.9355 40.9232 32.7902 40.5574 32.7902L40.5468 32.7926Z" fill="#FF845E"></path></g><defs><clipPath id="clip0_1049_3806"><rect width="60" height="60" fill="white"></rect></clipPath></defs></svg>