<svg xmlns="http://www.w3.org/2000/svg" width="32" height="32" viewBox="0 0 32 32" fill="none"><path fill-rule="evenodd" clip-rule="evenodd" d="M1.229 2.39325V28.0065C1.229 28.7746 1.78263 29.3997 2.464 29.3997H19.864L17.8015 28.209C17.7423 28.175 17.6932 28.126 17.6591 28.0669C17.625 28.0078 17.607 27.9407 17.6071 27.8725V25.2356H5.53288C5.43075 25.2343 5.33325 25.1928 5.26149 25.1201C5.18973 25.0474 5.14949 24.9494 5.14949 24.8473C5.14949 24.7451 5.18973 24.6471 5.26149 24.5744C5.33325 24.5018 5.43075 24.4603 5.53288 24.459H17.6074V21.2241H5.53288C5.43075 21.2228 5.33325 21.1814 5.26149 21.1087C5.18973 21.036 5.14949 20.938 5.14949 20.8358C5.14949 20.7337 5.18973 20.6357 5.26149 20.563C5.33325 20.4903 5.43075 20.4489 5.53288 20.4476H17.6074V20.2722C17.6074 20.2042 17.6253 20.1373 17.6593 20.0783C17.6933 20.0193 17.7422 19.9704 17.8012 19.9363L22.6999 17.1085V9.78256H15.1116C15.0088 9.7826 14.9102 9.74189 14.8374 9.66936C14.7646 9.59683 14.7235 9.4984 14.7231 9.39563L14.6966 1H2.4645C1.78325 1 1.229 1.625 1.229 2.39325ZM6.4665 13.7034C5.64994 13.7034 4.98525 13.1482 4.98525 12.4659V9.44219C4.98525 8.42881 5.99669 7.60469 7.23975 7.60469H10.653C11.8961 7.60469 12.908 8.42906 12.908 9.44219V12.4661C12.908 13.1482 12.2433 13.7036 11.426 13.7036L6.4665 13.7034ZM8.94613 7.06019C8.52658 7.0602 8.11645 6.9358 7.7676 6.70272C7.41875 6.46964 7.14686 6.13834 6.9863 5.75073C6.82574 5.36312 6.78373 4.93661 6.86557 4.52512C6.94742 4.11363 7.14945 3.73565 7.44612 3.43899C7.74278 3.14232 8.12076 2.94029 8.53225 2.85844C8.94373 2.7766 9.37025 2.81861 9.75786 2.97917C10.1455 3.13973 10.4768 3.41163 10.7098 3.76047C10.9429 4.10932 11.0673 4.51945 11.0673 4.939C11.0668 5.50141 10.8431 6.04062 10.4454 6.4383C10.0478 6.83598 9.50854 7.05964 8.94613 7.06019ZM20.03 17.212H5.53288C5.42991 17.212 5.33116 17.1711 5.25834 17.0983C5.18553 17.0255 5.14463 16.9267 5.14463 16.8237C5.14463 16.7208 5.18553 16.622 5.25834 16.5492C5.33116 16.4764 5.42991 16.4355 5.53288 16.4355H20.0302C20.1332 16.4355 20.2319 16.4764 20.3047 16.5492C20.3775 16.622 20.4184 16.7208 20.4184 16.8237C20.4184 16.9267 20.3775 17.0255 20.3047 17.0983C20.2319 17.1711 20.1332 17.212 20.0302 17.212H20.03ZM5.76194 9.44219C5.76194 8.86719 6.43907 8.38094 7.24013 8.38094H10.6526C11.4538 8.38094 12.1315 8.86687 12.1315 9.44219V12.4661C12.1315 12.6836 11.8418 12.9269 11.4262 12.9269H11.2949V11.8188C11.2936 11.7166 11.2522 11.6191 11.1795 11.5474C11.1068 11.4756 11.0088 11.4354 10.9067 11.4354C10.8045 11.4354 10.7065 11.4756 10.6338 11.5474C10.5612 11.6191 10.5197 11.7166 10.5184 11.8188V12.9269H7.37488V11.819C7.37488 11.716 7.33397 11.6173 7.26116 11.5445C7.18835 11.4717 7.0896 11.4307 6.98663 11.4307C6.88366 11.4307 6.78491 11.4717 6.71209 11.5445C6.63928 11.6173 6.59838 11.716 6.59838 11.819V12.9269H6.46713C6.05163 12.9269 5.76244 12.6836 5.76244 12.4661V9.44219H5.76194ZM7.60182 4.939C7.60183 4.67306 7.6807 4.41309 7.82846 4.19198C7.97622 3.97086 8.18623 3.79853 8.43193 3.69677C8.67764 3.59501 8.948 3.56839 9.20883 3.62029C9.46966 3.67218 9.70924 3.80026 9.89728 3.98831C10.0853 4.17637 10.2134 4.41597 10.2652 4.6768C10.3171 4.93763 10.2905 5.20799 10.1887 5.45369C10.0869 5.69938 9.91455 5.90937 9.69342 6.05711C9.47229 6.20485 9.21232 6.2837 8.94638 6.28369C8.58987 6.28331 8.24808 6.14151 7.99601 5.88941C7.74393 5.63731 7.60216 5.29551 7.60182 4.939ZM15.4753 1.61738L22.2084 9.00625H15.4986L15.4753 1.61756V1.61738ZM24.5773 16.9208L27.0921 18.3723L21.2858 21.7243L18.7719 20.2722L24.577 16.9208H24.5773ZM27.8687 18.8208L30.3826 20.2723L24.5773 23.6243L22.0628 22.1722L27.869 18.8208H27.8687ZM30.7708 20.9446L24.9658 24.2966V31L30.7708 27.6486V20.9446V20.9446ZM24.1891 31L18.3841 27.6486V20.9446L20.9018 22.3986V24.5929C20.903 24.6951 20.9445 24.7926 21.0172 24.8644C21.0899 24.9361 21.1879 24.9764 21.2901 24.9764C21.3922 24.9764 21.4903 24.9361 21.563 24.8644C21.6357 24.7926 21.6771 24.6951 21.6784 24.5929V22.8471L24.1891 24.2966L24.1891 31Z" fill="#FF845E"></path></svg>