<svg xmlns="http://www.w3.org/2000/svg" width="60" height="60" viewBox="0 0 60 60" fill="none"><path d="M12.3245 55.009L12.8483 55.5328L10.3956 57.9856L2.10928 49.6969L4.56202 47.2465L4.93467 47.6192L12.2788 54.9633L12.3245 55.009ZM24.3925 41.6379C24.2838 41.5305 24.1372 41.4701 23.9843 41.4699C23.8315 41.4697 23.6847 41.5296 23.5757 41.6367L23.5733 41.6391L23.571 41.6414L21.062 44.1539C20.8863 44.33 20.6478 44.429 20.399 44.4292C20.1502 44.4295 19.9115 44.3308 19.7355 44.1551C19.5594 43.9793 19.4603 43.7408 19.4601 43.4921C19.4599 43.2433 19.5585 43.0046 19.7343 42.8285L22.2351 40.3242L22.2456 40.3137V40.3125C22.248 40.3102 22.2515 40.3078 22.2538 40.3055L22.9417 39.6211C23.0474 39.511 23.1062 39.3642 23.1058 39.2116C23.1053 39.0591 23.0457 38.9126 22.9394 38.8031C22.8856 38.7492 22.8217 38.7064 22.7513 38.6775C22.6808 38.6485 22.6054 38.6339 22.5292 38.6344H22.528C22.4527 38.6339 22.378 38.6485 22.3084 38.6773C22.2388 38.7061 22.1756 38.7484 22.1226 38.802L22.1214 38.8031L18.9116 42.0094C18.7354 42.1847 18.4969 42.283 18.2483 42.2827C17.9997 42.2823 17.7615 42.1834 17.5858 42.0075C17.4101 41.8317 17.3113 41.5933 17.3112 41.3447C17.3111 41.0962 17.4096 40.8577 17.5851 40.6817L20.7913 37.4789L20.7948 37.4754L21.1358 37.1309C21.1908 37.0775 21.2346 37.0138 21.2648 36.9434C21.295 36.873 21.3109 36.7974 21.3116 36.7208C21.3124 36.6442 21.2979 36.5682 21.2691 36.4973C21.2403 36.4263 21.1977 36.3618 21.1437 36.3074C21.0898 36.253 21.0257 36.2098 20.9549 36.1804C20.8842 36.151 20.8084 36.1359 20.7318 36.136C20.6552 36.136 20.5794 36.1513 20.5088 36.1809C20.4381 36.2104 20.374 36.2537 20.3202 36.3082L16.7659 39.8625C16.59 40.0384 16.3514 40.1373 16.1026 40.1373C15.8539 40.1373 15.6153 40.0384 15.4394 39.8625C15.2634 39.6866 15.1646 39.448 15.1646 39.1992C15.1646 38.9505 15.2634 38.7119 15.4394 38.5359L18.9937 34.9817L22.1097 31.8656C22.2177 31.756 22.2783 31.6082 22.2783 31.4543C22.2783 31.3004 22.2177 31.1526 22.1097 31.043C21.9992 30.9367 21.8517 30.8776 21.6985 30.878C21.5452 30.8785 21.3981 30.9385 21.2882 31.0453L12.9292 39.4078C12.798 39.5391 12.6308 39.6285 12.4488 39.6647C12.2668 39.701 12.0781 39.6824 11.9066 39.6114C11.7351 39.5404 11.5886 39.4202 11.4854 39.2659C11.3823 39.1116 11.3273 38.9301 11.3272 38.7445V34.5527C11.3274 34.4341 11.2912 34.3183 11.2234 34.2209C11.1556 34.1235 11.0595 34.0493 10.9482 34.0083C10.8369 33.9673 10.7157 33.9614 10.6009 33.9915C10.4862 34.0216 10.3834 34.0862 10.3065 34.1766C10.3042 34.1789 10.303 34.1813 10.3007 34.1836C10.2149 34.2875 10.168 34.418 10.1683 34.5527C10.1683 34.5785 10.1671 34.6043 10.1647 34.6313C10.1214 35.1469 10.08 35.6652 10.0405 36.1863C9.8378 38.7703 9.62803 41.4434 9.03858 44.0109C8.8285 44.9703 8.29979 45.8303 7.53858 46.4508C7.36983 46.5914 7.17178 46.7649 6.94092 46.9711L12.9585 52.9887C13.2187 52.718 13.4413 52.4836 13.6159 52.2949C14.0029 51.8615 14.4878 51.5268 15.0304 51.3188C15.5768 51.1058 16.0726 50.7809 16.4858 50.3649L20.1866 46.6676L24.3948 42.4594C24.5026 42.3497 24.5628 42.2019 24.5624 42.0482C24.562 41.8944 24.5009 41.747 24.3925 41.6379ZM49.0862 13.2129C49.2039 12.8448 49.2894 12.4673 49.3417 12.0844C49.3622 11.9363 49.4178 11.7952 49.5038 11.6729C49.5898 11.5506 49.7038 11.4506 49.8362 11.3813L51.6304 10.4426L51.3409 8.7504L49.3382 8.45743C49.1913 8.436 49.0516 8.37999 48.9306 8.29402C48.8096 8.20804 48.7107 8.09456 48.6421 7.9629C48.4643 7.61912 48.2577 7.29099 48.0245 6.98204C47.9331 6.86287 47.8718 6.72345 47.8457 6.57557C47.8196 6.42769 47.8295 6.27569 47.8745 6.13243L48.478 4.20001L47.0765 3.20861L45.4534 4.41798C45.3338 4.50705 45.1946 4.56627 45.0474 4.59073C44.9002 4.61518 44.7494 4.60417 44.6073 4.55861C44.2384 4.44106 43.8601 4.35558 43.4765 4.30314C43.3281 4.28257 43.1868 4.22686 43.0643 4.14064C42.9417 4.05441 42.8416 3.94018 42.7722 3.80743L41.8323 2.01447L40.1425 2.30392L39.8495 4.31017C39.8276 4.45798 39.7708 4.59844 39.6838 4.71991C39.5968 4.84137 39.482 4.94034 39.3491 5.00861C39.0034 5.18636 38.6734 5.39295 38.3624 5.62618C38.2439 5.71481 38.1061 5.77417 37.9603 5.79942C37.8145 5.82467 37.6648 5.8151 37.5233 5.7715L35.5898 5.17032L34.5995 6.56837L35.8089 8.18907C35.8984 8.30896 35.958 8.44851 35.9827 8.5961C36.0074 8.74368 35.9964 8.89503 35.9507 9.03751C35.8334 9.40694 35.7475 9.78563 35.694 10.1695C35.6734 10.3172 35.6181 10.4578 35.5325 10.5798C35.4469 10.7018 35.3336 10.8018 35.2019 10.8715L33.4065 11.8137L33.6948 13.5024L35.6987 13.7953C35.8455 13.8167 35.9851 13.8726 36.1059 13.9586C36.2268 14.0446 36.3254 14.1582 36.3937 14.2899C36.4792 14.4539 36.5694 14.6133 36.6644 14.7656C36.7757 14.9449 36.8929 15.116 37.0148 15.2766C37.1049 15.3959 37.1652 15.535 37.1909 15.6824C37.2166 15.8297 37.2068 15.981 37.1624 16.1238L36.5577 18.0563L37.9593 19.0488L39.5823 17.8383C39.7442 17.7177 39.9406 17.6523 40.1425 17.652C40.2375 17.6518 40.332 17.6665 40.4226 17.6953C40.7937 17.8117 41.1739 17.8968 41.5593 17.9496C41.7077 17.9702 41.849 18.0259 41.9715 18.1121C42.094 18.1983 42.1941 18.3126 42.2636 18.4453L43.2046 20.2395L44.8933 19.9524L45.1874 17.9461C45.2088 17.7992 45.2648 17.6595 45.3508 17.5385C45.4368 17.4175 45.5503 17.3186 45.6819 17.25C46.0256 17.0726 46.3534 16.866 46.6616 16.6324C46.781 16.5414 46.9204 16.4803 47.0682 16.4542C47.216 16.4281 47.3679 16.4378 47.5112 16.4824L49.4472 17.0859L50.4362 15.6879L49.2269 14.0625C49.1372 13.9424 49.0777 13.8026 49.0532 13.6548C49.0288 13.507 49.0401 13.3555 49.0862 13.2129ZM47.2839 14.502C46.6163 15.4445 45.6842 16.1678 44.6054 16.5806C43.5267 16.9933 42.3498 17.0769 41.2235 16.8208C40.0973 16.5647 39.0723 15.9803 38.2781 15.1416C37.484 14.303 36.9564 13.2477 36.762 12.1091C36.5676 10.9706 36.7152 9.8 37.1862 8.74536C37.6571 7.69072 38.4302 6.79941 39.4076 6.18414C40.3851 5.56886 41.5231 5.25726 42.6777 5.28873C43.8322 5.3202 44.9515 5.69334 45.8941 6.36095C46.5202 6.80396 47.0529 7.36605 47.4617 8.01506C47.8704 8.66408 48.1473 9.38731 48.2763 10.1434C48.4054 10.8995 48.3842 11.6736 48.2139 12.4215C48.0436 13.1693 47.7276 13.8763 47.2839 14.502ZM45.7523 13.418C45.4514 13.8426 45.0698 14.2039 44.6294 14.4811C44.1889 14.7583 43.6981 14.946 43.1851 15.0336C42.149 15.2104 41.0851 14.9684 40.2274 14.3608C39.3698 13.7531 38.7886 12.8297 38.6118 11.7936C38.5243 11.2806 38.5387 10.7553 38.6541 10.2479C38.7695 9.74038 38.9838 9.26062 39.2847 8.83595V8.83478C39.8924 7.97712 40.816 7.39603 41.8522 7.21934C42.8884 7.04264 43.9524 7.28482 44.8101 7.89259C45.6677 8.50036 46.2488 9.42394 46.4255 10.4602C46.6022 11.4964 46.36 12.5603 45.7523 13.418ZM9.03741 2.0297C7.63254 2.03039 6.25941 2.44762 5.09165 3.22863C3.92388 4.00964 3.0139 5.11936 2.47676 6.41749C1.93962 7.71562 1.79944 9.14387 2.07394 10.5217C2.34845 11.8995 3.0253 13.1649 4.01894 14.1581C5.01258 15.1512 6.27838 15.8274 7.65631 16.1013C9.03424 16.3751 10.4624 16.2342 11.7603 15.6964C13.0581 15.1586 14.1674 14.2481 14.9478 13.08C15.7283 11.9118 16.1448 10.5385 16.1448 9.13361C16.1429 7.24952 15.3933 5.44322 14.0607 4.1113C12.7282 2.77938 10.9215 2.03072 9.03741 2.0297ZM8.78077 3.71368H9.29639C9.41966 3.71368 9.54172 3.73796 9.6556 3.78514C9.76949 3.83231 9.87297 3.90145 9.96013 3.98861C10.0473 4.07578 10.1164 4.17926 10.1636 4.29314C10.2108 4.40703 10.2351 4.52909 10.2351 4.65236C10.2351 4.77562 10.2108 4.89769 10.1636 5.01157C10.1164 5.12545 10.0473 5.22893 9.96013 5.3161C9.87297 5.40326 9.76949 5.4724 9.6556 5.51958C9.54172 5.56675 9.41966 5.59103 9.29639 5.59103H8.78077C8.53181 5.59103 8.29306 5.49213 8.11702 5.3161C7.94099 5.14006 7.84209 4.90131 7.84209 4.65236C7.84209 4.4034 7.94099 4.16465 8.11702 3.98861C8.29306 3.81258 8.53181 3.71368 8.78077 3.71368ZM11.0366 14.5535H7.04053C6.79158 14.5535 6.55282 14.4546 6.37679 14.2786C6.20075 14.1026 6.10186 13.8638 6.10186 13.6149C6.10186 13.3659 6.20075 13.1271 6.37679 12.9511C6.55282 12.7751 6.79158 12.6762 7.04053 12.6762H8.09873V7.85978H7.04053C6.79158 7.85978 6.55283 7.76088 6.37679 7.58485C6.20075 7.40881 6.10186 7.17006 6.10186 6.92111C6.10186 6.67216 6.20075 6.4334 6.37679 6.25737C6.55283 6.08133 6.79158 5.98243 7.04053 5.98243H9.03741C9.28631 5.98259 9.52497 6.08153 9.70098 6.25754C9.87698 6.43354 9.97592 6.6722 9.97608 6.92111V12.6762H11.0366C11.2856 12.6762 11.5243 12.7751 11.7004 12.9511C11.8764 13.1271 11.9753 13.3659 11.9753 13.6149C11.9753 13.8638 11.8764 14.1026 11.7004 14.2786C11.5243 14.4546 11.2856 14.5535 11.0366 14.5535Z" fill="#FF845E"></path><path d="M58.0663 21.4488V48.423H36.0116C42.2905 45.8074 48.1476 45.068 53.8171 46.1602C53.953 46.1864 54.093 46.1822 54.2271 46.148C54.3612 46.1137 54.4861 46.0503 54.5928 45.9622C54.6995 45.874 54.7854 45.7634 54.8444 45.6382C54.9034 45.513 54.9339 45.3763 54.9339 45.2379V21.4488H58.0663ZM21.0854 48.423H27.5976C26.0224 47.7608 24.4057 47.2022 22.7577 46.7508L21.0854 48.423ZM22.2456 40.3137L22.2538 40.3055C22.2515 40.3078 22.2479 40.3102 22.2456 40.3125V40.3137ZM5.54053 45.573V45.7066L5.61201 45.6422C5.89209 45.3902 6.12881 45.1828 6.3374 45.0094C6.78201 44.6492 7.08973 44.1475 7.20928 43.5879C7.76826 41.1586 7.97217 38.5559 8.16904 36.0387C8.20889 35.5266 8.24873 35.0156 8.29209 34.5082C8.29945 34.0577 8.43126 33.6181 8.67295 33.2379V21.4488H5.54053V45.573ZM53.0565 44.1246V14.6344C52.6522 14.5875 52.2667 14.5441 51.8964 14.5043L52.3499 15.1137C52.468 15.2726 52.5329 15.4649 52.5352 15.6629C52.5375 15.861 52.4772 16.0547 52.3628 16.2164L50.5862 18.7266C50.4718 18.8886 50.3091 19.0102 50.1213 19.074C49.9335 19.1378 49.7303 19.1404 49.5409 19.0816L47.3976 18.4125C47.2616 18.5039 47.121 18.5918 46.9769 18.6773L46.6522 20.898C46.6238 21.0943 46.5338 21.2766 46.3953 21.4185C46.2567 21.5604 46.0767 21.6547 45.8812 21.6879L42.8472 22.2035C42.7952 22.2119 42.7427 22.2162 42.6901 22.2164C42.5193 22.2162 42.3518 22.1694 42.2055 22.081C42.0593 21.9926 41.94 21.866 41.8604 21.7148L40.8163 19.7285C40.6546 19.6969 40.4929 19.6605 40.3323 19.6195L38.5347 20.9602C38.376 21.079 38.1838 21.1444 37.9856 21.1469C37.7874 21.1495 37.5935 21.089 37.4319 20.9742L34.9159 19.193C34.7544 19.0785 34.6333 18.9158 34.5699 18.7282C34.5066 18.5406 34.5042 18.3378 34.5632 18.1488L35.0261 16.6652C34.2439 17.0488 33.4819 17.4724 32.7433 17.9344V47.8395C39.921 44.3566 46.5913 43.1379 53.0565 44.1246ZM16.453 14.1961C15.7732 15.1909 14.9004 16.039 13.8864 16.6898C12.8724 17.3407 11.7379 17.7811 10.5503 17.9848V32.1047C10.6161 32.098 10.6822 32.0949 10.7483 32.0953C11.3996 32.0965 12.0238 32.3559 12.4842 32.8165C12.9446 33.2771 13.2037 33.9015 13.2046 34.5527V36.4781L19.9628 29.7164C20.4242 29.2574 21.0486 28.9997 21.6995 28.9997C22.3504 28.9997 22.9748 29.2574 23.4362 29.7164C23.8964 30.1777 24.1548 30.8027 24.1548 31.4543C24.1548 32.1059 23.8964 32.7309 23.4362 33.1922L22.0089 34.6207C22.175 34.723 22.3288 34.8441 22.4671 34.9816C22.6957 35.2092 22.877 35.4799 23.0003 35.778C23.1236 36.0761 23.1865 36.3957 23.1855 36.7184C23.1855 36.7605 23.1843 36.8027 23.1819 36.8449C23.7948 37.0135 24.3184 37.4133 24.6424 37.9602C24.9663 38.5072 25.0654 39.1585 24.9187 39.7769C25.2926 39.9305 25.6229 40.1741 25.8802 40.486C26.1374 40.7979 26.3137 41.1685 26.3934 41.5648C26.473 41.9612 26.4536 42.3711 26.3367 42.7582C26.2199 43.1452 26.0094 43.4975 25.7237 43.7836L24.2741 45.2332C26.5369 45.9271 28.7415 46.7985 30.8671 47.8395V17.9344C26.6308 15.2754 22.1448 14.1105 16.453 14.1961Z" fill="#FF845E"></path></svg>