<svg xmlns="http://www.w3.org/2000/svg" width="60" height="60" viewBox="0 0 60 60" fill="none"><path d="M36.9001 43.8375H23.1C20.3042 43.8425 17.624 44.9533 15.6444 46.9276C13.6648 48.9019 12.5468 51.5793 12.5344 54.375C12.5344 54.6237 12.6332 54.8621 12.809 55.0379C12.9848 55.2138 13.2233 55.3125 13.4719 55.3125H46.5657C46.8143 55.3125 47.0528 55.2138 47.2286 55.0379C47.4044 54.8621 47.5032 54.6237 47.5032 54.375C47.4908 51.5728 46.3676 48.8898 44.3799 46.9144C42.3923 44.939 39.7023 43.8325 36.9001 43.8375ZM25.0782 39.7594L25.725 42.4875H34.2751L34.9313 39.7594H26.9344H25.0782ZM21.6938 38.4375H38.3063C40.7355 38.4375 43.0652 37.4725 44.783 35.7548C46.5007 34.0371 47.4657 31.7074 47.4657 29.2782C47.4657 26.8489 46.5007 24.5192 44.783 22.8015C43.0652 21.0838 40.7355 20.1188 38.3063 20.1188H30.9375V15.4313C31.7475 15.213 32.4506 14.7079 32.9159 14.01C33.3812 13.312 33.5771 12.4687 33.467 11.6371C33.3569 10.8055 32.9484 10.0422 32.3176 9.48934C31.6867 8.93646 30.8764 8.63165 30.0376 8.63165C29.1987 8.63165 28.3884 8.93646 27.7575 9.48934C27.1267 10.0422 26.7182 10.8055 26.6081 11.6371C26.498 12.4687 26.6939 13.312 27.1592 14.01C27.6245 14.7079 28.3276 15.213 29.1375 15.4313V20.1188H21.7313C19.3021 20.1188 16.9724 21.0838 15.2546 22.8015C13.5369 24.5192 12.5719 26.8489 12.5719 29.2782C12.5719 31.7074 13.5369 34.0371 15.2546 35.7548C16.9724 37.4725 19.3021 38.4375 21.7313 38.4375H21.6938ZM22.2094 23.8407H37.7907C39.2328 23.8407 40.6158 24.4135 41.6356 25.4333C42.6553 26.453 43.2282 27.836 43.2282 29.2782C43.2282 30.7203 42.6553 32.1033 41.6356 33.123C40.6158 34.1428 39.2328 34.7157 37.7907 34.7157H22.2094C20.7673 34.7157 19.3843 34.1428 18.3645 33.123C17.3448 32.1033 16.7719 30.7203 16.7719 29.2782C16.7719 27.836 17.3448 26.453 18.3645 25.4333C19.3843 24.4135 20.7673 23.8407 22.2094 23.8407Z" fill="#FF845E"></path><path d="M22.2095 32.8875H37.7907C38.7223 32.8402 39.6001 32.4368 40.2427 31.7607C40.8853 31.0846 41.2436 30.1874 41.2436 29.2547C41.2436 28.3219 40.8853 27.4248 40.2427 26.7487C39.6001 26.0726 38.7223 25.6692 37.7907 25.6219H22.2095C21.2779 25.6692 20.4001 26.0726 19.7575 26.7487C19.1149 27.4248 18.7566 28.3219 18.7566 29.2547C18.7566 30.1874 19.1149 31.0846 19.7575 31.7607C20.4001 32.4368 21.2779 32.8402 22.2095 32.8875ZM35.8782 26.9906C36.3277 26.9888 36.7677 27.1205 37.1422 27.3691C37.5167 27.6176 37.809 27.9719 37.9819 28.3868C38.1547 28.8018 38.2004 29.2587 38.1132 29.6997C38.026 30.1406 37.8097 30.5457 37.4918 30.8636C37.174 31.1814 36.7689 31.3977 36.3279 31.485C35.8869 31.5722 35.43 31.5265 35.0151 31.3536C34.6001 31.1807 34.2459 30.8885 33.9973 30.514C33.7487 30.1394 33.617 29.6995 33.6189 29.25C33.6189 28.6508 33.8569 28.0761 34.2806 27.6524C34.7043 27.2287 35.279 26.9906 35.8782 26.9906ZM24.122 26.9906C24.5711 26.9906 25.0101 27.1239 25.3834 27.3736C25.7567 27.6233 26.0475 27.9782 26.2189 28.3933C26.3904 28.8084 26.4347 29.2651 26.3464 29.7054C26.2581 30.1458 26.0411 30.55 25.7229 30.8669C25.4047 31.1838 24.9995 31.3992 24.5588 31.4857C24.1181 31.5721 23.6616 31.5259 23.2473 31.3527C22.8329 31.1796 22.4792 30.8873 22.231 30.513C21.9829 30.1387 21.8514 29.6991 21.8532 29.25C21.8532 28.9525 21.912 28.6579 22.0261 28.3832C22.1402 28.1085 22.3075 27.859 22.5183 27.649C22.7291 27.4391 22.9793 27.2729 23.2545 27.1599C23.5297 27.0469 23.8245 26.9894 24.122 26.9906ZM41.7845 13.4906H43.5939C43.5914 12.1064 43.0404 10.7797 42.0617 9.80093C41.0829 8.82217 39.7562 8.27122 38.372 8.26874V10.0781C39.2763 10.0806 40.1428 10.4409 40.7823 11.0803C41.4217 11.7198 41.782 12.5863 41.7845 13.4906ZM38.5782 13.4906H40.3782C40.3782 12.9585 40.1669 12.4482 39.7906 12.072C39.4144 11.6957 38.9041 11.4844 38.372 11.4844V13.2937C38.4251 13.2937 38.4762 13.3141 38.5146 13.3508C38.553 13.3875 38.5758 13.4376 38.5782 13.4906Z" fill="#FF845E"></path><path d="M45.375 13.4906H47.1843C47.1794 11.1558 46.249 8.91814 44.5972 7.26804C42.9453 5.61794 40.7067 4.68998 38.3718 4.6875V6.49687C40.2268 6.49935 42.0052 7.23668 43.3177 8.54746C44.6303 9.85824 45.37 11.6357 45.375 13.4906Z" fill="#FF845E"></path></svg>