<svg xmlns="http://www.w3.org/2000/svg" width="60" height="60" viewBox="0 0 60 60" fill="none"><g clip-path="url(#clip0_1049_3792)"><path d="M30.6363 38.3506C28.2215 38.3506 26.271 40.3163 26.271 42.75C26.271 45.2773 28.2215 48.2726 30.6363 48.2726C33.0512 48.2726 35.0016 45.2773 35.0016 42.75C35.0016 40.3163 33.0512 38.3506 30.6363 38.3506ZM60.079 45.2773C59.9861 44.3412 59.5217 43.4052 58.6858 42.9372C57.3855 42.1883 56.0852 41.7203 54.8778 41.3459C54.5062 41.2523 54.0418 41.4395 53.8561 41.8139L51.5341 46.0261H50.7911L48.4691 41.8139C48.2833 41.4395 47.8189 41.2523 47.4474 41.3459C46.1471 41.7203 44.9397 42.1883 43.6394 42.9372C42.8035 43.4052 42.2462 44.3412 42.1533 45.2773L41.5032 53.3272C41.5032 53.608 41.596 53.7952 41.7818 54.076C41.9676 54.2632 42.2462 54.3568 42.432 54.3568H59.7075C59.9861 54.3568 60.1719 54.2632 60.3576 54.076C60.5434 53.8888 60.6363 53.608 60.6363 53.3272L60.079 45.2773Z" fill="#FF845E"></path><path d="M46.7044 36.2912C46.7044 38.8185 48.6549 41.8139 51.0698 41.8139C53.4846 41.8139 55.4351 38.8185 55.4351 36.2912C55.4351 33.8575 53.4846 31.8919 51.0698 31.8919C48.6549 31.7983 46.7044 33.8575 46.7044 36.2912ZM5.83765 36.2912C5.83765 38.8185 7.78811 41.8139 10.203 41.8139C12.6178 41.8139 14.5683 38.8185 14.5683 36.2912C14.5683 33.8575 12.6178 31.8919 10.203 31.8919C7.78811 31.8919 5.83765 33.8575 5.83765 36.2912Z" fill="#FF845E"></path><path d="M17.8189 43.0307C16.5186 42.2819 15.2182 41.8139 14.0108 41.4395C13.6393 41.3459 13.1749 41.5331 12.9891 41.9075L10.6672 46.1197H9.92414L7.60216 41.9075C7.4164 41.5331 6.95201 41.3459 6.58049 41.4395C5.28019 41.8139 4.07276 42.2819 2.77245 43.0307C1.93654 43.4988 1.37926 44.4348 1.28638 45.3708L0.63623 53.3272C0.63623 53.608 0.72911 53.7952 0.914868 54.076C1.10063 54.2632 1.37926 54.3568 1.56502 54.3568H18.8405C19.1192 54.3568 19.3049 54.2632 19.4907 54.076C19.6764 53.8888 19.7693 53.608 19.7693 53.3272L19.212 45.2772C19.212 44.3412 18.6548 43.4988 17.8189 43.0307ZM38.2523 49.4894C36.952 48.7406 35.6516 48.2726 34.4442 47.8981C34.0727 47.8045 33.6083 47.9917 33.4225 48.3662L31.1006 52.5783H30.3575L28.0356 48.3662C27.8498 47.9917 27.3854 47.8045 27.0139 47.8981C25.7136 48.2726 24.5062 48.7406 23.2058 49.4894C22.3699 49.9574 21.8127 50.8935 21.7198 51.8295L21.1625 59.8794C21.1625 60.1602 21.2554 60.3474 21.4411 60.6283C21.6269 60.8155 21.9055 60.9091 22.0913 60.9091H39.3668C39.6455 60.9091 39.8312 60.8155 40.017 60.6283C40.2027 60.441 40.2956 60.1602 40.2956 59.8794L39.7383 51.8295C39.6454 50.7999 39.0882 49.9574 38.2523 49.4894ZM9.27399 28.0541V30.0198C9.55262 29.9262 9.92414 29.9262 10.2028 29.9262C10.4814 29.9262 10.8529 29.9262 11.1316 30.0198V28.0541L15.1254 24.0292C15.4969 23.6548 15.4969 23.0931 15.1254 22.7187C14.7539 22.3443 14.1966 22.3443 13.8251 22.7187L11.1316 25.4332V16.8217H15.7755V18.0385C15.7755 18.5066 16.147 18.9746 16.7043 18.9746L18.7477 19.0682C19.0263 20.0978 19.3978 21.1275 19.9551 22.0635L18.5619 23.6548C18.1904 24.0292 18.2833 24.5908 18.5619 24.9652L21.6269 28.0541C21.9984 28.4286 22.5557 28.4286 22.9272 28.0541L24.4133 26.6501C25.3421 27.2117 26.3637 27.5861 27.3854 27.8669L27.4783 30.0198C27.4783 30.4878 27.9427 30.9559 28.4071 30.9559H29.7074V36.5721C29.986 36.5721 30.3575 36.4785 30.6362 36.4785C30.9148 36.4785 31.2863 36.4785 31.565 36.5721V30.9559H32.7724C33.2368 30.9559 33.7012 30.5814 33.7012 30.0198L33.7941 27.8669C34.8157 27.5861 35.8374 27.2117 36.7662 26.6501L38.3451 28.0541C38.7167 28.4286 39.2739 28.4286 39.6454 28.0541L42.7105 24.9652C43.082 24.5908 43.082 24.0292 42.7105 23.6548L41.3173 22.1571C41.8745 21.2211 42.2461 20.1914 42.5247 19.1618L44.568 19.0682C45.0324 19.0682 45.4968 18.6002 45.4968 18.1321V16.8217H50.1408V25.4332L47.4473 22.7187C47.0758 22.3443 46.5185 22.3443 46.147 22.7187C45.7755 23.0931 45.7755 23.6548 46.147 24.0292L50.1408 28.0541V30.0198C50.4194 29.9262 50.7909 29.9262 51.0696 29.9262C51.3482 29.9262 51.7197 29.9262 51.9984 30.0198V28.0541L55.9922 24.0292C56.3637 23.6548 56.3637 23.0931 55.9922 22.7187C55.6207 22.3443 55.0634 22.3443 54.6919 22.7187L51.9984 25.4332V15.8857C51.9984 15.324 51.6269 14.9496 51.0696 14.9496H45.4968V13.7328C45.4968 13.2648 45.1253 12.7967 44.568 12.7967L42.5247 12.7031C42.2461 11.6735 41.7817 10.6438 41.3173 9.70781L42.7105 8.11655C43.082 7.74213 42.9891 7.18051 42.7105 6.80609L39.6454 3.71717C39.2739 3.34276 38.7167 3.34276 38.3451 3.71717L36.7662 5.12123C35.8374 4.5596 34.8157 4.18519 33.7941 3.90438L33.7012 1.8451C33.7012 1.37708 33.2368 0.909058 32.7724 0.909058H28.4071C27.9427 0.909058 27.4783 1.28347 27.4783 1.8451L27.3854 3.90438C26.3637 4.18519 25.3421 4.65321 24.4133 5.12123L22.9272 3.71717C22.5557 3.34276 21.9984 3.43636 21.6269 3.71717L18.5619 6.80609C18.1904 7.18051 18.1904 7.74213 18.5619 8.11655L19.9551 9.70781C19.3978 10.6438 19.0263 11.6735 18.7477 12.7031L16.7043 12.7967C16.2399 12.7967 15.7755 13.2648 15.7755 13.7328V14.9496H10.2028C9.6455 14.9496 9.27399 15.324 9.27399 15.8857V25.4332L6.58049 22.7187C6.20898 22.3443 5.6517 22.3443 5.28019 22.7187C4.90867 23.0931 4.90867 23.6548 5.28019 24.0292L9.27399 28.0541ZM30.6362 10.363C33.7012 10.363 36.116 12.8903 36.116 15.8857C36.116 18.9746 33.6083 21.4083 30.6362 21.4083C27.5712 21.4083 25.1563 18.881 25.1563 15.8857C25.1563 12.8903 27.5712 10.363 30.6362 10.363Z" fill="#FF845E"></path></g><defs><clipPath id="clip0_1049_3792"><rect width="60" height="60" fill="white"></rect></clipPath></defs></svg>