<svg xmlns="http://www.w3.org/2000/svg" width="60" height="60" viewBox="0 0 60 60" fill="none"><g clip-path="url(#clip0_1049_3797)"><path d="M58.6102 10.089L57.9932 9.77318C58.102 9.24798 58.1453 8.71132 58.1221 8.17546L58.7816 7.96253C59.7055 7.66429 60.2127 6.6736 59.9145 5.74982C59.6162 4.82592 58.6252 4.31897 57.7017 4.61697L57.0421 4.8299C56.7477 4.38155 56.3988 3.97147 56.0033 3.60905L56.3193 2.99206C56.7617 2.12793 56.4197 1.0688 55.5556 0.626301C54.6914 0.183804 53.6323 0.525755 53.1898 1.39001L52.8729 2.00899C52.3483 1.90151 51.8125 1.85893 51.2774 1.88219L51.0632 1.21856C50.7651 0.294663 49.7743 -0.212521 48.8505 0.0857192C47.9266 0.383959 47.4195 1.37465 47.7177 2.29844L47.9319 2.96195C47.4842 3.25591 47.0744 3.60379 46.7116 3.99776L46.0926 3.68089C45.2285 3.23862 44.1694 3.58034 43.7269 4.44459C43.2845 5.30873 43.6265 6.36786 44.4906 6.81035L45.1076 7.12617C44.9988 7.65138 44.9555 8.18804 44.9788 8.72389L44.3191 8.93682C43.3954 9.23494 42.8882 10.2258 43.1863 11.1495C43.4266 11.894 44.1165 12.3678 44.8587 12.3678C45.0376 12.3678 45.2196 12.3403 45.399 12.2824L46.0585 12.0695C46.353 12.5178 46.7018 12.9279 47.0972 13.2903L46.7812 13.9074C46.3389 14.7715 46.6808 15.8307 47.5449 16.2731C47.7923 16.4002 48.0664 16.4665 48.3445 16.4665C48.9833 16.4665 49.5996 16.1171 49.9106 15.5094L50.2268 14.8917C50.6596 14.9823 51.1006 15.0284 51.5429 15.0294C51.6367 15.0294 51.7306 15.0269 51.8245 15.0228L52.0369 15.6809C52.2773 16.4254 52.9672 16.8992 53.7093 16.8992C53.8882 16.8992 54.0702 16.8716 54.2496 16.8138C55.1735 16.5155 55.6806 15.5248 55.3825 14.6009L55.1696 13.9414C55.6179 13.647 56.028 13.2981 56.3904 12.9028L57.0075 13.2187C57.2549 13.3459 57.529 13.4122 57.8071 13.4122C58.4459 13.4122 59.0622 13.0627 59.3732 12.455C59.8162 11.5905 59.4743 10.5314 58.6102 10.089ZM48.826 7.05469C49.3672 5.99767 50.4424 5.38912 51.5555 5.38912C52.0244 5.38912 52.5001 5.49716 52.9454 5.72509C54.4476 6.49419 55.0441 8.3421 54.275 9.84431C53.5059 11.3465 51.6582 11.9432 50.1557 11.1739C48.6534 10.4049 48.0569 8.55702 48.826 7.05469ZM28.7211 34.0432C28.7211 32.519 27.4811 31.279 25.9569 31.279C24.4328 31.279 23.1926 32.5191 23.1926 34.0432C23.1926 35.5674 24.4327 36.8075 25.9569 36.8075C27.4812 36.8075 28.7211 35.5675 28.7211 34.0432Z" fill="#FF845E"></path><path d="M25.957 23.8237C20.322 23.8237 15.7375 28.4082 15.7375 34.0432C15.7375 36.6995 16.7566 39.1222 18.4238 40.9414C19.1662 39.8393 20.141 38.9131 21.2795 38.228C20.2839 37.1163 19.677 35.6495 19.677 34.0433C19.677 30.5806 22.4942 27.7635 25.9569 27.7635C29.4197 27.7635 32.2367 30.5807 32.2367 34.0433C32.2367 35.6514 31.6285 37.1197 30.6309 38.2318C30.8931 38.3898 31.1473 38.5607 31.3925 38.7438C32.2084 39.3553 32.9159 40.1053 33.4855 40.9464C35.1554 39.1267 36.1763 36.7021 36.1763 34.0433C36.1765 28.4082 31.5921 23.8237 25.957 23.8237Z" fill="#FF845E"></path><path d="M25.9568 40.4452C24.0069 40.4452 22.2266 41.462 21.217 43.0947C22.6345 43.84 24.2472 44.2626 25.9568 44.2626C27.6653 44.2626 29.2767 43.8406 30.6936 43.0962C29.6883 41.4878 27.895 40.4452 25.9568 40.4452Z" fill="#FF845E"></path><path d="M47.8786 28.8002C46.7767 28.507 45.9834 27.7874 45.5844 26.7194C45.411 26.2552 45.2211 25.7973 45.0151 25.3465C44.5405 24.3085 44.5923 23.2377 45.1649 22.2501C46.3982 20.1231 46.0471 17.425 44.3111 15.6891C42.5751 13.953 39.877 13.6019 37.7499 14.8353C36.7624 15.4078 35.6918 15.4596 34.6536 14.9851C34.2029 14.7792 33.745 14.5894 33.2809 14.416C32.2127 14.0172 31.4932 13.2238 31.1999 12.1217C30.5678 9.74585 28.4118 8.08649 25.9568 8.08649C23.5019 8.08649 21.3458 9.74585 20.7138 12.1217C20.4206 13.2237 19.7009 14.0169 18.6329 14.4159C18.1687 14.5893 17.7108 14.7791 17.2601 14.985C16.2221 15.4596 15.1514 15.4078 14.1638 14.8351C12.0367 13.6018 9.3386 13.953 7.6026 15.6891C5.48761 17.8039 5.48761 21.2453 7.6026 23.3601L7.81424 23.5718C6.89633 25.1541 6.19253 26.8513 5.72128 28.6189H5.42433C2.43338 28.6189 0 31.0521 0 34.0432C0 36.4981 1.65936 38.6541 4.03509 39.2862C5.13699 39.5794 5.93034 40.2991 6.32925 41.3671C6.50273 41.8313 6.69262 42.2892 6.89854 42.74C7.37315 43.778 7.32135 44.8487 6.74878 45.8363C5.5155 47.9633 5.86659 50.6613 7.60271 52.3973C9.33872 54.1333 12.0369 54.4845 14.1639 53.2511C15.1515 52.6784 16.2221 52.6266 17.2603 53.1013C17.711 53.3072 18.1689 53.497 18.633 53.6704C19.7012 54.0692 20.4207 54.8626 20.7139 55.9646C21.346 58.3404 23.502 59.9999 25.9569 59.9999C28.4119 59.9999 30.568 58.3405 31.2 55.9647C31.4932 54.8627 32.2128 54.0693 33.2811 53.6704C33.744 53.4975 34.2059 53.306 34.6536 53.1013C35.6916 52.6269 36.7624 52.6786 37.7499 53.2511C39.8771 54.4843 42.5749 54.1333 44.3109 52.3973C46.0471 50.6614 46.3983 47.9633 45.1649 45.8363C44.5923 44.8486 44.5405 43.7779 45.0151 42.7398C45.2211 42.2891 45.411 41.8312 45.5844 41.3669C45.9833 40.2989 46.7765 39.5793 47.8785 39.2861C50.2543 38.654 51.9137 36.498 51.9137 34.0433C51.9137 31.5883 50.2543 29.4323 47.8786 28.8002ZM34.3752 44.8883C34.1543 45.1914 33.8417 45.4154 33.4837 45.527L33.4818 45.5275C31.3191 46.9494 28.7331 47.7782 25.9569 47.7782C18.3834 47.7782 12.2219 41.6166 12.2219 34.0431C12.2219 26.4695 18.3834 20.308 25.9569 20.308C33.5305 20.308 39.692 26.4695 39.692 34.0431C39.692 38.4471 37.6081 42.3732 34.3752 44.8883Z" fill="#FF845E"></path></g><defs><clipPath id="clip0_1049_3797"><rect width="60" height="60" fill="white"></rect></clipPath></defs></svg>