<svg xmlns="http://www.w3.org/2000/svg" width="62" height="62" viewBox="0 0 62 62" fill="none"><rect x="1.5" y="1.5" width="59" height="59" rx="29.5" fill="white"></rect><rect x="1.5" y="1.5" width="59" height="59" rx="29.5" stroke="#FF845E" stroke-width="3"></rect><g clip-path="url(#clip0_985_755)"><path d="M43 32.7863C43 34.0486 41.9766 35.072 40.7143 35.072C39.452 35.072 38.4286 34.0486 38.4286 32.7863C38.4286 31.524 39.452 30.5006 40.7143 30.5006C41.9766 30.5006 43 31.524 43 32.7863ZM23.5714 32.7863C23.5714 34.0486 22.548 35.072 21.2857 35.072C20.0234 35.072 19 34.0486 19 32.7863C19 31.524 20.0234 30.5006 21.2857 30.5006C22.548 30.5006 23.5714 31.524 23.5714 32.7863ZM33.2857 30.5006C33.2857 31.7628 32.2623 32.7863 31 32.7863C29.7377 32.7863 28.7143 31.7628 28.7143 30.5006C28.7143 29.2383 29.7377 28.2148 31 28.2148C32.2623 28.2148 33.2857 29.2383 33.2857 30.5006ZM24.1588 45.9291C23.7791 45.4382 23.5725 44.8355 23.5714 44.2148V38.5006C23.574 37.9224 23.6741 37.3487 23.8675 36.8038C23.7693 36.7971 23.6719 36.7863 23.5714 36.7863H19C18.1976 36.784 17.4135 37.0259 16.7519 37.4798C16.2128 37.8467 15.7713 38.3396 15.466 38.9158C15.1607 39.4921 15.0007 40.1342 15 40.7863V43.072C15.001 43.618 15.1582 44.1523 15.4529 44.6118C15.7477 45.0714 16.1678 45.4371 16.6636 45.6657C16.8618 45.7595 17.0707 45.8288 17.2857 45.872V39.6434H18.4286V45.9291H24.1588ZM24.7319 46.5006C24.7257 46.4961 24.7207 46.4902 24.7143 46.4858V46.5006H24.7319ZM36.8167 36.6222C36.5103 36.0502 36.0709 35.5602 35.5354 35.1936C35.4823 35.1542 35.4266 35.1185 35.3686 35.0868C34.7415 34.7034 34.0207 34.5006 33.2857 34.5006H28.7143C26.505 34.5006 24.7143 36.2913 24.7143 38.5006V44.2148C24.7143 45.1616 25.4819 45.9291 26.4286 45.9291H27V37.9291H28.1429V45.9291H33.8571V37.9291H35V45.9291H35.5714C36.5181 45.9291 37.2857 45.1616 37.2857 44.2148V38.5006C37.2859 37.8454 37.1248 37.2003 36.8167 36.6222ZM45.2497 37.4811C44.5877 37.0264 43.8031 36.7841 43 36.7863H38.4286C38.3287 36.7863 38.2313 36.7971 38.1331 36.8038C38.3261 37.3488 38.426 37.9224 38.4286 38.5006V44.2148C38.4275 44.8355 38.2209 45.4382 37.8412 45.9291H43.5714V39.6434H44.7143V45.872C44.926 45.8296 45.1317 45.7612 45.3267 45.6686C45.8248 45.4412 46.2473 45.0757 46.5439 44.6155C46.8405 44.1552 46.9988 43.6195 47 43.072V40.7863C46.9993 40.1345 46.8395 39.4927 46.5345 38.9168C46.2295 38.3408 45.7884 37.8479 45.2497 37.4811Z" fill="#FF845E"></path><path d="M31.0015 22.5C29.8516 22.4978 28.7198 22.7853 27.7104 23.336C26.701 23.8867 25.8467 24.6828 25.2263 25.6509C24.6058 26.619 24.2393 27.7278 24.1606 28.8749C24.0819 30.0221 24.2934 31.1705 24.7757 32.2143H28.0369C27.1998 30.7734 27.5199 28.9397 28.7952 27.8675C30.0707 26.7955 31.9322 26.7955 33.2077 27.8675C34.483 28.9397 34.8031 30.7734 33.966 32.2143H37.23C37.7125 31.1703 37.924 30.0216 37.8452 28.8742C37.7663 27.7268 37.3996 26.6178 36.7788 25.6496C36.1581 24.6814 35.3033 23.8853 34.2935 23.3348C33.2838 22.7843 32.1515 22.4972 31.0015 22.5Z" fill="#FF845E"></path><path d="M44.7148 27.0703H41.6291L41.5181 26.6412C41.2657 25.6593 40.8732 24.719 40.3527 23.849L40.1239 23.4668L42.3147 21.272C42.3676 21.2194 42.4095 21.1569 42.4381 21.088C42.4668 21.0191 42.4815 20.9453 42.4815 20.8707C42.4815 20.7961 42.4668 20.7222 42.4381 20.6534C42.4095 20.5845 42.3676 20.5219 42.3147 20.4693L39.8881 18.0419C39.7803 17.939 39.637 17.8816 39.488 17.8816C39.339 17.8816 39.1957 17.939 39.0879 18.0419L36.8931 20.2366L36.5109 20.008C35.6398 19.4872 34.6984 19.0945 33.7154 18.8418L33.2863 18.7302V15.6417C33.2863 15.4902 33.2261 15.3448 33.1189 15.2377C33.0117 15.1305 32.8664 15.0703 32.7148 15.0703H29.2863C29.1347 15.0703 28.9894 15.1305 28.8822 15.2377C28.775 15.3448 28.7148 15.4902 28.7148 15.6417V18.7275L28.2857 18.8385C27.3038 19.091 26.3633 19.4833 25.4931 20.0034L25.1108 20.2322L22.9166 18.0419C22.8087 17.9382 22.6648 17.8803 22.5152 17.8803C22.3656 17.8803 22.2217 17.9382 22.1138 18.0419L19.6864 20.4685C19.6335 20.5211 19.5915 20.5838 19.5628 20.6527C19.5341 20.7216 19.5193 20.7956 19.5193 20.8702C19.5193 21.0212 19.5795 21.1657 19.6864 21.272L21.8811 23.4668L21.6526 23.849C21.1319 24.7189 20.7393 25.6593 20.4868 26.6412L20.3747 27.0703H17.2863C17.1347 27.0703 16.9894 27.1305 16.8822 27.2377C16.775 27.3448 16.7148 27.4902 16.7148 27.6417V31.0703C16.7148 31.2219 16.775 31.3672 16.8822 31.4744C16.9894 31.5815 17.1347 31.6417 17.2863 31.6417H18.0594C18.227 31.1649 18.4982 30.7312 18.8535 30.3718C19.2087 30.0123 19.6393 29.7361 20.1141 29.563C20.5889 29.3898 21.0962 29.3241 21.5995 29.3705C22.1027 29.4169 22.5895 29.5743 23.0246 29.8315C23.0153 29.6732 23.0006 29.5165 23.0006 29.356C23.0006 24.9378 26.5823 21.356 31.0006 21.356C35.4188 21.356 39.0006 24.9378 39.0006 29.356C39.0006 29.5165 38.9858 29.6732 38.9766 29.8315C39.4117 29.5743 39.8984 29.4169 40.4016 29.3705C40.9049 29.3241 41.4122 29.3898 41.887 29.563C42.3618 29.7361 42.7924 30.0123 43.1477 30.3718C43.503 30.7312 43.7741 31.1649 43.9417 31.6417H44.7148C44.8664 31.6417 45.0117 31.5815 45.1189 31.4744C45.2261 31.3672 45.2863 31.2219 45.2863 31.0703V27.6417C45.2863 27.4902 45.2261 27.3448 45.1189 27.2377C45.0117 27.1305 44.8664 27.0703 44.7148 27.0703Z" fill="#FF845E"></path></g><defs><clipPath id="clip0_985_755"><rect width="32" height="32" fill="white" transform="translate(15 15)"></rect></clipPath></defs></svg>