<svg xmlns="http://www.w3.org/2000/svg" width="36" height="36" viewBox="0 0 36 36" fill="none"><path d="M28.6563 19.0159C29.0725 19.0159 29.4667 18.8784 29.8202 18.6365C29.7878 18.6408 29.7558 18.6455 29.7226 18.6455H29.2381C29.0395 18.6453 28.849 18.5663 28.7086 18.4258C28.5681 18.2854 28.4891 18.0949 28.4889 17.8963C28.4889 17.4837 28.8252 17.1479 29.2381 17.1479H29.7226C29.8864 17.1479 30.0423 17.2011 30.1701 17.2965C30.4851 17.2523 30.7785 17.163 31.0212 17.0417C31.032 17.0136 31.0438 16.9866 31.055 16.9581V15.7701C31.055 15.4865 31.1734 15.2244 31.3758 15.0397C31.2906 14.3787 30.9674 13.7714 30.4668 13.3315C29.9662 12.8916 29.3224 12.6492 28.656 12.6497C27.9896 12.6493 27.3459 12.8918 26.8454 13.3317C26.3449 13.7716 26.0218 14.3788 25.9365 15.0397C26.1388 15.2244 26.2573 15.4865 26.2573 15.7701V16.9592C26.7282 18.1857 27.6249 19.0159 28.6563 19.0159Z" fill="#FF845E"></path><path d="M31.0499 18.657L31.0308 18.6545C30.9797 18.6478 30.9285 18.642 30.8771 18.6372C30.8771 18.6426 30.8753 18.6476 30.8753 18.6527C30.8742 18.6678 30.8717 18.6825 30.8699 18.698C30.8598 18.7847 30.8343 18.869 30.7947 18.9468C30.5261 19.6236 29.656 20.9055 29.1437 21.6342L29.0386 20.1215C29.1903 20.042 29.3155 19.92 29.399 19.7705C29.4595 19.6674 29.4926 19.5505 29.4951 19.431C29.4951 19.431 29.1124 19.6005 28.7225 19.6005C28.7002 19.6005 28.6782 19.6002 28.6556 19.5991C28.6333 19.6001 28.6109 19.6006 28.5886 19.6005C28.1987 19.6005 27.8164 19.431 27.8164 19.431C27.8164 19.5491 27.8531 19.6643 27.9122 19.7705C27.9946 19.9177 28.1231 20.0444 28.2729 20.1215L28.167 21.6342C27.6551 20.9059 26.7854 19.6236 26.5164 18.9468C26.4768 18.869 26.4514 18.7847 26.4416 18.698C26.4398 18.6825 26.4369 18.6678 26.4358 18.6527C26.4358 18.6476 26.434 18.6426 26.434 18.6372C26.3822 18.6422 26.3314 18.6476 26.2803 18.6545L26.2608 18.657C25.6167 18.7469 25.0084 19.0078 24.4994 19.4126C25.556 20.4689 26.205 21.924 26.205 23.5037C26.205 23.7906 26.1813 24.0519 26.141 24.2939C26.3454 24.2964 26.5553 24.2964 26.7702 24.2964H30.5387C32.5594 24.2964 34.1981 24.3014 34.1981 22.2804C34.1999 20.4329 32.8298 18.9047 31.0499 18.657ZM25.2338 17.5975H25.2647C25.601 17.5975 25.8735 17.3246 25.8735 16.9877V15.7709C25.8735 15.5318 25.7352 15.3255 25.5347 15.2262C25.6215 13.5792 26.9884 12.2666 28.6563 12.2666C30.3242 12.2666 31.6914 13.5792 31.7778 15.2262C31.5773 15.3255 31.4394 15.5318 31.4394 15.7709V16.9877C31.4394 17.0687 31.4553 17.1439 31.483 17.2141C31.1284 17.4679 30.6114 17.649 30.0297 17.699C29.9964 17.648 29.9509 17.606 29.8974 17.5769C29.8439 17.5478 29.7839 17.5325 29.723 17.5323H29.2384C29.1416 17.5323 29.0487 17.5708 28.9803 17.6392C28.9118 17.7077 28.8734 17.8006 28.8734 17.8974C28.8734 17.9942 28.9118 18.087 28.9803 18.1555C29.0487 18.224 29.1416 18.2624 29.2384 18.2624H29.723C29.8644 18.2624 29.985 18.1818 30.0452 18.0651C30.7209 18.0119 31.3084 17.8059 31.7206 17.501C31.8153 17.5622 31.9272 17.5982 32.0482 17.5982H32.0788C32.1588 17.5982 32.2381 17.5824 32.312 17.5518C32.3859 17.5211 32.453 17.4762 32.5095 17.4195C32.566 17.3629 32.6108 17.2956 32.6413 17.2216C32.6718 17.1477 32.6874 17.0684 32.6872 16.9884V15.7716C32.6872 15.5297 32.545 15.3198 32.3405 15.2233C32.2509 13.2685 30.633 11.7047 28.6563 11.7047C26.6799 11.7047 25.0617 13.2685 24.9731 15.2233C24.7679 15.3198 24.625 15.5297 24.625 15.7716V16.9884C24.625 17.1499 24.6891 17.3047 24.8033 17.419C24.9174 17.5332 25.0723 17.5974 25.2338 17.5975ZM9.74261 17.0258L9.74225 16.9873V16.9585C9.73145 16.9869 9.71957 17.0139 9.70805 17.042C9.71957 17.0363 9.73217 17.0316 9.74261 17.0258ZM7.34321 19.0159C7.75901 19.0159 8.15321 18.8784 8.50673 18.6365C8.47469 18.6408 8.44265 18.6455 8.40917 18.6455H7.92497C7.72634 18.6453 7.53589 18.5663 7.39544 18.4258C7.25499 18.2854 7.176 18.0949 7.17581 17.8963C7.17581 17.4837 7.51205 17.1479 7.92497 17.1479H8.40917C8.57333 17.1479 8.72921 17.2011 8.85701 17.2965C9.17165 17.2523 9.46505 17.163 9.70769 17.0417C9.71885 17.0136 9.73073 16.9866 9.74189 16.9581V15.7701C9.74189 15.4865 9.86033 15.2244 10.0623 15.0397C9.88949 13.6839 8.73245 12.6497 7.34285 12.6497C5.95325 12.6497 4.79657 13.6836 4.62305 15.0397C4.82573 15.2244 4.94381 15.4865 4.94381 15.7701V16.9592C5.41541 18.1857 6.31217 19.0159 7.34321 19.0159Z" fill="#FF845E"></path><path d="M11.4992 19.413C10.99 19.0079 10.3814 18.7468 9.73697 18.657L9.71753 18.6545C9.6664 18.6478 9.61515 18.642 9.56381 18.6372C9.56381 18.6426 9.56237 18.6476 9.56237 18.6527C9.56129 18.6678 9.55841 18.6825 9.55661 18.698C9.54663 18.7847 9.52127 18.869 9.48173 18.9468C9.21317 19.6236 8.34305 20.9055 7.83077 21.6342L7.72565 20.1215C7.8773 20.042 8.00243 19.92 8.08565 19.7705C8.14636 19.6674 8.17947 19.5505 8.18177 19.431C8.18177 19.431 7.79945 19.6005 7.40957 19.6005C7.38725 19.6005 7.36493 19.6002 7.34261 19.5991C7.3203 19.6001 7.29798 19.6006 7.27565 19.6005C6.88577 19.6005 6.50309 19.431 6.50309 19.431C6.50309 19.5491 6.53981 19.6643 6.59885 19.7705C6.68129 19.9177 6.81017 20.0444 6.95993 20.1215L6.85409 21.6342C6.34181 20.9059 5.47205 19.6236 5.20313 18.9468C5.16359 18.869 5.13835 18.7847 5.12861 18.698C5.12645 18.6825 5.12357 18.6678 5.12285 18.6527C5.12249 18.6476 5.12105 18.6426 5.12105 18.6372C5.06921 18.6422 5.01845 18.6476 4.96697 18.6545L4.94789 18.657C3.16985 18.9047 1.80005 20.4329 1.80005 22.2807C1.80005 24.3014 3.43805 24.2967 5.45909 24.2967H9.22757C9.44249 24.2967 9.65273 24.2967 9.85721 24.2942C9.81388 24.0331 9.79233 23.7687 9.79277 23.504C9.79313 21.924 10.4426 20.4689 11.4992 19.413ZM3.92117 17.5975H3.95177C4.28801 17.5975 4.56053 17.3246 4.56053 16.9877V15.7709C4.56053 15.5318 4.42265 15.3255 4.22177 15.2262C4.30853 13.5792 5.67581 12.2666 7.34369 12.2666C9.01157 12.2666 10.3785 13.5792 10.4652 15.2262C10.2644 15.3255 10.1268 15.5318 10.1268 15.7709V16.9877C10.1268 17.0687 10.1427 17.1439 10.17 17.2141C9.81545 17.4679 9.29849 17.649 8.71673 17.699C8.68345 17.648 8.63799 17.606 8.58444 17.5769C8.5309 17.5478 8.47095 17.5325 8.41001 17.5323H7.92581C7.82899 17.5323 7.73614 17.5708 7.66769 17.6392C7.59923 17.7077 7.56077 17.8006 7.56077 17.8974C7.56077 17.9942 7.59923 18.087 7.66769 18.1555C7.73614 18.224 7.82899 18.2624 7.92581 18.2624H8.41001C8.55185 18.2624 8.67209 18.1818 8.73257 18.0651C9.40793 18.0119 9.99545 17.8059 10.4076 17.501C10.5023 17.5622 10.6143 17.5982 10.7356 17.5982H10.7658C10.8459 17.5983 10.9252 17.5825 10.9991 17.5519C11.0731 17.5212 11.1402 17.4763 11.1968 17.4196C11.2533 17.363 11.2982 17.2957 11.3287 17.2217C11.3592 17.1477 11.3748 17.0684 11.3746 16.9884V15.7716C11.3746 15.5297 11.2324 15.3198 11.0276 15.2233C10.9383 13.2685 9.32009 11.7047 7.34369 11.7047C5.36693 11.7047 3.74873 13.2685 3.66017 15.2233C3.55607 15.2719 3.468 15.3492 3.40634 15.4461C3.34467 15.5431 3.31196 15.6556 3.31205 15.7705V16.9873C3.31205 17.3246 3.58493 17.5975 3.92117 17.5975ZM21.0849 16.7475L21.0842 16.6979V16.6608C21.0701 16.6971 21.055 16.7321 21.0406 16.7681C21.055 16.7612 21.0712 16.7547 21.0849 16.7475Z" fill="#FF845E"></path><path d="M17.9997 19.3064C18.5347 19.3064 19.0416 19.1293 19.4963 18.8186C19.4549 18.824 19.4138 18.8309 19.371 18.8309H18.7485C18.4931 18.8305 18.2482 18.7288 18.0676 18.5481C17.887 18.3675 17.7855 18.1226 17.7852 17.8671C17.7852 17.3361 18.2172 16.9049 18.7485 16.9049H19.371C19.5816 16.9049 19.7821 16.9733 19.9466 17.096C20.3516 17.0395 20.7289 16.9243 21.0407 16.7684C21.0551 16.7324 21.0702 16.6975 21.0842 16.6611V15.1333C21.0837 14.9567 21.1201 14.7819 21.191 14.6201C21.262 14.4584 21.366 14.3132 21.4964 14.1941C21.3868 13.3443 20.9714 12.5636 20.3278 11.998C19.6842 11.4323 18.8565 11.1206 17.9997 11.1211C17.143 11.1206 16.3154 11.4324 15.6719 11.998C15.0283 12.5636 14.6129 13.3443 14.5034 14.1941C14.6339 14.3132 14.738 14.4583 14.8091 14.62C14.8801 14.7818 14.9165 14.9566 14.916 15.1333V16.6622C15.5208 18.239 16.6742 19.3064 17.9997 19.3064Z" fill="#FF845E"></path><path d="M21.0776 18.8449C21.07 18.8438 21.061 18.8435 21.0531 18.8417C20.9873 18.8333 20.9215 18.8258 20.8555 18.8193C20.8555 18.8262 20.8533 18.8327 20.8533 18.8391C20.8519 18.8593 20.8483 18.8777 20.8461 18.8975C20.8331 19.009 20.8005 19.1174 20.7496 19.2175C20.404 20.088 19.2855 21.7364 18.6271 22.6731L18.4917 20.7281C18.6867 20.6259 18.8476 20.4691 18.955 20.277C19.0317 20.1409 19.0785 19.9922 19.0785 19.8403C19.0785 19.8403 18.5871 20.0577 18.0853 20.0577C18.0567 20.0579 18.0281 20.0573 17.9996 20.0559C17.9711 20.0573 17.9425 20.0579 17.9139 20.0577C17.4124 20.0577 16.921 19.8403 16.921 19.8403C16.921 19.9922 16.9682 20.1409 17.0442 20.277C17.1504 20.466 17.316 20.6294 17.5082 20.7281L17.3721 22.6731C16.7137 21.7364 15.5952 20.088 15.2496 19.2175C15.1986 19.1174 15.1659 19.009 15.1531 18.8975C15.1506 18.8777 15.147 18.8593 15.1459 18.8391C15.1455 18.8327 15.1434 18.8262 15.1434 18.8193C15.0771 18.8258 15.0116 18.833 14.9457 18.8417C14.9374 18.8435 14.9288 18.8438 14.9212 18.8449C12.6334 19.1631 10.8723 21.128 10.8723 23.5037C10.8723 26.1018 12.9783 26.0953 15.5764 26.0953H20.4213C23.0198 26.0953 25.1262 26.1018 25.1262 23.5037C25.1272 21.1277 23.3658 19.1628 21.0776 18.8449ZM13.5993 17.4827H13.6389C14.0709 17.4827 14.4219 17.1317 14.4219 16.6982V15.1337C14.4219 14.8262 14.2444 14.5616 13.986 14.4331C14.0979 12.3156 15.8551 10.6279 17.9992 10.6279C20.1434 10.6279 21.9013 12.3156 22.0125 14.4331C21.8818 14.4976 21.7718 14.5975 21.6949 14.7213C21.618 14.8451 21.5772 14.9879 21.5773 15.1337V16.6982C21.5773 16.8026 21.5978 16.8987 21.6331 16.9895C21.1766 17.3156 20.5124 17.5485 19.7647 17.6126C19.7219 17.547 19.6634 17.4931 19.5946 17.4557C19.5258 17.4183 19.4488 17.3986 19.3705 17.3984H18.748C18.6853 17.3967 18.6229 17.4075 18.5644 17.4303C18.506 17.4531 18.4527 17.4874 18.4077 17.5312C18.3627 17.5749 18.327 17.6272 18.3026 17.685C18.2782 17.7428 18.2656 17.8049 18.2656 17.8677C18.2656 17.9304 18.2782 17.9925 18.3026 18.0503C18.327 18.1081 18.3627 18.1604 18.4077 18.2042C18.4527 18.2479 18.506 18.2822 18.5644 18.305C18.6229 18.3278 18.6853 18.3387 18.748 18.3369H19.3705C19.5523 18.3369 19.7071 18.2336 19.7845 18.0831C20.6532 18.0147 21.4084 17.7498 21.9384 17.3577C22.06 17.4366 22.204 17.4827 22.3599 17.4827H22.3988C22.5017 17.4826 22.6036 17.4623 22.6987 17.4228C22.7938 17.3834 22.8801 17.3256 22.9529 17.2527C23.0256 17.1799 23.0832 17.0934 23.1225 16.9983C23.1618 16.9031 23.1819 16.8012 23.1818 16.6982V15.1337C23.1818 14.8223 22.9989 14.553 22.7358 14.4284C22.6209 11.9153 20.5401 9.90466 17.9989 9.90466C15.4576 9.90466 13.3772 11.9153 13.2631 14.4284C13.1295 14.4916 13.0166 14.5914 12.9375 14.7163C12.8584 14.8411 12.8164 14.9859 12.8163 15.1337V16.6982C12.8164 16.906 12.8989 17.1052 13.0457 17.2523C13.1924 17.3993 13.3915 17.4822 13.5993 17.4827Z" fill="#FF845E"></path></svg>