<svg xmlns="http://www.w3.org/2000/svg" width="60" height="60" viewBox="0 0 60 60" fill="none"><path d="M50.8415 12.9216C50.4046 13.2666 49.9678 13.6069 49.5365 13.9406L49.3256 14.1047C51.0626 15.4345 52.6078 16.9977 53.9175 18.75H44.0896C43.5824 19.3335 43.1281 19.961 42.7322 20.625H55.0312C55.7303 22.0948 56.1351 23.6872 56.2228 25.3125H41.2884C41.2659 25.6181 41.25 25.9275 41.25 26.25C41.25 26.5725 41.2631 26.8828 41.2837 27.1875H56.2181C56.126 28.8133 55.7177 30.4055 55.0162 31.875H42.7162C43.1137 32.5394 43.5699 33.1669 44.0793 33.75H53.9231C52.8061 35.2716 51.4954 36.641 50.024 37.8234L51.2315 39.2578C54.6384 36.3881 58.125 32.5987 58.125 26.25C58.125 19.8516 54.7275 16.125 50.8415 12.9216ZM44.7834 10.5159C45.2203 10.1709 45.6571 9.83063 46.0884 9.49688L46.2993 9.33281C44.5631 8.00362 43.0194 6.44033 41.7121 4.6875H51.5353C52.0425 4.10401 52.4968 3.47653 52.8928 2.8125H40.6209C40.3237 2.20922 40.0779 1.58201 39.8859 0.9375H37.9443C38.9821 5.14875 41.7281 7.99875 44.7834 10.5159Z" fill="#FF845E"></path><path d="M44.3963 39.2578L45.6038 37.8234C42.3685 35.1009 39.3751 31.8159 39.3751 26.25C39.3751 19.4437 43.7522 16.0519 48.3872 12.4603C52.3276 9.40594 56.3719 6.26062 57.6816 0.9375H55.7344C54.4529 5.37469 50.9307 8.11594 47.2379 10.9772C42.451 14.6878 37.5001 18.525 37.5001 26.25C37.5001 32.5987 40.9866 36.3881 44.3963 39.2578ZM3.22975 31.875C3.66174 31.8754 4.08418 31.7479 4.44375 31.5085C4.80332 31.269 5.08389 30.9284 5.25006 30.5297L9.37506 20.625V56.2191C9.37779 56.966 9.67434 57.6819 10.2006 58.212C10.7269 58.7421 11.4406 59.0438 12.1875 59.0519C12.9345 59.0601 13.6546 58.774 14.1923 58.2554C14.73 57.7369 15.042 57.0277 15.061 56.2809L15.4688 37.5H17.3438L17.7516 56.2809C17.7706 57.0277 18.0827 57.7369 18.6203 58.2554C19.158 58.774 19.8782 59.0601 20.6251 59.0519C21.372 59.0438 22.0857 58.7421 22.612 58.212C23.1383 57.6819 23.4348 56.966 23.4376 56.2191V20.625L27.5626 30.5297C27.782 31.0669 28.2058 31.4949 28.7408 31.7196C29.2758 31.9443 29.8782 31.9472 30.4154 31.7278C30.9526 31.5084 31.3806 31.0846 31.6053 30.5495C31.83 30.0145 31.8329 29.4122 31.6135 28.875L26.7272 16.6612C26.3098 15.6174 25.5891 14.7225 24.6581 14.0922C23.7272 13.4619 22.6287 13.125 21.5044 13.125H11.3082C10.1839 13.125 9.08545 13.4619 8.1545 14.0922C7.22355 14.7225 6.50285 15.6174 6.08537 16.6612L1.19912 28.875C1.06627 29.2069 1.0168 29.5663 1.05502 29.9217C1.09325 30.2771 1.21801 30.6178 1.4184 30.9138C1.61878 31.2099 1.88867 31.4523 2.20445 31.6198C2.52023 31.7874 2.87226 31.875 3.22975 31.875Z" fill="#FF845E"></path><path d="M16.4062 12.1875C19.5129 12.1875 22.0312 9.6691 22.0312 6.5625C22.0312 3.4559 19.5129 0.9375 16.4062 0.9375C13.2996 0.9375 10.7812 3.4559 10.7812 6.5625C10.7812 9.6691 13.2996 12.1875 16.4062 12.1875Z" fill="#FF845E"></path><path d="M36.7191 58.3725C37.4521 58.8236 38.2958 59.0627 39.1566 59.0635C39.5286 59.0634 39.8993 59.0193 40.2609 58.9322C40.8601 58.7898 41.425 58.5299 41.9231 58.1677C42.4211 57.8054 42.8424 57.348 43.1625 56.8219L48.0581 48.826C48.7072 47.7656 48.9085 46.4909 48.6177 45.2822C48.3269 44.0734 47.5678 43.0297 46.5075 42.3806C45.4472 41.7316 44.1724 41.5303 42.9637 41.8211C41.755 42.1119 40.7113 42.8709 40.0622 43.9313L35.1675 51.9272C34.52 52.988 34.3197 54.2624 34.6106 55.4707C34.9015 56.679 35.6597 57.7226 36.7191 58.3725ZM41.6634 44.9063C41.8555 44.5896 42.1082 44.3141 42.407 44.0953C42.7059 43.8766 43.045 43.7191 43.4048 43.6317C43.7647 43.5444 44.1383 43.529 44.5042 43.5864C44.87 43.6438 45.2209 43.7729 45.5367 43.9663C45.8526 44.1597 46.1271 44.4135 46.3446 44.7132C46.5621 45.013 46.7182 45.3527 46.804 45.713C46.8899 46.0732 46.9037 46.4469 46.8448 46.8125C46.7859 47.1781 46.6553 47.5284 46.4606 47.8435L44.5012 51.0441L39.7031 48.1125L41.6634 44.9063ZM57.4237 56.2294L48.9028 51.0403L45.7153 56.25C46.4171 57.1298 47.3084 57.8399 48.3227 58.3274C49.3371 58.8149 50.4484 59.0672 51.5738 59.0655C52.6993 59.0638 53.8098 58.8081 54.8227 58.3175C55.8355 57.827 56.7246 57.1142 57.4237 56.2322V56.2294ZM51.5625 44.0625C51.1194 44.0646 50.6773 44.106 50.2416 44.1863C50.5436 45.039 50.6658 45.9451 50.6003 46.8474C50.5347 47.7497 50.283 48.6286 49.8609 49.4288L58.3997 54.6291C58.9147 53.4878 59.1353 52.2356 59.0413 50.987C58.9472 49.7384 58.5415 48.5334 57.8613 47.4821C57.1811 46.4309 56.2481 45.567 55.1477 44.9696C54.0473 44.3722 52.8146 44.0603 51.5625 44.0625Z" fill="#FF845E"></path></svg>