<svg xmlns="http://www.w3.org/2000/svg" width="32" height="32" viewBox="0 0 32 32" fill="none"><path fill-rule="evenodd" clip-rule="evenodd" d="M14.1313 14.8619H22.6406C23.0769 14.8619 23.4319 14.5069 23.4319 14.0706V13.7912C23.4319 11.0094 21.1688 8.74562 18.3863 8.74562C15.6038 8.74562 13.3406 11.0094 13.3406 13.7912V14.0706C13.3406 14.5069 13.695 14.8619 14.1313 14.8619ZM23.4506 4.98312L24.2538 5.33249C24.3644 5.38062 24.4519 5.46874 24.5006 5.57937L24.85 6.38312L25.1988 5.57937C25.2472 5.46905 25.3353 5.38094 25.4456 5.33249L26.2488 4.98312L25.4456 4.63374C25.3351 4.58567 25.2468 4.49744 25.1988 4.38687L24.85 3.58374L24.5006 4.38687C24.4524 4.49732 24.3642 4.58548 24.2538 4.63374L23.4506 4.98312ZM16.1138 3.79624C16.1138 5.04937 17.1331 6.06874 18.3863 6.06874C19.6394 6.06874 20.6588 5.04937 20.6588 3.79624C20.6588 2.54312 19.6394 1.52374 18.3863 1.52374C17.1331 1.52312 16.1138 2.54249 16.1138 3.79624ZM10.7125 9.80437L11.1256 10.755L11.5394 9.80437C11.5965 9.67348 11.701 9.56901 11.8319 9.51187L12.7825 9.09874L11.8319 8.68499C11.7009 8.62829 11.5964 8.52397 11.5394 8.39312L11.1256 7.44312L10.7125 8.39312C10.6563 8.52437 10.5513 8.62874 10.42 8.68499L9.46939 9.09874L10.42 9.51187C10.5513 9.56937 10.6556 9.67374 10.7125 9.80437ZM8.91189 28.7381L4.06377 19.4344C4.03748 19.385 3.9928 19.3479 3.93939 19.3312C3.91304 19.3228 3.88527 19.3197 3.85771 19.322C3.83014 19.3244 3.80331 19.3322 3.77877 19.345L1.66439 20.4469C1.56314 20.4994 1.52189 20.63 1.57502 20.7312L6.42314 30.035C6.43594 30.0595 6.45346 30.0812 6.4747 30.0989C6.49594 30.1166 6.52048 30.1299 6.54689 30.1381C6.60127 30.155 6.65814 30.1506 6.70752 30.1244L8.82189 29.0225C8.87189 28.9969 8.90814 28.9531 8.92502 28.8987C8.94252 28.845 8.93814 28.7875 8.91189 28.7381ZM17.1169 18.5144C17.6325 18.5369 18.11 18.76 18.4613 19.1437C18.8131 19.5269 18.9944 20.0219 18.9725 20.5375C18.95 21.0525 18.7263 21.53 18.3431 21.8819C17.9594 22.2337 17.4638 22.4144 16.9494 22.3925L12.6488 22.2069C12.4425 22.1981 12.2669 22.3581 12.2581 22.565C12.2488 22.7719 12.4094 22.9469 12.6163 22.9562L16.9169 23.1419C16.9563 23.1437 16.9956 23.1444 17.035 23.1444C17.7075 23.1444 18.3481 22.895 18.85 22.4344C19.0019 22.2956 19.135 22.1412 19.2494 21.9762L19.2525 21.9819L27.34 17.7669C27.7969 17.5287 28.3225 17.4831 28.8181 17.6394C29.3156 17.7956 29.7194 18.1337 29.9588 18.5912C30.1963 19.0487 30.2419 19.5737 30.0863 20.07C29.9281 20.5662 29.5913 20.9712 29.1344 21.2094L17.2194 27.4187C16.5963 27.7437 15.9463 27.6962 15.1 27.5144L10.3713 26.5C9.99939 26.42 9.60064 26.375 9.19939 26.5844L8.75627 26.815L5.55002 20.665L9.81814 18.4406C10.1131 18.2869 10.3938 18.2244 10.7263 18.2387L17.1169 18.5144Z" fill="#FF845E"></path></svg>