<svg xmlns="http://www.w3.org/2000/svg" width="60" height="60" viewBox="0 0 60 60" fill="none"><path d="M6.75 56.25H31.8131V44.9719C31.8131 44.7232 31.9119 44.4848 32.0877 44.309C32.2635 44.1331 32.502 44.0344 32.7506 44.0344H44.0241V38.8641H28.1213C27.8726 38.8641 27.6342 38.7653 27.4583 38.5895C27.2825 38.4137 27.1838 38.1752 27.1838 37.9266V10.4475C27.1838 10.1989 27.2825 9.9604 27.4583 9.78459C27.6342 9.60877 27.8726 9.51 28.1213 9.51H44.0241V3.75H6.75V56.25ZM11.1778 10.2403H21.5831C21.8318 10.2403 22.0702 10.3391 22.246 10.5149C22.4219 10.6907 22.5206 10.9292 22.5206 11.1778C22.5206 11.4265 22.4219 11.6649 22.246 11.8407C22.0702 12.0165 21.8318 12.1153 21.5831 12.1153H11.1778C10.9292 12.1153 10.6907 12.0165 10.5149 11.8407C10.3391 11.6649 10.2403 11.4265 10.2403 11.1778C10.2403 10.9292 10.3391 10.6907 10.5149 10.5149C10.6907 10.3391 10.9292 10.2403 11.1778 10.2403ZM11.1778 17.7694H21.5831C21.8318 17.7694 22.0702 17.8681 22.246 18.044C22.4219 18.2198 22.5206 18.4582 22.5206 18.7069C22.5206 18.9555 22.4219 19.194 22.246 19.3698C22.0702 19.5456 21.8318 19.6444 21.5831 19.6444H11.1778C10.9292 19.6444 10.6907 19.5456 10.5149 19.3698C10.3391 19.194 10.2403 18.9555 10.2403 18.7069C10.2403 18.4582 10.3391 18.2198 10.5149 18.044C10.6907 17.8681 10.9292 17.7694 11.1778 17.7694ZM11.1778 25.2984H21.5831C21.8318 25.2984 22.0702 25.3972 22.246 25.573C22.4219 25.7488 22.5206 25.9873 22.5206 26.2359C22.5206 26.4846 22.4219 26.723 22.246 26.8988C22.0702 27.0747 21.8318 27.1734 21.5831 27.1734H11.1778C10.9292 27.1734 10.6907 27.0747 10.5149 26.8988C10.3391 26.723 10.2403 26.4846 10.2403 26.2359C10.2403 25.9873 10.3391 25.7488 10.5149 25.573C10.6907 25.3972 10.9292 25.2984 11.1778 25.2984ZM11.1778 32.8275H21.5831C21.8318 32.8275 22.0702 32.9263 22.246 33.1021C22.4219 33.2779 22.5206 33.5164 22.5206 33.765C22.5206 34.0136 22.4219 34.2521 22.246 34.4279C22.0702 34.6037 21.8318 34.7025 21.5831 34.7025H11.1778C10.9292 34.7025 10.6907 34.6037 10.5149 34.4279C10.3391 34.2521 10.2403 34.0136 10.2403 33.765C10.2403 33.5164 10.3391 33.2779 10.5149 33.1021C10.6907 32.9263 10.9292 32.8275 11.1778 32.8275ZM11.1778 40.3566H21.5831C21.8318 40.3566 22.0702 40.4553 22.246 40.6312C22.4219 40.807 22.5206 41.0454 22.5206 41.2941C22.5206 41.5427 22.4219 41.7812 22.246 41.957C22.0702 42.1328 21.8318 42.2316 21.5831 42.2316H11.1778C10.9292 42.2316 10.6907 42.1328 10.5149 41.957C10.3391 41.7812 10.2403 41.5427 10.2403 41.2941C10.2403 41.0454 10.3391 40.807 10.5149 40.6312C10.6907 40.4553 10.9292 40.3566 11.1778 40.3566ZM11.1778 47.8856H28.1213C28.3699 47.8856 28.6083 47.9844 28.7842 48.1602C28.96 48.336 29.0588 48.5745 29.0588 48.8231C29.0588 49.0718 28.96 49.3102 28.7842 49.486C28.6083 49.6619 28.3699 49.7606 28.1213 49.7606H11.1778C10.9292 49.7606 10.6907 49.6619 10.5149 49.486C10.3391 49.3102 10.2403 49.0718 10.2403 48.8231C10.2403 48.5745 10.3391 48.336 10.5149 48.1602C10.6907 47.9844 10.9292 47.8856 11.1778 47.8856Z" fill="#FF845E"></path><path d="M29.0596 36.9891H53.2461V11.385H29.0596V36.9891ZM32.8349 25.4156L40.648 12.8213C40.757 12.6456 40.9211 12.5109 41.1146 12.4381C41.3082 12.3653 41.5203 12.3586 41.7181 12.4189C41.9159 12.4792 42.0881 12.6032 42.2081 12.7716C42.3281 12.94 42.389 13.1434 42.3814 13.35L42.1255 20.3653H48.6749C48.8471 20.3657 49.0159 20.4136 49.1628 20.5035C49.3097 20.5935 49.429 20.7222 49.5076 20.8754C49.5862 21.0287 49.6211 21.2007 49.6085 21.3724C49.5959 21.5442 49.5363 21.7092 49.4361 21.8494L40.2233 34.6772C40.1025 34.8449 39.9297 34.9681 39.7316 35.0274C39.5336 35.0867 39.3215 35.079 39.1284 35.0053C38.9352 34.9316 38.7719 34.7961 38.6637 34.62C38.5555 34.4438 38.5086 34.2368 38.5302 34.0313L39.2952 26.8472H33.6318C33.4647 26.847 33.3006 26.8022 33.1566 26.7175C33.0126 26.6327 32.8939 26.511 32.8126 26.365C32.7314 26.2189 32.6906 26.0539 32.6946 25.8868C32.6985 25.7197 32.7469 25.5568 32.8349 25.4147V25.4156Z" fill="#FF845E"></path><path d="M41.0333 25.2834C41.2105 25.4813 41.2968 25.7447 41.2687 26.0091L40.769 30.7031L46.8468 22.2413H41.1524C41.0263 22.2413 40.9015 22.216 40.7854 22.1667C40.6694 22.1175 40.5644 22.0453 40.4769 21.9545C40.3894 21.8638 40.3211 21.7563 40.2761 21.6385C40.231 21.5207 40.2102 21.3951 40.2149 21.2691L40.378 16.8122L35.3155 24.9722H40.3358C40.6021 24.9722 40.8552 25.0856 41.0333 25.2834ZM33.689 54.9206L42.6993 45.9094H33.689V54.9206Z" fill="#FF845E"></path></svg>