<svg xmlns="http://www.w3.org/2000/svg" width="60" height="60" viewBox="0 0 60 60" fill="none"><path d="M15.075 23.5656V29.0799C15.075 29.203 15.0508 29.3248 15.0037 29.4384C14.9566 29.5521 14.8876 29.6554 14.8006 29.7423C14.7136 29.8293 14.6103 29.8983 14.4967 29.9454C14.383 29.9925 14.2612 30.0167 14.1382 30.0167H10.0989C9.8504 30.0167 9.61213 29.918 9.43644 29.7423C9.26076 29.5667 9.16206 29.3284 9.16206 29.0799V23.5656C9.16206 23.3171 9.26076 23.0788 9.43644 22.9031C9.61213 22.7275 9.8504 22.6288 10.0989 22.6288H14.1382C14.3866 22.6288 14.6249 22.7275 14.8006 22.9031C14.9763 23.0788 15.075 23.3171 15.075 23.5656ZM49.6389 34.3483C49.6389 34.3987 49.6338 34.4478 49.6261 34.4961L53.5385 49.5595C53.5398 49.5644 53.5401 49.5694 53.5413 49.5743C53.5479 49.6015 53.5532 49.6291 53.5573 49.6571C53.5587 49.6665 53.5604 49.6756 53.5615 49.685C53.5657 49.7211 53.5685 49.7578 53.5685 49.7951V53.1601C53.5685 54.2133 52.588 55.0701 51.3827 55.0701H3.12632C1.91929 55.0701 0.937256 54.2133 0.937256 53.1601V49.7219C0.937256 49.6436 0.946982 49.5658 0.966436 49.49L4.86702 34.2273V7.4081C4.86702 6.04169 5.98019 4.93005 7.34847 4.93005H47.1608C48.5272 4.93005 49.6389 6.04169 49.6389 7.4081V9.78935C54.9144 10.2644 59.0628 14.7103 59.0628 20.1075C59.0628 25.5047 54.9144 29.9505 49.6389 30.4256V34.3483ZM31.9121 46.1675H22.576L22.1864 48.8581H32.3098L31.9121 46.1675ZM17.5232 42.0683C17.5232 41.8198 17.4245 41.5816 17.2488 41.4059C17.0731 41.2302 16.8348 41.1315 16.5864 41.1315H13.6066C13.3582 41.1315 13.1199 41.2302 12.9442 41.4059C12.7685 41.5816 12.6698 41.8198 12.6698 42.0683C12.6698 42.3167 12.7685 42.555 12.9442 42.7307C13.1199 42.9064 13.3582 43.0051 13.6066 43.0051H16.5864C16.8348 43.0051 17.0731 42.9064 17.2488 42.7307C17.4245 42.555 17.5232 42.3167 17.5232 42.0683ZM16.5864 44.9948H13.6066C13.3582 44.9948 13.1199 45.0935 12.9442 45.2692C12.7685 45.4449 12.6698 45.6832 12.6698 45.9316C12.6698 46.1801 12.7685 46.4183 12.9442 46.594C13.1199 46.7697 13.3582 46.8684 13.6066 46.8684H16.5864C16.8348 46.8684 17.0731 46.7697 17.2488 46.594C17.4245 46.4183 17.5232 46.1801 17.5232 45.9316C17.5232 45.6832 17.4245 45.4449 17.2488 45.2692C17.0731 45.0935 16.8348 44.9948 16.5864 44.9948ZM13.5867 39.5404C13.8352 39.5404 14.0734 39.4417 14.2491 39.2661C14.4248 39.0904 14.5235 38.8521 14.5235 38.6036C14.5235 38.3552 14.4248 38.1169 14.2491 37.9412C14.0734 37.7655 13.8352 37.6669 13.5867 37.6669H8.56733C8.31888 37.6669 8.0806 37.7655 7.90492 37.9412C7.72924 38.1169 7.63054 38.3552 7.63054 38.6036C7.63054 38.8521 7.72924 39.0904 7.90492 39.2661C8.0806 39.4417 8.31888 39.5404 8.56733 39.5404H13.5867ZM19.6491 39.5404C19.8975 39.5404 20.1358 39.4417 20.3115 39.2661C20.4872 39.0904 20.5858 38.8521 20.5858 38.6036C20.5858 38.3552 20.4872 38.1169 20.3115 37.9412C20.1358 37.7655 19.8975 37.6669 19.6491 37.6669H16.6693C16.4209 37.6669 16.1826 37.7655 16.0069 37.9412C15.8312 38.1169 15.7325 38.3552 15.7325 38.6036C15.7325 38.8521 15.8312 39.0904 16.0069 39.2661C16.1826 39.4417 16.4209 39.5404 16.6693 39.5404H19.6491ZM18.7323 42.0683C18.7323 42.3167 18.831 42.555 19.0067 42.7307C19.1824 42.9064 19.4206 43.0051 19.6691 43.0051H22.6488C22.8973 43.0051 23.1356 42.9064 23.3112 42.7307C23.4869 42.555 23.5856 42.3167 23.5856 42.0683C23.5856 41.8198 23.4869 41.5816 23.3112 41.4059C23.1356 41.2302 22.8973 41.1315 22.6488 41.1315H19.6691C19.4206 41.1315 19.1824 41.2302 19.0067 41.4059C18.831 41.5816 18.7323 41.8198 18.7323 42.0683ZM25.7115 39.5437C25.96 39.5437 26.1982 39.445 26.3739 39.2693C26.5496 39.0937 26.6483 38.8554 26.6483 38.6069C26.6483 38.3585 26.5496 38.1202 26.3739 37.9445C26.1982 37.7688 25.96 37.6701 25.7115 37.6701H22.7318C22.4833 37.6701 22.2451 37.7688 22.0694 37.9445C21.8937 38.1202 21.795 38.3585 21.795 38.6069C21.795 38.8554 21.8937 39.0937 22.0694 39.2693C22.2451 39.445 22.4833 39.5437 22.7318 39.5437H25.7115ZM24.7946 42.0716C24.7946 42.32 24.8933 42.5583 25.069 42.734C25.2447 42.9097 25.483 43.0084 25.7314 43.0084H28.7144C28.9629 43.0084 29.2012 42.9097 29.3769 42.734C29.5525 42.5583 29.6512 42.32 29.6512 42.0716C29.6512 41.8231 29.5525 41.5848 29.3769 41.4092C29.2012 41.2335 28.9629 41.1348 28.7144 41.1348H25.7314C25.483 41.1348 25.2447 41.2335 25.069 41.4092C24.8933 41.5848 24.7946 41.8231 24.7946 42.0716ZM31.7771 39.5437C32.0256 39.5437 32.2639 39.445 32.4396 39.2693C32.6152 39.0937 32.7139 38.8554 32.7139 38.6069C32.7139 38.3585 32.6152 38.1202 32.4396 37.9445C32.2639 37.7688 32.0256 37.6701 31.7771 37.6701H28.7941C28.5457 37.6701 28.3074 37.7688 28.1317 37.9445C27.956 38.1202 27.8573 38.3585 27.8573 38.6069C27.8573 38.8554 27.956 39.0937 28.1317 39.2693C28.3074 39.445 28.5457 39.5437 28.7941 39.5437H31.7771ZM30.857 42.0716C30.857 42.32 30.9557 42.5583 31.1314 42.734C31.307 42.9097 31.5453 43.0084 31.7938 43.0084H34.7768C35.0252 43.0084 35.2635 42.9097 35.4392 42.734C35.6149 42.5583 35.7136 42.32 35.7136 42.0716C35.7136 41.8231 35.6149 41.5848 35.4392 41.4092C35.2635 41.2335 35.0252 41.1348 34.7768 41.1348H31.7938C31.6708 41.1348 31.5489 41.159 31.4353 41.2061C31.3216 41.2532 31.2184 41.3222 31.1314 41.4092C31.0444 41.4962 30.9754 41.5994 30.9283 41.7131C30.8812 41.8267 30.857 41.9486 30.857 42.0716ZM37.8395 39.547C38.0879 39.547 38.3262 39.4483 38.5019 39.2726C38.6776 39.0969 38.7763 38.8587 38.7763 38.6102C38.7763 38.3618 38.6776 38.1235 38.5019 37.9478C38.3262 37.7721 38.0879 37.6734 37.8395 37.6734H34.8564C34.6079 37.6734 34.3696 37.7721 34.1939 37.9478C34.0183 38.1235 33.9196 38.3618 33.9196 38.6102C33.9196 38.8587 34.0183 39.0969 34.1939 39.2726C34.3696 39.4483 34.6079 39.547 34.8564 39.547H37.8395ZM41.7758 42.0749C41.7758 41.9518 41.7516 41.83 41.7045 41.7164C41.6574 41.6027 41.5884 41.4994 41.5014 41.4124C41.4144 41.3255 41.3112 41.2564 41.1975 41.2094C41.0839 41.1623 40.962 41.1381 40.839 41.1381H37.856C37.6075 41.1381 37.3693 41.2368 37.1936 41.4124C37.0179 41.5881 36.9192 41.8264 36.9192 42.0749C36.9192 42.3233 37.0179 42.5616 37.1936 42.7373C37.3693 42.913 37.6075 43.0117 37.856 43.0117H40.839C40.962 43.0117 41.0839 42.9874 41.1975 42.9403C41.3112 42.8933 41.4144 42.8243 41.5014 42.7373C41.5884 42.6503 41.6574 42.547 41.7045 42.4334C41.7516 42.3197 41.7758 42.1979 41.7758 42.0749ZM40.839 45.0014H37.856C37.6075 45.0014 37.3693 45.1001 37.1936 45.2758C37.0179 45.4514 36.9192 45.6897 36.9192 45.9382C36.9192 46.1866 37.0179 46.4249 37.1936 46.6006C37.3693 46.7763 37.6075 46.875 37.856 46.875H40.839C41.0875 46.875 41.3257 46.7763 41.5014 46.6006C41.6771 46.4249 41.7758 46.1866 41.7758 45.9382C41.7758 45.6897 41.6771 45.4514 41.5014 45.2758C41.3257 45.1001 41.0875 45.0014 40.839 45.0014ZM45.845 39.547C46.0935 39.547 46.3318 39.4483 46.5074 39.2726C46.6831 39.0969 46.7818 38.8587 46.7818 38.6102C46.7818 38.3618 46.6831 38.1235 46.5074 37.9478C46.3318 37.7721 46.0935 37.6734 45.845 37.6734H40.9187C40.6702 37.6734 40.432 37.7721 40.2563 37.9478C40.0806 38.1235 39.9819 38.3618 39.9819 38.6102C39.9819 38.8587 40.0806 39.0969 40.2563 39.2726C40.432 39.4483 40.6702 39.547 40.9187 39.547H45.845ZM43.0447 42.0783C43.0447 42.3267 43.1434 42.565 43.3191 42.7407C43.4948 42.9164 43.7331 43.0151 43.9815 43.0151H46.7286C46.9771 43.0151 47.2154 42.9164 47.391 42.7407C47.5667 42.565 47.6654 42.3267 47.6654 42.0783C47.6654 41.8298 47.5667 41.5915 47.391 41.4158C47.2154 41.2402 46.9771 41.1415 46.7286 41.1415H43.9815C43.7331 41.1415 43.4948 41.2402 43.3191 41.4158C43.1434 41.5915 43.0447 41.8298 43.0447 42.0783ZM6.74354 42.0683C6.74354 42.3167 6.84224 42.555 7.01793 42.7307C7.19361 42.9064 7.43189 43.0051 7.68034 43.0051H10.5238C10.7722 43.0051 11.0105 42.9064 11.1862 42.7307C11.3619 42.555 11.4606 42.3167 11.4606 42.0683C11.4606 41.8198 11.3619 41.5816 11.1862 41.4059C11.0105 41.2302 10.7722 41.1315 10.5238 41.1315H7.68034C7.43189 41.1315 7.19361 41.2302 7.01793 41.4059C6.84224 41.5816 6.74354 41.8198 6.74354 42.0683ZM48.7022 13.2345C48.4537 13.2345 48.2154 13.3332 48.0398 13.5089C47.8641 13.6846 47.7654 13.9229 47.7654 14.1713V15.4309C46.6322 15.8204 45.8154 16.8953 45.8154 18.1576C45.8154 20.382 47.4864 20.7806 48.4848 21.0187C49.5294 21.2679 49.7153 21.3674 49.7153 22.0574C49.7153 22.6142 49.2608 23.0672 48.7021 23.0672C48.5632 23.0679 48.4257 23.0396 48.2984 22.9843C48.171 22.929 48.0565 22.8478 47.9623 22.7458C47.867 22.6445 47.7939 22.5244 47.7476 22.3932C47.7012 22.2621 47.6827 22.1227 47.6932 21.984C47.7019 21.8613 47.6864 21.7381 47.6474 21.6214C47.6085 21.5047 47.547 21.3968 47.4663 21.3039C47.3857 21.2109 47.2876 21.1348 47.1775 21.0798C47.0675 21.0249 46.9477 20.9921 46.8249 20.9835C46.7022 20.9747 46.579 20.9903 46.4623 21.0292C46.3456 21.0681 46.2377 21.1296 46.1448 21.2103C46.0519 21.2909 45.9757 21.389 45.9208 21.4991C45.8658 21.6092 45.8331 21.729 45.8244 21.8517C45.797 22.2468 45.8509 22.6434 45.9828 23.0169C46.1148 23.3903 46.3219 23.7327 46.5915 24.0229C46.9147 24.3685 47.3178 24.6295 47.7654 24.7828V26.0436C47.7654 26.2921 47.8641 26.5303 48.0398 26.706C48.2154 26.8817 48.4537 26.9804 48.7022 26.9804C48.9506 26.9804 49.1889 26.8817 49.3646 26.706C49.5403 26.5303 49.639 26.2921 49.639 26.0436V24.7842C50.7721 24.3947 51.5889 23.3199 51.5889 22.0575C51.5889 19.833 49.9179 19.4345 48.9194 19.1963C47.8748 18.9472 47.689 18.8477 47.689 18.1577C47.689 17.6008 48.1434 17.1479 48.7022 17.1479C48.9872 17.1479 49.2504 17.262 49.4435 17.4691C49.5383 17.5701 49.611 17.6897 49.6571 17.8203C49.7032 17.9509 49.7215 18.0897 49.711 18.2278C49.7023 18.3505 49.7179 18.4737 49.7568 18.5904C49.7957 18.7071 49.8573 18.815 49.9379 18.9079C50.0185 19.0008 50.1167 19.077 50.2267 19.1319C50.3368 19.1869 50.4566 19.2197 50.5793 19.2283C51.0954 19.2644 51.5434 18.8762 51.5798 18.3601C51.6073 17.9656 51.5535 17.5696 51.4218 17.1967C51.2901 16.8237 51.0832 16.4818 50.8141 16.192C50.4907 15.8461 50.087 15.585 49.6389 15.4319V14.1715C49.6389 14.0484 49.6146 13.9266 49.5675 13.813C49.5205 13.6993 49.4515 13.596 49.3645 13.509C49.2775 13.4221 49.1742 13.3531 49.0606 13.306C48.9469 13.2589 48.8251 13.2347 48.7021 13.2347L48.7022 13.2345ZM6.7405 33.4114H47.7654V30.4256C42.4897 29.9505 38.3413 25.5047 38.3413 20.1075C38.3413 14.7103 42.4897 10.2644 47.7654 9.78935V7.4081C47.7654 7.08044 47.4885 6.80365 47.1608 6.80365H7.34847C7.01894 6.80365 6.7405 7.08044 6.7405 7.4081V33.4115V33.4114ZM51.6951 50.7317H2.81073V53.1027C2.85456 53.139 2.9639 53.1963 3.12632 53.1963H51.3828C51.5439 53.1963 51.6519 53.1397 51.6951 53.104V50.7317ZM10.0998 20.8783C10.2594 20.8784 10.4162 20.8374 10.5554 20.7594L23.3327 13.6303C23.31 13.8412 23.3595 14.0535 23.4732 14.2326C23.5869 14.4117 23.7581 14.5468 23.9587 14.6158C24.1592 14.6849 24.3773 14.6838 24.5771 14.6127C24.777 14.5416 24.9468 14.4047 25.0587 14.2245L26.673 11.6301C26.7636 11.4845 26.8125 11.3168 26.8144 11.1453C26.8162 10.9739 26.771 10.8051 26.6836 10.6576C26.5053 10.357 26.1739 10.1824 25.8255 10.1999L22.5501 10.3826C22.3466 10.394 22.1523 10.4715 21.9968 10.6033C21.8412 10.7351 21.733 10.9141 21.6883 11.113C21.6437 11.312 21.6653 11.5201 21.7496 11.7057C21.834 11.8913 21.9766 12.0443 22.1558 12.1415L9.64229 19.1235C9.53486 19.1834 9.44029 19.2639 9.36398 19.3604C9.28767 19.4569 9.23111 19.5674 9.19754 19.6858C9.16397 19.8041 9.15404 19.9279 9.16832 20.0501C9.1826 20.1723 9.22081 20.2905 9.28077 20.3979C9.36203 20.5437 9.4808 20.6652 9.62479 20.7497C9.76877 20.8342 9.93273 20.8786 10.0997 20.8785L10.0998 20.8783ZM21.0178 19.0046H16.9785C16.73 19.0046 16.4917 19.1033 16.3161 19.279C16.1404 19.4547 16.0417 19.693 16.0417 19.9414V29.0798C16.0417 29.3283 16.1404 29.5666 16.3161 29.7422C16.4917 29.9179 16.73 30.0166 16.9785 30.0166H21.0178C21.2663 30.0166 21.5045 29.9179 21.6802 29.7422C21.8559 29.5666 21.9546 29.3283 21.9546 29.0798V19.9414C21.9546 19.693 21.8559 19.4547 21.6802 19.279C21.5045 19.1033 21.2663 19.0046 21.0178 19.0046ZM27.8974 15.0814H23.8581C23.6096 15.0814 23.3713 15.1801 23.1957 15.3558C23.02 15.5315 22.9213 15.7698 22.9213 16.0182V29.0798C22.9213 29.3283 23.02 29.5666 23.1957 29.7422C23.3713 29.9179 23.6096 30.0166 23.8581 30.0166H27.8974C28.1459 30.0166 28.3841 29.9179 28.5598 29.7422C28.7355 29.5666 28.8342 29.3283 28.8342 29.0798V16.0182C28.8342 15.7698 28.7355 15.5315 28.5598 15.3558C28.3841 15.1801 28.1459 15.0814 27.8974 15.0814ZM34.777 11.3244H30.7377C30.4892 11.3244 30.251 11.4231 30.0753 11.5988C29.8996 11.7745 29.8009 12.0127 29.8009 12.2612V29.0798C29.8009 29.3283 29.8996 29.5666 30.0753 29.7422C30.251 29.9179 30.4892 30.0166 30.7377 30.0166H34.777C35.0255 30.0166 35.2638 29.9179 35.4394 29.7422C35.6151 29.5666 35.7138 29.3283 35.7138 29.0798V12.2613C35.7138 12.0128 35.6151 11.7746 35.4394 11.5989C35.2638 11.4232 35.0255 11.3244 34.777 11.3244Z" fill="#FF845E"></path></svg>