<svg xmlns="http://www.w3.org/2000/svg" width="60" height="60" viewBox="0 0 60 60" fill="none"><path fill-rule="evenodd" clip-rule="evenodd" d="M58.3806 16.5995V57.5426C58.3806 58.0855 57.9367 58.5294 57.3937 58.5294H31.7763C32.1496 58.0851 32.3539 57.5231 32.353 56.9428V34.9683C32.353 33.9198 31.6997 33.0238 30.7781 32.6651C31.9926 32.4982 33.0024 31.5469 33.1876 30.2736L33.6771 26.9073C33.7373 26.4934 33.7048 26.0713 33.582 25.6715C33.4591 25.2717 33.249 24.9042 32.9668 24.5956C32.6845 24.2869 32.3373 24.0448 31.9501 23.8868C31.5628 23.7287 31.1453 23.6586 30.7277 23.6816L27.3338 23.8687C25.7778 23.9545 24.5842 25.2873 24.67 26.8433C24.6898 27.2111 24.7817 27.5715 24.9404 27.9039C23.5263 29.036 22.0705 30.1148 20.5758 31.1382V10.5223C20.5758 9.97576 21.0197 9.53188 21.5663 9.53188H25.5458V11.3692C23.572 11.4536 22.5149 13.7455 23.7431 15.3052L28.0096 20.7193C28.9891 21.9702 30.8597 21.9693 31.8378 20.7163L36.1016 15.3056L36.102 15.3052C36.1635 15.2271 36.2193 15.1472 36.2695 15.0658C36.3196 15.1472 36.3754 15.2271 36.4369 15.3052L40.7034 20.7193C41.6829 21.9702 43.5535 21.9693 44.5316 20.7163L48.7954 15.3056L48.7958 15.3052C50.024 13.7455 48.9669 11.4536 46.993 11.3692V9.53188H51.3129V15.1632C51.3129 15.9505 51.9618 16.5995 52.7493 16.5995H58.3806ZM35.5167 26.3716H53.1513C53.6707 26.3716 54.0924 25.95 54.0924 25.4305C54.0924 24.9111 53.6707 24.4893 53.1513 24.4893H35.5167C34.9973 24.4893 34.5755 24.9111 34.5755 25.4305C34.5755 25.95 34.9973 26.3716 35.5167 26.3716ZM35.5167 31.2525H53.1513C53.6707 31.2525 54.0924 30.8307 54.0924 30.3113C54.0924 29.7919 53.6707 29.3701 53.1513 29.3701H35.5167C34.9973 29.3701 34.5755 29.7919 34.5755 30.3113C34.5755 30.8307 34.9973 31.2525 35.5167 31.2525ZM34.473 50.7758H53.1513C53.6707 50.7758 54.0924 50.354 54.0924 49.8346C54.0924 49.3151 53.6707 48.8934 53.1513 48.8934H34.473C33.9536 48.8934 33.5318 49.3151 33.5318 49.8346C33.5318 50.354 33.9536 50.7758 34.473 50.7758ZM34.473 45.8949H53.1513C53.6707 45.8949 54.0924 45.4732 54.0924 44.9538C54.0924 44.4342 53.6707 44.0126 53.1513 44.0126H34.473C33.9536 44.0126 33.5318 44.4342 33.5318 44.9538C33.5318 45.4732 33.9536 45.8949 34.473 45.8949ZM34.473 41.0141H53.1513C53.6707 41.0141 54.0924 40.5923 54.0924 40.0729C54.0924 39.5535 53.6707 39.1318 53.1513 39.1318H34.473C33.9536 39.1318 33.5318 39.5535 33.5318 40.0729C33.5318 40.5923 33.9536 41.0141 34.473 41.0141ZM34.473 36.1333H53.1513C53.6707 36.1333 54.0924 35.7115 54.0924 35.1921C54.0924 34.6727 53.6707 34.2509 53.1513 34.2509H34.473C33.9536 34.2509 33.5318 34.6727 33.5318 35.1921C33.5318 35.7115 33.9536 36.1333 34.473 36.1333ZM53.1953 10.4731L57.4394 14.7172H53.1953V10.4731ZM34.2993 9.53188H38.2396V11.3692C37.361 11.4067 36.6641 11.8818 36.2695 12.5348C35.8748 11.8818 35.1778 11.4067 34.2993 11.3692V9.53188ZM22.0056 38.8235C22.1616 38.8235 22.3112 38.8855 22.4216 38.9958C22.5319 39.1061 22.5938 39.2558 22.5938 39.4118V56.9428C22.5938 57.0988 22.5319 57.2484 22.4216 57.3588C22.3112 57.4691 22.1616 57.5311 22.0056 57.5311H18.4762C18.3202 57.5311 18.1706 57.4691 18.0603 57.3588C17.9499 57.2484 17.888 57.0988 17.888 56.9428V39.4118C17.888 39.2558 17.9499 39.1061 18.0603 38.9958C18.1706 38.8855 18.3202 38.8235 18.4762 38.8235H22.0056ZM14.1288 43.7674C14.2848 43.7674 14.4344 43.8294 14.5447 43.9397C14.655 44.05 14.717 44.1996 14.717 44.3556V56.9428C14.717 57.0988 14.655 57.2484 14.5447 57.3588C14.4344 57.4691 14.2848 57.5311 14.1288 57.5311H10.5994C10.4434 57.5311 10.2937 57.4691 10.1834 57.3588C10.0731 57.2484 10.0111 57.0988 10.0111 56.9428V44.3556C10.0111 44.1996 10.0731 44.05 10.1834 43.9397C10.2937 43.8294 10.4434 43.7674 10.5994 43.7674H14.1288ZM25.7648 34.9683C25.7648 34.8123 25.8268 34.6627 25.9371 34.5524C26.0474 34.4421 26.197 34.3801 26.353 34.3801H29.8824C30.0384 34.3801 30.1881 34.4421 30.2984 34.5524C30.4087 34.6627 30.4707 34.8123 30.4707 34.9683V56.9428C30.4707 57.0988 30.4087 57.2484 30.2984 57.3588C30.1881 57.4691 30.0384 57.5311 29.8824 57.5311H26.353C26.197 57.5311 26.0474 57.4691 25.9371 57.3588C25.8268 57.2484 25.7648 57.0988 25.7648 56.9428V34.9683ZM2.13161 49.0976C2.13161 48.9416 2.19358 48.792 2.3039 48.6817C2.41421 48.5714 2.56383 48.5094 2.71984 48.5094H6.24926C6.40527 48.5094 6.55489 48.5714 6.6652 48.6817C6.77552 48.792 6.83749 48.9416 6.83749 49.0976V56.9428C6.83749 57.0988 6.77552 57.2484 6.6652 57.3588C6.55489 57.4691 6.40527 57.5311 6.24926 57.5311H2.71984C2.56383 57.5311 2.41421 57.4691 2.3039 57.3588C2.19358 57.2484 2.13161 57.0988 2.13161 56.9428V49.0976ZM29.5774 28.9392C21.0191 36.3611 11.696 41.0832 2.8702 44.1555C2.63443 44.2374 2.37579 44.2224 2.15109 44.1138C1.92639 44.0051 1.75402 43.8117 1.67184 43.576C1.50114 43.0854 1.76079 42.5485 2.25126 42.3778C10.845 39.3862 19.9241 34.7975 28.2623 27.588L27.541 27.6278C27.2918 27.6413 27.0474 27.5554 26.8615 27.3889C26.6756 27.2224 26.5634 26.9889 26.5495 26.7398C26.5359 26.4905 26.6218 26.2461 26.7883 26.0602C26.9548 25.8743 27.1883 25.7621 27.4375 25.7482L30.8313 25.5612C30.9704 25.5535 31.1096 25.5769 31.2387 25.6296C31.3677 25.6823 31.4834 25.763 31.5775 25.8659C31.6716 25.9688 31.7416 26.0912 31.7826 26.2245C31.8236 26.3577 31.8344 26.4984 31.8144 26.6363L31.3249 30.0027C31.2501 30.5167 30.7721 30.8734 30.2581 30.7987C29.7441 30.7239 29.3874 30.2459 29.4621 29.7319L29.5774 28.9392ZM25.6587 13.2491H27.4282V1.47058H32.4169V13.2491H34.1864C34.6502 13.2491 34.9068 13.7803 34.6231 14.1406L30.3548 19.5571C30.3038 19.6232 30.2384 19.6768 30.1634 19.7137C30.0885 19.7506 30.0061 19.7698 29.9226 19.7698C29.839 19.7698 29.7566 19.7506 29.6817 19.7137C29.6067 19.6768 29.5413 19.6232 29.4903 19.5571L25.222 14.1406C24.9383 13.7803 25.1949 13.2491 25.6587 13.2491ZM38.3524 13.2491H40.122V1.47058H45.1107V13.2491H46.8802C47.344 13.2491 47.6006 13.7803 47.3169 14.1406L43.0486 19.5571C42.9976 19.6232 42.9321 19.6768 42.8572 19.7137C42.7822 19.7506 42.6998 19.7698 42.6163 19.7698C42.5328 19.7698 42.4504 19.7506 42.3754 19.7137C42.3005 19.6768 42.235 19.6232 42.1841 19.5571L37.9157 14.1406C37.6321 13.7803 37.8888 13.2491 38.3524 13.2491Z" fill="#FF845E"></path></svg>