<svg xmlns="http://www.w3.org/2000/svg" width="32" height="32" viewBox="0 0 32 32" fill="none"><path fill-rule="evenodd" clip-rule="evenodd" d="M23.259 20.7918C23.3598 21.4425 23.4131 22.0939 23.4131 22.7344C23.4131 26.8276 20.0931 30.1475 15.9999 30.1475C11.9067 30.1475 8.58678 26.8276 8.58678 22.7344C8.58678 22.0939 8.64003 21.4425 8.74083 20.7918C8.74292 20.7778 8.74998 20.7651 8.76071 20.7559C8.77144 20.7467 8.78513 20.7417 8.79926 20.7418H11.5344C11.5527 20.7418 11.5684 20.7492 11.58 20.7633C11.5916 20.7773 11.5959 20.7942 11.5924 20.8121C11.4676 21.4574 11.4001 22.105 11.4001 22.7344C11.4001 25.2748 13.4595 27.3342 15.9999 27.3342C18.5403 27.3342 20.5997 25.2748 20.5997 22.7344C20.5997 22.105 20.5322 21.4573 20.4073 20.8121C20.4039 20.7942 20.4082 20.7773 20.4197 20.7633C20.4313 20.7492 20.4471 20.7418 20.4653 20.7418H23.2005C23.23 20.7418 23.2546 20.7628 23.259 20.7918ZM11.7216 14.1255C11.7216 12.5169 10.4055 11.2008 8.79683 11.2008C7.18819 11.2008 5.87203 12.5169 5.87203 14.1255V15.5409C5.87203 15.6617 5.88828 15.7788 5.91875 15.8902C5.92585 15.9163 5.94876 15.9338 5.97577 15.9338H11.6178C11.6307 15.9339 11.6434 15.9296 11.6537 15.9218C11.664 15.9139 11.6715 15.9028 11.6748 15.8902C11.7052 15.7789 11.7215 15.6617 11.7215 15.5409L11.7216 14.1255ZM8.79683 7.67815C7.98352 7.67815 7.32419 8.33741 7.32419 9.15072C7.32419 9.96403 7.98352 10.6233 8.79683 10.6233C9.61008 10.6233 10.2694 9.96403 10.2694 9.15072C10.2694 8.33741 9.61008 7.67815 8.79683 7.67815ZM6.91919 4.79027C6.91919 4.67541 6.96482 4.56525 7.04604 4.48403C7.12726 4.40281 7.23742 4.35719 7.35228 4.35719C7.46714 4.35719 7.5773 4.40281 7.65852 4.48403C7.73974 4.56525 7.78537 4.67541 7.78537 4.79027V6.7353C7.78537 6.85016 7.73974 6.96032 7.65852 7.04154C7.5773 7.12276 7.46714 7.16839 7.35228 7.16839C7.23742 7.16839 7.12726 7.12276 7.04604 7.04154C6.96482 6.96032 6.91919 6.85016 6.91919 6.7353V4.79027ZM4.59497 4.79027C4.59497 4.67541 4.6406 4.56525 4.72182 4.48403C4.80304 4.40281 4.9132 4.35719 5.02806 4.35719C5.14292 4.35719 5.25308 4.40281 5.3343 4.48403C5.41552 4.56525 5.46115 4.67541 5.46115 4.79027V9.74451C5.46115 9.85938 5.41552 9.96953 5.3343 10.0508C5.25308 10.132 5.14292 10.1776 5.02806 10.1776C4.9132 10.1776 4.80304 10.132 4.72182 10.0508C4.6406 9.96953 4.59497 9.85938 4.59497 9.74451V4.79027ZM20.2784 14.1255C20.2784 12.5169 21.5945 11.2008 23.2031 11.2008C24.8117 11.2008 26.1279 12.5169 26.1279 14.1255V15.5409C26.1279 15.6617 26.1116 15.7789 26.0811 15.8902C26.0778 15.9028 26.0704 15.9139 26.0601 15.9218C26.0497 15.9296 26.0371 15.9339 26.0241 15.9338H20.3821C20.3691 15.9339 20.3565 15.9296 20.3461 15.9218C20.3358 15.9139 20.3284 15.9028 20.3251 15.8902C20.294 15.7764 20.2782 15.6589 20.2783 15.5409V14.1255H20.2784ZM23.2031 7.67815C24.0164 7.67815 24.6757 8.33741 24.6757 9.15072C24.6757 9.96403 24.0164 10.6233 23.2031 10.6233C22.3899 10.6233 21.7305 9.96403 21.7305 9.15072C21.7305 8.33741 22.3899 7.67815 23.2031 7.67815ZM26.5388 4.79027C26.5388 4.67541 26.5844 4.56525 26.6656 4.48403C26.7468 4.40281 26.857 4.35719 26.9719 4.35719C27.0867 4.35719 27.1969 4.40281 27.2781 4.48403C27.3593 4.56525 27.405 4.67541 27.405 4.79027V9.74451C27.405 9.85938 27.3593 9.96953 27.2781 10.0508C27.1969 10.132 27.0867 10.1776 26.9719 10.1776C26.857 10.1776 26.7468 10.132 26.6656 10.0508C26.5844 9.96953 26.5388 9.85938 26.5388 9.74451V4.79027ZM24.2146 4.79027C24.2146 4.67541 24.2602 4.56525 24.3414 4.48403C24.4226 4.40281 24.5328 4.35719 24.6476 4.35719C24.7625 4.35719 24.8727 4.40281 24.9539 4.48403C25.0351 4.56525 25.0807 4.67541 25.0807 4.79027V6.7353C25.0807 6.85016 25.0351 6.96032 24.9539 7.04154C24.8727 7.12276 24.7625 7.16839 24.6476 7.16839C24.5328 7.16839 24.4226 7.12276 24.3414 7.04154C24.2602 6.96032 24.2146 6.85016 24.2146 6.7353V4.79027ZM19.7504 4.47968C19.7504 4.36482 19.7961 4.25466 19.8773 4.17344C19.9585 4.09222 20.0687 4.04659 20.1835 4.04659C20.2984 4.04659 20.4085 4.09222 20.4898 4.17344C20.571 4.25466 20.6166 4.36482 20.6166 4.47968V6.42471C20.6166 6.53957 20.571 6.64972 20.4898 6.73094C20.4085 6.81216 20.2984 6.85779 20.1835 6.85779C20.0687 6.85779 19.9585 6.81216 19.8773 6.73094C19.7961 6.64972 19.7504 6.53957 19.7504 6.42471V4.47968ZM11.3833 4.47968C11.3833 4.36482 11.4289 4.25466 11.5101 4.17344C11.5913 4.09222 11.7015 4.04659 11.8163 4.04659C11.9312 4.04659 12.0414 4.09222 12.1226 4.17344C12.2038 4.25466 12.2494 4.36482 12.2494 4.47968V6.42471C12.2494 6.53957 12.2038 6.64972 12.1226 6.73094C12.0414 6.81216 11.9312 6.85779 11.8163 6.85779C11.7015 6.85779 11.5913 6.81216 11.5101 6.73094C11.4289 6.64972 11.3833 6.53957 11.3833 6.42471V4.47968ZM13.0752 8.29978C13.0752 6.69114 14.3913 5.37504 16 5.37504C17.6086 5.37504 18.9248 6.69114 18.9248 8.29978V9.7152C18.9248 9.83603 18.9085 9.95322 18.878 10.0646C18.8747 10.0771 18.8673 10.0882 18.857 10.0961C18.8467 10.104 18.834 10.1082 18.821 10.1081H13.179C13.166 10.1082 13.1534 10.104 13.1431 10.0961C13.1327 10.0882 13.1253 10.0771 13.122 10.0646C13.0909 9.95073 13.0752 9.83322 13.0753 9.7152V8.29978H13.0752ZM15.9999 1.85242C16.8132 1.85242 17.4725 2.51168 17.4725 3.32499C17.4725 4.13831 16.8132 4.79763 15.9999 4.79763C15.1867 4.79763 14.5273 4.13831 14.5273 3.32499C14.5273 2.51168 15.1867 1.85242 15.9999 1.85242ZM16.6331 11.6776L13.7641 16.1888C13.7522 16.2075 13.7515 16.2296 13.7622 16.249C13.7729 16.2684 13.7918 16.2796 13.814 16.2796H15.7314C15.7494 16.2796 15.7649 16.2868 15.7765 16.3005C15.7822 16.307 15.7863 16.3146 15.7886 16.3229C15.7909 16.3312 15.7913 16.34 15.7897 16.3484L15.2587 19.5364C15.2564 19.5499 15.2588 19.5638 15.2656 19.5756C15.2724 19.5875 15.2831 19.5966 15.2959 19.6013C15.3086 19.6063 15.3227 19.6067 15.3357 19.6024C15.3486 19.5981 15.3597 19.5894 15.3669 19.5779L18.2359 15.0666C18.2478 15.0479 18.2485 15.0259 18.2378 15.0065C18.2271 14.9871 18.2082 14.9758 18.186 14.9758H16.2686C16.26 14.9759 16.2514 14.9741 16.2436 14.9705C16.2358 14.9669 16.2289 14.9616 16.2235 14.9549C16.2178 14.9485 16.2137 14.9408 16.2114 14.9325C16.2091 14.9242 16.2087 14.9155 16.2103 14.907L16.7413 11.719C16.7436 11.7055 16.7412 11.6917 16.7344 11.6798C16.7276 11.668 16.7169 11.6589 16.7041 11.6541C16.6914 11.6491 16.6773 11.6488 16.6643 11.6531C16.6514 11.6574 16.6403 11.6661 16.6331 11.6776ZM22.409 17.6611C22.6817 18.358 22.9025 19.074 23.0695 19.8034C23.0737 19.8215 23.0697 19.8389 23.0581 19.8534C23.0466 19.8679 23.0306 19.8757 23.0119 19.8757H20.2309C20.218 19.8757 20.2055 19.8716 20.1952 19.8638C20.1849 19.856 20.1775 19.8451 20.174 19.8326C20.0004 19.2199 19.7804 18.6213 19.5159 18.0419C19.4614 17.9227 19.4396 17.799 19.4498 17.6777C19.451 17.6629 19.4577 17.6491 19.4686 17.6391C19.4795 17.6291 19.4938 17.6235 19.5086 17.6236H22.3539C22.3787 17.6236 22.4 17.638 22.409 17.6611ZM8.93039 19.8034C9.09746 19.074 9.31825 18.358 9.59094 17.6611C9.59515 17.65 9.60269 17.6404 9.61254 17.6337C9.62239 17.6269 9.63406 17.6234 9.64598 17.6236H12.4912C12.522 17.6236 12.5475 17.647 12.5501 17.6777C12.5603 17.799 12.5384 17.9227 12.484 18.0419C12.2195 18.6213 11.9995 19.2199 11.8259 19.8326C11.8225 19.8451 11.8151 19.856 11.8048 19.8638C11.7945 19.8716 11.7819 19.8758 11.7691 19.8757H8.98806C8.97915 19.8758 8.97034 19.8739 8.96232 19.87C8.95429 19.8661 8.94728 19.8604 8.94185 19.8534C8.93618 19.8465 8.93218 19.8384 8.93019 19.8297C8.92821 19.8211 8.92827 19.812 8.93039 19.8034Z" fill="#FF845E"></path></svg>