<svg xmlns="http://www.w3.org/2000/svg" width="36" height="36" viewBox="0 0 36 36" fill="none"><path d="M12.2597 19.2146V27.6012C12.2597 27.9079 12.0113 28.1563 11.7046 28.1563H2.90513C2.59841 28.1563 2.35001 27.9079 2.35001 27.6012V19.2146C2.35001 18.9079 2.59841 18.6595 2.90513 18.6595H11.7046C12.0113 18.6595 12.2597 18.9079 12.2597 19.2146ZM19.7668 18.6595H14.1202C13.973 18.6595 13.8318 18.718 13.7277 18.8221C13.6236 18.9262 13.5651 19.0674 13.5651 19.2146C13.5651 19.3618 13.6236 19.503 13.7277 19.6071C13.8318 19.7112 13.973 19.7697 14.1202 19.7697H19.7672C19.9144 19.7697 20.0556 19.7112 20.1596 19.607C20.2637 19.5029 20.3222 19.3617 20.3221 19.2144C20.3221 19.0672 20.2635 18.926 20.1594 18.822C20.0553 18.7179 19.914 18.6594 19.7668 18.6595ZM19.7668 21.1734H14.1202C13.973 21.1734 13.8318 21.2319 13.7277 21.336C13.6236 21.4401 13.5651 21.5813 13.5651 21.7285C13.5651 21.8757 13.6236 22.0169 13.7277 22.121C13.8318 22.2251 13.973 22.2836 14.1202 22.2836H19.7672C19.8401 22.2836 19.9123 22.2692 19.9796 22.2413C20.0469 22.2134 20.1081 22.1725 20.1596 22.1209C20.2112 22.0693 20.252 22.0081 20.2799 21.9408C20.3078 21.8734 20.3221 21.8012 20.3221 21.7283C20.3221 21.6554 20.3077 21.5832 20.2798 21.5159C20.2519 21.4486 20.211 21.3874 20.1594 21.3358C20.1078 21.2843 20.0466 21.2434 19.9793 21.2156C19.9119 21.1877 19.8397 21.1733 19.7668 21.1734ZM2.90513 17.6375H26.2202C26.3674 17.6375 26.5086 17.579 26.6127 17.4749C26.7168 17.3708 26.7753 17.2296 26.7753 17.0823C26.7753 16.9351 26.7168 16.7939 26.6127 16.6898C26.5086 16.5857 26.3674 16.5272 26.2202 16.5272H24.2243V14.7945C24.2243 14.4878 23.9759 14.2394 23.6692 14.2394H21.1179C20.8112 14.2394 20.5628 14.4878 20.5628 14.7945V16.5272H19.6703V9.80601C19.6703 9.49929 19.4219 9.25089 19.1152 9.25089H16.5639C16.2572 9.25089 16.0088 9.49929 16.0088 9.80601V16.5269H15.1185V14.5721C15.1185 14.2653 14.8701 14.0169 14.5634 14.0169H12.0121C11.7053 14.0169 11.4569 14.2653 11.4569 14.5721V16.5269H10.5645V9.46401C10.5645 9.15729 10.3161 8.90889 10.0094 8.90889H7.45805C7.15133 8.90889 6.90293 9.15729 6.90293 9.46401V16.5269H6.01265V12.204C6.01265 11.8973 5.76425 11.6489 5.45753 11.6489H2.90513C2.59841 11.6489 2.35001 11.8973 2.35001 12.204V17.082C2.35001 17.3887 2.59841 17.6375 2.90513 17.6375ZM35.8199 25.6773C35.8199 29.7745 32.4863 33.1074 28.3892 33.1074C26.4715 33.1087 24.6281 32.3659 23.2469 31.0356H0.735412C0.429052 31.0356 0.179932 30.7872 0.179932 30.4808V3.44769C0.179932 3.14133 0.428692 2.89221 0.735412 2.89221H28.3892C28.6963 2.89221 28.9447 3.14097 28.9447 3.44769V18.2671C32.7833 18.5522 35.8199 21.7663 35.8199 25.6773ZM7.83353 5.48781C7.83353 5.73021 7.9297 5.9627 8.10093 6.13426C8.27216 6.30583 8.50446 6.40245 8.74685 6.40293C8.98946 6.40293 9.22213 6.30656 9.39368 6.135C9.56523 5.96345 9.66161 5.73078 9.66161 5.48817C9.66161 5.24556 9.56523 5.01289 9.39368 4.84134C9.22213 4.66979 8.98946 4.57341 8.74685 4.57341C8.50452 4.5737 8.27222 4.67016 8.10097 4.84162C7.92972 5.01307 7.83353 5.24549 7.83353 5.48781ZM5.02121 5.48781C5.0214 5.73033 5.11778 5.96288 5.2892 6.13443C5.46062 6.30599 5.69309 6.40255 5.93561 6.40293C6.17822 6.40293 6.41089 6.30656 6.58244 6.135C6.75399 5.96345 6.85037 5.73078 6.85037 5.48817C6.85037 5.24556 6.75399 5.01289 6.58244 4.84134C6.41089 4.66979 6.17822 4.57341 5.93561 4.57341C5.69316 4.5736 5.46069 4.67 5.28924 4.84144C5.1178 5.01289 5.0214 5.24536 5.02121 5.48781ZM2.20817 5.48781C2.20817 5.99253 2.61857 6.40293 3.12329 6.40293C3.62801 6.40293 4.03841 5.99253 4.03841 5.48781C4.03173 5.24955 3.93238 5.02329 3.76149 4.85713C3.5906 4.69097 3.36165 4.598 3.12329 4.598C2.88494 4.598 2.65598 4.69097 2.48509 4.85713C2.3142 5.02329 2.21486 5.24955 2.20817 5.48781ZM1.29089 29.9257H22.2969C21.4246 28.6809 20.9574 27.1973 20.9591 25.6773C20.9591 21.7663 23.9957 18.5519 27.8348 18.2671V8.08305H1.29089V29.9257ZM31.8297 27.0903L28.9447 25.9553V20.9383C28.9447 20.7911 28.8862 20.6499 28.7821 20.5458C28.678 20.4417 28.5368 20.3832 28.3895 20.3832C28.2423 20.3832 28.1011 20.4417 27.997 20.5458C27.8929 20.6499 27.8344 20.7911 27.8344 20.9383V26.3333C27.8344 26.5615 27.9737 26.7667 28.1858 26.8506L31.4233 28.1235C31.5603 28.1774 31.7131 28.1747 31.8481 28.1159C31.9831 28.0572 32.0892 27.9472 32.1431 27.8102C32.197 27.6731 32.1942 27.5203 32.1355 27.3853C32.0767 27.2503 31.9667 27.1442 31.8297 27.0903ZM19.7668 23.6869H14.1202C13.973 23.6869 13.8318 23.7454 13.7277 23.8495C13.6236 23.9536 13.5651 24.0948 13.5651 24.242C13.5651 24.3892 13.6236 24.5304 13.7277 24.6345C13.8318 24.7386 13.973 24.7971 14.1202 24.7971H19.7672C19.9144 24.7971 20.0556 24.7386 20.1596 24.6344C20.2637 24.5303 20.3222 24.3891 20.3221 24.2418C20.3221 24.0946 20.2635 23.9534 20.1594 23.8494C20.0553 23.7453 19.914 23.6868 19.7668 23.6869Z" fill="#FF845E"></path></svg>