<svg xmlns="http://www.w3.org/2000/svg" width="60" height="60" viewBox="0 0 60 60" fill="none"><path fill-rule="evenodd" clip-rule="evenodd" d="M8.83599 17.0449C12.6844 18.7055 17.802 19.6195 23.2465 19.6195C28.6911 19.6195 33.8086 18.7055 37.6571 17.0449C41.2641 15.4887 43.3336 13.4145 43.3336 11.3531C43.3336 9.29297 41.2641 7.21875 37.6571 5.6625C33.8086 4.00312 28.6911 3.08789 23.2465 3.08789C17.802 3.08789 12.6844 4.00195 8.83599 5.6625C5.22896 7.21875 3.15942 9.29297 3.15942 11.3531V11.3555C3.1606 13.4156 5.22896 15.4887 8.83599 17.0449ZM44.8489 47.7879L47.8594 44.7773L46.445 43.5738C45.64 44.6267 44.6932 45.5629 43.6313 46.3559L44.8489 47.7879ZM45.7641 48.8613L48.9329 45.6926L55.9629 51.675C56.4915 52.125 56.7997 52.7824 56.829 53.5266C56.8629 54.3785 56.5243 55.248 55.9219 55.8504C55.3196 56.4527 54.45 56.7914 53.5981 56.7574C52.854 56.727 52.1965 56.4199 51.7465 55.8914L45.7641 48.8613ZM26.2266 34.9406C26.2266 30.0305 30.2215 26.0355 35.1317 26.0355C40.0418 26.0355 44.0368 30.0305 44.0368 34.9406C44.0368 39.8508 40.0418 43.8457 35.1317 43.8457C30.2215 43.8457 26.2266 39.8508 26.2266 34.9406ZM22.2997 34.9406C22.2997 27.8648 28.0559 22.1086 35.1317 22.1086C42.2075 22.1086 47.9637 27.8648 47.9637 34.9406C47.9637 42.0164 42.2075 47.7727 35.1317 47.7727C28.0559 47.7727 22.2997 42.0164 22.2997 34.9406ZM35.1317 45.252C29.4458 45.252 24.8204 40.6266 24.8204 34.9406C24.8204 29.2547 29.4458 24.6293 35.1317 24.6293C40.8176 24.6293 45.443 29.2547 45.443 34.9406C45.443 40.6266 40.8176 45.252 35.1317 45.252ZM21.4618 38.9238C16.2797 38.7363 11.4622 37.7344 7.84927 36.0867C5.77388 35.1398 4.19185 34.0207 3.15942 32.7926V38.25C3.15942 42.7301 12.3586 46.5152 23.2465 46.5152C24.402 46.5152 25.5504 46.473 26.6801 46.391C24.2063 44.5605 22.3442 41.9496 21.4618 38.9238ZM21.7899 29.9695C21.1958 31.5595 20.8921 33.2433 20.8934 34.9406C20.8934 35.8148 20.9731 36.6715 21.1254 37.5023C11.1399 37.0559 3.15942 33.4453 3.15942 29.284V23.8289C4.23638 25.1098 5.91333 26.2723 8.127 27.2449C11.802 28.8609 16.6208 29.8172 21.7899 29.9695ZM23.2465 21.0246C28.8786 21.0246 34.1942 20.0695 38.2137 18.3352C40.5036 17.3473 42.2321 16.1625 43.3336 14.8559V20.3191C43.3336 21.1289 43.0278 21.934 42.4243 22.7168C40.2903 21.4383 37.7954 20.7023 35.1317 20.7023C29.5665 20.7023 24.7383 23.9121 22.3981 28.5762C17.1915 28.4848 12.3387 27.5602 8.69302 25.957C5.17622 24.4125 3.15942 22.357 3.15942 20.318V14.8547C4.26099 16.1625 5.9895 17.3461 8.27935 18.334C12.2989 20.0695 17.6145 21.0246 23.2465 21.0246Z" fill="#FF845E"></path></svg>