<svg xmlns="http://www.w3.org/2000/svg" width="60" height="60" viewBox="0 0 60 60" fill="none"><path d="M38.142 50.7422H9.25781C6.09152 50.7422 3.51562 48.1663 3.51562 45C3.51562 41.8337 6.09152 39.2578 9.25781 39.2578H20.5078C25.6126 39.2578 29.7656 35.1048 29.7656 30C29.7656 24.8952 25.6126 20.7422 20.5078 20.7422H14.358C14.4709 21.311 14.5312 21.8985 14.5312 22.5C14.5312 23.1015 14.4709 23.689 14.358 24.2578H20.5078C23.6741 24.2578 26.25 26.8337 26.25 30C26.25 33.1663 23.6741 35.7422 20.5078 35.7422H9.25781C4.15301 35.7422 0 39.8952 0 45C0 50.1048 4.15301 54.2578 9.25781 54.2578H38.142C38.0291 53.689 37.9688 53.1015 37.9688 52.5C37.9688 51.8985 38.0291 51.311 38.142 50.7422ZM46.9922 46.9922C43.9552 46.9922 41.4844 49.463 41.4844 52.5C41.4844 55.537 43.9552 58.0078 46.9922 58.0078C50.0292 58.0078 52.5 55.537 52.5 52.5C52.5 49.463 50.0292 46.9922 46.9922 46.9922ZM16.7578 1.99219H5.50781C4.53703 1.99219 3.75 2.77922 3.75 3.75V17.2815C1.57266 18.017 0 20.0776 0 22.5C0 25.537 2.47078 28.0078 5.50781 28.0078C8.54484 28.0078 11.0156 25.537 11.0156 22.5C11.0156 20.0776 9.44297 18.017 7.26562 17.2815V13.0078H16.7578C17.7286 13.0078 18.5156 12.2208 18.5156 11.25V3.75C18.5156 2.77922 17.7286 1.99219 16.7578 1.99219ZM46.9922 5.74219C39.8196 5.74219 33.9844 11.5774 33.9844 18.75C33.9844 22.6232 35.6718 26.2317 38.628 28.7127L45.4261 42.0483C46.0772 43.3255 47.9073 43.3254 48.5583 42.0483L55.3563 28.7127C58.3126 26.2317 60 22.6232 60 18.75C60 11.5774 54.1648 5.74219 46.9922 5.74219ZM46.9922 24.2578C43.9552 24.2578 41.4844 21.787 41.4844 18.75C41.4844 15.713 43.9552 13.2422 46.9922 13.2422C50.0292 13.2422 52.5 15.713 52.5 18.75C52.5 21.787 50.0292 24.2578 46.9922 24.2578Z" fill="#FF845E"></path></svg>