<svg xmlns="http://www.w3.org/2000/svg" width="62" height="62" viewBox="0 0 62 62" fill="none"><rect x="1.5" y="1.5" width="59" height="59" rx="29.5" fill="white"></rect><rect x="1.5" y="1.5" width="59" height="59" rx="29.5" stroke="#FF845E" stroke-width="3"></rect><g clip-path="url(#clip0_878_933)"><path fill-rule="evenodd" clip-rule="evenodd" d="M40.2509 18.2172C41.4901 18.2172 42.504 19.2311 42.504 20.4703V22.5844H15.625V20.4703C15.625 19.2311 16.6389 18.2172 17.8781 18.2172H20.1868V16.25C20.1868 15.9058 20.4676 15.625 20.8118 15.625H22.4573C22.8016 15.625 23.0823 15.9058 23.0823 16.25V18.2173H27.6167V16.25C27.6167 15.9058 27.8975 15.625 28.2417 15.625H29.8872C30.2315 15.625 30.5122 15.9058 30.5122 16.25V18.2173H35.0467V16.25C35.0467 15.9058 35.3274 15.625 35.6717 15.625H37.3172C37.6614 15.625 37.9422 15.9058 37.9422 16.25V18.2173H40.2509V18.2172ZM45.9482 40.9539C44.6686 40.9539 44.0266 42.5041 44.9313 43.4088C45.0113 43.4889 45.0563 43.5974 45.0563 43.7106C45.0563 43.8238 45.0113 43.9324 44.9313 44.0124L44.0124 44.9314C43.9323 45.0114 43.8238 45.0564 43.7106 45.0564C43.5974 45.0564 43.4888 45.0114 43.4088 44.9314C42.504 44.0266 40.9538 44.6686 40.9538 45.9482C40.9538 46.0042 40.9428 46.0597 40.9213 46.1115C40.8999 46.1633 40.8685 46.2104 40.8288 46.25C40.7892 46.2896 40.7421 46.3211 40.6903 46.3425C40.6386 46.364 40.5831 46.375 40.527 46.375H39.2275C39.1714 46.375 39.1159 46.364 39.0642 46.3425C39.0124 46.3211 38.9653 46.2896 38.9257 46.25C38.886 46.2104 38.8546 46.1633 38.8332 46.1115C38.8117 46.0597 38.8007 46.0042 38.8007 45.9482C38.8007 44.6671 37.2516 44.0254 36.3458 44.9314C36.2657 45.0114 36.1571 45.0564 36.0439 45.0564C35.9307 45.0564 35.8222 45.0114 35.7421 44.9314L34.8232 44.0124C34.7432 43.9324 34.6983 43.8238 34.6983 43.7106C34.6983 43.5974 34.7432 43.4889 34.8232 43.4088C35.728 42.5041 35.0859 40.9539 33.8064 40.9539C33.7503 40.9539 33.6948 40.9428 33.643 40.9214C33.5912 40.9 33.5442 40.8685 33.5046 40.8289C33.4649 40.7892 33.4335 40.7422 33.412 40.6904C33.3906 40.6386 33.3796 40.5831 33.3796 40.5271V39.2276C33.3796 39.1716 33.3906 39.1161 33.412 39.0643C33.4335 39.0125 33.4649 38.9654 33.5046 38.9258C33.5442 38.8862 33.5912 38.8547 33.643 38.8333C33.6948 38.8118 33.7503 38.8008 33.8064 38.8008C35.0859 38.8008 35.728 37.2506 34.8232 36.3459C34.7432 36.2658 34.6983 36.1573 34.6983 36.0441C34.6983 35.9309 34.7432 35.8223 34.8232 35.7423L35.7421 34.8234C35.8222 34.7433 35.9307 34.6984 36.0439 34.6984C36.1571 34.6984 36.2657 34.7433 36.3458 34.8234C37.2505 35.7281 38.8007 35.0861 38.8007 33.8065C38.8007 33.7504 38.8117 33.6949 38.8332 33.6432C38.8546 33.5914 38.886 33.5443 38.9257 33.5047C38.9653 33.465 39.0124 33.4336 39.0642 33.4122C39.1159 33.3907 39.1714 33.3797 39.2275 33.3797H40.527C40.5831 33.3797 40.6386 33.3907 40.6903 33.4122C40.7421 33.4336 40.7892 33.465 40.8288 33.5047C40.8685 33.5443 40.8999 33.5914 40.9213 33.6432C40.9428 33.6949 40.9538 33.7504 40.9538 33.8065C40.9538 35.0861 42.504 35.7281 43.4088 34.8234C43.4888 34.7433 43.5974 34.6984 43.7106 34.6984C43.8238 34.6984 43.9323 34.7433 44.0124 34.8234L44.9313 35.7423C45.0113 35.8223 45.0563 35.9309 45.0563 36.0441C45.0563 36.1573 45.0113 36.2658 44.9313 36.3459C44.0266 37.2506 44.6686 38.8008 45.9482 38.8008C46.0042 38.8008 46.0597 38.8118 46.1115 38.8333C46.1633 38.8547 46.2104 38.8862 46.25 38.9258C46.2896 38.9654 46.3211 39.0125 46.3425 39.0643C46.364 39.1161 46.375 39.1716 46.375 39.2276V40.5271C46.375 40.5831 46.364 40.6386 46.3425 40.6904C46.3211 40.7422 46.2896 40.7892 46.25 40.8289C46.2104 40.8685 46.1633 40.9 46.1115 40.9214C46.0597 40.9428 46.0042 40.9539 45.9482 40.9539ZM39.8773 37.1554C38.374 37.1554 37.1554 38.374 37.1554 39.8773C37.1554 41.3805 38.374 42.5992 39.8773 42.5992C41.3805 42.5992 42.5991 41.3806 42.5991 39.8773C42.5991 38.374 41.3805 37.1554 39.8773 37.1554ZM42.504 23.8345H15.625V39.8906C15.625 41.1298 16.6389 42.1437 17.8781 42.1437H33.3601C32.6509 41.9481 32.1296 41.2983 32.1296 40.5271V39.2276C32.1296 38.302 32.8807 37.5508 33.8064 37.5508C33.9761 37.5508 34.0594 37.3497 33.9394 37.2297C33.2848 36.5752 33.2848 35.5128 33.9394 34.8583C34.2458 34.5521 34.552 34.2458 34.8582 33.9395C35.5127 33.2849 36.5751 33.2849 37.2296 33.9394C37.3496 34.0594 37.5507 33.9762 37.5507 33.8064C37.5507 32.8808 38.3019 32.1296 39.2275 32.1296H40.527C41.4526 32.1296 42.2038 32.8808 42.2038 33.8064C42.2038 33.9667 42.383 34.0498 42.504 33.9576V23.8345ZM25.2132 37.0983C25.2132 36.9262 25.3536 36.7858 25.5257 36.7858H27.1709C27.343 36.7858 27.4834 36.9262 27.4834 37.0983V38.7435C27.4834 38.9156 27.343 39.056 27.1709 39.056H25.5256C25.4428 39.0558 25.3634 39.0229 25.3048 38.9643C25.2463 38.9057 25.2133 38.8263 25.2131 38.7435L25.2132 37.0983ZM30.6457 32.1247C30.6457 31.9526 30.7861 31.8122 30.9582 31.8122H32.6034C32.7755 31.8122 32.9159 31.9526 32.9159 32.1247V33.7699C32.9159 33.9421 32.7755 34.0824 32.6034 34.0824H30.9582C30.8754 34.0823 30.796 34.0493 30.7374 33.9907C30.6788 33.9322 30.6459 33.8528 30.6457 33.7699V32.1247ZM19.7806 37.0983C19.7806 36.9262 19.921 36.7858 20.0931 36.7858H21.7384C21.9105 36.7858 22.0509 36.9262 22.0509 37.0983V38.7435C22.0509 38.9156 21.9105 39.056 21.7384 39.056H20.0931C20.0103 39.0558 19.9309 39.0229 19.8723 38.9643C19.8138 38.9057 19.7808 38.8263 19.7806 38.7435V37.0983ZM25.2132 27.0806C25.2132 26.9085 25.3536 26.7681 25.5257 26.7681H27.1709C27.343 26.7681 27.4834 26.9085 27.4834 27.0806V28.7259C27.4834 28.898 27.343 29.0384 27.1709 29.0384H25.5256C25.4428 29.0382 25.3634 29.0052 25.3048 28.9467C25.2463 28.8881 25.2133 28.8087 25.2131 28.7259L25.2132 27.0806ZM36.0782 27.0806C36.0782 26.9085 36.2186 26.7681 36.3907 26.7681H38.0359C38.208 26.7681 38.3484 26.9085 38.3484 27.0806V28.7259C38.3484 28.898 38.208 29.0384 38.0359 29.0384H36.3907C36.3079 29.0382 36.2285 29.0052 36.1699 28.9467C36.1113 28.8881 36.0784 28.8087 36.0782 28.7259V27.0806ZM30.6457 27.0806C30.6457 26.9085 30.7861 26.7681 30.9582 26.7681H32.6034C32.7755 26.7681 32.9159 26.9085 32.9159 27.0806V28.7259C32.9159 28.898 32.7755 29.0384 32.6034 29.0384H30.9582C30.8754 29.0382 30.796 29.0052 30.7374 28.9467C30.6788 28.8881 30.6459 28.8087 30.6457 28.7259V27.0806ZM19.7806 27.0806C19.7806 26.9085 19.921 26.7681 20.0931 26.7681H21.7384C21.9105 26.7681 22.0509 26.9085 22.0509 27.0806V28.7259C22.0509 28.898 21.9105 29.0384 21.7384 29.0384H20.0931C20.0103 29.0382 19.9309 29.0052 19.8723 28.9467C19.8138 28.8881 19.7808 28.8087 19.7806 28.7259V27.0806ZM25.2132 32.1247C25.2132 31.9526 25.3536 31.8122 25.5257 31.8122H27.1709C27.343 31.8122 27.4834 31.9526 27.4834 32.1247V33.7699C27.4834 33.9421 27.343 34.0824 27.1709 34.0824H25.5256C25.4428 34.0823 25.3634 34.0493 25.3048 33.9907C25.2463 33.9322 25.2133 33.8528 25.2131 33.7699L25.2132 32.1247ZM19.7806 32.1247C19.7806 31.9526 19.921 31.8122 20.0931 31.8122H21.7384C21.9105 31.8122 22.0509 31.9526 22.0509 32.1247V33.7699C22.0509 33.9421 21.9105 34.0824 21.7384 34.0824H20.0931C20.0103 34.0823 19.9309 34.0493 19.8723 33.9907C19.8138 33.9322 19.7808 33.8528 19.7806 33.7699V32.1247Z" fill="#FF845E"></path></g><defs><clipPath id="clip0_878_933"><rect width="32" height="32" fill="white" transform="translate(15 15)"></rect></clipPath></defs></svg>