<svg xmlns="http://www.w3.org/2000/svg" width="60" height="60" viewBox="0 0 60 60" fill="none"><path d="M54.7978 39.4809C54.4964 38.881 54.1376 38.3118 53.7262 37.7812C53.1874 37.0609 52.5592 36.412 51.8569 35.8499C51.4847 35.5473 51.0942 35.2677 50.6878 35.0128C48.9649 33.9373 46.9826 33.3493 44.952 33.3113C42.9214 33.2733 40.9184 33.7868 39.1566 34.7971C39.1026 34.8354 39.0462 34.8702 38.9878 34.9012C38.5107 35.1762 38.0581 35.4917 37.635 35.8443C36.3942 36.8457 35.3821 38.101 34.6666 39.5259C33.9511 40.9508 33.5487 42.5123 33.4866 44.1056C33.4721 44.2614 33.4662 44.4179 33.4688 44.5743C33.4688 44.7928 33.4772 45.0131 33.495 45.2306C33.6641 48.1589 34.9683 50.9059 37.1304 52.888C39.2925 54.8701 42.1423 55.9311 45.0742 55.8457C48.0061 55.7603 50.7892 54.5351 52.8323 52.4304C54.8753 50.3258 56.0173 47.5075 56.0156 44.5743C56.0187 44.4392 56.0144 44.304 56.0025 44.1693C55.9551 42.5363 55.5435 40.9345 54.7978 39.4809ZM40.5478 38.8809C40.5395 38.3247 40.6419 37.7725 40.8489 37.2562C41.056 36.74 41.3637 36.2701 41.754 35.8739C42.1444 35.4777 42.6096 35.163 43.1227 34.9482C43.6358 34.7335 44.1864 34.6229 44.7427 34.6229C45.2989 34.6229 45.8495 34.7335 46.3626 34.9482C46.8757 35.163 47.3409 35.4777 47.7313 35.8739C48.1216 36.2701 48.4293 36.74 48.6364 37.2562C48.8435 37.7725 48.9458 38.3247 48.9375 38.8809V43.8262C48.9458 44.3823 48.8435 44.9346 48.6364 45.4508C48.4293 45.9671 48.1216 46.437 47.7313 46.8332C47.3409 47.2294 46.8757 47.5441 46.3626 47.7588C45.8495 47.9736 45.2989 48.0842 44.7427 48.0842C44.1864 48.0842 43.6358 47.9736 43.1227 47.7588C42.6096 47.5441 42.1444 47.2294 41.754 46.8332C41.3637 46.437 41.056 45.9671 40.8489 45.4508C40.6419 44.9346 40.5395 44.3823 40.5478 43.8262V38.8809ZM45.6806 50.7928V52.5937H47.2744C47.523 52.5937 47.7615 52.6925 47.9373 52.8683C48.1131 53.0441 48.2119 53.2826 48.2119 53.5312C48.2119 53.7798 48.1131 54.0183 47.9373 54.1941C47.7615 54.3699 47.523 54.4687 47.2744 54.4687H42.2119C41.9632 54.4687 41.7248 54.3699 41.549 54.1941C41.3731 54.0183 41.2744 53.7798 41.2744 53.5312C41.2744 53.2826 41.3731 53.0441 41.549 52.8683C41.7248 52.6925 41.9632 52.5937 42.2119 52.5937H43.8056V50.7928C42.0812 50.5955 40.4877 49.7766 39.3235 48.4893C38.1592 47.202 37.5039 45.5345 37.4803 43.799C37.4803 43.5504 37.5791 43.3119 37.7549 43.1361C37.9307 42.9603 38.1692 42.8615 38.4178 42.8615C38.6665 42.8615 38.9049 42.9603 39.0807 43.1361C39.2565 43.3119 39.3553 43.5504 39.3553 43.799C39.4073 45.1932 39.9977 46.5129 41.0025 47.4808C42.0072 48.4487 43.348 48.9895 44.7431 48.9895C46.1382 48.9895 47.4791 48.4487 48.4838 47.4808C49.4885 46.5129 50.0789 45.1932 50.1309 43.799C50.1309 43.5504 50.2297 43.3119 50.4055 43.1361C50.5813 42.9603 50.8198 42.8615 51.0684 42.8615C51.3171 42.8615 51.5555 42.9603 51.7314 43.1361C51.9072 43.3119 52.0059 43.5504 52.0059 43.799C51.9821 45.5345 51.3268 47.2018 50.1626 48.4891C48.9983 49.7763 47.405 50.5953 45.6806 50.7928ZM28.8094 26.5556H31.1897V28.9368H28.8094V26.5556ZM7.5 26.5556H9.88125V28.9368H7.5V26.5556ZM7.5 34.9143H9.88125V37.2956H7.5V34.9143ZM7.5 18.1978H9.88125V20.579H7.5V18.1978ZM50.1187 26.5556H52.5V28.9368H50.1187V26.5556Z" fill="#FF845E"></path><path d="M47.0625 38.8809C47.0687 38.5724 47.0133 38.2657 46.8995 37.9788C46.7857 37.6919 46.6158 37.4306 46.3998 37.2102C46.1837 36.9897 45.9259 36.8146 45.6414 36.6951C45.3568 36.5756 45.0513 36.514 44.7427 36.514C44.434 36.514 44.1285 36.5756 43.844 36.6951C43.5594 36.8146 43.3016 36.9897 43.0855 37.2102C42.8695 37.4306 42.6996 37.6919 42.5858 37.9788C42.472 38.2657 42.4166 38.5724 42.4228 38.8809V40.4156H47.0625V38.8809ZM18.1547 34.9144H20.5359V37.2956H18.1547V34.9144ZM39.4641 18.1978H41.8453V20.5791H39.4641V18.1978ZM28.8094 18.1978H31.1897V20.5791H28.8094V18.1978ZM39.4641 26.5556H41.8453V28.9369H39.4641V26.5556ZM54.5044 35.7713L55.0669 35.1516H53.9062C53.9803 35.2238 54.0488 35.2997 54.1209 35.3738L54.2803 35.5378C54.3534 35.6166 54.4322 35.6916 54.5044 35.7713ZM44.7431 46.1466C45.3581 46.1456 45.9476 45.9008 46.3824 45.4658C46.8172 45.0309 47.0618 44.4412 47.0625 43.8263V42.2906H42.4228V43.8263C42.4236 44.4414 42.6683 45.0312 43.1032 45.4661C43.5382 45.9011 44.128 46.1458 44.7431 46.1466ZM18.1547 26.5556H20.5359V28.9369H18.1547V26.5556ZM53.9531 4.14844H6.04687C5.43793 4.14918 4.85415 4.39141 4.42356 4.822C3.99297 5.25258 3.75074 5.83637 3.75 6.44531V12.3638H56.2406V6.44531C56.2414 5.83754 56.0009 5.2543 55.572 4.82366C55.1431 4.39302 54.5609 4.15018 53.9531 4.14844ZM7.83656 8.19375C7.79162 8.30795 7.72143 8.41051 7.63125 8.49375C7.45556 8.66865 7.21775 8.76683 6.96984 8.76683C6.72194 8.76683 6.48413 8.66865 6.30844 8.49375C6.21885 8.41 6.14876 8.30758 6.10313 8.19375C6.05676 8.07754 6.03413 7.95322 6.03656 7.82813C6.03505 7.70615 6.05767 7.58508 6.10313 7.47187C6.18883 7.27327 6.33929 7.10954 6.52997 7.00739C6.72064 6.90525 6.9403 6.8707 7.15313 6.90937C7.21358 6.92341 7.27283 6.94222 7.33031 6.96562C7.3875 6.99375 7.44281 7.02187 7.49062 7.05C7.54146 7.08547 7.58857 7.12598 7.63125 7.17094C7.7182 7.25729 7.78788 7.35942 7.83656 7.47187C7.88515 7.58441 7.91065 7.70555 7.91156 7.82813C7.9116 7.95382 7.88609 8.07822 7.83656 8.19375ZM12.3 8.49375C12.215 8.58149 12.1129 8.65087 12 8.69763C11.8872 8.74439 11.7659 8.76753 11.6438 8.76563C11.5218 8.76746 11.4008 8.74516 11.2875 8.7C11.1707 8.65445 11.0651 8.58408 10.9781 8.49375C10.8908 8.40646 10.8218 8.30263 10.7751 8.18833C10.7284 8.07404 10.705 7.95158 10.7063 7.82813C10.7039 7.70617 10.7263 7.585 10.7719 7.47187C10.8243 7.36129 10.8939 7.25972 10.9781 7.17094C11.0632 7.07859 11.1694 7.00816 11.2875 6.96562C11.5157 6.87186 11.7718 6.87186 12 6.96562C12.1141 7.01068 12.2167 7.08085 12.3 7.17094C12.3902 7.25475 12.4606 7.35753 12.5063 7.47187C12.5802 7.6429 12.6002 7.83247 12.5633 8.01514C12.5264 8.1978 12.4345 8.36482 12.3 8.49375ZM17.1844 8.19375C17.1353 8.30619 17.065 8.40807 16.9772 8.49375C16.8942 8.58399 16.792 8.65447 16.6781 8.7C16.5613 8.74527 16.4368 8.76755 16.3116 8.76563C16.19 8.76739 16.0692 8.74508 15.9563 8.7C15.8442 8.65073 15.7424 8.58076 15.6563 8.49375C15.5677 8.40692 15.4972 8.30338 15.4489 8.18912C15.4006 8.07487 15.3755 7.95216 15.375 7.82813C15.3778 7.70576 15.4032 7.58497 15.45 7.47187C15.4963 7.35763 15.567 7.25491 15.6572 7.17094C15.6977 7.12379 15.7451 7.08302 15.7978 7.05C15.8437 7.02187 15.9009 6.99375 15.9572 6.96562C16.0134 6.9375 16.0697 6.92812 16.1353 6.90937C16.2565 6.89062 16.3798 6.89062 16.5009 6.90937C16.5572 6.92812 16.6219 6.94687 16.6791 6.96562C16.7363 6.98437 16.7813 7.02187 16.8384 7.05C16.8873 7.08764 16.9339 7.12801 16.9781 7.17094C17.0673 7.25486 17.1376 7.35675 17.1845 7.46988C17.2314 7.58301 17.2537 7.70479 17.25 7.82719C17.2529 7.95253 17.2305 8.07718 17.1844 8.19375ZM50.1187 18.1978H52.5V20.5791H50.1187V18.1978ZM18.1547 18.1978H20.5359V20.5791H18.1547V18.1978ZM28.8094 34.9144H31.1897V37.2956H28.8094V34.9144Z" fill="#FF845E"></path><path d="M3.75 42.0703C3.75074 42.6793 3.99297 43.2631 4.42356 43.6936C4.85415 44.1242 5.43793 44.3665 6.04687 44.3672H31.6022C31.6022 44.2331 31.6022 44.0991 31.6181 43.965C31.6857 42.1017 32.166 40.2765 33.0244 38.6213C33.8506 36.9775 35.022 35.5314 36.4584 34.3819C36.9443 33.9798 37.4619 33.6176 38.0063 33.2991C38.022 33.2886 38.0383 33.2789 38.055 33.27C38.1219 33.2252 38.191 33.1839 38.2622 33.1463C40.2736 31.9992 42.5535 31.4067 44.8689 31.4295C47.1843 31.4522 49.4521 32.0893 51.4406 33.2756H56.2406V14.2388H3.75V42.0703ZM48.2437 17.2603C48.2437 17.0117 48.3425 16.7732 48.5183 16.5974C48.6942 16.4216 48.9326 16.3228 49.1812 16.3228H53.4375C53.6861 16.3228 53.9246 16.4216 54.1004 16.5974C54.2762 16.7732 54.375 17.0117 54.375 17.2603V21.5166C54.375 21.7652 54.2762 22.0037 54.1004 22.1795C53.9246 22.3553 53.6861 22.4541 53.4375 22.4541H49.1812C48.9326 22.4541 48.6942 22.3553 48.5183 22.1795C48.3425 22.0037 48.2437 21.7652 48.2437 21.5166V17.2603ZM48.2437 25.6181C48.2437 25.3695 48.3425 25.131 48.5183 24.9552C48.6942 24.7794 48.9326 24.6806 49.1812 24.6806H53.4375C53.6861 24.6806 53.9246 24.7794 54.1004 24.9552C54.2762 25.131 54.375 25.3695 54.375 25.6181V29.8744C54.375 30.123 54.2762 30.3615 54.1004 30.5373C53.9246 30.7131 53.6861 30.8119 53.4375 30.8119H49.1812C48.9326 30.8119 48.6942 30.7131 48.5183 30.5373C48.3425 30.3615 48.2437 30.123 48.2437 29.8744V25.6181ZM37.5937 17.2603C37.5937 17.0117 37.6925 16.7732 37.8683 16.5974C38.0442 16.4216 38.2826 16.3228 38.5312 16.3228H42.7875C43.0361 16.3228 43.2746 16.4216 43.4504 16.5974C43.6262 16.7732 43.725 17.0117 43.725 17.2603V21.5166C43.725 21.7652 43.6262 22.0037 43.4504 22.1795C43.2746 22.3553 43.0361 22.4541 42.7875 22.4541H38.5312C38.2826 22.4541 38.0442 22.3553 37.8683 22.1795C37.6925 22.0037 37.5937 21.7652 37.5937 21.5166V17.2603ZM37.5937 25.6181C37.5937 25.3695 37.6925 25.131 37.8683 24.9552C38.0442 24.7794 38.2826 24.6806 38.5312 24.6806H42.7875C43.0361 24.6806 43.2746 24.7794 43.4504 24.9552C43.6262 25.131 43.725 25.3695 43.725 25.6181V29.8744C43.725 30.123 43.6262 30.3615 43.4504 30.5373C43.2746 30.7131 43.0361 30.8119 42.7875 30.8119H38.5312C38.2826 30.8119 38.0442 30.7131 37.8683 30.5373C37.6925 30.3615 37.5937 30.123 37.5937 29.8744V25.6181ZM26.9344 17.2603C26.9344 17.0117 27.0331 16.7732 27.209 16.5974C27.3848 16.4216 27.6232 16.3228 27.8719 16.3228H32.1281C32.3768 16.3228 32.6152 16.4216 32.791 16.5974C32.9669 16.7732 33.0656 17.0117 33.0656 17.2603V21.5166C33.0656 21.7652 32.9669 22.0037 32.791 22.1795C32.6152 22.3553 32.3768 22.4541 32.1281 22.4541H27.8719C27.6232 22.4541 27.3848 22.3553 27.209 22.1795C27.0331 22.0037 26.9344 21.7652 26.9344 21.5166V17.2603ZM26.9344 25.6181C26.9344 25.3695 27.0331 25.131 27.209 24.9552C27.3848 24.7794 27.6232 24.6806 27.8719 24.6806H32.1281C32.3768 24.6806 32.6152 24.7794 32.791 24.9552C32.9669 25.131 33.0656 25.3695 33.0656 25.6181V29.8744C33.0656 30.123 32.9669 30.3615 32.791 30.5373C32.6152 30.7131 32.3768 30.8119 32.1281 30.8119H27.8719C27.6232 30.8119 27.3848 30.7131 27.209 30.5373C27.0331 30.3615 26.9344 30.123 26.9344 29.8744V25.6181ZM26.9344 33.9769C26.9344 33.7283 27.0331 33.4898 27.209 33.314C27.3848 33.1382 27.6232 33.0394 27.8719 33.0394H32.1281C32.3768 33.0394 32.6152 33.1382 32.791 33.314C32.9669 33.4898 33.0656 33.7283 33.0656 33.9769V38.2331C33.0656 38.4818 32.9669 38.7202 32.791 38.8961C32.6152 39.0719 32.3768 39.1706 32.1281 39.1706H27.8719C27.6232 39.1706 27.3848 39.0719 27.209 38.8961C27.0331 38.7202 26.9344 38.4818 26.9344 38.2331V33.9769ZM16.2797 17.2603C16.2797 17.0117 16.3785 16.7732 16.5543 16.5974C16.7301 16.4216 16.9685 16.3228 17.2172 16.3228H21.4734C21.7221 16.3228 21.9605 16.4216 22.1363 16.5974C22.3122 16.7732 22.4109 17.0117 22.4109 17.2603V21.5166C22.4109 21.7652 22.3122 22.0037 22.1363 22.1795C21.9605 22.3553 21.7221 22.4541 21.4734 22.4541H17.2172C16.9685 22.4541 16.7301 22.3553 16.5543 22.1795C16.3785 22.0037 16.2797 21.7652 16.2797 21.5166V17.2603ZM16.2797 25.6181C16.2797 25.3695 16.3785 25.131 16.5543 24.9552C16.7301 24.7794 16.9685 24.6806 17.2172 24.6806H21.4734C21.7221 24.6806 21.9605 24.7794 22.1363 24.9552C22.3122 25.131 22.4109 25.3695 22.4109 25.6181V29.8744C22.4109 30.123 22.3122 30.3615 22.1363 30.5373C21.9605 30.7131 21.7221 30.8119 21.4734 30.8119H17.2172C16.9685 30.8119 16.7301 30.7131 16.5543 30.5373C16.3785 30.3615 16.2797 30.123 16.2797 29.8744V25.6181ZM16.2797 33.9769C16.2797 33.7283 16.3785 33.4898 16.5543 33.314C16.7301 33.1382 16.9685 33.0394 17.2172 33.0394H21.4734C21.7221 33.0394 21.9605 33.1382 22.1363 33.314C22.3122 33.4898 22.4109 33.7283 22.4109 33.9769V38.2331C22.4109 38.4818 22.3122 38.7202 22.1363 38.8961C21.9605 39.0719 21.7221 39.1706 21.4734 39.1706H17.2172C16.9685 39.1706 16.7301 39.0719 16.5543 38.8961C16.3785 38.7202 16.2797 38.4818 16.2797 38.2331V33.9769ZM5.625 17.2603C5.625 17.0117 5.72377 16.7732 5.89959 16.5974C6.0754 16.4216 6.31386 16.3228 6.5625 16.3228H10.8187C11.0674 16.3228 11.3058 16.4216 11.4817 16.5974C11.6575 16.7732 11.7562 17.0117 11.7562 17.2603V21.5166C11.7562 21.7652 11.6575 22.0037 11.4817 22.1795C11.3058 22.3553 11.0674 22.4541 10.8187 22.4541H6.5625C6.31386 22.4541 6.0754 22.3553 5.89959 22.1795C5.72377 22.0037 5.625 21.7652 5.625 21.5166V17.2603ZM5.625 25.6181C5.625 25.3695 5.72377 25.131 5.89959 24.9552C6.0754 24.7794 6.31386 24.6806 6.5625 24.6806H10.8187C11.0674 24.6806 11.3058 24.7794 11.4817 24.9552C11.6575 25.131 11.7562 25.3695 11.7562 25.6181V29.8744C11.7562 30.123 11.6575 30.3615 11.4817 30.5373C11.3058 30.7131 11.0674 30.8119 10.8187 30.8119H6.5625C6.31386 30.8119 6.0754 30.7131 5.89959 30.5373C5.72377 30.3615 5.625 30.123 5.625 29.8744V25.6181ZM5.625 33.9769C5.625 33.7283 5.72377 33.4898 5.89959 33.314C6.0754 33.1382 6.31386 33.0394 6.5625 33.0394H10.8187C11.0674 33.0394 11.3058 33.1382 11.4817 33.314C11.6575 33.4898 11.7562 33.7283 11.7562 33.9769V38.2331C11.7562 38.4818 11.6575 38.7202 11.4817 38.8961C11.3058 39.0719 11.0674 39.1706 10.8187 39.1706H6.5625C6.31386 39.1706 6.0754 39.0719 5.89959 38.8961C5.72377 38.7202 5.625 38.4818 5.625 38.2331V33.9769Z" fill="#FF845E"></path></svg>