<svg xmlns="http://www.w3.org/2000/svg" width="62" height="62" viewBox="0 0 62 62" fill="none"><rect x="1.5" y="1.5" width="59" height="59" rx="29.5" fill="white"></rect><rect x="1.5" y="1.5" width="59" height="59" rx="29.5" stroke="#FF845E" stroke-width="3"></rect><path d="M30.9537 16.6484C28.384 16.6484 26.2507 18.7333 26.2507 21.303C26.2507 23.8727 28.3356 25.9575 30.9537 25.9575C33.5234 25.9575 35.6568 23.8727 35.6568 21.303C35.6568 18.7333 33.5719 16.6484 30.9537 16.6484ZM33.0386 22.709C32.9416 22.8545 32.7962 22.903 32.6507 22.903C32.5537 22.903 32.4568 22.8545 32.3598 22.806L30.7113 21.6909C30.5659 21.5939 30.5174 21.4484 30.5174 21.303V19.3636C30.5174 19.0727 30.7113 18.8787 31.0022 18.8787C31.2447 18.8787 31.4871 19.0727 31.4871 19.3636V21.109L32.9416 22.0787C33.0871 22.2242 33.184 22.5151 33.0386 22.709ZM44.481 25.2787C44.481 26.5878 43.4143 27.6545 42.1053 27.6545C40.7962 27.6545 39.7295 26.5878 39.7295 25.2787C39.7295 23.9697 40.7962 22.903 42.1053 22.903C43.4143 22.903 44.481 23.9697 44.481 25.2787ZM44.7719 30.2727L43.9477 38.903C43.8992 39.4363 43.5113 39.8727 43.0265 40.0181L40.3598 40.7454L39.0507 44.1878C38.8083 44.8666 38.1295 45.303 37.4022 45.303H37.1598C36.675 45.206 36.2386 44.9636 35.9477 44.5272C35.6568 44.0909 35.5598 43.606 35.7053 43.1212L36.8204 38.6606C36.9174 38.2242 37.2568 37.8848 37.6447 37.7393L39.681 37.0606C39.8265 37.0121 39.9234 36.8666 39.9234 36.7212L39.681 32.6484C39.681 32.503 39.584 32.4545 39.5356 32.406C39.4871 32.3575 39.3901 32.309 39.2447 32.3575L36.0931 33.2303H36.0447C35.7537 33.2787 35.4143 33.2303 35.1234 33.1333C34.784 32.9878 34.5416 32.7454 34.3477 32.4545C34.2022 32.1151 34.2022 31.7272 34.3477 31.3878C34.5416 31 34.9295 30.7575 35.3659 30.6606C37.2083 30.0787 40.3598 29.1575 40.6022 29.109L43.2689 28.8181C43.6568 28.7697 44.0447 28.9151 44.3356 29.206C44.675 29.4969 44.8204 29.8363 44.7719 30.2727ZM22.4204 25.7151C22.4204 27.0242 21.3537 28.0909 20.0447 28.0909C18.7356 28.0909 17.6689 27.0242 17.6689 25.7151C17.6689 24.406 18.7356 23.3393 20.0447 23.3393C21.3537 23.3393 22.4204 24.4545 22.4204 25.7151ZM27.7053 32.503C27.5598 32.7939 27.2689 33.0363 26.9295 33.1818C26.6386 33.2787 26.2992 33.3272 26.0083 33.2787H25.9598L22.7598 32.406C22.6628 32.406 22.5659 32.4545 22.5174 32.503C22.4689 32.5515 22.4204 32.6 22.3719 32.7454L22.1295 36.8181C22.1295 36.9636 22.2265 37.109 22.3234 37.1575L24.3598 37.8363C24.7962 37.9818 25.0871 38.3212 25.184 38.7575L26.3477 43.2181C26.4447 43.703 26.3962 44.1878 26.1053 44.6242C25.8143 45.0606 25.378 45.303 24.8931 45.4H24.6507C23.9234 45.4 23.2447 44.9636 23.0022 44.2848L21.6931 40.8424L19.0265 40.1151C18.4931 39.9696 18.1537 39.5333 18.1053 39L17.3295 30.2727C17.281 29.8848 17.4265 29.4969 17.7174 29.2545C18.0083 28.9636 18.3962 28.8666 18.784 28.9151L21.4507 29.206C21.6931 29.2545 24.8447 30.1757 26.6871 30.7575C27.1719 30.8545 27.5113 31.1454 27.7053 31.4848C27.8507 31.7757 27.8507 32.1636 27.7053 32.503Z" fill="#FF845E"></path><path d="M36.2858 33.5701H25.6191C25.3767 33.5701 25.1342 33.8125 25.1342 34.0549V36.2368C25.1342 36.4792 25.3767 36.7216 25.6191 36.7216H26.9767V44.6246C26.9767 44.8671 27.2191 45.1095 27.4615 45.1095H34.4433C34.7342 45.1095 34.9282 44.8671 34.9282 44.6246V36.7216H36.2858C36.5282 36.7216 36.7706 36.4792 36.7706 36.2368V34.0549C36.7706 33.764 36.5767 33.5701 36.2858 33.5701ZM33.9585 44.1398H27.9464V36.7216H33.9585V44.1398ZM46.1282 32.7943C45.8858 32.7459 45.5948 32.8913 45.5464 33.1822L44.2858 39.3883C44.0433 40.4549 43.1221 41.2307 42.007 41.2307H40.7948C40.5524 41.2307 40.31 41.4731 40.31 41.7156C40.31 41.958 40.5524 42.2004 40.7948 42.2004H41.91V44.1883H40.7948C40.5524 44.1883 40.31 44.4307 40.31 44.6731C40.31 44.9156 40.5524 45.158 40.7948 45.158H43.9464C44.1888 45.158 44.4312 44.9156 44.4312 44.6731C44.4312 44.4307 44.1888 44.1883 43.9464 44.1883H42.8312V42.0549C43.9948 41.7156 44.9645 40.7943 45.207 39.5822L46.5161 33.3762C46.5645 33.1337 46.3706 32.8428 46.1282 32.7943ZM21.207 42.2004C21.4979 42.2004 21.6918 41.958 21.6918 41.7156C21.6918 41.4731 21.4979 41.2307 21.207 41.2307H19.9464C18.8797 41.2307 17.91 40.4549 17.6676 39.3883L16.4554 33.1822C16.407 32.9398 16.1645 32.7459 15.8736 32.7943C15.5827 32.8428 15.4373 33.1337 15.4858 33.3762L16.7464 39.5822C16.9888 40.7943 17.9585 41.764 19.1221 42.0549V44.1883H18.007C17.7161 44.1883 17.5221 44.4307 17.5221 44.6731C17.5221 44.9156 17.7161 45.158 18.007 45.158H21.207C21.4979 45.158 21.6918 44.9156 21.6918 44.6731C21.6918 44.4307 21.4979 44.1883 21.207 44.1883H20.0918V42.2004H21.207Z" fill="#FF845E"></path><path d="M30.9536 42.9268C31.1961 42.9268 31.4385 42.6844 31.4385 42.442V38.3208C31.4385 38.0784 31.1961 37.8359 30.9536 37.8359C30.7112 37.8359 30.4688 38.0784 30.4688 38.3208V42.442C30.4688 42.6844 30.7112 42.9268 30.9536 42.9268ZM29.3052 42.9268C29.5476 42.9268 29.79 42.6844 29.79 42.442V39.242C29.79 38.9996 29.5476 38.7572 29.3052 38.7572C29.0627 38.7572 28.8203 38.9996 28.8203 39.242V42.442C28.8203 42.6844 29.0627 42.9268 29.3052 42.9268ZM32.5536 42.9268C32.7961 42.9268 33.0385 42.6844 33.0385 42.442V39.242C33.0385 38.9996 32.7961 38.7572 32.5536 38.7572C32.3112 38.7572 32.0688 38.9996 32.0688 39.242V42.442C32.0688 42.6844 32.2627 42.9268 32.5536 42.9268Z" fill="#FF845E"></path></svg>