<svg xmlns="http://www.w3.org/2000/svg" width="36" height="36" viewBox="0 0 36 36" fill="none"><path d="M10.3758 16.4752C10.4715 16.2333 10.5847 15.9977 10.7133 15.7706C10.8469 15.5344 10.9967 15.3066 11.1619 15.0893C12.095 13.8623 13.4422 13.0573 14.9356 12.814C15.7646 11.1413 17.4704 10.062 19.3878 10.062C19.7211 10.062 20.0501 10.0943 20.3722 10.159C20.8208 9.51633 21.3882 8.96579 22.0484 8.53266C22.396 8.30502 22.7653 8.11236 23.1509 7.9575C22.2481 7.18758 21.0879 6.7411 19.8729 6.73618C19.6838 4.10649 17.4837 2.02454 14.8069 2.02454C12.8438 2.02454 11.0818 3.14743 10.2394 4.87711C9.76424 4.67521 9.25315 4.57141 8.73685 4.57196C7.04442 4.57196 5.57208 5.67305 5.07146 7.24946C2.49239 7.34297 0.423096 9.46993 0.423096 12.0708C0.423096 14.7314 2.58731 16.8956 5.24794 16.8956H10.2254C10.2697 16.7543 10.3203 16.6137 10.3758 16.4752ZM17.4584 7.96172C17.4254 7.96735 17.393 7.97016 17.3607 7.97016C17.0928 7.97016 16.8551 7.77751 16.8073 7.50469C16.6372 6.54001 15.9193 5.80383 14.9778 5.63016C14.1558 5.47829 13.5469 5.6161 13.0618 6.06469C12.8333 6.27563 12.4775 6.26086 12.2665 6.03305C12.0556 5.80454 12.0704 5.44875 12.2982 5.23782C13.0456 4.54805 14.0159 4.30829 15.1824 4.52344C16.59 4.7843 17.663 5.87766 17.9147 7.30993C17.9689 7.61579 17.7643 7.90758 17.4584 7.96172ZM4.53005 14.4502C4.47743 14.5117 4.41209 14.5611 4.33853 14.595C4.26497 14.6289 4.18494 14.6464 4.10395 14.6463C3.9692 14.6464 3.83892 14.598 3.73692 14.5099C3.00216 13.8771 2.58099 12.9673 2.58099 12.0131C2.58099 11.1363 2.92833 10.3081 3.55833 9.68227C3.77841 9.4629 4.13489 9.4643 4.35356 9.68438C4.57294 9.90446 4.57153 10.2609 4.35146 10.4796C3.9352 10.8931 3.70599 11.438 3.70599 12.0131C3.70599 12.6396 3.98513 13.2387 4.47099 13.657C4.70653 13.8595 4.73325 14.2153 4.53005 14.4502ZM35.5808 18.4306C35.5808 15.637 33.3146 13.3631 30.5239 13.3505C30.334 10.7215 28.134 8.63954 25.4572 8.63954C24.9474 8.63954 24.451 8.71547 23.9806 8.85821C23.6094 8.97028 23.2525 9.12482 22.9168 9.31876C22.0394 9.82428 21.3336 10.581 20.8904 11.4914C20.415 11.2901 19.904 11.1865 19.3878 11.187C17.6954 11.187 16.2223 12.2881 15.7217 13.8645C14.2283 13.9186 12.9057 14.6548 12.057 15.7706C11.7946 16.1151 11.58 16.4935 11.4193 16.8956C11.1964 17.449 11.074 18.0537 11.074 18.6858C11.074 21.3464 13.2383 23.5106 15.8982 23.5106H16.8495V19.23C16.8495 18.2998 17.6068 17.5425 18.537 17.5425C19.4672 17.5425 20.2245 18.2998 20.2245 19.23V21.2606H20.3433V19.3678C20.3433 18.4376 21.1006 17.6803 22.0308 17.6803C22.9611 17.6803 23.7183 18.4376 23.7183 19.3678V21.2606H23.8365V19.23C23.8365 18.2998 24.5937 17.5425 25.524 17.5425C26.4542 17.5425 27.2115 18.2998 27.2115 19.23V23.5106H30.5014C33.3019 23.5106 35.5808 21.2318 35.5808 18.4306ZM15.0045 16.2994C15.2232 16.5195 15.2225 16.8759 15.0017 17.0946C14.5861 17.5081 14.3569 18.053 14.3569 18.6281C14.3569 19.2546 14.6354 19.8537 15.1212 20.272C15.2343 20.3693 15.3042 20.5075 15.3154 20.6562C15.3266 20.805 15.2782 20.9521 15.181 21.0652C15.1585 21.0919 15.1339 21.1151 15.1072 21.1362C15.0072 21.2168 14.8826 21.2607 14.7542 21.2606C14.6241 21.2606 14.494 21.2163 14.3872 21.1249C13.6531 20.4921 13.2319 19.5823 13.2319 18.6281C13.2319 17.7513 13.5786 16.9231 14.2086 16.2966C14.3109 16.1951 14.4482 16.1368 14.5923 16.1336C14.7363 16.1305 14.8761 16.1828 14.9827 16.2797C14.9904 16.2853 14.9975 16.2923 15.0045 16.2994ZM25.628 12.2452C24.8068 12.0933 24.1979 12.2311 23.712 12.6797C23.4835 12.8899 23.1277 12.8759 22.9168 12.6481C22.8978 12.627 22.8802 12.6052 22.8647 12.582C22.7892 12.4704 22.7562 12.3355 22.7717 12.2017C22.7872 12.0679 22.8501 11.9441 22.9491 11.8528C23.3344 11.497 23.7788 11.2608 24.2787 11.1455C24.3061 11.1328 24.3336 11.1209 24.3617 11.1089L24.4686 11.0723L24.4875 11.0597C24.7983 10.9465 25.1239 10.8895 25.4572 10.8895C26.6454 10.8895 27.6657 11.6257 28.084 12.6663C28.3189 13.0397 28.4848 13.4651 28.5657 13.9249C28.6022 14.1345 28.5179 14.3377 28.3625 14.4614C28.2893 14.5207 28.2021 14.5601 28.1093 14.576C28.0763 14.5823 28.0433 14.5852 28.0109 14.5852C27.743 14.5852 27.5054 14.3925 27.4575 14.1197C27.2881 13.155 26.5695 12.4188 25.628 12.2452ZM34.4522 28.3699C34.4522 29.2889 33.7048 30.037 32.7858 30.037C31.9533 30.037 31.2608 29.4225 31.1384 28.6238L31.1363 28.6097C31.1328 28.5865 31.13 28.5633 31.1279 28.5401C31.1258 28.5169 31.1236 28.4937 31.1229 28.4698C31.1222 28.4677 31.1222 28.4656 31.1222 28.4634C31.1215 28.4599 31.1215 28.4557 31.1215 28.4522C31.1201 28.4248 31.1194 28.3973 31.1194 28.3699C31.1194 28.3432 31.1201 28.3172 31.1215 28.2912C31.1215 28.2863 31.1215 28.2813 31.1222 28.2764C31.1229 28.2623 31.1236 28.2483 31.125 28.2342C31.1272 28.2061 31.13 28.178 31.1342 28.1506C31.1363 28.133 31.1391 28.1154 31.1419 28.0978C31.1461 28.0711 31.1518 28.0444 31.1574 28.0177C31.1626 27.9924 31.1687 27.9673 31.1757 27.9424C31.1757 27.9403 31.1764 27.9375 31.1771 27.9354C31.3683 27.2266 32.0173 26.7035 32.7858 26.7035C33.7048 26.7035 34.4522 27.4509 34.4522 28.3699ZM30.0908 27.6422C30.0267 27.8795 29.9944 28.1242 29.9944 28.3699C29.9944 28.5049 30.0043 28.6378 30.0225 28.7672H25.524C25.2132 28.7672 24.9615 28.5155 24.9615 28.2047V19.23C24.9615 18.9192 25.2132 18.6675 25.524 18.6675C25.8347 18.6675 26.0865 18.9192 26.0865 19.23V27.6422H30.0908ZM19.0995 19.23V28.2047C19.0995 28.5155 18.8478 28.7672 18.537 28.7672H14.0391C14.044 28.7299 14.049 28.6927 14.0525 28.6554C14.0532 28.6547 14.0532 28.654 14.0525 28.6533V28.6526C14.056 28.6195 14.0588 28.5865 14.0609 28.5527C14.063 28.5253 14.0644 28.4979 14.0651 28.4705C14.0665 28.4374 14.0672 28.4037 14.0672 28.3699C14.0672 28.3151 14.0651 28.2581 14.0616 28.1956L14.0581 28.1421C14.056 28.1161 14.0532 28.0894 14.0504 28.0634C14.0475 28.0373 14.0447 28.0113 14.0405 27.9853C14.0335 27.9333 14.025 27.882 14.0145 27.8313C14.0089 27.8032 14.0025 27.7751 13.9962 27.747C13.9913 27.7252 13.9864 27.7041 13.9808 27.683C13.9779 27.6689 13.9744 27.6556 13.9709 27.6422H17.9745V19.23C17.9745 18.9192 18.2262 18.6675 18.537 18.6675C18.8478 18.6675 19.0995 18.9192 19.0995 19.23ZM12.9387 28.2623C12.9408 28.2982 12.9422 28.3341 12.9422 28.3699C12.9422 28.4037 12.9415 28.4367 12.9394 28.4698C12.9364 28.5213 12.931 28.5727 12.9233 28.6238C12.8002 29.4225 12.1076 30.037 11.2751 30.037C10.3561 30.037 9.60872 29.2889 9.60872 28.3699C9.60872 27.4509 10.3561 26.7035 11.2751 26.7035C12.038 26.7035 12.6835 27.2182 12.8804 27.9192C12.8867 27.9424 12.893 27.9656 12.8979 27.9888C12.9015 28.0022 12.9043 28.0163 12.9071 28.0303C12.9113 28.0507 12.9148 28.0711 12.919 28.0915C12.9282 28.1481 12.9348 28.2051 12.9387 28.2623ZM22.0308 28.3854C21.8382 28.3854 21.6497 28.4051 21.4683 28.4423V19.3678C21.4683 19.057 21.72 18.8053 22.0308 18.8053C22.3416 18.8053 22.5933 19.057 22.5933 19.3678V28.4423C22.4119 28.4051 22.2235 28.3854 22.0308 28.3854ZM23.6972 31.1775C23.6972 32.0965 22.9498 32.8439 22.0308 32.8439C21.1118 32.8439 20.3637 32.0965 20.3637 31.1775C20.3637 30.3738 20.9361 29.7002 21.6947 29.5441C21.803 29.5223 21.9155 29.5104 22.0308 29.5104C22.1461 29.5104 22.2586 29.5223 22.3669 29.5441C23.1256 29.7002 23.6972 30.3738 23.6972 31.1775Z" fill="#FF845E"></path></svg>