<svg xmlns="http://www.w3.org/2000/svg" width="60" height="60" viewBox="0 0 60 60" fill="none"><path fill-rule="evenodd" clip-rule="evenodd" d="M9.26617 34.3969C9.26647 34.1347 9.22094 33.8746 9.13164 33.6281L11.496 31.3125H17.245V33.2004C17.245 33.2238 17.245 33.2463 17.2459 33.2692L12.7559 34.7161C12.5309 34.7881 12.3416 34.9428 12.2263 35.1491L9.12941 40.6607C9.06705 40.6555 9.00449 40.6529 8.94191 40.6528C8.43515 40.6528 7.94316 40.8235 7.5453 41.1374C7.14744 41.4513 6.86691 41.89 6.74894 42.3829C6.63098 42.8757 6.68248 43.3939 6.89511 43.8539C7.10775 44.3139 7.46914 44.6888 7.92099 44.9183C8.37283 45.1477 8.8888 45.2183 9.38565 45.1186C9.88251 45.0188 10.3313 44.7547 10.6596 44.3686C10.9879 43.9826 11.1766 43.4972 11.1953 42.9908C11.214 42.4844 11.0615 41.9865 10.7625 41.5773L13.6793 36.382L17.9475 35.0066C18.1987 35.2835 18.505 35.5049 18.8467 35.6565C19.1885 35.8081 19.5581 35.8865 19.932 35.8868H25.9236V27.9592C25.9236 27.4129 26.036 26.8725 26.2539 26.3715C26.4717 25.8705 26.7904 25.4198 27.19 25.0473C26.8674 24.555 26.684 23.9847 26.6592 23.3967C26.6344 22.8087 26.7692 22.2249 27.0492 21.7073C27.3292 21.1896 27.7441 20.7573 28.2498 20.4563C28.7555 20.1552 29.3332 19.9966 29.9217 19.9971C30.5102 19.9977 31.0877 20.1575 31.5928 20.4596C32.0979 20.7616 32.5118 21.1947 32.7908 21.7129C33.0698 22.2311 33.2034 22.8152 33.1775 23.4031C33.1515 23.9911 32.967 24.5611 32.6434 25.0527C33.0414 25.425 33.3586 25.875 33.5755 26.3749C33.7924 26.8749 33.9043 27.414 33.9043 27.9589V35.1997C33.9837 35.195 34.0638 35.1927 34.1446 35.1926C34.9458 35.1918 35.7284 35.4338 36.3895 35.8866H39.9051C40.2882 35.8862 40.6667 35.8038 41.0153 35.6449C41.3639 35.486 41.6743 35.2543 41.9259 34.9653L46.3213 36.3818L49.2382 41.5771C48.9393 41.9863 48.787 42.4842 48.8057 42.9906C48.8245 43.497 49.0133 43.9823 49.3416 44.3683C49.67 44.7542 50.1188 45.0183 50.6157 45.1179C51.1125 45.2176 51.6284 45.1469 52.0802 44.9174C52.532 44.6879 52.8933 44.3129 53.1058 43.8529C53.3184 43.3929 53.3698 42.8747 53.2517 42.3819C53.1337 41.8891 52.8531 41.4504 52.4552 41.1366C52.0573 40.8228 51.5653 40.6522 51.0585 40.6523C50.9952 40.6523 50.9325 40.6552 50.871 40.6602L47.7745 35.1483C47.6592 34.942 47.4699 34.7873 47.2449 34.7153L42.5917 33.2153V31.3125H48.5038L50.8679 33.6285C50.6926 34.1124 50.6882 34.6417 50.8554 35.1284C51.0227 35.6151 51.3514 36.0299 51.7871 36.3039C52.2228 36.5779 52.7391 36.6945 53.2502 36.6344C53.7613 36.5742 54.2365 36.341 54.5967 35.9734C54.9569 35.6058 55.1804 35.1259 55.2301 34.6137C55.2798 34.1014 55.1527 33.5876 54.8699 33.1576C54.5871 32.7276 54.1656 32.4074 53.6756 32.2501C53.1856 32.0928 52.6565 32.108 52.1763 32.2931L49.5864 29.7562C49.4985 29.656 49.3902 29.5757 49.2688 29.5207C49.1473 29.4657 49.0155 29.4374 48.8822 29.4375H42.5914V26.0113H50.9373C51.1513 26.4794 51.519 26.8602 51.9794 27.0905C52.4397 27.3207 52.965 27.3866 53.4679 27.2771C53.9708 27.1676 54.4211 26.8893 54.744 26.4885C55.067 26.0877 55.2431 25.5885 55.2431 25.0738C55.2431 24.5591 55.067 24.0599 54.744 23.6591C54.4211 23.2583 53.9708 22.98 53.4679 22.8705C52.965 22.761 52.4397 22.8268 51.9794 23.0571C51.519 23.2874 51.1513 23.6682 50.9373 24.1363H42.5914V20.7103H48.883C49.0164 20.7105 49.1482 20.6821 49.2696 20.6272C49.3911 20.5722 49.4993 20.4919 49.5872 20.3917L52.1771 17.8548C52.6571 18.0398 53.186 18.055 53.6758 17.8978C54.1657 17.7406 54.587 17.4205 54.8697 16.9907C55.1524 16.5609 55.2795 16.0473 55.2299 15.5353C55.1803 15.0232 54.957 14.5436 54.597 14.176C54.2371 13.8085 53.7622 13.5752 53.2513 13.515C52.7404 13.4547 52.2242 13.5711 51.7886 13.8448C51.3531 14.1185 51.0243 14.5331 50.8569 15.0195C50.6895 15.506 50.6937 16.0351 50.8687 16.5189L48.5038 18.8353H42.5914V17.1562L47.2809 15.4213C47.4908 15.3446 47.6663 15.1951 47.7753 15L50.871 9.48679C50.933 9.49195 50.9955 9.49457 51.0585 9.49464C51.5653 9.49464 52.0573 9.32394 52.4551 9.01006C52.853 8.69619 53.1335 8.25745 53.2515 7.7646C53.3694 7.27176 53.318 6.75355 53.1053 6.29355C52.8927 5.83356 52.5313 5.4586 52.0794 5.22916C51.6276 4.99972 51.1116 4.92917 50.6148 5.02889C50.1179 5.12861 49.6691 5.39279 49.3408 5.77881C49.0125 6.16484 48.8238 6.65021 48.8051 7.15663C48.7864 7.66305 48.9389 8.16099 49.2379 8.57015L46.3109 13.7834L42.0644 15.3544C41.815 15.0158 41.4897 14.7405 41.1146 14.5506C40.7395 14.3607 40.3251 14.2614 39.9046 14.2608H38.5708V9.70734C38.5708 7.41248 37.6592 5.21161 36.0364 3.5889C34.4137 1.96619 32.2129 1.05457 29.918 1.05457C27.6231 1.05457 25.4223 1.96619 23.7996 3.5889C22.1769 5.21161 21.2652 7.41248 21.2652 9.70734V14.2608H19.9315C19.5211 14.2613 19.1163 14.3559 18.7481 14.5373C18.3799 14.7186 18.0582 14.982 17.8076 15.307L13.6891 13.7836L10.7621 8.57015C11.0611 8.161 11.2135 7.66306 11.1948 7.15664C11.1762 6.65023 10.9875 6.16486 10.6592 5.77884C10.3308 5.39281 9.88207 5.12863 9.38523 5.0289C8.88838 4.92917 8.37242 4.99971 7.92057 5.22913C7.46872 5.45856 7.10733 5.83351 6.89468 6.29349C6.68203 6.75347 6.63052 7.27167 6.74846 7.76452C6.8664 8.25736 7.14691 8.69611 7.54475 9.01C7.94259 9.32389 8.43457 9.49461 8.94133 9.49464C9.00461 9.49464 9.06711 9.49203 9.12883 9.48679L12.2247 15C12.3336 15.1952 12.509 15.3447 12.719 15.4213L17.2446 17.0957V18.8359H11.496L9.13164 16.5193C9.30665 16.0355 9.31081 15.5064 9.14345 15.0199C8.97609 14.5334 8.64728 14.1189 8.21167 13.8451C7.77606 13.5714 7.25989 13.455 6.74895 13.5152C6.23802 13.5755 5.76309 13.8088 5.40311 14.1763C5.04313 14.5439 4.81977 15.0236 4.77017 15.5357C4.72057 16.0477 4.84771 16.5614 5.13046 16.9912C5.41321 17.421 5.83453 17.7411 6.32441 17.8983C6.81428 18.0555 7.3432 18.0403 7.82324 17.8553L10.4131 20.3921C10.501 20.4924 10.6093 20.5727 10.7307 20.6276C10.8522 20.6826 10.984 20.7109 11.1173 20.7108H17.2451V24.1368H9.0625C8.84851 23.6687 8.48082 23.2879 8.02052 23.0576C7.56021 22.8274 7.03499 22.7616 6.5321 22.8711C6.02921 22.9806 5.57891 23.2588 5.25601 23.6596C4.9331 24.0604 4.75703 24.5596 4.75703 25.0743C4.75703 25.5889 4.9331 26.0881 5.25601 26.4889C5.57891 26.8897 6.02921 27.1679 6.5321 27.2774C7.03499 27.3869 7.56021 27.3211 8.02052 27.0909C8.48082 26.8606 8.84851 26.4798 9.0625 26.0118H17.2446V29.4375H11.1168C10.9835 29.4374 10.8517 29.4657 10.7302 29.5207C10.6088 29.5757 10.5005 29.656 10.4126 29.7562L7.82277 32.2931C7.37359 32.1198 6.88072 32.0948 6.4163 32.2218C5.95189 32.3488 5.54029 32.621 5.24175 32.9987C4.94321 33.3765 4.77339 33.8398 4.75714 34.321C4.7409 34.8022 4.87908 35.276 5.15146 35.673C5.42385 36.07 5.81614 36.3694 6.27094 36.5274C6.72574 36.6854 7.21917 36.6937 7.67902 36.5511C8.13887 36.4084 8.54102 36.1224 8.8266 35.7348C9.11219 35.3472 9.26622 34.8783 9.26617 34.3969ZM42.865 55.3665H27.3163C26.5212 51.4017 23.6771 48.9935 20.3484 41.5508C19.0432 38.6328 22.0476 36.9287 24.0123 39.4353L27.7975 44.2661V27.9592C27.7933 27.6788 27.845 27.4003 27.9494 27.14C28.0538 26.8797 28.2089 26.6428 28.4058 26.443C28.6026 26.2432 28.8372 26.0846 29.0959 25.9763C29.3546 25.868 29.6323 25.8122 29.9127 25.8122C30.1932 25.8122 30.4709 25.868 30.7296 25.9763C30.9883 26.0846 31.2229 26.2432 31.4197 26.443C31.6165 26.6428 31.7717 26.8797 31.8761 27.14C31.9805 27.4003 32.0321 27.6788 32.028 27.9592V39.1833C32.0362 38.6277 32.2627 38.0977 32.6585 37.7078C33.0543 37.3179 33.5876 37.0993 34.1432 37.0993C34.6988 37.0993 35.2321 37.3179 35.6279 37.7078C36.0237 38.0977 36.2502 38.6277 36.2584 39.1833V41.1239C36.2543 40.8435 36.3059 40.565 36.4103 40.3047C36.5147 40.0444 36.6699 39.8075 36.8667 39.6077C37.0636 39.4079 37.2981 39.2493 37.5569 39.141C37.8156 39.0327 38.0932 38.9769 38.3737 38.9769C38.6541 38.9769 38.9318 39.0327 39.1905 39.141C39.4492 39.2493 39.6838 39.4079 39.8806 39.6077C40.0775 39.8075 40.2326 40.0444 40.337 40.3047C40.4415 40.565 40.4931 40.8435 40.4889 41.1239V43.005C40.4847 42.7246 40.5364 42.4461 40.6408 42.1858C40.7452 41.9255 40.9004 41.6886 41.0972 41.4888C41.294 41.289 41.5286 41.1304 41.7873 41.0221C42.046 40.9138 42.3237 40.858 42.6041 40.858C42.8846 40.858 43.1623 40.9138 43.421 41.0221C43.6797 41.1304 43.9143 41.289 44.1111 41.4888C44.3079 41.6886 44.4631 41.9255 44.5675 42.1858C44.6719 42.4461 44.7236 42.7246 44.7194 43.005V45.877C44.7194 48.1256 44.46 52.3535 42.8632 55.3665H42.865ZM27.4623 57.2415V58.9453H42.2944V57.2415H27.4623ZM25.3779 14.2608V9.70734C25.384 8.50722 25.865 7.35832 26.7158 6.51186C27.5666 5.66539 28.7179 5.19021 29.9181 5.19021C31.1182 5.19021 32.2695 5.66539 33.1203 6.51186C33.9711 7.35832 34.4521 8.50722 34.4582 9.70734V14.2608H25.3779Z" fill="#FF845E"></path></svg>