<svg xmlns="http://www.w3.org/2000/svg" width="25" height="25" viewBox="0 0 25 25" fill="none"><path fill-rule="evenodd" clip-rule="evenodd" d="M8.43369 13.6881H23.5346V3.87708H4.16802V5.35886C5.56592 5.35886 6.69951 6.4925 6.69951 7.8904C6.70026 8.40545 6.54314 8.90835 6.24932 9.33137C7.41353 9.75798 8.38481 10.6152 8.4333 11.9425L8.43369 11.9531V13.6881V13.6881ZM19.972 15.4641C21.0123 15.4641 21.8557 16.3074 21.8557 17.3477C21.8557 18.388 21.0123 19.2313 19.972 19.2313C18.9317 19.2313 18.0884 18.388 18.0884 17.3477C18.0884 16.3074 18.9317 15.4641 19.972 15.4641ZM7.73052 15.4641C8.7708 15.4641 9.61411 16.3074 9.61411 17.3477C9.61411 18.388 8.77075 19.2313 7.73052 19.2313C6.69028 19.2313 5.84692 18.388 5.84692 17.3477C5.84692 16.3074 6.69023 15.4641 7.73052 15.4641ZM13.8512 15.4641C14.8915 15.4641 15.7348 16.3074 15.7348 17.3477C15.7348 18.388 14.8915 19.2314 13.8512 19.2314C12.8109 19.2314 11.9676 18.388 11.9676 17.3477C11.9676 16.3074 12.8109 15.4641 13.8512 15.4641ZM16.4095 21.2914V22.9607H23.5346V21.2914C23.4961 20.2387 22.6709 19.5448 21.595 19.2089C20.6653 20.0203 19.2788 20.0203 18.3491 19.2089C17.2732 19.5447 16.448 20.2387 16.4096 21.2914H16.4095ZM4.16802 21.2914V22.9607H11.293V21.2914C11.2546 20.2387 10.4294 19.5448 9.35347 19.2089C8.42378 20.0203 7.03721 20.0203 6.10757 19.2089C5.03169 19.5447 4.2064 20.2387 4.16802 21.2914ZM11.2341 19.6795C11.609 20.0969 11.8676 20.6548 11.879 21.2807V22.9607H15.8236V21.2807C15.835 20.6547 16.0935 20.0969 16.4684 19.6795C16.1806 19.4807 15.8418 19.324 15.4739 19.2092C14.5443 20.0202 13.1583 20.0202 12.2287 19.2092C11.8607 19.324 11.522 19.4807 11.2341 19.6794V19.6795ZM0.488281 11.9638C0.528174 10.8695 1.39116 10.1502 2.51299 9.80588C3.46304 10.6275 4.87295 10.6275 5.823 9.80588C6.94487 10.1503 7.80781 10.8695 7.84775 11.9638V13.6881H0.488281V11.9638ZM4.16802 5.9448C5.24253 5.9448 6.11362 6.81589 6.11362 7.8904C6.11362 8.96492 5.24253 9.83601 4.16802 9.83601C3.09351 9.83601 2.22241 8.96492 2.22241 7.8904C2.22241 6.81589 3.09346 5.9448 4.16802 5.9448ZM3.81685 3.29114H23.8858C24.2301 3.29114 24.5118 3.00945 24.5118 2.66516C24.5118 2.32087 24.2301 2.03918 23.8858 2.03918H3.8168C3.47251 2.03918 3.19082 2.32087 3.19082 2.66516C3.19082 3.00945 3.47251 3.29109 3.8168 3.29109L3.81685 3.29114ZM18.4894 4.35339C18.5814 4.40364 18.6398 4.50354 18.6398 4.6094V5.43582C18.6398 5.51352 18.609 5.58803 18.554 5.64298C18.4991 5.69792 18.4246 5.72878 18.3469 5.72878C18.2692 5.72878 18.1947 5.69792 18.1397 5.64298C18.0848 5.58803 18.0539 5.51352 18.0539 5.43582V5.31663L15.3166 8.05398C15.2677 8.10285 15.2031 8.13286 15.1342 8.13872C15.0654 8.14457 14.9967 8.12588 14.9402 8.08596L12.8253 6.86492L9.56289 10.1273C9.53569 10.1545 9.5034 10.176 9.46786 10.1908C9.43232 10.2055 9.39423 10.2131 9.35576 10.2131C9.31729 10.2131 9.2792 10.2055 9.24366 10.1908C9.20813 10.176 9.17583 10.1545 9.14863 10.1273C9.12143 10.1001 9.09986 10.0678 9.08513 10.0322C9.07041 9.9967 9.06284 9.95861 9.06284 9.92014C9.06284 9.88167 9.07041 9.84358 9.08513 9.80804C9.09986 9.7725 9.12143 9.74021 9.14863 9.71301L12.5691 6.29265L12.5699 6.29348C12.6153 6.24816 12.6743 6.21903 12.7379 6.2106C12.8014 6.20218 12.866 6.21491 12.9216 6.24685L15.0604 7.48171L17.6397 4.90242H17.5205C17.4428 4.90242 17.3683 4.87155 17.3133 4.81661C17.2584 4.76167 17.2275 4.68715 17.2275 4.60945C17.2275 4.53175 17.2584 4.45723 17.3133 4.40229C17.3683 4.34735 17.4428 4.31648 17.5205 4.31648H18.3469C18.3986 4.31648 18.4473 4.32991 18.4894 4.35344L18.4894 4.35339ZM9.35576 12.1305V10.8339H10.8576V12.1305H9.35576ZM11.8521 12.1305V9.7929H13.354V12.1305H11.8521ZM14.3485 12.1305V8.81755H15.8504V12.1305H14.3485ZM16.845 12.1305V7.8238H18.3468V12.1305H16.845Z" fill="#FF845E"></path></svg>