<svg xmlns="http://www.w3.org/2000/svg" width="32" height="32" viewBox="0 0 32 32" fill="none"><g clip-path="url(#clip0_1749_2936)"><path d="M16.9343 12.9586L12.9586 16.9343L23.1107 27.0868L27.0868 23.1107L16.9343 12.9586ZM11.6334 15.6091L15.6091 11.6335L12.2961 8.32067C11.93 7.95463 11.337 7.95463 10.9709 8.32067L8.32061 10.971C7.95456 11.337 7.95456 11.9301 8.32061 12.2961L11.6334 15.6091ZM28.412 24.4358L24.4358 28.412L27.7491 31.7254C27.9248 31.9012 28.1627 32 28.4116 32C28.6605 32 28.8985 31.9012 29.0742 31.7254L31.7254 29.0742C31.9012 28.8984 32 28.6605 32 28.4116C32 28.1627 31.9012 27.9248 31.7254 27.7491L28.412 24.4358ZM3.68171 17.8722C3.55863 17.8723 3.43673 17.8481 3.32303 17.801C3.20933 17.7539 3.10606 17.6847 3.01917 17.5976C2.65313 17.2315 2.65313 16.6385 3.01917 16.2724L5.67042 13.6212C6.03646 13.2551 6.62953 13.2551 6.99557 13.6212C7.36161 13.9872 7.36161 14.5803 6.99557 14.9463L4.34432 17.5976C4.25741 17.6847 4.15413 17.7539 4.04042 17.801C3.92671 17.8481 3.8048 17.8723 3.68171 17.8722ZM14.2838 7.27003C14.1608 7.27018 14.0389 7.246 13.9252 7.19887C13.8115 7.15175 13.7082 7.08262 13.6213 6.99545C13.2553 6.62941 13.2553 6.03633 13.6213 5.67029L16.2725 3.01904C16.6386 2.653 17.2317 2.653 17.5977 3.01904C17.9637 3.38508 17.9637 3.97816 17.5977 4.3442L14.9465 6.99545C14.8595 7.08262 14.7563 7.15175 14.6426 7.19887C14.5288 7.24599 14.4069 7.27017 14.2838 7.27003ZM10.3084 5.62275C9.79039 5.62275 9.37125 5.2036 9.37125 4.68562V0.937125C9.37125 0.419145 9.79039 0 10.3084 0C10.8264 0 11.2455 0.419145 11.2455 0.937125V4.68562C11.2455 5.2036 10.8264 5.62275 10.3084 5.62275ZM6.3329 7.27003C6.20982 7.27018 6.08792 7.246 5.97422 7.19887C5.86052 7.15175 5.75725 7.08262 5.67035 6.99545L3.0191 4.34426C2.65306 3.97822 2.65306 3.38514 3.0191 3.0191C3.38514 2.65306 3.97822 2.65306 4.34426 3.0191L6.99551 5.67035C7.36155 6.0364 7.36155 6.62947 6.99551 6.99551C6.90859 7.08266 6.80531 7.15177 6.6916 7.19888C6.57789 7.24599 6.45599 7.27017 6.3329 7.27003ZM4.68562 11.2455H0.937125C0.419145 11.2455 0 10.8264 0 10.3084C0 9.79039 0.419145 9.37125 0.937125 9.37125H4.68562C5.2036 9.37125 5.62275 9.79039 5.62275 10.3084C5.62275 10.8264 5.2036 11.2455 4.68562 11.2455Z" fill="#FF845E"></path></g><defs><clipPath id="clip0_1749_2936"><rect width="32" height="32" fill="white"></rect></clipPath></defs></svg>