<svg xmlns="http://www.w3.org/2000/svg" width="62" height="62" viewBox="0 0 62 62" fill="none"><rect x="1.5" y="1.5" width="59" height="59" rx="29.5" fill="white"></rect><rect x="1.5" y="1.5" width="59" height="59" rx="29.5" stroke="#FF845E" stroke-width="3"></rect><path fill-rule="evenodd" clip-rule="evenodd" d="M24.4961 27.2488H21.022V20.7117H44.7586V39.3383C44.7586 39.382 44.75 39.4253 44.7333 39.4657C44.7165 39.5061 44.692 39.5428 44.6611 39.5737C44.6302 39.6046 44.5935 39.6291 44.5531 39.6459C44.5127 39.6626 44.4694 39.6712 44.4257 39.6712H33.3295V41.1855C34.1767 41.3843 34.8082 42.1454 34.8082 43.0528C34.8082 44.1114 33.9488 44.9708 32.8903 44.9708C31.8318 44.9708 30.9724 44.1114 30.9724 43.0528C30.9724 42.1454 31.6039 41.3843 32.4511 41.1855V39.6712H21.3549C21.2666 39.6712 21.182 39.6361 21.1196 39.5737C21.0571 39.5112 21.022 39.4266 21.022 39.3383V36.4437H31.4046V37.2262C31.4046 37.834 31.8972 38.326 32.5039 38.326H33.6927C34.2994 38.326 34.792 37.834 34.792 37.2262V36.4437H35.3422C35.9896 36.4437 36.5145 35.9188 36.5145 35.2714V28.4211C36.5145 27.7737 35.9896 27.2488 35.3422 27.2488H33.4457C32.579 25.6683 30.8992 24.5957 28.9709 24.5957C27.0426 24.5957 25.3628 25.6683 24.4961 27.2488ZM28.5317 21.9423V23.4481C28.5317 23.6906 28.7285 23.8873 28.9709 23.8873C29.2133 23.8873 29.4101 23.6906 29.4101 23.4481V21.9423C29.4101 21.6999 29.2133 21.5031 28.9709 21.5031C28.7285 21.5031 28.5317 21.6999 28.5317 21.9423ZM32.8903 42.0133C32.3166 42.0133 31.8508 42.4791 31.8508 43.0528C31.8508 43.6266 32.3166 44.0923 32.8903 44.0923C33.464 44.0923 33.9298 43.6266 33.9298 43.0528C33.9298 42.4791 33.464 42.0133 32.8903 42.0133ZM22.0369 26.1992L23.3409 26.9522C23.4418 27.0104 23.5617 27.0261 23.6742 26.996C23.7867 26.9659 23.8826 26.8923 23.9409 26.7914C23.9991 26.6905 24.0149 26.5707 23.9847 26.4582C23.9546 26.3457 23.881 26.2497 23.7802 26.1915L22.4761 25.4385C22.3752 25.3803 22.2553 25.3646 22.1428 25.3947C22.0303 25.4248 21.9344 25.4984 21.8761 25.5993C21.8179 25.7002 21.8022 25.82 21.8323 25.9325C21.8625 26.045 21.9361 26.141 22.0369 26.1992ZM32.4671 22.7614L31.7142 24.0655C31.593 24.2755 31.665 24.5443 31.875 24.6655C32.0849 24.7867 32.3538 24.7147 32.4749 24.5047L33.2279 23.2006C33.2861 23.0998 33.3018 22.9799 33.2717 22.8674C33.2415 22.7549 33.168 22.659 33.0671 22.6007C32.9662 22.5425 32.8463 22.5267 32.7338 22.5569C32.6213 22.587 32.5254 22.6606 32.4671 22.7614ZM24.714 23.2006L25.4669 24.5047C25.5881 24.7147 25.8569 24.7867 26.0668 24.6655C26.2768 24.5443 26.3488 24.2755 26.2276 24.0655L25.4747 22.7614C25.4164 22.6606 25.3205 22.587 25.208 22.5569C25.0955 22.5267 24.9756 22.5425 24.8747 22.6007C24.7739 22.6589 24.7003 22.7549 24.6702 22.8674C24.64 22.9799 24.6558 23.0998 24.714 23.2006ZM35.4657 25.4385L34.1616 26.1915C33.9517 26.3126 33.8797 26.5815 34.0009 26.7914C34.1221 27.0014 34.3909 27.0734 34.6009 26.9522L35.905 26.1992C36.1149 26.0781 36.1869 25.8092 36.0657 25.5993C35.9445 25.3893 35.6757 25.3173 35.4657 25.4385ZM45.7453 17.0273C45.8285 17.0273 45.9083 17.0604 45.9672 17.1192C46.026 17.1781 46.0591 17.2579 46.0591 17.3411V19.5195C46.059 19.6027 46.026 19.6825 45.9672 19.7414C45.9083 19.8002 45.8285 19.8332 45.7453 19.8332H20.0353C19.9521 19.8332 19.8723 19.8002 19.8134 19.7414C19.7546 19.6825 19.7216 19.6027 19.7215 19.5195V17.3411C19.7216 17.2579 19.7546 17.1781 19.8135 17.1193C19.8723 17.0604 19.9521 17.0274 20.0353 17.0273H45.7453ZM33.9136 36.4437V37.2262C33.9136 37.2553 33.9079 37.284 33.8969 37.3109C33.8858 37.3377 33.8695 37.3621 33.849 37.3827C33.8285 37.4032 33.8041 37.4195 33.7773 37.4306C33.7505 37.4418 33.7217 37.4475 33.6927 37.4476H32.5039C32.4749 37.4475 32.4461 37.4418 32.4193 37.4306C32.3925 37.4195 32.3682 37.4032 32.3476 37.3826C32.3271 37.3621 32.3109 37.3377 32.2998 37.3109C32.2887 37.284 32.283 37.2553 32.2831 37.2262V36.4437H33.9136ZM19.2944 36.4437V37.2262C19.2944 37.2553 19.2887 37.284 19.2776 37.3109C19.2665 37.3377 19.2503 37.3621 19.2297 37.3827C19.2092 37.4032 19.1849 37.4195 19.1581 37.4306C19.1312 37.4418 19.1025 37.4475 19.0735 37.4476H17.8847C17.8557 37.4475 17.827 37.4418 17.8001 37.4306C17.7733 37.4195 17.749 37.4032 17.7285 37.3827C17.7079 37.3621 17.6917 37.3377 17.6806 37.3109C17.6695 37.284 17.6638 37.2553 17.6638 37.2262V36.4437H19.2944ZM33.8246 28.1273H35.3422C35.4201 28.1273 35.4949 28.1582 35.55 28.2133C35.6051 28.2684 35.636 28.3432 35.636 28.4211V35.2714C35.636 35.3494 35.6051 35.4241 35.55 35.4792C35.4949 35.5343 35.4201 35.5653 35.3422 35.5653H16.2352C16.1573 35.5653 16.0826 35.5343 16.0275 35.4792C15.9724 35.4241 15.9414 35.3494 15.9414 35.2714V28.4211C15.9414 28.3432 15.9724 28.2684 16.0275 28.2133C16.0826 28.1582 16.1573 28.1273 16.2352 28.1273H24.1172C23.9537 28.6339 23.8706 29.1631 23.8711 29.6955C23.8711 32.5101 26.1563 34.7952 28.9709 34.7952C31.7855 34.7952 34.0707 32.5101 34.0707 29.6955C34.0712 29.1631 33.9881 28.6339 33.8246 28.1273ZM18.7353 33.2266H21.8007C22.0432 33.2266 22.2399 33.0299 22.2399 32.7874C22.2399 32.545 22.0432 32.3482 21.8007 32.3482H18.7353C18.4929 32.3482 18.2961 32.545 18.2961 32.7874C18.2961 33.0299 18.4929 33.2266 18.7353 33.2266ZM18.7353 31.3443H21.8007C22.0432 31.3443 22.2399 31.1476 22.2399 30.9051C22.2399 30.6627 22.0432 30.4659 21.8007 30.4659H18.7353C18.4929 30.4659 18.2961 30.6627 18.2961 30.9051C18.2961 31.1476 18.4929 31.3443 18.7353 31.3443ZM28.9709 25.4742C31.3007 25.4742 33.1922 27.3657 33.1922 29.6955C33.1922 32.0252 31.3007 33.9168 28.9709 33.9168C26.6411 33.9168 24.7496 32.0252 24.7496 29.6955C24.7496 27.3657 26.6411 25.4742 28.9709 25.4742ZM28.9709 26.9172C27.4376 26.9172 26.1926 28.1621 26.1926 29.6955C26.1926 31.2288 27.4376 32.4737 28.9709 32.4737C30.5043 32.4737 31.7492 31.2288 31.7492 29.6955C31.7492 28.1621 30.5043 26.9172 28.9709 26.9172ZM28.9709 27.7957C30.0195 27.7957 30.8707 28.6469 30.8707 29.6955C30.8707 30.744 30.0195 31.5953 28.9709 31.5953C27.9224 31.5953 27.0711 30.744 27.0711 29.6955C27.0711 28.6469 27.9224 27.7957 28.9709 27.7957Z" fill="#FF845E"></path></svg>