<svg xmlns="http://www.w3.org/2000/svg" width="50" height="50" viewBox="0 0 50 50" fill="none"><path fill-rule="evenodd" clip-rule="evenodd" d="M7.6377 19.0464V14.9731C7.6377 14.6081 7.88965 14.3017 8.24775 14.2311L10.4458 13.7977L12.0288 9.97676L10.7808 8.11572C10.5774 7.8126 10.616 7.41768 10.8741 7.15967L13.7544 4.27939C14.0125 4.02139 14.4073 3.98291 14.7104 4.18604L16.5715 5.43408L20.3924 3.85107L20.8258 1.65303C20.8964 1.29492 21.2029 1.04297 21.5679 1.04297H25.6412C26.0062 1.04297 26.3127 1.29492 26.3833 1.65303L26.8167 3.85107L30.6376 5.43408L32.4985 4.18604C32.8018 3.98281 33.1966 4.02129 33.4546 4.27939L36.1261 6.95088L30.4636 11.4055C28.8393 9.41992 26.37 8.15234 23.6046 8.15234C19.3684 8.15234 15.8274 11.1264 14.9541 15.1003L9.22637 19.9815L8.24785 19.7886C7.88975 19.718 7.63789 19.4114 7.63789 19.0465L7.6377 19.0464ZM38.9611 14.2311L38.5354 14.1472L32.207 19.1255C31.2584 22.9957 27.7671 25.8674 23.6044 25.8674C20.3848 25.8674 17.5667 24.1495 16.0159 21.5805L11.9242 23.7907L12.0287 24.0428L10.7807 25.9038C10.5773 26.2069 10.6159 26.6019 10.874 26.8599L13.7543 29.74C14.0124 29.9981 14.4072 30.0367 14.7104 29.8334L16.5715 28.5854L20.3923 30.1683L20.8257 32.3665C20.8963 32.7246 21.2028 32.9766 21.5679 32.9766H25.6411C26.0061 32.9766 26.3126 32.7246 26.3832 32.3665L26.8166 30.1684L30.6374 28.5854L32.4984 29.8334C32.8017 30.0366 33.1965 29.998 33.4546 29.74L36.3349 26.8599C36.593 26.6019 36.6314 26.2068 36.4282 25.9038L35.1802 24.0428L36.7632 20.2219L38.9613 19.7886C39.3194 19.718 39.5714 19.4114 39.5714 19.0465V14.9732C39.5714 14.6082 39.3193 14.3018 38.9613 14.2312L38.9611 14.2311ZM48.6151 1.675C48.5266 1.56396 48.396 1.51201 48.2554 1.53174L40.0258 2.69053C39.884 2.71045 39.7722 2.79775 39.7184 2.93037C39.6646 3.06309 39.6839 3.20352 39.7716 3.3167L41.098 5.02734L25.7314 17.1158L21.8079 11.8583C21.7409 11.7686 21.6498 11.7163 21.5385 11.7038C21.4271 11.6913 21.3267 11.7221 21.2414 11.7947L4.61719 25.9621L20.8678 17.1838L24.8009 22.4542C24.8663 22.5418 24.9543 22.5935 25.0627 22.6078C25.1711 22.6222 25.2695 22.5951 25.3555 22.5275L43.5619 8.20508L44.994 10.052C45.0829 10.1666 45.2168 10.2203 45.3603 10.1989C45.5037 10.1775 45.6161 10.0872 45.6678 9.95166L48.6748 2.05771C48.7254 1.925 48.7037 1.78604 48.6151 1.675ZM35.9885 33.6837C34.4348 34.5807 31.2284 36.1651 28.2675 37.4221C28.0152 38.1598 27.5893 38.9663 26.8258 39.4212C25.9514 40.0446 24.5986 40.2857 23.1571 40.2887C20.8978 40.2933 18.3313 39.7206 17.2466 39.1562C17.0813 39.0683 16.9573 38.9187 16.9017 38.7399C16.8461 38.5611 16.8634 38.3676 16.9497 38.2015C17.0361 38.0354 17.1846 37.9101 17.3628 37.8529C17.5411 37.7957 17.7348 37.8112 17.9017 37.896C18.8377 38.3831 21.1133 38.8772 23.1571 38.873C24.53 38.8702 25.7501 38.6521 26.2291 38.0603C27.1839 37.1143 26.1531 35.566 24.9155 35.6128C15.337 35.6128 14.4854 28.504 6.9458 36.8623L5.94854 37.9822L12.3033 44.337C14.9245 43.6238 18.6053 44.4654 21.319 44.4055C24.4116 44.3371 26.3069 43.4977 29.0227 42.0591C32.1145 40.4213 37.488 37.1593 38.4255 35.9271C39.767 34.1633 38.0351 32.5022 35.9887 33.6836L35.9885 33.6837ZM4.80967 38.8533C4.3376 38.3813 3.56504 38.3812 3.09287 38.8533L1.30078 40.6454L9.61484 48.9596L11.4069 47.1674C11.879 46.6953 11.8791 45.9227 11.4069 45.4506L4.80967 38.8533Z" fill="#FF845E"></path></svg>