<svg xmlns="http://www.w3.org/2000/svg" width="60" height="60" viewBox="0 0 60 60" fill="none"><path d="M22.5 33.2812C21.8165 33.2805 21.1611 33.0086 20.6778 32.5253C20.1945 32.042 19.9226 31.3867 19.9219 30.7031V13.8281C19.9219 13.1444 20.1935 12.4886 20.677 12.0051C21.1605 11.5216 21.8162 11.25 22.5 11.25C23.1838 11.25 23.8395 11.5216 24.323 12.0051C24.8065 12.4886 25.0781 13.1444 25.0781 13.8281V30.7031C25.0774 31.3867 24.8055 32.042 24.3222 32.5253C23.8389 33.0086 23.1835 33.2805 22.5 33.2812ZM17.5781 27.8906V16.6406C17.5781 15.9569 17.3065 15.3011 16.823 14.8176C16.3395 14.3341 15.6838 14.0625 15 14.0625C14.3162 14.0625 13.6605 14.3341 13.177 14.8176C12.6935 15.3011 12.4219 15.9569 12.4219 16.6406V27.8906C12.4219 28.5744 12.6935 29.2301 13.177 29.7136C13.6605 30.1971 14.3162 30.4688 15 30.4688C15.6838 30.4688 16.3395 30.1971 16.823 29.7136C17.3065 29.2301 17.5781 28.5744 17.5781 27.8906ZM56.25 1.875H3.75C3.06647 1.87574 2.41114 2.14761 1.92781 2.63094C1.44448 3.11427 1.17262 3.76959 1.17188 4.45312V11.9531C1.17188 12.1396 1.24595 12.3184 1.37782 12.4503C1.50968 12.5822 1.68852 12.6562 1.875 12.6562C2.06148 12.6562 2.24032 12.5822 2.37219 12.4503C2.50405 12.3184 2.57813 12.1396 2.57813 11.9531V4.45312C2.57837 4.1424 2.70192 3.84447 2.92163 3.62476C3.14135 3.40504 3.43928 3.2815 3.75 3.28125H56.25C56.5607 3.2815 56.8587 3.40504 57.0784 3.62476C57.2981 3.84447 57.4216 4.1424 57.4219 4.45312V11.9531C57.4219 12.1396 57.496 12.3184 57.6278 12.4503C57.7597 12.5822 57.9385 12.6562 58.125 12.6562C58.3115 12.6562 58.4903 12.5822 58.6222 12.4503C58.754 12.3184 58.8281 12.1396 58.8281 11.9531V4.45312C58.8274 3.76959 58.5555 3.11427 58.0722 2.63094C57.5889 2.14761 56.9335 1.87574 56.25 1.875ZM28.125 47.6344L26.3625 49.3969C26.2526 49.5063 26.1654 49.6363 26.1059 49.7795C26.0464 49.9227 26.0157 50.0762 26.0156 50.2313V50.625H30.2344V50.2313C30.2343 50.0762 30.2036 49.9227 30.1441 49.7795C30.0846 49.6363 29.9974 49.5063 29.8875 49.3969L28.125 47.6344ZM10.0781 25.0781V19.4531C10.0781 18.7694 9.8065 18.1136 9.32301 17.6301C8.83952 17.1466 8.18376 16.875 7.5 16.875C6.81624 16.875 6.16048 17.1466 5.67699 17.6301C5.1935 18.1136 4.92188 18.7694 4.92188 19.4531V25.0781C4.92188 25.7619 5.1935 26.4176 5.67699 26.9011C6.16048 27.3846 6.81624 27.6562 7.5 27.6562C8.18376 27.6562 8.83952 27.3846 9.32301 26.9011C9.8065 26.4176 10.0781 25.7619 10.0781 25.0781ZM2.57813 47.5781V40.0781C2.57813 39.8916 2.50405 39.7128 2.37219 39.5809C2.24032 39.4491 2.06148 39.375 1.875 39.375C1.68852 39.375 1.50968 39.4491 1.37782 39.5809C1.24595 39.7128 1.17188 39.8916 1.17188 40.0781V47.5781C1.17163 47.9168 1.23815 48.2521 1.36762 48.565C1.4971 48.8779 1.68699 49.1622 1.92644 49.4017C2.16589 49.6411 2.4502 49.831 2.7631 49.9605C3.07601 50.09 3.41137 50.1565 3.75 50.1562H20.8594V48.75H3.75C3.4392 48.75 3.14113 48.6265 2.92136 48.4068C2.70159 48.187 2.57813 47.8889 2.57813 47.5781ZM55.0781 25.0781V19.4531C55.0781 18.7694 54.8065 18.1136 54.323 17.6301C53.8395 17.1466 53.1838 16.875 52.5 16.875C51.8162 16.875 51.1605 17.1466 50.677 17.6301C50.1935 18.1136 49.9219 18.7694 49.9219 19.4531V25.0781C49.9219 25.7619 50.1935 26.4176 50.677 26.9011C51.1605 27.3846 51.8162 27.6562 52.5 27.6562C53.1838 27.6562 53.8395 27.3846 54.323 26.9011C54.8065 26.4176 55.0781 25.7619 55.0781 25.0781ZM40.0781 30.7031V13.8281C40.0781 13.1444 39.8065 12.4886 39.323 12.0051C38.8395 11.5216 38.1838 11.25 37.5 11.25C36.8162 11.25 36.1605 11.5216 35.677 12.0051C35.1935 12.4886 34.9219 13.1444 34.9219 13.8281V30.7031C34.9219 31.3869 35.1935 32.0426 35.677 32.5261C36.1605 33.0096 36.8162 33.2812 37.5 33.2812C38.1838 33.2812 38.8395 33.0096 39.323 32.5261C39.8065 32.0426 40.0781 31.3869 40.0781 30.7031ZM58.125 39.375C57.9389 39.3762 57.7608 39.4507 57.6292 39.5823C57.4976 39.7139 57.4231 39.892 57.4219 40.0781V47.5781C57.4219 47.8889 57.2984 48.187 57.0786 48.4068C56.8589 48.6265 56.5608 48.75 56.25 48.75H39.1406V50.1562H56.25C56.5886 50.1565 56.924 50.09 57.2369 49.9605C57.5498 49.831 57.8341 49.6411 58.0736 49.4017C58.313 49.1622 58.5029 48.8779 58.6324 48.565C58.7619 48.2521 58.8284 47.9168 58.8281 47.5781V40.0781C58.8269 39.892 58.7524 39.7139 58.6208 39.5823C58.4892 39.4507 58.3111 39.3762 58.125 39.375ZM32.5781 32.5781V11.9531C32.5781 11.2694 32.3065 10.6136 31.823 10.1301C31.3395 9.64662 30.6838 9.375 30 9.375C29.3162 9.375 28.6605 9.64662 28.177 10.1301C27.6935 10.6136 27.4219 11.2694 27.4219 11.9531V32.5781C27.4219 33.2619 27.6935 33.9176 28.177 34.4011C28.6605 34.8846 29.3162 35.1562 30 35.1562C30.6838 35.1562 31.3395 34.8846 31.823 34.4011C32.3065 33.9176 32.5781 33.2619 32.5781 32.5781ZM37.7344 43.8281V56.9531C37.7344 57.2639 37.6109 57.562 37.3911 57.7818C37.1714 58.0015 36.8733 58.125 36.5625 58.125H23.4375C23.1267 58.125 22.8286 58.0015 22.6089 57.7818C22.3891 57.562 22.2656 57.2639 22.2656 56.9531V43.8281C22.2656 43.5173 22.3891 43.2193 22.6089 42.9995C22.8286 42.7797 23.1267 42.6562 23.4375 42.6562H36.5625C36.8733 42.6562 37.1714 42.7797 37.3911 42.9995C37.6109 43.2193 37.7344 43.5173 37.7344 43.8281ZM31.6406 50.2313C31.6414 49.8914 31.5746 49.5549 31.4443 49.241C31.3139 48.9272 31.1225 48.6424 30.8812 48.4031L28.6219 46.1438C28.4894 46.0132 28.311 45.94 28.125 45.94C27.939 45.94 27.7606 46.0132 27.6281 46.1438L25.3687 48.4031C25.1275 48.6424 24.9361 48.9272 24.8057 49.241C24.6754 49.5549 24.6086 49.8914 24.6094 50.2313V54.1406C24.6094 54.3271 24.6835 54.5059 24.8153 54.6378C24.9472 54.7697 25.126 54.8438 25.3125 54.8438C25.499 54.8438 25.6778 54.7697 25.8097 54.6378C25.9415 54.5059 26.0156 54.3271 26.0156 54.1406V52.0312H30.2344V54.1406C30.2344 54.3271 30.3085 54.5059 30.4403 54.6378C30.5722 54.7697 30.751 54.8438 30.9375 54.8438C31.124 54.8438 31.3028 54.7697 31.4347 54.6378C31.5665 54.5059 31.6406 54.3271 31.6406 54.1406V50.2313ZM35.3906 46.9313C35.3906 46.7448 35.3165 46.5659 35.1847 46.4341C35.0528 46.3022 34.874 46.2281 34.6875 46.2281C34.501 46.2281 34.3222 46.3022 34.1903 46.4341C34.0585 46.5659 33.9844 46.7448 33.9844 46.9313V54.1406C33.9844 54.3271 34.0585 54.5059 34.1903 54.6378C34.3222 54.7697 34.501 54.8438 34.6875 54.8438C34.874 54.8438 35.0528 54.7697 35.1847 54.6378C35.3165 54.5059 35.3906 54.3271 35.3906 54.1406V46.9313ZM47.5781 27.8906V16.6406C47.5781 15.9569 47.3065 15.3011 46.823 14.8176C46.3395 14.3341 45.6838 14.0625 45 14.0625C44.3162 14.0625 43.6605 14.3341 43.177 14.8176C42.6935 15.3011 42.4219 15.9569 42.4219 16.6406V27.8906C42.4219 28.5744 42.6935 29.2301 43.177 29.7136C43.6605 30.1971 44.3162 30.4688 45 30.4688C45.6838 30.4688 46.3395 30.1971 46.823 29.7136C47.3065 29.2301 47.5781 28.5744 47.5781 27.8906Z" fill="#FF845E"></path></svg>