<svg xmlns="http://www.w3.org/2000/svg" width="32" height="32" viewBox="0 0 32 32" fill="none"><g clip-path="url(#clip0_1781_3753)"><path fill-rule="evenodd" clip-rule="evenodd" d="M8.11632 8.84516V7.4206H7.6729C7.45693 7.4206 7.28074 7.21912 7.28074 6.97203V6.27613C7.28074 6.02904 7.45693 5.8275 7.6729 5.8275H10.6765C10.8925 5.8275 11.0686 6.02904 11.0686 6.27613V6.97203C11.0686 7.21912 10.8925 7.4206 10.6765 7.4206H10.2331V8.84516C9.88579 8.80551 9.5326 8.78518 9.1747 8.78518C8.8168 8.78518 8.46361 8.80551 8.11632 8.84516ZM24.8694 1.95067C25.4174 2.07778 25.942 2.29037 26.424 2.58063L27.4344 2.14135L28.6245 3.30502L28.1769 4.29301C28.4729 4.7619 28.6905 5.27589 28.8212 5.81476L29.8519 6.20265V7.84877L28.8212 8.23666C28.6906 8.77376 28.472 9.28601 28.1769 9.75679L28.6245 10.7448L27.4344 11.9084L26.424 11.4708C25.9442 11.7609 25.4187 11.9731 24.8694 12.1008L24.4726 13.1086H22.7892L22.3925 12.1008C21.844 11.9732 21.3189 11.7606 20.8362 11.4708L19.8257 11.9084L18.6357 10.7448L19.0849 9.75679C18.7891 9.28818 18.571 8.77486 18.439 8.23666L17.4082 7.84877V6.20265L18.439 5.81476C18.571 5.27605 18.7891 4.76219 19.0849 4.29301L18.6357 3.30502L19.8257 2.14135L20.8362 2.58063C21.3181 2.29037 21.8427 2.07778 22.3908 1.95067L22.7892 0.941162H24.4726L24.8694 1.95067ZM23.63 4.15377C22.0076 4.15377 20.6938 5.43848 20.6938 7.02486C20.6938 8.61131 22.0076 9.89765 23.63 9.89765C25.2525 9.89765 26.5681 8.61131 26.5681 7.02486C26.5681 5.43848 25.2525 4.15377 23.63 4.15377ZM17.9505 20.9142C18.0078 20.9379 18.0567 20.9781 18.0912 21.0297C18.1256 21.0813 18.144 21.1419 18.144 21.2039V30.7451C18.144 30.8283 18.1109 30.9081 18.0521 30.9669C17.9932 31.0257 17.9135 31.0588 17.8303 31.0588H14.9809C14.8977 31.0588 14.818 31.0257 14.7591 30.9669C14.7003 30.9081 14.6673 30.8283 14.6672 30.7451V25.4505C16.1856 24.3258 17.3471 22.7467 17.9505 20.9142ZM11.6866 26.9144V30.7451C11.6866 30.8283 11.6535 30.9081 11.5947 30.9669C11.5359 31.0258 11.4561 31.0588 11.3728 31.0588H8.51901C8.43581 31.0588 8.35601 31.0258 8.29718 30.9669C8.23834 30.9081 8.20529 30.8283 8.20529 30.7451V27.2098C8.52391 27.243 8.8473 27.26 9.1747 27.26C10.0454 27.26 10.8879 27.1396 11.6866 26.9144ZM24.6014 17.5513V30.7451C24.6014 30.8283 24.5683 30.9081 24.5095 30.9669C24.4507 31.0258 24.3709 31.0588 24.2877 31.0588H21.4384C21.3552 31.0588 21.2754 31.0258 21.2166 30.9669C21.1577 30.9081 21.1247 30.8283 21.1247 30.7451V17.5513C21.1247 17.4681 21.1577 17.3883 21.2166 17.3295C21.2754 17.2706 21.3552 17.2376 21.4384 17.2376H24.2877C24.3709 17.2376 24.4507 17.2706 24.5095 17.3295C24.5683 17.3883 24.6014 17.4681 24.6014 17.5513ZM27.5821 14.2685C27.5821 14.1853 27.6152 14.1055 27.674 14.0466C27.7328 13.9878 27.8126 13.9547 27.8958 13.9547H30.7451C30.8283 13.9547 30.9081 13.9878 30.9669 14.0466C31.0258 14.1055 31.0588 14.1853 31.0588 14.2685V30.7451C31.0588 30.8283 31.0258 30.9081 30.9669 30.9669C30.9081 31.0258 30.8283 31.0588 30.7451 31.0588H27.8958C27.8126 31.0588 27.7328 31.0258 27.674 30.9669C27.6152 30.9081 27.5821 30.8283 27.5821 30.7451V14.2685ZM15.6971 12.997C16.77 14.3874 17.4082 16.1305 17.4082 18.0226C17.4082 22.5698 13.722 26.2561 9.1747 26.2561C4.62744 26.2561 0.941162 22.5698 0.941162 18.0226C0.941162 16.1305 1.57941 14.3874 2.65235 12.997L1.96805 12.3127C1.81533 12.16 1.81533 11.9109 1.96805 11.7582L2.91029 10.816C3.06301 10.6633 3.31211 10.6633 3.46483 10.816L4.14913 11.5002C5.53956 10.4273 7.28262 9.7891 9.1747 9.7891C11.0668 9.7891 12.8098 10.4273 14.2003 11.5002L14.8846 10.816C15.0373 10.6633 15.2864 10.6633 15.4391 10.816L16.3814 11.7582C16.5341 11.9109 16.5341 12.16 16.3814 12.3127L15.6971 12.997ZM9.1747 11.0835C5.34242 11.0835 2.23559 14.1904 2.23559 18.0226C2.23559 21.8549 5.34242 24.9617 9.1747 24.9617C13.0069 24.9617 16.1137 21.8549 16.1137 18.0226C16.1137 14.1904 13.0069 11.0835 9.1747 11.0835ZM9.1747 12.0875C12.4525 12.0875 15.1098 14.7448 15.1098 18.0226C15.1098 21.3004 12.4525 23.9578 9.1747 23.9578C5.8969 23.9578 3.23952 21.3004 3.23952 18.0226C3.23952 14.7448 5.8969 12.0875 9.1747 12.0875ZM5.19572 14.7535L5.58857 15.1463C5.68272 15.2404 5.81038 15.2933 5.94348 15.2933C6.07659 15.2933 6.20424 15.2404 6.2984 15.1463C6.3925 15.0522 6.44537 14.9245 6.44538 14.7914C6.44539 14.6583 6.39255 14.5307 6.29846 14.4365L5.90562 14.0437C5.70973 13.8477 5.39161 13.8477 5.19572 14.0436C4.99983 14.2395 4.99983 14.5576 5.19572 14.7535ZM5.90562 22.0016L6.29846 21.6087C6.39255 21.5146 6.44539 21.3869 6.44538 21.2538C6.44537 21.1207 6.3925 20.993 6.2984 20.8989C6.20424 20.8048 6.07659 20.752 5.94348 20.752C5.81038 20.752 5.68272 20.8048 5.58857 20.8989L5.19572 21.2917C5.10164 21.3859 5.0488 21.5135 5.0488 21.6466C5.0488 21.7797 5.10164 21.9074 5.19572 22.0016C5.39161 22.1975 5.70973 22.1974 5.90562 22.0016ZM8.67274 12.8974V13.453C8.67274 13.7301 8.89768 13.9549 9.1747 13.9549C9.45172 13.9549 9.67666 13.7301 9.67666 13.453V12.8974C9.67666 12.6204 9.45172 12.3955 9.1747 12.3955C8.89768 12.3955 8.67274 12.6204 8.67274 12.8974ZM13.1537 21.2917L12.7608 20.8989C12.5649 20.703 12.2468 20.703 12.0509 20.8989C11.855 21.0948 11.855 21.4128 12.0509 21.6087L12.4438 22.0016C12.6397 22.1974 12.9578 22.1974 13.1537 22.0016C13.3496 21.8057 13.3496 21.4876 13.1537 21.2917ZM4.04955 18.5245H4.6051C4.88212 18.5245 5.10706 18.2996 5.10706 18.0226C5.10706 17.7456 4.88212 17.5206 4.6051 17.5206H4.04955C3.77253 17.5206 3.54759 17.7456 3.54759 18.0226C3.54759 18.2996 3.77253 18.5245 4.04955 18.5245ZM14.2998 17.5206H13.7443C13.4673 17.5206 13.2423 17.7456 13.2423 18.0226C13.2423 18.2996 13.4673 18.5245 13.7443 18.5245H14.2998C14.5769 18.5245 14.8018 18.2996 14.8018 18.0226C14.8018 17.7456 14.5769 17.5206 14.2998 17.5206ZM9.90041 18.5246H12.1908C12.4678 18.5246 12.6928 18.2997 12.6928 18.0226C12.6928 17.7456 12.4678 17.5207 12.1908 17.5207H9.90041C9.83983 17.4333 9.76404 17.3575 9.67666 17.2969V15.0065C9.67666 14.7295 9.45172 14.5046 9.1747 14.5046C8.89768 14.5046 8.67274 14.7295 8.67274 15.0065V17.2969C8.55531 17.378 8.45934 17.4864 8.39308 17.6129C8.32683 17.7393 8.29227 17.8799 8.29238 18.0226C8.29238 18.5099 8.68736 18.905 9.1747 18.905C9.4755 18.905 9.7411 18.7544 9.90041 18.5246ZM9.67666 23.1477V22.5922C9.67666 22.3152 9.45172 22.0902 9.1747 22.0902C8.89768 22.0902 8.67274 22.3152 8.67274 22.5922V23.1477C8.67274 23.4247 8.89768 23.6497 9.1747 23.6497C9.45172 23.6497 9.67666 23.4247 9.67666 23.1477ZM12.4438 14.0436L12.0509 14.4365C11.855 14.6324 11.855 14.9504 12.0509 15.1463C12.2468 15.3422 12.5649 15.3422 12.7608 15.1463L13.1537 14.7535C13.2478 14.6593 13.3006 14.5317 13.3006 14.3985C13.3006 14.2654 13.2478 14.1378 13.1537 14.0436C13.0595 13.9495 12.9318 13.8967 12.7987 13.8967C12.6656 13.8967 12.538 13.9495 12.4438 14.0436Z" fill="#FF845E"></path></g><defs><clipPath id="clip0_1781_3753"><rect width="32" height="32" fill="white"></rect></clipPath></defs></svg>