<svg xmlns="http://www.w3.org/2000/svg" width="50" height="50" viewBox="0 0 50 50" fill="none"><path fill-rule="evenodd" clip-rule="evenodd" d="M31.8806 20.2985H37.882C37.9891 20.2985 38.0948 20.2733 38.1905 20.2249C38.2861 20.1766 38.3691 20.1064 38.4326 20.0201C38.4961 19.9338 38.5385 19.8337 38.5562 19.728C38.5739 19.6223 38.5666 19.5139 38.5347 19.4116C38.2891 18.6245 37.8394 17.9167 37.2312 17.36C36.623 16.8034 35.8782 16.4179 35.0725 16.2429C34.2669 16.0678 33.4293 16.1094 32.6449 16.3634C31.8606 16.6174 31.1576 17.0748 30.6075 17.6889C31.2083 18.461 31.6418 19.3497 31.8805 20.2985H31.8806ZM19.0131 32.4154C20.8345 34.2716 22.9442 33.4181 24.9506 32.606C26.5567 31.9558 28.1092 31.3274 29.6141 31.7404C29.9132 31.823 30.2007 31.943 30.4699 32.0975L37.1984 35.9327C37.4643 36.0838 37.7034 36.2778 37.9061 36.5069L38.5033 36.2578L35.153 27.6159C33.8114 28.2171 32.6163 27.7287 31.2704 27.1786C29.8537 26.5995 28.2243 25.9334 26.1142 26.9614C25.1527 27.4301 24.2618 28.1683 23.5157 28.9223C22.7842 29.6559 21.9999 30.335 21.1692 30.954C20.482 31.4701 19.7634 31.9572 19.0133 32.4154H19.0131ZM10.2484 22.1792L4.83509 34.4252C4.70975 34.7109 4.70259 35.0346 4.81516 35.3255C4.92773 35.6165 5.15089 35.8511 5.43587 35.978L7.79407 37.02C8.07975 37.1453 8.40343 37.1525 8.69437 37.0399C8.98532 36.9273 9.21988 36.7042 9.3468 36.4192L14.7597 24.1724C14.885 23.8867 14.8922 23.5631 14.7796 23.2721C14.667 22.9812 14.4439 22.7466 14.1589 22.6197L11.8014 21.5777C11.5157 21.4523 11.1921 21.4452 10.9011 21.5577C10.6102 21.6703 10.3756 21.8934 10.2487 22.1784L10.2484 22.1792ZM40.3476 23.0483L45.1874 35.5326C45.2994 35.8238 45.2916 36.1475 45.1657 36.4329C45.0397 36.7184 44.8059 36.9424 44.5154 37.056L42.1121 37.9876C41.8209 38.0997 41.4972 38.0919 41.2118 37.966C40.9263 37.8401 40.7023 37.6063 40.5887 37.3157L35.7489 24.8314C35.6369 24.5402 35.6447 24.2165 35.7706 23.931C35.8965 23.6456 36.1303 23.4216 36.4209 23.308L38.8242 22.3762C39.1155 22.2642 39.4392 22.272 39.7246 22.3979C40.0101 22.5239 40.234 22.7577 40.3476 23.0483ZM38.5019 24.3081C38.3435 24.3081 38.1887 24.355 38.057 24.443C37.9253 24.531 37.8227 24.6561 37.7621 24.8024C37.7014 24.9487 37.6856 25.1097 37.7165 25.2651C37.7474 25.4204 37.8237 25.5631 37.9356 25.6751C38.0476 25.7871 38.1903 25.8633 38.3457 25.8942C38.501 25.9251 38.662 25.9093 38.8083 25.8487C38.9547 25.7881 39.0797 25.6854 39.1677 25.5537C39.2557 25.422 39.3027 25.2672 39.3027 25.1088C39.3027 24.8965 39.2183 24.6928 39.0681 24.5426C38.9179 24.3924 38.7143 24.3081 38.5019 24.3081ZM12.0337 23.5229C12.1919 23.5303 12.3444 23.5844 12.4718 23.6784C12.5993 23.7724 12.696 23.902 12.7498 24.051C12.8035 24.2 12.8119 24.3616 12.7738 24.5153C12.7358 24.669 12.653 24.808 12.5359 24.9147C12.4189 25.0214 12.2728 25.0909 12.1162 25.1146C11.9596 25.1383 11.7995 25.115 11.6562 25.0477C11.5128 24.9804 11.3926 24.872 11.3108 24.7364C11.229 24.6008 11.1893 24.444 11.1966 24.2858C11.2015 24.1807 11.227 24.0777 11.2717 23.9825C11.3164 23.8873 11.3794 23.8018 11.4571 23.7309C11.5349 23.6601 11.6258 23.6053 11.7247 23.5696C11.8237 23.5339 11.9287 23.518 12.0337 23.5229ZM27.5292 45.6804C27.4856 46.012 27.3823 46.3329 27.2244 46.6277L26.5779 47.8368C26.8008 47.9637 27.0368 48.1028 27.2548 48.2231C27.5212 48.3612 27.8306 48.3909 28.1183 48.306C28.4061 48.2211 28.6498 48.0283 28.7987 47.7678C28.8754 47.6324 28.9246 47.4832 28.9433 47.3287C28.9621 47.1742 28.9501 47.0176 28.908 46.8678C28.8659 46.718 28.7945 46.578 28.698 46.4559C28.6015 46.3338 28.4818 46.2321 28.3457 46.1565L27.5292 45.6796V45.6804ZM18.7786 45.8281C18.7369 46.0996 18.7879 46.3772 18.9234 46.6162C19.0589 46.8552 19.2709 47.0415 19.5253 47.1452C19.7797 47.2488 20.0616 47.2637 20.3255 47.1875C20.5894 47.1112 20.8199 46.9483 20.9798 46.7249L22.5233 43.7864C22.5916 43.5213 22.569 43.2409 22.459 42.9902C22.349 42.7395 22.158 42.5331 21.9166 42.4039C21.6752 42.2747 21.3975 42.2304 21.1279 42.2779C20.8582 42.3255 20.6124 42.4622 20.4298 42.6662L18.7786 45.8281ZM19.0543 42.1002L17.3173 45.3443C17.2439 45.4891 17.1424 45.6179 17.0187 45.7231C16.8949 45.8283 16.7515 45.9078 16.5967 45.9569C16.4419 46.006 16.2789 46.0238 16.1172 46.0092C15.9554 45.9946 15.7982 45.948 15.6547 45.872C15.5112 45.7959 15.3843 45.6921 15.2814 45.5665C15.1785 45.4409 15.1016 45.296 15.0553 45.1403C15.009 44.9847 14.9942 44.8214 15.0117 44.6599C15.0292 44.4985 15.0787 44.3421 15.1574 44.2L16.9294 40.8873C17.3825 40.4719 17.8871 40.2494 18.4863 40.5691C19.0903 40.8914 19.2109 41.4857 19.0548 42.1002H19.0543ZM15.8409 39.8491C15.9729 39.5602 15.9872 39.2313 15.8809 38.932C15.7745 38.6328 15.5559 38.3867 15.2713 38.2458C14.9867 38.1049 14.6584 38.0803 14.356 38.1772C14.0535 38.2742 13.8007 38.485 13.651 38.7651L12.4157 41.0749C12.2793 41.3292 12.2373 41.6235 12.2971 41.9057C12.3569 42.188 12.5147 42.44 12.7424 42.6171C12.9701 42.7942 13.2532 42.885 13.5415 42.8735C13.8297 42.862 14.1046 42.7489 14.3175 42.5541L15.8409 39.8491ZM22.3839 47.3157L23.8609 44.5013C24.0603 44.2788 24.3344 44.137 24.6313 44.1029C24.9282 44.0687 25.2273 44.1445 25.4721 44.316C25.7169 44.4874 25.8904 44.7426 25.9599 45.0332C26.0293 45.3239 25.9898 45.63 25.8489 45.8935L24.6644 48.1084C24.5271 48.3652 24.3027 48.5645 24.0316 48.6704C23.7605 48.7764 23.4605 48.7822 23.1855 48.6866C22.9105 48.591 22.6787 48.4004 22.5317 48.1492C22.3848 47.8979 22.3324 47.6024 22.3839 47.3159V47.3157ZM11.5351 35.332L15.313 26.7843L15.4241 26.8355C16.8076 27.6027 18.0781 27.3051 19.4583 26.982C20.6265 26.7085 21.893 26.4116 23.3144 26.982C22.2463 27.8938 21.4003 28.8348 20.2352 29.7098C19.4098 30.3244 18.5496 30.8908 17.659 31.4063C17.5348 31.4795 17.4275 31.5783 17.3444 31.6961C17.2612 31.8139 17.2041 31.948 17.1767 32.0896C17.1494 32.2312 17.1525 32.377 17.1858 32.5173C17.2191 32.6576 17.2818 32.7892 17.3699 32.9034C20.004 36.2928 22.8449 35.1428 25.5364 34.0533C27.0925 33.4233 28.5868 32.8184 29.7007 33.4533L36.4292 37.2884C36.7004 37.4406 36.901 37.6932 36.9878 37.9918C37.0745 38.2904 37.0405 38.6111 36.893 38.8849C36.7446 39.1498 36.4987 39.3464 36.2076 39.4329C35.9164 39.5194 35.6031 39.4889 35.3341 39.3479C33.8052 38.4575 32.2334 37.6096 30.6949 36.7292C30.5152 36.6265 30.302 36.5993 30.1023 36.6536C29.9026 36.708 29.7326 36.8395 29.6298 37.0192C29.527 37.1989 29.4998 37.412 29.5542 37.6118C29.6086 37.8115 29.7401 37.9814 29.9198 38.0842C31.46 38.966 33.0085 39.8335 34.5571 40.7008C34.8253 40.8494 35.0242 41.0976 35.1107 41.3917C35.1972 41.6859 35.1643 42.0023 35.0192 42.2724C34.874 42.5424 34.6283 42.7445 34.3352 42.8346C34.0422 42.9248 33.7254 42.8959 33.4535 42.7541C31.4531 41.5808 29.375 40.4592 27.35 39.3197C27.1697 39.2211 26.9578 39.1977 26.7604 39.2544C26.5629 39.3112 26.3958 39.4436 26.2953 39.6228C26.1948 39.802 26.1691 40.0137 26.2238 40.2117C26.2784 40.4098 26.409 40.5783 26.5871 40.6807C28.2453 41.6138 29.8998 42.5628 31.5578 43.4921C31.8296 43.6394 32.0318 43.8887 32.1198 44.185C32.2078 44.4813 32.1745 44.8005 32.0272 45.0723C31.8799 45.344 31.6307 45.5462 31.3344 45.6342C31.038 45.7222 30.7189 45.6889 30.4471 45.5416L26.9132 43.5423C26.5665 43.1247 26.1053 42.8175 25.5863 42.6586C25.0674 42.4996 24.5132 42.4958 23.9921 42.6476C23.7743 41.9535 23.2929 41.3725 22.6515 41.0293C22.01 40.6861 21.2596 40.6081 20.5613 40.812C20.362 40.1757 19.9403 39.6326 19.3733 39.2818C18.8063 38.931 18.132 38.7962 17.4738 38.9019C17.3951 38.408 17.1845 37.9444 16.8644 37.5601C16.5442 37.1759 16.1263 36.8851 15.6547 36.7186C15.1831 36.552 14.6752 36.5158 14.1848 36.6138C13.6943 36.7117 13.2393 36.9403 12.8679 37.2752C12.7009 36.471 12.4391 35.7097 11.5351 35.3319V35.332ZM41.4549 12.2753C43.1464 15.1792 44.035 18.4807 44.0295 21.8413C44.0295 22.0485 44.1118 22.2472 44.2583 22.3937C44.4049 22.5402 44.6036 22.6225 44.8108 22.6225C45.018 22.6225 45.2167 22.5402 45.3632 22.3937C45.5097 22.2472 45.592 22.0485 45.592 21.8413C45.5962 18.2059 44.6339 14.6348 42.8038 11.4937C42.7002 11.3148 42.5298 11.1844 42.3301 11.1312C42.1303 11.078 41.9176 11.1063 41.7387 11.2099C41.5599 11.3135 41.4295 11.4839 41.3762 11.6836C41.323 11.8834 41.3513 12.0961 41.4549 12.2749V12.2753ZM7.01985 10.2937C6.82175 10.3471 6.61057 10.3204 6.43202 10.2193C6.25347 10.1182 6.1219 9.95092 6.06578 9.75356C6.00965 9.5562 6.0335 9.34469 6.13215 9.16478C6.2308 8.98487 6.39632 8.85103 6.5929 8.79223L9.89368 7.85044C13.2849 4.18793 17.8912 1.88213 22.8554 1.36209C27.8197 0.842048 32.8038 2.14318 36.8804 5.02339L36.5484 3.85962C36.4938 3.66118 36.5199 3.44923 36.6208 3.2699C36.7218 3.09056 36.8895 2.95835 37.0874 2.90203C37.2853 2.8457 37.4975 2.86983 37.6778 2.96915C37.858 3.06847 37.9917 3.23495 38.0498 3.43237L39.0525 6.94673C39.0861 7.06514 39.0912 7.18982 39.0675 7.3106C39.0438 7.43138 38.9919 7.54485 38.916 7.64176C38.8401 7.73867 38.7424 7.81628 38.6308 7.86826C38.5192 7.92024 38.397 7.94512 38.274 7.94087L34.677 8.06997C34.4706 8.07726 34.2698 8.00227 34.1187 7.86149C33.9676 7.72071 33.8786 7.52567 33.8713 7.31929C33.864 7.1129 33.939 6.91207 34.0798 6.76098C34.2206 6.60989 34.4156 6.52091 34.622 6.51362L36.2023 6.45649C32.4492 3.72491 27.8271 2.45915 23.206 2.8974C18.5848 3.33565 14.2831 5.44769 11.1104 8.83608L11.23 12.1651C11.234 12.2675 11.2177 12.3697 11.1821 12.4658C11.1465 12.5619 11.0922 12.65 11.0225 12.7251C10.9527 12.8002 10.8689 12.8608 10.7757 12.9034C10.6824 12.946 10.5817 12.9698 10.4793 12.9734C10.3769 12.977 10.2748 12.9604 10.1788 12.9245C10.0828 12.8885 9.99487 12.834 9.92001 12.764C9.84516 12.694 9.78485 12.6099 9.74256 12.5165C9.70027 12.4232 9.67682 12.3224 9.67356 12.22L9.61682 10.6401C7.24262 13.8917 5.96618 17.8151 5.97268 21.8413C5.97268 22.0485 5.89037 22.2472 5.74386 22.3937C5.59735 22.5402 5.39863 22.6225 5.19143 22.6225C4.98423 22.6225 4.78552 22.5402 4.63901 22.3937C4.49249 22.2472 4.41018 22.0485 4.41018 21.8413C4.40331 17.5863 5.72084 13.4347 8.18001 9.96235L7.01985 10.2934V10.2937ZM25.0011 9.93432C24.4479 9.93431 23.9071 10.0983 23.4471 10.4057C22.9871 10.713 22.6286 11.1498 22.4169 11.6609C22.2052 12.172 22.1498 12.7344 22.2577 13.277C22.3656 13.8196 22.632 14.318 23.0231 14.7092C23.4143 15.1004 23.9127 15.3668 24.4553 15.4747C24.9979 15.5826 25.5603 15.5273 26.0714 15.3156C26.5825 15.1039 27.0193 14.7454 27.3267 14.2854C27.634 13.8254 27.7981 13.2846 27.7981 12.7314C27.7981 12.3641 27.7257 12.0004 27.5852 11.661C27.4446 11.3217 27.2386 11.0133 26.9789 10.7536C26.7192 10.4938 26.4108 10.2878 26.0715 10.1472C25.7321 10.0067 25.3684 9.93432 25.0011 9.93432ZM20.3234 21.4417H29.6788C29.784 21.4417 29.8877 21.4174 29.9819 21.3708C30.0761 21.3242 30.1583 21.2565 30.2221 21.173C30.286 21.0895 30.3296 20.9923 30.3498 20.8892C30.37 20.786 30.3661 20.6796 30.3384 20.5782C30.0182 19.4081 29.3224 18.3756 28.358 17.6396C27.3936 16.9036 26.2141 16.505 25.001 16.505C23.7879 16.505 22.6084 16.9036 21.644 17.6396C20.6796 18.3756 19.9838 19.4081 19.6636 20.5782C19.636 20.6796 19.6321 20.786 19.6522 20.8892C19.6724 20.9923 19.7161 21.0894 19.7799 21.1729C19.8437 21.2565 19.9259 21.3242 20.0201 21.3707C20.1144 21.4173 20.2181 21.4416 20.3232 21.4416L20.3234 21.4417ZM15.9208 10.4438C15.4544 10.4438 14.9985 10.5821 14.6107 10.8412C14.2229 11.1003 13.9207 11.4686 13.7422 11.8995C13.5637 12.3304 13.517 12.8045 13.608 13.2619C13.699 13.7194 13.9236 14.1395 14.2534 14.4693C14.5832 14.7991 15.0034 15.0237 15.4608 15.1147C15.9182 15.2057 16.3923 15.159 16.8232 14.9805C17.2541 14.802 17.6224 14.4998 17.8815 14.112C18.1406 13.7242 18.2789 13.2683 18.2789 12.8019C18.2789 12.4922 18.218 12.1856 18.0995 11.8995C17.981 11.6134 17.8073 11.3534 17.5883 11.1344C17.3693 10.9155 17.1094 10.7418 16.8233 10.6233C16.5371 10.5048 16.2305 10.4438 15.9208 10.4438ZM34.0815 10.4438C33.6151 10.4438 33.1592 10.5821 32.7714 10.8412C32.3836 11.1003 32.0813 11.4685 31.9028 11.8994C31.7243 12.3303 31.6776 12.8045 31.7686 13.2619C31.8595 13.7193 32.0841 14.1395 32.4139 14.4693C32.7437 14.7991 33.1639 15.0237 33.6213 15.1147C34.0787 15.2057 34.5529 15.159 34.9838 14.9805C35.4147 14.802 35.7829 14.4998 36.0421 14.112C36.3012 13.7242 36.4395 13.2683 36.4395 12.8019C36.4395 12.4922 36.3785 12.1856 36.26 11.8995C36.1415 11.6134 35.9678 11.3534 35.7489 11.1345C35.5299 10.9155 35.27 10.7418 34.9839 10.6233C34.6978 10.5048 34.3911 10.4438 34.0815 10.4438ZM12.1202 20.2985H18.1217C18.3604 19.3497 18.7939 18.461 19.3947 17.6889C18.8446 17.0748 18.1416 16.6174 17.3573 16.3634C16.5729 16.1094 15.7353 16.0678 14.9297 16.2429C14.124 16.4179 13.3792 16.8034 12.771 17.36C12.1628 17.9167 11.7131 18.6245 11.4675 19.4116C11.4356 19.5139 11.4283 19.6223 11.446 19.728C11.4637 19.8337 11.5061 19.9338 11.5696 20.0201C11.6331 20.1064 11.7161 20.1766 11.8117 20.2249C11.9074 20.2733 12.0131 20.2985 12.1202 20.2985Z" fill="#FF845E"></path></svg>