<svg xmlns="http://www.w3.org/2000/svg" width="32" height="32" viewBox="0 0 32 32" fill="none"><path fill-rule="evenodd" clip-rule="evenodd" d="M15.8905 29.6722L15.5633 30.2841L15.8706 30.4607L15.8714 30.4592C15.8883 30.4689 15.8679 30.4579 15.8804 30.4647C16.0118 30.537 16.1623 30.5475 16.2994 30.5073C16.4411 30.4657 16.5675 30.372 16.6448 30.2375C16.6625 30.2067 16.6261 30.2692 16.6487 30.2279C16.6852 30.1616 16.7083 30.0887 16.7166 30.0135C16.7249 29.9382 16.7183 29.8621 16.6971 29.7894C16.6542 29.6404 16.5542 29.5144 16.4189 29.4387C16.3936 29.4245 16.3695 29.4082 16.347 29.3898L16.0508 29.2222C16.0201 29.3793 15.9661 29.531 15.8905 29.6722ZM14.9491 21.6549C14.8157 21.707 14.6816 21.7612 14.5469 21.8157C13.4808 22.2473 12.3606 22.7006 11.3945 21.7848C11.7806 21.5458 12.1559 21.2898 12.5193 21.0176C12.675 20.9008 12.828 20.7806 12.9783 20.657C13.2796 20.4091 13.5627 20.1523 13.8257 19.8865C13.9735 19.7367 14.1278 19.5935 14.2882 19.4572C14.4327 19.3342 14.5834 19.2188 14.7398 19.1113C16.1344 18.1547 17.1656 18.5762 18.0457 18.9359C18.841 19.261 19.543 19.5479 20.3561 19.125L20.36 19.121L20.9554 18.8023L22.7879 23.5292L21.7623 23.9572C21.6523 23.8403 21.5255 23.7405 21.3859 23.6612L17.6609 21.5381C16.7789 21.0355 15.8794 21.2918 14.9491 21.6549ZM25.9116 23.6353L23.1063 16.399C23.097 16.38 23.089 16.3605 23.0823 16.3405C23.0621 16.3038 23.0303 16.2749 22.9918 16.2583C22.9531 16.2408 22.9096 16.2368 22.8684 16.2469C22.8493 16.2552 22.8298 16.2623 22.8098 16.2682L21.4476 16.7963C21.4012 16.8143 21.3657 16.851 21.346 16.8957C21.3261 16.9408 21.3228 16.9923 21.3411 17.0393L24.1616 24.3147C24.1796 24.3611 24.2163 24.3966 24.2609 24.4163C24.306 24.4362 24.3576 24.4394 24.4046 24.4212L25.8051 23.8783C25.8515 23.8603 25.887 23.8235 25.9067 23.779C25.9266 23.7338 25.9298 23.6823 25.9116 23.6353ZM22.4803 17.848C22.3565 17.848 22.2378 17.7988 22.1503 17.7113C22.0627 17.6237 22.0136 17.505 22.0136 17.3812C22.0136 17.2574 22.0627 17.1387 22.1503 17.0512C22.2378 16.9636 22.3565 16.9145 22.4803 16.9145C22.6041 16.9145 22.7228 16.9636 22.8104 17.0512C22.8979 17.1387 22.9471 17.2574 22.9471 17.3812C22.9471 17.505 22.8979 17.6237 22.8104 17.7113C22.7228 17.7988 22.6041 17.848 22.4803 17.848ZM8.50245 18.3907L9.2677 18.7437C10.0554 19.1798 10.7704 19.0125 11.5471 18.8305C12.1535 18.6885 12.8087 18.5351 13.5362 18.7885C13.3926 18.9153 13.2533 19.0471 13.1187 19.1835C12.7563 19.5497 12.3554 19.8951 11.9217 20.2208C11.4906 20.5445 11.0151 20.8559 10.5019 21.1554C10.4263 21.1995 10.3609 21.2604 10.3071 21.3365C10.255 21.4092 10.2192 21.4923 10.2021 21.5801C10.1849 21.6673 10.1865 21.7571 10.2069 21.8436H10.2088C10.2296 21.9307 10.2688 22.0123 10.3238 22.0829L10.3226 22.0838C11.8121 24.0005 13.4091 23.354 14.9219 22.7415C15.768 22.399 16.5805 22.0702 17.1687 22.4054L20.8937 24.5285C20.9465 24.5588 20.9945 24.5968 21.0361 24.6413C21.077 24.6848 21.111 24.7343 21.1371 24.788L21.139 24.792C21.1793 24.8755 21.1994 24.9673 21.1978 25.06C21.1959 25.1442 21.1738 25.2307 21.1292 25.3132L21.1248 25.3208C21.0507 25.4534 20.9275 25.5516 20.7817 25.5943C20.643 25.6348 20.4898 25.6242 20.3546 25.5517L20.3458 25.5467C19.9176 25.3071 19.4898 25.067 19.0622 24.8263C18.6541 24.5963 18.2328 24.3577 17.7859 24.1018C17.729 24.0693 17.6662 24.0482 17.6011 24.0399C17.5361 24.0316 17.47 24.0362 17.4067 24.0534C17.3434 24.0707 17.2841 24.1002 17.2322 24.1403C17.1804 24.1805 17.1369 24.2305 17.1043 24.2874C17.0717 24.3443 17.0507 24.4071 17.0424 24.4722C17.0341 24.5373 17.0387 24.6034 17.0559 24.6667C17.0732 24.7299 17.1027 24.7892 17.1428 24.8411C17.183 24.893 17.2329 24.9365 17.2899 24.969C17.7171 25.2133 18.1451 25.4561 18.5739 25.6974C19.0014 25.9382 19.4296 26.1781 19.8576 26.4178C19.993 26.4936 20.0933 26.6196 20.1367 26.7687C20.1579 26.8409 20.1645 26.9167 20.1563 26.9915C20.1481 27.0664 20.1252 27.1389 20.0888 27.2048C20.0523 27.2712 20.003 27.3298 19.9439 27.3771C19.8847 27.4244 19.8167 27.4596 19.7439 27.4805C19.5996 27.5227 19.4446 27.5069 19.3118 27.4365L19.3077 27.4342L15.9337 25.5357C15.8765 25.5034 15.8135 25.4828 15.7483 25.4749C15.6831 25.4671 15.617 25.4722 15.5538 25.4899C15.4905 25.5076 15.4314 25.5377 15.3798 25.5783C15.3282 25.6189 15.2851 25.6693 15.253 25.7265C15.2209 25.7838 15.2004 25.8469 15.1927 25.9121C15.185 25.9773 15.1903 26.0434 15.2081 26.1066C15.226 26.1698 15.2562 26.2288 15.2969 26.2803C15.3376 26.3318 15.3881 26.3748 15.4454 26.4068L18.1278 27.9161C18.1493 27.9334 18.1724 27.9492 18.1973 27.9632C18.3328 28.0389 18.433 28.1649 18.4764 28.3139C18.4976 28.3862 18.5043 28.4619 18.4961 28.5368C18.4878 28.6116 18.4649 28.6841 18.4285 28.7501L18.4261 28.7545L18.4267 28.7548C18.3522 28.887 18.2287 28.9847 18.0829 29.0267C17.9418 29.0678 17.7854 29.0556 17.6478 28.9799L17.6434 28.9775L17.6432 28.978L15.7029 27.8797C15.6483 27.8147 15.5886 27.7542 15.5244 27.6988C15.4342 27.621 15.3356 27.5535 15.2304 27.4975C14.8798 27.3093 14.4716 27.2585 14.0855 27.3552C13.9517 26.9801 13.6826 26.6686 13.3309 26.4817C12.9803 26.2936 12.5722 26.2428 12.1861 26.3393C12.0523 25.9642 11.7832 25.6527 11.4315 25.4658C11.1426 25.3113 10.8132 25.2493 10.4879 25.2882C10.4745 25.2223 10.457 25.1573 10.4354 25.0936C10.3089 24.7191 10.0458 24.3897 9.67132 24.1898C9.2812 23.9815 8.84164 23.9514 8.44776 24.0707C8.25871 24.128 8.08176 24.2194 7.9257 24.3405C7.82545 23.9092 7.65376 23.512 7.13832 23.3119C7.09101 23.2935 6.9357 23.2261 6.72245 23.1321C6.62689 23.09 6.53914 23.0512 6.45839 23.0155L8.50245 18.3907ZM14.0578 28.4685L13.2099 30.0982C13.2028 30.2055 13.2237 30.3128 13.2706 30.4097C13.3258 30.5247 13.4161 30.6192 13.5285 30.6795C13.5993 30.7173 13.6769 30.7407 13.7568 30.7484C13.8367 30.7562 13.9173 30.748 13.994 30.7245C14.1443 30.679 14.277 30.577 14.3558 30.4297L15.0116 29.2035C15.0661 29.1015 15.0884 28.9857 15.0799 28.8704C15.0714 28.7546 15.0304 28.6435 14.9616 28.5499C14.9355 28.5142 14.9054 28.4815 14.872 28.4525C14.8382 28.423 14.8011 28.3975 14.7616 28.3762C14.6387 28.3105 14.5004 28.2925 14.3688 28.3157C14.2526 28.3358 14.1447 28.3889 14.0578 28.4685ZM12.1569 27.454L11.2156 29.2768C11.2117 29.3804 11.2339 29.4832 11.2801 29.576C11.3359 29.6879 11.4252 29.7797 11.5354 29.8387C11.6695 29.9103 11.8207 29.9257 11.9612 29.8929C12.0954 29.862 12.2153 29.7866 12.3014 29.6791L13.1736 28.0028C13.1934 27.884 13.178 27.7619 13.1294 27.6517C13.0759 27.5301 12.9846 27.4256 12.8623 27.3603C12.7393 27.2947 12.6009 27.2767 12.4693 27.2998C12.3525 27.3201 12.244 27.3736 12.1569 27.454ZM9.40739 27.9557L9.20882 28.3268C9.17104 28.3976 9.14761 28.4752 9.13989 28.5551C9.13217 28.635 9.1403 28.7156 9.16382 28.7923C9.20939 28.9427 9.31132 29.0753 9.4587 29.1542C9.52956 29.1921 9.60724 29.2156 9.68725 29.2234C9.76726 29.2311 9.84801 29.2229 9.92482 29.1992C10.0786 29.1522 10.208 29.0469 10.2852 28.9058L10.2846 28.9055L11.2741 26.9894C11.2943 26.8697 11.2789 26.7468 11.2299 26.6358C11.1764 26.5141 11.0851 26.4097 10.9628 26.3443C10.8513 26.2849 10.724 26.2616 10.5987 26.2779C10.4951 26.291 10.3965 26.3299 10.3119 26.3912L9.40782 27.9559L9.40739 27.9557ZM8.58845 27.38L9.47963 25.8375C9.53588 25.6992 9.53664 25.5472 9.4902 25.4098C9.44226 25.268 9.3432 25.1435 9.20264 25.0685C9.13176 25.0308 9.05414 25.0074 8.97422 24.9997C8.8943 24.992 8.81365 25.0001 8.73688 25.0237C8.5867 25.0692 8.45413 25.171 8.37538 25.3183L7.69151 26.597C7.65374 26.6678 7.63032 26.7454 7.6226 26.8253C7.61487 26.9052 7.623 26.9858 7.64651 27.0625C7.69207 27.2128 7.79401 27.3455 7.94138 27.4243C8.05426 27.4847 8.18095 27.5047 8.30388 27.4895C8.40631 27.477 8.50406 27.4393 8.58845 27.38ZM8.19064 16.4905C8.18187 16.4677 8.1687 16.4469 8.15188 16.4293C8.13507 16.4116 8.11493 16.3975 8.09263 16.3877L6.71876 15.7804C6.69622 15.7703 6.67193 15.7648 6.64726 15.7642C6.62259 15.7636 6.59804 15.7678 6.57501 15.7767C6.55227 15.7854 6.53148 15.7986 6.51383 15.8154C6.49619 15.8322 6.48204 15.8524 6.4722 15.8747L3.31776 23.0116C3.30772 23.0341 3.30222 23.0584 3.30158 23.0831C3.30093 23.1078 3.30516 23.1323 3.31401 23.1553C3.32278 23.1781 3.33594 23.1989 3.35276 23.2165C3.36958 23.2342 3.38971 23.2483 3.41201 23.2582L4.76157 23.8547C4.77445 23.8595 4.78714 23.8649 4.79945 23.8708C4.84164 23.8858 4.88783 23.8852 4.92964 23.8692C4.97105 23.8532 5.00535 23.8229 5.02632 23.7838C5.03164 23.7708 5.03745 23.758 5.04376 23.7456L8.18689 16.6342C8.19694 16.6117 8.20244 16.5874 8.20309 16.5627C8.20373 16.538 8.1995 16.5135 8.19064 16.4905ZM7.01239 17.3893C6.95116 17.3864 6.89109 17.3716 6.83561 17.3455C6.78012 17.3195 6.73032 17.2827 6.68903 17.2374C6.64774 17.1921 6.61578 17.1391 6.59498 17.0815C6.57417 17.0238 6.56492 16.9626 6.56776 16.9014C6.5706 16.8402 6.58547 16.7801 6.61153 16.7246C6.63758 16.6691 6.67431 16.6193 6.71961 16.578C6.76492 16.5368 6.81791 16.5048 6.87556 16.484C6.93322 16.4632 6.99441 16.4539 7.05564 16.4568C7.17929 16.4625 7.29561 16.5171 7.37899 16.6086C7.46237 16.7001 7.506 16.821 7.50026 16.9447C7.49452 17.0683 7.4399 17.1846 7.34841 17.268C7.25691 17.3514 7.13604 17.395 7.01239 17.3893ZM17.1303 2.53765C15.2758 2.53765 13.7724 4.04103 13.7724 5.89553C13.7724 7.75003 15.2758 9.2534 17.1303 9.2534C18.9848 9.2534 20.4881 7.75003 20.4881 5.89553C20.4881 4.04103 18.9848 2.53765 17.1303 2.53765ZM18.2348 7.7039C18.0579 7.83809 17.8462 7.9304 17.6303 7.98471V8.0204C17.6303 8.15301 17.5776 8.28019 17.4838 8.37396C17.39 8.46772 17.2629 8.5204 17.1303 8.5204C16.9977 8.5204 16.8705 8.46772 16.7767 8.37396C16.6829 8.28019 16.6303 8.15301 16.6303 8.0204V7.97422C16.4651 7.92747 16.3082 7.85728 16.1676 7.76365C15.8812 7.5729 15.6617 7.29109 15.5687 6.91796C15.5377 6.78971 15.5588 6.6544 15.6273 6.54166C15.6959 6.42891 15.8063 6.34792 15.9344 6.3164C16.0626 6.28489 16.1979 6.30543 16.311 6.37352C16.424 6.44162 16.5054 6.55171 16.5374 6.67972C16.5648 6.78947 16.6313 6.87359 16.7184 6.93165C16.8402 7.01272 16.9993 7.05134 17.1624 7.0474C17.1865 7.04684 17.2211 7.04384 17.2661 7.0384C17.4064 7.0214 17.5426 6.97971 17.6333 6.91096C17.6797 6.87578 17.7106 6.82897 17.7093 6.77047L17.7055 6.74022C17.6939 6.64509 17.6359 6.57928 17.5584 6.5324C17.4225 6.4504 17.233 6.40515 17.0533 6.37565C16.7767 6.33022 16.4744 6.24628 16.2221 6.08153C15.9118 5.87897 15.6888 5.5784 15.667 5.12915C15.6456 4.68728 15.8355 4.33315 16.1352 4.08953C16.2789 3.97265 16.4484 3.88378 16.6303 3.8259V3.77065C16.6303 3.63804 16.683 3.51087 16.7768 3.4171C16.8705 3.32333 16.9977 3.27065 17.1303 3.27065C17.2629 3.27065 17.3901 3.32333 17.4839 3.4171C17.5776 3.51087 17.6303 3.63804 17.6303 3.77065V3.81959C18.0297 3.94334 18.3866 4.22184 18.5798 4.68209C18.6283 4.80382 18.6271 4.93973 18.5764 5.06057C18.5258 5.18141 18.4297 5.27752 18.3088 5.32822C18.188 5.37891 18.0521 5.38013 17.9303 5.33162C17.8086 5.28312 17.7108 5.18875 17.6579 5.06884C17.5473 4.80528 17.2686 4.70328 17.0013 4.75709C16.9101 4.77547 16.8273 4.81159 16.7641 4.86303C16.6996 4.91547 16.6587 4.99034 16.6631 5.08234C16.6667 5.15597 16.7078 5.20822 16.7651 5.24565C16.8805 5.32097 17.0498 5.36447 17.2134 5.39134C17.4971 5.4379 17.8083 5.51659 18.074 5.67703C18.3979 5.87259 18.6424 6.16784 18.6977 6.62309C18.7016 6.65509 18.7041 6.69678 18.7053 6.74709C18.7153 7.17034 18.5234 7.48497 18.2348 7.7039ZM17.1303 1.24884C14.5639 1.24884 12.4836 3.32922 12.4836 5.89553C12.4836 8.46184 14.5639 10.5422 17.1303 10.5422C19.6966 10.5422 21.7769 8.46184 21.7769 5.89553C21.7769 3.32928 19.6965 1.24884 17.1303 1.24884ZM17.1303 10.2534C14.7234 10.2534 12.7724 8.30234 12.7724 5.89553C12.7724 3.48872 14.7234 1.53765 17.1303 1.53765C19.5371 1.53765 21.4881 3.48872 21.4881 5.89553C21.4881 8.30234 19.537 10.2534 17.1303 10.2534ZM17.1303 11.5422C15.5419 11.5422 14.1069 10.8862 13.0809 9.83047V17.6572C13.508 17.6989 13.9621 17.8292 14.4521 18.1095C16.1424 17.083 17.3674 17.5835 18.4207 18.014C18.9875 18.2457 19.4878 18.4502 19.8952 18.2383L19.8959 18.2397L20.5928 17.8667L20.4114 17.3987C20.355 17.2539 20.3279 17.0993 20.3314 16.9439C20.3349 16.7886 20.3691 16.6354 20.4319 16.4933C20.4947 16.3508 20.585 16.222 20.6976 16.1145C20.8102 16.0069 20.9429 15.9227 21.0882 15.8666L21.1796 15.8312V9.8304C20.1536 10.8861 18.7186 11.5422 17.1303 11.5422ZM16.545 13.5C16.545 13.6377 16.4327 13.75 16.295 13.75H14.914C14.7763 13.75 14.664 13.6377 14.664 13.5V12.119C14.664 11.9813 14.7763 11.869 14.914 11.869H16.295C16.4327 11.869 16.545 11.9813 16.545 12.119V13.5ZM19.5964 13.5C19.5964 13.6377 19.4841 13.75 19.3464 13.75H17.9654C17.8278 13.75 17.7154 13.6377 17.7154 13.5V12.119C17.7154 11.9813 17.8278 11.869 17.9654 11.869H19.3464C19.4841 11.869 19.5964 11.9813 19.5964 12.119V13.5ZM8.02395 7.55478H12.0809V17.6992C11.9984 17.7124 11.9168 17.7273 11.8359 17.7434V8.8779C11.8359 8.74529 11.7832 8.61812 11.6894 8.52435C11.5957 8.43058 11.4685 8.3779 11.3359 8.3779C11.2033 8.3779 11.0761 8.43058 10.9823 8.52435C10.8886 8.61812 10.8359 8.74529 10.8359 8.8779V17.9631C10.4736 18.029 10.1356 18.0455 9.83139 17.9098V8.8779C9.83139 8.74529 9.77871 8.61812 9.68494 8.52435C9.59117 8.43058 9.46399 8.3779 9.33139 8.3779C9.19878 8.3779 9.0716 8.43058 8.97783 8.52435C8.88406 8.61812 8.83139 8.74529 8.83139 8.8779V15.6981C8.73306 15.6044 8.61923 15.5284 8.49495 15.4735L7.58639 15.072V7.99228C7.58645 7.75128 7.78295 7.55478 8.02395 7.55478ZM28.261 7.55478H22.1796V15.4435L22.4895 15.3234C22.6343 15.2672 22.7887 15.2401 22.9439 15.2437C23.0991 15.2473 23.2521 15.2815 23.3941 15.3443C23.5367 15.407 23.6654 15.4973 23.7729 15.6099C23.8805 15.7225 23.9647 15.8553 24.0208 16.0005L26.8413 23.2759C26.9347 23.5159 26.947 23.7798 26.8763 24.0275H28.2611C28.502 24.0275 28.6986 23.8309 28.6986 23.59V7.99228C28.6985 7.75128 28.5019 7.55478 28.261 7.55478ZM27.3093 10.6029C27.3093 10.775 27.1689 10.9154 26.9968 10.9154H22.8812C22.7984 10.9152 22.719 10.8823 22.6604 10.8237C22.6018 10.7651 22.5689 10.6857 22.5687 10.6029V9.4169C22.5687 9.24478 22.7091 9.1044 22.8812 9.1044H26.9968C27.1689 9.1044 27.3093 9.24478 27.3093 9.4169V10.6029Z" fill="#FF845E"></path></svg>