<svg xmlns="http://www.w3.org/2000/svg" width="32" height="32" viewBox="0 0 32 32" fill="none"><g clip-path="url(#clip0_1749_2928)"><path fill-rule="evenodd" clip-rule="evenodd" d="M25.372 10.922V14.4668H24.7252V10.922C24.9401 10.9431 25.157 10.9431 25.372 10.922ZM25.0486 3.12013C22.658 3.12013 20.2673 4.54788 20.2673 7.40331C20.2673 10.5155 22.658 11.1661 22.658 13.4818V13.6253C22.658 14.0881 23.0367 14.4668 23.4994 14.4668H23.8536V10.7877C23.8536 10.7621 23.8518 10.7366 23.8516 10.7111C23.7981 10.6897 23.7452 10.6669 23.693 10.6426C23.1188 10.3748 22.6286 9.92669 22.3354 9.29813C21.9998 8.57869 22.0092 7.9895 22.1964 7.62362C22.351 7.32169 22.6121 7.15138 22.9257 7.13513C23.1935 7.12131 23.485 7.2295 23.7514 7.47762C24.1757 7.87269 24.5846 8.69475 24.6967 10.0375C24.9294 10.0714 25.1677 10.0714 25.4003 10.0375C25.5125 8.69475 25.9214 7.87275 26.3457 7.47762C26.6121 7.2295 26.9037 7.12131 27.1714 7.13513C27.485 7.15131 27.7462 7.32169 27.9007 7.62356C28.088 7.98944 28.0973 8.57869 27.7617 9.29806C27.4686 9.92662 26.9783 10.3747 26.4041 10.6425C26.3519 10.6668 26.299 10.6897 26.2455 10.711C26.2453 10.7364 26.2435 10.7619 26.2435 10.7877V14.4668H26.5977C27.0605 14.4668 27.4392 14.0881 27.4392 13.6253V13.4818C27.4392 11.166 29.8298 10.5155 29.8298 7.40331C29.8298 4.54788 27.4392 3.12013 25.0486 3.12013ZM26.9688 8.92894C27.1085 8.62938 27.1661 8.39275 27.1657 8.22313C27.165 7.97425 27.0973 7.97069 26.9405 8.11675C26.6832 8.35637 26.4338 8.85781 26.3159 9.69081C26.5893 9.50612 26.8182 9.25213 26.9689 8.92894H26.9688ZM23.1568 8.11669C23.0127 7.98256 22.9364 7.96988 22.9303 8.19156C22.9254 8.36638 22.9828 8.61669 23.1284 8.92887C23.2792 9.25206 23.508 9.50606 23.7813 9.69075C23.6635 8.85775 23.4141 8.35625 23.1568 8.11662V8.11669ZM3.72866 31.5312H7.69603V27.0817H3.72866V31.5312ZM16.6195 31.5312H20.5868V22.6661H16.6195V31.5312ZM10.174 31.5312H14.1414V24.8739H10.174V31.5312ZM23.0648 31.5312H27.0322V20.4583H23.0648V31.5312ZM18.9659 4.40631L19.8405 4.91125C19.9406 4.9681 20.0592 4.983 20.1702 4.95269C20.2813 4.92238 20.3759 4.84932 20.4333 4.7495C20.4906 4.64967 20.5061 4.53118 20.4764 4.41995C20.4467 4.30871 20.3741 4.21377 20.2746 4.15588L19.4 3.651C19.2999 3.59415 19.1813 3.57925 19.0703 3.60956C18.9592 3.63987 18.8646 3.71293 18.8072 3.81275C18.7499 3.91258 18.7344 4.03107 18.7641 4.1423C18.7938 4.25354 18.8664 4.34842 18.9659 4.40631ZM25.0486 2.35356C25.1646 2.35356 25.2759 2.30747 25.358 2.22542C25.44 2.14337 25.4861 2.03209 25.4861 1.91606V0.90625C25.4861 0.790218 25.44 0.678938 25.358 0.596891C25.2759 0.514844 25.1646 0.46875 25.0486 0.46875C24.9326 0.46875 24.8213 0.514844 24.7392 0.596891C24.6572 0.678938 24.6111 0.790218 24.6111 0.90625V1.91606C24.6111 2.03209 24.6572 2.14337 24.7392 2.22542C24.8213 2.30747 24.9326 2.35356 25.0486 2.35356ZM27.7591 3.05325C27.8593 3.11126 27.9784 3.1271 28.0902 3.09729C28.2021 3.06749 28.2975 2.99447 28.3555 2.89431L28.8605 2.01981C28.9167 1.91975 28.9312 1.80157 28.9009 1.69086C28.8707 1.58015 28.798 1.48582 28.6987 1.4283C28.5994 1.37078 28.4814 1.35469 28.3703 1.38351C28.2592 1.41234 28.1639 1.48376 28.1051 1.58231L27.6002 2.45681C27.5422 2.55698 27.5263 2.67609 27.5561 2.78794C27.5859 2.8998 27.6589 2.99523 27.7591 3.05325ZM21.7416 2.89431C21.8004 2.99287 21.8957 3.06429 22.0068 3.09311C22.1179 3.12194 22.2359 3.10585 22.3352 3.04832C22.4345 2.9908 22.5072 2.89647 22.5374 2.78577C22.5677 2.67506 22.5532 2.55688 22.497 2.45681L21.992 1.58231C21.9332 1.48376 21.8379 1.41234 21.7268 1.38351C21.6157 1.35469 21.4978 1.37078 21.3984 1.4283C21.2991 1.48582 21.2265 1.58015 21.1962 1.69086C21.1659 1.80157 21.1804 1.91975 21.2367 2.01981L21.7416 2.89431ZM31.2919 3.81156C31.2343 3.71139 31.1393 3.6382 31.0278 3.60808C30.9163 3.57795 30.7973 3.59337 30.6972 3.65094L29.8226 4.15581C29.7231 4.21371 29.6505 4.30865 29.6208 4.41988C29.591 4.53112 29.6066 4.6496 29.6639 4.74943C29.7213 4.84926 29.8159 4.92232 29.927 4.95263C30.038 4.98294 30.1566 4.96804 30.2567 4.91119L31.1313 4.40625C31.2315 4.34868 31.3046 4.25368 31.3348 4.14214C31.3649 4.0306 31.3495 3.91173 31.2919 3.81156ZM26.8083 16.4392H23.2888C23.1728 16.4392 23.0615 16.4853 22.9794 16.5673C22.8974 16.6494 22.8513 16.7607 22.8513 16.8767C22.8513 16.9927 22.8974 17.104 22.9794 17.186C23.0615 17.2681 23.1728 17.3142 23.2888 17.3142H24.008V17.4929C24.008 17.8689 24.3157 18.1764 24.6915 18.1764H25.4057C25.7813 18.1764 26.0891 17.8687 26.0891 17.4929V17.3142H26.8083C26.9244 17.3142 27.0357 17.2681 27.1177 17.186C27.1998 17.104 27.2458 16.9927 27.2458 16.8767C27.2458 16.7607 27.1998 16.6494 27.1177 16.5673C27.0357 16.4853 26.9244 16.4392 26.8083 16.4392ZM27.0388 15.0154H23.0583C22.9423 15.0154 22.831 15.0615 22.7489 15.1436C22.6669 15.2256 22.6208 15.3369 22.6208 15.4529C22.6208 15.569 22.6669 15.6802 22.7489 15.7623C22.831 15.8443 22.9423 15.8904 23.0583 15.8904H27.0388C27.1548 15.8904 27.2661 15.8443 27.3481 15.7623C27.4302 15.6802 27.4763 15.569 27.4763 15.4529C27.4763 15.3369 27.4302 15.2256 27.3481 15.1436C27.2661 15.0615 27.1548 15.0154 27.0388 15.0154ZM12.2423 16.9627C12.2813 17.0298 12.3452 17.0787 12.4201 17.0988C12.495 17.1188 12.5748 17.1084 12.642 17.0697L18.19 13.8667L18.5825 14.5465C18.6303 14.6293 18.7171 14.6735 18.8121 14.6635C18.9071 14.6535 18.9828 14.5923 19.0124 14.5014L19.8668 11.875C19.8775 11.8435 19.8813 11.8101 19.8778 11.777C19.8744 11.744 19.8637 11.712 19.8467 11.6835C19.8305 11.6545 19.8082 11.6293 19.7813 11.6098C19.7544 11.5902 19.7235 11.5768 19.6909 11.5704L16.9892 10.9971C16.8957 10.9773 16.8048 11.0122 16.7486 11.0895C16.6925 11.1668 16.6873 11.2641 16.7352 11.3468L17.1277 12.0266L11.5797 15.2297C11.5126 15.2686 11.4637 15.3325 11.4436 15.4074C11.4235 15.4823 11.434 15.5621 11.4726 15.6294L12.2423 16.9626V16.9627ZM9.38253 22.0739L9.88803 22.8277L8.69597 24.0197L7.94216 23.5142L6.73072 24.0161L6.55516 24.9064H4.86935L4.69378 24.0161L3.48235 23.5142L2.72853 24.0197L1.53647 22.8277L2.04197 22.0739L1.54003 20.8624L0.649658 20.6869V19.0011L1.54003 18.8255L2.04197 17.614L1.53647 16.8602L2.72853 15.6682L3.48235 16.1737L4.69378 15.6718L4.86935 14.7814H6.55516L6.73072 15.6718L7.94222 16.1737L8.69603 15.6682L9.8881 16.8602L9.3826 17.614L9.88453 18.8255L10.7749 19.0011V20.6869L9.88453 20.8624L9.3826 22.0739H9.38253ZM8.30847 19.8439C8.30847 18.4101 7.1461 17.2477 5.71228 17.2477C4.27847 17.2477 3.1161 18.4101 3.1161 19.8439C3.1161 21.2777 4.27847 22.4401 5.71228 22.4401C7.1461 22.4401 8.30847 21.2777 8.30847 19.8439Z" fill="#FF845E"></path></g><defs><clipPath id="clip0_1749_2928"><rect width="32" height="32" fill="white"></rect></clipPath></defs></svg>