<svg xmlns="http://www.w3.org/2000/svg" width="45" height="45" viewBox="0 0 45 45" fill="none"><path d="M17.205 40.1288H27.7958V42.1984H17.205V40.1288ZM14.2879 36.6277H30.712V39.0493H14.2879V36.6277ZM14.2879 33.1284H30.712V35.5491H14.2879V33.1284ZM22.4999 2.80156C14.8552 2.80156 8.63574 9.02101 8.63574 16.6658C8.63574 19.111 9.28098 21.5151 10.5014 23.618C11.6868 25.6579 13.3844 27.3747 15.412 28.5838C15.4923 28.6314 15.5589 28.6992 15.6051 28.7804C15.6513 28.8616 15.6756 28.9535 15.6755 29.0469V32.0481H29.3261V29.0469C29.3261 28.8569 29.4259 28.6809 29.5896 28.5838C31.6173 27.3747 33.314 25.6579 34.5002 23.618C35.7207 21.5151 36.3659 19.1119 36.3659 16.6658C36.3641 9.02101 30.1447 2.80156 22.4999 2.80156ZM30.6061 15.9732C30.9037 15.9732 31.1454 16.2149 31.1454 16.5125C31.1454 16.8111 30.9037 17.0518 30.6061 17.0518H28.6599V18.9105H30.6061C30.9037 18.9105 31.1454 19.1521 31.1454 19.4498C31.1454 19.7475 30.9037 19.9891 30.6061 19.9891H28.6599V20.3866C28.6599 21.6473 27.6347 22.6733 26.3731 22.6733H25.7918V24.6187C25.7918 24.9172 25.5501 25.158 25.2525 25.158C25.1816 25.1581 25.1114 25.1442 25.046 25.1172C24.9805 25.0901 24.921 25.0504 24.8709 25.0003C24.8208 24.9502 24.7811 24.8907 24.754 24.8252C24.7269 24.7597 24.7131 24.6895 24.7132 24.6187V22.6733H22.7013V24.6187C22.7014 24.6895 22.6875 24.7597 22.6605 24.8252C22.6334 24.8907 22.5937 24.9502 22.5436 25.0003C22.4935 25.0504 22.434 25.0901 22.3685 25.1172C22.303 25.1442 22.2329 25.1581 22.162 25.158C21.8643 25.158 21.6227 24.9172 21.6227 24.6187V22.6733H19.9199V24.6187C19.9199 24.9172 19.6783 25.158 19.3806 25.158C19.0829 25.158 18.8413 24.9172 18.8413 24.6187V22.6733H18.6285C17.3678 22.6733 16.3418 21.6482 16.3418 20.3866V19.9891H14.3956C14.0979 19.9891 13.8563 19.7475 13.8563 19.4498C13.8563 19.1521 14.0979 18.9105 14.3956 18.9105H16.3418V17.0527H14.3956C14.0979 17.0527 13.8563 16.812 13.8563 16.5134C13.8563 16.2158 14.0979 15.9741 14.3956 15.9741H16.3418V14.1172H14.3956C14.0979 14.1172 13.8563 13.8756 13.8563 13.5779C13.8563 13.2803 14.0979 13.0386 14.3956 13.0386H16.3418V12.6411C16.3418 11.3804 17.367 10.3544 18.6285 10.3544H19.026V8.4073C19.026 8.10963 19.2668 7.868 19.5653 7.868C19.863 7.868 20.1046 8.10963 20.1046 8.4073V10.3535H21.9615V8.4073C21.9615 8.10963 22.2032 7.868 22.5008 7.868C22.7985 7.868 23.0401 8.10963 23.0401 8.4073V10.3535H24.897V8.4073C24.897 8.10963 25.1387 7.868 25.4363 7.868C25.7349 7.868 25.9756 8.10963 25.9756 8.4073V10.3535H26.3731C27.6338 10.3535 28.6599 11.3787 28.6599 12.6403V13.0377H30.6061C30.9037 13.0377 31.1454 13.2794 31.1454 13.577C31.1454 13.8747 30.9037 14.1163 30.6061 14.1163H28.6599V15.9732H30.6061Z" fill="#FF845E"></path><path d="M26.373 11.433H18.6267C17.9614 11.433 17.4194 11.974 17.4194 12.6403V20.3875C17.4194 21.0528 17.9605 21.5947 18.6267 21.5947H26.373C27.0384 21.5947 27.5803 21.0537 27.5803 20.3875V12.6403C27.5803 11.974 27.0384 11.433 26.373 11.433ZM23.1189 16.8102V18.6452C23.1189 18.9429 22.8781 19.1845 22.5796 19.1845C22.2819 19.1845 22.0403 18.9429 22.0403 18.6452V17.3521H20.5896V18.6452C20.5896 18.9429 20.3488 19.1845 20.0503 19.1845C19.7526 19.1845 19.511 18.9429 19.511 18.6452V15.6476C19.511 14.653 20.3208 13.8432 21.3162 13.8432C22.3108 13.8432 23.1206 14.653 23.1206 15.6476V16.8102H23.1189ZM25.4905 18.6452C25.4905 18.9429 25.2489 19.1845 24.9512 19.1845C24.6536 19.1845 24.4119 18.9429 24.4119 18.6452V14.3825C24.4119 14.0848 24.6536 13.8432 24.9512 13.8432C25.2489 13.8432 25.4905 14.0848 25.4905 14.3825V18.6452Z" fill="#FF845E"></path><path d="M22.0395 15.6467V16.2718H20.5889V15.6467C20.5889 15.2475 20.9145 14.9218 21.3146 14.9218C21.7139 14.9218 22.0395 15.2475 22.0395 15.6467Z" fill="#FF845E"></path></svg>