<svg xmlns="http://www.w3.org/2000/svg" width="48" height="48" viewBox="0 0 48 48" fill="none"><g clip-path="url(#clip0_2922_3501)"><path d="M32.81 1H33.9789C34.5864 1 35.0788 1.55125 35.0788 2.2312V8.01951M12.6356 4.38564V2.2312C12.6356 1.55125 13.1281 1 13.7355 1H29.652M7.0708 35.4916V30.932H40.6437V35.4916M23.8572 26.6307V35.4916" stroke="#FF845E" stroke-miterlimit="10" stroke-linecap="round" stroke-linejoin="round"></path><path d="M37.3782 9.35697V25.0756C37.3782 25.739 36.8978 26.2768 36.3051 26.2768H11.4091C10.8164 26.2768 10.3359 25.7391 10.3359 25.0756V5.85633C10.3359 5.19295 10.8164 4.65509 11.4091 4.65509H17.0577C17.4354 4.65509 17.7854 4.87748 17.9791 5.24052L19.2223 7.57133C19.3173 7.74949 19.452 7.89699 19.6132 7.99942C19.7744 8.10186 19.9566 8.15572 20.142 8.15573H36.3051C36.8978 8.15573 37.3782 8.69349 37.3782 9.35697Z" stroke="#FF845E" stroke-miterlimit="10" stroke-linecap="round" stroke-linejoin="round"></path><path d="M3.2229 35.4916H9.39801C10.2378 35.4916 10.9185 36.2536 10.9185 37.1936V38.6379M26.5871 12.4589V21.9734C26.5871 22.644 27.0729 23.1878 27.672 23.1878H33.5339C34.133 23.1878 34.6188 22.644 34.6188 21.9734V12.4589C34.6188 11.7882 34.133 11.2445 33.5339 11.2445H27.672C27.0729 11.2445 26.5871 11.7882 26.5871 12.4589ZM20.703 15.5688H15.552C14.7901 15.5688 14.1723 14.8774 14.1723 14.0244C14.1723 13.1715 14.7901 12.48 15.552 12.48H20.703C21.4649 12.48 22.0827 13.1715 22.0827 14.0244C22.0827 14.8774 21.465 15.5688 20.703 15.5688ZM20.703 21.7878H15.552C14.7901 21.7878 14.1723 21.0963 14.1723 20.2434C14.1723 19.3905 14.7901 18.699 15.552 18.699H20.703C21.4649 18.699 22.0827 19.3905 22.0827 20.2434C22.0827 21.0963 21.465 21.7878 20.703 21.7878Z" stroke="#FF845E" stroke-miterlimit="10" stroke-linecap="round" stroke-linejoin="round"></path><path d="M3.92801 46.7143H2.06992C1.47903 46.7143 1 46.1806 1 45.5223V36.6836C1 36.0253 1.47903 35.4916 2.06992 35.4916H3.99534C4.372 35.4916 4.72089 35.7123 4.91404 36.0725L6.15366 38.3854C6.2488 38.5625 6.38326 38.7089 6.54397 38.8106C6.70467 38.9122 6.88614 38.9655 7.07071 38.9653H12.0715C12.6624 38.9653 13.1414 39.4989 13.1414 40.1573V45.5222C13.1414 46.1805 12.6624 46.7142 12.0715 46.7142H7.07071M20.0093 35.4916H26.1844C27.0242 35.4916 27.705 36.2536 27.705 37.1937V38.6379" stroke="#FF845E" stroke-miterlimit="10" stroke-linecap="round" stroke-linejoin="round"></path><path d="M36.7957 35.4916H42.9708C43.8106 35.4916 44.4913 36.2536 44.4913 37.1937V38.6379M29.9278 40.1574V45.5223C29.9278 46.1806 29.4488 46.7143 28.8579 46.7143H18.8563C18.2654 46.7143 17.7864 46.1806 17.7864 45.5223V36.6836C17.7864 36.0253 18.2654 35.4916 18.8563 35.4916H20.7817C21.1584 35.4916 21.5073 35.7123 21.7004 36.0725L22.94 38.3854C23.0352 38.5625 23.1696 38.7089 23.3303 38.8106C23.491 38.9122 23.6725 38.9655 23.8571 38.9653H28.8579C29.4488 38.9654 29.9278 39.4991 29.9278 40.1574Z" stroke="#FF845E" stroke-miterlimit="10" stroke-linecap="round" stroke-linejoin="round"></path><path d="M46.7144 40.1574V45.5223C46.7144 46.1806 46.2354 46.7143 45.6445 46.7143H35.6429C35.052 46.7143 34.573 46.1806 34.573 45.5223V36.6836C34.573 36.0253 35.052 35.4916 35.6429 35.4916H37.5683C37.945 35.4916 38.2939 35.7123 38.487 36.0725L39.7267 38.3854C39.8218 38.5625 39.9563 38.7089 40.117 38.8106C40.2777 38.9122 40.4591 38.9655 40.6437 38.9653H45.6445C46.2354 38.9654 46.7144 39.4991 46.7144 40.1574Z" stroke="#FF845E" stroke-miterlimit="10" stroke-linecap="round" stroke-linejoin="round"></path></g><defs><clipPath id="clip0_2922_3501"><rect width="48" height="48" fill="white"></rect></clipPath></defs></svg>