<svg xmlns="http://www.w3.org/2000/svg" width="48" height="48" viewBox="0 0 48 48" fill="none"><g clip-path="url(#clip0_3092_3101)"><path d="M33.4337 19.7645V44.784H30.915" stroke="#FF845E" stroke-width="1.5" stroke-miterlimit="10" stroke-linecap="round" stroke-linejoin="round"></path><path d="M24.6962 44.7841H15.1523V3.99999H33.4335V16.3584" stroke="#FF845E" stroke-width="1.5" stroke-miterlimit="10" stroke-linecap="round" stroke-linejoin="round"></path><path d="M27.5088 44.7841H28.1025" stroke="#FF845E" stroke-width="1.5" stroke-miterlimit="10" stroke-linecap="round" stroke-linejoin="round"></path><path d="M33.4336 40.5616H47.5858V8.23671H33.4336" stroke="#FF845E" stroke-width="1.5" stroke-miterlimit="10" stroke-linecap="round" stroke-linejoin="round"></path><path d="M15.1523 40.5616H1V8.23671H15.1523" stroke="#FF845E" stroke-width="1.5" stroke-miterlimit="10" stroke-linecap="round" stroke-linejoin="round"></path><path d="M15.1523 9.6369H33.4335" stroke="#FF845E" stroke-width="1.5" stroke-miterlimit="10" stroke-linecap="round" stroke-linejoin="round"></path><path d="M6.00879 13.8855H15.1524" stroke="#FF845E" stroke-width="1.5" stroke-miterlimit="10" stroke-linecap="round" stroke-linejoin="round"></path><path d="M1 13.8856H4.60243" stroke="#FF845E" stroke-width="1.5" stroke-miterlimit="10" stroke-linecap="round" stroke-linejoin="round"></path><path d="M33.4336 13.8856H47.5858" stroke="#FF845E" stroke-width="1.5" stroke-miterlimit="10" stroke-linecap="round" stroke-linejoin="round"></path><path d="M17.9829 6.10828V7.51453" stroke="#FF845E" stroke-width="1.5" stroke-miterlimit="10" stroke-linecap="round" stroke-linejoin="round"></path><path d="M20.7832 6.10828V7.51453" stroke="#FF845E" stroke-width="1.5" stroke-miterlimit="10" stroke-linecap="round" stroke-linejoin="round"></path><path d="M3.85742 10.327V11.7333" stroke="#FF845E" stroke-width="1.5" stroke-miterlimit="10" stroke-linecap="round" stroke-linejoin="round"></path><path d="M36.291 10.327V11.7333" stroke="#FF845E" stroke-width="1.5" stroke-miterlimit="10" stroke-linecap="round" stroke-linejoin="round"></path><path d="M18.665 27.9131H29.915" stroke="#FF845E" stroke-width="1.5" stroke-miterlimit="10" stroke-linecap="round" stroke-linejoin="round"></path><path d="M36.9463 32.1213H43.9775" stroke="#FF845E" stroke-width="1.5" stroke-miterlimit="10" stroke-linecap="round" stroke-linejoin="round"></path><path d="M18.665 32.1268H29.915" stroke="#FF845E" stroke-width="1.5" stroke-miterlimit="10" stroke-linecap="round" stroke-linejoin="round"></path><path d="M18.665 36.3406H29.915" stroke="#FF845E" stroke-width="1.5" stroke-miterlimit="10" stroke-linecap="round" stroke-linejoin="round"></path><path d="M18.665 40.5616H20.0713" stroke="#FF845E" stroke-width="1.5" stroke-miterlimit="10" stroke-linecap="round" stroke-linejoin="round"></path><path d="M21.4775 40.5616H22.8838" stroke="#FF845E" stroke-width="1.5" stroke-miterlimit="10" stroke-linecap="round" stroke-linejoin="round"></path><path d="M36.9463 36.3406H38.3525" stroke="#FF845E" stroke-width="1.5" stroke-miterlimit="10" stroke-linecap="round" stroke-linejoin="round"></path><path d="M39.7588 36.3406H41.165" stroke="#FF845E" stroke-width="1.5" stroke-miterlimit="10" stroke-linecap="round" stroke-linejoin="round"></path><path d="M4.60254 32.1213H11.6338" stroke="#FF845E" stroke-width="1.5" stroke-miterlimit="10" stroke-linecap="round" stroke-linejoin="round"></path><path d="M4.60254 36.3406H5.00879" stroke="#FF845E" stroke-width="1.5" stroke-miterlimit="10" stroke-linecap="round" stroke-linejoin="round"></path><path d="M7.41504 36.3406H8.82129" stroke="#FF845E" stroke-width="1.5" stroke-miterlimit="10" stroke-linecap="round" stroke-linejoin="round"></path><path d="M9.57224 19.4748H7.76087C6.99053 19.4748 6.36597 20.1005 6.36597 20.8724C6.36597 21.6438 6.98968 22.2693 7.75946 22.27L8.47674 22.2707C9.24652 22.2714 9.87033 22.8969 9.87033 23.6683V23.6888C9.87033 24.4582 9.24961 25.0828 8.48162 25.0863L6.64784 25.099" stroke="#FF845E" stroke-width="1.5" stroke-miterlimit="10" stroke-linecap="round" stroke-linejoin="round"></path><path d="M8.11816 19.4748V17.3584" stroke="#FF845E" stroke-width="1.5" stroke-miterlimit="10" stroke-linecap="round" stroke-linejoin="round"></path><path d="M8.11816 27.2021V25.0994" stroke="#FF845E" stroke-width="1.5" stroke-miterlimit="10" stroke-linecap="round" stroke-linejoin="round"></path><path d="M25.7522 15.263H23.9408C23.1705 15.263 22.5459 15.8887 22.5459 16.6606C22.5459 17.432 23.1696 18.0575 23.9394 18.0582L24.6567 18.0589C25.4265 18.0596 26.0503 18.6851 26.0503 19.4565V19.4769C26.0503 20.2463 25.4295 20.871 24.6615 20.8745L22.8278 20.8872" stroke="#FF845E" stroke-width="1.5" stroke-miterlimit="10" stroke-linecap="round" stroke-linejoin="round"></path><path d="M24.29 15.263V13.1467" stroke="#FF845E" stroke-width="1.5" stroke-miterlimit="10" stroke-linecap="round" stroke-linejoin="round"></path><path d="M24.29 22.9904V20.8876" stroke="#FF845E" stroke-width="1.5" stroke-miterlimit="10" stroke-linecap="round" stroke-linejoin="round"></path><path d="M41.9446 19.4814H40.1332C39.3628 19.4814 38.7383 20.1071 38.7383 20.879C38.7383 21.6504 39.362 22.2759 40.1318 22.2766L40.8491 22.2773C41.6188 22.278 42.2426 22.9035 42.2426 23.6749V23.6953C42.2426 24.4647 41.6219 25.0894 40.8539 25.0929L39.0202 25.1056" stroke="#FF845E" stroke-width="1.5" stroke-miterlimit="10" stroke-linecap="round" stroke-linejoin="round"></path><path d="M40.4905 19.4814V17.365" stroke="#FF845E" stroke-width="1.5" stroke-miterlimit="10" stroke-linecap="round" stroke-linejoin="round"></path><path d="M40.4905 27.2087V25.1059" stroke="#FF845E" stroke-width="1.5" stroke-miterlimit="10" stroke-linecap="round" stroke-linejoin="round"></path></g><defs><clipPath id="clip0_3092_3101"><rect width="48" height="48" fill="white"></rect></clipPath></defs></svg>