<?xml version="1.0" encoding="UTF-8"?>
<svg xmlns="http://www.w3.org/2000/svg" width="130" height="24" viewBox="0 0 130 24" fill="none">
  <g clip-path="url(#clip0_11792_2)">
    <path fill-rule="evenodd" clip-rule="evenodd" d="M19.3288 14.0051C19.3771 17.452 16.6779 20.2724 13.3526 20.2724L9.6665 20.268C8.4788 20.2671 7.51683 19.2711 7.51683 18.0439C7.51683 16.8157 8.48057 15.8198 9.66909 15.8198H13.3113C14.2147 15.8198 14.9821 15.1434 15.0183 14.1635C15.0544 13.1836 14.2931 12.3746 13.3526 12.3746H6.06731C2.7877 12.3746 0.0506578 9.68324 0.000705441 6.29414C-0.0501082 2.84454 2.65076 0.0214844 5.97688 0.0214844H16.1009C17.2911 0.0214844 18.2557 1.01828 18.2557 2.24825C18.2557 3.47822 17.2911 4.47501 16.1009 4.47501H6.01739C5.11393 4.47501 4.34656 5.15141 4.31039 6.1313C4.27422 7.11117 5.03556 7.92019 5.97605 7.92019H13.257C16.5392 7.92019 19.2814 10.6133 19.3288 14.0051ZM5.36886 18.0528C5.36886 19.2787 4.40719 20.2724 3.22091 20.2724C2.03463 20.2724 1.07296 19.2787 1.07296 18.0528C1.07296 16.8269 2.03463 15.8331 3.22091 15.8331C4.40719 15.8331 5.36886 16.8269 5.36886 18.0528Z" fill="#110229"></path>
    <path d="M71.4559 6.89214V9.39835C71.4559 9.51586 71.3636 9.61107 71.2501 9.61107H68.6689V18.7771C68.6689 18.8946 68.5766 18.9898 68.4631 18.9898H65.6432C65.5298 18.9898 65.4375 18.8946 65.4375 18.7771V1.76935C65.4375 1.65187 65.5298 1.55664 65.6432 1.55664H68.4631C68.5766 1.55664 68.6689 1.65187 68.6689 1.76935V6.67942H71.2501C71.3636 6.67942 71.4559 6.77469 71.4559 6.89214Z" fill="#110229"></path>
    <path d="M36.5483 10.0812C36.0634 9.71639 35.5251 9.42268 34.9326 9.20194C34.34 8.9812 33.7285 8.80682 33.0955 8.67953C32.4625 8.55224 31.8502 8.42501 31.2585 8.2968C30.6668 8.16957 30.132 8.01646 29.6557 7.8385C29.1786 7.66047 28.7971 7.41397 28.5085 7.09978C28.2209 6.78559 28.077 6.36465 28.077 5.83866C28.077 5.24414 28.3156 4.76443 28.7919 4.39865C29.269 4.03375 29.9261 3.85041 30.765 3.85041C31.6693 3.85041 32.4048 4.07558 32.9723 4.52592C33.465 4.91751 33.819 5.51025 34.0317 6.30499C34.061 6.41362 34.1643 6.48301 34.272 6.45986L37.2932 5.82086C37.4129 5.79594 37.4861 5.66778 37.4483 5.54763C37.164 4.65141 36.8462 4.02129 36.426 3.49352C35.7766 2.67829 34.9713 2.07487 34.0093 1.68417C33.0473 1.29346 31.9991 1.09766 30.8649 1.09766C29.5498 1.09766 28.4319 1.32728 27.5112 1.78562C26.5905 2.24397 25.892 2.85629 25.4149 3.62079C24.9378 4.3853 24.6992 5.22634 24.6992 6.14391C24.6992 7.01077 24.8387 7.7281 25.1187 8.29772C25.3985 8.86734 25.7767 9.33008 26.2529 9.68698C26.7301 10.0438 27.2683 10.3286 27.8686 10.5404C28.4689 10.7531 29.0856 10.9312 29.7186 11.0754C30.3516 11.2195 30.9639 11.3601 31.5556 11.4954C32.1473 11.6316 32.6821 11.7971 33.1584 11.992C33.6355 12.1879 34.0136 12.4548 34.2926 12.7948C34.5717 13.1348 34.7121 13.5851 34.7121 14.1458C34.7121 14.8427 34.4494 15.3989 33.9232 15.8154C33.397 16.232 32.6158 16.4402 31.5806 16.4402C30.5454 16.4402 29.7599 16.1937 29.1269 15.7015C28.5869 15.2814 28.1993 14.7056 27.9642 13.9749C27.9297 13.8663 27.8221 13.8032 27.7153 13.8326L24.8525 14.6336C24.738 14.6656 24.6708 14.7929 24.7113 14.9086C24.9473 15.5956 25.2685 16.1999 25.675 16.7215C26.3244 17.5536 27.1469 18.1739 28.1417 18.5816C29.1364 18.9892 30.2749 19.193 31.5573 19.193C32.8397 19.193 33.9498 18.9803 34.936 18.5558C35.9221 18.1312 36.699 17.5064 37.2665 16.6823C37.8341 15.8582 38.1174 14.8685 38.1174 13.7133C38.1174 12.8295 37.9779 12.0953 37.698 11.5088C37.4181 10.9222 37.0366 10.447 36.5508 10.0812H36.5483Z" fill="#110229"></path>
    <path d="M60.8562 6.92162C60.173 6.47218 59.3886 6.24609 58.5006 6.24609C57.6126 6.24609 56.7867 6.44994 56.071 6.85751C55.6834 7.07825 55.3432 7.34705 55.0478 7.66033V6.71248C55.0478 6.59497 54.9556 6.49976 54.842 6.49976H52.0223C51.9085 6.49976 51.8164 6.59497 51.8164 6.71248V18.5975C51.8164 18.7149 51.9085 18.8102 52.0223 18.8102H54.842C54.9556 18.8102 55.0478 18.7149 55.0478 18.5975V11.7498C55.0478 11.2746 55.1503 10.8447 55.3562 10.4629C55.5611 10.0811 55.8453 9.7874 56.2071 9.58361C56.5688 9.37976 56.9796 9.27744 57.4403 9.27744C58.1311 9.27744 58.6978 9.50705 59.1423 9.96542C59.5856 10.4237 59.8078 11.0192 59.8078 11.7498V18.5975C59.8078 18.7149 59.9002 18.8102 60.0136 18.8102H62.8582C62.9723 18.8102 63.064 18.7149 63.064 18.5975V10.9853C63.064 10.1701 62.8671 9.40115 62.4725 8.67848C62.078 7.95665 61.5388 7.3702 60.858 6.91985L60.8562 6.92162Z" fill="#110229"></path>
    <path d="M82.0701 6.84548C81.3793 6.44671 80.582 6.24651 79.6777 6.24651C78.7734 6.24651 77.9673 6.4503 77.2605 6.85793C76.8878 7.07242 76.5597 7.33228 76.2745 7.63487V1.79474C76.2745 1.67726 76.1828 1.58203 76.0687 1.58203H73.2494C73.1353 1.58203 73.043 1.67726 73.043 1.79474V18.5987C73.043 18.7162 73.1353 18.8114 73.2494 18.8114H76.0687C76.1828 18.8114 76.2745 18.7162 76.2745 18.5987V11.7511C76.2745 11.2758 76.3774 10.846 76.5832 10.4642C76.7878 10.0824 77.0724 9.78867 77.434 9.58488C77.7956 9.38103 78.2066 9.27871 78.667 9.27871C79.3578 9.27871 79.9246 9.50832 80.3691 9.96669C80.8125 10.425 81.0347 11.0204 81.0347 11.7511V18.5987C81.0347 18.7162 81.127 18.8114 81.2405 18.8114H84.0851C84.1992 18.8114 84.2909 18.7162 84.2909 18.5987V10.9866C84.2909 10.0521 84.0939 9.22798 83.6994 8.51418C83.3049 7.80044 82.7622 7.24418 82.0719 6.84548H82.0701Z" fill="#110229"></path>
    <path d="M90.45 4.99736C90.7681 4.63069 91.2097 4.42865 91.7735 4.39128C91.8817 4.38415 91.967 4.29694 91.967 4.18569V1.51838C91.967 1.39912 91.8711 1.30122 91.7559 1.30478C90.774 1.33504 89.9073 1.57623 89.1559 2.02745C88.3498 2.51161 87.733 3.15329 87.3055 3.95162C86.8863 4.7357 86.6735 5.58565 86.6658 6.50055H86.6641V18.5973C86.6641 18.7148 86.7564 18.81 86.8699 18.81H89.7144C89.8285 18.81 89.9202 18.7148 89.9202 18.5973V9.60931H92.5026C92.6161 9.60931 92.7084 9.5141 92.7084 9.39659V6.89038C92.7084 6.77293 92.6161 6.67766 92.5026 6.67766H89.9202C89.9202 6.08313 90.0972 5.4032 90.4512 4.99558L90.45 4.99736Z" fill="#110229"></path>
    <path d="M97.6065 1.55664H94.7877C94.6737 1.55664 94.582 1.65187 94.582 1.76934V18.5973C94.582 18.7148 94.6737 18.81 94.7877 18.81H97.6065C97.72 18.81 97.8123 18.7148 97.8123 18.5973V1.76934C97.8123 1.65187 97.72 1.55664 97.6065 1.55664Z" fill="#110229"></path>
    <path d="M109.104 7.06173C108.142 6.50104 107.053 6.2207 105.836 6.2207C104.62 6.2207 103.555 6.50548 102.593 7.07419C101.631 7.64375 100.871 8.40828 100.312 9.36768C99.7526 10.328 99.4727 11.4111 99.4727 12.617C99.4727 13.823 99.752 14.9408 100.312 15.9172C100.871 16.8944 101.631 17.6678 102.593 18.2365C103.555 18.806 104.636 19.09 105.836 19.09C107.037 19.09 108.146 18.806 109.117 18.2365C110.087 17.6678 110.852 16.8899 111.411 15.9046C111.969 14.9194 112.249 13.8239 112.249 12.617C112.249 11.4102 111.965 10.3235 111.398 9.35522C110.83 8.3869 110.066 7.62242 109.104 7.06173ZM108.537 14.3507C108.282 14.8438 107.92 15.2345 107.451 15.5229C106.983 15.8121 106.444 15.9563 105.836 15.9563C105.229 15.9563 104.719 15.8121 104.258 15.5229C103.797 15.2345 103.44 14.8438 103.185 14.3507C102.93 13.8586 102.802 13.289 102.802 12.6428C102.802 11.9967 102.93 11.428 103.185 10.9349C103.44 10.4428 103.797 10.0556 104.258 9.77531C104.718 9.49497 105.245 9.35522 105.836 9.35522C106.428 9.35522 106.975 9.49588 107.427 9.77531C107.879 10.0556 108.241 10.4419 108.513 10.9349C108.784 11.428 108.92 11.9967 108.92 12.6428C108.92 13.289 108.793 13.8577 108.537 14.3507Z" fill="#110229"></path>
    <path d="M44.2992 13.2729L41.6922 6.63349C41.6603 6.55341 41.5854 6.50091 41.5019 6.50091H38.397C38.2506 6.50091 38.1507 6.65487 38.2076 6.79462L42.5181 17.4807L39.8922 23.6858C39.8328 23.8264 39.9326 23.983 40.0808 23.983H43.0857C43.1667 23.983 43.2407 23.9332 43.2734 23.8567L50.5889 6.79815C50.6492 6.65755 50.5493 6.5 50.4011 6.5H47.2998C47.2179 6.5 47.1439 6.54982 47.1112 6.62729L44.2992 13.2729Z" fill="#110229"></path>
    <path d="M116.253 6.67969H112.983C112.842 6.67969 112.743 6.82119 112.788 6.95912L116.547 18.6688C116.574 18.756 116.654 18.8138 116.742 18.8138H120.012C120.152 18.8138 120.251 18.6723 120.206 18.5344L116.447 6.82478C116.42 6.73753 116.34 6.67969 116.253 6.67969Z" fill="#110229"></path>
    <path d="M122.409 6.67969H119.139C118.998 6.67969 118.9 6.82119 118.944 6.95912L122.704 18.6688C122.731 18.756 122.81 18.8138 122.898 18.8138H126.168C126.309 18.8138 126.408 18.6723 126.363 18.5344L122.604 6.82478C122.576 6.73753 122.497 6.67969 122.409 6.67969Z" fill="#110229"></path>
    <path d="M127.796 11.0942C128.986 11.0942 129.95 10.0972 129.95 8.86741C129.95 7.63763 128.986 6.64062 127.796 6.64062C126.605 6.64062 125.641 7.63763 125.641 8.86741C125.641 10.0972 126.605 11.0942 127.796 11.0942Z" fill="#110229"></path>
  </g>
  <defs>
    <clipPath id="clip0_11792_2">
      <rect width="130" height="24" fill="white"></rect>
    </clipPath>
  </defs>
</svg>
