<svg xmlns="http://www.w3.org/2000/svg" width="80" height="80" viewBox="0 0 80 80" fill="none"><g clip-path="url(#clip0_400_86)"><path d="M67.2892 54.3438H69.6981C69.8536 54.3438 70.0027 54.282 70.1126 54.1721C70.2226 54.0622 70.2843 53.9131 70.2844 53.7576V50.1513C70.2843 49.9959 70.2226 49.8468 70.1126 49.7369C70.0027 49.627 69.8536 49.5653 69.6981 49.5653H10.305C10.1495 49.5653 10.0005 49.627 9.89051 49.7369C9.78058 49.8468 9.71879 49.9959 9.71875 50.1513V53.7576C9.71879 53.9131 9.78057 54.0622 9.8905 54.1721C10.0004 54.282 10.1495 54.3438 10.305 54.3438H12.7138V73.1428H67.2891L67.2892 54.3438ZM40.0016 43.2195V46.0873C40.0016 46.9934 40.7361 47.7278 41.6422 47.7278H65.9147C66.8206 47.7278 67.5552 46.9934 67.5552 46.0873V43.2195H63.3116V43.9318C63.3116 44.2836 63.1718 44.6211 62.923 44.8698C62.6742 45.1186 62.3368 45.2584 61.985 45.2584H60.7139C60.3621 45.2584 60.0247 45.1186 59.7759 44.8698C59.5271 44.6211 59.3873 44.2836 59.3873 43.9318V43.2195H48.1695V43.9318C48.1695 44.2836 48.0298 44.6211 47.781 44.8698C47.5322 45.1186 47.1948 45.2584 46.843 45.2584H45.572C45.3978 45.2584 45.2253 45.2241 45.0644 45.1574C44.9034 45.0907 44.7572 44.993 44.634 44.8698C44.5108 44.7467 44.4131 44.6004 44.3464 44.4395C44.2798 44.2785 44.2455 44.106 44.2455 43.9318V43.2195H40.0016ZM67.5552 38.4854C67.5552 37.5793 66.8206 36.8448 65.9147 36.8448H41.6422C40.7361 36.8448 40.0016 37.5793 40.0016 38.4854V41.204H67.5552V38.4854ZM54.0612 34.1059C54.2136 34.4106 54.6481 34.4106 54.8003 34.1059L56.85 30.0067C62.1516 28.892 66.1323 24.1899 66.1323 18.557C66.1323 11.8154 60.4311 6.40526 53.587 6.8851C47.732 7.29557 43.0341 12.1001 42.7439 17.9621C42.452 23.8565 46.5244 28.8531 52.0116 30.0067L54.0612 34.1059ZM49.5361 17.6657L52.3775 20.5071L59.3256 13.559L61.2425 15.4762L52.3777 24.341L47.6194 19.5829L49.5361 17.6657ZM9.71875 29.0617V42.9734C9.71875 43.309 9.85209 43.631 10.0894 43.8683C10.3268 44.1057 10.6487 44.239 10.9844 44.239H19.4481V47.7279H24.3534V44.239H32.8173C33.153 44.239 33.4749 44.1057 33.7123 43.8683C33.9496 43.631 34.083 43.309 34.083 42.9734V29.0617C34.0829 28.726 33.9496 28.4042 33.7122 28.1668C33.4749 27.9295 33.153 27.7962 32.8173 27.7962H10.9844C10.6487 27.7962 10.3268 27.9295 10.0895 28.1668C9.85215 28.4042 9.71879 28.726 9.71875 29.0617ZM12.6628 31.1351C12.6628 31.0442 12.6807 30.9542 12.7155 30.8702C12.7503 30.7862 12.8013 30.7099 12.8656 30.6456C12.9299 30.5813 13.0062 30.5303 13.0902 30.4956C13.1742 30.4608 13.2642 30.4429 13.3552 30.4429H30.4466C30.6301 30.4429 30.8062 30.5158 30.936 30.6457C31.0658 30.7755 31.1388 30.9515 31.1388 31.1351V40.8998C31.1388 40.9907 31.1209 41.0807 31.0861 41.1647C31.0513 41.2487 31.0003 41.325 30.9361 41.3893C30.8718 41.4536 30.7955 41.5046 30.7115 41.5394C30.6275 41.5742 30.5375 41.5921 30.4466 41.5921H13.3552C13.2642 41.5922 13.1742 41.5743 13.0902 41.5395C13.0062 41.5047 12.9298 41.4537 12.8655 41.3894C12.8013 41.3251 12.7503 41.2488 12.7155 41.1648C12.6807 41.0808 12.6628 40.9907 12.6628 40.8998V31.1351Z" fill="#FF845E"></path></g><defs><clipPath id="clip0_400_86"><rect width="80" height="80" fill="white"></rect></clipPath></defs></svg>