<svg xmlns="http://www.w3.org/2000/svg" width="100" height="100" viewBox="0 0 100 100" fill="none"><rect width="100" height="100" rx="12" fill="#1FADE4" fill-opacity="0.870588"></rect><path d="M56.3467 46.13L58.9524 45.6133V49.8536H62.7062V51.882H58.7986V59.1458C58.7986 59.1458 58.3208 62.654 63.0137 61.6544V63.6828C63.0137 63.6828 57.017 64.9308 56.4995 60.695V51.8455H54.4297L54.9278 50.0015H56.309L56.3467 46.13Z" fill="white"></path><path d="M65.1602 49.9062V63.8553H67.3062V49.9423L65.1602 49.9062Z" fill="white"></path><path d="M69.4531 49.9062H72.0145L76.0182 58.9342L79.7323 49.9062H82.3292L76.0528 63.8553L69.4531 49.9062Z" fill="white"></path><path d="M13.5151 44.5391L4 62.9216L6.2723 63.7611L9.68029 57.135H17.348L20.7103 63.8532L23.3141 63.0145L13.5151 44.5391ZM10.4928 55.1282L13.4273 49.8093L15.9835 55.1282H10.4928Z" fill="white"></path><path d="M31.1827 48.832C30.1773 48.8379 29.185 49.0673 28.2737 49.5045C27.3624 49.9417 26.5538 50.5764 25.9031 51.3651V48.9821L23.3125 49.0795V66.0001H25.9031V61.7593C26.5537 62.548 27.3624 63.1827 28.2737 63.6199C29.1849 64.0571 30.1773 64.2865 31.1827 64.2923C33.127 64.2418 34.9723 63.399 36.3129 61.9492C37.6536 60.4994 38.3799 58.5613 38.3324 56.5607C38.3792 54.5606 37.6525 52.6232 36.3119 51.1741C34.9713 49.7249 33.1265 48.8826 31.1827 48.832ZM30.732 62.0057C29.6242 61.9869 28.5528 61.5959 27.681 60.8924C26.8092 60.1888 26.1848 59.2113 25.9031 58.1088V55.0117C26.185 53.9092 26.8094 52.9318 27.6811 52.2282C28.5529 51.5247 29.6243 51.1337 30.732 51.1147C32.1013 51.1509 33.4006 51.7448 34.3447 52.7659C35.2888 53.7869 35.8004 55.1518 35.7674 56.5607C35.8002 57.9695 35.2884 59.334 34.3443 60.3549C33.4003 61.3758 32.1011 61.9695 30.732 62.0057Z" fill="white"></path><path d="M47.7895 48.832C46.8558 48.8379 45.9344 49.0673 45.0883 49.5045C44.2421 49.9417 43.4913 50.5764 42.8872 51.3651V48.9821L40.4805 49.0795V66.0001H42.8872V61.7593C43.4913 62.548 44.2421 63.1827 45.0882 63.6199C45.9344 64.0571 46.8558 64.2865 47.7895 64.2923C49.5948 64.2412 51.308 63.3983 52.5527 61.9485C53.7974 60.4988 54.4717 58.561 54.4275 56.5607C54.471 54.5609 53.7963 52.6238 52.5517 51.1747C51.3071 49.7257 49.5943 48.8831 47.7895 48.832ZM47.3718 62.0057C46.3429 61.9871 45.3478 61.5961 44.5382 60.8926C43.7285 60.189 43.1487 59.2114 42.8872 58.1088V55.0117C43.1488 53.9091 43.7287 52.9316 44.5383 52.228C45.3479 51.5245 46.343 51.1335 47.3718 51.1147C48.6439 51.1502 49.8513 51.7437 50.7288 52.7648C51.6063 53.7859 52.082 55.1512 52.0516 56.5607C52.0818 57.9704 51.6057 59.3357 50.7279 60.3567C49.8501 61.3776 48.6423 61.9708 47.37 62.0057H47.3718Z" fill="white"></path><path d="M88.7462 48.832C87.2617 48.8365 85.8118 49.2808 84.5797 50.1087C83.3475 50.9367 82.3883 52.1112 81.8233 53.484C81.2582 54.8567 81.1126 56.3661 81.4048 57.8216C81.697 59.277 82.4139 60.6133 83.4651 61.6615C84.5162 62.7098 85.8544 63.423 87.3107 63.7112C88.7669 63.9994 90.2759 63.8496 91.6471 63.2808C93.0183 62.7119 94.1902 61.7495 95.0147 60.515C95.8393 59.2806 96.2795 57.8295 96.2799 56.345C96.2785 55.357 96.0826 54.379 95.7033 53.4667C95.3239 52.5545 94.7686 51.7259 94.069 51.0282C93.3695 50.3306 92.5393 49.7776 91.626 49.4007C90.7128 49.0239 89.7342 48.8307 88.7462 48.832ZM88.7462 61.5075C87.7254 61.5054 86.7281 61.2008 85.8803 60.6322C85.0325 60.0635 84.3723 59.2563 83.9831 58.3126C83.594 57.3689 83.4932 56.331 83.6937 55.33C83.8942 54.3291 84.3869 53.41 85.1095 52.6889C85.8321 51.9679 86.7523 51.4772 87.7536 51.279C88.755 51.0807 89.7927 51.1837 90.7356 51.5749C91.6785 51.9662 92.4842 52.6281 93.051 53.4772C93.6178 54.3262 93.9202 55.3242 93.92 56.345C93.918 57.7157 93.372 59.0295 92.4019 59.9979C91.4317 60.9662 90.1169 61.5099 88.7462 61.5094V61.5075Z" fill="white"></path><path d="M80.1846 34.8831C79.074 48.4617 67.3086 46.5999 67.3086 46.5999C67.7663 34.6881 80.1217 34.882 80.1846 34.8831ZM79.5215 35.4886C79.5215 35.4886 73.7314 35.1448 71.2041 40.0901C71.2041 40.0901 76.6979 41.2205 79.5215 35.4886Z" fill="white"></path><path d="M60.8711 41.3263C66.4054 41.1133 66.2365 46.6259 66.2354 46.6623C61.3969 47.0877 60.8753 41.3736 60.8711 41.3263ZM61.085 41.507C61.4771 42.2634 62.0706 42.891 62.7969 43.3175C63.5232 43.7439 64.353 43.9519 65.1914 43.9181C65.1811 43.8809 64.4704 41.365 61.085 41.507Z" fill="white"></path></svg>