<svg xmlns="http://www.w3.org/2000/svg" width="80" height="80" viewBox="0 0 80 80" fill="currentcolor">
    <path
        d="M22.6648 15.0297H13.0867C12.5695 15.0297 12.1492 15.45 12.1492 15.9672V25.5453C12.1492 26.0625 12.5695 26.4828 13.0867 26.4828H22.6648C23.182 26.4828 23.6023 26.0625 23.6023 25.5453V15.9672C23.6023 15.4484 23.182 15.0297 22.6648 15.0297ZM21.7273 24.6078H14.0242V16.9047H21.7273V24.6078ZM28.1195 17.9703C28.1195 17.4531 28.5398 17.0328 29.057 17.0328H51.682C52.1992 17.0328 52.6195 17.4531 52.6195 17.9703C52.6195 18.4875 52.1992 18.9078 51.682 18.9078H29.057C28.5398 18.9078 28.1195 18.4875 28.1195 17.9703ZM28.1195 23.5422C28.1195 23.025 28.5398 22.6047 29.057 22.6047H41.7352C42.2523 22.6047 42.6727 23.025 42.6727 23.5422C42.6727 24.0594 42.2523 24.4797 41.7352 24.4797H29.057C28.5398 24.4797 28.1195 24.0594 28.1195 23.5422ZM22.6648 36.2141H13.0867C12.5695 36.2141 12.1492 36.6344 12.1492 37.1516V46.7297C12.1492 47.2469 12.5695 47.6672 13.0867 47.6672H22.6648C23.182 47.6672 23.6023 47.2469 23.6023 46.7297V37.1516C23.6023 36.6344 23.182 36.2141 22.6648 36.2141ZM21.7273 45.7922H14.0242V38.0891H21.7273V45.7922ZM28.1195 39.1547C28.1195 38.6375 28.5398 38.2172 29.057 38.2172H39.857C40.3742 38.2172 40.7945 38.6375 40.7945 39.1547C40.7945 39.6719 40.3742 40.0922 39.857 40.0922H29.057C28.5398 40.0922 28.1195 39.6734 28.1195 39.1547ZM28.1195 44.7266C28.1195 44.2094 28.5398 43.7891 29.057 43.7891H41.0227C41.5398 43.7891 41.9602 44.2094 41.9602 44.7266C41.9602 45.2437 41.5398 45.6641 41.0227 45.6641H29.057C28.5398 45.6641 28.1195 45.2453 28.1195 44.7266ZM22.6648 57.4H13.0867C12.5695 57.4 12.1492 57.8203 12.1492 58.3375V67.9156C12.1492 68.4328 12.5695 68.8531 13.0867 68.8531H22.6648C23.182 68.8531 23.6023 68.4328 23.6023 67.9156V58.3375C23.6023 57.8203 23.182 57.4 22.6648 57.4ZM21.7273 66.9781H14.0242V59.275H21.7273V66.9781ZM52.6195 60.3406C52.6195 60.8578 52.1992 61.2781 51.682 61.2781H29.057C28.5398 61.2781 28.1195 60.8578 28.1195 60.3406C28.1195 59.8234 28.5398 59.4031 29.057 59.4031H51.682C52.2008 59.4031 52.6195 59.8234 52.6195 60.3406ZM42.6727 65.9125C42.6727 66.4297 42.2523 66.85 41.7352 66.85H29.057C28.5398 66.85 28.1195 66.4297 28.1195 65.9125C28.1195 65.3953 28.5398 64.975 29.057 64.975H41.7352C42.2523 64.975 42.6727 65.3953 42.6727 65.9125ZM72.407 36.2547L69.7727 35.6891C69.6336 35.3031 69.4758 34.9203 69.2992 34.5484L70.7633 32.2844C71.2039 31.6016 71.1102 30.7234 70.5367 30.15L67.6023 27.2156C67.0273 26.6406 66.1492 26.5484 65.4664 26.9891L63.2023 28.4516C62.83 28.2754 62.4494 28.1174 62.0617 27.9781L61.4961 25.3437C61.3258 24.5484 60.6383 23.9937 59.8258 23.9937H58.5242V10.9203C58.5242 8.33281 56.418 6.22656 53.8305 6.22656H45.6773V5.38437C45.6773 3.70781 44.3133 2.34375 42.6367 2.34375H22.1336C20.457 2.34375 19.093 3.70781 19.093 5.38437V6.22656H10.9398C8.35234 6.22656 6.24609 8.33281 6.24609 10.9203V72.9625C6.24609 75.55 8.35234 77.6562 10.9398 77.6562H53.8305C56.418 77.6562 58.5242 75.55 58.5242 72.9625V56.0063H59.8258C60.6383 56.0063 61.3258 55.4516 61.4961 54.6562L62.0617 52.0219C62.4477 51.8828 62.8305 51.7234 63.2023 51.5484L65.4664 53.0125C66.1492 53.4531 67.0273 53.3609 67.6023 52.7859L70.5367 49.8516C71.1117 49.2766 71.2055 48.3984 70.7633 47.7156L69.2992 45.4516C69.4758 45.0797 69.6336 44.6969 69.7727 44.3109L72.407 43.7453C73.2023 43.575 73.757 42.8875 73.757 42.075V37.925C73.7555 37.1125 73.2008 36.425 72.407 36.2547ZM20.968 5.38437C20.968 4.74219 21.4914 4.21875 22.1336 4.21875H42.6367C43.2789 4.21875 43.8023 4.74219 43.8023 5.38437V8.94375C43.8023 9.58594 43.2789 10.1094 42.6367 10.1094H22.1336C21.4914 10.1094 20.968 9.58594 20.968 8.94375V5.38437ZM56.6492 72.9625C56.6492 74.5172 55.3852 75.7812 53.8305 75.7812H10.9398C9.38516 75.7812 8.12109 74.5172 8.12109 72.9625V10.9203C8.12109 9.36562 9.38516 8.10156 10.9398 8.10156H19.093V8.94375C19.093 10.6203 20.457 11.9844 22.1336 11.9844H42.6367C44.3133 11.9844 45.6773 10.6203 45.6773 8.94375V8.10156H53.8305C55.3852 8.10156 56.6492 9.36562 56.6492 10.9203V23.9937H55.6758C54.8633 23.9937 54.1758 24.5484 54.0055 25.3437L53.4383 27.9781C53.0523 28.1172 52.6695 28.275 52.2977 28.4516L50.0336 26.9891C49.3508 26.5484 48.4727 26.6406 47.8977 27.2156L44.9633 30.15C44.3883 30.725 44.2961 31.6031 44.7367 32.2859L46.2008 34.55C46.0246 34.9223 45.8666 35.303 45.7273 35.6906L43.093 36.2562C42.2992 36.4266 41.743 37.1141 41.743 37.9266V42.0766C41.743 42.8891 42.2977 43.5766 43.093 43.7469L45.7273 44.3125C45.8664 44.6984 46.0242 45.0812 46.2008 45.4531L44.7367 47.7172C44.2961 48.4 44.3898 49.2781 44.9633 49.8516L47.8977 52.7859C48.4727 53.3609 49.3508 53.4547 50.0336 53.0125L52.2977 51.5484C52.6711 51.725 53.0539 51.8844 53.4383 52.0219L54.0039 54.6562C54.1742 55.4516 54.8617 56.0063 55.6742 56.0063H56.6477V72.9625H56.6492ZM71.8805 41.9406L69.2867 42.4984C68.7008 42.625 68.232 43.0375 68.0336 43.6031C67.9008 43.9828 67.7445 44.3594 67.5695 44.7234C67.3086 45.2641 67.3477 45.8891 67.6742 46.3922L69.1148 48.6219L66.3711 51.3656L64.143 49.925C63.6383 49.5984 63.0148 49.5594 62.4742 49.8203C62.1098 49.9959 61.7358 50.1509 61.3539 50.2844C60.7883 50.4828 60.3758 50.9516 60.2492 51.5375L59.6914 54.1313H55.8117L55.2539 51.5375C55.1273 50.9516 54.7148 50.4828 54.1492 50.2844C53.7711 50.1516 53.3945 49.9953 53.0305 49.8203C52.767 49.6919 52.4748 49.634 52.1823 49.6523C51.8898 49.6707 51.607 49.7646 51.3617 49.925L49.132 51.3656L46.3883 48.6219L47.8289 46.3938C48.1555 45.8891 48.193 45.2656 47.9336 44.725C47.7585 44.3609 47.6036 43.9874 47.4695 43.6062C47.2711 43.0406 46.8023 42.6266 46.2164 42.5016L43.6227 41.9438V38.0625L46.2164 37.5047C46.8023 37.3781 47.2711 36.9656 47.4695 36.4C47.6023 36.0203 47.7586 35.6437 47.9336 35.2797C48.1945 34.7391 48.1555 34.1141 47.8289 33.6109L46.3883 31.3812L49.132 28.6375L51.3617 30.0781C51.8664 30.4047 52.4898 30.4437 53.0305 30.1828C53.3945 30.0078 53.7711 29.8516 54.1508 29.7187C54.7164 29.5203 55.1305 29.0516 55.2555 28.4656L55.8133 25.8719H59.6945L60.2523 28.4656C60.3789 29.0516 60.7914 29.5203 61.357 29.7187C61.7367 29.8516 62.1133 30.0078 62.4773 30.1828C63.018 30.4437 63.643 30.4047 64.1461 30.0781L66.3758 28.6375L69.1195 31.3812L67.6789 33.6109C67.3523 34.1156 67.3133 34.7391 67.5742 35.2797C67.7492 35.6437 67.9055 36.0203 68.0383 36.4C68.2367 36.9656 68.7055 37.3781 69.2914 37.5047L71.8852 38.0625V41.9406H71.8805ZM57.7492 31.2C52.8977 31.2 48.9492 35.1469 48.9492 40C48.9492 44.8516 52.8961 48.8 57.7492 48.8C62.6008 48.8 66.5492 44.8531 66.5492 40C66.5492 35.1484 62.6023 31.2 57.7492 31.2ZM57.7492 46.925C53.9305 46.925 50.8242 43.8188 50.8242 40C50.8242 36.1812 53.9305 33.075 57.7492 33.075C61.568 33.075 64.6742 36.1812 64.6742 40C64.6742 43.8188 61.568 46.925 57.7492 46.925Z"
    ></path>
</svg>