<svg xmlns="http://www.w3.org/2000/svg" width="80" height="80" viewBox="0 0 80 80" fill="none">
    <path
        d="M25.607 77.0008C26.7166 77.0008 27.8526 76.9944 29.0134 76.9944H50.987C52.1462 76.9944 53.2822 77.0008 54.3918 77.0008C64.559 77.0008 72.3278 76.4808 72.3278 65.852C72.3278 54.7272 63.8198 45.5944 52.9542 44.6016C52.8678 48.4936 40.0038 58.0984 40.0038 58.0984C40.0038 58.0984 27.1366 48.4944 27.0494 44.6024C16.1854 45.5944 7.67578 54.7272 7.67578 65.852C7.67578 76.4808 15.4414 77.0008 25.607 77.0008ZM49.6014 62.4864C49.6014 62.1696 49.887 61.9144 50.2422 61.9144H53.7174V58.4408C53.7174 58.0888 53.971 57.8 54.2878 57.8H57.7174C58.0326 57.8 58.2878 58.0864 58.2878 58.4408V61.9152H61.7614C62.1134 61.9152 62.4014 62.1704 62.4014 62.4872V65.9152C62.4014 66.232 62.1158 66.4872 61.7614 66.4872H58.287V69.9608C58.287 70.3144 58.031 70.6008 57.715 70.6008H54.287C53.9702 70.6008 53.715 70.3152 53.715 69.9608V66.4864H50.2414C49.8878 66.4864 49.6006 66.2312 49.6006 65.9144L49.6014 62.4864Z"
        fill="currentColor"></path>
    <path
        d="M40.006 47.3936C49.8332 47.3936 57.7988 32.6168 57.7988 22.7904C57.7988 12.9656 49.8332 5 40.006 5C30.1804 5 22.2148 12.9656 22.2148 22.7904C22.2148 32.6168 30.1804 47.3936 40.006 47.3936Z"
        fill="currentColor"></path>
</svg>