<svg xmlns="http://www.w3.org/2000/svg" width="80" height="80" viewBox="0 0 80 80" fill="none"><g clip-path="url(#clip0_400_90)"><path d="M43.75 36.25V52.5H36.25V36.25H43.75ZM26.25 36.25V52.5H33.75V36.25H26.25ZM64.375 55H25.625C24.7962 55 24.0013 55.3292 23.4153 55.9153C22.8292 56.5013 22.5 57.2962 22.5 58.125C22.5 58.9538 22.8292 59.7487 23.4153 60.3347C24.0013 60.9208 24.7962 61.25 25.625 61.25H64.375C65.2038 61.25 65.9987 60.9208 66.5847 60.3347C67.1708 59.7487 67.5 58.9538 67.5 58.125C67.5 57.2962 67.1708 56.5013 66.5847 55.9153C65.9987 55.3292 65.2038 55 64.375 55ZM47.5 63.75H50V73.75C49.997 74.7437 49.601 75.6958 48.8984 76.3984C48.1958 77.101 47.2436 77.497 46.25 77.5H13.75C12.7564 77.497 11.8042 77.101 11.1016 76.3984C10.399 75.6958 10.003 74.7437 10 73.75V6.25C10.003 5.25635 10.399 4.30425 11.1016 3.60163C11.8042 2.89901 12.7564 2.50297 13.75 2.5H46.25C47.2436 2.50297 48.1958 2.89901 48.8984 3.60163C49.601 4.30425 49.997 5.25635 50 6.25V16.6788L47.5 15.1V12.5H12.5V65H47.5V63.75ZM35 71.25C35 70.9185 34.8683 70.6005 34.6339 70.3661C34.3995 70.1317 34.0815 70 33.75 70H26.25C25.9185 70 25.6005 70.1317 25.3661 70.3661C25.1317 70.6005 25 70.9185 25 71.25C25 71.5815 25.1317 71.8995 25.3661 72.1339C25.6005 72.3683 25.9185 72.5 26.25 72.5H33.75C34.0815 72.5 34.3995 72.3683 34.6339 72.1339C34.8683 71.8995 35 71.5815 35 71.25ZM46.25 36.25V52.5H53.75V36.25H46.25ZM56.25 36.25V52.5H63.75V36.25H56.25ZM69.95 32.8475C69.8747 33.1076 69.717 33.3362 69.5006 33.499C69.2842 33.6618 69.0208 33.7498 68.75 33.75H21.25C20.9789 33.7502 20.7151 33.6623 20.4983 33.4995C20.2815 33.3367 20.1235 33.1078 20.0482 32.8474C19.9729 32.5869 19.9842 32.3091 20.0806 32.0557C20.177 31.8022 20.3531 31.587 20.5825 31.4425L42.9963 17.2875C43.5965 16.911 44.2908 16.7113 44.9994 16.7113C45.708 16.7113 46.4022 16.911 47.0025 17.2875L69.4175 31.4438C69.6465 31.5887 69.8223 31.804 69.9185 32.0573C70.0148 32.3106 70.0263 32.5883 69.9512 32.8487L69.95 32.8475ZM46.875 24.5475C46.3173 24.3309 45.7395 24.1701 45.15 24.0675C43.79 24.0112 43.6 22.5263 45.1138 22.5763C45.4043 22.552 45.6942 22.6294 45.934 22.7951C46.1738 22.9608 46.3487 23.2047 46.4288 23.485C46.7313 24.475 48.2325 23.9513 47.9563 22.9775C47.783 22.463 47.4547 22.0149 47.0165 21.6946C46.5782 21.3743 46.0515 21.1976 45.5088 21.1888V20.6262C45.5788 20.1262 44.4837 20.0763 44.5387 20.6087V21.2013C41.4363 21.7238 41.4062 25.62 44.9987 25.9775C45.3717 26.0279 45.7328 26.1443 46.065 26.3212C46.795 26.9387 45.96 27.7613 45.1088 27.655C44.7618 27.6997 44.4106 27.6148 44.1223 27.4167C43.834 27.2186 43.6289 26.9211 43.5463 26.5812C43.5254 26.4675 43.4818 26.3591 43.4179 26.2627C43.3541 26.1663 43.2714 26.0838 43.1748 26.0202C43.0782 25.9566 42.9697 25.9132 42.8559 25.8927C42.7421 25.8722 42.6253 25.875 42.5126 25.9008C42.3998 25.9267 42.2935 25.9751 42.2 26.0432C42.1065 26.1112 42.0278 26.1975 41.9686 26.2969C41.9093 26.3962 41.8708 26.5065 41.8554 26.6211C41.84 26.7357 41.8479 26.8523 41.8787 26.9637C42.0196 27.5636 42.359 28.0982 42.8418 28.481C43.3246 28.8638 43.9226 29.0722 44.5387 29.0725V29.8162C44.4938 30.37 45.5688 30.3663 45.5088 29.8162V29.0725C48.09 29.055 49.2337 25.69 46.875 24.5475Z" fill="#FF845E"></path></g><defs><clipPath id="clip0_400_90"><rect width="80" height="80" fill="white"></rect></clipPath></defs></svg>