<svg xmlns="http://www.w3.org/2000/svg" width="80" height="80" viewBox="0 0 80 80" fill="none">
        <path
            d="M50 30C44.6957 30 39.6086 32.1071 35.8579 35.8579C32.1071 39.6086 30 44.6957 30 50C30 55.3043 32.1071 60.3914 35.8579 64.1421C39.6086 67.8929 44.6957 70 50 70C55.3043 70 60.3914 67.8929 64.1421 64.1421C67.8929 60.3914 70 55.3043 70 50C70 44.6957 67.8929 39.6086 64.1421 35.8579C60.3914 32.1071 55.3043 30 50 30ZM56.6667 52.5H52.5V56.6667C52.5 57.3297 52.2366 57.9656 51.7678 58.4344C51.2989 58.9033 50.663 59.1667 50 59.1667C49.337 59.1667 48.7011 58.9033 48.2322 58.4344C47.7634 57.9656 47.5 57.3297 47.5 56.6667V52.5H43.3333C42.6703 52.5 42.0344 52.2366 41.5656 51.7678C41.0967 51.2989 40.8333 50.663 40.8333 50C40.8333 49.337 41.0967 48.7011 41.5656 48.2322C42.0344 47.7634 42.6703 47.5 43.3333 47.5H47.5V43.3333C47.5 42.6703 47.7634 42.0344 48.2322 41.5656C48.7011 41.0967 49.337 40.8333 50 40.8333C50.663 40.8333 51.2989 41.0967 51.7678 41.5656C52.2366 42.0344 52.5 42.6703 52.5 43.3333V47.5H56.6667C57.3297 47.5 57.9656 47.7634 58.4344 48.2322C58.9033 48.7011 59.1667 49.337 59.1667 50C59.1667 50.663 58.9033 51.2989 58.4344 51.7678C57.9656 52.2366 57.3297 52.5 56.6667 52.5ZM25.8333 10.8333H20.8333V10C20.8333 8.63333 21.9667 7.5 23.3333 7.5C24.7 7.5 25.8333 8.63333 25.8333 10V10.8333ZM25 50C25 56 27.1333 61.5 30.6667 65.8333H16.6667C11.6 65.8333 7.5 61.7333 7.5 56.6667V32.5H32.1667C27.5633 37.1599 24.9874 43.4498 25 50ZM39.2 27.5H7.5V20C7.5 14.9333 11.6 10.8333 16.6667 10.8333H20.8333V16.6667C20.8333 18.0333 21.9667 19.1667 23.3333 19.1667C24.7 19.1667 25.8333 18.0333 25.8333 16.6667V10.8333H47.5V16.6667C47.5 18.0333 48.6333 19.1667 50 19.1667C51.3667 19.1667 52.5 18.0333 52.5 16.6667V10.8333H56.2667C61.3333 10.8333 65.4333 14.9333 65.4333 20V27.5H60.8333C57.5667 25.9 53.9 25 50 25C46.1333 25 42.4667 25.8667 39.2 27.5ZM52.5 10.8333H47.5V10C47.5 8.63333 48.6333 7.5 50 7.5C51.3667 7.5 52.5 8.63333 52.5 10V10.8333Z"
            fill="currentColor"></path>
</svg>