<svg width="150" height="30" viewBox="0 0 150 30" fill="none" xmlns="http://www.w3.org/2000/svg">
<path d="M3.83478 21.6104V18.31H9.49566C10.5101 18.31 11.271 18.04 11.7783 17.4999C12.3058 16.9399 12.5696 16.1698 12.5696 15.1897C12.5696 14.1895 12.2855 13.3994 11.7174 12.8194C11.1696 12.2393 10.3783 11.9493 9.34348 11.9493H3.83478V8.64886H9.1C10.0536 8.64886 10.7739 8.42884 11.2609 7.98878C11.7681 7.52873 12.0217 6.85865 12.0217 5.97854C12.0217 5.09843 11.7783 4.43835 11.2913 3.9983C10.8246 3.53824 10.1246 3.30821 9.19131 3.30821H3.83478V0.0078125H10.1957C12.1435 0.0078125 13.7159 0.497872 14.913 1.47799C16.1101 2.45811 16.7087 3.78827 16.7087 5.46848C16.7087 6.52861 16.4551 7.43872 15.9478 8.19881C15.4406 8.9589 14.7609 9.53897 13.9087 9.93902C13.0565 10.3391 12.1029 10.5391 11.0478 10.5391L11.2 9.90902C12.3362 9.90902 13.3609 10.149 14.2739 10.6291C15.2072 11.1092 15.9478 11.7892 16.4957 12.6694C17.0435 13.5295 17.3174 14.5496 17.3174 15.7297C17.3174 16.9099 17.0333 17.95 16.4652 18.8501C15.9174 19.7302 15.1362 20.4103 14.1217 20.8904C13.1275 21.3704 11.9507 21.6104 10.5913 21.6104H3.83478ZM0 21.6104V0.0078125H4.68696V21.6104H0Z" fill="#072032"/>
<path d="M27.4343 21.9105C25.73 21.9105 24.2285 21.5804 22.93 20.9204C21.6517 20.2403 20.6474 19.3002 19.917 18.1C19.2068 16.8799 18.8517 15.4797 18.8517 13.8995C18.8517 12.3193 19.2068 10.9391 19.917 9.759C20.6474 8.57886 21.6517 7.65874 22.93 6.99866C24.2285 6.33858 25.73 6.00854 27.4343 6.00854C29.159 6.00854 30.6604 6.33858 31.9387 6.99866C33.2373 7.65874 34.2416 8.57886 34.9517 9.759C35.6619 10.9391 36.017 12.3193 36.017 13.8995C36.017 15.4797 35.6517 16.8799 34.9213 18.1C34.2112 19.3002 33.2068 20.2403 31.9083 20.9204C30.63 21.5804 29.1387 21.9105 27.4343 21.9105ZM27.4343 18.37C28.1445 18.37 28.7836 18.19 29.3517 17.83C29.9401 17.4699 30.4068 16.9599 30.7517 16.2998C31.0967 15.6197 31.2691 14.8096 31.2691 13.8695C31.2691 12.4893 30.8938 11.4292 30.143 10.6891C29.4126 9.92902 28.5097 9.54897 27.4343 9.54897C26.359 9.54897 25.4459 9.92902 24.6952 10.6891C23.9648 11.4492 23.5996 12.5093 23.5996 13.8695C23.5996 14.8096 23.772 15.6197 24.117 16.2998C24.4619 16.9599 24.9184 17.4699 25.4865 17.83C26.0749 18.19 26.7242 18.37 27.4343 18.37Z" fill="#072032"/>
<path d="M45.3564 21.9405C43.368 21.9405 41.8868 21.4704 40.9129 20.5303C39.9593 19.5702 39.4825 18.12 39.4825 16.1798V2.88816L44.0477 1.20796V16.3298C44.0477 17.0099 44.2405 17.5199 44.626 17.86C45.0115 18.2 45.61 18.37 46.4216 18.37C46.726 18.37 47.01 18.34 47.2738 18.28C47.5376 18.22 47.8013 18.15 48.0651 18.07V21.4904C47.8013 21.6304 47.426 21.7405 46.939 21.8205C46.4723 21.9005 45.9448 21.9405 45.3564 21.9405ZM36.5912 9.729V6.30858H48.0651V9.729H36.5912Z" fill="#072032"/>
<path d="M71.2495 21.6104V0.0078125H75.8147V21.6104H71.2495ZM82.0539 21.6104V12.1293C82.0539 11.2892 81.8307 10.6591 81.3843 10.2391C80.9582 9.81901 80.3292 9.60898 79.4973 9.60898C78.7872 9.60898 78.1481 9.769 77.5799 10.089C77.0321 10.4091 76.5959 10.8491 76.2712 11.4092C75.9669 11.9693 75.8147 12.6293 75.8147 13.3894L75.4191 9.69899C75.9263 8.57886 76.6669 7.68875 77.6408 7.02867C78.635 6.34858 79.8524 6.00854 81.293 6.00854C83.0176 6.00854 84.3365 6.4886 85.2495 7.44872C86.1625 8.38883 86.6191 9.65899 86.6191 11.2592V21.6104H82.0539Z" fill="#072032"/>
<path d="M97.4581 21.9105C95.7538 21.9105 94.2523 21.5804 92.9538 20.9204C91.6755 20.2403 90.6712 19.3002 89.9407 18.1C89.2306 16.8799 88.8755 15.4797 88.8755 13.8995C88.8755 12.3193 89.2306 10.9391 89.9407 9.759C90.6712 8.57886 91.6755 7.65874 92.9538 6.99866C94.2523 6.33858 95.7538 6.00854 97.4581 6.00854C99.1828 6.00854 100.684 6.33858 101.962 6.99866C103.261 7.65874 104.265 8.57886 104.976 9.759C105.686 10.9391 106.041 12.3193 106.041 13.8995C106.041 15.4797 105.676 16.8799 104.945 18.1C104.235 19.3002 103.231 20.2403 101.932 20.9204C100.654 21.5804 99.1625 21.9105 97.4581 21.9105ZM97.4581 18.37C98.1683 18.37 98.8074 18.19 99.3755 17.83C99.9639 17.4699 100.431 16.9599 100.776 16.2998C101.12 15.6197 101.293 14.8096 101.293 13.8695C101.293 12.4893 100.918 11.4292 100.167 10.6891C99.4364 9.92902 98.5335 9.54897 97.4581 9.54897C96.3828 9.54897 95.4697 9.92902 94.719 10.6891C93.9886 11.4492 93.6234 12.5093 93.6234 13.8695C93.6234 14.8096 93.7958 15.6197 94.1407 16.2998C94.4857 16.9599 94.9422 17.4699 95.5103 17.83C96.0987 18.19 96.748 18.37 97.4581 18.37Z" fill="#072032"/>
<path d="M108.461 21.6104V6.30858H112.935V9.90902H113.026V21.6104H108.461ZM119.265 21.6104V12.1293C119.265 11.2892 119.042 10.6591 118.596 10.2391C118.169 9.81901 117.541 9.60898 116.709 9.60898C115.998 9.60898 115.359 9.769 114.791 10.089C114.243 10.4091 113.807 10.8491 113.483 11.4092C113.178 11.9693 113.026 12.6293 113.026 13.3894L112.63 9.69899C113.138 8.57886 113.878 7.68875 114.852 7.02867C115.846 6.34858 117.064 6.00854 118.504 6.00854C120.229 6.00854 121.548 6.4886 122.461 7.44872C123.374 8.38883 123.83 9.65899 123.83 11.2592V21.6104H119.265Z" fill="#072032"/>
<path d="M127.126 21.6104V6.52334H131.627V21.6104H127.126Z" fill="#072032"/>
<path d="M142.3 21.9105C140.677 21.9105 139.246 21.5704 138.009 20.8904C136.771 20.2103 135.797 19.2702 135.087 18.07C134.397 16.8699 134.052 15.4997 134.052 13.9595C134.052 12.4193 134.397 11.0492 135.087 9.84901C135.797 8.64886 136.771 7.70875 138.009 7.02867C139.246 6.34858 140.677 6.00854 142.3 6.00854C143.659 6.00854 144.877 6.25857 145.952 6.75863C147.048 7.23869 147.941 7.90877 148.63 8.76888C149.341 9.62898 149.797 10.6391 150 11.7992H145.587C145.364 11.0592 144.958 10.4991 144.37 10.119C143.801 9.739 143.132 9.54897 142.361 9.54897C141.63 9.54897 140.991 9.729 140.443 10.089C139.916 10.4491 139.51 10.9591 139.226 11.6192C138.942 12.2793 138.8 13.0594 138.8 13.9595C138.8 14.8596 138.942 15.6397 139.226 16.2998C139.51 16.9599 139.916 17.4699 140.443 17.83C140.991 18.19 141.63 18.37 142.361 18.37C143.132 18.37 143.801 18.18 144.37 17.8C144.958 17.4199 145.364 16.8599 145.587 16.1198H150C149.797 17.2799 149.341 18.29 148.63 19.1501C147.941 20.0102 147.048 20.6903 145.952 21.1904C144.877 21.6704 143.659 21.9105 142.3 21.9105Z" fill="#072032"/>
<path d="M61.0928 23.4599C59.4412 23.4599 58.1176 23.0798 57.1222 22.3195C56.1267 21.5592 55.5385 20.5194 55.3575 19.2L55.629 19.1665V30.0007H50.5385V6.01782H55.5271V9.80812L55.2217 9.74104C55.4706 8.48878 56.1493 7.50487 57.2579 6.7893C58.3665 6.05136 59.7353 5.68239 61.3643 5.68239C62.9253 5.68239 64.2715 6.05136 65.4027 6.7893C66.5566 7.50487 67.4389 8.52233 68.0498 9.84166C68.6833 11.161 69 12.7151 69 14.5041C69 16.3154 68.6719 17.8919 68.0158 19.2336C67.3597 20.5753 66.4434 21.6151 65.267 22.353C64.0905 23.091 62.6991 23.4599 61.0928 23.4599ZM59.6674 19.4348C60.8665 19.4348 61.8394 19.0099 62.586 18.1602C63.3326 17.3105 63.7059 16.1029 63.7059 14.5376C63.7059 12.9723 63.3213 11.7759 62.552 10.9486C61.8054 10.1212 60.8213 9.70749 59.5995 9.70749C58.4231 9.70749 57.4502 10.1324 56.681 10.9821C55.9344 11.8095 55.5611 13.0058 55.5611 14.5712C55.5611 16.1365 55.9344 17.344 56.681 18.1937C57.4502 19.0211 58.4457 19.4348 59.6674 19.4348Z" fill="#072032"/>
<path d="M127.109 0V4.74373H131.627V0H127.109Z" fill="#FF845E"/>
</svg>