<svg xmlns="http://www.w3.org/2000/svg" width="80" height="80" viewBox="0 0 80 80"
    fill="currentcolor">

    <path
        d="M65.8733 76.2466C63.0792 76.2466 60.3478 75.418 58.0246 73.8657C55.7014 72.3134 53.8907 70.107 52.8215 67.5256C51.7522 64.9442 51.4724 62.1037 52.0175 59.3633C52.5627 56.6229 53.9081 54.1057 55.8839 52.1299C57.8596 50.1542 60.3768 48.8087 63.1172 48.2636C65.8576 47.7185 68.6981 47.9983 71.2795 49.0676C73.8609 50.1368 76.0673 51.9475 77.6196 54.2707C79.1719 56.5939 80.0005 59.3253 80.0005 62.1194C79.9963 65.8649 78.5066 69.4558 75.8581 72.1042C73.2097 74.7527 69.6188 76.2424 65.8733 76.2466ZM65.8733 51.1172C63.6973 51.1172 61.5701 51.7625 59.7608 52.9714C57.9515 54.1803 56.5413 55.8986 55.7086 57.909C54.8759 59.9194 54.658 62.1316 55.0825 64.2658C55.507 66.4 56.5549 68.3604 58.0936 69.8991C59.6322 71.4378 61.5927 72.4856 63.7269 72.9102C65.8611 73.3347 68.0733 73.1168 70.0836 72.2841C72.094 71.4513 73.8123 70.0412 75.0213 68.2319C76.2302 66.4226 76.8755 64.2954 76.8755 62.1194C76.8722 59.2024 75.712 56.4059 73.6494 54.3433C71.5868 52.2807 68.7902 51.1205 65.8733 51.1172Z"></path>
    <path
        d="M65.8728 63.6784C65.4585 63.6784 65.0611 63.5139 64.7681 63.2209L58.4722 56.925C58.1853 56.6307 58.0259 56.2353 58.0286 55.8243C58.0312 55.4133 58.1956 55.02 58.4863 54.7294C58.7769 54.4388 59.1703 54.2744 59.5812 54.2718C59.9922 54.2693 60.3876 54.4287 60.6819 54.7156L66.3397 60.3719L69.6297 59.4903C70.03 59.3831 70.4565 59.4392 70.8154 59.6465C71.1743 59.8537 71.4362 60.195 71.5434 60.5953C71.6507 60.9956 71.5945 61.4221 71.3873 61.781C71.1801 62.1399 70.8387 62.4018 70.4384 62.5091L66.2772 63.6247C66.1453 63.6601 66.0094 63.6782 65.8728 63.6784ZM70.6441 23.9762H1.5625C1.1481 23.9762 0.750671 23.8116 0.457646 23.5186C0.16462 23.2256 0 22.8282 0 22.4137L0 14.0119C0.00148887 12.6645 0.53741 11.3726 1.49018 10.4199C2.44296 9.4671 3.73476 8.93118 5.08219 8.92969H10.01C10.4244 8.92969 10.8218 9.09431 11.1149 9.38733C11.4079 9.68036 11.5725 10.0778 11.5725 10.4922C11.5725 10.9066 11.4079 11.304 11.1149 11.597C10.8218 11.8901 10.4244 12.0547 10.01 12.0547H5.08219C4.56331 12.0553 4.06588 12.2618 3.69898 12.6287C3.33208 12.9956 3.12566 13.493 3.125 14.0119V20.8512H69.0816V14.0119C69.0809 13.493 68.8745 12.9956 68.5076 12.6287C68.1407 12.2618 67.6433 12.0553 67.1244 12.0547H62.1962C61.7818 12.0547 61.3844 11.8901 61.0914 11.597C60.7984 11.304 60.6337 10.9066 60.6337 10.4922C60.6337 10.0778 60.7984 9.68036 61.0914 9.38733C61.3844 9.09431 61.7818 8.92969 62.1962 8.92969H67.125C68.4724 8.93118 69.7642 9.4671 70.717 10.4199C71.6698 11.3726 72.2057 12.6645 72.2072 14.0119V22.4137C72.2072 22.619 72.1668 22.8222 72.0882 23.0118C72.0096 23.2014 71.8945 23.3737 71.7493 23.5188C71.6042 23.6639 71.4318 23.779 71.2422 23.8575C71.0526 23.936 70.8493 23.9763 70.6441 23.9762Z"></path>
    <path
        d="M56.2337 12.0547H46.7884C46.374 12.0547 45.9766 11.8901 45.6836 11.597C45.3906 11.304 45.2259 10.9066 45.2259 10.4922C45.2259 10.0778 45.3906 9.68036 45.6836 9.38733C45.9766 9.09431 46.374 8.92969 46.7884 8.92969H56.2337C56.6482 8.92969 57.0456 9.09431 57.3386 9.38733C57.6316 9.68036 57.7962 10.0778 57.7962 10.4922C57.7962 10.9066 57.6316 11.304 57.3386 11.597C57.0456 11.8901 56.6482 12.0547 56.2337 12.0547ZM40.8262 12.0547H31.3803C30.9659 12.0547 30.5685 11.8901 30.2755 11.597C29.9824 11.304 29.8178 10.9066 29.8178 10.4922C29.8178 10.0778 29.9824 9.68036 30.2755 9.38733C30.5685 9.09431 30.9659 8.92969 31.3803 8.92969H40.8262C41.2406 8.92969 41.6381 9.09431 41.9311 9.38733C42.2241 9.68036 42.3887 10.0778 42.3887 10.4922C42.3887 10.9066 42.2241 11.304 41.9311 11.597C41.6381 11.8901 41.2406 12.0547 40.8262 12.0547ZM25.4181 12.0547H15.9725C15.5581 12.0547 15.1607 11.8901 14.8676 11.597C14.5746 11.304 14.41 10.9066 14.41 10.4922C14.41 10.0778 14.5746 9.68036 14.8676 9.38733C15.1607 9.09431 15.5581 8.92969 15.9725 8.92969H25.4181C25.8325 8.92969 26.23 9.09431 26.523 9.38733C26.816 9.68036 26.9806 10.0778 26.9806 10.4922C26.9806 10.9066 26.816 11.304 26.523 11.597C26.23 11.8901 25.8325 12.0547 25.4181 12.0547ZM48.5816 68.0128H5.08219C3.73476 68.0113 2.44296 67.4754 1.49018 66.5226C0.53741 65.5699 0.00148887 64.278 0 62.9306L0 22.4137C0 21.9993 0.16462 21.6019 0.457646 21.3089C0.750671 21.0159 1.1481 20.8512 1.5625 20.8512H70.6441C71.0585 20.8512 71.4559 21.0159 71.7489 21.3089C72.0419 21.6019 72.2066 21.9993 72.2066 22.4137V46.1456C72.2066 46.56 72.0419 46.9575 71.7489 47.2505C71.4559 47.5435 71.0585 47.7081 70.6441 47.7081C70.2297 47.7081 69.8322 47.5435 69.5392 47.2505C69.2462 46.9575 69.0816 46.56 69.0816 46.1456V23.9762H3.125V62.9306C3.12566 63.4495 3.33208 63.9469 3.69898 64.3138C4.06588 64.6807 4.56331 64.8871 5.08219 64.8878H48.5822C48.9966 64.8878 49.394 65.0524 49.687 65.3455C49.9801 65.6385 50.1447 66.0359 50.1447 66.4503C50.1447 66.8647 49.9801 67.2621 49.687 67.5552C49.394 67.8482 48.9966 68.0128 48.5822 68.0128H48.5816Z"></path>
    <path
        d="M14.2614 17.23H11.7245C10.8561 17.2291 10.0236 16.8837 9.40954 16.2697C8.7955 15.6556 8.45013 14.8231 8.44922 13.9547C8.44922 13.5403 8.61384 13.1429 8.90686 12.8498C9.19989 12.5568 9.59732 12.3922 10.0117 12.3922C10.4261 12.3922 10.8235 12.5568 11.1166 12.8498C11.4096 13.1429 11.5742 13.5403 11.5742 13.9547C11.5743 13.9945 11.5902 14.0327 11.6183 14.0609C11.6465 14.0891 11.6847 14.1049 11.7245 14.105H14.2614C14.3012 14.1049 14.3394 14.0891 14.3676 14.0609C14.3958 14.0327 14.4116 13.9945 14.4117 13.9547V7.03281C14.4116 6.993 14.3958 6.95485 14.3676 6.92673C14.3394 6.89861 14.3012 6.88281 14.2614 6.88281H11.7245C11.6847 6.88281 11.6465 6.89861 11.6184 6.92673C11.5902 6.95485 11.5743 6.993 11.5742 7.03281C11.5742 7.44721 11.4096 7.84464 11.1166 8.13767C10.8235 8.43069 10.4261 8.59531 10.0117 8.59531C9.59732 8.59531 9.19989 8.43069 8.90686 8.13767C8.61384 7.84464 8.44922 7.44721 8.44922 7.03281C8.45021 6.16448 8.79562 5.332 9.40965 4.71802C10.0237 4.10405 10.8562 3.75872 11.7245 3.75781H14.2614C15.1297 3.75872 15.9623 4.10405 16.5763 4.71802C17.1903 5.332 17.5357 6.16448 17.5367 7.03281V13.9547C17.5357 14.8231 17.1903 15.6556 16.5763 16.2696C15.9623 16.8836 15.1298 17.229 14.2614 17.23ZM29.6695 17.23H27.1323C26.264 17.229 25.4315 16.8836 24.8176 16.2696C24.2036 15.6555 23.8583 14.823 23.8573 13.9547C23.8573 13.5403 24.022 13.1429 24.315 12.8498C24.608 12.5568 25.0054 12.3922 25.4198 12.3922C25.8342 12.3922 26.2317 12.5568 26.5247 12.8498C26.8177 13.1429 26.9823 13.5403 26.9823 13.9547C26.9824 13.9945 26.9982 14.0326 27.0264 14.0608C27.0545 14.0889 27.0926 14.1048 27.1323 14.105H29.6695C29.7093 14.1048 29.7474 14.0889 29.7755 14.0608C29.8036 14.0326 29.8194 13.9945 29.8195 13.9547V7.03281C29.8194 6.99306 29.8036 6.95495 29.7755 6.92684C29.7474 6.89873 29.7093 6.8829 29.6695 6.88281H27.1323C27.0926 6.8829 27.0545 6.89873 27.0264 6.92684C26.9983 6.95495 26.9824 6.99306 26.9823 7.03281C26.9823 7.238 26.9419 7.44118 26.8634 7.63076C26.7849 7.82033 26.6698 7.99258 26.5247 8.13767C26.3796 8.28276 26.2074 8.39785 26.0178 8.47637C25.8282 8.5549 25.625 8.59531 25.4198 8.59531C25.2147 8.59531 25.0115 8.5549 24.8219 8.47637C24.6323 8.39785 24.4601 8.28276 24.315 8.13767C24.1699 7.99258 24.0548 7.82033 23.9763 7.63076C23.8978 7.44118 23.8573 7.238 23.8573 7.03281C23.8583 6.16451 24.2036 5.33203 24.8176 4.71804C25.4316 4.10406 26.264 3.75872 27.1323 3.75781H29.6695C30.5378 3.75872 31.3703 4.10406 31.9843 4.71804C32.5983 5.33203 32.9436 6.16451 32.9445 7.03281V13.9547C32.9436 14.823 32.5983 15.6555 31.9843 16.2696C31.3703 16.8836 30.5379 17.229 29.6695 17.23ZM45.0773 17.23H42.5405C41.6721 17.229 40.8397 16.8836 40.2257 16.2696C39.6117 15.6555 39.2664 14.823 39.2655 13.9547C39.2655 13.5403 39.4301 13.1429 39.7231 12.8498C40.0161 12.5568 40.4136 12.3922 40.828 12.3922C41.2424 12.3922 41.6398 12.5568 41.9328 12.8498C42.2258 13.1429 42.3905 13.5403 42.3905 13.9547C42.3905 13.9945 42.4063 14.0327 42.4344 14.0609C42.4625 14.089 42.5007 14.1049 42.5405 14.105H45.0773C45.1172 14.1049 45.1554 14.0891 45.1835 14.0609C45.2117 14.0327 45.2276 13.9945 45.2277 13.9547V7.03281C45.2276 6.993 45.2117 6.95485 45.1835 6.92673C45.1553 6.89861 45.1172 6.88281 45.0773 6.88281H42.5405C42.5007 6.88281 42.4625 6.89862 42.4344 6.92675C42.4063 6.95488 42.3905 6.99303 42.3905 7.03281C42.3905 7.44721 42.2258 7.84464 41.9328 8.13767C41.6398 8.43069 41.2424 8.59531 40.828 8.59531C40.4136 8.59531 40.0161 8.43069 39.7231 8.13767C39.4301 7.84464 39.2655 7.44721 39.2655 7.03281C39.2664 6.16451 39.6117 5.33203 40.2257 4.71804C40.8397 4.10406 41.6722 3.75872 42.5405 3.75781H45.0773C45.9457 3.75872 46.7782 4.10405 47.3922 4.71802C48.0063 5.332 48.3517 6.16448 48.3527 7.03281V13.9547C48.3517 14.8231 48.0063 15.6556 47.3922 16.2696C46.7782 16.8836 45.9457 17.229 45.0773 17.23ZM60.4852 17.23H57.9483C57.0799 17.2291 56.2473 16.8837 55.6333 16.2697C55.0192 15.6556 54.6739 14.8231 54.673 13.9547C54.673 13.5403 54.8376 13.1429 55.1306 12.8498C55.4236 12.5568 55.8211 12.3922 56.2355 12.3922C56.6499 12.3922 57.0473 12.5568 57.3403 12.8498C57.6333 13.1429 57.798 13.5403 57.798 13.9547C57.7981 13.9945 57.8139 14.0327 57.8421 14.0609C57.8703 14.0891 57.9084 14.1049 57.9483 14.105H60.4852C60.5049 14.105 60.5244 14.1011 60.5427 14.0936C60.5609 14.086 60.5775 14.0749 60.5914 14.061C60.6054 14.047 60.6165 14.0304 60.624 14.0122C60.6316 13.994 60.6355 13.9744 60.6355 13.9547V7.03281C60.6355 7.01309 60.6316 6.99356 60.624 6.97534C60.6165 6.95712 60.6054 6.94057 60.5914 6.92664C60.5775 6.9127 60.5609 6.90166 60.5427 6.89414C60.5244 6.88662 60.5049 6.88277 60.4852 6.88281H57.9483C57.9085 6.88281 57.8703 6.89861 57.8421 6.92673C57.8139 6.95485 57.7981 6.993 57.798 7.03281C57.798 7.44721 57.6333 7.84464 57.3403 8.13767C57.0473 8.43069 56.6499 8.59531 56.2355 8.59531C55.8211 8.59531 55.4236 8.43069 55.1306 8.13767C54.8376 7.84464 54.673 7.44721 54.673 7.03281C54.674 6.16448 55.0194 5.332 55.6334 4.71802C56.2474 4.10405 57.0799 3.75872 57.9483 3.75781H60.4852C61.3535 3.75872 62.186 4.10405 62.8 4.71802C63.4141 5.332 63.7595 6.16448 63.7605 7.03281V13.9547C63.7595 14.8231 63.4141 15.6556 62.8001 16.2696C62.186 16.8836 61.3535 17.229 60.4852 17.23ZM15.9742 34.6084H10.0117C9.59732 34.6084 9.19989 34.4438 8.90686 34.1508C8.61384 33.8578 8.44922 33.4603 8.44922 33.0459C8.44922 32.6315 8.61384 32.2341 8.90686 31.9411C9.19989 31.6481 9.59732 31.4834 10.0117 31.4834H15.9742C16.3886 31.4834 16.786 31.6481 17.0791 31.9411C17.3721 32.2341 17.5367 32.6315 17.5367 33.0459C17.5367 33.4603 17.3721 33.8578 17.0791 34.1508C16.786 34.4438 16.3886 34.6084 15.9742 34.6084ZM31.382 34.6084H25.4198C25.0054 34.6084 24.608 34.4438 24.315 34.1508C24.022 33.8578 23.8573 33.4603 23.8573 33.0459C23.8573 32.6315 24.022 32.2341 24.315 31.9411C24.608 31.6481 25.0054 31.4834 25.4198 31.4834H31.382C31.7964 31.4834 32.1939 31.6481 32.4869 31.9411C32.7799 32.2341 32.9445 32.6315 32.9445 33.0459C32.9445 33.4603 32.7799 33.8578 32.4869 34.1508C32.1939 34.4438 31.7964 34.6084 31.382 34.6084ZM46.7902 34.6084H40.828C40.4136 34.6084 40.0161 34.4438 39.7231 34.1508C39.4301 33.8578 39.2655 33.4603 39.2655 33.0459C39.2655 32.6315 39.4301 32.2341 39.7231 31.9411C40.0161 31.6481 40.4136 31.4834 40.828 31.4834H46.7902C47.2046 31.4834 47.602 31.6481 47.895 31.9411C48.188 32.2341 48.3527 32.6315 48.3527 33.0459C48.3527 33.4603 48.188 33.8578 47.895 34.1508C47.602 34.4438 47.2046 34.6084 46.7902 34.6084ZM62.198 34.6084H56.2355C55.8211 34.6084 55.4236 34.4438 55.1306 34.1508C54.8376 33.8578 54.673 33.4603 54.673 33.0459C54.673 32.6315 54.8376 32.2341 55.1306 31.9411C55.4236 31.6481 55.8211 31.4834 56.2355 31.4834H62.198C62.6124 31.4834 63.0098 31.6481 63.3028 31.9411C63.5959 32.2341 63.7605 32.6315 63.7605 33.0459C63.7605 33.4603 63.5959 33.8578 63.3028 34.1508C63.0098 34.4438 62.6124 34.6084 62.198 34.6084ZM15.9742 45.9962H10.0117C9.59732 45.9962 9.19989 45.8316 8.90686 45.5386C8.61384 45.2456 8.44922 44.8481 8.44922 44.4337C8.44922 44.0193 8.61384 43.6219 8.90686 43.3289C9.19989 43.0359 9.59732 42.8712 10.0117 42.8712H15.9742C16.3886 42.8712 16.786 43.0359 17.0791 43.3289C17.3721 43.6219 17.5367 44.0193 17.5367 44.4337C17.5367 44.8481 17.3721 45.2456 17.0791 45.5386C16.786 45.8316 16.3886 45.9962 15.9742 45.9962ZM31.382 45.9962H25.4198C25.0054 45.9962 24.608 45.8316 24.315 45.5386C24.022 45.2456 23.8573 44.8481 23.8573 44.4337C23.8573 44.0193 24.022 43.6219 24.315 43.3289C24.608 43.0359 25.0054 42.8712 25.4198 42.8712H31.382C31.7964 42.8712 32.1939 43.0359 32.4869 43.3289C32.7799 43.6219 32.9445 44.0193 32.9445 44.4337C32.9445 44.8481 32.7799 45.2456 32.4869 45.5386C32.1939 45.8316 31.7964 45.9962 31.382 45.9962ZM46.7902 45.9962H40.828C40.4136 45.9962 40.0161 45.8316 39.7231 45.5386C39.4301 45.2456 39.2655 44.8481 39.2655 44.4337C39.2655 44.0193 39.4301 43.6219 39.7231 43.3289C40.0161 43.0359 40.4136 42.8712 40.828 42.8712H46.7902C47.2046 42.8712 47.602 43.0359 47.895 43.3289C48.188 43.6219 48.3527 44.0193 48.3527 44.4337C48.3527 44.8481 48.188 45.2456 47.895 45.5386C47.602 45.8316 47.2046 45.9962 46.7902 45.9962ZM62.198 45.9962H56.2355C55.8211 45.9962 55.4236 45.8316 55.1306 45.5386C54.8376 45.2456 54.673 44.8481 54.673 44.4337C54.673 44.0193 54.8376 43.6219 55.1306 43.3289C55.4236 43.0359 55.8211 42.8712 56.2355 42.8712H62.198C62.6124 42.8712 63.0098 43.0359 63.3028 43.3289C63.5959 43.6219 63.7605 44.0193 63.7605 44.4337C63.7605 44.8481 63.5959 45.2456 63.3028 45.5386C63.0098 45.8316 62.6124 45.9962 62.198 45.9962ZM15.9742 57.3841H10.0117C9.59732 57.3841 9.19989 57.2194 8.90686 56.9264C8.61384 56.6334 8.44922 56.236 8.44922 55.8216C8.44922 55.4072 8.61384 55.0097 8.90686 54.7167C9.19989 54.4237 9.59732 54.2591 10.0117 54.2591H15.9742C16.3886 54.2591 16.786 54.4237 17.0791 54.7167C17.3721 55.0097 17.5367 55.4072 17.5367 55.8216C17.5367 56.236 17.3721 56.6334 17.0791 56.9264C16.786 57.2194 16.3886 57.3841 15.9742 57.3841ZM31.382 57.3841H25.4198C25.0054 57.3841 24.608 57.2194 24.315 56.9264C24.022 56.6334 23.8573 56.236 23.8573 55.8216C23.8573 55.4072 24.022 55.0097 24.315 54.7167C24.608 54.4237 25.0054 54.2591 25.4198 54.2591H31.382C31.7964 54.2591 32.1939 54.4237 32.4869 54.7167C32.7799 55.0097 32.9445 55.4072 32.9445 55.8216C32.9445 56.236 32.7799 56.6334 32.4869 56.9264C32.1939 57.2194 31.7964 57.3841 31.382 57.3841ZM46.7902 57.3841H40.828C40.4136 57.3841 40.0161 57.2194 39.7231 56.9264C39.4301 56.6334 39.2655 56.236 39.2655 55.8216C39.2655 55.4072 39.4301 55.0097 39.7231 54.7167C40.0161 54.4237 40.4136 54.2591 40.828 54.2591H46.7902C47.2046 54.2591 47.602 54.4237 47.895 54.7167C48.188 55.0097 48.3527 55.4072 48.3527 55.8216C48.3527 56.236 48.188 56.6334 47.895 56.9264C47.602 57.2194 47.2046 57.3841 46.7902 57.3841Z"></path>
</svg>