<svg xmlns="http://www.w3.org/2000/svg" width="40" height="40" viewBox="0 0 40 40" fill="none"><path fill-rule="evenodd" clip-rule="evenodd" d="M0 14.6733V21.2441C0 21.5711 0.324374 21.8411 0.717489 21.8411H3.65522C4.04833 21.8411 4.37271 21.5712 4.37271 21.2441V14.6733C4.37271 14.3462 4.04833 14.0763 3.65522 14.0763H0.717489C0.324374 14.0763 0 14.3462 0 14.6733ZM28.4753 14.4511V19.0684C28.4753 21.6978 26.7149 24.0441 24.0437 25.2594V27.5616C24.0437 28.0426 24.393 28.4673 24.9065 28.6536C28.3557 27.1416 30.5916 24.1539 30.5916 20.8493V14.7865C29.8732 14.7413 29.1633 14.6288 28.4753 14.4511ZM24.7727 10.8018C26.1284 12.324 28.1987 13.3311 30.4901 13.5286C30.0562 10.9477 28.2575 8.692 25.6816 7.31997C25.6816 8.5914 25.3899 9.70933 24.7727 10.8018ZM17.1847 14.1248C19.6505 13.8303 21.7863 12.6048 23.0302 10.8736C23.0257 10.8674 23.0213 10.8612 23.0169 10.855L23.0579 10.8348C23.793 9.79773 24.1802 8.61562 24.1789 7.41173V6.65414C20.1735 5.2109 15.571 5.98564 12.5202 8.52349C10.7474 9.99819 9.59545 11.9889 9.42918 14.192H16.0281C16.4151 14.1931 16.8017 14.1706 17.1847 14.1248ZM16.5582 20.9073C16.6257 20.8477 16.7066 20.7997 16.7963 20.766C16.8861 20.7324 16.9829 20.7138 17.0813 20.7114C17.1797 20.7089 17.2777 20.7225 17.3697 20.7515C17.4617 20.7806 17.546 20.8244 17.6177 20.8805C18.956 21.928 21.044 21.928 22.3823 20.8804C22.5277 20.7701 22.7194 20.7118 22.916 20.7181C23.1126 20.7244 23.2984 20.7947 23.4332 20.9139C23.5681 21.0331 23.6412 21.1916 23.6367 21.3553C23.6323 21.5189 23.5507 21.6745 23.4096 21.7885C21.4935 23.2883 18.5066 23.2883 16.5905 21.7885C16.5188 21.7324 16.4611 21.6651 16.4207 21.5905C16.3803 21.5159 16.3579 21.4353 16.3549 21.3535C16.3519 21.2716 16.3683 21.1901 16.4032 21.1136C16.4381 21.037 16.4908 20.9669 16.5582 20.9073ZM15.0761 23.1643C13.812 22.1128 13.0274 20.6628 13.0274 19.0684V15.4422H16.028C19.2255 15.4422 22.1762 14.1147 23.9675 11.964C24.8017 12.7828 25.8232 13.4555 26.9725 13.9431V19.0684C26.9725 20.6628 26.1879 22.1128 24.9237 23.1643C24.2785 23.7043 23.5113 24.1328 22.6663 24.4252C21.8213 24.7176 20.9151 24.8681 19.9999 24.8681C19.0847 24.8681 18.1785 24.7176 17.3335 24.4252C16.4885 24.1328 15.7213 23.7043 15.0761 23.1643ZM15.9563 30.5541V25.2594C13.2851 24.0441 11.5247 21.6978 11.5247 19.0684V15.4422H9.40834V36.3604C11.1355 36.1787 12.6815 35.5416 13.8384 34.611L13.837 34.6098C15.1472 33.5555 15.9563 32.1235 15.9563 30.5541ZM20 33.9053C18.8354 33.9053 17.711 33.7869 16.6124 33.5435C17.1554 32.6338 17.4589 31.6205 17.4589 30.5541V25.7932C19.1128 26.2273 20.8871 26.2273 22.541 25.7932V27.5616C22.541 28.9065 23.8579 30.002 25.4746 30.002H27.8549C28.441 30.002 29.0067 30.0517 29.5614 30.1516C27.4515 32.5994 23.737 33.9053 20 33.9053ZM22.5778 38.1004C22.3348 37.8983 22.0003 37.7728 21.633 37.7728H19.4479C18.2768 37.7728 17.6511 38.9636 18.5032 39.6724C18.7461 39.8745 19.0807 40 19.4479 40H21.6329C22.8038 39.9999 23.4299 38.8093 22.5778 38.1004ZM38.4417 23.091V24.1704C38.4417 31.23 32.5815 37.3564 24.4672 39.052C24.5035 38.629 24.4013 38.2057 24.1716 37.8271C31.5889 36.25 36.939 30.6421 36.939 24.1704V23.091H38.4417ZM35.6273 14.6733V21.2441C35.6273 21.5711 35.9517 21.8411 36.3448 21.8411H39.2825C39.6756 21.8411 40 21.5712 40 21.2441V14.6733C40 14.3462 39.6756 14.0763 39.2825 14.0763H36.3448C35.9517 14.0763 35.6273 14.3462 35.6273 14.6733ZM1.81069 12.8263C3.27854 5.50503 10.9711 0 20 0C29.0289 0 36.7215 5.50503 38.1893 12.8263H36.6701C35.2211 6.20132 28.2099 1.25008 20 1.25008C11.7901 1.25008 4.77893 6.20132 3.32999 12.8263H1.81069Z" fill="currentcolor"></path></svg>