<svg xmlns="http://www.w3.org/2000/svg" width="80" height="80" viewBox="0 0 80 80" fill="none"><g clip-path="url(#clip0_400_94)"><path d="M28.0513 51.9C26.0623 53.4554 24.4537 55.4434 23.3477 57.7133C22.2416 59.9831 21.6672 62.475 21.668 65V70H11.668C8.9013 70 6.66797 67.7667 6.66797 65V61.6667C6.66797 55.2167 11.8846 50 18.3346 50H21.668C24.0346 50 26.218 50.7 28.0513 51.9Z" fill="#FF845E"></path><path d="M60 50C64.1421 50 67.5 46.6421 67.5 42.5C67.5 38.3579 64.1421 35 60 35C55.8579 35 52.5 38.3579 52.5 42.5C52.5 46.6421 55.8579 50 60 50Z" fill="#FF845E"></path><path d="M20 50C24.1421 50 27.5 46.6421 27.5 42.5C27.5 38.3579 24.1421 35 20 35C15.8579 35 12.5 38.3579 12.5 42.5C12.5 46.6421 15.8579 50 20 50Z" fill="#FF845E"></path><path d="M73.3365 61.6667V65C73.3365 67.7667 71.1031 70 68.3365 70H58.3365V65C58.3365 59.6833 55.8365 54.95 51.9531 51.9C53.7865 50.7 55.9698 50 58.3365 50H61.6698C68.1198 50 73.3365 55.2167 73.3365 61.6667Z" fill="#FF845E"></path><path d="M40.0026 51.6654C45.0652 51.6654 49.1693 47.5613 49.1693 42.4987C49.1693 37.4361 45.0652 33.332 40.0026 33.332C34.94 33.332 30.8359 37.4361 30.8359 42.4987C30.8359 47.5613 34.94 51.6654 40.0026 51.6654Z" fill="#FF845E"></path><path d="M41.6667 51.6648H38.3334C30.9817 51.6648 25.0001 57.6465 25.0001 64.9981V69.9981C25.0001 72.7548 27.2434 74.9981 30.0001 74.9981H50.0001C52.7567 74.9981 55.0001 72.7548 55.0001 69.9981V64.9981C55.0001 57.6465 49.0184 51.6648 41.6667 51.6648ZM64.1667 27.8048L60.1451 29.2348C59.8812 29.3286 59.5985 29.3567 59.3214 29.3167C59.0442 29.2767 58.781 29.1697 58.5545 29.0051C58.328 28.8404 58.145 28.6231 58.0214 28.3719C57.8978 28.1206 57.8373 27.843 57.8451 27.5631L57.9617 23.2965L55.3584 19.9131C55.1878 19.6911 55.0739 19.4309 55.0263 19.155C54.9788 18.8791 54.9992 18.5957 55.0856 18.3295C55.1721 18.0632 55.3221 17.8219 55.5226 17.6266C55.7232 17.4312 55.9683 17.2876 56.2367 17.2081L60.3317 16.0015L62.7451 12.4798C62.9033 12.2488 63.1155 12.0598 63.3632 11.9293C63.6109 11.7987 63.8867 11.7305 64.1667 11.7305C64.4467 11.7305 64.7225 11.7987 64.9702 11.9293C65.218 12.0598 65.4301 12.2488 65.5884 12.4798L68.0017 16.0015L72.0967 17.2081C73.2584 17.5498 73.7134 18.9531 72.9751 19.9131L70.3717 23.2965L70.4884 27.5631C70.4958 27.8429 70.435 28.1203 70.3113 28.3713C70.1875 28.6223 70.0046 28.8395 69.7782 29.004C69.5518 29.1686 69.2887 29.2756 69.0118 29.3158C68.7348 29.356 68.4522 29.3282 68.1884 29.2348L64.1667 27.8048ZM15.8334 27.8048L11.8117 29.2348C11.5479 29.3286 11.2652 29.3567 10.988 29.3167C10.7109 29.2767 10.4477 29.1697 10.2212 29.0051C9.9947 28.8404 9.81172 28.6231 9.6881 28.3719C9.56448 28.1206 9.50394 27.843 9.51173 27.5631L9.6284 23.2965L7.02506 19.9131C6.85449 19.6911 6.74052 19.4309 6.693 19.155C6.64548 18.8791 6.66583 18.5957 6.75229 18.3295C6.83876 18.0632 6.98874 17.8219 7.18929 17.6266C7.38984 17.4312 7.63493 17.2876 7.9034 17.2081L11.9984 16.0015L14.4117 12.4798C14.57 12.2488 14.7822 12.0598 15.0299 11.9293C15.2776 11.7987 15.5534 11.7305 15.8334 11.7305C16.1134 11.7305 16.3892 11.7987 16.6369 11.9293C16.8846 12.0598 17.0968 12.2488 17.2551 12.4798L19.6684 16.0015L23.7634 17.2081C24.9251 17.5498 25.3801 18.9531 24.6417 19.9131L22.0384 23.2965L22.1551 27.5631C22.1624 27.8429 22.1017 28.1203 21.9779 28.3713C21.8542 28.6223 21.6712 28.8395 21.4448 29.004C21.2184 29.1686 20.9554 29.2756 20.6785 29.3158C20.4015 29.356 20.1189 29.3282 19.8551 29.2348L15.8334 27.8048ZM40.0001 24.0548L35.2317 25.7498C34.919 25.8609 34.5838 25.8942 34.2553 25.8467C33.9268 25.7992 33.6148 25.6724 33.3463 25.4773C33.0778 25.2822 32.8609 25.0245 32.7143 24.7267C32.5677 24.4289 32.4959 24.0999 32.5051 23.7681L32.6434 18.7098L29.5567 14.6981C29.3545 14.4349 29.2195 14.1264 29.1632 13.7993C29.1069 13.4722 29.131 13.1363 29.2336 12.8206C29.3361 12.505 29.514 12.219 29.7518 11.9874C29.9895 11.7558 30.2801 11.5856 30.5984 11.4915L35.4534 10.0598L38.3151 5.88479C38.5027 5.61083 38.7543 5.38672 39.048 5.23187C39.3418 5.07702 39.6688 4.99609 40.0009 4.99609C40.333 4.99609 40.66 5.07702 40.9538 5.23187C41.2475 5.38672 41.4991 5.61083 41.6867 5.88479L44.5484 10.0598L49.4034 11.4915C49.7217 11.5856 50.0122 11.7558 50.25 11.9874C50.4878 12.219 50.6657 12.505 50.7682 12.8206C50.8707 13.1363 50.8949 13.4722 50.8386 13.7993C50.7823 14.1264 50.6472 14.4349 50.4451 14.6981L47.3584 18.7098L47.4967 23.7681C47.5059 24.0999 47.434 24.4289 47.2875 24.7267C47.1409 25.0245 46.924 25.2822 46.6555 25.4773C46.387 25.6724 46.075 25.7992 45.7465 25.8467C45.418 25.8942 45.0828 25.8609 44.7701 25.7498L40.0001 24.0548Z" fill="#FF845E"></path></g><defs><clipPath id="clip0_400_94"><rect width="80" height="80" fill="white"></rect></clipPath></defs></svg>