<svg xmlns="http://www.w3.org/2000/svg" width="40" height="40" viewBox="0 0 40 40" fill="none"><path d="M34.6875 19.3875C34.6066 19.3996 34.5289 19.4278 34.4591 19.4704C34.3893 19.513 34.3287 19.5692 34.2809 19.6356C34.2331 19.702 34.1991 19.7773 34.181 19.8571C34.1628 19.9368 34.1607 20.0194 34.175 20.1C34.3125 20.8875 34.375 21.7 34.375 22.5C34.375 26.9 32.3875 30.85 29.25 33.5C28.9804 31.7736 28.2301 30.158 27.0849 28.8382C25.9398 27.5185 24.4461 26.5478 22.775 26.0375C23.4612 25.5818 24.0236 24.963 24.4119 24.2366C24.8003 23.5101 25.0023 22.6987 25 21.875C25 19.1125 22.7625 16.875 20 16.875C17.2375 16.875 15 19.1125 15 21.875C15 23.6125 15.875 25.1375 17.225 26.0375C15.5539 26.5478 14.0602 27.5185 12.9151 28.8382C11.7699 30.158 11.0196 31.7736 10.75 33.5C7.6125 30.85 5.625 26.9 5.625 22.5C5.625 21.7 5.6875 20.8875 5.825 20.1C5.83926 20.0194 5.83723 19.9368 5.81904 19.8571C5.80086 19.7773 5.76687 19.702 5.7191 19.6356C5.67133 19.5692 5.61074 19.513 5.54091 19.4704C5.47107 19.4278 5.39341 19.3996 5.3125 19.3875C5.23108 19.3719 5.14736 19.3729 5.06635 19.3905C4.98534 19.408 4.90869 19.4417 4.841 19.4896C4.77332 19.5374 4.71598 19.5984 4.67242 19.6689C4.62886 19.7395 4.59998 19.8181 4.5875 19.9C4.45 20.75 4.375 21.625 4.375 22.5C4.375 31.1125 11.3875 38.125 20 38.125C28.6125 38.125 35.625 31.1125 35.625 22.5C35.625 21.625 35.55 20.75 35.4125 19.9C35.4 19.8181 35.3711 19.7395 35.3276 19.6689C35.284 19.5984 35.2267 19.5374 35.159 19.4896C35.0913 19.4417 35.0147 19.408 34.9337 19.3905C34.8526 19.3729 34.7689 19.3719 34.6875 19.3875ZM16.25 21.875C16.25 19.8125 17.9375 18.125 20 18.125C22.0625 18.125 23.75 19.8125 23.75 21.875C23.75 23.9375 22.0625 25.625 20 25.625C17.9375 25.625 16.25 23.9375 16.25 21.875ZM23.8 10.3L24.475 14.2875C24.4922 14.3769 24.4891 14.4689 24.4661 14.557C24.4431 14.645 24.4007 14.7268 24.3419 14.7963C24.2832 14.8658 24.2097 14.9213 24.1267 14.9587C24.0438 14.9961 23.9535 15.0145 23.8625 15.0125C23.7625 15.0125 23.6625 14.9875 23.575 14.9375L20 13.0625L16.425 14.9375C16.2125 15.05 15.9625 15.0375 15.775 14.9C15.6788 14.8328 15.6041 14.7392 15.5598 14.6306C15.5154 14.5219 15.5033 14.4028 15.525 14.2875L16.2 10.3L13.3125 7.4875C13.2297 7.40629 13.1707 7.3039 13.142 7.19149C13.1134 7.07908 13.1161 6.96096 13.15 6.85C13.225 6.625 13.425 6.4625 13.6625 6.425L17.65 5.8375L19.4375 2.225C19.65 1.8 20.35 1.8 20.5625 2.225L22.35 5.8375L26.3375 6.425C26.575 6.4625 26.775 6.625 26.85 6.85C26.9125 7.075 26.8625 7.325 26.6875 7.4875L23.8 10.3Z" fill="currentcolor"></path><path d="M14.3487 10.9375C14.4112 11.1625 14.3612 11.4125 14.1862 11.575L11.9237 13.7875L12.4487 16.9C12.4987 17.1375 12.3987 17.375 12.2112 17.5125C12.0987 17.6 11.9737 17.6375 11.8362 17.6375C11.7362 17.6375 11.6362 17.6125 11.5487 17.5625L8.74868 16.0875L5.94868 17.5625C5.73618 17.675 5.48618 17.65 5.28618 17.5125C5.19204 17.4439 5.11961 17.3497 5.0775 17.2411C5.03539 17.1325 5.02539 17.0141 5.04868 16.9L5.57368 13.7875L3.31118 11.575C3.22834 11.4938 3.16938 11.3914 3.14073 11.279C3.11208 11.1666 3.11483 11.0485 3.14868 10.9375C3.22368 10.7125 3.42368 10.55 3.66118 10.5125L6.78618 10.0625L8.18618 7.225C8.39868 6.8 9.09868 6.8 9.31118 7.225L10.7112 10.0625L13.8362 10.5125C14.0737 10.55 14.2737 10.7125 14.3487 10.9375ZM36.6862 11.575L34.4237 13.7875L34.9487 16.9C34.9987 17.1375 34.8987 17.375 34.7112 17.5125C34.5987 17.6 34.4737 17.6375 34.3362 17.6375C34.2362 17.6375 34.1362 17.6125 34.0487 17.5625L31.2487 16.0875L28.4487 17.5625C28.2362 17.675 27.9862 17.65 27.7862 17.5125C27.692 17.4439 27.6196 17.3497 27.5775 17.2411C27.5354 17.1325 27.5254 17.0141 27.5487 16.9L28.0737 13.7875L25.8112 11.575C25.7283 11.4938 25.6694 11.3914 25.6407 11.279C25.6121 11.1666 25.6148 11.0485 25.6487 10.9375C25.7237 10.7125 25.9237 10.55 26.1612 10.5125L29.2862 10.0625L30.6862 7.225C30.8987 6.8 31.5987 6.8 31.8112 7.225L33.2112 10.0625L36.3362 10.5125C36.5737 10.55 36.7737 10.7125 36.8487 10.9375C36.9112 11.1625 36.8612 11.4125 36.6862 11.575Z" fill="currentcolor"></path></svg>