<svg xmlns="http://www.w3.org/2000/svg" width="80" height="80" viewBox="0 0 80 80" fill="currentColor">

    <path d="M76.4841 33.9842C74.9564 33.9842 73.6539 34.9639 73.17 36.328H66.4841V34.9608C66.4841 34.65 66.3607 34.3519 66.1409 34.1322C65.9211 33.9124 65.623 33.7889 65.3122 33.7889C65.0014 33.7889 64.7034 33.9124 64.4836 34.1322C64.2638 34.3519 64.1404 34.65 64.1404 34.9608V40.6737C64.1404 46.5178 62.181 52.0206 58.6234 56.1681C53.6546 61.9583 47.39 66.3615 39.9998 69.2575C33.3928 66.6685 27.6683 62.8629 22.9833 57.9454C22.8772 57.8339 22.7502 57.7445 22.6095 57.6821C22.4688 57.6197 22.3172 57.5857 22.1634 57.5819C22.0095 57.5781 21.8564 57.6047 21.7129 57.6601C21.5693 57.7155 21.438 57.7986 21.3266 57.9047C21.2151 58.0108 21.1256 58.1378 21.0633 58.2785C21.0009 58.4192 20.9669 58.5708 20.9631 58.7247C20.9593 58.8785 20.9859 59.0316 21.0412 59.1752C21.0966 59.3188 21.1797 59.45 21.2859 59.5615C22.9013 61.2554 24.6387 62.8287 26.4843 64.2685V73.1705C25.1207 73.6539 24.1405 74.9564 24.1405 76.4845C24.1405 78.4231 25.7177 80.0002 27.6561 80.0002C29.5946 80.0002 31.1718 78.4231 31.1718 76.4845C31.1718 74.957 30.1921 73.6539 28.828 73.1705V65.9855C32.0446 68.1986 35.5577 70.0511 39.3467 71.5189C39.7667 71.6816 40.2322 71.6816 40.6522 71.5189C48.4911 68.483 55.1359 63.8321 60.4026 57.694C62.8391 54.8538 64.5944 51.4445 65.576 47.7342H69.5371C70.0211 49.0982 71.3236 50.0779 72.8513 50.0779C74.7897 50.0779 76.3669 48.5007 76.3669 46.5623C76.3669 44.6239 74.7897 43.0467 72.8513 43.0467C71.3236 43.0467 70.0211 44.0269 69.5372 45.3904H66.0857C66.3518 43.8323 66.4851 42.2543 66.4841 40.6736V38.6717H73.17C73.6539 40.0358 74.9564 41.0155 76.4841 41.0155C78.4225 41.0155 79.9997 39.4383 79.9997 37.4999C79.9997 35.5614 78.4225 33.9842 76.4841 33.9842ZM27.6561 77.6559C27.0097 77.6559 26.4843 77.1305 26.4843 76.4841C26.4843 75.8377 27.0097 75.3122 27.6561 75.3122C28.3025 75.3122 28.828 75.8377 28.828 76.4841C28.828 77.1305 28.3025 77.6559 27.6561 77.6559ZM72.8513 45.3904C73.4977 45.3904 74.0231 45.9159 74.0231 46.5623C74.0231 47.2087 73.4977 47.7342 72.8513 47.7342C72.2049 47.7342 71.6794 47.2087 71.6794 46.5623C71.6794 45.9159 72.2049 45.3904 72.8513 45.3904ZM76.4841 38.6717C75.8377 38.6717 75.3122 38.1463 75.3122 37.4999C75.3122 36.8534 75.8377 36.328 76.4841 36.328C77.1305 36.328 77.6559 36.8534 77.6559 37.4999C77.6559 38.1463 77.1305 38.6717 76.4841 38.6717ZM15.8593 40.6737V19.3554C20.158 18.3391 24.624 16.4452 29.1418 13.7212C35.8391 9.68371 44.1605 9.68371 50.8579 13.7212C52.8684 14.9328 54.8679 15.9796 56.8473 16.8585C56.8692 16.8688 56.8912 16.8792 56.9145 16.8877C59.3607 17.9699 61.7759 18.7963 64.1404 19.3554V29.9475C64.1404 30.595 64.6646 31.1194 65.3122 31.1194C65.9599 31.1194 66.4841 30.595 66.4841 29.9475V18.9249C66.4841 18.087 65.9068 17.3502 65.1107 17.1734C62.9588 16.6948 60.7541 15.9757 58.5154 15.0273V6.82966C59.8795 6.3456 60.8591 5.04311 60.8591 3.51546C60.8591 1.57718 59.282 0 57.3435 0C55.4051 0 53.8279 1.57718 53.8279 3.51561C53.8279 5.04326 54.8081 6.34576 56.1717 6.82966V13.9574C54.8137 13.2915 53.4446 12.5439 52.0682 11.7145C44.6245 7.22653 35.3752 7.227 27.9321 11.7145C23.4691 14.4043 19.0807 16.2413 14.8888 17.1734C14.0929 17.3504 13.5156 18.0871 13.5156 18.9251V26.0155H6.82966C6.34576 24.6515 5.04326 23.6718 3.51561 23.6718C1.57718 23.6718 0 25.249 0 27.1874C0 29.1258 1.57718 30.703 3.51561 30.703C5.04326 30.703 6.34576 29.7233 6.82966 28.3593H13.5156V35.078H10.4625C9.97855 33.7139 8.67606 32.7342 7.14841 32.7342C5.20998 32.7342 3.6328 34.3114 3.6328 36.2499C3.6328 38.1883 5.20998 39.7655 7.14841 39.7655C8.67606 39.7655 9.97855 38.7858 10.4625 37.4217H13.5156V40.6737C13.5156 46.2901 15.1379 51.5581 18.2062 55.9074C18.3145 56.061 18.4581 56.1862 18.625 56.2726C18.7918 56.3589 18.977 56.4038 19.1649 56.4035C19.4065 56.4037 19.6422 56.3289 19.8395 56.1895C20.3679 55.8159 20.4943 55.0846 20.1213 54.556C17.3334 50.604 15.8593 45.8039 15.8593 40.6737ZM57.3435 2.34374C57.9899 2.34374 58.5154 2.86921 58.5154 3.51561C58.5154 4.16201 57.9899 4.68748 57.3435 4.68748C56.6971 4.68748 56.1717 4.16201 56.1717 3.51561C56.1717 2.86921 56.6971 2.34374 57.3435 2.34374ZM3.51561 28.3593C2.86921 28.3593 2.34374 27.8338 2.34374 27.1874C2.34374 26.541 2.86921 26.0155 3.51561 26.0155C4.16201 26.0155 4.68748 26.541 4.68748 27.1874C4.68748 27.8338 4.16201 28.3593 3.51561 28.3593ZM7.14841 37.4217C6.50201 37.4217 5.97654 36.8963 5.97654 36.2499C5.97654 35.6035 6.50201 35.078 7.14841 35.078C7.79481 35.078 8.32028 35.6035 8.32028 36.2499C8.32028 36.8963 7.79481 37.4217 7.14841 37.4217Z"></path>
    <path d="M27.1081 20.18C27.3866 20.0422 27.599 19.7994 27.6986 19.505C27.7982 19.2106 27.7768 18.8888 27.6392 18.6101C27.5013 18.3316 27.2583 18.1191 26.9639 18.0196C26.6694 17.92 26.3474 17.9415 26.0687 18.0792C23.8512 19.1761 21.6247 20.0861 19.4519 20.7843C19.089 20.8997 18.7723 21.1277 18.5478 21.4352C18.3232 21.7427 18.2025 22.1137 18.2031 22.4945V40.6736C18.2031 45.9588 19.9616 50.9189 23.1544 54.6409C27.525 59.735 32.9735 63.7096 39.3493 66.456C39.5555 66.5451 39.7777 66.5898 39.9999 66.5898C40.2221 66.5898 40.4443 66.5453 40.6512 66.456C47.0261 63.7101 52.4742 59.7356 56.8444 54.642C60.0377 50.9191 61.7967 45.9588 61.7967 40.6738V22.4943C61.7967 21.7112 61.2951 21.024 60.548 20.7842C56.9773 19.6373 53.3105 17.9362 49.6483 15.7286C46.7361 13.9734 43.4001 13.0462 39.9999 13.0469C36.5984 13.0469 33.2623 13.9741 30.3515 15.7287L30.1025 15.8783C29.8355 16.0375 29.6427 16.2963 29.5665 16.5976C29.4902 16.899 29.5369 17.2183 29.6961 17.4853C29.7748 17.6175 29.8789 17.7328 30.0022 17.8248C30.1256 17.9167 30.2658 17.9835 30.415 18.0213C30.5641 18.059 30.7193 18.067 30.8715 18.0448C31.0237 18.0226 31.1701 17.9706 31.3023 17.8919C31.3892 17.84 31.4757 17.7881 31.5618 17.7362C34.1088 16.2013 37.0262 15.3903 39.9999 15.3906C42.9754 15.3906 45.8935 16.2017 48.4386 17.7362C52.1269 19.9597 55.8305 21.6931 59.453 22.8925V40.6732C59.453 45.3991 57.8947 49.818 55.0658 53.1156C50.9928 57.8625 45.9252 61.585 39.9999 64.1831C34.074 61.5843 29.0062 57.8617 24.9334 53.115C22.1045 49.8174 20.5469 45.3991 20.5469 40.6732V22.8925C22.7094 22.1765 24.9145 21.2647 27.1081 20.18Z"></path>
    <path d="M40 27.4219C36.7694 27.4219 34.1406 30.05 34.1406 33.2812V35.2344H33.75C32.2425 35.2344 31.0156 36.4613 31.0156 37.9688V47.3438C31.0156 48.8512 32.2425 50.0781 33.75 50.0781H46.25C47.7575 50.0781 48.9844 48.8512 48.9844 47.3438V37.9688C48.9844 36.4613 47.7575 35.2344 46.25 35.2344H45.8594V33.2812C45.8594 30.05 43.2313 27.4219 40 27.4219ZM36.4844 33.2812C36.4844 31.3428 38.0616 29.7656 40 29.7656C41.9384 29.7656 43.5156 31.3428 43.5156 33.2812V35.2344H36.4844V33.2812ZM46.6406 37.9688V47.3438C46.6406 47.5592 46.4655 47.7344 46.25 47.7344H33.75C33.6464 47.7343 33.5471 47.6931 33.4739 47.6199C33.4006 47.5466 33.3595 47.4473 33.3594 47.3438V37.9688C33.3594 37.7533 33.5345 37.5781 33.75 37.5781H46.25C46.4655 37.5781 46.6406 37.7533 46.6406 37.9688Z"></path>
    <path d="M40 37.9688C38.0616 37.9688 36.4844 39.5459 36.4844 41.4844C36.4844 43.012 37.4645 44.3145 38.8281 44.7984V46.1719C38.8281 46.4827 38.9516 46.7807 39.1714 47.0005C39.3911 47.2203 39.6892 47.3438 40 47.3438C40.3108 47.3438 40.6089 47.2203 40.8286 47.0005C41.0484 46.7807 41.1719 46.4827 41.1719 46.1719V44.7984C42.5359 44.3145 43.5156 43.012 43.5156 41.4844C43.5156 39.5459 41.9384 37.9688 40 37.9688ZM40 42.6562C39.3536 42.6562 38.8281 42.1308 38.8281 41.4844C38.8281 40.838 39.3536 40.3125 40 40.3125C40.6464 40.3125 41.1719 40.838 41.1719 41.4844C41.1719 42.1308 40.6464 42.6562 40 42.6562Z"></path>
</svg>