<svg xmlns="http://www.w3.org/2000/svg" width="80" height="80" viewBox="0 0 80 80" fill="none"><g clip-path="url(#clip0_400_118)"><path fill-rule="evenodd" clip-rule="evenodd" d="M33.2964 36.4947L36.3832 38.2769L25.4873 44.5677V49.522L28.6471 51.3462V46.3919L39.5431 40.1011L42.63 41.8833C42.87 42.0175 43.0694 42.2141 43.2069 42.4523C43.3444 42.6905 43.415 42.9614 43.4112 43.2364V54.0139C43.415 54.2889 43.3444 54.5598 43.2069 54.798C43.0694 55.0362 42.87 55.2328 42.63 55.367L36.6571 58.8155C36.4026 57.3339 35.0057 55.6261 33.4728 55.4116C30.5518 54.8789 27.6175 53.8178 25.3112 52.9844C24.1587 52.5677 22.8393 52.0103 21.6192 51.8906V43.2366C21.6154 42.9615 21.686 42.6906 21.8235 42.4524C21.961 42.2142 22.1604 42.0176 22.4004 41.8834L31.7339 36.4947C31.9701 36.3538 32.2401 36.2795 32.5151 36.2795C32.7902 36.2795 33.0601 36.3538 33.2964 36.4947ZM17.2339 16.6941H30.3504C30.682 16.6941 30.9999 16.8258 31.2343 17.0602C31.4687 17.2946 31.6004 17.6125 31.6004 17.9441C31.6004 18.2756 31.4687 18.5935 31.2343 18.8279C30.9999 19.0624 30.682 19.1941 30.3504 19.1941H17.2339L17.8245 19.6552C18.0812 19.8597 18.2468 20.1573 18.2853 20.4833C18.3238 20.8093 18.232 21.1373 18.03 21.396C17.8279 21.6546 17.5319 21.8231 17.2063 21.8647C16.8807 21.9063 16.5518 21.8177 16.2912 21.6181L12.8618 18.94C12.7091 18.8251 12.5848 18.6765 12.4987 18.5059C12.4125 18.3352 12.3668 18.1471 12.365 17.9559C12.3632 17.7648 12.4054 17.5758 12.4883 17.4035C12.5712 17.2313 12.6927 17.0804 12.8432 16.9627L16.2912 14.27C16.4201 14.1693 16.5675 14.095 16.7251 14.0513C16.8827 14.0076 17.0474 13.9954 17.2097 14.0154C17.372 14.0353 17.5288 14.087 17.6712 14.1676C17.8135 14.2481 17.9386 14.3559 18.0393 14.4848C18.1399 14.6136 18.2142 14.7611 18.2579 14.9187C18.3016 15.0763 18.3139 15.2409 18.2939 15.4033C18.274 15.5656 18.2222 15.7224 18.1417 15.8647C18.0612 16.0071 17.9534 16.1321 17.8245 16.2328L17.2339 16.6941ZM60.6253 46.9142C60.3685 46.7097 60.2029 46.4121 60.1645 46.0861C60.126 45.7601 60.2177 45.4321 60.4198 45.1734C60.6219 44.9147 60.9179 44.7463 61.2435 44.7047C61.5691 44.6631 61.8979 44.7517 62.1586 44.9512L65.6065 47.6439C65.7571 47.7617 65.8785 47.9125 65.9614 48.0848C66.0444 48.257 66.0866 48.446 66.0848 48.6372C66.083 48.8283 66.0372 49.0165 65.9511 49.1871C65.8649 49.3578 65.7407 49.5063 65.5879 49.6212L62.1586 52.2994C61.8979 52.4989 61.5691 52.5876 61.2435 52.546C60.9179 52.5043 60.6219 52.3359 60.4198 52.0772C60.2177 51.8185 60.126 51.4905 60.1645 51.1645C60.2029 50.8386 60.3685 50.5409 60.6253 50.3364L61.2159 49.8753H48.0993C47.7678 49.8753 47.4499 49.7436 47.2155 49.5092C46.981 49.2748 46.8493 48.9568 46.8493 48.6253C46.8493 48.2938 46.981 47.9758 47.2155 47.7414C47.4499 47.507 47.7678 47.3753 48.0993 47.3753H61.2159L60.6253 46.9142ZM72.0425 24.4661L63.9439 38.7756C63.7562 39.1095 63.7083 39.5041 63.8106 39.8732C63.9129 40.2424 64.1572 40.556 64.49 40.7456L67.2446 42.3047C67.5787 42.4923 67.9733 42.5401 68.3424 42.4376C68.7116 42.3351 69.0251 42.0907 69.2146 41.7578L77.3132 27.4481C77.5008 27.1141 77.5486 26.7195 77.4461 26.3504C77.3437 25.9813 77.0993 25.6678 76.7664 25.4783L74.0117 23.9192C73.6778 23.7315 73.2832 23.6836 72.914 23.7859C72.5449 23.8882 72.2313 24.1325 72.0417 24.4653L72.0425 24.4661ZM73.8995 26.6106C74.092 26.6387 74.2718 26.7233 74.4163 26.8536C74.5607 26.9839 74.6633 27.1542 74.711 27.3428C74.7587 27.5314 74.7494 27.7299 74.6842 27.9132C74.6191 28.0965 74.5011 28.2564 74.3451 28.3727C74.189 28.4889 74.0021 28.5562 73.8078 28.5662C73.6135 28.5762 73.4206 28.5283 73.2535 28.4286C73.0864 28.329 72.9527 28.182 72.8691 28.0063C72.7856 27.8306 72.756 27.6341 72.7842 27.4416C72.8219 27.1835 72.9606 26.951 73.1698 26.7951C73.3789 26.6393 73.6414 26.573 73.8995 26.6106ZM68.5098 25.632L63.0011 22.443C59.8087 20.5947 58.9348 20.807 55.5362 22.0358C53.1612 22.8942 50.1436 23.9853 47.0173 24.5606C46.1717 24.8641 45.5932 25.707 45.8356 26.6119C46.1112 27.6406 46.9111 27.9041 47.8954 27.7837C49.3509 27.4816 50.8121 27.0642 52.3196 26.6336C53.0395 26.4281 53.7704 26.2194 54.5754 26.0036C54.8944 25.9208 55.2332 25.9675 55.5179 26.1335C55.8026 26.2995 56.0102 26.5713 56.0952 26.8897C56.1803 27.2081 56.136 27.5472 55.9721 27.8331C55.8081 28.119 55.5377 28.3284 55.22 28.4158C54.4946 28.61 53.7434 28.8247 53.0032 29.0361C50.6578 29.7058 46.7887 30.9131 44.1814 30.4753C43.2469 30.317 42.3493 29.9891 41.5328 29.5078L31.187 23.4827C29.9496 22.762 26.6236 21.0855 25.5139 22.8733C25.0451 23.6284 25.124 25.0238 25.9173 25.5122L44.6034 37.0181C46.3001 37.883 47.3646 38.228 49.2896 37.712L62.9081 34.0669C63.1726 33.9959 63.4531 34.0143 63.7061 34.1194L68.5093 25.6325L68.5098 25.632ZM48.7634 4.21875C52.4036 4.21875 55.8947 5.66481 58.4687 8.2388C61.0427 10.8128 62.4887 14.3039 62.4887 17.9441C62.4888 18.4119 62.4652 18.8794 62.4181 19.3448C61.9133 19.1232 61.3914 18.9426 60.8576 18.8047C60.7284 18.772 60.5989 18.7424 60.469 18.7161C60.4856 18.4609 60.4939 18.2035 60.494 17.9441C60.494 16.0453 60.0331 14.175 59.1509 12.4936C58.2687 10.8123 56.9916 9.37025 55.4292 8.29131C53.8668 7.21238 52.0659 6.52883 50.1811 6.29936C48.2963 6.06989 46.3839 6.30138 44.6083 6.97392C42.8327 7.64647 41.2468 8.73998 39.987 10.1605C38.7272 11.5811 37.831 13.2862 37.3754 15.1295C36.9199 16.9728 36.9185 18.8991 37.3716 20.7429C37.8246 22.5868 38.7185 24.2932 39.9764 25.7155L36.2229 23.5292C35.2934 21.4391 34.9007 19.1498 35.0807 16.8694C35.2606 14.589 36.0075 12.3896 37.2533 10.4712C38.4992 8.5527 40.2047 6.97589 42.2147 5.88399C44.2248 4.79208 46.4759 4.21967 48.7634 4.21875ZM53.0014 14.2767C52.7421 13.6417 52.3362 13.077 51.8169 12.629C51.2976 12.1809 50.6796 11.8621 50.0134 11.6986V11.3119C50.0134 10.9804 49.8817 10.6624 49.6473 10.428C49.4129 10.1936 49.0949 10.0619 48.7634 10.0619C48.4319 10.0619 48.1139 10.1936 47.8795 10.428C47.6451 10.6624 47.5134 10.9804 47.5134 11.3119V11.7158C45.7381 12.1905 44.4126 13.6198 44.5057 15.5373C44.617 17.8342 46.5606 18.8064 48.5728 19.1367C49.3853 19.2702 50.7457 19.543 50.867 20.5439C50.8753 20.6117 50.8795 20.6525 50.8798 20.6673C50.8836 20.7925 50.8568 20.9168 50.8017 21.0292C49.9336 21.3014 49.0361 21.5586 48.1279 21.7777C47.4225 21.6202 46.7953 21.2023 46.6123 20.4652C46.5322 20.1452 46.3286 19.8699 46.0461 19.6997C45.7635 19.5294 45.4251 19.4781 45.1047 19.5569C44.7844 19.6357 44.5084 19.8381 44.337 20.12C44.1656 20.4019 44.1129 20.7401 44.1904 21.0608C44.3457 21.6989 44.6534 22.29 45.087 22.7833C44.1944 23.4118 43.5761 24.358 43.3589 25.4278C42.0776 24.5025 41.0554 23.2637 40.3901 21.83C39.7248 20.3964 39.4388 18.8159 39.5594 17.2401C39.68 15.6642 40.2032 14.1457 41.0788 12.8299C41.9545 11.5142 43.1533 10.4454 44.5605 9.72578C45.9677 9.00618 47.536 8.65993 49.1153 8.72019C50.6947 8.78045 52.2321 9.2452 53.5803 10.0699C54.9286 10.8947 56.0425 12.0518 56.8153 13.4304C57.5882 14.809 57.9942 16.363 57.9943 17.9434C57.9943 18.1816 57.9854 18.4174 57.9675 18.6511C56.9032 18.823 55.7034 19.3237 54.6862 19.6914C54.257 19.8466 53.8061 20.0095 53.3375 20.1758C53.0176 17.877 51.0137 17.0105 48.9729 16.6758C48.2804 16.562 47.0384 16.3045 46.9956 15.4202C46.9585 14.6566 47.63 14.2222 48.2998 14.0873C49.2804 13.8898 50.2926 14.2817 50.6964 15.2436C50.8298 15.5414 51.0744 15.7753 51.3779 15.8952C51.6814 16.0151 52.0198 16.0115 52.3207 15.8853C52.6217 15.759 52.8613 15.5201 52.9884 15.2195C53.1155 14.919 53.1201 14.5806 53.0011 14.2767H53.0014ZM7.95652 57.7588L16.055 72.0684C16.2427 72.4023 16.2906 72.7969 16.1883 73.166C16.0859 73.5351 15.8417 73.8487 15.5089 74.0383L12.7543 75.5973C12.4204 75.785 12.0259 75.8329 11.6567 75.7307C11.2876 75.6284 10.974 75.3842 10.7843 75.0514L2.68574 60.7417C2.49815 60.4077 2.45036 60.013 2.55283 59.6439C2.6553 59.2748 2.89969 58.9612 3.23262 58.7717L5.9873 57.2128C6.3212 57.0251 6.71578 56.9772 7.08489 57.0795C7.454 57.1818 7.76764 57.426 7.9573 57.7588H7.95652ZM6.09934 59.9038C5.90689 59.9319 5.72711 60.0165 5.58273 60.1468C5.43836 60.2771 5.33587 60.4473 5.28822 60.6359C5.24057 60.8245 5.24991 61.0229 5.31506 61.2062C5.3802 61.3895 5.49822 61.5493 5.6542 61.6655C5.81017 61.7817 5.9971 61.849 6.19134 61.859C6.38558 61.8689 6.57841 61.8211 6.74546 61.7214C6.9125 61.6218 7.04624 61.4749 7.12979 61.2992C7.21333 61.1236 7.24292 60.9271 7.2148 60.7347C7.17706 60.4766 7.03834 60.244 6.82915 60.0882C6.61996 59.9324 6.35744 59.866 6.09934 59.9038ZM11.489 58.9252L16.2923 67.412C16.5452 67.3069 16.8258 67.2884 17.0903 67.3595L30.7087 71.0045C32.634 71.5202 33.6979 71.1764 35.395 70.3108L54.0811 58.8047C54.8737 58.3167 54.9526 56.9195 54.4873 56.1641C53.3789 54.3783 50.0465 56.0559 48.8118 56.775L38.4665 62.8006C37.65 63.2819 36.7524 63.6098 35.8179 63.7681C33.2107 64.2056 29.3401 62.9981 26.995 62.3284C26.2551 62.1172 25.5042 61.9027 24.7795 61.7084C24.4596 61.623 24.1868 61.4139 24.0211 61.1273C23.8554 60.8407 23.8103 60.5 23.8957 60.1802C23.9812 59.8603 24.1902 59.5875 24.4769 59.4218C24.7635 59.256 25.1042 59.2109 25.424 59.2964C26.2289 59.512 26.9592 59.7206 27.6786 59.9261C29.1865 60.3567 30.6473 60.7741 32.1039 61.0766C33.0882 61.1962 33.8882 60.933 34.1639 59.9047C34.4065 58.9984 33.8304 58.1572 32.9821 57.8534C29.8557 57.278 26.8376 56.1869 24.4628 55.3283C21.1236 54.1211 20.2959 53.8266 16.9982 55.7358L11.489 58.9252Z" fill="#FF845E"></path></g><defs><clipPath id="clip0_400_118"><rect width="80" height="80" fill="white"></rect></clipPath></defs></svg>