<svg xmlns="http://www.w3.org/2000/svg" width="80" height="80" viewBox="0 0 80 80" fill="none"><g clip-path="url(#clip0_400_140)"><path d="M56.4695 41.7541L55.0956 18.2369H44.0056V28.797H39.3183V18.2369H21.2654V28.797H16.5781V18.2369H5.4879L3.02473 60.4027C2.83302 63.6859 3.97016 66.8115 6.22678 69.2038C8.4834 71.596 11.5373 72.9134 14.8259 72.9134H40.8265C39.3094 69.9595 38.4526 66.6131 38.4526 63.0701C38.4526 52.3768 46.2576 43.4736 56.4695 41.7541ZM21.2654 13.7136C21.2654 8.7365 25.3146 4.6873 30.2917 4.6873C35.2688 4.6873 39.3182 8.7365 39.3182 13.7136V18.2367H44.0055V13.7136C44.0055 6.15192 37.8535 0 30.2917 0C22.7298 0 16.5781 6.15192 16.5781 13.7136V18.2369H21.2654V13.7136Z" fill="#FF845E"></path><path d="M77.0007 63.0707C77.0007 53.7355 69.4059 46.1406 60.0707 46.1406C50.7355 46.1406 43.1406 53.7355 43.1406 63.0707C43.1406 72.4059 50.7355 80.0006 60.0707 80.0006C69.4059 80.0006 77.0007 72.4059 77.0007 63.0707ZM57.5359 71.3624L49.923 62.7521L53.4346 59.6474L57.6872 64.4572L66.4943 55.3345L69.8665 58.5899L57.5359 71.3624Z" fill="#FF845E"></path></g><defs><clipPath id="clip0_400_140"><rect width="80" height="80" fill="white"></rect></clipPath></defs></svg>