<svg xmlns="http://www.w3.org/2000/svg" width="80" height="80" viewBox="0 0 80 80" fill="none"><g clip-path="url(#clip0_400_318)"><path d="M24 61.3354V74.6687C24 75.376 24.281 76.0542 24.781 76.5543C25.2811 77.0544 25.9594 77.3354 26.6667 77.3354H53.3333C54.0406 77.3354 54.7189 77.0544 55.219 76.5543C55.7191 76.0542 56 75.376 56 74.6687V61.3354C56 60.6281 55.7191 59.9499 55.219 59.4498C54.7189 58.9497 54.0406 58.6687 53.3333 58.6687H26.6667C25.9594 58.6687 25.2811 58.9497 24.781 59.4498C24.281 59.9499 24 60.6281 24 61.3354ZM45.9267 66.4447C45.6325 66.2485 45.4283 65.9434 45.359 65.5965C45.2897 65.2497 45.3611 64.8896 45.5573 64.5954C45.7536 64.3012 46.0587 64.097 46.4055 64.0277C46.7523 63.9584 47.1125 64.0298 47.4067 64.226L51.4067 66.8927C51.5893 67.0145 51.739 67.1794 51.8426 67.373C51.9461 67.5665 52.0003 67.7826 52.0003 68.002C52.0003 68.2215 51.9461 68.4376 51.8426 68.6311C51.739 68.8247 51.5893 68.9896 51.4067 69.1114L47.4067 71.778C47.1125 71.9743 46.7523 72.0457 46.4055 71.9764C46.0587 71.9071 45.7536 71.7029 45.5573 71.4087C45.3611 71.1145 45.2897 70.7544 45.359 70.4076C45.4283 70.0607 45.6325 69.7556 45.9267 69.5594L48.2667 68.002L45.9267 66.4447ZM37.4027 71.5807L40.0693 63.5807C40.1811 63.2448 40.4217 62.967 40.7383 62.8084C41.0548 62.6499 41.4214 62.6236 41.7573 62.7354C42.0933 62.8471 42.3711 63.0877 42.5296 63.4043C42.6881 63.7209 42.7144 64.0874 42.6027 64.4234L39.936 72.4234C39.8243 72.7593 39.5836 73.0371 39.2671 73.1956C38.9505 73.3542 38.5839 73.3805 38.248 73.2687C37.9121 73.157 37.6343 72.9163 37.4757 72.5998C37.3172 72.2832 37.2909 71.9167 37.4027 71.5807ZM28.5933 66.8927L32.5933 64.226C32.8875 64.0298 33.2477 63.9584 33.5945 64.0277C33.9413 64.097 34.2464 64.3012 34.4427 64.5954C34.6389 64.8896 34.7103 65.2497 34.641 65.5965C34.5717 65.9434 34.3675 66.2485 34.0733 66.4447L31.7333 68.002L34.0693 69.5594C34.3635 69.7556 34.5677 70.0607 34.637 70.4076C34.7063 70.7544 34.6349 71.1145 34.4387 71.4087C34.2424 71.7029 33.9373 71.9071 33.5905 71.9764C33.2437 72.0457 32.8835 71.9743 32.5893 71.778L28.5893 69.1114C28.4067 68.9896 28.257 68.8247 28.1534 68.6311C28.0499 68.4376 27.9957 68.2215 27.9957 68.002C27.9957 67.7826 28.0499 67.5665 28.1534 67.373C28.257 67.1794 28.4067 67.0145 28.5893 66.8927H28.5933ZM44 56.002V34.6687C44 34.3151 44.1405 33.9759 44.3905 33.7259C44.6406 33.4759 44.9797 33.3354 45.3333 33.3354H47.92L40 22.8594L32.1427 33.3354H34.6667C35.0203 33.3354 35.3594 33.4759 35.6095 33.7259C35.8595 33.9759 36 34.3151 36 34.6687V56.002H44Z" fill="#FF845E"></path><path d="M33.3333 48.0013V36.0013H31.76C31.3113 35.9995 30.872 35.8725 30.4916 35.6345C30.1112 35.3966 29.8047 35.0573 29.6067 34.6546C29.3905 34.2301 29.2973 33.7535 29.3376 33.2788C29.3779 32.8041 29.55 32.35 29.8347 31.968L38.0813 20.9746C38.3102 20.6849 38.6018 20.4508 38.9341 20.2899C39.2664 20.129 39.6308 20.0453 40 20.0453C40.3692 20.0453 40.7336 20.129 41.0659 20.2899C41.3982 20.4508 41.6898 20.6849 41.9187 20.9746L50.16 31.9626C50.4476 32.3441 50.6225 32.7985 50.6649 33.2743C50.7073 33.7501 50.6156 34.2283 50.4 34.6546C50.2015 35.0583 49.8939 35.3983 49.5122 35.6363C49.1305 35.8743 48.6898 36.0007 48.24 36.0013H46.6667V48.0013H65.3333C66.0406 48.0013 66.7189 47.7204 67.219 47.2203C67.7191 46.7202 68 46.0419 68 45.3346V13.3346H12V45.3346C12 46.0419 12.281 46.7202 12.781 47.2203C13.2811 47.7204 13.9594 48.0013 14.6667 48.0013H33.3333ZM14.6667 2.66797C13.9594 2.66797 13.2811 2.94892 12.781 3.44902C12.281 3.94911 12 4.62739 12 5.33464V10.668H68V5.33464C68 4.62739 67.7191 3.94911 67.219 3.44902C66.7189 2.94892 66.0406 2.66797 65.3333 2.66797H14.6667ZM17.3333 8.0013H16C15.6464 8.0013 15.3072 7.86083 15.0572 7.61078C14.8071 7.36073 14.6667 7.02159 14.6667 6.66797C14.6667 6.31435 14.8071 5.97521 15.0572 5.72516C15.3072 5.47511 15.6464 5.33464 16 5.33464H17.3333C17.687 5.33464 18.0261 5.47511 18.2761 5.72516C18.5262 5.97521 18.6667 6.31435 18.6667 6.66797C18.6667 7.02159 18.5262 7.36073 18.2761 7.61078C18.0261 7.86083 17.687 8.0013 17.3333 8.0013ZM24 8.0013H22.6667C22.313 8.0013 21.9739 7.86083 21.7239 7.61078C21.4738 7.36073 21.3333 7.02159 21.3333 6.66797C21.3333 6.31435 21.4738 5.97521 21.7239 5.72516C21.9739 5.47511 22.313 5.33464 22.6667 5.33464H24C24.3536 5.33464 24.6928 5.47511 24.9428 5.72516C25.1929 5.97521 25.3333 6.31435 25.3333 6.66797C25.3333 7.02159 25.1929 7.36073 24.9428 7.61078C24.6928 7.86083 24.3536 8.0013 24 8.0013ZM30.6667 8.0013H29.3333C28.9797 8.0013 28.6406 7.86083 28.3905 7.61078C28.1405 7.36073 28 7.02159 28 6.66797C28 6.31435 28.1405 5.97521 28.3905 5.72516C28.6406 5.47511 28.9797 5.33464 29.3333 5.33464H30.6667C31.0203 5.33464 31.3594 5.47511 31.6095 5.72516C31.8595 5.97521 32 6.31435 32 6.66797C32 7.02159 31.8595 7.36073 31.6095 7.61078C31.3594 7.86083 31.0203 8.0013 30.6667 8.0013ZM64 8.0013H58.6667C58.313 8.0013 57.9739 7.86083 57.7239 7.61078C57.4738 7.36073 57.3333 7.02159 57.3333 6.66797C57.3333 6.31435 57.4738 5.97521 57.7239 5.72516C57.9739 5.47511 58.313 5.33464 58.6667 5.33464H64C64.3536 5.33464 64.6928 5.47511 64.9428 5.72516C65.1929 5.97521 65.3333 6.31435 65.3333 6.66797C65.3333 7.02159 65.1929 7.36073 64.9428 7.61078C64.6928 7.86083 64.3536 8.0013 64 8.0013Z" fill="#FF845E"></path></g><defs><clipPath id="clip0_400_318"><rect width="80" height="80" fill="white"></rect></clipPath></defs></svg>