<svg xmlns="http://www.w3.org/2000/svg" width="80" height="80" viewBox="0 0 80 80" fill="none">

    <path
        d="M59.4855 50.6838C59.4855 47.475 62.098 44.8647 65.3092 44.8647C68.5205 44.8647 71.1283 47.4752 71.1283 50.6838C71.1283 53.7934 69.5484 58.7272 65.3092 58.7272C61.07 58.7272 59.4855 53.7936 59.4855 50.6838ZM13.6912 60.7433C13.3125 60.7562 12.9394 60.7781 12.5695 60.8052C12.8817 61.6783 13.7133 62.3056 14.6905 62.3056C15.6677 62.3056 16.5005 61.6773 16.8122 60.8034C15.7737 60.7282 14.7319 60.7082 13.6912 60.7433ZM37.1928 56.5644C37.5212 57.807 38.6534 58.7272 39.9998 58.7272C41.3462 58.7272 42.4769 57.8083 42.8062 56.567C40.9382 56.4147 39.061 56.4138 37.1928 56.5644ZM14.6906 58.727C18.9298 58.727 20.5097 53.7934 20.5097 50.6836C20.5097 47.4748 17.8992 44.8645 14.6906 44.8645C11.482 44.8645 8.87156 47.475 8.87156 50.6836C8.87156 53.7933 10.4514 58.727 14.6906 58.727ZM63.1831 60.8033C63.4955 61.6773 64.3292 62.3055 65.3092 62.3055C66.2892 62.3055 67.118 61.6781 67.4302 60.8052C67.056 60.7772 66.6814 60.7566 66.3064 60.7433C65.265 60.708 64.2224 60.728 63.1831 60.8033ZM39.9998 54.2459C45.2392 54.2459 47.1917 48.1964 47.1917 44.3831C47.1917 40.4175 43.9655 37.1912 39.9998 37.1912C36.0342 37.1912 32.8081 40.4175 32.8081 44.3831C32.8081 48.1964 34.7606 54.2459 39.9998 54.2459ZM75.6597 63.0936C74.1189 62.1019 71.8939 61.3802 69.3247 61.0092C68.8898 62.8258 67.2552 64.1805 65.3094 64.1805C63.3636 64.1805 61.7234 62.8247 61.2889 61.0069C59.7405 61.2306 58.3063 61.5852 57.0658 62.0564C57.2183 62.6016 57.295 63.1653 57.2939 63.7314V79.9133H72.4173V68.5847C72.4173 68.336 72.5161 68.0976 72.6919 67.9218C72.8677 67.746 73.1062 67.6472 73.3548 67.6472C73.6035 67.6472 73.8419 67.746 74.0178 67.9218C74.1936 68.0976 74.2923 68.336 74.2923 68.5847V79.9133H77.9688V66.6211C77.9688 65.2664 77.1919 64.0797 75.6597 63.0936ZM50.8619 58.425C49.1537 57.6623 47.0181 57.0989 44.6862 56.7734C44.245 58.9547 42.3116 60.6022 40 60.6022C37.6884 60.6022 35.753 58.9528 35.313 56.7697C29.4669 57.5811 24.5811 59.9386 24.5811 63.7317V79.9136H29.3834V66.0955C29.3834 65.8468 29.4822 65.6084 29.658 65.4326C29.8338 65.2567 30.0723 65.158 30.3209 65.158C30.5696 65.158 30.808 65.2567 30.9839 65.4326C31.1597 65.6084 31.2584 65.8468 31.2584 66.0955V79.9136H48.7412V66.0955C48.7412 65.8468 48.84 65.6084 49.0158 65.4326C49.1917 65.2567 49.4301 65.158 49.6787 65.158C49.9274 65.158 50.1658 65.2567 50.3417 65.4326C50.5175 65.6084 50.6162 65.8468 50.6162 66.0955V79.9136H55.4187V63.7317C55.4187 61.0275 52.9406 59.3534 50.8617 58.4252L50.8619 58.425ZM14.6906 64.1805C12.7447 64.1805 11.1098 62.8256 10.6753 61.0089C8.10563 61.3798 5.88047 62.1016 4.33969 63.0936C2.80797 64.0797 2.03125 65.2666 2.03125 66.6213V79.9134H5.70766V68.5848C5.70766 68.3362 5.80643 68.0977 5.98224 67.9219C6.15806 67.7461 6.39652 67.6473 6.64516 67.6473C6.8938 67.6473 7.13225 67.7461 7.30807 67.9219C7.48388 68.0977 7.58266 68.3362 7.58266 68.5848V79.9134H22.7063V63.7316C22.7063 63.1527 22.7836 62.5939 22.9342 62.0567C21.6923 61.5852 20.2566 61.2306 18.7067 61.0069C18.2728 62.8245 16.6375 64.1805 14.6908 64.1805H14.6906ZM8.97016 18.1945L2.03125 19.3889L6.94031 24.4387L5.93672 31.4048L12.2534 28.2942L18.5702 31.4048L17.562 24.4387L22.4711 19.3889L15.5322 18.1945L12.2534 11.9641L8.97016 18.1945ZM36.0628 15.5561L27.7389 16.9911L33.6287 23.0445L32.4208 31.4048L40 27.6766L47.5747 31.4048L46.3713 23.0445L52.2611 16.9911L43.9372 15.5561L40 8.08594L36.0628 15.5561ZM67.7466 11.9641L64.4633 18.1945L57.5289 19.3889L62.4333 24.4387L61.4297 31.4048L67.7464 28.2942L74.0631 31.4048L73.0595 24.4387L77.9686 19.3889L71.0297 18.1945L67.7464 11.9641H67.7466Z"
        fill="currentColor"></path>

</svg>