<svg xmlns="http://www.w3.org/2000/svg" width="40" height="40" viewBox="0 0 40 40" fill="none"><path d="M7.75398 17.4461C9.04032 17.4459 10.2977 17.0643 11.3672 16.3495C12.4366 15.6347 13.2701 14.6188 13.7623 13.4304C14.2544 12.2419 14.3832 10.9342 14.1322 9.67261C13.8812 8.411 13.2617 7.25214 12.3521 6.34257C11.4425 5.43299 10.2837 4.81354 9.02208 4.56253C7.76048 4.31153 6.45277 4.44024 5.26431 4.9324C4.07585 5.42456 3.06001 6.25807 2.34522 7.32752C1.63044 8.39698 1.24881 9.65437 1.24859 10.9407C1.2514 12.6652 1.93769 14.3182 3.15708 15.5376C4.37647 16.757 6.02951 17.4433 7.75398 17.4461ZM7.17539 6.71953C7.1745 6.64314 7.18878 6.56732 7.2174 6.49648C7.24603 6.42564 7.28842 6.36118 7.34213 6.30684C7.39584 6.25251 7.4598 6.20937 7.5303 6.17992C7.6008 6.15048 7.67645 6.13532 7.75285 6.13532C7.82926 6.13532 7.9049 6.15048 7.9754 6.17992C8.0459 6.20937 8.10986 6.25251 8.16357 6.30684C8.21728 6.36118 8.25968 6.42564 8.2883 6.49648C8.31692 6.56732 8.3312 6.64314 8.33031 6.71953V10.702L9.69609 12.0653C9.80452 12.1741 9.8653 12.3215 9.86505 12.4751C9.8648 12.6287 9.80355 12.7759 9.69477 12.8843C9.58599 12.9927 9.43859 13.0535 9.285 13.0533C9.13141 13.053 8.98421 12.9918 8.87578 12.883L7.34875 11.3554C7.29364 11.3014 7.24991 11.2368 7.22014 11.1656C7.19036 11.0944 7.17515 11.018 7.17539 10.9408V6.71953ZM18.4551 23.0711H17.0823C17.6259 22.4674 18.2693 21.9617 18.9844 21.5762C20.0667 20.9976 21.388 20.6649 23.002 20.6649H23.7587L22.749 25.5259L24.623 28.3346L26.4948 25.5259L25.4876 20.6648H26.2442C29.8542 20.6648 32.0281 22.3632 33.3822 24.7831C34.6846 27.114 35.2609 30.1313 35.617 32.9846H28.8023V30.4523H31.5877C31.6638 30.4526 31.7391 30.4378 31.8094 30.4088C31.8797 30.3798 31.9436 30.3371 31.9974 30.2834C32.0512 30.2296 32.0938 30.1657 32.1228 30.0954C32.1518 30.0251 32.1666 29.9497 32.1663 29.8737C32.1665 29.8191 32.1595 29.7648 32.1452 29.7121C32.0065 29.1149 31.8368 28.5253 31.6369 27.9457C31.4448 27.3775 31.2066 26.826 30.9248 26.2966C30.8889 26.2298 30.8403 26.1708 30.7816 26.1228C30.723 26.0748 30.6555 26.0389 30.5829 26.017C30.5104 25.9952 30.4342 25.9878 30.3588 25.9954C30.2834 26.0029 30.2103 26.0253 30.1435 26.0611C30.0768 26.0969 30.0177 26.1456 29.9697 26.2042C29.9218 26.2629 29.8858 26.3304 29.864 26.403C29.8421 26.4755 29.8348 26.5516 29.8423 26.627C29.8499 26.7024 29.8722 26.7756 29.908 26.8423C30.1614 27.3167 30.3753 27.8111 30.5476 28.3206C30.6587 28.6419 30.7587 28.9669 30.8474 29.2951H25.3681C25.0499 29.2953 24.7348 29.3583 24.4409 29.4805C24.1471 29.6027 23.8802 29.7817 23.6556 30.0072C23.6392 30.0237 23.6229 30.04 23.6065 30.0588H20.2987L19.0266 23.5651C19.0065 23.4279 18.9376 23.3025 18.8327 23.2118C18.7278 23.1211 18.5938 23.0712 18.4551 23.0711ZM25.3681 30.4527H27.6451V32.985H25.3681C25.1355 32.9859 24.9072 32.9226 24.7084 32.8019C24.5095 32.6813 24.3479 32.5081 24.2412 32.3013C24.1346 32.0946 24.0871 31.8625 24.1041 31.6305C24.1211 31.3986 24.2018 31.1758 24.3373 30.9868C24.342 30.9798 24.3467 30.9751 24.3514 30.968C24.3882 30.9172 24.4289 30.8695 24.4732 30.8251C24.5905 30.7071 24.7299 30.6134 24.8835 30.5494C25.0371 30.4855 25.2018 30.4525 25.3681 30.4523V30.4527ZM20.8234 17.9292C20.3231 17.4309 19.9259 16.8388 19.6545 16.1868C19.3832 15.5348 19.2431 14.8357 19.2422 14.1295V12.7024C19.2422 11.2756 19.809 9.90726 20.8179 8.89836C21.8268 7.88945 23.1952 7.32266 24.622 7.32266C26.0488 7.32266 27.4171 7.88945 28.426 8.89836C29.4349 9.90726 30.0017 11.2756 30.0017 12.7024V14.1291C30.0027 15.1929 29.6879 16.2331 29.0972 17.1178C28.5065 18.0026 27.6665 18.6921 26.6836 19.099C25.7006 19.5059 24.619 19.6119 23.5758 19.4036C22.5326 19.1953 21.5747 18.682 20.8234 17.9288V17.9292ZM22.9973 31.2165C22.9624 31.3813 22.9451 31.5494 22.9459 31.7178C22.9455 32.1653 23.0696 32.6041 23.3043 32.9852H20.8703L20.5234 31.216L22.9973 31.2165ZM40 34.142V35.5638H0V34.142H40ZM17.9795 24.2279H4.39477L6.10719 32.9847H19.692L19.2609 30.7756C19.2559 30.7579 19.252 30.7399 19.2492 30.7217L17.9795 24.2279ZM12.0434 29.9884C11.77 29.9884 11.5027 29.9073 11.2754 29.7555C11.0481 29.6036 10.871 29.3877 10.7663 29.1352C10.6617 28.8826 10.6343 28.6047 10.6876 28.3366C10.741 28.0685 10.8726 27.8222 11.0659 27.6288C11.2592 27.4355 11.5055 27.3039 11.7736 27.2506C12.0417 27.1972 12.3196 27.2246 12.5722 27.3292C12.8248 27.4338 13.0406 27.611 13.1925 27.8383C13.3444 28.0656 13.4255 28.3328 13.4255 28.6062C13.4248 28.9726 13.279 29.3238 13.02 29.5829C12.7609 29.842 12.4097 29.9878 12.0434 29.9885V29.9884Z" fill="currentcolor"></path></svg>