<svg xmlns="http://www.w3.org/2000/svg" width="28" height="28" viewBox="0 0 28 28" fill="none"><g clip-path="url(#clip0_1677_3688)"><path d="M24.5078 0H3.50781C1.57756 0 0.0078125 1.56975 0.0078125 3.5V24.5C0.0078125 26.4303 1.57756 28 3.50781 28H24.5078C26.4381 28 28.0078 26.4303 28.0078 24.5V3.5C28.0078 1.56975 26.4381 0 24.5078 0Z" fill="#1976D2"></path><path d="M23.6328 14H19.2578V10.5C19.2578 9.534 20.0418 9.625 21.0078 9.625H22.7578V5.25H19.2578C16.3581 5.25 14.0078 7.60025 14.0078 10.5V14H10.5078V18.375H14.0078V28H19.2578V18.375H21.8828L23.6328 14Z" fill="#FAFAFA"></path></g><defs><clipPath id="clip0_1677_3688"><rect width="28" height="28" fill="white" transform="translate(0.0078125)"></rect></clipPath></defs></svg>