<svg xmlns="http://www.w3.org/2000/svg" width="80" height="80" viewBox="0 0 80 80" fill="none">
    <path
        d="M34.0125 11.4875L34.825 13.1375C34.9444 13.3779 35.1207 13.5855 35.3385 13.7423C35.5564 13.8991 35.8092 14.0005 36.075 14.0375L37.9 14.3C38.1966 14.3508 38.4733 14.4829 38.6992 14.6817C38.9251 14.8805 39.0914 15.1381 39.1795 15.4258C39.2676 15.7135 39.2741 16.02 39.1983 16.3112C39.1225 16.6024 38.9673 16.8668 38.75 17.075L37.4375 18.325C37.2466 18.51 37.1036 18.7387 37.0208 18.9913C36.938 19.2439 36.918 19.5129 36.9625 19.775L37.275 21.5875C37.3215 21.8774 37.2886 22.1745 37.1797 22.4472C37.0709 22.7199 36.8902 22.958 36.6568 23.1362C36.4235 23.3144 36.1462 23.4261 35.8545 23.4593C35.5627 23.4926 35.2675 23.4461 35 23.325L33.3125 22.5C33.0793 22.3774 32.8197 22.3133 32.5563 22.3133C32.2928 22.3133 32.0332 22.3774 31.8 22.5L30.175 23.3625C29.9065 23.5049 29.6035 23.5691 29.3004 23.5479C28.9972 23.5267 28.7061 23.4209 28.46 23.2425C28.214 23.0642 28.0229 22.8204 27.9084 22.5389C27.794 22.2574 27.7607 21.9494 27.8125 21.65L28.125 19.8375C28.1695 19.5754 28.1495 19.3064 28.0667 19.0538C27.9839 18.8012 27.8409 18.5725 27.65 18.3875L26.3375 17.1375C26.1194 16.926 25.965 16.6576 25.8917 16.3628C25.8185 16.068 25.8293 15.7586 25.923 15.4696C26.0168 15.1807 26.1896 14.9238 26.4219 14.7281C26.6543 14.5324 26.9368 14.4057 27.2375 14.3625L29.0625 14.1C29.3283 14.063 29.5811 13.9616 29.799 13.8048C30.0168 13.648 30.1931 13.4404 30.3125 13.2L31.125 11.55C31.256 11.282 31.4582 11.0553 31.7095 10.8946C31.9608 10.734 32.2515 10.6456 32.5497 10.6391C32.8479 10.6326 33.1421 10.7084 33.4002 10.858C33.6582 11.0077 33.87 11.2255 34.0125 11.4875ZM48.3375 11.4875L47.5 13.1375C47.3806 13.3779 47.2043 13.5855 46.9865 13.7423C46.7686 13.8991 46.5158 14.0005 46.25 14.0375L44.425 14.3C44.1243 14.3432 43.8418 14.4699 43.6094 14.6656C43.3771 14.8613 43.2043 15.1182 43.1105 15.4071C43.0168 15.6961 43.006 16.0055 43.0792 16.3003C43.1525 16.5951 43.3069 16.8635 43.525 17.075L44.775 18.325C44.9659 18.51 45.1089 18.7387 45.1917 18.9913C45.2745 19.2439 45.2945 19.5129 45.25 19.775L45 21.6125C44.9482 21.9119 44.9815 22.2199 45.0959 22.5014C45.2104 22.7829 45.4015 23.0267 45.6475 23.205C45.8936 23.3834 46.1847 23.4892 46.4879 23.5104C46.791 23.5316 47.094 23.4674 47.3625 23.325L48.9875 22.4625C49.2207 22.3399 49.4803 22.2758 49.7437 22.2758C50.0072 22.2758 50.2668 22.3399 50.5 22.4625L52.1375 23.325C52.4056 23.4639 52.7071 23.5254 53.0082 23.5025C53.3093 23.4796 53.598 23.3733 53.8421 23.1954C54.0861 23.0176 54.2757 22.7753 54.3897 22.4957C54.5038 22.2161 54.5376 21.9103 54.4875 21.6125L54.175 19.8C54.1305 19.5379 54.1505 19.2689 54.2333 19.0163C54.3161 18.7637 54.4591 18.535 54.65 18.35L55.9625 17.1C56.1806 16.8885 56.335 16.6201 56.4083 16.3253C56.4815 16.0305 56.4707 15.7211 56.377 15.4321C56.2832 15.1432 56.1104 14.8863 55.8781 14.6906C55.6457 14.4949 55.3632 14.3682 55.0625 14.325L53.25 14.0625C52.9838 14.0265 52.7306 13.9256 52.5126 13.7686C52.2946 13.6117 52.1186 13.4035 52 13.1625L51.25 11.4875C51.1156 11.2161 50.9081 10.9877 50.6507 10.8279C50.3934 10.6682 50.0966 10.5836 49.7937 10.5836C49.4909 10.5836 49.1941 10.6682 48.9368 10.8279C48.6794 10.9877 48.4719 11.2161 48.3375 11.4875ZM65.575 11.4875L64.7625 13.1375C64.6431 13.3779 64.4668 13.5855 64.249 13.7423C64.0311 13.8991 63.7783 14.0005 63.5125 14.0375L61.6875 14.3C61.3868 14.3432 61.1043 14.4699 60.8719 14.6656C60.6396 14.8613 60.4668 15.1182 60.373 15.4071C60.2793 15.6961 60.2685 16.0055 60.3417 16.3003C60.415 16.5951 60.5694 16.8635 60.7875 17.075L62.1125 18.325C62.2995 18.5124 62.439 18.7418 62.5194 18.994C62.5999 19.2462 62.6189 19.5139 62.575 19.775L62.2625 21.5875C62.2107 21.8869 62.244 22.1949 62.3584 22.4764C62.4729 22.7579 62.664 23.0017 62.91 23.18C63.1561 23.3584 63.4472 23.4642 63.7504 23.4854C64.0535 23.5066 64.3565 23.4424 64.625 23.3L66.25 22.5C66.4832 22.3774 66.7428 22.3133 67.0062 22.3133C67.2697 22.3133 67.5293 22.3774 67.7625 22.5L69.4 23.3625C69.6685 23.5049 69.9715 23.5691 70.2746 23.5479C70.5778 23.5267 70.8689 23.4209 71.115 23.2425C71.361 23.0642 71.5521 22.8204 71.6666 22.5389C71.781 22.2574 71.8143 21.9494 71.7625 21.65L71.45 19.8375C71.4006 19.5764 71.4171 19.3071 71.4978 19.054C71.5785 18.8008 71.7211 18.5718 71.9125 18.3875L73.2375 17.1375C73.4558 16.9252 73.6101 16.6558 73.6827 16.3601C73.7554 16.0644 73.7434 15.7542 73.6483 15.4649C73.5532 15.1756 73.3787 14.9189 73.1447 14.724C72.9107 14.529 72.6267 14.4038 72.325 14.3625L70.5125 14.1C70.2463 14.064 69.9931 13.9631 69.7751 13.8061C69.5571 13.6492 69.3811 13.441 69.2625 13.2L68.5 11.4875C68.3636 11.2166 68.1546 10.9889 67.8964 10.8299C67.6381 10.6708 67.3408 10.5865 67.0375 10.5865C66.7342 10.5865 66.4369 10.6708 66.1786 10.8299C65.9204 10.9889 65.7114 11.2166 65.575 11.4875ZM21 64.7V61.25C21 59.5924 20.3415 58.0027 19.1694 56.8306C17.9973 55.6585 16.4076 55 14.75 55H11.25C9.5924 55 8.00269 55.6585 6.83058 56.8306C5.65848 58.0027 5 59.5924 5 61.25V64.75C5 66.4076 5.65848 67.9973 6.83058 69.1694C8.00269 70.3415 9.5924 71 11.25 71H14.75C15.575 71 16.3918 70.8367 17.1534 70.5195C17.9149 70.2023 18.6062 69.7374 19.1872 69.1518C19.7682 68.5661 20.2275 67.8712 20.5387 67.1071C20.8498 66.3431 21.0066 65.525 21 64.7ZM14.75 57.45C15.7446 57.45 16.6984 57.8451 17.4016 58.5483C18.1049 59.2516 18.5 60.2054 18.5 61.2V64.7C18.5 65.6946 18.1049 66.6484 17.4016 67.3517C16.6984 68.0549 15.7446 68.45 14.75 68.45H11.25C10.2554 68.45 9.30161 68.0549 8.59835 67.3517C7.89509 66.6484 7.5 65.6946 7.5 64.7V61.25C7.5 60.2554 7.89509 59.3016 8.59835 58.5984C9.30161 57.8951 10.2554 57.5 11.25 57.5L14.75 57.45ZM37.3875 70.1125C37.825 69.7999 38.1651 69.37 38.3686 68.8723C38.5721 68.3746 38.6306 67.8295 38.5375 67.3L38.225 65.4875C38.2119 65.4263 38.2154 65.3627 38.2352 65.3034C38.255 65.244 38.2903 65.1911 38.3375 65.15L39.5875 63.9C39.9706 63.525 40.2413 63.0503 40.3688 62.5295C40.4964 62.0088 40.4758 61.4627 40.3094 60.9531C40.143 60.4434 39.8374 59.9904 39.4271 59.6453C39.0168 59.3002 38.5181 59.0767 37.9875 59L36.25 58.75C36.1885 58.7403 36.1303 58.7159 36.0803 58.6789C36.0302 58.6419 35.9898 58.5934 35.9625 58.5375L35.15 56.8875C34.9099 56.4086 34.5413 56.006 34.0855 55.7246C33.6296 55.4432 33.1045 55.2941 32.5688 55.2941C32.033 55.2941 31.5079 55.4432 31.052 55.7246C30.5962 56.006 30.2276 56.4086 29.9875 56.8875L29.175 58.5375C29.1477 58.5934 29.1073 58.6419 29.0572 58.6789C29.0072 58.7159 28.949 58.7403 28.8875 58.75L27.075 59.0125C26.5444 59.0892 26.0457 59.3127 25.6354 59.6578C25.2251 60.0029 24.9195 60.4559 24.7531 60.9656C24.5867 61.4752 24.5661 62.0213 24.6937 62.542C24.8212 63.0628 25.0919 63.5375 25.475 63.9125L26.7875 65.1625C26.8347 65.2036 26.87 65.2565 26.8898 65.3159C26.9096 65.3752 26.9131 65.4388 26.9 65.5L26.5875 67.3125C26.4976 67.8413 26.5575 68.3846 26.7603 68.8812C26.963 69.3777 27.3007 69.8076 27.735 70.1223C28.1693 70.437 28.683 70.624 29.218 70.662C29.7531 70.7 30.288 70.5876 30.7625 70.3375L32.4 69.4875C32.4532 69.4568 32.5136 69.4406 32.575 69.4406C32.6364 69.4406 32.6968 69.4568 32.75 69.4875L34.375 70.3375C34.8481 70.5904 35.383 70.7046 35.9181 70.667C36.4532 70.6294 36.9669 70.4415 37.4 70.125L37.3875 70.1125ZM32.2125 57.95C32.2366 57.8779 32.2828 57.8153 32.3445 57.7709C32.4062 57.7265 32.4802 57.7026 32.5563 57.7026C32.6323 57.7026 32.7063 57.7265 32.768 57.7709C32.8297 57.8153 32.8759 57.8779 32.9 57.95L33.75 59.6C33.9549 60.0188 34.2591 60.3812 34.6359 60.6557C35.0128 60.9302 35.451 61.1084 35.9125 61.175L37.7375 61.4375C37.8057 61.449 37.8693 61.4792 37.9214 61.5246C37.9735 61.5701 38.0121 61.629 38.0328 61.695C38.0534 61.761 38.0555 61.8314 38.0387 61.8984C38.0219 61.9655 37.9869 62.0266 37.9375 62.075L36.625 63.325C36.2992 63.6465 36.0545 64.0408 35.911 64.4755C35.7676 64.9102 35.7295 65.3727 35.8 65.825L36.1125 67.6375C36.1249 67.7059 36.1174 67.7765 36.0908 67.8408C36.0642 67.9051 36.0196 67.9603 35.9625 68C35.9038 68.0409 35.834 68.0628 35.7625 68.0628C35.691 68.0628 35.6212 68.0409 35.5625 68L33.9375 67.15C33.5225 66.9342 33.0616 66.8215 32.5938 66.8215C32.126 66.8215 31.665 66.9342 31.25 67.15L29.625 68C29.5663 68.0409 29.4965 68.0628 29.425 68.0628C29.3535 68.0628 29.2837 68.0409 29.225 68C29.17 67.9584 29.1271 67.9029 29.1007 67.8391C29.0744 67.7754 29.0655 67.7058 29.075 67.6375L29.3875 65.825C29.458 65.3727 29.4199 64.9102 29.2765 64.4755C29.133 64.0408 28.8883 63.6465 28.5625 63.325L27.25 62.075C27.2006 62.0266 27.1656 61.9655 27.1488 61.8984C27.132 61.8314 27.1341 61.761 27.1547 61.695C27.1754 61.629 27.214 61.5701 27.2661 61.5246C27.3182 61.4792 27.3818 61.449 27.45 61.4375L29.275 61.175C29.7365 61.1084 30.1747 60.9302 30.5516 60.6557C30.9284 60.3812 31.2326 60.0188 31.4375 59.6L32.25 57.95H32.2125ZM20.9625 41.7V38.25C20.9625 36.5924 20.304 35.0027 19.1319 33.8306C17.9598 32.6585 16.3701 32 14.7125 32H11.25C9.5924 32 8.00269 32.6585 6.83058 33.8306C5.65848 35.0027 5 36.5924 5 38.25V41.75C5 43.4076 5.65848 44.9973 6.83058 46.1694C8.00269 47.3415 9.5924 48 11.25 48H14.75C16.4076 48 17.9973 47.3415 19.1694 46.1694C20.3415 44.9973 21 43.4076 21 41.75L20.9625 41.7ZM14.7125 34.45C15.7071 34.45 16.6609 34.8451 17.3642 35.5483C18.0674 36.2516 18.4625 37.2054 18.4625 38.2V41.7C18.4625 42.6946 18.0674 43.6484 17.3642 44.3516C16.6609 45.0549 15.7071 45.45 14.7125 45.45H11.25C10.2554 45.45 9.30161 45.0549 8.59835 44.3516C7.89509 43.6484 7.5 42.6946 7.5 41.7V38.25C7.5 37.2554 7.89509 36.3016 8.59835 35.5983C9.30161 34.8951 10.2554 34.5 11.25 34.5L14.7125 34.45ZM47.9875 47.375L49.625 46.525C49.6782 46.4943 49.7386 46.4781 49.8 46.4781C49.8614 46.4781 49.9218 46.4943 49.975 46.525L51.6 47.375C52.0745 47.6251 52.6094 47.7375 53.1445 47.6995C53.6795 47.6615 54.1932 47.4745 54.6275 47.1598C55.0618 46.8451 55.3995 46.4152 55.6022 45.9187C55.805 45.4221 55.8649 44.8788 55.775 44.35L55.4625 42.5C55.4518 42.4388 55.4565 42.376 55.4762 42.3171C55.4958 42.2582 55.5298 42.205 55.575 42.1625L56.825 40.9125C57.2079 40.5383 57.4787 40.0646 57.6069 39.5447C57.7351 39.0249 57.7156 38.4796 57.5506 37.9703C57.3856 37.4609 57.0816 37.0078 56.6729 36.6619C56.2643 36.316 55.7671 36.0911 55.2375 36.0125L53.4125 35.75C53.3517 35.7384 53.2943 35.7133 53.2445 35.6765C53.1948 35.6397 53.1539 35.5922 53.125 35.5375L52.3125 33.8875C52.0724 33.4086 51.7038 33.006 51.248 32.7246C50.7921 32.4432 50.267 32.2941 49.7312 32.2941C49.1955 32.2941 48.6704 32.4432 48.2145 32.7246C47.7587 33.006 47.3901 33.4086 47.15 33.8875L46.3375 35.5375C46.3106 35.5913 46.2719 35.6384 46.2243 35.6752C46.1767 35.712 46.1214 35.7375 46.0625 35.75L44.2375 36.0125C43.7069 36.0892 43.2082 36.3127 42.7979 36.6578C42.3876 37.0029 42.082 37.4559 41.9156 37.9656C41.7492 38.4752 41.7286 39.0213 41.8562 39.542C41.9837 40.0628 42.2544 40.5375 42.6375 40.9125L43.9625 42.1625C44.0055 42.2063 44.0371 42.2599 44.0546 42.3188C44.072 42.3776 44.0747 42.4399 44.0625 42.5L43.75 44.3125C43.6812 44.7253 43.7029 45.1481 43.8136 45.5517C43.9244 45.9552 44.1215 46.3299 44.3914 46.6497C44.6613 46.9696 44.9975 47.2269 45.3767 47.4039C45.7559 47.581 46.169 47.6735 46.5875 47.675C47.0721 47.6963 47.5541 47.593 47.9875 47.375ZM49.4625 35C49.6375 34.65 49.9625 34.65 50.1375 35L50.95 36.65C51.1549 37.0688 51.4591 37.4312 51.8359 37.7057C52.2128 37.9802 52.651 38.1584 53.1125 38.225L54.9375 38.4875C55.0072 38.4929 55.0736 38.5199 55.1273 38.5647C55.1811 38.6095 55.2196 38.6699 55.2375 38.7375C55.2639 38.8033 55.2697 38.8757 55.2541 38.9449C55.2384 39.0141 55.2021 39.0769 55.15 39.125L53.825 40.375C53.4992 40.6965 53.2545 41.0908 53.111 41.5255C52.9676 41.9602 52.9295 42.4227 53 42.875L53.3125 44.6875C53.3249 44.7559 53.3174 44.8265 53.2908 44.8908C53.2642 44.9551 53.2196 45.0103 53.1625 45.05C53.1038 45.0909 53.034 45.1128 52.9625 45.1128C52.891 45.1128 52.8212 45.0909 52.7625 45.05L51.1375 44.2C50.7247 43.9842 50.2658 43.8715 49.8 43.8715C49.3342 43.8715 48.8753 43.9842 48.4625 44.2L46.825 45.05C46.769 45.0916 46.701 45.1141 46.6313 45.1141C46.5615 45.1141 46.4935 45.0916 46.4375 45.05C46.3778 45.0127 46.3313 44.9578 46.3044 44.8928C46.2775 44.8278 46.2716 44.756 46.2875 44.6875L46.5875 42.875C46.6611 42.4227 46.6246 41.9592 46.481 41.524C46.3373 41.0888 46.0909 40.6947 45.7625 40.375L44.5125 39.125C44.4621 39.0756 44.4262 39.0134 44.4086 38.9452C44.391 38.8769 44.3923 38.8051 44.4125 38.7375C44.432 38.6707 44.471 38.6113 44.5244 38.5668C44.5778 38.5222 44.6433 38.4946 44.7125 38.4875L46.5375 38.225C47.0002 38.1573 47.4396 37.9787 47.8183 37.7044C48.197 37.4302 48.5038 37.0684 48.7125 36.65L49.4625 35ZM37.3875 47.1625C37.825 46.8499 38.1651 46.42 38.3686 45.9223C38.5721 45.4246 38.6306 44.8795 38.5375 44.35L38.225 42.5C38.2119 42.4388 38.2154 42.3752 38.2352 42.3159C38.255 42.2565 38.2903 42.2036 38.3375 42.1625L39.5875 40.9125C39.9706 40.5375 40.2413 40.0628 40.3688 39.542C40.4964 39.0213 40.4758 38.4752 40.3094 37.9656C40.143 37.4559 39.8374 37.0029 39.4271 36.6578C39.0168 36.3127 38.5181 36.0892 37.9875 36.0125L36.25 35.75C36.1885 35.7403 36.1303 35.7159 36.0803 35.6789C36.0302 35.6419 35.9898 35.5934 35.9625 35.5375L35.15 33.8875C34.9099 33.4086 34.5413 33.006 34.0855 32.7246C33.6296 32.4432 33.1045 32.2941 32.5688 32.2941C32.033 32.2941 31.5079 32.4432 31.052 32.7246C30.5962 33.006 30.2276 33.4086 29.9875 33.8875L29.175 35.5375C29.1477 35.5934 29.1073 35.6419 29.0572 35.6789C29.0072 35.7159 28.949 35.7403 28.8875 35.75L27.0625 36.0125C26.5329 36.0911 26.0358 36.316 25.6271 36.6619C25.2184 37.0078 24.9144 37.4609 24.7494 37.9703C24.5844 38.4796 24.5649 39.0249 24.6931 39.5447C24.8213 40.0646 25.0921 40.5383 25.475 40.9125L26.7875 42.1625C26.8347 42.2036 26.87 42.2565 26.8898 42.3159C26.9096 42.3752 26.9131 42.4388 26.9 42.5L26.5875 44.3125C26.4909 44.8424 26.545 45.3889 26.7439 45.8895C26.9427 46.3901 27.2782 46.8248 27.7121 47.1441C28.146 47.4633 28.6608 47.6542 29.1979 47.695C29.735 47.7359 30.2728 47.625 30.75 47.375L32.3875 46.525C32.4407 46.4943 32.5011 46.4781 32.5625 46.4781C32.6239 46.4781 32.6843 46.4943 32.7375 46.525L34.3625 47.375C34.8356 47.6279 35.3705 47.7421 35.9056 47.7045C36.4407 47.6669 36.9544 47.479 37.3875 47.1625ZM32.2125 35C32.2366 34.9279 32.2828 34.8653 32.3445 34.8209C32.4062 34.7765 32.4802 34.7526 32.5563 34.7526C32.6323 34.7526 32.7063 34.7765 32.768 34.8209C32.8297 34.8653 32.8759 34.9279 32.9 35L33.75 36.65C33.9549 37.0688 34.2591 37.4312 34.6359 37.7057C35.0128 37.9802 35.451 38.1584 35.9125 38.225L37.7375 38.4875C37.8057 38.499 37.8693 38.5292 37.9214 38.5746C37.9735 38.6201 38.0121 38.679 38.0328 38.745C38.0534 38.811 38.0555 38.8814 38.0387 38.9484C38.0219 39.0155 37.9869 39.0766 37.9375 39.125L36.625 40.375C36.2992 40.6965 36.0545 41.0908 35.911 41.5255C35.7676 41.9602 35.7295 42.4227 35.8 42.875L36.1125 44.6875C36.1249 44.7559 36.1174 44.8265 36.0908 44.8908C36.0642 44.9551 36.0196 45.0103 35.9625 45.05C35.9038 45.0909 35.834 45.1128 35.7625 45.1128C35.691 45.1128 35.6212 45.0909 35.5625 45.05L33.9375 44.2C33.5225 43.9842 33.0616 43.8715 32.5938 43.8715C32.126 43.8715 31.665 43.9842 31.25 44.2L29.625 45.05C29.5663 45.0909 29.4965 45.1128 29.425 45.1128C29.3535 45.1128 29.2837 45.0909 29.225 45.05C29.17 45.0084 29.1271 44.9529 29.1007 44.8891C29.0744 44.8254 29.0655 44.7558 29.075 44.6875L29.3875 42.875C29.458 42.4227 29.4199 41.9602 29.2765 41.5255C29.133 41.0908 28.8883 40.6965 28.5625 40.375L27.25 39.125C27.2006 39.0766 27.1656 39.0155 27.1488 38.9484C27.132 38.8814 27.1341 38.811 27.1547 38.745C27.1754 38.679 27.214 38.6201 27.2661 38.5746C27.3182 38.5292 27.3818 38.499 27.45 38.4875L29.275 38.225C29.7365 38.1584 30.1747 37.9802 30.5516 37.7057C30.9284 37.4312 31.2326 37.0688 31.4375 36.65L32.2125 35ZM15.9625 23.75C15.9625 23.4185 15.8308 23.1005 15.5964 22.8661C15.362 22.6317 15.044 22.5 14.7125 22.5H11.25C10.2554 22.5 9.30161 22.1049 8.59835 21.4017C7.89509 20.6984 7.5 19.7446 7.5 18.75V15.25C7.5 14.2554 7.89509 13.3016 8.59835 12.5984C9.30161 11.8951 10.2554 11.5 11.25 11.5H14.75C15.7446 11.5 16.6984 11.8951 17.4016 12.5984C18.1049 13.3016 18.5 14.2554 18.5 15.25V18.75C18.4997 19.2434 18.402 19.7319 18.2125 20.1875C18.0849 20.4942 18.0843 20.839 18.2109 21.146C18.3374 21.4531 18.5808 21.6974 18.8875 21.825C19.1942 21.9526 19.539 21.9532 19.846 21.8266C20.1531 21.7 20.3974 21.4567 20.525 21.15C20.8399 20.3891 21.0013 19.5735 21 18.75V15.25C21 13.5924 20.3415 12.0027 19.1694 10.8306C17.9973 9.65848 16.4076 9 14.75 9H11.25C9.5924 9 8.00269 9.65848 6.83058 10.8306C5.65848 12.0027 5 13.5924 5 15.25V18.75C5 20.4076 5.65848 21.9973 6.83058 23.1694C8.00269 24.3415 9.5924 25 11.25 25H14.75C15.0815 25 15.3995 24.8683 15.6339 24.6339C15.8683 24.3995 16 24.0815 16 23.75H15.9625ZM16.6375 18.175V15.875C16.6375 15.212 16.3741 14.5761 15.9053 14.1072C15.4364 13.6384 14.8005 13.375 14.1375 13.375H11.825C11.162 13.375 10.5261 13.6384 10.0572 14.1072C9.58839 14.5761 9.325 15.212 9.325 15.875V18.225C9.325 18.888 9.58839 19.5239 10.0572 19.9928C10.5261 20.4616 11.162 20.725 11.825 20.725H14.175C14.838 20.725 15.4739 20.4616 15.9428 19.9928C16.4116 19.5239 16.675 18.888 16.675 18.225L16.6375 18.175Z" fill="currentColor"></path>
</svg>