<svg xmlns="http://www.w3.org/2000/svg" width="30" height="30" viewBox="0 0 30 30" fill="none">
    <path
        d="M15 30.0957C23.2843 30.0957 30 23.38 30 15.0957C30 6.81143 23.2843 0.0957031 15 0.0957031C6.71573 0.0957031 0 6.81143 0 15.0957C0 23.38 6.71573 30.0957 15 30.0957Z"
        fill="#FF845E"></path>
    <path opacity="0.168627"
        d="M11 22.776L18.713 30.489C25.101 28.7855 29.8328 22.9653 29.8328 16.0095V15.5836L23.776 10L11 22.776Z"
        fill="black"></path>
    <path
        d="M15.3782 18.456C16.0406 19.1184 16.0406 20.2541 15.3782 20.9165L14.0059 22.2888C13.3435 22.9512 12.2078 22.9512 11.5454 22.2888L5.53591 16.232C4.87345 15.5695 4.87345 14.4339 5.53591 13.7714L6.90815 12.3992C7.57061 11.7367 8.70625 11.7367 9.36871 12.3992L15.3782 18.456Z"
        fill="white"></path>
    <path
        d="M20.6296 7.99782C21.2921 7.33536 22.4277 7.33536 23.0902 7.99782L24.4624 9.37006C25.1249 10.0325 25.1249 11.1682 24.4624 11.8306L14.0523 22.1934C13.3898 22.8559 12.2542 22.8559 11.5917 22.1934L10.2195 20.8212C9.55704 20.1587 9.55704 19.0231 10.2195 18.3606L20.6296 7.99782Z"
        fill="white"></path>
</svg>