<svg xmlns="http://www.w3.org/2000/svg" width="80" height="80" viewBox="0 0 80 80" fill="none"><g clip-path="url(#clip0_367_1964)"><path d="M6.9104 35.694C5.67374 32.3536 4.77823 28.9422 5.0483 25.3175C5.21888 23.0858 6.05753 21.1811 7.69219 19.6175C9.469 17.9402 11.1463 16.1776 12.8947 14.4718C15.169 12.2259 18.0261 12.2402 20.3004 14.4718C21.7077 15.8506 23.1007 17.2579 24.4937 18.6651C25.8441 20.0155 27.2087 21.3658 28.559 22.7304C30.9328 25.1327 30.9471 27.9329 28.5732 30.321C26.8675 32.0267 25.176 33.7466 23.4418 35.4239C22.987 35.8646 22.9443 36.2342 23.186 36.7885C24.3231 39.5177 25.972 41.9484 27.8199 44.2227C31.5441 48.7998 35.7516 52.8651 40.7693 56.0065C41.8496 56.6746 43.0294 57.1721 44.1523 57.7833C44.7351 58.096 45.1189 57.9965 45.588 57.5132C47.2795 55.7649 49.0137 54.0449 50.7478 52.325C53.0221 50.0791 55.865 50.0648 58.1393 52.325C60.9254 55.0826 63.6972 57.8544 66.4548 60.6404C68.7718 62.9716 68.7576 65.8287 66.4264 68.1741C64.8486 69.7661 63.1855 71.2728 61.7072 72.9359C59.5466 75.3524 56.8174 76.1484 53.7186 75.9778C49.1984 75.7362 45.0336 74.2294 41.0109 72.2821C32.0842 67.9466 24.4653 61.9339 18.083 54.3434C13.3638 48.7145 9.469 42.6023 6.9104 35.694ZM74.9977 40.7828C74.9977 21.6075 59.3902 6 40.2149 6V12.6239C55.7371 12.6239 68.3738 25.2606 68.3738 40.7828H74.9977ZM55.9503 40.7828H62.5743C62.5743 28.4589 52.5388 18.4234 40.2149 18.4234V25.0474C44.4224 25.0474 48.374 26.6821 51.3448 29.6529C54.3157 32.6237 55.9503 36.5753 55.9503 40.7828Z" fill="#FF845E"></path></g><defs><clipPath id="clip0_367_1964"><rect width="70" height="70" fill="white" transform="translate(5 6)"></rect></clipPath></defs></svg>