<svg xmlns="http://www.w3.org/2000/svg" width="80" height="80" viewBox="0 0 80 80" fill="none"><g clip-path="url(#clip0_400_149)"><g clip-path="url(#clip1_400_149)"><path d="M65.7716 16.5625C65.7716 7.51703 58.4108 0 49.3654 0C45.8405 0 42.5469 1.50828 39.9904 4.22281C37.4337 1.50828 34.1401 0 30.6154 0C21.5699 0 14.2091 7.51703 14.2091 16.5625C14.2091 25.6606 20.8855 30.3572 28.6173 35.7977C31.8055 38.0406 35.1038 40.3616 38.4546 43.2684L39.988 44.6005L41.5238 43.2706C45.3118 39.993 48.9144 37.4273 52.0913 35.1636C59.7337 29.7233 65.7716 25.4248 65.7716 16.5625ZM47.0216 23.5938H42.3341V28.2812H37.6466V23.5938H32.9591V18.9062H37.6466V14.2188H42.3341V18.9062H47.0216V23.5938ZM77.1779 21.4373C72.3965 21.4373 71.1623 43.6561 71.0684 44.125C70.5923 47.3806 68.2988 52.2 64.4257 55.1019L54.274 62.4727L51.4633 58.7191L61.6151 51.3505C65.6365 48.3355 67.4693 43.1873 62.4433 43.1873C57.9421 43.1873 49.5282 48.3988 47.0338 50.4661C45.563 51.6857 44.3792 53.2147 43.5668 54.9442C42.7544 56.6736 42.3335 58.561 42.334 60.4717V80H56.3965C56.3965 77.7498 57.6152 75.2967 59.4901 72.953C61.459 70.3748 64.2715 67.7498 67.1776 65.078C72.7088 59.8748 78.4432 54.5311 79.1934 49.0938C79.6387 45.4413 80.0085 39.1769 79.9901 33.5938C79.9698 27.3414 79.4401 21.6394 77.1779 21.4373ZM32.3966 50.0312C25.7871 45.4842 20.7718 43.1873 17.5374 43.1873C12.5115 43.1873 14.3443 48.3355 18.3657 51.3505L28.5174 58.7191L25.7068 62.4727L15.5551 55.1019C11.6816 52.2 9.38819 47.3806 8.9121 44.125C8.81819 43.6561 7.58398 21.4373 2.80257 21.4373C0.17757 21.6717 -0.103681 29.3123 0.0371004 36.6248C0.131007 41.9686 0.552725 47.1717 0.786944 49.0938C1.5371 54.5311 7.27148 59.875 12.8027 65.078C15.709 67.7498 18.5213 70.3748 20.4902 72.953C22.3651 75.2967 23.5838 77.7498 23.5838 80H37.6463V60.5653C37.6465 58.5229 37.1724 56.5083 36.2614 54.6804C35.3504 52.8524 34.0274 51.2609 32.3966 50.0312Z" fill="#FF845E"></path></g></g><defs><clipPath id="clip0_400_149"><rect width="80" height="80" fill="white"></rect></clipPath><clipPath id="clip1_400_149"><rect width="80" height="80" fill="white"></rect></clipPath></defs></svg>