<svg xmlns="http://www.w3.org/2000/svg" width="100" height="100" viewBox="0 0 100 100" fill="none"><rect width="100" height="100" rx="12" fill="#FF7A59"></rect><path d="M73.5675 34.2923V23.3368C75.0172 22.6601 76.2448 21.5862 77.1071 20.24C77.9695 18.8938 78.4312 17.3307 78.4386 15.7326V15.4812C78.4386 10.8218 74.6561 7.04463 69.9906 7.04463H69.7385C65.0726 7.04463 61.2901 10.8218 61.2901 15.4812V15.7326C61.2975 17.3307 61.7592 18.8938 62.6216 20.24C63.484 21.5862 64.7115 22.6601 66.1613 23.3368V34.2923C61.9945 34.9295 58.0702 36.6548 54.7859 39.2936L24.6979 15.8908C24.9124 15.1174 25.0243 14.3221 25.037 13.5238C25.0406 11.6436 24.4858 9.80448 23.4427 8.23919C22.3996 6.67389 20.915 5.45269 19.1768 4.73006C17.4385 4.00743 15.5247 3.81583 13.6774 4.1795C11.8301 4.54317 10.1324 5.44577 8.79883 6.77312C7.4653 8.10048 6.55593 9.79297 6.18577 11.6365C5.8156 13.48 6.00126 15.3918 6.71926 17.1299C7.43726 18.868 8.65534 20.3545 10.2194 21.4012C11.7835 22.448 13.6234 23.008 15.5062 23.0104C17.1533 23.0026 18.7696 22.5635 20.1937 21.7369L49.8218 44.7599C44.3747 52.9771 44.5205 63.6864 50.1888 71.7532L41.1775 80.7545C40.4487 80.5221 39.6902 80.3985 38.9254 80.3881C34.6097 80.3918 31.1135 83.8868 31.1147 88.1964C31.1158 92.5057 34.6142 95.9989 38.9295 96C43.2451 96.0011 46.745 92.5098 46.7488 88.2002C46.7386 87.4366 46.6148 86.6788 46.3814 85.9516L55.2961 77.046C63.2615 83.1695 74.2014 83.6971 82.7208 78.3686C91.2399 73.0397 95.5392 62.9798 93.4979 53.1508C91.4566 43.3215 83.5061 35.799 73.5675 34.2923ZM69.8724 70.3241C68.2254 70.3683 66.5863 70.0826 65.0518 69.4838C63.5173 68.885 62.1184 67.9852 60.9379 66.8376C59.7573 65.69 58.819 64.3178 58.1783 62.8021C57.5376 61.2864 57.2075 59.6578 57.2075 58.0126C57.2075 56.3674 57.5376 54.7388 58.1783 53.2231C58.819 51.7074 59.7573 50.3352 60.9379 49.1876C62.1184 48.04 63.5173 47.1402 65.0518 46.5414C66.5863 45.9426 68.2254 45.6569 69.8724 45.7011C76.5093 45.9332 81.7705 51.3716 81.7742 58.0037C81.7772 64.635 76.5215 70.079 69.8846 70.3177" fill="white"></path></svg>