<svg xmlns="http://www.w3.org/2000/svg" width="80" height="80" viewBox="0 0 80 80" fill="currentcolor">
            <path
                d="M72.3125 33.75H72.1125C71.3625 33.75 70.6125 33.9125 69.9375 34.225L56.25 40.55V31.25C56.25 27.575 54.825 24.125 52.225 21.525C50.85 20.15 49.25 19.1125 47.4875 18.4375C48.6485 17.6324 49.5971 16.558 50.2524 15.3063C50.9076 14.0546 51.2499 12.6628 51.25 11.25C51.25 6.425 47.325 2.5 42.5 2.5C37.675 2.5 33.75 6.425 33.75 11.25C33.75 14.225 35.2375 16.85 37.5125 18.4375C32.3875 20.4375 28.75 25.425 28.75 31.25V32.5H27.5C27.1625 32.5 26.85 32.6375 26.6125 32.8625L21.9875 37.5H15V36.25C15 35.5625 14.4375 35 13.75 35H3.75C3.0625 35 2.5 35.5625 2.5 36.25V53.75C2.5 54.4375 3.0625 55 3.75 55H13.75C14.4375 55 15 54.4375 15 53.75H56.25C56.4625 53.75 56.675 53.7 56.8625 53.5875L74.85 43.475C75.6521 43.0222 76.32 42.3649 76.7855 41.57C77.251 40.7751 77.4975 39.8711 77.5 38.95C77.5 36.075 75.175 33.75 72.3125 33.75ZM12.5 52.5H5V37.5H12.5V52.5ZM36.25 11.25C36.25 7.8 39.05 5 42.5 5C45.95 5 48.75 7.8 48.75 11.25C48.75 12.6625 48.2875 13.9625 47.5 15C46.125 15 45 13.875 45 12.5H42.5C42.5 14.4125 43.5625 16.0625 45.15 16.9125C44.1973 17.3578 43.1477 17.5556 42.0982 17.4876C41.0488 17.4196 40.0334 17.088 39.1462 16.5235C38.2589 15.959 37.5283 15.1798 37.0221 14.258C36.5159 13.3362 36.2503 12.3016 36.25 11.25ZM31.25 31.25C31.25 25.05 36.3 20 42.5 20C45.5 20 48.325 21.175 50.45 23.3C52.575 25.425 53.75 28.25 53.75 31.25V41.25H49.05C49.65 40.35 50 39.2875 50 38.125C50 35.025 47.475 32.5 44.375 32.5H31.25V31.25ZM73.625 41.2875L55.925 51.25H15V40H22.5C22.8375 40 23.15 39.8625 23.3875 39.6375L28.0125 35H44.375C45.2038 35 45.9987 35.3292 46.5847 35.9153C47.1708 36.5013 47.5 37.2962 47.5 38.125C47.5 38.9538 47.1708 39.7487 46.5847 40.3347C45.9987 40.9208 45.2038 41.25 44.375 41.25H33.75V43.75H55C55.175 43.75 55.3625 43.7125 55.525 43.6375L70.9875 36.5C71.3375 36.3375 71.725 36.25 72.1125 36.25H72.3125C73.7875 36.25 75 37.4625 75 38.95C75 39.9125 74.475 40.8125 73.625 41.2875Z"></path>
            <path
                d="M41.2515 22.5H43.7515V25H41.2515V22.5ZM41.2515 27.5H43.7515V30H41.2515V27.5ZM45.0015 77.5H35.0015C34.67 77.5 34.352 77.3683 34.1176 77.1339C33.8832 76.8995 33.7515 76.5815 33.7515 76.25V68.75H31.2515C31.0112 68.7505 30.7758 68.6817 30.5737 68.5518C30.3715 68.4219 30.2111 68.2364 30.1118 68.0176C30.0124 67.7988 29.9783 67.556 30.0135 67.3183C30.0487 67.0806 30.1517 66.8581 30.3102 66.6775L39.0602 56.6775C39.5352 56.1325 40.4665 56.1325 40.9415 56.6775L49.6915 66.6775C49.8494 66.8582 49.9519 67.0805 49.9869 67.3179C50.0218 67.5553 49.9877 67.7978 49.8886 68.0163C49.7895 68.2349 49.6296 68.4202 49.4279 68.5503C49.2263 68.6804 48.9915 68.7498 48.7515 68.75H46.2515V76.25C46.2515 76.5815 46.1198 76.8995 45.8854 77.1339C45.651 77.3683 45.333 77.5 45.0015 77.5ZM36.2515 75H43.7515V67.5C43.7515 67.1685 43.8832 66.8505 44.1176 66.6161C44.352 66.3817 44.67 66.25 45.0015 66.25H45.9965L40.0015 59.3988L34.0065 66.25H35.0015C35.333 66.25 35.651 66.3817 35.8854 66.6161C36.1198 66.8505 36.2515 67.1685 36.2515 67.5V75ZM73.7515 47.5H76.2515V62.5H73.7515V47.5ZM73.7515 65H76.2515V67.5H73.7515V65ZM68.7515 50H71.2515V65H68.7515V50ZM68.7515 67.5H71.2515V70H68.7515V67.5ZM63.7515 52.5H66.2515V67.5H63.7515V52.5ZM63.7515 70H66.2515V72.5H63.7515V70Z"></path>
       
</svg>