<svg xmlns="http://www.w3.org/2000/svg" width="28" height="28" viewBox="0 0 28 28" fill="none"><g clip-path="url(#clip0_2201_2908)"><path d="M1.75015 1.90502C-0.450182 4.19052 0.000151093 6.61835 0.000151093 13.994C0.000151093 20.119 -1.06852 26.2592 4.52448 27.7047C6.27098 28.1538 21.7457 28.1538 23.4898 27.7023C25.8185 27.1015 27.7132 25.2127 27.9722 21.9192C28.0083 21.4595 28.0083 6.53668 27.971 6.06768C27.6957 2.55952 25.5362 0.537684 22.6907 0.128184C22.0385 0.033684 21.9078 0.00568401 18.5618 -0.000149325C6.69332 0.00568401 4.09165 -0.522816 1.75015 1.90502Z" fill="url(#paint0_linear_2201_2908)"></path><path d="M13.9978 3.66183C9.76161 3.66183 5.73894 3.285 4.20244 7.22833C3.56778 8.857 3.65994 10.9722 3.65994 14.0008C3.65994 16.6585 3.57478 19.1563 4.20244 20.7722C5.73544 24.7178 9.79078 24.3398 13.9954 24.3398C18.0519 24.3398 22.2344 24.7622 23.7896 20.7722C24.4254 19.1272 24.3321 17.0435 24.3321 14.0008C24.3321 9.96183 24.5549 7.35433 22.5961 5.39667C20.6128 3.41333 17.9306 3.66183 13.9931 3.66183H13.9978ZM13.0714 5.525C21.9078 5.511 23.0324 4.52867 22.4118 18.1752C22.1913 23.0017 18.5163 22.472 13.9989 22.472C5.76227 22.472 5.52544 22.2363 5.52544 13.9962C5.52544 5.66033 6.17878 5.52967 13.0714 5.52267V5.525ZM19.5161 7.24117C19.1872 7.24117 18.8718 7.37183 18.6392 7.6044C18.4066 7.83698 18.2759 8.15242 18.2759 8.48133C18.2759 8.81025 18.4066 9.12569 18.6392 9.35826C18.8718 9.59084 19.1872 9.7215 19.5161 9.7215C19.845 9.7215 20.1605 9.59084 20.393 9.35826C20.6256 9.12569 20.7563 8.81025 20.7563 8.48133C20.7563 8.15242 20.6256 7.83698 20.393 7.6044C20.1605 7.37183 19.845 7.24117 19.5161 7.24117ZM13.9978 8.69133C13.3006 8.69141 12.6103 8.8288 11.9662 9.09567C11.3221 9.36254 10.7369 9.75366 10.244 10.2467C9.24847 11.2424 8.68929 12.5928 8.68944 14.0008C8.6896 15.4088 9.24908 16.7591 10.2448 17.7546C11.2405 18.7501 12.5909 19.3093 13.9989 19.3092C15.407 19.309 16.7572 18.7495 17.7527 17.7538C18.7482 16.7581 19.3074 15.4077 19.3073 13.9997C19.3071 12.5917 18.7476 11.2414 17.7519 10.2459C16.7562 9.25036 15.4058 8.69118 13.9978 8.69133ZM13.9978 10.5545C18.5536 10.5545 18.5594 17.4472 13.9978 17.4472C9.44311 17.4472 9.43611 10.5545 13.9978 10.5545Z" fill="white"></path></g><defs><linearGradient id="paint0_linear_2201_2908" x1="1.80384" y1="26.2115" x2="27.8269" y2="3.68882" gradientUnits="userSpaceOnUse"><stop stop-color="#FFDD55"></stop><stop offset="0.5" stop-color="#FF543E"></stop><stop offset="1" stop-color="#C837AB"></stop></linearGradient><clipPath id="clip0_2201_2908"><rect width="28" height="28" fill="white"></rect></clipPath></defs></svg>