<svg xmlns="http://www.w3.org/2000/svg" width="40" height="40" viewBox="0 0 40 40" fill="none"><g clip-path="url(#clip0_348_113)"><path d="M3.00781 4.94922H36.143V36.7227H3.00781V4.94922Z" fill="white"></path><path d="M0.0390625 2.86586C0.0390625 1.28353 1.36011 0 2.98897 0H37.0091C38.638 0 39.9591 1.28353 39.9591 2.86586V37.1357C39.9591 38.7181 38.638 40 37.0091 40H2.98897C1.36011 40 0.0390625 38.7181 0.0390625 37.1357V2.86586Z" fill="#0A66C2"></path><path d="M12.1723 33.4743V15.4663H6.19876V33.4743H12.1723ZM9.18715 13.0084C11.2697 13.0084 12.5667 11.6253 12.5667 9.8968C12.5282 8.12973 11.2697 6.78516 9.22723 6.78516C7.18313 6.78516 5.84766 8.12973 5.84766 9.8968C5.84766 11.6253 7.14305 13.0084 9.14867 13.0084H9.18715ZM15.4782 33.4743H21.4517V23.4181C21.4517 22.8799 21.4902 22.3418 21.6489 21.9578C22.0802 20.8815 23.063 19.7683 24.7143 19.7683C26.8754 19.7683 27.7395 21.4197 27.7395 23.8406V33.4727H33.7131V23.1482C33.7131 17.6173 30.7664 15.0438 26.8369 15.0438C23.6145 15.0438 22.2004 16.8478 21.4133 18.0767H21.4533V15.4663H15.4782C15.5567 17.1562 15.4782 33.4743 15.4782 33.4743Z" fill="white"></path></g><defs><clipPath id="clip0_348_113"><rect width="40" height="40" fill="white"></rect></clipPath></defs></svg>