<svg xmlns="http://www.w3.org/2000/svg" width="100" height="100" viewBox="0 0 100 100" fill="none"><rect width="100" height="100" rx="12" fill="#FF5100"></rect><path d="M94.4323 60.9403C93.9707 66.2825 91.5072 71.2523 87.536 74.8525C83.5648 78.4527 78.3798 80.4168 73.0216 80.3506H61.1268L38.6182 95V80.3506L61.1878 65.7013H72.9606C74.6296 65.7734 76.2637 65.2083 77.5321 64.1204C78.8005 63.0325 79.6084 61.503 79.7925 59.8416C80.4635 48.5494 80.4025 37.2571 79.6095 26.087C79.4795 24.5778 78.8093 23.1663 77.7222 22.1121C76.6351 21.058 75.2042 20.432 73.6926 20.3494C57.8464 19.4017 41.9572 19.4221 26.1135 20.4104C24.6007 20.4769 23.1628 21.0879 22.0645 22.1309C20.9661 23.174 20.2811 24.5788 20.1356 26.087C19.3516 37.3235 19.3108 48.5996 20.0136 59.8416C20.1827 61.5032 20.9757 63.0386 22.2326 64.1376C23.4894 65.2366 25.1163 65.8173 26.7845 65.7623H38.6182V80.4117H26.9674C21.6003 80.4599 16.4142 78.472 12.4529 74.8479C8.4917 71.2238 6.04946 66.2327 5.61783 60.8792C4.76384 48.9156 4.82484 36.9519 5.61783 24.9273C6.05985 19.9424 8.27165 15.2809 11.8525 11.7873C15.4333 8.29366 20.1463 6.19911 25.1375 5.88312C41.7083 4.70563 58.3418 4.70563 74.9126 5.88312C79.8917 6.22904 84.5832 8.34467 88.1403 11.8481C91.6974 15.3516 93.8857 20.012 94.3102 24.9883C95.1642 37.013 95.2252 49.0377 94.4932 61.0013L94.4323 60.9403Z" fill="white"></path></svg>