<svg xmlns="http://www.w3.org/2000/svg" width="50" height="50" viewBox="0 0 80 80" fill="none">
    <path
        d="M65.3621 23.9244L62.9491 22.7139L52.9518 40.5594C52.7377 40.9464 52.2435 41.0945 51.8565 40.8888L39.6932 34.5396L27.4148 47.3617C27.2896 47.495 27.1231 47.5821 26.9423 47.609C26.7615 47.6359 26.5768 47.601 26.4183 47.5099L13.7115 40.296C13.3162 40.0736 13.1763 39.5713 13.3987 39.176C13.621 38.7806 14.1232 38.6406 14.5185 38.863L26.6738 45.7641L38.9358 32.9586C39.1912 32.695 39.5865 32.6291 39.9076 32.7939L51.9062 39.0525L61.4752 21.9728L59.153 20.8035C57.5143 19.9717 57.6048 17.5999 59.3094 16.9L64.201 14.8988C65.4115 14.4047 66.7704 15.0964 67.0915 16.3563L68.4091 21.4786C68.8619 23.2656 67.009 24.748 65.3621 23.9244Z"
        fill="currentColor"></path>
    <path
        d="M71.9153 73.7903H69.7906V35.0194C69.7906 33.8745 68.8602 32.9441 67.7153 32.9441H62.1566C61.012 32.9441 60.0813 33.8745 60.0813 35.0194V73.7903H57.092V51.3002C57.092 50.1555 56.1531 49.225 55.0086 49.225H49.4581C48.3133 49.225 47.3828 50.1555 47.3828 51.3002V73.7903H44.3852V45.8567C44.3852 44.712 43.4547 43.7814 42.3098 43.7814H36.7511C35.6066 43.7814 34.6758 44.712 34.6758 45.8567V73.7903H31.6783V56.0189C31.6783 54.8741 30.7478 53.9436 29.603 53.9436H24.0442C22.8997 53.9436 21.9689 54.8741 21.9689 56.0189V73.7903H18.9714V48.2861C18.9714 47.1416 18.0408 46.2108 16.8961 46.2108H11.3378C10.193 46.2108 9.2625 47.1414 9.2625 48.2861V73.7903H8.085C6.50375 73.7903 5.21094 75.075 5.21094 76.6561C5.21094 78.2372 6.50375 79.5302 8.085 79.5302H71.9155C73.4966 79.5302 74.7895 78.2373 74.7895 76.6561C74.7895 75.0748 73.4964 73.7903 71.9153 73.7903ZM61.7284 35.0194C61.7284 34.7888 61.9261 34.5911 62.1567 34.5911H67.7155C67.9544 34.5911 68.1437 34.7888 68.1437 35.0194V73.7903H61.7286V35.0194H61.7284ZM36.323 45.8567C36.3226 45.8004 36.3334 45.7445 36.3548 45.6924C36.3761 45.6402 36.4077 45.5928 36.4475 45.553C36.4874 45.5132 36.5347 45.4816 36.5869 45.4602C36.639 45.4389 36.6949 45.428 36.7513 45.4284H42.31C42.5406 45.4284 42.7383 45.6178 42.7383 45.8567V73.7903H36.3231L36.323 45.8567ZM10.9095 48.2861C10.9091 48.2297 10.9199 48.1739 10.9413 48.1217C10.9627 48.0696 10.9942 48.0222 11.0341 47.9824C11.0739 47.9425 11.1213 47.911 11.1735 47.8896C11.2256 47.8682 11.2815 47.8574 11.3378 47.8578H16.8966C17.1272 47.8578 17.3248 48.0473 17.3248 48.2861V73.7903H10.9095V48.2861ZM71.9153 77.8831H8.085C7.40969 77.8831 6.85797 77.3314 6.85797 76.6561C6.85797 75.9808 7.40969 75.4373 8.085 75.4373H71.9155C72.5906 75.4373 73.1425 75.9809 73.1425 76.6561C73.1425 77.3313 72.5905 77.8831 71.9153 77.8831ZM37.1959 18.2033H23.3939V4.40938C23.3943 4.30113 23.3733 4.19387 23.3321 4.09378C23.2908 3.99369 23.2302 3.90275 23.1536 3.8262C23.0771 3.74966 22.9862 3.68902 22.8861 3.64778C22.786 3.60655 22.6787 3.58553 22.5705 3.58594C14.0555 3.58594 7.12141 10.5117 7.12141 19.035C7.12141 27.5502 14.0555 34.4758 22.5705 34.4758C31.0856 34.4758 38.0195 27.5502 38.0195 19.0267C38.0195 18.5738 37.6489 18.2033 37.1959 18.2033ZM22.5705 32.8288C14.9612 32.8288 8.76844 26.6361 8.76844 19.035C8.76844 11.6977 14.5166 5.68594 21.747 5.25766V19.0269C21.747 19.4797 22.1175 19.8503 22.5705 19.8503H36.348C35.9197 27.0806 29.908 32.8288 22.5705 32.8288Z"
        fill="currentColor"></path>
    <path
        d="M41.1319 15.9134C41.1323 16.0217 41.1112 16.1289 41.07 16.229C41.0287 16.3291 40.9681 16.42 40.8915 16.4965C40.815 16.5731 40.7241 16.6337 40.624 16.675C40.5239 16.7162 40.4167 16.7372 40.3084 16.7369H25.6828C25.5746 16.7372 25.4673 16.7162 25.3673 16.675C25.2672 16.6337 25.1763 16.5731 25.0997 16.4965C25.0232 16.42 24.9626 16.3291 24.9213 16.229C24.8801 16.1289 24.859 16.0217 24.8594 15.9134V1.29609C24.8594 0.843281 25.2302 0.472656 25.6828 0.472656C34.198 0.4725 41.1238 7.39828 41.1319 15.9134Z"
        fill="currentColor"></path>
</svg>