<svg xmlns="http://www.w3.org/2000/svg" width="80" height="80" viewBox="0 0 80 80" fill="none"><g clip-path="url(#clip0_400_298)"><path d="M28.9219 29.2166L42.9081 40.9553C43.4301 41.3959 44.0908 41.6381 44.7739 41.6393C45.4569 41.6404 46.1184 41.4004 46.6419 40.9616L67.8219 23.1728C66.8908 22.4614 65.7524 22.0742 64.5806 22.0703H29.3231C29.3344 23.1066 29.3994 24.1378 29.5206 25.1591C29.6835 26.5402 29.4773 27.9398 28.9231 29.2153L28.9219 29.2166Z" fill="#FF845E"></path><path d="M48.2555 42.8727C47.2667 43.7139 46.0255 44.1352 44.783 44.1352C43.5405 44.1352 42.2905 43.7127 41.2967 42.8664L27.5455 31.3239C26.6594 32.2733 25.5156 32.9436 24.2542 33.2527L24.043 33.3002C26.1235 39.5089 29.8192 45.052 34.7505 49.3602L34.9392 49.1002C36.1667 47.4239 38.2217 46.4164 40.5155 46.4164C41.843 46.4164 43.173 46.7664 44.3592 47.4289C46.1456 48.4323 48.0321 49.2459 49.988 49.8564C52.5355 50.6614 54.4005 52.5702 55.1355 54.8027H64.5817C66.0191 54.8013 67.3973 54.2297 68.4137 53.2133C69.4301 52.197 70.0016 50.8188 70.003 49.3814V27.4939C70.003 26.6302 69.7805 25.8227 69.4192 25.0977L48.2555 42.8727Z" fill="#FF845E"></path><path d="M49.2403 52.2446C47.1208 51.5824 45.0764 50.7006 43.1403 49.6134C40.9228 48.3759 38.2365 48.8296 36.8903 50.6634C36.8853 50.6693 36.8807 50.6756 36.8765 50.6821L35.2515 52.9871C28.1583 47.6432 23.0931 40.0461 20.8878 31.4434L23.664 30.8246C25.8778 30.2871 27.3278 27.9809 27.0365 25.4546C26.7777 23.2494 26.7501 21.0231 26.954 18.8121C27.1878 16.1946 25.6953 13.8521 23.459 13.3609L17.4878 12.1671C16.1203 11.8396 14.6615 12.2096 13.3803 13.2009C11.3678 14.7584 10.0778 17.6334 10.0153 20.7046C9.57402 41.0659 22.0203 59.7334 40.984 67.1546C42.2836 67.6687 43.6677 67.9358 45.0653 67.9421C46.5878 67.9421 48.0303 67.6046 49.2065 66.9346C50.6153 66.1321 51.5153 64.9271 51.7328 63.5846L52.9403 57.5446C53.3403 55.3159 51.7528 53.0384 49.2428 52.2446H49.2403Z" fill="#FF845E"></path></g><defs><clipPath id="clip0_400_298"><rect width="80" height="80" fill="white"></rect></clipPath></defs></svg>