<svg xmlns="http://www.w3.org/2000/svg" width="80" height="80" viewBox="0 0 80 80" fill="none">
    <path
        d="M47.0549 32.1072C46.7234 32.1072 46.4054 32.2389 46.171 32.4733C45.9366 32.7077 45.8049 33.0257 45.8049 33.3572V34.3434H42.2674C41.9359 34.3434 41.6179 34.4751 41.3835 34.7096C41.1491 34.944 41.0174 35.2619 41.0174 35.5934C41.0174 35.925 41.1491 36.2429 41.3835 36.4773C41.6179 36.7117 41.9359 36.8434 42.2674 36.8434H43.0337C43.4162 37.7334 44.1387 39.1897 45.2462 40.6084C44.4512 41.3409 42.7287 41.7434 43.3962 43.1522C44.3087 44.7197 46.0437 43.1597 46.9662 42.4222C47.8887 43.1597 49.6237 44.7197 50.5362 43.1522C51.2024 41.7409 49.4812 41.3422 48.6862 40.6084C49.5775 39.4504 50.3208 38.1857 50.8987 36.8434H51.8437C52.1752 36.8434 52.4931 36.7117 52.7275 36.4773C52.962 36.2429 53.0937 35.925 53.0937 35.5934C53.0937 35.2619 52.962 34.944 52.7275 34.7096C52.4931 34.4751 52.1752 34.3434 51.8437 34.3434H48.3049V33.3572C48.3049 33.0257 48.1732 32.7077 47.9388 32.4733C47.7044 32.2389 47.3864 32.1072 47.0549 32.1072ZM46.9662 38.7472C46.5306 38.1427 46.1412 37.5064 45.8012 36.8434H48.1312C47.8337 37.4184 47.4474 38.0847 46.9662 38.7472ZM29.4199 31.0897L30.0537 29.4834H33.7237L34.3562 31.0884C34.9699 32.6097 37.2749 31.6897 36.6837 30.1709L33.0499 20.9647C32.6787 19.9297 31.0949 19.9272 30.7249 20.9647L27.0924 30.1709C26.5174 31.7084 28.7887 32.6084 29.4187 31.0884L29.4199 31.0897ZM32.7374 26.9834H31.0387L31.8887 24.8297L32.7374 26.9834Z"
        fill="currentColor"></path>
    <path
        d="M71.3353 39.8887C72.8103 20.8362 58.8765 4.85372 39.524 5.00497C21.274 5.17872 7.24651 21.625 8.66526 39.8937L8.66276 60.6737C8.66276 62.1487 9.86276 63.3487 11.3378 63.3487H12.9828C13.1844 64.2119 13.6715 64.9818 14.3653 65.5335C15.0591 66.0853 15.9188 66.3866 16.8053 66.3887H22.4965C23.1623 66.3881 23.8007 66.1233 24.2715 65.6525C24.7423 65.1817 25.0071 64.5433 25.0078 63.8775V46.8525C25.0071 46.1868 24.7423 45.5485 24.2714 45.0779C23.8006 44.6073 23.1622 44.3428 22.4965 44.3425H16.8053C15.919 44.3449 15.0596 44.6463 14.3661 45.1981C13.6725 45.7498 13.1856 46.5195 12.984 47.3825C12.984 47.3825 11.2215 47.395 11.1628 47.4V41.1437H12.534C13.6868 41.1451 14.7931 40.689 15.6101 39.8755C16.427 39.0621 16.8879 37.9578 16.8915 36.805C16.664 24.2362 27.7015 12.71 40.394 13.2C52.9178 13.4087 63.1065 23.71 63.1065 36.1625C63.1065 38.9087 65.3503 41.1437 68.109 41.1437H68.8353V47.4C68.7765 47.3962 67.014 47.3825 67.014 47.3825C66.8124 46.5195 66.3255 45.7498 65.632 45.1981C64.9384 44.6463 64.079 44.3449 63.1928 44.3425H57.5015C56.8358 44.3428 56.1974 44.6073 55.7266 45.0779C55.2557 45.5485 54.9909 46.1868 54.9903 46.8525V63.8762C54.9903 65.26 56.1178 66.3875 57.5015 66.3875H63.1928C64.7553 66.3875 66.0965 65.4637 66.7303 64.14V67.615C66.7269 68.3868 66.4174 69.1257 65.8697 69.6694C65.322 70.2132 64.5808 70.5173 63.809 70.515H43.9128C43.6903 69.9907 43.3186 69.5435 42.8438 69.229C42.369 68.9145 41.8122 68.7466 41.2428 68.7462H36.4378C32.569 68.77 32.5628 74.9725 36.4378 75H41.2428C42.5215 75 43.5965 74.1625 43.9803 73.0137H63.8103C66.799 73.0137 69.2328 70.5925 69.2328 67.6162V63.2825C69.8282 63.1521 70.3614 62.8223 70.7439 62.3477C71.1265 61.8731 71.3355 61.2821 71.3365 60.6725C71.3365 60.6725 71.339 39.8912 71.3365 39.8862L71.3353 39.8887ZM41.6415 72.1025C41.6408 72.2079 41.5986 72.3088 41.5239 72.3833C41.4492 72.4577 41.3482 72.4996 41.2428 72.5H36.4378C35.9753 72.5 36.034 71.9612 36.0403 71.6437C36.0403 71.4237 36.219 71.2462 36.4378 71.2462H41.2428C41.7053 71.2462 41.6478 71.7837 41.6415 72.1025ZM15.3728 48.2762C15.3728 47.485 16.0153 46.8412 16.8065 46.8412L22.509 46.8512C22.5015 46.8537 22.5265 63.8962 22.4978 63.8875H16.8065C15.8478 63.895 15.2528 62.9987 15.3728 62.0962V48.2762ZM11.3378 49.8825H12.8728V60.8475H11.3378C11.0503 60.875 11.1965 60.21 11.1628 59.8812L11.164 50.0562C11.164 50.0098 11.1824 49.9653 11.2153 49.9325C11.2481 49.8997 11.2926 49.8812 11.339 49.8812L11.3378 49.8825ZM68.8353 38.645C67.1815 38.8362 65.6353 37.93 65.6078 36.1637C65.6215 22.2075 54.0378 10.6825 40.0103 10.6962C26.104 10.43 14.169 22.9887 14.3928 36.805C14.3898 37.295 14.1925 37.7638 13.8443 38.1085C13.496 38.4532 13.0253 38.6457 12.5353 38.6437H11.1653V36.8387C11.1653 20.895 23.9028 7.73497 39.5603 7.50497C56.5965 7.10497 70.0753 21.8075 68.8353 38.6437V38.645ZM68.8365 50.0575V60.6737C68.8365 60.7201 68.8181 60.7646 68.7853 60.7975C68.7524 60.8303 68.7079 60.8487 68.6615 60.8487H67.1278V49.8825H68.6628C68.7092 49.8825 68.7537 49.9009 68.7865 49.9337C68.8193 49.9665 68.8365 50.0111 68.8365 50.0575ZM64.6278 62.4537C64.6271 62.8339 64.4759 63.1983 64.2072 63.4673C63.9385 63.7362 63.5742 63.8877 63.194 63.8887H57.5028C57.4665 63.8962 57.5165 46.8475 57.5028 46.8425H63.194C64.1528 46.835 64.7478 47.73 64.6278 48.6325V62.4537Z"
        fill="currentColor"></path>
    <path
        d="M28.8086 51.7807C28.4771 51.7807 28.1591 51.9124 27.9247 52.1468C27.6903 52.3812 27.5586 52.6991 27.5586 53.0307V59.0269C27.5586 59.3584 27.6903 59.6764 27.9247 59.9108C28.1591 60.1452 28.4771 60.2769 28.8086 60.2769C29.1401 60.2769 29.4581 60.1452 29.6925 59.9108C29.9269 59.6764 30.0586 59.3584 30.0586 59.0269V53.0307C30.0586 52.6991 29.9269 52.3812 29.6925 52.1468C29.4581 51.9124 29.1401 51.7807 28.8086 51.7807ZM33.7661 52.3944C33.7386 50.7532 31.2936 50.7494 31.2661 52.3944V59.6644C31.2923 61.3057 33.7386 61.3094 33.7661 59.6644V52.3944ZM34.9736 50.8594V61.1982C34.9986 62.8382 37.4448 62.8432 37.4736 61.1982V50.8607C37.4461 49.2207 35.0011 49.2132 34.9736 50.8594ZM39.9286 47.7182C39.5971 47.7182 39.2791 47.8499 39.0447 48.0843C38.8103 48.3187 38.6786 48.6366 38.6786 48.9682V63.0894C38.6786 63.4209 38.8103 63.7389 39.0447 63.9733C39.2791 64.2077 39.5971 64.3394 39.9286 64.3394C40.2601 64.3394 40.5781 64.2077 40.8125 63.9733C41.0469 63.7389 41.1786 63.4209 41.1786 63.0894V48.9682C41.1786 48.6366 41.0469 48.3187 40.8125 48.0843C40.5781 47.8499 40.2601 47.7182 39.9286 47.7182ZM49.8486 53.0307V59.0269C49.8486 59.3584 49.9803 59.6764 50.2147 59.9108C50.4491 60.1452 50.7671 60.2769 51.0986 60.2769C51.4301 60.2769 51.7481 60.1452 51.9825 59.9108C52.2169 59.6764 52.3486 59.3584 52.3486 59.0269V53.0307C52.3211 51.3894 49.8761 51.3869 49.8486 53.0307ZM46.1411 52.3944V59.6644C46.1411 59.9959 46.2728 60.3139 46.5072 60.5483C46.7416 60.7827 47.0596 60.9144 47.3911 60.9144C47.7226 60.9144 48.0406 60.7827 48.275 60.5483C48.5094 60.3139 48.6411 59.9959 48.6411 59.6644V52.3944C48.6148 50.7532 46.1686 50.7494 46.1411 52.3944ZM42.4336 50.8594V61.1982C42.4611 62.8382 44.9061 62.8432 44.9336 61.1982V50.8607C44.9086 49.2207 42.4611 49.2132 42.4336 50.8594ZM45.0848 24.0582L33.8098 38.3132C32.8048 39.5932 34.7473 41.1457 35.7723 39.8632L47.0461 25.6082C48.0411 24.3082 46.1286 22.7832 45.0848 24.0582Z"
        fill="currentColor"></path>
</svg>