<svg xmlns="http://www.w3.org/2000/svg" width="80" height="80" viewBox="0 0 80 80" fill="none"><g clip-path="url(#clip0_400_159)"><path d="M59.215 52.185L54.385 50.77C54.0864 49.7434 53.6782 48.7518 53.1675 47.8125L55.5775 43.4025C55.6756 43.1731 55.7028 42.9195 55.6556 42.6744C55.6084 42.4294 55.4889 42.2041 55.3125 42.0275L52.9725 39.6875C52.796 39.5111 52.5706 39.3916 52.3256 39.3444C52.0805 39.2972 51.827 39.3244 51.5975 39.4225L47.1875 41.8325C46.2482 41.3218 45.2566 40.9136 44.23 40.615L42.815 35.785C42.7218 35.5525 42.5609 35.3533 42.3532 35.2134C42.1455 35.0734 41.9005 34.9991 41.65 35H38.35C38.0999 34.9996 37.8555 35.0741 37.6483 35.2141C37.441 35.354 37.2805 35.5529 37.1875 35.785L35.7725 40.615C34.735 40.92 33.745 41.325 32.815 41.8325L28.405 39.4225C28.1755 39.3244 27.922 39.2972 27.6769 39.3444C27.4319 39.3916 27.2066 39.5111 27.03 39.6875L24.69 42.0275C24.5136 42.2041 24.3941 42.4294 24.3469 42.6744C24.2997 42.9195 24.3269 43.1731 24.425 43.4025L26.835 47.8125C26.3243 48.7518 25.9161 49.7434 25.6175 50.77L20.7875 52.185C20.5545 52.2778 20.3548 52.4385 20.2144 52.6463C20.074 52.854 19.9993 53.0992 20 53.35V56.655C19.9996 56.9051 20.0741 57.1495 20.2141 57.3567C20.354 57.564 20.5529 57.7245 20.785 57.8175L25.615 59.2325C25.92 60.27 26.325 61.26 26.8325 62.19L24.4225 66.6C24.3244 66.8295 24.2972 67.083 24.3444 67.3281C24.3916 67.5732 24.5111 67.7985 24.6875 67.975L27.0275 70.315C27.2041 70.4914 27.4294 70.6109 27.6744 70.6581C27.9195 70.7053 28.173 70.6781 28.4025 70.58L32.8125 68.17C33.7425 68.6775 34.7325 69.0825 35.77 69.3875L37.185 74.2175C37.278 74.4496 37.4385 74.6485 37.6458 74.7884C37.853 74.9284 38.0974 75.0029 38.3475 75.0025H41.6525C41.9026 75.0029 42.147 74.9284 42.3542 74.7884C42.5615 74.6485 42.722 74.4496 42.815 74.2175L44.23 69.3875C45.2675 69.0825 46.2575 68.6775 47.1875 68.17L51.5975 70.58C51.827 70.6781 52.0805 70.7053 52.3256 70.6581C52.5706 70.6109 52.796 70.4914 52.9725 70.315L55.3125 67.975C55.4889 67.7985 55.6084 67.5732 55.6556 67.3281C55.7028 67.083 55.6756 66.8295 55.5775 66.6L53.1675 62.19C53.675 61.26 54.08 60.27 54.385 59.2325L59.215 57.8175C59.4479 57.7242 59.6473 57.5629 59.7873 57.3547C59.9273 57.1465 60.0014 56.9009 60 56.65V53.35C60.0004 53.0999 59.9259 52.8555 59.7859 52.6483C59.646 52.441 59.4471 52.278 59.215 52.185ZM40 62.5C39.0151 62.5 38.0398 62.306 37.1299 61.9291C36.2199 61.5522 35.3931 60.9998 34.6967 60.3033C34.0003 59.6069 33.4478 58.7801 33.0709 57.8701C32.694 56.9602 32.5 55.9849 32.5 55C32.5 54.0151 32.694 53.0398 33.0709 52.1299C33.4478 51.2199 34.0003 50.3931 34.6967 49.6967C35.3931 49.0003 36.2199 48.4478 37.1299 48.0709C38.0398 47.694 39.0151 47.5 40 47.5C41.9891 47.5 43.8968 48.2902 45.3033 49.6967C46.7098 51.1032 47.5 53.0109 47.5 55C47.5 56.9891 46.7098 58.8968 45.3033 60.3033C43.8968 61.7098 41.9891 62.5 40 62.5Z" fill="#FF845E"></path><path d="M40 60C42.7614 60 45 57.7614 45 55C45 52.2386 42.7614 50 40 50C37.2386 50 35 52.2386 35 55C35 57.7614 37.2386 60 40 60Z" fill="#FF845E"></path><path d="M60.001 22.5L59.8285 22.5075C58.601 12.6425 50.201 5 40.001 5C29.801 5 21.401 12.6425 20.1735 22.5075L20.001 22.5C16.2242 22.4933 12.584 23.9125 9.80844 26.4739C7.03287 29.0353 5.32648 32.55 5.0305 36.3153C4.73453 40.0805 5.87078 43.8187 8.21205 46.7823C10.5533 49.7459 13.927 51.7165 17.6585 52.3C17.815 51.7531 18.0946 51.2493 18.4759 50.8272C18.8573 50.4051 19.3302 50.0759 19.8585 49.865L23.6635 48.74C23.7738 48.4476 23.8922 48.1583 24.0185 47.8725L22.231 44.6025C21.5185 42.97 21.831 41.35 22.921 40.26L25.261 37.92C25.79 37.3872 26.4676 37.0267 27.2051 36.8857C27.9425 36.7447 28.7053 36.8299 29.3935 37.13L32.871 39.0175C33.156 38.8925 33.446 38.775 33.736 38.665L34.786 35.0825C35.436 33.425 36.806 32.5 38.346 32.5H41.656C43.196 32.5 44.5635 33.425 45.136 34.8575L46.261 38.6625C46.556 38.775 46.8435 38.895 47.126 39.0175L50.401 37.23C51.0785 36.925 51.576 36.8225 52.091 36.8225C53.091 36.8225 54.0335 37.2125 54.741 37.92L57.081 40.26C58.1735 41.35 58.4835 42.97 57.8735 44.39L55.981 47.87C56.106 48.155 56.226 48.4425 56.3385 48.735L59.9185 49.785C61.186 50.285 62.0185 51.205 62.341 52.3C66.0723 51.7165 69.4458 49.7461 71.7871 46.7828C74.1283 43.8194 75.2647 40.0816 74.9691 36.3165C74.6735 32.5515 72.9675 29.0368 70.1925 26.4752C67.4174 23.9136 63.7776 22.4939 60.001 22.5ZM34.501 25.25C34.7666 25.4489 34.9422 25.7452 34.9893 26.0736C35.0365 26.402 34.9512 26.7357 34.7523 27.0012C34.5534 27.2668 34.2571 27.4425 33.9287 27.4896C33.6003 27.5367 33.2666 27.4514 33.001 27.2525L28.001 23.5025C27.8462 23.3858 27.7206 23.2347 27.6342 23.0611C27.5477 22.8876 27.5027 22.6964 27.5027 22.5025C27.5027 22.3086 27.5477 22.1174 27.6342 21.9439C27.7206 21.7703 27.8462 21.6192 28.001 21.5025L33.001 17.7525C33.2662 17.5536 33.5996 17.4682 33.9278 17.5151C34.256 17.5619 34.5521 17.7373 34.751 18.0025C34.9499 18.2677 35.0353 18.6011 34.9885 18.9293C34.9416 19.2575 34.7662 19.5536 34.501 19.7525L30.8335 22.5025L34.501 25.25ZM42.436 19.15L39.936 26.65C39.8241 26.9555 39.5975 27.2054 39.3043 27.3465C39.0111 27.4875 38.6744 27.5087 38.3659 27.4056C38.0573 27.3024 37.8011 27.0829 37.6518 26.7939C37.5024 26.5048 37.4716 26.1689 37.566 25.8575L40.066 18.3575C40.1798 18.0549 40.4065 17.8081 40.6983 17.6691C40.9902 17.53 41.3246 17.5094 41.6313 17.6116C41.938 17.7139 42.1932 17.931 42.3432 18.2174C42.4933 18.5037 42.5266 18.8396 42.436 19.15ZM52.001 23.5L47.001 27.25C46.8701 27.3495 46.7207 27.4219 46.5615 27.4632C46.4024 27.5045 46.2366 27.5138 46.0738 27.4905C45.911 27.4673 45.7545 27.412 45.6132 27.3277C45.472 27.2435 45.3489 27.1321 45.251 27C45.0521 26.7348 44.9667 26.4014 45.0136 26.0732C45.0605 25.745 45.2358 25.4489 45.501 25.25L49.1685 22.5L45.501 19.75C45.3697 19.6515 45.2591 19.5281 45.1754 19.3869C45.0918 19.2456 45.0368 19.0893 45.0136 18.9268C44.9904 18.7643 44.9994 18.5988 45.0401 18.4398C45.0809 18.2808 45.1525 18.1313 45.251 18C45.3495 17.8687 45.4729 17.758 45.6141 17.6744C45.7554 17.5908 45.9117 17.5358 46.0742 17.5126C46.2367 17.4893 46.4022 17.4984 46.5612 17.5391C46.7203 17.5798 46.8697 17.6515 47.001 17.75L52.001 21.5C52.1558 21.6167 52.2814 21.7678 52.3679 21.9414C52.4543 22.1149 52.4994 22.3061 52.4994 22.5C52.4994 22.6939 52.4543 22.8851 52.3679 23.0586C52.2814 23.2322 52.1558 23.3833 52.001 23.5Z" fill="#FF845E"></path></g><defs><clipPath id="clip0_400_159"><rect width="80" height="80" fill="white"></rect></clipPath></defs></svg>