<svg xmlns="http://www.w3.org/2000/svg" width="80" height="80" viewBox="0 0 80 80" fill="none"><g clip-path="url(#clip0_400_163)"><path d="M61.95 28.05V27.95C61.95 15.85 52.1 6 40 6C27.9 6 18.05 15.85 18.05 27.95V28.05C10.8 28.45 5 34.45 5 41.8C5 49.375 11.175 55.55 18.775 55.55H20.55C21.25 55.55 21.875 55.25 22.325 54.8C26.35 60.225 32.75 63.75 40 63.75C46.825 63.75 52.925 60.625 56.95 55.725V58.975C56.95 64.5 52.475 69 46.95 69C45.55 69 44.45 70.125 44.45 71.5C44.45 72.875 45.55 74 46.95 74C55.225 74 61.95 67.275 61.95 58.975V55.525C69.225 55.15 75 49.15 75 41.8C75 34.45 69.2 28.45 61.95 28.05ZM51.425 46.275C49.55 51 45.075 54.05 40 54.05C34.925 54.05 30.45 51 28.575 46.275C28.075 45 28.7 43.525 30 43.025C31.275 42.525 32.725 43.15 33.225 44.45C33.7609 45.809 34.694 46.9749 35.9026 47.7955C37.1112 48.6161 38.5391 49.0533 40 49.05C42.95 49.05 45.675 47.2 46.75 44.45C47.275 43.15 48.725 42.525 50 43.025C51.275 43.525 51.925 45 51.425 46.275ZM40 19.825C33.175 19.825 27.075 22.95 23.05 27.85C23.079 23.3727 24.8773 19.0886 28.0526 15.932C31.228 12.7755 35.5227 11.0025 40 11C49.3 11 56.9 18.55 56.95 27.85C54.8959 25.3399 52.3096 23.3178 49.3782 21.9299C46.4467 20.542 43.2434 19.823 40 19.825Z" fill="#FF845E"></path><path d="M39.9989 74.0039C40.6619 74.0039 41.2978 73.7405 41.7667 73.2717C42.2355 72.8028 42.4989 72.1669 42.4989 71.5039C42.4989 70.8409 42.2355 70.205 41.7667 69.7361C41.2978 69.2673 40.6619 69.0039 39.9989 69.0039H37.5039C36.8409 69.0039 36.205 69.2673 35.7361 69.7361C35.2673 70.205 35.0039 70.8409 35.0039 71.5039C35.0039 72.1669 35.2673 72.8028 35.7361 73.2717C36.205 73.7405 36.8409 74.0039 37.5039 74.0039H39.9989Z" fill="#FF845E"></path></g><defs><clipPath id="clip0_400_163"><rect width="80" height="80" fill="white"></rect></clipPath></defs></svg>