<svg xmlns="http://www.w3.org/2000/svg" width="80" height="80" viewBox="0 0 80 80" fill="none"><path d="M19.35 35.6034C12.6453 35.6034 7.1875 41.0503 7.1875 47.755C7.1875 54.1316 17.9828 70.0784 18.4422 70.7566C18.5415 70.9048 18.6757 71.0262 18.8331 71.1103C18.9905 71.1943 19.1661 71.2382 19.3445 71.2382C19.5229 71.2382 19.6986 71.1943 19.8559 71.1103C20.0133 71.0262 20.1476 70.9048 20.2469 70.7566C20.7062 70.0784 31.5016 54.1316 31.5016 47.755C31.5016 41.0503 26.0437 35.6034 19.35 35.6034ZM12.3391 47.755C12.3391 43.8941 15.4781 40.755 19.35 40.755C23.2219 40.755 26.35 43.8941 26.35 47.755C26.35 51.6159 23.2109 54.7659 19.35 54.7659C15.4891 54.7659 12.3391 51.6159 12.3391 47.755ZM62.8375 8.76281C57.3469 8.76281 52.8734 13.2363 52.8734 18.7378C52.8734 23.1981 59.1231 33.0452 61.292 36.3417H60.6544C60.3643 36.3417 60.0861 36.457 59.881 36.6621C59.6759 36.8672 59.5606 37.1454 59.5606 37.4355C59.5606 37.7256 59.6759 38.0037 59.881 38.2089C60.0861 38.414 60.3643 38.5292 60.6544 38.5292H62.8419C63.132 38.5292 63.4102 38.414 63.6153 38.2089C63.8204 38.0037 63.9356 37.7256 63.9356 37.4355C63.9356 37.3261 63.9028 37.2266 63.8733 37.127L63.8766 37.1227C65.2547 35.0773 72.8125 23.6367 72.8125 18.7367C72.8125 13.2352 68.3391 8.76172 62.8375 8.76172V8.76281ZM62.8375 24.5675C59.6219 24.5675 57.0078 21.9534 57.0078 18.7378C57.0078 15.5222 59.6219 12.8972 62.8375 12.8972C66.0531 12.8972 68.6781 15.5222 68.6781 18.7378C68.6781 21.9534 66.0641 24.5675 62.8375 24.5675ZM56.4062 36.3472H52.1625C51.55 36.3472 51.0687 36.8284 51.0687 37.4409C51.0687 38.0425 51.55 38.5347 52.1625 38.5347H56.4062C57.0078 38.5347 57.5 38.0425 57.5 37.4409C57.5 36.8284 57.0078 36.3472 56.4062 36.3472ZM46.125 69.0503C45.5234 69.0503 45.0312 69.5425 45.0312 70.1441C45.0312 70.7456 45.5234 71.2378 46.125 71.2378H50.3687C50.9812 71.2378 51.4625 70.7456 51.4625 70.1441C51.4625 69.5425 50.9812 69.0503 50.3687 69.0503H46.125ZM39.0375 37.9003C37.7141 38.9503 36.7953 40.4159 36.4344 42.0566C36.3031 42.6472 36.675 43.2269 37.2656 43.3581C37.3422 43.3691 37.4187 43.38 37.4953 43.38C37.9984 43.38 38.4578 43.03 38.5672 42.5269C38.8188 41.3784 39.4641 40.3503 40.3938 39.6175C40.6208 39.4386 40.7678 39.1772 40.8026 38.8902C40.8374 38.6033 40.7573 38.3143 40.5797 38.0863C40.1969 37.6159 39.5188 37.5284 39.0375 37.9003ZM53.5297 70.1441C53.5297 70.7456 54.0219 71.2378 54.6234 71.2378H58.8672C59.4688 71.2378 59.9609 70.7456 59.9609 70.1441C59.9609 69.5425 59.4688 69.0503 58.8672 69.0503H54.6234C54.0219 69.0503 53.5297 69.5425 53.5297 70.1441ZM37.6266 69.0503C37.025 69.0503 36.5328 69.5425 36.5328 70.1441C36.5328 70.7456 37.025 71.2378 37.6266 71.2378H41.8813C42.4828 71.2378 42.975 70.7456 42.975 70.1441C42.975 69.5425 42.4828 69.0503 41.8813 69.0503H37.6266ZM57.9484 48.7284H53.7047C53.1031 48.7284 52.6109 49.2097 52.6109 49.8222C52.6109 50.4238 53.1031 50.9159 53.7047 50.9159H57.9484C58.55 50.9159 59.0422 50.4238 59.0422 49.8222C59.0422 49.2097 58.55 48.7284 57.9484 48.7284ZM49.4609 48.7284H45.2062C44.6047 48.7284 44.1125 49.2097 44.1125 49.8222C44.1125 50.4238 44.6047 50.9159 45.2062 50.9159H49.4609C50.0625 50.9159 50.5547 50.4238 50.5547 49.8222C50.5547 49.2097 50.0625 48.7284 49.4609 48.7284ZM47.9078 36.3472H43.6641C43.0625 36.3472 42.5703 36.8284 42.5703 37.4409C42.5703 38.0425 43.0625 38.5347 43.6641 38.5347H47.9078C48.5203 38.5347 49.0016 38.0425 49.0016 37.4409C49.0016 36.8284 48.5203 36.3472 47.9078 36.3472ZM41.4766 48.2909C40.4047 47.8097 39.5187 46.9784 38.9937 45.9284C38.9299 45.7999 38.8412 45.6853 38.7327 45.5913C38.6241 45.4973 38.498 45.4259 38.3617 45.3811C38.2253 45.3363 38.0813 45.3191 37.9383 45.3304C37.7952 45.3418 37.6557 45.3815 37.5281 45.4472C36.9812 45.7206 36.7734 46.3769 37.0359 46.9128C37.8016 48.4113 39.0594 49.6144 40.5906 50.2925C40.7328 50.3581 40.8859 50.38 41.0281 50.38C41.4547 50.38 41.8484 50.1394 42.0344 49.7347C42.0926 49.6033 42.1244 49.4617 42.1279 49.318C42.1314 49.1743 42.1066 49.0313 42.0547 48.8972C42.0029 48.7631 41.9252 48.6405 41.826 48.5365C41.7268 48.4325 41.608 48.349 41.4766 48.2909ZM70.3625 52.9722C70.2745 52.8551 70.1639 52.7568 70.0372 52.6832C69.9105 52.6097 69.7703 52.5623 69.6249 52.544C69.4796 52.5256 69.332 52.5367 69.191 52.5765C69.05 52.6163 68.9184 52.684 68.8041 52.7756C68.6898 52.8672 68.595 52.9808 68.5254 53.1098C68.4559 53.2387 68.4129 53.3803 68.3991 53.5262C68.3853 53.672 68.401 53.8192 68.4452 53.9589C68.4893 54.0986 68.5611 54.228 68.6563 54.3394C69.4547 55.3347 70.0125 56.4722 70.3406 57.6972C70.3752 57.8361 70.437 57.9669 70.5224 58.0818C70.6078 58.1967 70.7151 58.2936 70.8382 58.3668C70.9612 58.4401 71.0976 58.4882 71.2393 58.5084C71.3811 58.5286 71.5254 58.5206 71.6641 58.4847C72.2547 58.3316 72.6047 57.7409 72.4516 57.1503C72.0578 55.6191 71.3578 54.2191 70.3625 52.9722ZM66.4578 67.6066C65.3985 68.3015 64.2003 68.7569 62.9469 68.9409C62.3453 69.0394 61.9406 69.5972 62.0281 70.1878C62.1156 70.7347 62.575 71.1175 63.1109 71.1175C63.1656 71.1175 63.2203 71.1175 63.275 71.1066C64.8391 70.8659 66.3156 70.3081 67.6391 69.455C68.1531 69.1269 68.2953 68.4488 67.9672 67.9347C67.6391 67.4316 66.9719 67.2894 66.4578 67.6066ZM70.5047 61.4597C70.3009 62.7097 69.835 63.9025 69.1375 64.9597C68.7984 65.4628 68.9406 66.1409 69.4437 66.48C69.6297 66.6003 69.8375 66.655 70.0453 66.655C70.4063 66.655 70.7563 66.48 70.9641 66.1628C71.8391 64.8394 72.4078 63.3738 72.6594 61.8206C72.7072 61.5349 72.6395 61.2419 72.4713 61.006C72.3032 60.7702 72.0482 60.6108 71.7625 60.5628C71.6209 60.538 71.4758 60.5415 71.3356 60.5733C71.1953 60.6051 71.0628 60.6644 70.9458 60.7479C70.8287 60.8313 70.7294 60.9373 70.6537 61.0595C70.578 61.1817 70.5273 61.3177 70.5047 61.4597ZM28.0344 70.1441C28.0344 70.7456 28.5266 71.2378 29.1281 71.2378H33.3828C33.9844 71.2378 34.4766 70.7456 34.4766 70.1441C34.4766 69.5425 33.9844 69.0503 33.3828 69.0503H29.1281C28.5266 69.0503 28.0344 69.5425 28.0344 70.1441ZM66.7641 49.9972C65.3641 49.2644 63.8547 48.8488 62.2688 48.7503C61.6781 48.7284 61.1422 49.1659 61.1094 49.7675C61.0656 50.38 61.525 50.8941 62.1266 50.9269C63.4062 51.0144 64.6203 51.3534 65.7578 51.9441C66.0165 52.0745 66.3161 52.0983 66.5921 52.0104C66.8682 51.9225 67.0988 51.7298 67.2344 51.4738C67.5078 50.9378 67.3 50.2816 66.7641 49.9972ZM22.6411 69.0492C22.351 69.0492 22.0728 69.1645 21.8677 69.3696C21.6626 69.5747 21.5473 69.8529 21.5473 70.143C21.5473 70.433 21.6626 70.7112 21.8677 70.9164C22.0728 71.1215 22.351 71.2367 22.6411 71.2367H24.8286C25.1187 71.2367 25.3969 71.1215 25.602 70.9164C25.8071 70.7112 25.9223 70.433 25.9223 70.143C25.9223 69.8529 25.8071 69.5747 25.602 69.3696C25.3969 69.1645 25.1187 69.0492 24.8286 69.0492H22.6411Z" fill="#FF845E"></path></svg>