<svg xmlns="http://www.w3.org/2000/svg" width="80" height="80" viewBox="0 0 80 80" fill="none">
    <path 
        d="M29.5923 13.0779C29.615 13.1661 29.6271 13.2585 29.6271 13.3536V23.0737H31.6718V25.2698H28.5291C27.9231 25.2698 27.431 24.7777 27.431 24.1717V13.3536C27.431 13.2585 27.4433 13.1661 27.466 13.0779C26.7956 12.7041 26.3416 11.9877 26.3416 11.1661C26.3416 9.95873 27.3219 8.97849 28.5291 8.97849C29.7365 8.97849 30.7167 9.95873 30.7167 11.1661C30.7167 11.9877 30.2627 12.7041 29.5923 13.0779ZM25.0745 31.2692C24.6315 32.4314 23.506 33.258 22.189 33.258C20.4852 33.258 19.1021 31.8748 19.1021 30.1711C19.1021 28.4674 20.4852 27.0842 22.189 27.0842C23.506 27.0842 24.6315 27.9107 25.0745 29.0731H31.6718V31.2692H25.0745ZM47.5514 8.77457C46.3926 8.32986 45.5692 7.2061 45.5692 5.89159C45.5692 4.1879 46.9525 2.80469 48.6561 2.80469C50.3598 2.80469 51.743 4.1879 51.743 5.89159C51.743 7.21128 50.9132 8.33849 49.7474 8.77975V13.1868H47.5514V8.77457ZM69.8463 13.0779C69.869 13.1661 69.8812 13.2585 69.8812 13.3536V24.1717C69.8812 24.7777 69.3892 25.2698 68.7832 25.2698H65.6405V23.0737H67.6852V13.3536C67.6852 13.2585 67.6972 13.1661 67.7201 13.0779C67.0496 12.7041 66.5956 11.9877 66.5956 11.1661C66.5956 9.95873 67.5758 8.97849 68.7832 8.97849C69.9906 8.97849 70.9706 9.95873 70.9706 11.1661C70.9706 11.9877 70.5168 12.7041 69.8463 13.0779ZM72.2243 31.2692H65.6405V29.0731H72.2243C72.6674 27.9107 73.7929 27.0842 75.1099 27.0842C76.8136 27.0842 78.1968 28.4674 78.1968 30.1711C78.1968 31.8748 76.8136 33.258 75.1099 33.258C73.7929 33.258 72.6674 32.4314 72.2243 31.2692ZM67.7201 47.2641C67.6968 47.1741 67.6851 47.0815 67.6852 46.9885V37.2685H65.6405V35.0725H68.7832C69.3892 35.0725 69.8812 35.5645 69.8812 36.1705V46.9885C69.8812 47.0837 69.869 47.1761 69.8463 47.2641C70.5168 47.6381 70.9706 48.3545 70.9706 49.1761C70.9706 50.3835 69.9906 51.3637 68.7832 51.3637C67.5758 51.3637 66.5956 50.3835 66.5956 49.1761C66.5956 48.3545 67.0496 47.6381 67.7201 47.2641ZM49.7474 51.5625C50.9132 52.0037 51.743 53.131 51.743 54.4507C51.743 56.1543 50.3598 57.5376 48.6561 57.5376C46.9525 57.5376 45.5692 56.1543 45.5692 54.4507C45.5692 53.1361 46.3926 52.0124 47.5514 51.5675V47.1554H49.7474V51.5625ZM29.5923 47.2641C30.2627 47.6381 30.7167 48.3545 30.7167 49.1761C30.7167 50.3835 29.7365 51.3637 28.5291 51.3637C27.3219 51.3637 26.3416 50.3835 26.3416 49.1761C26.3416 48.3545 26.7956 47.6381 27.466 47.2641C27.4428 47.1741 27.431 47.0815 27.431 46.9885V36.1705C27.431 35.5645 27.9231 35.0725 28.5291 35.0725H31.6718V37.2685H29.6271V46.9885C29.6271 47.0837 29.615 47.1761 29.5923 47.2641ZM6.40249 56.835H14.3808C14.987 56.835 15.4789 56.3429 15.4789 55.7369C15.4789 55.1308 14.987 54.6389 14.3808 54.6389H6.40249V51.3492H14.3808C14.987 51.3492 15.4789 50.8572 15.4789 50.2511C15.4789 49.6452 14.987 49.1531 14.3808 49.1531H6.40249V45.8635H14.3808C14.987 45.8635 15.4789 45.3714 15.4789 44.7655C15.4789 44.1594 14.987 43.6674 14.3808 43.6674H6.40249V43.1559C6.40241 42.1082 6.60872 41.0706 7.00964 40.1026C7.41056 39.1346 7.99824 38.255 8.73911 37.5142C9.47999 36.7733 10.3595 36.1856 11.3276 35.7847C12.2956 35.3838 13.3331 35.1775 14.3808 35.1776C16.4968 35.1776 18.5261 36.0182 20.0224 37.5144C21.5186 39.0106 22.3592 41.0399 22.3594 43.1559V57.3463C22.3594 59.4623 21.5188 61.4917 20.0225 62.9879C18.5263 64.4842 16.4969 65.3248 14.3809 65.3248C12.2649 65.3248 10.2356 64.4842 8.73932 62.9879C7.24307 61.4917 6.40249 59.4623 6.40249 57.3463V56.835ZM14.3808 67.7264C15.744 67.7264 17.0938 67.458 18.3532 66.9363C19.6126 66.4147 20.7569 65.6501 21.7208 64.6862C22.6847 63.7223 23.4493 62.578 23.9709 61.3187C24.4926 60.0593 24.7611 58.7095 24.7611 57.3463C24.7611 56.7404 25.253 56.2483 25.8591 56.2483C26.4651 56.2483 26.9572 56.7404 26.9572 57.3463C26.9571 60.4917 25.7785 63.5228 23.6537 65.842C21.5289 68.1611 18.6122 69.5999 15.4789 69.8745V77.0008H21.7096C22.3157 77.0008 22.8077 77.4928 22.8077 78.0988C22.8077 78.7048 22.3157 79.1968 21.7096 79.1968H7.05222C6.4461 79.1968 5.95418 78.7048 5.95418 78.0988C5.95418 77.4928 6.4461 77.0008 7.05222 77.0008H13.2828V69.8745C10.1495 69.5998 7.23286 68.1611 5.1081 65.8419C2.98334 63.5228 1.80472 60.4916 1.80469 57.3463C1.80469 56.7404 2.29677 56.2483 2.90273 56.2483C3.50869 56.2483 4.00077 56.7404 4.00077 57.3463C4.0007 58.7095 4.26915 60.0593 4.79078 61.3187C5.3124 62.5781 6.07699 63.7224 7.04088 64.6863C8.00477 65.6502 9.14909 66.4148 10.4085 66.9364C11.6679 67.458 13.0177 67.7265 14.3808 67.7264ZM59.7377 15.3829C61.7848 15.3829 63.4444 17.0425 63.4444 19.0897V41.2525C63.4444 43.2998 61.7848 44.9594 59.7377 44.9594H37.5747C35.5275 44.9594 33.8679 43.2998 33.8679 41.2525V19.0897C33.8679 17.0425 35.5275 15.3829 37.5747 15.3829H59.7377ZM37.3189 40.4103C37.3189 40.7016 37.4346 40.9808 37.6405 41.1868C37.8464 41.3927 38.1257 41.5084 38.4169 41.5084H58.8954C59.1866 41.5084 59.4659 41.3927 59.6718 41.1868C59.8777 40.9808 59.9934 40.7016 59.9934 40.4103V19.9319C59.9934 19.6407 59.8777 19.3614 59.6718 19.1555C59.4659 18.9496 59.1866 18.8339 58.8954 18.8339H38.4169C38.1257 18.8339 37.8464 18.9496 37.6405 19.1555C37.4346 19.3614 37.3189 19.6407 37.3189 19.9319V40.4103ZM39.515 39.3123V21.0299H57.7973V39.3123H39.515Z"
        fill="currentColor"></path>

</svg>