<svg xmlns="http://www.w3.org/2000/svg" width="80" height="80" viewBox="0 0 80 80" fill="none">
    
        <path 
            d="M61.7283 39.5783C70.8705 39.5783 78.2812 46.9892 78.2812 56.1313C78.2812 65.2731 70.8703 72.6842 61.7283 72.6842C52.5864 72.6842 45.1753 65.273 45.1753 56.1313C45.1752 46.9892 52.5864 39.5783 61.7283 39.5783ZM8.34172 35.6666V29.6042C8.34201 29.45 8.40339 29.3022 8.51242 29.1932C8.62145 29.0842 8.76925 29.0228 8.92344 29.0225H14.8442C14.9984 29.0228 15.1462 29.0842 15.2552 29.1932C15.3643 29.3022 15.4256 29.45 15.4259 29.6042V35.6666C15.4256 35.8207 15.3642 35.9685 15.2551 36.0775C15.1461 36.1865 14.9984 36.2479 14.8442 36.2483H8.92328C8.76912 36.248 8.62136 36.1866 8.51236 36.0775C8.40337 35.9685 8.34201 35.8207 8.34172 35.6666ZM61.7283 25.2672H1.71875V63.2516C1.71875 64.307 2.58031 65.1686 3.63609 65.1686H44.5964C43.17 62.4708 42.3625 59.3953 42.3625 56.1314C42.3625 45.4361 51.0328 36.7659 61.728 36.7659V25.2672H61.7283ZM8.92328 52.7814H14.8441C14.9983 52.7817 15.146 52.8431 15.2551 52.9521C15.3641 53.0611 15.4255 53.2089 15.4258 53.3631V59.4255C15.4255 59.5797 15.3641 59.7275 15.2551 59.8365C15.146 59.9455 14.9983 60.0069 14.8441 60.0072H8.92328C8.76909 60.0069 8.62129 59.9455 8.51226 59.8365C8.40323 59.7275 8.34185 59.5797 8.34156 59.4255V53.3631C8.34185 53.2089 8.40323 53.0611 8.51226 52.9521C8.62129 52.8431 8.76909 52.7817 8.92328 52.7814ZM35.3766 52.7814H41.297C41.4512 52.7817 41.599 52.8431 41.708 52.9521C41.8171 53.0611 41.8785 53.2089 41.8787 53.3631V59.4255C41.8785 59.5797 41.8171 59.7275 41.708 59.8365C41.599 59.9455 41.4512 60.0069 41.297 60.0072H35.3766C35.2224 60.0069 35.0746 59.9455 34.9655 59.8365C34.8565 59.7275 34.7951 59.5797 34.7948 59.4255V53.3631C34.7951 53.2089 34.8565 53.0611 34.9655 52.9521C35.0746 52.8431 35.2224 52.7817 35.3766 52.7814ZM22.15 52.7814H28.0705C28.2247 52.7817 28.3726 52.843 28.4816 52.952C28.5907 53.0611 28.6522 53.2089 28.6525 53.3631V59.4255C28.6522 59.5797 28.5907 59.7275 28.4816 59.8366C28.3726 59.9456 28.2247 60.0069 28.0705 60.0072H22.15C21.9958 60.0069 21.848 59.9455 21.739 59.8365C21.63 59.7275 21.5686 59.5797 21.5683 59.4255V53.3631C21.5686 53.2089 21.63 53.0611 21.739 52.9521C21.848 52.8431 21.9958 52.7817 22.15 52.7814ZM8.34172 47.5458V41.4836C8.34201 41.3294 8.40339 41.1816 8.51242 41.0726C8.62145 40.9635 8.76925 40.9022 8.92344 40.9019H14.8442C14.9984 40.9022 15.1461 40.9637 15.2551 41.0727C15.3642 41.1817 15.4256 41.3294 15.4259 41.4836V47.5458C15.4256 47.7 15.3643 47.8478 15.2552 47.9568C15.1462 48.0658 14.9984 48.1272 14.8442 48.1275H8.92328C8.76912 48.1272 8.62136 48.0658 8.51236 47.9567C8.40337 47.8477 8.34201 47.7 8.34172 47.5458ZM21.5683 47.5458V41.4836C21.5686 41.3294 21.63 41.1816 21.739 41.0726C21.848 40.9635 21.9958 40.9022 22.15 40.9019H28.0705C28.2247 40.9022 28.3725 40.9635 28.4816 41.0726C28.5907 41.1816 28.6521 41.3294 28.6525 41.4836V47.5458C28.6522 47.7 28.5907 47.8478 28.4816 47.9569C28.3726 48.0659 28.2247 48.1273 28.0705 48.1275H22.15C21.9958 48.1272 21.848 48.0658 21.739 47.9568C21.63 47.8478 21.5686 47.7 21.5683 47.5458ZM34.795 47.5458V41.4836C34.7953 41.3294 34.8567 41.1816 34.9657 41.0726C35.0747 40.9635 35.2225 40.9022 35.3767 40.9019H41.2972C41.4514 40.9022 41.5992 40.9635 41.7082 41.0726C41.8172 41.1816 41.8786 41.3294 41.8789 41.4836V47.5458C41.8786 47.7 41.8172 47.8478 41.7082 47.9568C41.5992 48.0658 41.4514 48.1272 41.2972 48.1275H35.3766C35.2224 48.1272 35.0746 48.0658 34.9656 47.9568C34.8566 47.8478 34.7952 47.7 34.795 47.5458ZM41.297 36.2483H35.3766C35.2224 36.248 35.0746 36.1866 34.9655 36.0776C34.8565 35.9685 34.7951 35.8208 34.7948 35.6666V29.6042C34.7951 29.45 34.8565 29.3022 34.9655 29.1932C35.0746 29.0842 35.2224 29.0228 35.3766 29.0225H41.297C41.4512 29.0228 41.599 29.0842 41.708 29.1932C41.8171 29.3022 41.8785 29.45 41.8787 29.6042V35.6666C41.8785 35.8208 41.8171 35.9685 41.708 36.0776C41.599 36.1866 41.4512 36.248 41.297 36.2483ZM48.0216 35.6666V29.6042C48.0219 29.45 48.0832 29.3022 48.1923 29.1932C48.3013 29.0842 48.4491 29.0228 48.6033 29.0225H54.5238C54.6779 29.0228 54.8257 29.0842 54.9348 29.1932C55.0438 29.3022 55.1052 29.45 55.1055 29.6042V35.6666C55.1052 35.8208 55.0438 35.9685 54.9348 36.0776C54.8257 36.1866 54.6779 36.248 54.5238 36.2483H48.6033C48.4491 36.248 48.3013 36.1866 48.1923 36.0776C48.0832 35.9685 48.0219 35.8208 48.0216 35.6666ZM21.5683 35.6666V29.6042C21.5686 29.45 21.63 29.3022 21.739 29.1932C21.848 29.0842 21.9958 29.0228 22.15 29.0225H28.0705C28.2247 29.0227 28.3726 29.0841 28.4816 29.1931C28.5907 29.3022 28.6522 29.45 28.6525 29.6042V35.6666C28.6521 35.8208 28.5907 35.9686 28.4816 36.0776C28.3725 36.1866 28.2247 36.248 28.0705 36.2483H22.15C21.9958 36.248 21.848 36.1866 21.739 36.0776C21.63 35.9685 21.5686 35.8208 21.5683 35.6666ZM12.4897 17.4634C12.4897 18.1236 11.9502 18.6634 11.29 18.6634H8.77812C8.11797 18.6634 7.57844 18.1236 7.57844 17.4634V13.9878H3.63625C2.58031 13.9878 1.71875 14.8491 1.71875 15.9048V22.4547H61.7283V15.9048C61.7283 14.8489 60.8667 13.9877 59.8109 13.9877H55.8688V17.4633C55.8688 18.1234 55.3292 18.6633 54.6694 18.6633H52.1575C51.497 18.6633 50.9575 18.1234 50.9575 17.4633V13.9878H41.4092V17.4634C41.4092 18.1236 40.8694 18.6634 40.2095 18.6634H37.6977C37.0375 18.6634 36.498 18.1236 36.498 17.4634V13.9878H26.9497V17.4634C26.9497 18.1236 26.4098 18.6634 25.75 18.6634H23.2381C22.578 18.6634 22.0381 18.1236 22.0381 17.4634V13.9878H12.4897V17.4634ZM8.77812 9.3125H11.29C11.9502 9.3125 12.4897 9.85219 12.4897 10.5122V13.8472H7.57844V10.5122C7.57844 9.85219 8.11797 9.3125 8.77812 9.3125ZM52.1573 9.3125H54.6692C55.3291 9.3125 55.8686 9.85219 55.8686 10.5122V13.8472H50.9573V10.5122C50.9573 9.85219 51.4969 9.3125 52.1573 9.3125ZM37.6975 9.3125H40.2094C40.8692 9.3125 41.4091 9.85219 41.4091 10.5122V13.8472H36.4978V10.5122C36.4978 9.85219 37.0373 9.3125 37.6975 9.3125ZM23.238 9.3125H25.7498C26.4097 9.3125 26.9495 9.85219 26.9495 10.5122V13.8472H22.038V10.5122C22.038 9.85219 22.5778 9.3125 23.238 9.3125ZM63.1345 53.8661V43.9503C63.1345 43.1736 62.505 42.5441 61.7283 42.5441C60.9516 42.5441 60.322 43.1736 60.322 43.9503V55.3233L53.592 59.2089C53.4326 59.3012 53.2929 59.4241 53.181 59.5704C53.069 59.7167 52.9869 59.8837 52.9395 60.0617C52.8921 60.2397 52.8801 60.4253 52.9044 60.608C52.9287 60.7906 52.9888 60.9667 53.0811 61.1261C53.4692 61.7966 54.3278 62.0253 54.9983 61.637L60.4631 58.482C60.602 58.7684 60.8339 58.9992 61.121 59.1367C61.4081 59.2742 61.7333 59.3102 62.0435 59.2389C62.3536 59.1676 62.6305 58.9932 62.8287 58.7442C63.0269 58.4952 63.1348 58.1863 63.1347 57.868V56.9363L63.93 56.4772C64.2048 56.3193 64.4179 56.0729 64.5345 55.7782C64.6511 55.4836 64.6643 55.158 64.572 54.8549C64.4796 54.5517 64.2872 54.2889 64.0261 54.1093C63.765 53.9297 63.4507 53.8439 63.1345 53.8661Z"
            fill="currentColor"></path>
    
</svg>