<svg xmlns="http://www.w3.org/2000/svg" width="80" height="80" viewBox="0 0 80 80" fill="none"><path fill-rule="evenodd" clip-rule="evenodd" d="M34.793 20.7803C26.9262 20.7803 20.5264 27.1801 20.5264 35.0469C20.5264 42.9137 26.9262 49.3135 34.793 49.3135C42.6598 49.3135 49.0609 42.9137 49.0609 35.0469C49.0609 27.1801 42.6598 20.7803 34.793 20.7803ZM50.707 35.8672H55.0916C55.4689 37.6295 57.0385 38.9543 58.9115 38.9543C61.0662 38.9543 62.8189 37.2016 62.8189 35.0469C62.8189 32.8922 61.0662 31.1395 58.9115 31.1395C57.0385 31.1395 55.4689 32.4643 55.0916 34.2266H50.707C50.7207 34.4986 50.7275 34.7721 50.7275 35.0469C50.7289 35.3217 50.7207 35.5951 50.707 35.8672ZM46.6205 24.3801C46.2533 23.9739 45.8659 23.5865 45.4598 23.2193L52.5924 16.0881C51.3715 14.6088 50.6373 12.7139 50.6373 10.6508C50.6373 5.93398 54.4736 2.09766 59.1904 2.09766C63.9059 2.09766 67.7436 5.93398 67.7436 10.6508C67.7436 15.3662 63.9059 19.2039 59.1904 19.2039C57.1273 19.2039 55.2324 18.4684 53.7531 17.2475L46.6205 24.3801ZM35.6133 19.1328V14.7482C37.3756 14.3695 38.7004 12.8014 38.7004 10.927C38.7004 8.77227 36.9477 7.01953 34.793 7.01953C32.6383 7.01953 30.8855 8.77227 30.8855 10.927C30.8855 12.8014 32.2104 14.3695 33.9727 14.7482V19.1328C34.5192 19.1053 35.0668 19.1053 35.6133 19.1328ZM24.1262 23.2193C23.7201 23.5857 23.3318 23.974 22.9654 24.3801L15.8342 17.2475C14.3549 18.4684 12.46 19.2039 10.3969 19.2039C5.68144 19.2039 1.84375 15.3662 1.84375 10.6508C1.84375 5.93398 5.68144 2.09766 10.3969 2.09766C15.1137 2.09766 18.95 5.93398 18.95 10.6508C18.95 12.7139 18.2158 14.6088 16.9949 16.0881L24.1262 23.2193ZM18.8789 34.2266H14.4943C14.1156 32.4643 12.5461 31.1395 10.673 31.1395C8.51836 31.1395 6.76562 32.8922 6.76562 35.0469C6.76562 37.2016 8.51836 38.9543 10.673 38.9543C12.5461 38.9543 14.1156 37.6295 14.4943 35.8672H18.8789C18.8514 35.3207 18.8514 34.7731 18.8789 34.2266ZM22.9654 45.7137C23.3318 46.1197 23.7201 46.508 24.1262 46.8744L16.9949 54.0057C18.2158 55.485 18.95 57.3799 18.95 59.443C18.95 64.1598 15.1123 67.9961 10.3969 67.9961C5.68144 67.9961 1.84375 64.1598 1.84375 59.443C1.84375 54.7275 5.68144 50.8898 10.3969 50.8898C12.46 50.8898 14.3563 51.6254 15.8342 52.8463L22.9654 45.7137ZM33.9727 50.9609V55.3455C32.2104 55.7242 30.8855 57.2924 30.8855 59.1668C30.8855 61.3215 32.6383 63.0742 34.793 63.0742C36.9477 63.0742 38.7004 61.3215 38.7004 59.1668C38.7004 57.2924 37.3756 55.7242 35.6133 55.3455V50.9609C35.0668 50.9884 34.5192 50.9884 33.9727 50.9609ZM45.4598 46.8744C45.8659 46.5072 46.2533 46.1198 46.6205 45.7137L53.7518 52.8463C55.2297 51.6254 57.126 50.8898 59.1891 50.8898C63.9045 50.8898 67.7408 54.7275 67.7408 59.443C67.7408 64.1598 63.9045 67.9961 59.1891 67.9961C54.4723 67.9961 50.6359 64.1598 50.6359 59.443C50.6359 57.3799 51.3701 55.485 52.591 54.0057L45.4598 46.8744ZM30.3701 29.2937C30.7338 29.2937 31.0305 29.5904 31.0305 29.9541C31.0305 30.3178 30.7338 30.6145 30.3701 30.6145C30.0064 30.6145 29.7098 30.3178 29.7098 29.9541C29.7084 29.5904 30.0064 29.2937 30.3701 29.2937ZM38.5555 40.1396C38.5555 39.776 38.8521 39.4779 39.2158 39.4779C39.5795 39.4779 39.8762 39.776 39.8762 40.1396C39.8762 40.5033 39.5795 40.8 39.2158 40.8C38.8521 40.8 38.5555 40.5033 38.5555 40.1396ZM34.1326 40.1396C34.1326 39.776 34.4293 39.4779 34.793 39.4779C35.1566 39.4779 35.4533 39.776 35.4533 40.1396C35.4533 40.5033 35.1566 40.8 34.793 40.8C34.4293 40.8 34.1326 40.5033 34.1326 40.1396ZM30.3701 39.4779C30.7338 39.4779 31.0305 39.776 31.0305 40.1396C31.0305 40.5033 30.7338 40.8 30.3701 40.8C30.0064 40.8 29.7098 40.5033 29.7098 40.1396C29.7084 39.776 30.0064 39.4779 30.3701 39.4779ZM31.0305 35.0469C31.0305 35.4105 30.7338 35.7072 30.3701 35.7072C30.0064 35.7072 29.7098 35.4105 29.7098 35.0469C29.7098 34.6832 30.0078 34.3865 30.3701 34.3865C30.5451 34.3869 30.7129 34.4566 30.8367 34.5803C30.9604 34.7041 31.0301 34.8718 31.0305 35.0469ZM35.4533 35.0469C35.4533 35.4105 35.1566 35.7072 34.793 35.7072C34.4293 35.7072 34.1326 35.4105 34.1326 35.0469C34.1326 34.6832 34.4293 34.3865 34.793 34.3865C35.1566 34.3865 35.4533 34.6832 35.4533 35.0469ZM39.8775 35.0469C39.8775 35.4105 39.5809 35.7072 39.2172 35.7072C38.8535 35.7072 38.5568 35.4105 38.5568 35.0469C38.5568 34.6832 38.8535 34.3865 39.2172 34.3865C39.5795 34.3865 39.8775 34.6832 39.8775 35.0469ZM38.5555 29.9541C38.5555 29.5904 38.8521 29.2937 39.2158 29.2937C39.5795 29.2937 39.8762 29.5904 39.8762 29.9541C39.8762 30.3178 39.5795 30.6145 39.2158 30.6145C38.8521 30.6145 38.5555 30.3178 38.5555 29.9541ZM34.793 29.2937C35.1566 29.2937 35.4533 29.5904 35.4533 29.9541C35.4533 30.3178 35.1566 30.6145 34.793 30.6145C34.4293 30.6145 34.1326 30.3178 34.1326 29.9541C34.1326 29.5904 34.4293 29.2937 34.793 29.2937ZM33.0389 29.9541C33.0389 28.9875 33.8264 28.2 34.793 28.2C35.7609 28.2 36.5484 28.9875 36.5484 29.9541C36.5484 30.9221 35.7609 31.7082 34.793 31.7082C33.8264 31.7082 33.0389 30.9221 33.0389 29.9541ZM34.793 33.2928C35.7609 33.2928 36.5484 34.0789 36.5484 35.0469C36.5484 36.0148 35.7609 36.801 34.793 36.801C33.8264 36.801 33.0389 36.0148 33.0389 35.0469C33.0389 34.0789 33.8264 33.2928 34.793 33.2928ZM37.4617 40.1396C37.4617 39.1717 38.2492 38.3842 39.2158 38.3842C40.1838 38.3842 40.9699 39.1717 40.9699 40.1396C40.9699 41.1063 40.1824 41.8938 39.2158 41.8938C38.2492 41.8938 37.4617 41.1063 37.4617 40.1396ZM33.0389 40.1396C33.0389 39.1717 33.8264 38.3842 34.793 38.3842C35.7609 38.3842 36.5484 39.1717 36.5484 40.1396C36.5484 41.1063 35.7609 41.8938 34.793 41.8938C33.8264 41.8938 33.0389 41.1063 33.0389 40.1396ZM30.3701 28.2C31.3381 28.2 32.1256 28.9875 32.1256 29.9541C32.1256 30.9221 31.3381 31.7082 30.3701 31.7082C29.4021 31.7082 28.616 30.9221 28.616 29.9541C28.616 28.9875 29.4021 28.2 30.3701 28.2ZM30.3701 33.2928C31.3381 33.2928 32.1256 34.0789 32.1256 35.0469C32.1256 36.0148 31.3381 36.801 30.3701 36.801C29.4021 36.801 28.616 36.0148 28.616 35.0469C28.616 34.0789 29.4021 33.2928 30.3701 33.2928ZM30.3701 38.3842C31.3381 38.3842 32.1256 39.1717 32.1256 40.1396C32.1256 41.1063 31.3381 41.8938 30.3701 41.8938C29.4021 41.8938 28.616 41.1063 28.616 40.1396C28.616 39.1717 29.4021 38.3842 30.3701 38.3842ZM37.4617 35.0469C37.4617 34.0789 38.2492 33.2928 39.2158 33.2928C40.1838 33.2928 40.9699 34.0789 40.9699 35.0469C40.9699 36.0148 40.1824 36.801 39.2158 36.801C38.2492 36.801 37.4617 36.0148 37.4617 35.0469ZM37.4617 29.9541C37.4617 28.9875 38.2492 28.2 39.2158 28.2C40.1838 28.2 40.9699 28.9875 40.9699 29.9541C40.9699 30.9221 40.1824 31.7082 39.2158 31.7082C38.2492 31.7082 37.4617 30.9221 37.4617 29.9541ZM43.0057 32.8676V27.2061C43.0057 26.7016 42.5955 26.2928 42.091 26.2928H41.7588C41.3063 26.2928 40.9385 25.925 40.9385 25.4725C40.9385 25.0186 41.3049 24.6521 41.7588 24.6521H42.091C43.4992 24.6521 44.6463 25.7979 44.6463 27.2061V32.8676C44.6463 33.3926 44.9211 33.8178 45.401 34.0338L45.9916 34.299C46.2869 34.4303 46.4756 34.7242 46.4756 35.0469C46.4756 35.3695 46.2869 35.6635 45.9916 35.7947L45.401 36.06C44.9211 36.276 44.6463 36.7012 44.6463 37.2262V42.8877C44.6463 44.2959 43.5006 45.4416 42.091 45.4416H41.7588C41.3063 45.4416 40.9385 45.0752 40.9385 44.6213C40.9385 44.1687 41.3049 43.801 41.7588 43.801H42.091C42.5955 43.801 43.0057 43.3922 43.0057 42.8877V37.2262C43.0057 36.3676 43.3639 35.5883 43.9764 35.0469C43.3639 34.5055 43.0057 33.7262 43.0057 32.8676ZM27.8258 43.801C28.2783 43.801 28.6461 44.1687 28.6461 44.6213C28.6461 45.0752 28.2797 45.4416 27.8258 45.4416H27.4936C26.0854 45.4416 24.9383 44.2959 24.9383 42.8877V37.2262C24.9383 36.6998 24.6635 36.276 24.1836 36.06L23.5916 35.7947C23.4475 35.7299 23.3251 35.6249 23.2393 35.4922C23.1535 35.3595 23.1078 35.2049 23.1078 35.0469C23.1078 34.8889 23.1535 34.7342 23.2393 34.6015C23.3251 34.4688 23.4475 34.3638 23.5916 34.299L24.1822 34.0338C24.6621 33.8178 24.9369 33.3939 24.9369 32.8676V27.2061C24.9369 25.7979 26.0826 24.6521 27.4922 24.6521H27.8244C28.277 24.6521 28.6447 25.0186 28.6447 25.4725C28.6447 25.925 28.2783 26.2928 27.8244 26.2928H27.4922C26.9891 26.2928 26.5775 26.7016 26.5775 27.2061V32.8676C26.5775 33.7262 26.2193 34.5055 25.6068 35.0469C26.2207 35.5883 26.5775 36.3676 26.5775 37.2262V42.8877C26.5775 43.3922 26.9877 43.801 27.4922 43.801H27.8258Z" fill="#FF845E"></path></svg>