<svg xmlns="http://www.w3.org/2000/svg" width="80" height="80" viewBox="0 0 80 80" fill="none">
    <path
        d="M10 50C4.48667 50 0 45.5133 0 40C0 34.4867 4.48667 30 10 30C15.5133 30 20 34.4867 20 40C20 45.5133 15.5133 50 10 50Z"
        fill="currentColor"></path>
    <path
        d="M68.3333 16.6667C63.7367 16.6667 60 12.93 60 8.33333C60 3.73667 63.7367 0 68.3333 0C72.93 0 76.6667 3.73667 76.6667 8.33333C76.6667 12.93 72.93 16.6667 68.3333 16.6667ZM68.3333 3.33333C65.5767 3.33333 63.3333 5.57667 63.3333 8.33333C63.3333 11.09 65.5767 13.3333 68.3333 13.3333C71.09 13.3333 73.3333 11.09 73.3333 8.33333C73.3333 5.57667 71.09 3.33333 68.3333 3.33333Z"
        fill="currentColor"></path>
    <path
        d="M78.3333 20C77.8911 20.0001 77.4669 19.8251 77.1533 19.5133L72.1533 14.5133C71.8497 14.199 71.6817 13.778 71.6855 13.341C71.6893 12.904 71.8646 12.486 72.1736 12.177C72.4826 11.868 72.9007 11.6927 73.3377 11.6889C73.7747 11.6851 74.1957 11.8531 74.51 12.1567L79.51 17.1567C79.7423 17.3897 79.9005 17.6864 79.9645 18.0092C80.0285 18.332 79.9955 18.6666 79.8697 18.9706C79.7438 19.2747 79.5308 19.5348 79.2574 19.7179C78.9839 19.9011 78.6624 19.9993 78.3333 20ZM48.3333 20H5C2.24333 20 0 17.7567 0 15V5C0 2.24333 2.24333 0 5 0H48.3333C51.09 0 53.3333 2.24333 53.3333 5V15C53.3333 17.7567 51.09 20 48.3333 20ZM5 3.33333C4.08333 3.33333 3.33333 4.08333 3.33333 5V15C3.33333 15.9167 4.08333 16.6667 5 16.6667H48.3333C49.25 16.6667 50 15.9167 50 15V5C50 4.08333 49.25 3.33333 48.3333 3.33333H5ZM10 80C4.48667 80 0 75.5133 0 70C0 64.4867 4.48667 60 10 60C15.5133 60 20 64.4867 20 70C20 75.5133 15.5133 80 10 80ZM10 63.3333C6.32333 63.3333 3.33333 66.3233 3.33333 70C3.33333 73.6767 6.32333 76.6667 10 76.6667C13.6767 76.6667 16.6667 73.6767 16.6667 70C16.6667 66.3233 13.6767 63.3333 10 63.3333ZM75 80H31.6667C28.91 80 26.6667 77.7567 26.6667 75V35C26.6667 32.2433 28.91 30 31.6667 30H75C77.7567 30 80 32.2433 80 35V75C80 77.7567 77.7567 80 75 80ZM31.6667 33.3333C30.75 33.3333 30 34.0833 30 35V75C30 75.9167 30.75 76.6667 31.6667 76.6667H75C75.9167 76.6667 76.6667 75.9167 76.6667 75V35C76.6667 34.0833 75.9167 33.3333 75 33.3333H31.6667Z"
        fill="currentColor"></path>

</svg>