<svg xmlns="http://www.w3.org/2000/svg" width="40" height="40" viewBox="0 0 40 40" fill="none"><path d="M25.7362 24.484L26.1049 24.1133C26.4433 23.7742 26.6346 23.3155 26.6374 22.8365C26.6382 22.5607 26.5722 22.2889 26.4449 22.0443C26.8018 21.9255 27.1118 21.6966 27.3303 21.3904C27.5487 21.0842 27.6644 20.7166 27.6606 20.3405V19.8183C27.6644 19.442 27.5487 19.0743 27.3301 18.768C27.1114 18.4617 26.8011 18.2328 26.444 18.1143C26.5874 17.838 26.6533 17.5281 26.6346 17.2174C26.6071 16.7752 26.4188 16.3584 26.1053 16.0455L25.7365 15.6752C25.4007 15.3367 24.9446 15.1448 24.4678 15.1415C24.1927 15.1407 23.9216 15.2072 23.6781 15.3352C23.562 14.978 23.3352 14.667 23.0306 14.4473C22.7259 14.2277 22.3593 14.1107 21.9837 14.1133H21.4628C21.0871 14.1106 20.7203 14.2275 20.4155 14.4472C20.1108 14.6669 19.8839 14.9779 19.7678 15.3352C19.5243 15.2071 19.2532 15.1406 18.9781 15.1415C18.5014 15.145 18.0454 15.3366 17.7093 15.6746L17.3406 16.0455C17.0735 16.3108 16.8969 16.6535 16.8361 17.025C16.7753 17.3965 16.8333 17.7777 17.0018 18.1143C16.6447 18.2328 16.3344 18.4617 16.1158 18.768C15.8971 19.0743 15.7814 19.442 15.7853 19.8183V20.3402C15.7813 20.7166 15.897 21.0846 16.1157 21.391C16.3344 21.6974 16.6448 21.9264 17.0021 22.0449C16.8332 22.3812 16.7749 22.7622 16.8356 23.1336C16.8963 23.505 17.0728 23.8477 17.3399 24.1127L17.7074 24.4827C18.0439 24.8212 18.5005 25.0133 18.9778 25.0171C19.253 25.0179 19.5242 24.9514 19.7678 24.8233C19.8838 25.1807 20.1107 25.4917 20.4155 25.7115C20.7202 25.9312 21.087 26.0482 21.4628 26.0455H21.9837C22.3593 26.0482 22.7259 25.9312 23.0306 25.7115C23.3352 25.4918 23.562 25.1808 23.6781 24.8236C23.9217 24.9516 24.1929 25.018 24.4681 25.0171C24.9445 25.0136 25.4003 24.8219 25.7362 24.484ZM24.1581 23.6361L23.8306 23.3077C23.7889 23.2686 23.7358 23.2438 23.6791 23.2369C23.6223 23.2299 23.5649 23.2411 23.5149 23.269C23.2583 23.4147 22.9848 23.5287 22.7006 23.6083C22.6447 23.6229 22.5953 23.6555 22.5598 23.701C22.5243 23.7466 22.5048 23.8025 22.5043 23.8602V24.3236C22.4967 24.4543 22.4376 24.5766 22.3401 24.6638C22.2425 24.7511 22.1144 24.7962 21.9837 24.7893H21.4628C21.332 24.7963 21.2038 24.7512 21.1061 24.664C21.0084 24.5767 20.9492 24.4544 20.9415 24.3236V23.8602C20.941 23.8025 20.9215 23.7466 20.886 23.701C20.8506 23.6555 20.8011 23.6229 20.7453 23.6083C20.4609 23.5285 20.1874 23.4145 19.9306 23.2686C19.8808 23.2401 19.8232 23.2285 19.7662 23.2356C19.7093 23.2426 19.6562 23.2679 19.6149 23.3077L19.2878 23.6358C19.247 23.6762 19.1986 23.7081 19.1453 23.7295C19.0921 23.751 19.0351 23.7616 18.9778 23.7608C18.8324 23.7587 18.6938 23.6991 18.5921 23.5952L18.2243 23.2252C18.1269 23.1375 18.0679 23.015 18.06 22.8841C18.0522 22.7532 18.0962 22.6245 18.1824 22.5258L18.5096 22.1977C18.5501 22.1563 18.5758 22.1027 18.5828 22.0452C18.5898 21.9877 18.5777 21.9295 18.5484 21.8796C18.4031 21.6218 18.2898 21.3473 18.2109 21.0621C18.1966 21.0062 18.1643 20.9566 18.119 20.921C18.0737 20.8854 18.0179 20.8656 17.9603 20.8649H17.4984C17.3676 20.8563 17.2455 20.7963 17.1588 20.6981C17.072 20.5999 17.0276 20.4713 17.0353 20.3405V19.8183C17.0276 19.6874 17.072 19.5588 17.1588 19.4605C17.2456 19.3623 17.3678 19.3024 17.4987 19.294H17.9606C18.0182 19.2932 18.074 19.2735 18.1193 19.2378C18.1646 19.2022 18.1969 19.1526 18.2112 19.0968C18.29 18.8115 18.4034 18.5368 18.5487 18.279C18.578 18.229 18.5901 18.1708 18.5831 18.1133C18.5761 18.0559 18.5504 18.0023 18.5099 17.9608L18.1831 17.6333C18.0968 17.5345 18.0528 17.4058 18.0606 17.2748C18.0683 17.1439 18.1273 17.0212 18.2246 16.9333L18.5924 16.564C18.6809 16.469 18.8024 16.4117 18.9319 16.404C19.0615 16.3962 19.189 16.4386 19.2881 16.5224C19.2881 16.5224 19.6137 16.8496 19.6149 16.8511C19.6564 16.8909 19.7096 16.9162 19.7666 16.9232C19.8236 16.9302 19.8813 16.9187 19.9312 16.8902C20.1877 16.7441 20.461 16.6299 20.7453 16.5502C20.8011 16.5356 20.8507 16.5031 20.8862 16.4576C20.9217 16.412 20.9413 16.3561 20.9418 16.2983V15.8349C20.9496 15.7042 21.0087 15.5818 21.1064 15.4946C21.2041 15.4073 21.3323 15.3623 21.4631 15.3693H21.984C22.1147 15.3624 22.2428 15.4074 22.3404 15.4947C22.4379 15.5819 22.497 15.7042 22.5046 15.8349V16.2971C22.5052 16.3551 22.5248 16.4114 22.5605 16.4572C22.5962 16.503 22.646 16.5358 22.7021 16.5505C22.9854 16.63 23.258 16.7437 23.5137 16.8893C23.5638 16.918 23.6219 16.9297 23.6793 16.9227C23.7366 16.9156 23.7901 16.8902 23.8318 16.8502L24.1584 16.5221C24.2568 16.4369 24.3846 16.3936 24.5146 16.4014C24.6445 16.4092 24.7662 16.4676 24.8537 16.564L25.2218 16.9336C25.3196 17.0213 25.3788 17.1441 25.3864 17.2752C25.3941 17.4063 25.3497 17.5352 25.2628 17.6336L24.9362 17.9608C24.8959 18.0023 24.8704 18.0558 24.8634 18.1131C24.8565 18.1704 24.8686 18.2285 24.8978 18.2783C25.0429 18.5364 25.1563 18.8111 25.2353 19.0965C25.2496 19.1524 25.2819 19.202 25.3273 19.2376C25.3726 19.2733 25.4285 19.293 25.4862 19.2936H25.9474C26.0782 19.3021 26.2004 19.362 26.2871 19.4603C26.3739 19.5585 26.4181 19.6872 26.4103 19.818V20.3399C26.4181 20.4708 26.3739 20.5994 26.2871 20.6978C26.2004 20.7961 26.0783 20.8561 25.9474 20.8646H25.4859C25.4282 20.8653 25.3724 20.885 25.3271 20.9207C25.2818 20.9563 25.2495 21.0059 25.2353 21.0618C25.1562 21.347 25.0429 21.6216 24.8978 21.8796C24.8686 21.9294 24.8565 21.9875 24.8634 22.0448C24.8704 22.1022 24.8959 22.1556 24.9362 22.1971L25.2624 22.5252C25.3494 22.6236 25.3939 22.7524 25.3862 22.8835C25.3786 23.0146 25.3193 23.1373 25.2215 23.2249L24.8534 23.5949C24.7651 23.69 24.6435 23.7474 24.5139 23.755C24.3843 23.7625 24.2568 23.7197 24.1581 23.6355V23.6361Z" fill="currentcolor"></path><path d="M21.7227 22.2752C22.9308 22.2752 23.9102 21.291 23.9102 20.077C23.9102 18.863 22.9308 17.8789 21.7227 17.8789C20.5145 17.8789 19.5352 18.863 19.5352 20.077C19.5352 21.291 20.5145 22.2752 21.7227 22.2752Z" fill="currentcolor"></path><path d="M9.99994 20.0785C9.99519 19.0906 9.69791 18.1263 9.14562 17.3072C8.59333 16.4882 7.81079 15.851 6.89675 15.4763C5.98271 15.1015 4.97814 15.0059 4.00983 15.2016C3.04151 15.3972 2.15285 15.8753 1.45599 16.5755C0.759134 17.2757 0.285314 18.1667 0.0943305 19.1359C-0.0966534 20.1052 0.00375841 21.1093 0.382893 22.0215C0.762028 22.9337 1.40289 23.7132 2.22461 24.2615C3.04633 24.8099 4.01206 25.1025 4.99994 25.1026C6.32875 25.0978 7.60142 24.5662 8.53877 23.6244C9.47612 22.6825 10.0016 21.4073 9.99994 20.0785ZM4.31651 22.3335V22.2029H4.21244C4.04586 22.2029 3.88609 22.1367 3.76829 22.0189C3.6505 21.9011 3.58432 21.7413 3.58432 21.5747C3.58432 21.4082 3.6505 21.2484 3.76829 21.1306C3.88609 21.0128 4.04586 20.9466 4.21244 20.9466H5.16963C5.30401 20.9466 5.37213 20.9029 5.37213 20.8166C5.37213 20.7866 5.37213 20.706 5.16963 20.706H4.82807C4.64094 20.7146 4.45401 20.6851 4.27856 20.6195C4.10312 20.5538 3.94279 20.4533 3.80726 20.324C3.67172 20.1947 3.56379 20.0393 3.48997 19.8671C3.41616 19.6949 3.37798 19.5096 3.37776 19.3222C3.37537 18.9663 3.51441 18.6239 3.76432 18.3704C3.93381 18.2015 4.14421 18.0795 4.37494 18.0163V17.8238C4.37494 17.658 4.44079 17.4991 4.558 17.3819C4.67521 17.2647 4.83418 17.1988 4.99994 17.1988C5.1657 17.1988 5.32468 17.2647 5.44189 17.3819C5.5591 17.4991 5.62494 17.658 5.62494 17.8238V17.9544H5.78526C5.95185 17.9544 6.11161 18.0206 6.22941 18.1384C6.3472 18.2562 6.41338 18.416 6.41338 18.5826C6.41338 18.7491 6.3472 18.9089 6.22941 19.0267C6.11161 19.1445 5.95185 19.2107 5.78526 19.2107H4.82807C4.62776 19.2107 4.62776 19.2919 4.62776 19.3222C4.62776 19.3538 4.62776 19.4501 4.82807 19.4501H5.16963C5.36598 19.4434 5.56163 19.4768 5.7447 19.5481C5.92777 19.6194 6.09446 19.7271 6.23463 19.8647C6.3587 19.9901 6.45679 20.1387 6.52329 20.302C6.58979 20.4654 6.62338 20.6403 6.62213 20.8166C6.62195 21.1254 6.51765 21.425 6.3261 21.6672C6.13454 21.9093 5.86693 22.0798 5.56651 22.151V22.3335C5.56651 22.4993 5.50066 22.6582 5.38345 22.7754C5.26624 22.8926 5.10727 22.9585 4.94151 22.9585C4.77575 22.9585 4.61678 22.8926 4.49957 22.7754C4.38235 22.6582 4.31651 22.4993 4.31651 22.3335ZM16.6021 9.68756H21.1478V12.2282C21.1478 12.3939 21.2136 12.5529 21.3308 12.6701C21.448 12.7873 21.607 12.8532 21.7728 12.8532C21.9385 12.8532 22.0975 12.7873 22.2147 12.6701C22.3319 12.5529 22.3978 12.3939 22.3978 12.2282V9.61068C22.3982 9.29882 22.2749 8.99953 22.0549 8.77849C21.8349 8.55744 21.5362 8.4327 21.2243 8.43162H16.6024C16.4359 8.43162 16.2761 8.4978 16.1583 8.61559C16.0405 8.73339 15.9743 8.89316 15.9743 9.05975C15.9743 9.22633 16.0405 9.3861 16.1583 9.5039C16.2761 9.62169 16.4359 9.68787 16.6024 9.68787L16.6021 9.68756ZM21.7728 27.3007C21.6905 27.3009 21.609 27.3173 21.5331 27.349C21.4572 27.3807 21.3882 27.427 21.3302 27.4853C21.2721 27.5436 21.2262 27.6128 21.1949 27.6889C21.1636 27.765 21.1476 27.8465 21.1478 27.9288V30.441H16.6021C16.438 30.4447 16.2818 30.5124 16.1671 30.6298C16.0523 30.7472 15.988 30.9048 15.988 31.069C15.988 31.2331 16.0523 31.3908 16.1671 31.5081C16.2818 31.6255 16.438 31.6933 16.6021 31.6969H21.2243C21.5345 31.6975 21.8322 31.5751 22.0522 31.3564C22.2722 31.1378 22.3964 30.8408 22.3978 30.5307V27.9288C22.398 27.8465 22.382 27.765 22.3507 27.6889C22.3194 27.6128 22.2734 27.5436 22.2153 27.4853C22.1573 27.427 22.0884 27.3807 22.0124 27.349C21.9365 27.3173 21.855 27.3009 21.7728 27.3007ZM13.7499 20.7063C13.913 20.7012 14.0677 20.6328 14.1812 20.5156C14.2948 20.3984 14.3583 20.2417 14.3583 20.0785C14.3583 19.9153 14.2948 19.7586 14.1812 19.6414C14.0677 19.5242 13.913 19.4558 13.7499 19.4507H11.8749C11.7108 19.4543 11.5547 19.5221 11.4399 19.6395C11.3251 19.7568 11.2608 19.9145 11.2608 20.0787C11.2608 20.2428 11.3251 20.4005 11.4399 20.5178C11.5547 20.6352 11.7108 20.703 11.8749 20.7066L13.7499 20.7063ZM39.7531 19.5782L36.4618 17.0663C36.369 16.9958 36.2583 16.9526 36.1422 16.9417C36.0261 16.9308 35.9092 16.9526 35.8049 17.0046C35.7005 17.0566 35.6128 17.1368 35.5516 17.236C35.4904 17.3353 35.4583 17.4497 35.4587 17.5663V18.3341H30.6249C30.4608 18.3378 30.3047 18.4056 30.1899 18.5229C30.0751 18.6403 30.0108 18.7979 30.0108 18.9621C30.0108 19.1263 30.0751 19.2839 30.1899 19.4013C30.3047 19.5186 30.4608 19.5864 30.6249 19.5901H36.0837C36.166 19.5899 36.2474 19.5734 36.3234 19.5418C36.3993 19.5101 36.4682 19.4638 36.5263 19.4054C36.5843 19.3471 36.6303 19.2779 36.6616 19.2018C36.6929 19.1257 36.7089 19.0442 36.7087 18.9619V18.8322L38.3415 20.0785L36.7087 21.3247V21.1951C36.7089 21.1128 36.6929 21.0313 36.6616 20.9552C36.6303 20.8791 36.5843 20.8099 36.5263 20.7516C36.4682 20.6932 36.3993 20.6469 36.3234 20.6152C36.2474 20.5835 36.166 20.5671 36.0837 20.5669H33.0259C32.8593 20.5669 32.6995 20.6331 32.5817 20.7509C32.4639 20.8687 32.3978 21.0285 32.3978 21.1951C32.3978 21.3616 32.4639 21.5214 32.5817 21.6392C32.6995 21.757 32.8593 21.8232 33.0259 21.8232H35.4587V22.5907C35.4586 22.7074 35.4911 22.8219 35.5524 22.9212C35.6137 23.0206 35.7015 23.1009 35.8059 23.1532C35.9105 23.2038 36.027 23.2247 36.1427 23.2137C36.2585 23.2027 36.3689 23.1601 36.4621 23.0907L39.7531 20.5788C39.8299 20.52 39.8921 20.4443 39.9349 20.3575C39.9777 20.2708 40 20.1754 40 20.0787C40 19.9819 39.9777 19.8865 39.9349 19.7998C39.8921 19.713 39.8299 19.637 39.7531 19.5782ZM24.9999 12.0538H30.4587C30.541 12.0536 30.6224 12.0372 30.6984 12.0055C30.7743 11.9738 30.8432 11.9275 30.9013 11.8692C30.9593 11.8109 31.0053 11.7417 31.0366 11.6656C31.0679 11.5895 31.0839 11.508 31.0837 11.4257V11.296L32.7165 12.5422L31.0837 13.7885V13.6588C31.0839 13.5765 31.0679 13.495 31.0366 13.4189C31.0053 13.3428 30.9593 13.2736 30.9013 13.2153C30.8432 13.157 30.7743 13.1107 30.6984 13.079C30.6224 13.0473 30.541 13.0309 30.4587 13.0307H27.4009C27.2343 13.0307 27.0745 13.0969 26.9567 13.2147C26.8389 13.3325 26.7728 13.4922 26.7728 13.6588C26.7728 13.8254 26.8389 13.9852 26.9567 14.103C27.0745 14.2208 27.2343 14.2869 27.4009 14.2869H29.8337V15.0544C29.8333 15.171 29.8654 15.2854 29.9266 15.3847C29.9878 15.484 30.0755 15.5641 30.1799 15.6162C30.2842 15.6682 30.4011 15.69 30.5172 15.6791C30.6333 15.6681 30.744 15.625 30.8368 15.5544L34.1281 13.0426C34.2049 12.9837 34.2671 12.908 34.3099 12.8213C34.3527 12.7346 34.375 12.6391 34.375 12.5424C34.375 12.4457 34.3527 12.3502 34.3099 12.2635C34.2671 12.1768 34.2049 12.1011 34.1281 12.0422L30.8368 9.53006C30.7443 9.45931 30.6338 9.41595 30.5178 9.40491C30.4018 9.39386 30.2851 9.41556 30.1809 9.46756C30.0766 9.51988 29.9888 9.60021 29.9276 9.69956C29.8663 9.79891 29.8339 9.91334 29.834 10.0301V10.7979H24.9999C24.8334 10.7979 24.6736 10.864 24.5558 10.9818C24.438 11.0996 24.3718 11.2594 24.3718 11.426C24.3718 11.5926 24.438 11.7524 24.5558 11.8701C24.6736 11.9879 24.8334 12.0541 24.9999 12.0541V12.0538ZM34.1281 27.1147L30.8368 24.6026C30.7443 24.5318 30.6338 24.4885 30.5178 24.4774C30.4018 24.4664 30.2851 24.4881 30.1809 24.5401C30.0766 24.5924 29.9888 24.6727 29.9276 24.7721C29.8663 24.8714 29.8339 24.9858 29.834 25.1026V25.8704H27.4009C27.2368 25.874 27.0806 25.9418 26.9658 26.0592C26.851 26.1765 26.7868 26.3342 26.7868 26.4983C26.7868 26.6625 26.851 26.8201 26.9658 26.9375C27.0806 27.0549 27.2368 27.1226 27.4009 27.1263H30.4587C30.541 27.1261 30.6224 27.1097 30.6984 27.078C30.7743 27.0463 30.8432 27 30.9013 26.9417C30.9593 26.8834 31.0053 26.8142 31.0366 26.7381C31.0679 26.662 31.0839 26.5805 31.0837 26.4982V26.3685L32.7165 27.6147L31.0837 28.861V28.7313C31.0839 28.649 31.0679 28.5675 31.0366 28.4914C31.0053 28.4153 30.9593 28.3461 30.9013 28.2878C30.8432 28.2295 30.7743 28.1832 30.6984 28.1515C30.6224 28.1198 30.541 28.1034 30.4587 28.1032H24.9999C24.8334 28.1032 24.6736 28.1694 24.5558 28.2872C24.438 28.405 24.3718 28.5647 24.3718 28.7313C24.3718 28.8979 24.438 29.0577 24.5558 29.1755C24.6736 29.2933 24.8334 29.3594 24.9999 29.3594H29.8337V30.1269C29.8336 30.2437 29.8661 30.3581 29.9274 30.4575C29.9887 30.5568 30.0765 30.6372 30.1809 30.6894C30.2856 30.7397 30.4021 30.7605 30.5177 30.7495C30.6334 30.7385 30.7438 30.6961 30.8371 30.6269L34.1281 28.1151C34.2049 28.0562 34.2671 27.9805 34.3099 27.8938C34.3527 27.8071 34.375 27.7116 34.375 27.6149C34.375 27.5182 34.3527 27.4227 34.3099 27.336C34.2671 27.2493 34.2049 27.1736 34.1281 27.1147ZM9.62213 3.75006C8.62746 3.74529 7.65375 4.0359 6.82439 4.58504C5.99502 5.13419 5.34733 5.91717 4.96338 6.83476C4.57943 7.75236 4.4765 8.76328 4.66763 9.73943C4.85876 10.7156 5.33534 11.613 6.037 12.3181C6.73866 13.0231 7.63382 13.504 8.60904 13.6998C9.58426 13.8956 10.5957 13.7975 11.5151 13.418C12.4345 13.0385 13.2206 12.3945 13.7737 11.5678C14.3268 10.7411 14.6221 9.76881 14.6221 8.77412C14.6238 7.44531 14.0983 6.1701 13.161 5.22824C12.2236 4.28637 10.9509 3.75477 9.62213 3.75006ZM10.4515 10.7569V11.0288C10.4515 11.1946 10.3857 11.3535 10.2684 11.4707C10.1512 11.588 9.99227 11.6538 9.82651 11.6538C9.66075 11.6538 9.50178 11.588 9.38457 11.4707C9.26736 11.3535 9.20151 11.1946 9.20151 11.0288V10.8985H8.83432C8.66773 10.8985 8.50796 10.8323 8.39017 10.7145C8.27237 10.5967 8.20619 10.437 8.20619 10.2704C8.20619 10.1038 8.27237 9.94402 8.39017 9.82622C8.50796 9.70842 8.66773 9.64225 8.83432 9.64225H9.79151C9.92588 9.64225 9.99401 9.5985 9.99401 9.51225C9.99401 9.48225 9.99401 9.40162 9.79151 9.40162H9.44994C9.26279 9.41023 9.07583 9.38083 8.90034 9.3152C8.72486 9.24957 8.5645 9.14906 8.42893 9.01974C8.29336 8.89042 8.1854 8.73497 8.11156 8.56278C8.03773 8.39059 7.99954 8.20522 7.99932 8.01787C7.99702 7.66184 8.13617 7.31947 8.38619 7.066C8.60663 6.84741 8.89318 6.70787 9.20119 6.66912V6.51912C9.20119 6.35336 9.26704 6.19439 9.38425 6.07718C9.50146 5.95997 9.66043 5.89412 9.82619 5.89412C9.99195 5.89412 10.1509 5.95997 10.2681 6.07718C10.3853 6.19439 10.4512 6.35336 10.4512 6.51912V6.65443C10.6131 6.66589 10.7643 6.73974 10.8728 6.86044C10.9814 6.98113 11.0389 7.13925 11.0331 7.30148C11.0274 7.46371 10.959 7.61739 10.8422 7.73015C10.7254 7.84291 10.5695 7.90595 10.4071 7.90599H9.44994C9.24932 7.90599 9.24932 7.98724 9.24932 8.01787C9.24932 8.12506 9.36494 8.14568 9.44994 8.14568H9.79151C9.98786 8.13909 10.1835 8.17244 10.3666 8.24372C10.5496 8.31501 10.7163 8.42273 10.8565 8.56037C10.9806 8.68572 11.0787 8.83433 11.1452 8.99767C11.2117 9.16102 11.2453 9.33589 11.244 9.51225C11.2437 9.77358 11.1689 10.0294 11.0285 10.2498C10.8881 10.4703 10.6882 10.6461 10.4515 10.7569ZM9.62213 26.2016C8.62747 26.1969 7.65377 26.4875 6.82442 27.0366C5.99506 27.5857 5.34737 28.3687 4.96341 29.2863C4.57945 30.2038 4.4765 31.2147 4.6676 32.1909C4.85871 33.167 5.33526 34.0645 6.03689 34.7695C6.73852 35.4746 7.63365 35.9555 8.60885 36.1513C9.58405 36.3472 10.5954 36.2492 11.5149 35.8697C12.4343 35.4902 13.2204 34.8463 13.7736 34.0196C14.3267 33.1929 14.6221 32.2207 14.6221 31.226C14.6239 29.8971 14.0984 28.6218 13.1611 27.6799C12.2237 26.738 10.951 26.2063 9.62213 26.2016ZM10.2471 33.2804V33.4807C10.2471 33.6464 10.1813 33.8054 10.0641 33.9226C9.94686 34.0398 9.78789 34.1057 9.62213 34.1057C9.45637 34.1057 9.2974 34.0398 9.18019 33.9226C9.06298 33.8054 8.99713 33.6464 8.99713 33.4807V33.3501H8.83463C8.66804 33.3501 8.50828 33.2839 8.39048 33.1661C8.27268 33.0483 8.20651 32.8885 8.20651 32.7219C8.20651 32.5553 8.27268 32.3956 8.39048 32.2778C8.50828 32.16 8.66804 32.0938 8.83463 32.0938H9.79182C9.92619 32.0938 9.99432 32.0501 9.99432 31.9641C9.99432 31.9338 9.99432 31.8532 9.79182 31.8532H9.45026C9.26313 31.8618 9.07619 31.8324 8.90073 31.7668C8.72527 31.7012 8.56492 31.6007 8.42936 31.4714C8.29379 31.3421 8.18582 31.1867 8.11197 31.0146C8.03811 30.8424 7.9999 30.6571 7.99963 30.4697C7.99725 30.1136 8.13641 29.7711 8.38651 29.5176C8.55604 29.3488 8.76643 29.2269 8.99713 29.1638V28.971C8.99713 28.8052 9.06298 28.6463 9.18019 28.5291C9.2974 28.4118 9.45637 28.346 9.62213 28.346C9.78789 28.346 9.94686 28.4118 10.0641 28.5291C10.1813 28.6463 10.2471 28.8052 10.2471 28.971V29.1016H10.4074C10.574 29.1016 10.7338 29.1678 10.8516 29.2856C10.9694 29.4034 11.0356 29.5632 11.0356 29.7297C11.0356 29.8963 10.9694 30.0561 10.8516 30.1739C10.7338 30.2917 10.574 30.3579 10.4074 30.3579H9.44994C9.24932 30.3579 9.24932 30.4391 9.24932 30.4697C9.24932 30.5785 9.36651 30.5972 9.44994 30.5972H9.79151C9.98788 30.5907 10.1835 30.6241 10.3666 30.6954C10.5497 30.7668 10.7163 30.8746 10.8565 31.0122C10.9806 31.1376 11.0787 31.2862 11.1452 31.4495C11.2117 31.6129 11.2453 31.7878 11.244 31.9641C11.2434 32.2621 11.1457 32.5517 10.9658 32.7892C10.7858 33.0267 10.5338 33.1991 10.2471 33.2804Z" fill="currentcolor"></path></svg>