<svg xmlns="http://www.w3.org/2000/svg" width="50" height="50" viewBox="0 0 80 80" fill="none">
    <path
        d="M64.65 11.675C58.65 6.425 50.95 3.05 42.5 2.5V25.1C44.775 25.475 46.875 26.375 48.675 27.65L64.65 11.675ZM37.5 25.1V2.5C29.05 3.05 21.35 6.425 15.35 11.675L31.325 27.65C33.1634 26.3428 35.2749 25.4708 37.5 25.1ZM25 39.875C25 36.65 26.05 33.65 27.775 31.2L11.8 15.225C6.025 21.825 2.5 30.425 2.5 39.875C2.5 41.25 3.625 42.375 5 42.375H22.5C23.875 42.375 25 41.25 25 39.875ZM68.2 15.225L52.225 31.2C53.975 33.65 55 36.65 55 39.875C55 41.25 56.125 42.375 57.5 42.375H75C76.375 42.375 77.5 41.25 77.5 39.875C77.5 30.425 73.975 21.825 68.2 15.225ZM31.075 43.025V47.3C31.075 52.225 35.075 56.225 40 56.225C44.925 56.225 48.925 52.225 48.925 47.3V43.025C48.925 39.275 45.875 36.25 42.15 36.25H37.875C34.125 36.25 31.1 39.3 31.1 43.025H31.075Z"
        fill="currentColor"></path>
    <path
        d="M52.975 52.3242C50.95 57.5492 45.9 61.2492 40 61.2492C34.1 61.2492 29.025 57.5242 27.025 52.3242C22.75 55.9992 20 61.4242 20 67.4992V69.9992C20 74.1242 23.375 77.4992 27.5 77.4992H30V72.4992C30 71.1242 31.125 69.9992 32.5 69.9992C33.875 69.9992 35 71.1242 35 72.4992V77.4992H45V72.4992C45 71.1242 46.125 69.9992 47.5 69.9992C48.875 69.9992 50 71.1242 50 72.4992V77.4992H52.5C56.625 77.4992 60 74.1242 60 69.9992V67.4992C60 61.4242 57.275 55.9992 52.975 52.3242Z"
        fill="currentColor"></path>
</svg>