<svg xmlns="http://www.w3.org/2000/svg" width="80" height="84" viewBox="0 0 80 84" fill="none">
    <path
        d="M24.4964 43.2483L22.4164 46.0938C22.2402 46.3344 22.1559 46.6302 22.1788 46.9276C22.2017 47.225 22.3304 47.5044 22.5414 47.7152L26.4995 51.6734C26.7105 51.8843 26.9898 52.0128 27.2872 52.0357C27.5846 52.0586 27.8803 51.9745 28.1211 51.7984L30.967 49.7188C32.362 50.5344 33.8617 51.1561 35.4247 51.5666L35.9648 55.0477C36.011 55.3424 36.1609 55.611 36.3875 55.805C36.6141 55.9991 36.9026 56.1058 37.2009 56.1059H42.7981C43.0965 56.1059 43.385 55.9993 43.6117 55.8052C43.8383 55.6111 43.9881 55.3425 44.0341 55.0477L44.5744 51.5673C46.1377 51.1567 47.6376 50.5348 49.0328 49.7188L51.8778 51.798C52.1186 51.974 52.4143 52.0582 52.7117 52.0352C53.0091 52.0123 53.2884 51.8838 53.4994 51.673L57.4573 47.7142C57.6684 47.5034 57.7971 47.2241 57.82 46.9267C57.8429 46.6292 57.7586 46.3335 57.5823 46.0928L55.5027 43.2475C56.3189 41.8529 56.9408 40.3534 57.3511 38.7905L60.8322 38.2495C61.1269 38.2036 61.3954 38.0539 61.5894 37.8274C61.7833 37.6008 61.8899 37.3124 61.8898 37.0142V31.4164C61.8901 31.1181 61.7836 30.8296 61.5896 30.6031C61.3956 30.3765 61.1269 30.2268 60.8322 30.1811L57.3511 29.6394C56.9406 28.0767 56.3192 26.5773 55.5041 25.1823L57.5822 22.3367C57.7585 22.0961 57.8428 21.8002 57.8199 21.5028C57.7969 21.2054 57.6683 20.926 57.4572 20.7152L53.4995 16.7564C53.2886 16.5455 53.0092 16.417 52.7119 16.3941C52.4145 16.3712 52.1187 16.4554 51.878 16.6314L49.033 18.7106C47.6375 17.8954 46.1376 17.2738 44.5745 16.8628L44.0342 13.3819C43.9883 13.0871 43.8385 12.8184 43.6119 12.6244C43.3852 12.4304 43.0966 12.3239 42.7983 12.3241H37.2009C36.9026 12.3241 36.6141 12.4307 36.3875 12.6246C36.1609 12.8186 36.011 13.0872 35.9648 13.3819L35.4247 16.8628C33.8618 17.2736 32.3622 17.8953 30.967 18.7106L28.1213 16.6319C27.8805 16.4558 27.5847 16.3717 27.2874 16.3946C26.99 16.4175 26.7106 16.546 26.4997 16.7569L22.5417 20.7152C22.3307 20.926 22.202 21.2054 22.1791 21.5028C22.1562 21.8002 22.2405 22.096 22.4167 22.3367L24.4967 25.1823C23.6805 26.5769 23.0586 28.0765 22.6483 29.6394L19.1672 30.1811C18.8724 30.2268 18.6038 30.3765 18.4098 30.6031C18.2158 30.8296 18.1093 31.1181 18.1095 31.4164V37.0142C18.1095 37.3124 18.2161 37.6008 18.41 37.8274C18.604 38.0539 18.8725 38.2036 19.1672 38.2495L22.6483 38.7905C23.0586 40.3536 23.6805 41.8534 24.4967 43.2483H24.4964ZM39.9995 5.5C55.4058 5.5 67.9403 18.0342 67.9403 33.44C67.9323 38.3676 66.6252 43.206 64.1508 47.4673C61.6764 51.7286 58.1222 55.2622 53.8466 57.7117C52.9329 58.2183 52.1347 58.9096 51.5028 59.7415C50.8709 60.5735 50.419 61.5278 50.1761 62.5439H29.8231C29.5805 61.5277 29.1288 60.5732 28.4968 59.7412C27.8649 58.9093 27.0665 58.2181 26.1527 57.7117C21.8771 55.2621 18.3229 51.7285 15.8486 47.4672C13.3742 43.2059 12.067 38.3676 12.0589 33.44C12.0588 18.0337 24.5933 5.5 39.9995 5.5ZM39.9995 80.5C38.3097 80.4914 36.6612 79.9768 35.2665 79.0227C33.8717 78.0686 32.7947 76.7187 32.1742 75.1469H47.8247C47.2043 76.7187 46.1273 78.0687 44.7326 79.0228C43.3379 79.9769 41.6894 80.4914 39.9995 80.5ZM48.2641 72.6467H31.7358C31.2869 72.6466 30.8564 72.4683 30.5389 72.151C30.2213 71.8337 30.0426 71.4034 30.042 70.9545V70.2566H49.9578V70.9545C49.9571 71.4034 49.7783 71.8336 49.4608 72.1508C49.1433 72.468 48.7129 72.6464 48.2641 72.6467ZM49.9578 65.0441V67.7564H30.042V65.0434L49.9578 65.0441ZM24.9122 59.8813C20.2476 57.2204 16.3701 53.3727 13.6735 48.7286C10.9769 44.0846 9.55723 38.8097 9.55859 33.4395C9.55859 16.6562 23.2155 3 39.9995 3C56.7836 3 70.4403 16.6562 70.4403 33.4395C70.4417 38.8097 69.022 44.0845 66.3254 48.7286C63.6289 53.3726 59.7514 57.2204 55.0869 59.8813C54.2794 60.3285 53.6083 60.9864 53.1452 61.7848C52.6821 62.5833 52.4443 63.4925 52.4572 64.4155V70.9539C52.4568 71.6311 52.2924 72.2981 51.9778 72.8978C51.6633 73.4975 51.2081 74.012 50.6512 74.3973C50.1273 76.8333 48.7843 79.016 46.846 80.5817C44.9078 82.1473 42.4915 83.0014 39.9998 83.0014C37.5082 83.0014 35.0919 82.1473 33.1536 80.5817C31.2154 79.016 29.8724 76.8333 29.3484 74.3973C28.7914 74.0122 28.336 73.4977 28.0214 72.8979C27.7067 72.2982 27.5422 71.6312 27.5419 70.9539V64.4155C27.5547 63.4925 27.3169 62.5833 26.8538 61.7848C26.3907 60.9864 25.7197 60.3285 24.9122 59.8813ZM38.9213 27.9281C38.728 28.1917 38.4391 28.3692 38.1166 28.4223C37.7941 28.4755 37.4635 28.4003 37.1958 28.2127C36.9281 28.0251 36.7446 27.7401 36.6845 27.4188C36.6244 27.0975 36.6926 26.7654 36.8744 26.4937L37.2997 25.8872C35.6101 26.4356 34.1272 27.4848 33.0479 28.8957C31.9686 30.3066 31.344 32.0123 31.2568 33.7866C31.1697 35.5608 31.6242 37.3196 32.56 38.8294C33.4958 40.3393 34.8687 41.5288 36.4964 42.2402C36.8001 42.3732 37.0385 42.6214 37.1591 42.9302C37.2798 43.239 37.2728 43.5831 37.1398 43.8868C37.0067 44.1905 36.7585 44.4289 36.4497 44.5495C36.1409 44.6702 35.7968 44.6632 35.4931 44.5302C33.3848 43.608 31.6097 42.062 30.4068 40.1002C29.2039 38.1384 28.6311 35.8552 28.7655 33.5579C28.8998 31.2607 29.7349 29.0598 31.1582 27.2516C32.5816 25.4434 34.5248 24.1148 36.7262 23.4447L36.2827 23.1336C36.1441 23.0412 36.0254 22.922 35.9335 22.783C35.8416 22.6441 35.7784 22.4882 35.7477 22.3245C35.7169 22.1608 35.7192 21.9925 35.7544 21.8297C35.7895 21.6669 35.8569 21.5127 35.9525 21.3763C36.0481 21.2399 36.1699 21.124 36.311 21.0353C36.452 20.9467 36.6093 20.8871 36.7737 20.8601C36.9381 20.8332 37.1062 20.8393 37.2682 20.8782C37.4301 20.9171 37.5827 20.988 37.7169 21.0867L40.7169 23.188C40.9883 23.3784 41.173 23.6688 41.2305 23.9954C41.288 24.322 41.2135 24.658 41.0234 24.9297L38.9214 27.928L38.9213 27.9281ZM51.2528 34.2152C51.2496 36.6281 50.4725 38.9765 49.0355 40.9149C47.5986 42.8534 45.5777 44.2798 43.2698 44.9844L43.7164 45.2969C43.855 45.3893 43.9737 45.5085 44.0656 45.6474C44.1575 45.7864 44.2206 45.9423 44.2514 46.106C44.2822 46.2697 44.2799 46.4379 44.2447 46.6007C44.2095 46.7636 44.1422 46.9177 44.0466 47.0541C43.951 47.1906 43.8291 47.3065 43.6881 47.3951C43.5471 47.4838 43.3897 47.5434 43.2254 47.5703C43.061 47.5973 42.8929 47.5912 42.7309 47.5523C42.5689 47.5133 42.4164 47.4425 42.2822 47.3438L39.2822 45.2416C39.1476 45.1476 39.033 45.0279 38.9447 44.8895C38.8565 44.7512 38.7964 44.5967 38.7679 44.4351C38.7394 44.2734 38.7431 44.1078 38.7788 43.9476C38.8144 43.7873 38.8813 43.6357 38.9756 43.5014L41.0777 40.5014C41.1701 40.3628 41.2893 40.2441 41.4282 40.1522C41.5672 40.0604 41.7231 39.9972 41.8868 39.9664C42.0505 39.9357 42.2187 39.9379 42.3815 39.9731C42.5443 40.0083 42.6985 40.0756 42.8349 40.1712C42.9713 40.2668 43.0873 40.3887 43.1759 40.5297C43.2646 40.6708 43.3241 40.8281 43.3511 40.9925C43.3781 41.1568 43.372 41.3249 43.333 41.4869C43.2941 41.6489 43.2232 41.8014 43.1245 41.9356L42.6994 42.5422C44.3888 41.9939 45.8716 40.9447 46.9508 39.5341C48.0301 38.1234 48.6548 36.4178 48.7422 34.6438C48.8295 32.8697 48.3752 31.1111 47.4397 29.6012C46.5042 28.0914 45.1316 26.9017 43.5042 26.1902C43.3538 26.1244 43.2178 26.0296 43.104 25.9113C42.9902 25.793 42.9008 25.6534 42.841 25.5006C42.7811 25.3477 42.752 25.1846 42.7552 25.0204C42.7584 24.8563 42.7938 24.6944 42.8596 24.544C42.9254 24.3936 43.0201 24.2576 43.1384 24.1438C43.2568 24.03 43.3963 23.9406 43.5492 23.8807C43.7021 23.8209 43.8652 23.7917 44.0293 23.7949C44.1935 23.7981 44.3554 23.8336 44.5058 23.8994C46.5116 24.7766 48.2181 26.2197 49.4164 28.0518C50.6148 29.884 51.2529 32.0259 51.2528 34.2152Z"
        fill="currentColor"></path>

</svg>