<svg xmlns="http://www.w3.org/2000/svg" width="50" height="50" viewBox="0 0 80 80" fill="none">
    <path 
        d="M11.8945 11.4448H15.3083V68.2114C15.3083 70.7095 17.3412 72.7427 19.8394 72.7427H62.5044V76.1562C62.5044 77.4472 61.4516 78.5 60.1606 78.5H11.8945C10.6036 78.5 9.55078 77.4472 9.55078 76.1562V13.7886C9.55094 12.4978 10.6037 11.4448 11.8945 11.4448ZM19.8395 3.5C18.5486 3.5 17.4958 4.55281 17.4958 5.84375V68.2114C17.4958 69.5023 18.5486 70.5552 19.8395 70.5552H68.1058C69.3967 70.5552 70.4495 69.5023 70.4495 68.2114V16.5908H61.89C59.3919 16.5908 57.3587 14.5578 57.3587 12.0595V3.5H19.8395ZM26.3945 18.3166H46.5508C46.8409 18.3166 47.1191 18.2013 47.3242 17.9962C47.5293 17.7911 47.6445 17.5129 47.6445 17.2228C47.6445 16.9327 47.5293 16.6545 47.3242 16.4494C47.1191 16.2443 46.8409 16.1291 46.5508 16.1291H26.3945C26.1045 16.1291 25.8263 16.2443 25.6211 16.4494C25.416 16.6545 25.3008 16.9327 25.3008 17.2228C25.3008 17.5129 25.416 17.7911 25.6211 17.9962C25.8263 18.2013 26.1045 18.3166 26.3945 18.3166ZM26.3945 23.59H37.8789C38.169 23.59 38.4472 23.4748 38.6523 23.2696C38.8574 23.0645 38.9727 22.7863 38.9727 22.4963C38.9727 22.2062 38.8574 21.928 38.6523 21.7229C38.4472 21.5177 38.169 21.4025 37.8789 21.4025H26.3945C26.1045 21.4025 25.8263 21.5177 25.6211 21.7229C25.416 21.928 25.3008 22.2062 25.3008 22.4963C25.3008 22.7863 25.416 23.0645 25.6211 23.2696C25.8263 23.4748 26.1045 23.59 26.3945 23.59ZM59.5461 12.0597C59.5461 13.3506 60.5989 14.4034 61.8898 14.4034H70.2463C70.1327 14.1545 69.9714 13.9253 69.763 13.7169L60.2327 4.18656C60.0242 3.97812 59.7952 3.81688 59.5462 3.70328V12.0597H59.5461ZM27.1758 48.7036C26.9687 48.704 26.7702 48.7864 26.6238 48.9329C26.4774 49.0793 26.3949 49.2778 26.3945 49.4848V59.2986C26.3945 59.7289 26.7455 60.0798 27.1758 60.0798H31.098C31.5283 60.0798 31.8792 59.7289 31.8792 59.2986V49.4848C31.8792 49.0545 31.5283 48.7036 31.098 48.7036H27.1758ZM37.0662 43.7544C36.8592 43.7548 36.6607 43.8372 36.5143 43.9837C36.3679 44.1301 36.2854 44.3285 36.285 44.5356V59.2986C36.285 59.7289 36.6359 60.0798 37.0662 60.0798H40.9884C41.4188 60.0798 41.7697 59.7289 41.7697 59.2986V44.5356C41.7697 44.1053 41.4188 43.7544 40.9884 43.7544H37.0662ZM46.9569 38.805C46.7498 38.8054 46.5513 38.8879 46.4049 39.0343C46.2585 39.1807 46.176 39.3792 46.1756 39.5863V59.2984C46.1756 59.7287 46.5266 60.0797 46.9569 60.0797H50.8791C51.3094 60.0797 51.6603 59.7287 51.6603 59.2984V39.5863C51.6603 39.1559 51.3094 38.805 50.8791 38.805H46.9569ZM56.8475 33.8558C56.6404 33.8562 56.442 33.9386 56.2955 34.0851C56.1491 34.2315 56.0667 34.43 56.0662 34.637V59.2984C56.0662 59.7287 56.4172 60.0797 56.8475 60.0797H60.7697C61.2 60.0797 61.5509 59.7287 61.5509 59.2984V34.637C61.5509 34.2067 61.2 33.8558 60.7697 33.8558H56.8475ZM50.5923 25.5409L52.285 25.1017C50.04 28.4644 46.9008 31.4716 43.0934 33.8913C38.5806 36.7594 33.1413 38.7967 27.1483 39.6214C26.8616 39.6599 26.602 39.8108 26.4265 40.0408C26.251 40.2707 26.1741 40.561 26.2127 40.8477C26.2512 41.1343 26.402 41.394 26.632 41.5694C26.862 41.7449 27.1522 41.8218 27.4389 41.7833C33.763 40.913 39.5025 38.7631 44.2642 35.7369C48.1719 33.2534 51.4291 30.1758 53.8208 26.725L53.9047 27.9981C53.9423 28.5998 54.4608 29.057 55.0625 29.0192C55.6642 28.9814 56.1214 28.4631 56.0836 27.8614L55.7806 23.2823C55.7266 22.4652 54.8758 22.1767 54.1013 22.3778L50.0456 23.4303C49.767 23.504 49.529 23.685 49.3834 23.9337C49.2379 24.1824 49.1968 24.4786 49.269 24.7576C49.3413 25.0366 49.5211 25.2756 49.769 25.4223C50.017 25.5691 50.313 25.6118 50.5923 25.5409Z"
        fill="currentColor"></path>
</svg>