<svg xmlns="http://www.w3.org/2000/svg" width="80" height="80" viewBox="0 0 80 80" fill="none"><g clip-path="url(#clip0_400_287)"><path fill-rule="evenodd" clip-rule="evenodd" d="M29.2731 28.408V9.50087C29.2731 9.30634 29.3455 9.11875 29.476 8.97454C29.6066 8.83033 29.7861 8.73978 29.9796 8.72048C36.4454 8.04409 42.0785 5.18464 46.3737 2.11719H60.5451C64.8405 5.18464 70.4734 8.04409 76.9392 8.72205C77.1323 8.74135 77.3114 8.83173 77.4417 8.97565C77.572 9.11957 77.6441 9.30675 77.6441 9.50087C77.6457 13.1893 77.6457 29.9178 77.6457 29.9178C77.6457 43.5534 63.8029 55.0097 53.4611 57.7842C50.7588 57.0595 47.8179 55.7424 44.9475 53.9489C46.0893 52.8901 46.8623 51.4348 47.0472 49.8021C49.0455 51.0348 51.115 52.0027 53.1331 52.6344C53.3466 52.7012 53.5755 52.7012 53.7891 52.6344C59.2463 50.9263 65.0785 46.761 68.8673 41.5443C71.4411 38.0005 73.0697 33.9755 73.0697 29.9137V13.7481C73.0697 13.491 72.9795 13.2421 72.8148 13.0448C72.6501 12.8474 72.4214 12.714 72.1685 12.6679C67.593 11.8342 63.2873 9.87687 59.4344 7.26464C59.2526 7.14134 59.0379 7.07543 58.8182 7.07546H48.1009C47.8812 7.07546 47.6666 7.14136 47.4847 7.26464C43.632 9.87687 39.3291 11.8342 34.7536 12.6679C34.5007 12.714 34.272 12.8474 34.1073 13.0448C33.9427 13.2421 33.8524 13.491 33.8524 13.7481V28.0789C32.3149 27.638 30.6913 27.7735 29.2731 28.408ZM36.0485 29.1766V14.6501C40.478 13.7043 44.6579 11.7895 48.4358 9.27154H58.4835C62.2614 11.7893 66.4438 13.7043 70.8736 14.6501V29.9137C70.8736 33.5301 69.382 37.0987 67.0904 40.2538C63.6568 44.9813 58.4201 48.7887 53.4611 50.4328C51.2247 49.6913 48.9316 48.5097 46.7731 47.0019C46.3175 45.5785 45.3982 44.3617 44.1928 43.5304C45.1045 41.6141 45.0896 39.2888 43.9459 37.3079C42.8036 35.3293 40.8004 34.1541 38.6813 33.9837C38.5335 32.1277 37.6104 30.3558 36.0485 29.1766ZM62.315 22.0613L50.2298 31.9489L44.7045 26.1848C44.5029 25.9747 44.2262 25.8532 43.9351 25.847C43.644 25.8408 43.3623 25.9505 43.152 26.1519C42.9419 26.3534 42.8204 26.6302 42.8142 26.9213C42.8081 27.2124 42.9177 27.494 43.1191 27.7043L49.3469 34.2013C49.5381 34.4007 49.7974 34.5208 50.0732 34.5375C50.349 34.5542 50.621 34.4663 50.8349 34.2913L63.7056 23.761C64.1746 23.3773 64.2438 22.6849 63.8601 22.2159C63.4764 21.7468 62.784 21.6775 62.315 22.0613ZM37.8987 66.7492L40.8311 71.8297C40.9065 71.9604 40.9425 72.1101 40.9349 72.2608C40.9274 72.4116 40.8765 72.5569 40.7884 72.6794C40.7003 72.8019 40.5787 72.8965 40.4382 72.9516C40.2978 73.0068 40.1444 73.0203 39.9964 72.9904L34.3009 71.8395L32.4507 77.3459C32.4027 77.4891 32.3144 77.6153 32.1963 77.7095C32.0783 77.8037 31.9356 77.8618 31.7854 77.8768C31.6351 77.8919 31.4837 77.8632 31.3493 77.7943C31.215 77.7254 31.1034 77.6191 31.028 77.4883L27.4556 71.302C28.111 70.8427 28.6794 70.2703 29.134 69.6116C31.0502 70.5233 33.3756 70.5084 35.3564 69.3647C36.4308 68.7466 37.3113 67.8407 37.8987 66.7492ZM9.34592 66.7487C9.93373 67.8404 10.8145 68.7463 11.8891 69.3647C13.8678 70.5071 16.1902 70.5233 18.1106 69.6113C18.5647 70.2702 19.1329 70.8427 19.7884 71.3017L16.217 77.4885C16.1415 77.6192 16.0299 77.7254 15.8956 77.7942C15.7613 77.8631 15.61 77.8918 15.4598 77.8768C15.3097 77.8618 15.167 77.8038 15.049 77.7097C14.9309 77.6157 14.8425 77.4896 14.7944 77.3465L12.9418 71.8395L7.24678 72.9904C7.09881 73.0204 6.94534 73.007 6.80481 72.9518C6.66428 72.8966 6.54264 72.8021 6.45452 72.6795C6.36639 72.557 6.31551 72.4116 6.30799 72.2608C6.30047 72.11 6.33662 71.9602 6.41211 71.8295L9.34592 66.7487ZM17.6433 30.7173C17.8076 30.8204 17.9913 30.8885 18.183 30.9174C18.3748 30.9462 18.5704 30.9352 18.7577 30.885C18.945 30.8348 19.1199 30.7465 19.2715 30.6257C19.4232 30.5048 19.5482 30.354 19.6389 30.1826C20.3906 28.7492 21.8932 27.7704 23.6228 27.7704C25.3522 27.7704 26.8549 28.7492 27.6065 30.1826C27.6973 30.3539 27.8224 30.5046 27.974 30.6254C28.1257 30.7462 28.3006 30.8344 28.4878 30.8846C28.6751 30.9347 28.8707 30.9458 29.0624 30.917C29.2541 30.8882 29.4378 30.8203 29.6021 30.7173C30.9698 29.8518 32.7605 29.7555 34.2584 30.6201C35.7561 31.4849 36.568 33.0839 36.5023 34.7012C36.4952 34.8949 36.5281 35.0881 36.599 35.2685C36.67 35.4489 36.7773 35.6128 36.9144 35.7499C37.0515 35.887 37.2154 35.9943 37.3958 36.0652C37.5763 36.1361 37.7694 36.169 37.9632 36.1619C39.5804 36.0962 41.1793 36.9082 42.0441 38.406C42.9089 39.9037 42.8126 41.6944 41.947 43.0621C41.8439 43.2264 41.7759 43.4101 41.747 43.6018C41.7182 43.7936 41.7292 43.9892 41.7794 44.1765C41.8296 44.3638 41.9178 44.5387 42.0387 44.6903C42.1595 44.842 42.3104 44.967 42.4818 45.0577C43.9152 45.8094 44.894 47.312 44.894 49.0416C44.894 50.771 43.9152 52.2737 42.4816 53.0253C42.3103 53.116 42.1595 53.2411 42.0387 53.3927C41.9179 53.5444 41.8296 53.7193 41.7794 53.9066C41.7293 54.0939 41.7183 54.2895 41.7471 54.4812C41.7759 54.6729 41.844 54.8566 41.947 55.0209C42.8126 56.3886 42.9089 58.1793 42.0441 59.6772C41.1793 61.1749 39.5804 61.9868 37.9632 61.9211C37.7694 61.9139 37.5762 61.9468 37.3958 62.0177C37.2153 62.0886 37.0514 62.1959 36.9142 62.333C36.7771 62.4702 36.6698 62.6341 36.5989 62.8146C36.528 62.995 36.4951 63.1882 36.5023 63.382C36.568 64.9992 35.7561 66.5981 34.2584 67.4629C32.7605 68.3277 30.9698 68.2314 29.6022 67.3658C29.438 67.2627 29.2543 67.1947 29.0625 67.1658C28.8708 67.137 28.6751 67.148 28.4879 67.1982C28.3006 67.2484 28.1256 67.3366 27.974 67.4575C27.8224 67.5783 27.6973 67.7292 27.6066 67.9006C26.8549 69.3338 25.3522 70.3128 23.6228 70.3128C21.8932 70.3128 20.3906 69.3338 19.6389 67.9004C19.5482 67.729 19.4231 67.5782 19.2715 67.4574C19.1199 67.3365 18.945 67.2483 18.7577 67.1981C18.5704 67.1479 18.3747 67.1369 18.183 67.1658C17.9913 67.1946 17.8076 67.2627 17.6433 67.3658C16.2756 68.2314 14.4849 68.3277 12.9872 67.4629C11.4894 66.5981 10.6774 64.9992 10.7432 63.382C10.7503 63.1882 10.7174 62.9951 10.6465 62.8147C10.5755 62.6342 10.4682 62.4703 10.3311 62.3333C10.194 62.1962 10.0301 62.0888 9.84969 62.0179C9.66925 61.947 9.47613 61.914 9.28239 61.9211C7.66513 61.9868 6.06607 61.1749 5.20129 59.6772C4.33666 58.1793 4.43297 56.3886 5.29854 55.021C5.40161 54.8568 5.4697 54.6731 5.49855 54.4813C5.52739 54.2896 5.51638 54.094 5.46619 53.9067C5.416 53.7194 5.32772 53.5444 5.20687 53.3928C5.08601 53.2412 4.93518 53.1161 4.7638 53.0254C3.33039 52.2737 2.35156 50.771 2.35156 49.0416C2.35156 47.312 3.33039 45.8094 4.7638 45.0577C4.93511 44.967 5.08588 44.8419 5.20668 44.6902C5.32748 44.5386 5.41573 44.3637 5.46591 44.1764C5.51609 43.9892 5.52712 43.7936 5.49833 43.6018C5.46953 43.4101 5.40152 43.2264 5.29854 43.0621C4.43297 41.6944 4.33666 39.9037 5.20129 38.406C6.06607 36.9082 7.66513 36.0962 9.28239 36.1621C9.47612 36.1691 9.66924 36.1362 9.84967 36.0653C10.0301 35.9944 10.194 35.887 10.3311 35.7499C10.4681 35.6128 10.5755 35.4489 10.6464 35.2685C10.7173 35.088 10.7502 34.8949 10.7431 34.7012C10.6774 33.0839 11.4894 31.4849 12.9872 30.6201C14.4849 29.7555 16.2756 29.8518 17.6433 30.7173ZM23.6228 63.6496C31.6665 63.6496 38.2308 57.0888 38.2308 49.0416C38.2308 40.9977 31.6665 34.4334 23.6228 34.4334C15.5756 34.4334 9.01462 40.9977 9.01462 49.0416C9.01462 57.0888 15.5756 63.6496 23.6228 63.6496ZM23.6228 61.4535C16.7853 61.4535 11.2107 55.8789 11.2107 49.0416C11.2107 42.2069 16.7853 36.6295 23.6228 36.6295C30.4573 36.6295 36.0347 42.2069 36.0347 49.0416C36.0347 55.8789 30.4573 61.4535 23.6228 61.4535ZM20.5865 56.3341C20.9612 56.6526 21.4369 56.8277 21.9287 56.8281H21.9313L28.9269 56.8104L28.9483 56.8101C30.1996 56.7828 31.275 55.7321 31.2824 54.4515V54.4499C31.2835 54.1801 31.2355 53.9338 31.1539 53.7104C31.7199 53.2659 31.9974 52.6138 32.0005 51.9424C32.0023 51.6955 31.9629 51.45 31.8838 51.216C32.4653 50.7707 32.747 50.1109 32.7502 49.4337C32.752 49.1061 32.7061 48.8093 32.6167 48.5448C33.0353 48.1059 33.2593 47.5186 33.2628 46.9266V46.925C33.2654 46.2874 33.0866 45.7575 32.7472 45.3561C32.4098 44.9567 31.8948 44.6458 31.0921 44.5752C31.0596 44.5724 31.027 44.571 30.9944 44.571L26.8713 44.577C26.7327 44.576 26.6035 44.5748 26.4866 44.5735L27.2349 41.3999C27.5916 39.9172 26.6736 38.4116 25.1912 38.0521C23.7067 37.6912 22.198 38.6107 21.8383 40.0951L20.9978 43.5553C20.9613 43.6122 20.5737 44.2127 20.2819 44.6221C20.1371 44.8246 19.9967 45.0302 19.8609 45.2388C19.7102 45.2008 19.5554 45.1821 19.4 45.1829L17.4753 45.1868C16.9618 45.1892 16.5244 45.3724 16.1638 45.7354C15.804 46.0976 15.6234 46.5363 15.6234 47.0472V47.0491C15.6323 49.6629 15.6422 52.2748 15.651 54.8868C15.6534 55.909 16.4912 56.7399 17.512 56.7376L19.4367 56.7327H19.4396C19.8744 56.7321 20.259 56.5978 20.5865 56.3341ZM21.2653 47.2112C21.4664 46.6742 21.9425 46.0762 22.3125 45.5583C22.731 44.9726 23.0427 44.4406 23.1244 44.1045L23.9726 40.6124C24.0091 40.4633 24.1033 40.3347 24.2344 40.2548C24.3656 40.1749 24.523 40.1502 24.6723 40.1861L24.6734 40.1862C24.9836 40.2613 25.1746 40.577 25.0995 40.8871L25.0979 40.8937L24.1997 44.7028C24.0527 45.3211 24.241 45.9277 24.7166 46.3561L24.7169 46.3564C24.9423 46.5592 25.134 46.677 25.5331 46.7365C25.734 46.7663 26.0883 46.7675 26.8604 46.773H26.8697L30.9349 46.7672C30.977 46.7735 31.0228 46.784 31.056 46.7923C31.0611 46.8293 31.0667 46.8789 31.0667 46.9147C31.0654 47.0491 30.9001 47.0894 30.7133 47.0736C30.435 47.0499 30.1582 47.1332 29.9392 47.3064C29.7202 47.4796 29.5753 47.7298 29.5342 48.006C29.4931 48.2822 29.5588 48.5637 29.7179 48.7932C29.877 49.0227 30.1175 49.183 30.3906 49.2414C30.4865 49.262 30.5547 49.3184 30.5541 49.4218V49.4234C30.5539 49.4769 30.4898 49.4907 30.4298 49.5137C30.3089 49.5602 30.1622 49.579 29.9936 49.5784C29.7388 49.5778 29.4918 49.6657 29.2948 49.8272C29.0977 49.9887 28.9629 50.2137 28.9135 50.4636C28.8641 50.7135 28.9031 50.9728 29.0238 51.1972C29.1445 51.4215 29.3394 51.5969 29.5752 51.6933C29.6485 51.7232 29.8054 51.784 29.8044 51.9304V51.9319C29.8043 51.9853 29.7414 52.0006 29.6822 52.0235C29.5647 52.0692 29.4228 52.0875 29.2598 52.0869C29.0161 52.086 28.779 52.1662 28.5858 52.3149C28.3927 52.4635 28.2545 52.6722 28.1931 52.9081C28.1316 53.144 28.1504 53.3936 28.2464 53.6176C28.3424 53.8416 28.5103 54.0273 28.7235 54.1454C28.7986 54.1871 28.9012 54.2452 28.995 54.3286C29.0287 54.3586 29.0863 54.3831 29.0863 54.44C29.0852 54.5355 29.0011 54.6083 28.9081 54.6141L22.008 54.6319C21.8499 54.2952 21.5977 54.0325 21.2879 53.8693L21.2653 47.2112ZM17.8207 47.3823L19.0698 47.3796L19.094 54.5374L17.846 54.5406C17.8378 52.1542 17.8289 49.7682 17.8207 47.3823Z" fill="#FF845E"></path></g><defs><clipPath id="clip0_400_287"><rect width="80" height="80" fill="white"></rect></clipPath></defs></svg>