<svg xmlns="http://www.w3.org/2000/svg" width="80" height="80" viewBox="0 0 80 80" fill="none">
    <path
        d="M69.5001 72C67.0001 66.625 63.1251 62 58.2501 58.75L56.8751 60.875C60.8751 63.625 64.1251 67.125 66.3751 71.375H13.7501C16.8751 65.625 21.8751 61 28.0001 58.25C30.7501 60 34.6251 61.25 40.0001 61.25C49.0001 61.25 53.8751 57.625 56.6251 53.75H58.7501C62.3751 53.75 63.7501 50.75 63.7501 48.75V44.875C66.7501 43.125 68.7501 39.875 68.7501 36.25C68.7501 32.875 67.0001 29.75 64.3751 28C64.2501 14.625 53.3751 3.75 40.0001 3.75C26.6251 3.75 15.7501 14.625 15.6251 28C13.0001 29.75 11.2501 32.875 11.2501 36.25C11.2501 41.375 15.2501 45.75 20.2501 46.25C20.7501 48.875 22.0001 53.25 25.6251 56.5C19.0001 59.75 13.5001 65.25 10.3751 72C10.2501 72.375 10.2501 72.875 10.5001 73.25C10.7501 73.5 11.2501 73.75 11.6251 73.75H68.3751C68.7501 73.75 69.2501 73.5 69.3751 73.125C69.5001 72.75 69.6251 72.375 69.5001 72ZM61.2501 48.75C61.2501 49.125 61.1251 51.25 58.7501 51.25H58.1251C59.0001 49.375 59.5001 47.625 59.7501 46.25C60.2501 46.25 60.7501 46.125 61.2501 46V48.75ZM66.2501 36.25C66.2501 40 63.5001 43 60.0001 43.625V28.875C63.5001 29.5 66.2501 32.5 66.2501 36.25ZM40.0001 6.25C51.6251 6.25 61.1251 15.375 61.7501 26.75C61.1251 26.5 60.5001 26.375 59.8751 26.375C59.5001 22.375 56.7501 10 40.0001 10C23.2501 10 20.5001 22.375 20.1251 26.375L18.2501 26.75C18.8751 15.375 28.3751 6.25 40.0001 6.25ZM13.7501 36.25C13.7501 32.5 16.5001 29.5 20.0001 28.875V43.625C16.5001 43 13.7501 40 13.7501 36.25ZM22.5001 43.75V27.5C22.5001 26.875 22.7501 12.5 40.0001 12.5C57.2501 12.5 57.5001 26.875 57.5001 27.5V33.75C36.0001 33.375 31.1251 24.5 31.1251 24.5C30.8751 24 30.3751 23.75 29.8751 23.875C29.3751 24 28.8751 24.375 28.8751 24.875C28.6251 26.25 27.8751 27.375 26.8751 28.25L28.3751 30.25C29.2501 29.5 30.0001 28.75 30.5001 27.75C33.3751 30.75 40.6251 36.125 57.6251 36.375V43.875C57.6251 44.125 57.5001 47.75 55.5001 51.375H49.8751C49.3751 49.875 48.0001 48.875 46.3751 48.875C44.2501 48.875 42.6251 50.5 42.6251 52.625C42.6251 54.75 44.2501 56.375 46.3751 56.375C48.0001 56.375 49.3751 55.375 49.8751 53.875H53.6251C51.1251 56.625 46.8751 58.875 40.1251 58.875C22.7501 58.75 22.5001 44.375 22.5001 43.75ZM46.2501 53.75C45.5001 53.75 45.0001 53.25 45.0001 52.5C45.0001 51.75 45.5001 51.25 46.2501 51.25C47.0001 51.25 47.5001 51.75 47.5001 52.5C47.5001 53.25 47.0001 53.75 46.2501 53.75Z"
        fill="currentColor"></path>
    <path d="M30 37.5H32.5V41.25H30V37.5ZM47.5 37.5H50V41.25H47.5V37.5Z" fill="currentColor"></path>

</svg>