<svg xmlns="http://www.w3.org/2000/svg" width="100" height="100" viewBox="0 0 100 100" fill="none"><rect width="100" height="100" rx="12" fill="#00A1E0"></rect><path d="M42.2849 24.9802C45.252 21.9076 49.3828 20.0019 53.9513 20.0019C60.0244 20.0019 65.3228 23.3676 68.1445 28.364C70.5966 27.2752 73.3107 26.6694 76.1663 26.6694C87.1197 26.6694 96 35.5722 96 46.5536C96 57.5363 87.1197 66.439 76.1663 66.439C74.8543 66.4397 73.5456 66.3101 72.2596 66.0521C69.7748 70.4572 65.0398 73.4335 59.605 73.4335C57.3299 73.4335 55.178 72.9112 53.262 71.9825C50.7431 77.8711 44.8745 82 38.0347 82C30.912 82 24.8415 77.5207 22.5114 71.2387C21.4932 71.4536 20.4382 71.5656 19.3556 71.5656C10.8751 71.5657 4 64.6624 4 56.1453C4 50.4377 7.08895 45.4542 11.6785 42.788C10.7336 40.6272 10.208 38.2423 10.208 35.7349C10.208 25.94 18.2089 18 28.0773 18C33.8712 18 39.0203 20.7379 42.2849 24.9802Z" fill="white"></path><path d="M17.021 50.9224C16.9628 51.0614 17.0422 51.0905 17.0607 51.1146C17.2354 51.2305 17.413 51.314 17.5917 51.4069C18.5396 51.866 19.4347 52 20.3708 52C22.2773 52 23.4609 51.0747 23.4609 49.585V49.5561C23.4609 48.1788 22.1251 47.6787 20.8712 47.3175L20.7084 47.2692C19.7631 46.9888 18.9475 46.7473 18.9475 46.1795V46.1493C18.9475 45.6637 19.4241 45.306 20.1629 45.306C20.9838 45.306 21.9582 45.5549 22.5858 45.8714C22.5858 45.8714 22.7698 45.9801 22.8373 45.8171C22.8744 45.73 23.1922 44.9496 23.2253 44.8651C23.261 44.7732 23.1975 44.7055 23.1326 44.6693C22.4163 44.2718 21.426 44 20.4013 44L20.2106 44.0012C18.4657 44.0012 17.2476 44.9629 17.2476 46.3413V46.3703C17.2476 47.8236 18.5914 48.2948 19.8506 48.6234L20.0531 48.6802C20.9707 48.9375 21.7611 49.1585 21.7611 49.7481V49.7772C21.7611 50.316 21.2474 50.717 20.4186 50.717C20.0969 50.717 19.0708 50.711 17.9626 50.0718C17.8288 50.0005 17.7508 49.9486 17.6475 49.8918C17.5933 49.8604 17.4569 49.806 17.3973 49.9704L17.021 50.9224ZM44.9317 50.9224C44.8734 51.0614 44.9529 51.0905 44.9714 51.1146C45.1461 51.2305 45.3236 51.314 45.5023 51.4069C46.4502 51.866 47.3454 52 48.2813 52C50.1878 52 51.3715 51.0747 51.3715 49.585V49.5561C51.3715 48.1788 50.0356 47.6787 48.7818 47.3175L48.619 47.2692C47.6736 46.9888 46.858 46.7473 46.858 46.1795V46.1493C46.858 45.6637 47.3346 45.306 48.0734 45.306C48.8943 45.306 49.8687 45.5549 50.4964 45.8714C50.4964 45.8714 50.6804 45.9801 50.7478 45.8171C50.7849 45.73 51.1027 44.9496 51.1358 44.8651C51.1716 44.7732 51.108 44.7055 51.0431 44.6693C50.3268 44.2718 49.3365 44 48.3118 44L48.121 44.0012C46.3761 44.0012 45.158 44.9629 45.158 46.3413V46.3703C45.158 47.8236 46.5018 48.2948 47.761 48.6234L47.9635 48.6802C48.8811 48.9375 49.6729 49.1585 49.6729 49.7481V49.7772C49.6729 50.316 49.1578 50.717 48.329 50.717C48.0074 50.717 46.9813 50.711 45.8731 50.0718C45.7393 50.0005 45.66 49.951 45.5594 49.8918C45.5249 49.8713 45.3634 49.8145 45.3077 49.9704L44.9317 50.9224ZM63.9856 48.0047C63.9856 48.8467 63.8135 49.5099 63.4745 49.9787C63.1395 50.4426 62.6325 50.6685 61.9256 50.6685C61.2173 50.6685 60.7128 50.4438 60.3831 49.9787C60.0494 49.5112 59.8801 48.8467 59.8801 48.0047C59.8801 47.1639 60.0494 46.5018 60.3831 46.0379C60.7128 45.5788 61.2173 45.3553 61.9256 45.3553C62.6326 45.3553 63.1396 45.5788 63.4759 46.0379C63.8136 46.5017 63.9856 47.1638 63.9856 48.0047ZM65.5771 46.4438C65.4208 45.9617 65.1772 45.5365 64.8529 45.1826C64.5284 44.8274 64.1181 44.5423 63.6307 44.3345C63.1448 44.1279 62.5703 44.0228 61.9256 44.0228C61.2794 44.0228 60.7048 44.1279 60.2189 44.3345C59.7317 44.5423 59.3213 44.8275 58.9956 45.1826C58.6726 45.5378 58.4289 45.963 58.2714 46.4438C58.1165 46.9234 58.0383 47.4477 58.0383 48.0047C58.0383 48.5617 58.1165 49.0871 58.2714 49.5655C58.4289 50.0464 58.6713 50.4717 58.997 50.8268C59.3213 51.182 59.7331 51.4659 60.219 51.6676C60.7061 51.8693 61.2794 51.972 61.9257 51.972C62.5704 51.972 63.1437 51.8693 63.6308 51.6676C64.1168 51.4659 64.5284 51.1819 64.853 50.8268C65.1773 50.4728 65.4208 50.0475 65.5771 49.5655C65.7334 49.086 65.8115 48.5604 65.8115 48.0047C65.8115 47.449 65.7333 46.9234 65.5771 46.4438ZM78.6456 50.4437C78.5926 50.3023 78.443 50.3554 78.443 50.3554C78.2114 50.4364 77.965 50.5113 77.7029 50.5488C77.4367 50.5861 77.1442 50.6055 76.8303 50.6055C76.0599 50.6055 75.4482 50.3965 75.01 49.9834C74.5704 49.5702 74.3241 48.9022 74.3267 47.9985C74.3294 47.1758 74.5465 46.5572 74.9371 46.0861C75.3251 45.6174 75.9156 45.3769 76.7033 45.3769C77.3601 45.3769 77.8605 45.4457 78.3847 45.5968C78.3847 45.5968 78.5105 45.6463 78.57 45.4965C78.709 45.1437 78.8123 44.8912 78.9606 44.5034C79.003 44.3935 78.8997 44.3464 78.8626 44.333C78.6561 44.2593 78.1689 44.1398 77.8008 44.0891C77.4566 44.0407 77.0541 44.0154 76.6066 44.0154C75.9378 44.0154 75.3421 44.1193 74.8325 44.3271C74.324 44.5336 73.8924 44.8187 73.5509 45.174C73.2093 45.5292 72.9498 45.9543 72.7764 46.4352C72.6043 46.9147 72.5169 47.4415 72.5169 47.9985C72.5169 49.2029 72.873 50.1766 73.5761 50.8894C74.2804 51.6047 75.3383 51.9682 76.718 51.9682C77.5335 51.9682 78.3703 51.8173 78.9714 51.601C78.9714 51.601 79.0866 51.5502 79.0362 51.4283L78.6456 50.4437ZM81.4301 47.198C81.5055 46.7305 81.6472 46.3414 81.8656 46.0383C82.1954 45.578 82.6984 45.3255 83.4055 45.3255C84.1126 45.3255 84.5799 45.5792 84.9148 46.0383C85.1373 46.3414 85.2339 46.7475 85.2724 47.198H81.4301ZM86.7882 46.1699C86.6532 45.7047 86.3182 45.2348 86.0984 45.0197C85.7515 44.6791 85.4127 44.4411 85.0763 44.3082C84.6367 44.1366 84.1098 44.0231 83.5326 44.0231C82.86 44.0231 82.2496 44.1258 81.7545 44.3384C81.258 44.551 80.841 44.841 80.5139 45.2023C80.1868 45.5622 79.9406 45.9911 79.7843 46.478C79.6268 46.9624 79.5474 47.4904 79.5474 48.0472C79.5474 48.6139 79.6295 49.1418 79.7923 49.6165C79.9565 50.095 80.2186 50.5166 80.5735 50.8657C80.9269 51.2173 81.3824 51.4928 81.9279 51.6847C82.4695 51.8756 83.1275 51.9747 83.8834 51.9734C85.4392 51.9686 86.2586 51.6521 86.5963 51.4817C86.6559 51.4516 86.7128 51.3984 86.6412 51.2462L86.2891 50.3461C86.2362 50.2121 86.0865 50.2616 86.0865 50.2616C85.7012 50.392 85.1532 50.6264 83.8754 50.624C83.04 50.6229 82.4203 50.3981 82.0324 50.0465C81.6339 49.6866 81.4393 49.1573 81.4048 48.4108L86.7921 48.4156C86.7921 48.4156 86.9337 48.4133 86.9484 48.2875C86.9537 48.2346 87.1338 47.2777 86.7882 46.1699ZM38.2859 47.198C38.3627 46.7305 38.5031 46.3414 38.7215 46.0383C39.0511 45.578 39.5543 45.3255 40.2613 45.3255C40.9682 45.3255 41.4356 45.5792 41.7719 46.0383C41.9929 46.3414 42.0896 46.7475 42.128 47.198H38.2859ZM43.6427 46.1699C43.5077 45.7047 43.174 45.2348 42.9543 45.0197C42.6073 44.6791 42.2684 44.4411 41.9322 44.3082C41.4926 44.1366 40.9657 44.0231 40.3884 44.0231C39.7172 44.0231 39.1055 44.1258 38.6103 44.3384C38.1139 44.551 37.6968 44.841 37.3698 45.2023C37.0428 45.5622 36.7965 45.9911 36.6403 46.478C36.4841 46.9624 36.4033 47.4904 36.4033 48.0472C36.4033 48.6139 36.4854 49.1418 36.6483 49.6165C36.8125 50.095 37.0747 50.5166 37.4294 50.8657C37.783 51.2173 38.2384 51.4928 38.7838 51.6847C39.3254 51.8756 39.9834 51.9747 40.7394 51.9734C42.295 51.9686 43.1146 51.6521 43.4522 51.4817C43.5118 51.4516 43.5687 51.3984 43.4972 51.2462L43.1464 50.3461C43.0921 50.2121 42.9426 50.2616 42.9426 50.2616C42.5573 50.392 42.0104 50.6264 40.7302 50.624C39.8961 50.6229 39.2765 50.3981 38.8885 50.0465C38.4899 49.6866 38.2954 49.1573 38.2609 48.4108L43.6481 48.4156C43.6481 48.4156 43.7897 48.4133 43.8044 48.2875C43.8095 48.2346 43.9895 47.2777 43.6427 46.1699ZM26.6414 50.4167C26.4309 50.2633 26.4017 50.2246 26.3303 50.1256C26.2243 49.9745 26.1701 49.7595 26.1701 49.4865C26.1701 49.054 26.3263 48.7435 26.6507 48.5345C26.6468 48.5358 27.1141 48.1661 28.213 48.1793C28.9848 48.189 29.6746 48.2929 29.6746 48.2929V50.5279H29.6759C29.6759 50.5279 28.9914 50.6619 28.2209 50.7042C27.1246 50.7646 26.6374 50.4156 26.6414 50.4167ZM28.7849 46.9628C28.5664 46.9483 28.283 46.9398 27.9441 46.9398C27.4821 46.9398 27.0359 46.9929 26.6175 47.0956C26.1965 47.1983 25.8178 47.3591 25.4921 47.5715C25.1669 47.7834 24.8996 48.0608 24.711 48.3822C24.5204 48.706 24.4237 49.0877 24.4237 49.5154C24.4237 49.9503 24.5058 50.3285 24.67 50.6378C24.8342 50.9483 25.0711 51.2068 25.3729 51.4062C25.6722 51.6055 26.0416 51.7516 26.4705 51.8398C26.8929 51.928 27.3721 51.9727 27.8965 51.9727C28.4485 51.9727 28.9993 51.9317 29.5329 51.8482C30.0611 51.766 30.7099 51.6464 30.8899 51.6091C31.0161 51.5813 31.1419 51.5519 31.2673 51.5209C31.401 51.4907 31.3904 51.3602 31.3904 51.3602L31.3877 46.8649C31.3877 45.879 31.0991 45.1481 30.5312 44.6951C29.9658 44.2433 29.133 44.0149 28.0567 44.0149C27.6528 44.0149 27.0028 44.0657 26.6135 44.1369C26.6135 44.1369 25.4365 44.3448 24.9519 44.6903C24.9519 44.6903 24.846 44.7507 24.9042 44.886L25.2856 45.8211C25.3332 45.9419 25.4617 45.9008 25.4617 45.9008C25.4617 45.9008 25.5027 45.8863 25.5505 45.8609C26.5872 45.3463 27.8979 45.362 27.8979 45.362C28.4804 45.362 28.928 45.4683 29.2298 45.6797C29.5237 45.8851 29.6733 46.1955 29.6733 46.8503V47.0581C29.2099 46.9978 28.7849 46.9628 28.7849 46.9628ZM72.2355 44.4299C72.2764 44.3187 72.1904 44.2655 72.1546 44.2535C72.0634 44.2209 71.6052 44.1327 71.2517 44.1121C70.5752 44.0747 70.1993 44.1786 69.8629 44.3163C69.5292 44.454 69.1586 44.6763 68.9519 44.9288V44.3308C68.9519 44.2475 68.8871 44.181 68.797 44.181H67.4161C67.3261 44.181 67.2613 44.2474 67.2613 44.3308V51.6627C67.2613 51.7449 67.3354 51.8126 67.4254 51.8126H68.8408C68.8841 51.8123 68.9256 51.7964 68.9561 51.7683C68.9866 51.7403 69.0037 51.7023 69.0036 51.6627V47.9998C69.0036 47.5081 69.0632 47.0177 69.1824 46.7096C69.2989 46.4051 69.4578 46.1611 69.6537 45.9859C69.851 45.812 70.0747 45.69 70.3197 45.6211C70.5698 45.551 70.8465 45.5281 71.0426 45.5281C71.3246 45.5281 71.6344 45.5945 71.6344 45.5945C71.7375 45.6053 71.7959 45.5473 71.8302 45.4616C71.923 45.2369 72.1851 44.5639 72.2355 44.4299Z" fill="#00A1E0"></path><path d="M58.8904 40.1844C58.7178 40.1309 58.561 40.0948 58.3564 40.0561C58.1491 40.0188 57.9021 40 57.6218 40C56.644 40 55.8735 40.2778 55.3329 40.8255C54.7948 41.3705 54.4295 42.2 54.2461 43.2914L54.1797 43.6587H52.9523C52.9523 43.6587 52.8035 43.6534 52.7716 43.8164L52.5711 44.9478C52.5564 45.0547 52.603 45.1228 52.7464 45.1228H53.9407L52.7291 51.9246C52.6348 52.4723 52.5258 52.9225 52.4049 53.2644C52.2867 53.6011 52.1712 53.8535 52.0277 54.0378C51.8895 54.2142 51.7593 54.345 51.5334 54.4212C51.3475 54.484 51.1323 54.5133 50.8972 54.5133C50.7669 54.5133 50.593 54.4918 50.4641 54.4652C50.3366 54.4398 50.2688 54.4118 50.1718 54.3703C50.1718 54.3703 50.0324 54.317 49.9765 54.4572C49.9327 54.5734 49.6139 55.4536 49.5753 55.5619C49.5382 55.6701 49.5913 55.7543 49.659 55.7796C49.8184 55.8357 49.9366 55.8731 50.1532 55.9252C50.4535 55.9961 50.7071 56 50.9449 56C51.4417 56 51.896 55.9292 52.272 55.793C52.6493 55.6554 52.9786 55.4162 53.2709 55.0931C53.5858 54.743 53.7837 54.377 53.9724 53.8762C54.1597 53.3819 54.3205 52.7674 54.448 52.0515L55.6662 45.1228H57.4462C57.4462 45.1228 57.5963 45.1281 57.627 44.9638L57.8288 43.8338C57.8421 43.7257 57.797 43.6588 57.6521 43.6588H55.9238C55.9331 43.6201 56.0115 43.0082 56.2095 42.4326C56.2945 42.1882 56.4539 41.9891 56.5881 41.8528C56.721 41.7193 56.8737 41.6245 57.0412 41.5696C57.2125 41.5135 57.4079 41.4868 57.6217 41.4868C57.7838 41.4868 57.9444 41.5055 58.0653 41.5309C58.2327 41.567 58.2978 41.5857 58.3417 41.5991C58.5184 41.6525 58.5423 41.6004 58.5769 41.515L58.99 40.3742C59.0325 40.2511 58.9276 40.199 58.8904 40.1844ZM34.7429 51.9393C34.7429 52.0302 34.6779 52.1037 34.5875 52.1037H33.1541C33.0638 52.1037 33 52.0302 33 51.9393V40.3393C33 40.2486 33.0638 40.1751 33.1541 40.1751H34.5875C34.6779 40.1751 34.7429 40.2486 34.7429 40.3393V51.9393Z" fill="#00A1E0"></path></svg>