<svg xmlns="http://www.w3.org/2000/svg" width="100" height="100" viewBox="0 0 100 100" fill="none"><rect width="100" height="100" rx="12" fill="url(#paint0_linear_260_255)"></rect><path  d="M4 72H49.9912L95 27H4V72Z" fill="white"></path><path  d="M58.2856 35.6381H49.2042L49.2345 57.0412L41.3267 35.6311H33.4856L26.7352 53.5122C26.0175 48.9621 21.3231 47.3921 17.6295 46.2161C15.1903 45.4311 12.6015 44.2764 12.6278 43.0001C12.648 41.9527 14.0127 40.9813 16.7248 41.1262C18.5443 41.2244 20.1515 41.3713 23.3488 42.919L26.4926 37.429C23.5773 35.942 19.546 35.003 16.2406 35H16.2204C12.366 35 9.15659 36.251 7.16725 38.3123C5.78037 39.7506 5.03235 41.58 5.00202 43.6028C4.95148 46.3863 5.9694 48.3594 8.10834 49.9366C9.91573 51.2635 12.2275 52.1245 14.2644 52.7565C16.7763 53.5365 18.8283 54.2152 18.8031 55.6596C18.7862 56.1893 18.5737 56.694 18.2067 57.0757C17.5799 57.7239 16.6196 57.967 15.2904 57.9934C12.7259 58.0481 10.8255 57.6439 7.797 55.85L5 61.411C8.02546 63.135 11.2369 64 14.8861 64L15.7069 63.9939C18.8829 63.9362 21.4606 63.1735 23.5085 61.5224C23.6258 61.4282 23.7309 61.333 23.8401 61.2367L23.4964 63.0114L31.1586 62.9871L32.5334 59.4601C33.9789 59.9544 35.6225 60.2279 37.3672 60.2279C39.0675 60.2279 40.6666 59.9686 42.0848 59.5026L43.0431 62.9871L56.7906 63.0002L56.8239 54.9597H59.7493C66.8202 54.9597 71 51.3536 71 45.3065C70.998 38.5716 66.9344 35.6381 58.2856 35.6381ZM37.3672 53.9336C36.3782 53.9403 35.3961 53.768 34.4681 53.4251L37.3349 44.3543H37.3905L40.2107 53.4504C39.3616 53.7543 38.3952 53.9336 37.3672 53.9336ZM58.8173 48.7221H56.8219V41.4118H58.8183C61.4768 41.4118 63.5996 42.2991 63.5996 45.0198C63.5976 47.8358 61.4768 48.7221 58.8183 48.7221" fill="url(#paint1_linear_260_255)"></path><defs><linearGradient id="paint0_linear_260_255" x1="50" y1="0" x2="50" y2="100.002" gradientUnits="userSpaceOnUse"><stop stop-color="#00AEEF"></stop><stop offset="0.212" stop-color="#0097DC"></stop><stop offset="0.519" stop-color="#007CC5"></stop><stop offset="0.792" stop-color="#006CB8"></stop><stop offset="1" stop-color="#0066B3"></stop></linearGradient><linearGradient id="paint1_linear_260_255" x1="38" y1="35" x2="38" y2="64.0006" gradientUnits="userSpaceOnUse"><stop stop-color="#00AEEF"></stop><stop offset="0.212" stop-color="#0097DC"></stop><stop offset="0.519" stop-color="#007CC5"></stop><stop offset="0.792" stop-color="#006CB8"></stop><stop offset="1" stop-color="#0066B3"></stop></linearGradient></defs></svg>