<svg xmlns="http://www.w3.org/2000/svg" width="40" height="40" viewBox="0 0 40 40" fill="none"><path d="M19.4059 29.5173C18.9334 29.3823 18.4538 29.2453 17.9838 29.1195C17.9037 29.0992 17.8284 29.0632 17.7623 29.0135C17.6962 28.9639 17.6406 28.9016 17.5987 28.8303C17.5569 28.7591 17.5296 28.6802 17.5185 28.5983C17.5074 28.5163 17.5127 28.433 17.534 28.3532C17.5553 28.2733 17.5923 28.1985 17.6428 28.1331C17.6933 28.0676 17.7563 28.0128 17.8281 27.9719C17.9 27.931 17.9792 27.9048 18.0612 27.8947C18.1433 27.8847 18.2265 27.8911 18.3061 27.9134C19.7373 28.297 21.1562 28.758 22.607 29.0582C23.3262 29.1462 23.9183 28.9246 24.1181 28.1787C24.287 27.547 23.93 26.8023 23.2654 26.6569C21.2577 26.2166 19.2473 25.5224 17.6923 24.9855C15.5385 24.2419 14.977 24.0904 12.8674 25.3119L8.50078 27.8401L11.7455 33.5732L12.4987 33.1384C12.6412 33.0562 12.8105 33.0341 12.9694 33.0767L21.6911 35.4117C22.9654 35.7533 23.6914 35.529 24.8173 34.9544L36.797 27.5777C37.1813 27.3412 37.3705 26.7948 37.3152 26.2614C37.2698 25.8244 37.0541 25.4266 36.6528 25.2234C36.0208 24.9033 34.9275 24.9963 33.2423 25.9778L26.6167 29.8369C26.0881 30.1448 25.5441 30.3404 24.9795 30.4352C23.3432 30.7099 20.8697 29.9353 19.4059 29.5173ZM15.6106 4.09484C16.324 4.26478 17.0057 4.54742 17.6301 4.93211L18.9423 4.3493L20.4891 5.89594L19.9064 7.20781C20.2912 7.83234 20.5739 8.51427 20.7438 9.22789L22.0827 9.7432V11.9305L20.7435 12.446C20.5736 13.1594 20.291 13.8411 19.9063 14.4655L20.4891 15.7779L18.9425 17.3246L17.6306 16.742C17.0061 17.1267 16.3242 17.4094 15.6106 17.5794L15.0952 18.9182H12.908L12.3925 17.5791C11.6791 17.4091 10.9974 17.1265 10.373 16.7419L9.06063 17.3247L7.51383 15.7777L8.09649 14.4659C7.7117 13.8413 7.42901 13.1594 7.25907 12.4458L5.92024 11.9305V9.74312L7.2593 9.22773C7.42924 8.51427 7.71188 7.83248 8.09657 7.20805L7.51383 5.89594L9.06047 4.34922L10.3728 4.93203C10.9972 4.54738 11.6789 4.26474 12.3923 4.09477L12.9078 2.75562H15.0951L15.6106 4.09484ZM14.0014 7.02219C11.8945 7.02219 10.1868 8.72984 10.1868 10.8369C10.1868 12.9438 11.8945 14.6515 14.0014 14.6515C16.1084 14.6515 17.816 12.9438 17.816 10.8369C17.816 8.72984 16.1084 7.02219 14.0014 7.02219ZM25.3456 7.08992C25.3456 6.92416 25.4115 6.76519 25.5287 6.64798C25.6459 6.53077 25.8049 6.46492 25.9706 6.46492C26.1364 6.46492 26.2954 6.53077 26.4126 6.64798C26.5298 6.76519 26.5956 6.92416 26.5956 7.08992V11.7348L29.9045 13.6452C30.0462 13.7288 30.1493 13.865 30.191 14.0241C30.2328 14.1833 30.21 14.3525 30.1275 14.4949C30.045 14.6374 29.9096 14.7414 29.7507 14.7843C29.5919 14.8273 29.4225 14.8057 29.2795 14.7243L25.6974 12.6562C25.5919 12.605 25.503 12.525 25.4408 12.4256C25.3786 12.3262 25.3456 12.2113 25.3456 12.094V7.08992ZM25.9706 1.25C23.6103 1.25 21.4263 2.00461 19.646 3.28516L21.3877 5.0268C22.7066 4.16969 24.2804 3.67141 25.9706 3.67141C30.6222 3.67141 34.3933 7.44242 34.3933 12.094C34.3933 16.7455 30.6222 20.5166 25.9706 20.5166C23.6372 20.5166 21.5255 19.5675 20.0001 18.0345L19.2194 18.8152L17.6938 18.1377C17.5131 18.2291 17.3291 18.3139 17.1421 18.3917C19.1088 21.1438 22.3302 22.938 25.9706 22.938C31.9595 22.938 36.8146 18.0829 36.8146 12.0941C36.8146 6.10516 31.9595 1.25 25.9706 1.25ZM6.35461 26.5858L11.8199 36.2427C12.0841 36.7096 11.9184 37.3078 11.4514 37.5721L9.59243 38.6242C9.12547 38.8885 8.52727 38.7227 8.26297 38.2558L2.79766 28.5988C2.53344 28.1319 2.69922 27.5337 3.16618 27.2694L5.02516 26.2173C5.49211 25.953 6.09032 26.1188 6.35461 26.5858ZM5.10133 28.0333C5.01509 28.0459 4.93218 28.0754 4.85733 28.12C4.78247 28.1647 4.71715 28.2236 4.66508 28.2935C4.55993 28.4347 4.51516 28.6118 4.54063 28.786C4.56609 28.9602 4.65971 29.1171 4.80087 29.2223C4.94204 29.3274 5.11919 29.3722 5.29336 29.3467C5.46754 29.3213 5.62446 29.2276 5.72961 29.0865C5.83476 28.9453 5.87953 28.7682 5.85407 28.594C5.8286 28.4198 5.73499 28.2629 5.59382 28.1577C5.45266 28.0526 5.2755 28.0078 5.10133 28.0333Z" fill="currentcolor"></path></svg>