<svg xmlns="http://www.w3.org/2000/svg" width="80" height="80" viewBox="0 0 80 80" fill="currentcolor">
    <path  d="M40 12.5C34.21 12.5018 28.5683 14.331 23.8788 17.727C19.1894 21.123 15.6914 25.9125 13.8835 31.413C12.0755 36.9135 12.0498 42.8443 13.81 48.3602C15.5702 53.8762 19.0265 58.6958 23.6864 62.1323C28.3462 65.5689 33.9719 67.4469 39.7616 67.4989C45.5514 67.5509 51.2098 65.7741 55.9306 62.4217C60.6514 59.0694 64.1936 54.3126 66.0526 48.8291C67.9115 43.3457 67.9923 37.4154 66.2833 31.8833C66.1049 31.2549 66.1796 30.5816 66.4914 30.0075C66.8031 29.4334 67.3272 29.0042 67.9515 28.8117C68.5757 28.6191 69.2505 28.6786 69.8315 28.9773C70.4125 29.276 70.8534 29.7903 71.06 30.41C71.9967 33.4433 72.5 36.6667 72.5 40C72.5 57.95 57.95 72.5 40 72.5C22.05 72.5 7.5 57.95 7.5 40C7.5 22.05 22.05 7.5 40 7.5C42.3 7.5 44.5533 7.74 46.7267 8.2C47.3593 8.35255 47.9075 8.74577 48.2548 9.29611C48.6021 9.84644 48.7211 10.5105 48.5866 11.1472C48.452 11.7839 48.0745 12.3431 47.5343 12.7058C46.994 13.0686 46.3336 13.2064 45.6933 13.09C43.8211 12.6967 41.9131 12.499 40 12.5ZM72.81 9.97333C73.2782 10.4421 73.5411 11.0775 73.5411 11.74C73.5411 12.4025 73.2782 13.0379 72.81 13.5067L59.4767 26.84C59.0079 27.3082 58.3725 27.5711 57.71 27.5711C57.0475 27.5711 56.4121 27.3082 55.9433 26.84L49.2767 20.1733C48.8351 19.6994 48.5947 19.0726 48.6061 18.4249C48.6175 17.7773 48.8799 17.1593 49.3379 16.7013C49.796 16.2432 50.4139 15.9808 51.0616 15.9694C51.7093 15.958 52.3361 16.1984 52.81 16.64L57.71 21.54L69.2767 9.97333C69.7454 9.50517 70.3808 9.2422 71.0433 9.2422C71.7058 9.2422 72.3413 9.50517 72.81 9.97333ZM40 17.5C40.663 17.5 41.2989 17.7634 41.7678 18.2322C42.2366 18.7011 42.5 19.337 42.5 20V24.24H42.59C45.053 24.24 47.4151 25.2184 49.1567 26.96C50.8983 28.7016 51.8767 31.0637 51.8767 33.5267C51.8767 34.1897 51.6133 34.8256 51.1444 35.2944C50.6756 35.7633 50.0397 36.0267 49.3767 36.0267C48.7136 36.0267 48.0777 35.7633 47.6089 35.2944C47.1401 34.8256 46.8767 34.1897 46.8767 33.5267C46.8767 31.16 44.9567 29.24 42.59 29.24H42.5V37.5433H42.7667C45.1823 37.5433 47.4991 38.503 49.2072 40.2111C50.9154 41.9192 51.875 44.236 51.875 46.6517C51.875 49.0673 50.9154 51.3841 49.2072 53.0922C47.4991 54.8004 45.1823 55.76 42.7667 55.76H42.5V60C42.5 60.663 42.2366 61.2989 41.7678 61.7678C41.2989 62.2366 40.663 62.5 40 62.5C39.337 62.5 38.7011 62.2366 38.2322 61.7678C37.7634 61.2989 37.5 60.663 37.5 60V55.76H37.2333C36.0371 55.76 34.8527 55.5243 33.7476 55.0665C32.6425 54.6086 31.6384 53.9375 30.7928 53.0915C29.9471 52.2456 29.2764 51.2412 28.8189 50.136C28.3615 49.0307 28.1262 47.8462 28.1267 46.65C28.1267 45.987 28.3901 45.3511 28.8589 44.8822C29.3277 44.4134 29.9636 44.15 30.6267 44.15C31.2897 44.15 31.9256 44.4134 32.3944 44.8822C32.8633 45.3511 33.1267 45.987 33.1267 46.65C33.1267 48.92 34.9633 50.76 37.2333 50.76H37.5V42.5433H37.2767C34.8927 42.479 32.628 41.4867 30.9645 39.7778C29.3011 38.0689 28.3703 35.7782 28.3703 33.3933C28.3703 31.0085 29.3011 28.7178 30.9645 27.0089C32.628 25.2999 34.8927 24.3077 37.2767 24.2433H37.5V20C37.5 19.337 37.7634 18.7011 38.2322 18.2322C38.7011 17.7634 39.337 17.5 40 17.5ZM37.5 29.24H37.2767C36.1959 29.2706 35.1698 29.7215 34.4162 30.4967C33.6626 31.272 33.241 32.3105 33.241 33.3917C33.241 34.4728 33.6626 35.5114 34.4162 36.2866C35.1698 37.0619 36.1959 37.5127 37.2767 37.5433H37.5V29.24ZM42.5 42.5433V50.76H42.7667C43.8563 50.76 44.9012 50.3272 45.6717 49.5567C46.4422 48.7862 46.875 47.7413 46.875 46.6517C46.875 45.5621 46.4422 44.5171 45.6717 43.7466C44.9012 42.9762 43.8563 42.5433 42.7667 42.5433H42.5Z" ></path>
</svg>