<svg xmlns="http://www.w3.org/2000/svg" width="80" height="80" viewBox="0 0 80 80" fill="none">
    <path
        d="M72.5 0H7.5C3.365 0 0 3.365 0 7.5V38.375C0 39.038 0.263392 39.6739 0.732233 40.1428C1.20107 40.6116 1.83696 40.875 2.5 40.875C3.16304 40.875 3.79893 40.6116 4.26777 40.1428C4.73661 39.6739 5 39.038 5 38.375V7.5C5 6.12 6.1225 5 7.5 5H72.5C73.8775 5 75 6.12 75 7.5V72.5C75 73.88 73.8775 75 72.5 75H41.625C40.962 75 40.3261 75.2634 39.8572 75.7322C39.3884 76.2011 39.125 76.837 39.125 77.5C39.125 78.163 39.3884 78.7989 39.8572 79.2678C40.3261 79.7366 40.962 80 41.625 80H72.5C76.635 80 80 76.635 80 72.5V7.5C80 3.365 76.635 0 72.5 0Z"
        fill="currentColor"></path>
    <path
        d="M27.5 45H7.5C3.365 45 0 48.365 0 52.5V72.5C0 76.635 3.365 80 7.5 80H27.5C31.635 80 35 76.635 35 72.5V52.5C35 48.365 31.635 45 27.5 45ZM30 72.5C30 73.88 28.8775 75 27.5 75H7.5C6.1225 75 5 73.88 5 72.5V52.5C5 51.12 6.1225 50 7.5 50H27.5C28.8775 50 30 51.12 30 52.5V72.5ZM41.7675 41.7675L57.5 26.035V30C57.5 30.663 57.7634 31.2989 58.2322 31.7678C58.7011 32.2366 59.337 32.5 60 32.5C60.663 32.5 61.2989 32.2366 61.7678 31.7678C62.2366 31.2989 62.5 30.663 62.5 30V20C62.5 18.66 61.36 17.5 60 17.5H50C49.337 17.5 48.7011 17.7634 48.2322 18.2322C47.7634 18.7011 47.5 19.337 47.5 20C47.5 20.663 47.7634 21.2989 48.2322 21.7678C48.7011 22.2366 49.337 22.5 50 22.5H53.965L38.2325 38.2325C37.7638 38.7013 37.5005 39.3371 37.5005 40C37.5005 40.6629 37.7638 41.2987 38.2325 41.7675C39.1775 42.7125 40.7925 42.7425 41.7675 41.7675Z"
        fill="currentColor"></path>
</svg>