<svg xmlns="http://www.w3.org/2000/svg" width="80" height="80" viewBox="0 0 80 80" fill="none">
 <path 
            d="M6.87356 24.5831C6.87356 19.9813 10.6048 16.25 15.2067 16.25H19.7904C24.3923 16.25 28.1236 19.9813 28.1236 24.5831C28.1236 26.2544 28.1548 27.9288 28.1211 29.5994C30.0379 26.8206 33.2429 25 36.8736 25H43.1236C46.7548 25 49.9598 26.8206 51.8761 29.5994C51.8411 27.9288 51.8736 26.2544 51.8736 24.5831C51.8736 19.9813 55.6048 16.25 60.2073 16.25H64.7904C69.3929 16.25 73.1236 19.9813 73.1236 24.5831V29.375C73.1236 32.125 72.0792 34.6306 70.3654 36.5169C71.4871 36.8988 72.4367 37.6667 73.0449 38.6836C73.6531 39.7006 73.8803 40.9005 73.6862 42.0694C73.492 43.2383 72.889 44.3002 71.9847 45.0659C71.0803 45.8316 69.9335 46.2512 68.7486 46.25H56.2486C55.1962 46.2516 54.1704 45.9197 53.3186 45.3019C52.7184 47.6334 51.5157 49.7662 49.8311 51.4862C52.4536 52.2294 54.3736 54.6406 54.3736 57.5C54.3736 60.9519 51.5754 63.75 48.1236 63.75H31.8736C28.4217 63.75 25.6236 60.9519 25.6236 57.5C25.6236 54.6406 27.5442 52.2294 30.1654 51.4862C28.4813 49.7661 27.279 47.6333 26.6792 45.3019C25.8271 45.9198 24.8011 46.2518 23.7486 46.25H11.2486C10.0637 46.2511 8.91693 45.8314 8.01273 45.0656C7.10852 44.2999 6.50563 43.2379 6.31153 42.0691C6.11743 40.9002 6.34474 39.7004 6.95294 38.6835C7.56113 37.6666 8.51068 36.8988 9.63231 36.5169C7.85387 34.5638 6.86988 32.0164 6.87356 29.375V24.5831ZM33.0623 53.75H31.8736C30.879 53.75 29.9252 54.1451 29.2219 54.8484C28.5186 55.5516 28.1236 56.5054 28.1236 57.5C28.1236 58.4946 28.5186 59.4484 29.2219 60.1516C29.9252 60.8549 30.879 61.25 31.8736 61.25H48.1236C49.1181 61.25 50.0719 60.8549 50.7752 60.1516C51.4785 59.4484 51.8736 58.4946 51.8736 57.5C51.8736 56.5054 51.4785 55.5516 50.7752 54.8484C50.0719 54.1451 49.1181 53.75 48.1236 53.75H46.9348C44.8986 54.9419 42.5286 55.625 39.9986 55.625C37.4692 55.625 35.0979 54.9419 33.0623 53.75ZM25.3654 36.5169C25.6842 36.1656 25.9804 35.7925 26.2511 35.4006C26.2404 35.9069 26.2486 36.4131 26.2486 36.9194C25.968 36.7568 25.6722 36.6219 25.3654 36.5169ZM53.7467 35.4006C54.0167 35.7925 54.3129 36.1656 54.6323 36.5169C54.3253 36.6217 54.0293 36.7563 53.7486 36.9187C53.7486 36.4125 53.7573 35.9062 53.7467 35.4006ZM51.2486 35.625V41.875C51.2486 48.0881 46.2117 53.125 39.9986 53.125C33.7854 53.125 28.7486 48.0881 28.7486 41.875V35.625C28.7486 31.1375 32.3861 27.5 36.8736 27.5H43.1236C47.6111 27.5 51.2486 31.1375 51.2486 35.625ZM56.2486 43.75C55.5855 43.75 54.9496 43.4866 54.4808 43.0178C54.012 42.5489 53.7486 41.913 53.7486 41.25C53.7486 40.587 54.012 39.9511 54.4808 39.4822C54.9496 39.0134 55.5855 38.75 56.2486 38.75H57.4942C58.9854 39.5475 60.6892 40 62.4986 40C64.3079 40 66.0117 39.5475 67.5029 38.75H68.7486C69.4116 38.75 70.0475 39.0134 70.5163 39.4822C70.9852 39.9511 71.2486 40.587 71.2486 41.25C71.2486 41.913 70.9852 42.5489 70.5163 43.0178C70.0475 43.4866 69.4116 43.75 68.7486 43.75H56.2486ZM23.7486 38.75C24.4116 38.75 25.0475 39.0134 25.5163 39.4822C25.9852 39.9511 26.2486 40.587 26.2486 41.25C26.2486 41.913 25.9852 42.5489 25.5163 43.0178C25.0475 43.4866 24.4116 43.75 23.7486 43.75H11.2486C10.5855 43.75 9.94963 43.4866 9.48079 43.0178C9.01195 42.5489 8.74856 41.913 8.74856 41.25C8.74856 40.587 9.01195 39.9511 9.48079 39.4822C9.94963 39.0134 10.5855 38.75 11.2486 38.75H12.4942C13.9854 39.5475 15.6892 40 17.4986 40C19.3079 40 21.0117 39.5475 22.5029 38.75H23.7486ZM15.2067 18.75C13.6596 18.75 12.176 19.3646 11.082 20.4585C9.98812 21.5524 9.37356 23.0361 9.37356 24.5831V29.375C9.37356 33.8625 13.0111 37.5 17.4986 37.5C21.9861 37.5 25.6236 33.8625 25.6236 29.375V24.5831C25.6236 23.0361 25.009 21.5524 23.9151 20.4585C22.8212 19.3646 21.3375 18.75 19.7904 18.75H15.2067ZM60.2067 18.75C58.6596 18.75 57.176 19.3646 56.082 20.4585C54.9881 21.5524 54.3736 23.0361 54.3736 24.5831V29.375C54.3736 33.8625 58.0111 37.5 62.4986 37.5C66.9861 37.5 70.6236 33.8625 70.6236 29.375V24.5831C70.6236 23.0361 70.009 21.5524 68.9151 20.4585C67.8212 19.3646 66.3375 18.75 64.7904 18.75H60.2067ZM60.9829 32.6456C60.7786 32.9067 60.4788 33.0759 60.1497 33.116C59.8206 33.1561 59.489 33.0638 59.2279 32.8594C58.9669 32.655 58.7977 32.3553 58.7576 32.0261C58.7175 31.697 58.8098 31.3654 59.0142 31.1044C59.8286 30.0656 61.0773 29.375 62.4986 29.375C63.9211 29.375 65.1692 30.0656 65.9829 31.1044C66.1823 31.3658 66.2706 31.6952 66.2288 32.0213C66.187 32.3473 66.0185 32.6438 65.7597 32.8465C65.5008 33.0492 65.1726 33.1417 64.846 33.1042C64.5194 33.0666 64.2208 32.9018 64.0148 32.6456C63.6304 32.1563 63.0829 31.875 62.4986 31.875C61.9142 31.875 61.3673 32.1556 60.9829 32.6456ZM35.9986 44.1069C36.2354 43.875 36.5547 43.7467 36.8862 43.7502C37.2177 43.7538 37.5341 43.8888 37.7661 44.1256C38.2673 44.6369 39.0623 45 39.9986 45C40.9348 45 41.7298 44.6369 42.2304 44.125C42.4625 43.8881 42.7792 43.7531 43.1107 43.7497C43.4423 43.7463 43.7617 43.8748 43.9986 44.1069C44.2354 44.3389 44.3704 44.6556 44.3738 44.9872C44.3772 45.3188 44.2488 45.6381 44.0167 45.875C43.0211 46.8913 41.5711 47.5 39.9986 47.5C38.4261 47.5 36.9767 46.8919 35.9804 45.875C35.8655 45.7577 35.7749 45.6189 35.7136 45.4665C35.6524 45.3142 35.6217 45.1513 35.6235 44.9871C35.6252 44.8229 35.6593 44.6606 35.7238 44.5096C35.7882 44.3586 35.8818 44.2217 35.9992 44.1069H35.9986ZM18.7486 33.75C19.0801 33.75 19.398 33.6183 19.6324 33.3839C19.8669 33.1495 19.9986 32.8315 19.9986 32.5C19.9986 32.1685 19.8669 31.8505 19.6324 31.6161C19.398 31.3817 19.0801 31.25 18.7486 31.25H16.2486C15.917 31.25 15.5991 31.3817 15.3647 31.6161C15.1303 31.8505 14.9986 32.1685 14.9986 32.5C14.9986 32.8315 15.1303 33.1495 15.3647 33.3839C15.5991 33.6183 15.917 33.75 16.2486 33.75H18.7486ZM73.0517 55.4306C74.4054 56.5506 73.6129 58.75 71.8561 58.75H61.2486C60.917 58.75 60.5991 58.6183 60.3647 58.3839C60.1303 58.1495 59.9986 57.8315 59.9986 57.5C59.9986 57.1685 60.1303 56.8505 60.3647 56.6161C60.5991 56.3817 60.917 56.25 61.2486 56.25H70.1217L68.2642 54.7125C68.0188 54.4982 67.8668 54.1965 67.8405 53.8718C67.8142 53.547 67.9158 53.2248 68.1236 52.9738C68.3314 52.7229 68.6289 52.563 68.9529 52.5281C69.2768 52.4933 69.6016 52.5864 69.8579 52.7875L73.0517 55.4306ZM7.98419 58.75C6.22731 58.75 5.43544 56.5506 6.78856 55.4306L9.98294 52.7869C10.2384 52.5755 10.5673 52.4743 10.8974 52.5055C11.2274 52.5367 11.5316 52.6977 11.7429 52.9531C11.9543 53.2086 12.0555 53.5375 12.0243 53.8676C11.9931 54.1976 11.8321 54.5018 11.5767 54.7131L9.71981 56.25H18.7486C19.0801 56.25 19.398 56.3817 19.6324 56.6161C19.8669 56.8505 19.9986 57.1685 19.9986 57.5C19.9986 57.8315 19.8669 58.1495 19.6324 58.3839C19.398 58.6183 19.0801 58.75 18.7486 58.75H7.98419Z"
            fill="currentColor"></path>
</svg>