<svg xmlns="http://www.w3.org/2000/svg" width="80" height="80" viewBox="0 0 80 80" fill="none"><g clip-path="url(#clip0_400_167)"><g clip-path="url(#clip1_400_167)"><path d="M47.3661 19.4449V7.34615C46.9603 -2.4265 33.0389 -2.41885 32.6367 7.34615V19.4449C36.8103 16.3613 43.1931 16.3616 47.3661 19.4449ZM27.2247 28.813L16.7528 34.859C13.2369 36.8891 12.0271 41.4018 14.0563 44.919C16.0699 48.4066 20.56 49.6688 24.1175 47.6146L34.5905 41.568C29.8813 39.4104 26.7016 34.2641 27.2247 28.813ZM12.3027 30.8093C13.6077 30.8757 14.6988 29.8744 14.7664 28.5919C15.2378 19.6387 20.4132 11.8229 27.9494 7.72193V7.34615C27.9479 5.48334 28.3811 3.64588 29.2146 1.9799C18.4208 6.14615 10.7157 16.3757 10.0853 28.3457C10.0172 29.6382 11.0099 30.7413 12.3027 30.8093ZM53.7872 8.76053C61.305 13.6446 65.4864 22.0347 65.2692 30.6122L65.5936 30.7996C67.2081 31.7301 68.5831 33.0246 69.6092 34.5801C71.3989 23.1483 66.3921 11.3597 56.3408 4.8299C55.2555 4.12443 53.8038 4.43271 53.0986 5.51834C52.3935 6.60381 52.7016 8.05537 53.7872 8.76053ZM55.8853 47.6146C59.4035 49.6458 63.9088 48.4485 65.9471 44.9183C67.9758 41.4018 66.766 36.8891 63.2499 34.859L52.7781 28.8132C53.301 34.2647 50.1219 39.4101 45.4124 41.5682L55.8853 47.6146Z" fill="#FF845E"></path><path d="M40 38.0808C44.4892 38.0808 48.1416 34.4285 48.1416 29.9393C47.6944 19.1385 32.3039 19.1416 31.8583 29.9393C31.8584 34.4285 35.5108 38.0808 40 38.0808ZM77.6562 75.2933H61.1719V71.0639C71.7472 69.8939 80 60.9046 80 50.0225C80 48.7282 78.9506 47.6788 77.6562 47.6788C69.4661 47.6788 62.3478 52.3536 58.8281 59.1747C55.3084 52.3535 48.1902 47.6788 40 47.6788C38.7056 47.6788 37.6562 48.7282 37.6562 50.0225C37.6562 60.9046 45.9091 69.8939 56.4844 71.0641V75.2935H47.3647V73.1971C44.6053 71.825 42.1116 69.9735 40 67.7289C37.8885 69.9736 35.3948 71.8251 32.6353 73.1971V75.2935H23.5156V71.0655C28.8961 70.47 33.6748 67.8496 37.0719 63.9861C34.34 59.691 32.6041 54.2774 33.0689 48.8472C27.9088 50.6405 23.6486 54.3749 21.1719 59.1747C17.6522 52.3535 10.5339 47.6788 2.34375 47.6788C1.04937 47.6788 0 48.7282 0 50.0225C0 60.9046 8.25281 69.8939 18.8281 71.0639V75.2933H2.34375C-0.765938 75.4172 -0.763594 79.8582 2.34375 79.9808H77.6562C80.7659 79.8571 80.7636 75.4161 77.6562 75.2933Z" fill="#FF845E"></path></g></g><defs><clipPath id="clip0_400_167"><rect width="80" height="80" fill="white"></rect></clipPath><clipPath id="clip1_400_167"><rect width="80" height="80" fill="white"></rect></clipPath></defs></svg>