<svg xmlns="http://www.w3.org/2000/svg" width="80" height="80" viewBox="0 0 80 80" fill="none">
    <path
        d="M34.375 61.25H20.625C20.2935 61.25 19.9755 61.3817 19.7411 61.6161C19.5067 61.8505 19.375 62.1685 19.375 62.5C19.375 62.8315 19.5067 63.1495 19.7411 63.3839C19.9755 63.6183 20.2935 63.75 20.625 63.75H34.375C34.7065 63.75 35.0245 63.6183 35.2589 63.3839C35.4933 63.1495 35.625 62.8315 35.625 62.5C35.625 62.1685 35.4933 61.8505 35.2589 61.6161C35.0245 61.3817 34.7065 61.25 34.375 61.25ZM34.375 66.25H20.625C20.2935 66.25 19.9755 66.3817 19.7411 66.6161C19.5067 66.8505 19.375 67.1685 19.375 67.5C19.375 67.8315 19.5067 68.1495 19.7411 68.3839C19.9755 68.6183 20.2935 68.75 20.625 68.75H34.375C34.7065 68.75 35.0245 68.6183 35.2589 68.3839C35.4933 68.1495 35.625 67.8315 35.625 67.5C35.625 67.1685 35.4933 66.8505 35.2589 66.6161C35.0245 66.3817 34.7065 66.25 34.375 66.25ZM20.625 15H34.375C34.7065 15 35.0245 14.8683 35.2589 14.6339C35.4933 14.3995 35.625 14.0815 35.625 13.75C35.625 13.4185 35.4933 13.1005 35.2589 12.8661C35.0245 12.6317 34.7065 12.5 34.375 12.5H20.625C20.2935 12.5 19.9755 12.6317 19.7411 12.8661C19.5067 13.1005 19.375 13.4185 19.375 13.75C19.375 14.0815 19.5067 14.3995 19.7411 14.6339C19.9755 14.8683 20.2935 15 20.625 15ZM34.375 56.25H24.6781L22.1781 58.75H34.375C34.7065 58.75 35.0245 58.6183 35.2589 58.3839C35.4933 58.1495 35.625 57.8315 35.625 57.5C35.625 57.1685 35.4933 56.8505 35.2589 56.6161C35.0245 56.3817 34.7065 56.25 34.375 56.25Z"
        fill="currentColor"></path>
    <path
        d="M36.875 43.75H28.75V46.25H36.875C37.2064 46.2503 37.5242 46.3821 37.7585 46.6165C37.9929 46.8508 38.1247 47.1686 38.125 47.5V51.25H28.6144C28.4047 52.1564 27.9443 52.9855 27.2856 53.6425L27.1781 53.75H38.125V71.25H34.375C33.7122 71.2507 33.0767 71.5143 32.608 71.983C32.1393 72.4517 31.8757 73.0872 31.875 73.75V77.5H18.125C17.7936 77.4997 17.4758 77.3679 17.2415 77.1335C17.0071 76.8992 16.8753 76.5814 16.875 76.25V60.625H14.375V76.25C14.3762 77.2442 14.7716 78.1974 15.4746 78.9004C16.1776 79.6034 17.1308 79.9988 18.125 80H32.6069C32.9354 80.0009 33.2608 79.9367 33.5643 79.8109C33.8679 79.6852 34.1434 79.5005 34.375 79.2675L39.8925 73.75C40.1254 73.5185 40.3101 73.243 40.4358 72.9396C40.5616 72.6362 40.6259 72.3109 40.625 71.9825V47.5C40.6238 46.5058 40.2284 45.5526 39.5254 44.8496C38.8224 44.1466 37.8692 43.7512 36.875 43.75ZM34.375 75.7325V73.75H36.3575L34.375 75.7325ZM16.875 10H38.125V27.5H34.375C33.7122 27.5007 33.0767 27.7643 32.608 28.233C32.1393 28.7017 31.8757 29.3372 31.875 30V33.75H28.75V36.25H32.6069C32.9354 36.2509 33.2608 36.1867 33.5643 36.0609C33.8679 35.9352 34.1434 35.7505 34.375 35.5175L39.8925 30C40.1254 29.7685 40.3101 29.493 40.4358 29.1896C40.5616 28.8862 40.6259 28.5609 40.625 28.2325V3.75C40.6238 2.75579 40.2284 1.80264 39.5254 1.09963C38.8224 0.396618 37.8692 0.00115788 36.875 0L18.125 0C17.1308 0.00115788 16.1776 0.396618 15.4746 1.09963C14.7716 1.80264 14.3762 2.75579 14.375 3.75V19.375H16.875V10ZM34.375 31.9825V30H36.3575L34.375 31.9825ZM16.875 3.75C16.8753 3.41858 17.0071 3.10083 17.2415 2.86648C17.4758 2.63213 17.7936 2.50033 18.125 2.5H36.875C37.2064 2.50033 37.5242 2.63213 37.7585 2.86648C37.9929 3.10083 38.1247 3.41858 38.125 3.75V7.5H16.875V3.75Z"
        fill="currentColor"></path>
    <path
        d="M19.5481 19.375H22.5C23.4377 19.376 24.363 19.5897 25.2063 20H34.375C34.7065 20 35.0245 19.8683 35.2589 19.6339C35.4933 19.3995 35.625 19.0815 35.625 18.75C35.625 18.4185 35.4933 18.1005 35.2589 17.8661C35.0245 17.6317 34.7065 17.5 34.375 17.5H20.625C20.2935 17.5 19.9755 17.6317 19.7411 17.8661C19.5067 18.1005 19.375 18.4185 19.375 18.75C19.3761 18.97 19.4359 19.1858 19.5481 19.375ZM34.375 25C34.7065 25 35.0245 24.8683 35.2589 24.6339C35.4933 24.3995 35.625 24.0815 35.625 23.75C35.625 23.4185 35.4933 23.1005 35.2589 22.8661C35.0245 22.6317 34.7065 22.5 34.375 22.5H27.9044C28.3513 23.2655 28.6288 24.1181 28.7181 25H34.375ZM20 57.3925L25.5175 51.875C25.7504 51.6435 25.9351 51.368 26.0608 51.0646C26.1866 50.7612 26.2509 50.4359 26.25 50.1075V25.625C26.2488 24.6308 25.8534 23.6776 25.1504 22.9746C24.4474 22.2716 23.4942 21.8762 22.5 21.875H3.75C2.75579 21.8762 1.80264 22.2716 1.09963 22.9746C0.396618 23.6776 0.00115788 24.6308 0 25.625L0 54.375C0.00115788 55.3692 0.396618 56.3224 1.09963 57.0254C1.80264 57.7284 2.75579 58.1238 3.75 58.125H18.2319C18.5604 58.1259 18.8858 58.0617 19.1893 57.9359C19.4929 57.8102 19.7684 57.6255 20 57.3925ZM20 53.8575V51.875H21.9825L20 53.8575ZM2.5 25.625C2.50033 25.2936 2.63213 24.9758 2.86648 24.7415C3.10083 24.5071 3.41858 24.3753 3.75 24.375H22.5C22.8314 24.3753 23.1492 24.5071 23.3835 24.7415C23.6179 24.9758 23.7497 25.2936 23.75 25.625V29.375H2.5V25.625ZM17.5 55.625H3.75C3.41858 55.6247 3.10083 55.4929 2.86648 55.2585C2.63213 55.0242 2.50033 54.7064 2.5 54.375V31.875H23.75V49.375H20C19.3372 49.3757 18.7017 49.6393 18.233 50.108C17.7643 50.5767 17.5007 51.2122 17.5 51.875V55.625Z"
        fill="currentColor"></path>
    <path
        d="M6.25 36.875H20C20.3315 36.875 20.6495 36.7433 20.8839 36.5089C21.1183 36.2745 21.25 35.9565 21.25 35.625C21.25 35.2935 21.1183 34.9755 20.8839 34.7411C20.6495 34.5067 20.3315 34.375 20 34.375H6.25C5.91848 34.375 5.60054 34.5067 5.36612 34.7411C5.1317 34.9755 5 35.2935 5 35.625C5 35.9565 5.1317 36.2745 5.36612 36.5089C5.60054 36.7433 5.91848 36.875 6.25 36.875ZM6.25 41.875H20C20.3315 41.875 20.6495 41.7433 20.8839 41.5089C21.1183 41.2745 21.25 40.9565 21.25 40.625C21.25 40.2935 21.1183 39.9755 20.8839 39.7411C20.6495 39.5067 20.3315 39.375 20 39.375H6.25C5.91848 39.375 5.60054 39.5067 5.36612 39.7411C5.1317 39.9755 5 40.2935 5 40.625C5 40.9565 5.1317 41.2745 5.36612 41.5089C5.60054 41.7433 5.91848 41.875 6.25 41.875ZM21.25 45.625C21.25 45.2935 21.1183 44.9755 20.8839 44.7411C20.6495 44.5067 20.3315 44.375 20 44.375H6.25C5.91848 44.375 5.60054 44.5067 5.36612 44.7411C5.1317 44.9755 5 45.2935 5 45.625C5 45.9565 5.1317 46.2745 5.36612 46.5089C5.60054 46.7433 5.91848 46.875 6.25 46.875H20C20.3315 46.875 20.6495 46.7433 20.8839 46.5089C21.1183 46.2745 21.25 45.9565 21.25 45.625ZM76.25 21.875H57.5C56.5058 21.8762 55.5526 22.2716 54.8496 22.9746C54.1466 23.6776 53.7512 24.6308 53.75 25.625V54.375C53.7512 55.3692 54.1466 56.3224 54.8496 57.0254C55.5526 57.7284 56.5058 58.1238 57.5 58.125H71.9819C72.3104 58.1259 72.6358 58.0617 72.9393 57.9359C73.2429 57.8102 73.5184 57.6255 73.75 57.3925L79.2675 51.875C79.5004 51.6435 79.6851 51.368 79.8108 51.0646C79.9366 50.7612 80.0009 50.4359 80 50.1075V25.625C79.9988 24.6308 79.6034 23.6776 78.9004 22.9746C78.1974 22.2716 77.2442 21.8762 76.25 21.875ZM73.75 53.8575V51.875H75.7325L73.75 53.8575ZM77.5 49.375H73.75C73.0872 49.3757 72.4517 49.6393 71.983 50.108C71.5143 50.5767 71.2507 51.2122 71.25 51.875V55.625H57.5C57.1686 55.6247 56.8508 55.4929 56.6165 55.2585C56.3821 55.0242 56.2503 54.7064 56.25 54.375V31.875H77.5V49.375ZM77.5 29.375H56.25V25.625C56.2503 25.2936 56.3821 24.9758 56.6165 24.7415C56.8508 24.5071 57.1686 24.3753 57.5 24.375H76.25C76.5814 24.3753 76.8992 24.5071 77.1335 24.7415C77.3679 24.9758 77.4997 25.2936 77.5 25.625V29.375Z"
        fill="currentColor"></path>
    <path
        d="M60 36.875H73.75C74.0815 36.875 74.3995 36.7433 74.6339 36.5089C74.8683 36.2745 75 35.9565 75 35.625C75 35.2935 74.8683 34.9755 74.6339 34.7411C74.3995 34.5067 74.0815 34.375 73.75 34.375H60C59.6685 34.375 59.3505 34.5067 59.1161 34.7411C58.8817 34.9755 58.75 35.2935 58.75 35.625C58.75 35.9565 58.8817 36.2745 59.1161 36.5089C59.3505 36.7433 59.6685 36.875 60 36.875ZM60 41.875H73.75C74.0815 41.875 74.3995 41.7433 74.6339 41.5089C74.8683 41.2745 75 40.9565 75 40.625C75 40.2935 74.8683 39.9755 74.6339 39.7411C74.3995 39.5067 74.0815 39.375 73.75 39.375H60C59.6685 39.375 59.3505 39.5067 59.1161 39.7411C58.8817 39.9755 58.75 40.2935 58.75 40.625C58.75 40.9565 58.8817 41.2745 59.1161 41.5089C59.3505 41.7433 59.6685 41.875 60 41.875ZM60 46.875H73.75C74.0815 46.875 74.3995 46.7433 74.6339 46.5089C74.8683 46.2745 75 45.9565 75 45.625C75 45.2935 74.8683 44.9755 74.6339 44.7411C74.3995 44.5067 74.0815 44.375 73.75 44.375H60C59.6685 44.375 59.3505 44.5067 59.1161 44.7411C58.8817 44.9755 58.75 45.2935 58.75 45.625C58.75 45.9565 58.8817 46.2745 59.1161 46.5089C59.3505 46.7433 59.6685 46.875 60 46.875ZM48.3838 36.0987C48.1771 35.8912 47.9039 35.7629 47.6122 35.7365C47.3204 35.7101 47.0287 35.7872 46.7881 35.9543C46.5475 36.1214 46.3734 36.3679 46.2962 36.6505C46.2191 36.9331 46.2439 37.2338 46.3662 37.5H41.875C41.5435 37.5 41.2255 37.6317 40.9911 37.8661C40.7567 38.1005 40.625 38.4185 40.625 38.75C40.625 39.0815 40.7567 39.3995 40.9911 39.6339C41.2255 39.8683 41.5435 40 41.875 40H46.3662C46.2439 40.2662 46.2191 40.5669 46.2962 40.8495C46.3734 41.1321 46.5475 41.3786 46.7881 41.5457C47.0287 41.7128 47.3204 41.7899 47.6122 41.7635C47.9039 41.7371 48.1771 41.6088 48.3838 41.4012L50.1519 39.6338C50.3862 39.3993 50.5179 39.0815 50.5179 38.75C50.5179 38.4185 50.3862 38.1007 50.1519 37.8662L48.3838 36.0987Z"
        fill="currentColor"></path>
</svg>