<svg xmlns="http://www.w3.org/2000/svg" width="40" height="40" viewBox="0 0 40 40" fill="none"><g clip-path="url(#clip0_348_123)"><path d="M0 2.86013C0 1.28097 1.32105 0 2.94991 0H36.9701C38.599 0 39.92 1.28097 39.92 2.86013V37.0615C39.92 38.6406 38.599 39.92 36.9701 39.92H2.94991C1.32105 39.92 0 38.6406 0 37.0615V2.86013Z" fill="black"></path><path fill-rule="evenodd" clip-rule="evenodd" d="M15.0027 7.65625H6.48438L16.584 20.9966L7.13047 32.1875H11.4983L18.6484 23.7234L24.9973 32.1096H33.5156L23.1225 18.3816L23.1409 18.4052L32.0895 7.81203H27.7217L21.0763 15.6788L15.0027 7.65625ZM11.1863 9.99258H13.8382L28.8137 29.7733H26.1618L11.1863 9.99258Z" fill="white"></path></g><defs><clipPath id="clip0_348_123"><rect width="40" height="40" fill="white"></rect></clipPath></defs></svg>