<svg xmlns="http://www.w3.org/2000/svg" width="40" height="40" viewBox="0 0 40 40" fill="none"><path d="M7.97796 27.7812H32.0247L33.6974 20.2542C33.7355 20.0829 33.7346 19.9053 33.6948 19.7343C33.655 19.5634 33.5774 19.4036 33.4676 19.2668C33.3578 19.1299 33.2186 19.0194 33.0604 18.9435C32.9022 18.8676 32.729 18.8281 32.5535 18.8281H7.44921C7.27372 18.8281 7.10046 18.8675 6.94223 18.9434C6.784 19.0193 6.64484 19.1298 6.53504 19.2667C6.42523 19.4036 6.34758 19.5634 6.30781 19.7343C6.26805 19.9052 6.2672 20.0829 6.30531 20.2542L7.97796 27.7812ZM20.0013 23.3047C20.6482 23.3047 21.1732 23.8298 21.1732 24.4766C21.1732 25.1234 20.6482 25.6484 20.0013 25.6484C19.3544 25.6484 18.8294 25.1234 18.8294 24.4766C18.8294 23.8298 19.3544 23.3047 20.0013 23.3047Z" fill="currentcolor"></path><path d="M20.0013 13.7253C23.0979 13.7253 25.6081 11.2151 25.6081 8.11852C25.6081 5.02197 23.0979 2.51172 20.0013 2.51172C16.9048 2.51172 14.3945 5.02197 14.3945 8.11852C14.3945 11.2151 16.9048 13.7253 20.0013 13.7253Z" fill="currentcolor"></path><path d="M22.5105 13.7266H17.4895C15.1577 13.7266 13.073 14.8041 11.7064 16.487H28.2936C26.927 14.8041 24.8423 13.7266 22.5105 13.7266ZM38.8281 30.1276H1.17188C0.524687 30.1276 0 30.6523 0 31.2995V36.3203C0 36.9675 0.524687 37.4922 1.17188 37.4922H38.8281C39.4753 37.4922 40 36.9675 40 36.3203V31.2995C40 30.6523 39.4753 30.1276 38.8281 30.1276Z" fill="currentcolor"></path></svg>