<svg xmlns="http://www.w3.org/2000/svg" width="40" height="40" viewBox="0 0 40 40" fill="none"><path d="M26.6649 19.5962C23.0075 17.6417 19.5055 15.8448 15.9258 13.9688V25.1919C19.6927 23.1441 23.6632 21.2688 26.6805 19.5962H26.6649Z" fill="white"></path><path d="M26.6649 19.5962C23.0075 17.6417 15.9258 13.9688 15.9258 13.9688L25.3676 20.3148C25.3676 20.3148 23.6477 21.2688 26.6649 19.5962Z" fill="#E8E0E0"></path><path d="M16.6142 33.9805C9.01742 33.8407 6.42274 33.7148 4.82789 33.3863C3.74887 33.1679 2.8112 32.6832 2.12368 31.9801C1.59231 31.448 1.16973 30.6362 0.841878 29.5098C0.560652 28.5714 0.451122 27.7906 0.294967 25.8834C0.0559247 21.5792 -0.00106064 18.0602 0.294967 14.1282C0.53919 11.9568 0.657601 9.37916 2.27983 7.87534C3.0458 7.17153 3.93685 6.71861 4.93742 6.53137C6.50045 6.2346 13.1596 6 20.0533 6C26.9315 6 33.6055 6.2346 35.17 6.53137C36.42 6.76597 37.5922 7.46904 38.2805 8.37562C39.7606 10.7039 39.7865 13.599 39.9368 15.8636C39.9989 16.9427 39.9989 23.0697 39.9368 24.1487C39.7029 27.7277 39.5149 28.9939 38.9836 30.3068C38.655 31.1357 38.3745 31.5731 37.889 32.0578C37.1276 32.8038 36.1569 33.3 35.1063 33.4803C28.5323 33.9746 22.95 34.0819 16.6142 33.9805ZM26.6814 19.5995C23.024 17.645 19.522 15.8326 15.9423 13.9565V25.1804C19.7092 23.1326 23.6804 21.2565 26.6969 19.584L26.6814 19.5995Z" fill="#CD201F"></path></svg>