<svg xmlns="http://www.w3.org/2000/svg" width="100" height="100" viewBox="0 0 100 100" fill="none"><rect width="100" height="100" rx="12" fill="#FF4F00"></rect><path d="M25.2324 55.1424L25.2192 55.1014L33.4421 47.5917V43.9735H20.2499V47.5917H28.1298L28.1427 47.6263L20 55.1424V58.7606H33.5745V55.1428L25.2324 55.1424ZM41.6736 43.6292C40.152 43.6292 38.9118 43.8578 37.9534 44.316C37.0605 44.715 36.3084 45.3725 35.7946 46.2031C35.3031 47.0391 34.9944 47.9694 34.8888 48.9328L38.8914 49.4942C39.0364 48.6431 39.3261 48.0403 39.7603 47.6849C40.2542 47.3133 40.8627 47.1256 41.4806 47.1542C42.2929 47.1542 42.8822 47.3706 43.2485 47.8042C43.6115 48.2374 43.7959 48.8374 43.7959 49.6285V50.0228H39.9472C37.9882 50.0228 36.5808 50.456 35.7248 51.3228C34.8691 52.1892 34.442 53.3335 34.4434 54.7549C34.4434 56.2106 34.8706 57.2942 35.7251 58.0049C36.5794 58.7153 37.6538 59.0685 38.948 59.0642C40.5537 59.0642 41.7892 58.5131 42.6535 57.4106C43.1639 56.7335 43.5285 55.9583 43.7243 55.1339H43.8696L44.4213 58.7521H48.0484V49.5892C48.0484 47.6956 47.5483 46.2288 46.5476 45.1892C45.5473 44.1488 43.9223 43.6288 41.6736 43.6288V43.6292ZM42.9424 54.9235C42.3667 55.4024 41.6131 55.6406 40.6747 55.6406C39.9014 55.6406 39.3644 55.5056 39.0633 55.2356C38.9165 55.1079 38.7998 54.9495 38.7213 54.7716C38.6429 54.5938 38.6046 54.4009 38.6093 54.2067C38.6008 54.0235 38.6297 53.8404 38.6943 53.6687C38.7589 53.497 38.8579 53.3401 38.9852 53.2078C39.1228 53.079 39.2852 52.9793 39.4624 52.9149C39.6397 52.8504 39.8283 52.8225 40.0167 52.8328H43.8023V53.0821C43.81 53.4343 43.7364 53.7835 43.5873 54.1028C43.4382 54.4222 43.2176 54.7027 42.9424 54.9235ZM69.9805 43.9735H65.6954V58.7628H69.9805V43.9735ZM95.2811 43.9735C94.0707 43.9735 93.1165 44.3996 92.4188 45.2521C91.9179 45.8642 91.537 46.7692 91.2763 47.9663H91.1503L90.59 43.9735H86.9304V58.7606H91.2158V51.1774C91.2158 50.2213 91.4399 49.4881 91.8889 48.9785C92.3379 48.4685 93.1659 48.2135 94.3735 48.2135H96V43.9735H95.2811ZM82.6775 44.4567C81.6772 43.8631 80.4152 43.5671 78.8922 43.5685C76.4942 43.5685 74.6175 44.2492 73.2624 45.6113C71.907 46.9735 71.2296 48.8513 71.2296 51.2449C71.195 52.6919 71.5116 54.1257 72.1526 55.4242C72.7392 56.5813 73.6527 57.5417 74.7804 58.1867C75.9157 58.841 77.2657 59.1689 78.8313 59.1703C80.185 59.1703 81.316 58.9624 82.2235 58.5464C83.0772 58.1727 83.8206 57.5871 84.3827 56.8453C84.9178 56.1172 85.3152 55.2978 85.5552 54.4274L81.8634 53.3964C81.7077 53.9623 81.4084 54.4787 80.9945 54.8956C80.5774 55.3114 79.8785 55.5196 78.8986 55.5196C77.7329 55.5196 76.864 55.1867 76.2923 54.5206C75.877 54.0396 75.6167 53.3528 75.5018 52.4624H85.6118C85.6533 52.0464 85.6748 51.6974 85.6748 51.416V50.4949C85.6992 49.258 85.4432 48.0315 84.9258 46.9071C84.4411 45.8829 83.6574 45.0287 82.6775 44.4567ZM78.7683 47.0935C80.5058 47.0935 81.4907 47.9463 81.7241 49.6524H75.5777C75.6751 49.0831 75.9116 48.5465 76.2662 48.0899C76.8293 47.4242 77.6635 47.0921 78.7683 47.0935ZM67.8846 38.0131C67.5623 38.0021 67.241 38.0559 66.9398 38.1712C66.6387 38.2866 66.3639 38.4611 66.1318 38.6846C65.9032 38.9104 65.724 39.181 65.6055 39.4794C65.487 39.7778 65.4318 40.0974 65.4433 40.4181C65.4317 40.7409 65.4869 41.0627 65.6055 41.3632C65.7242 41.6638 65.9037 41.9367 66.1329 42.1649C66.3619 42.3933 66.6356 42.5721 66.937 42.6902C67.2385 42.8082 67.5611 42.863 67.8846 42.851C68.2062 42.8631 68.5267 42.8082 68.8258 42.69C69.1249 42.5718 69.3961 42.3927 69.6221 42.1642C69.8464 41.9334 70.0215 41.6597 70.1369 41.3595C70.2523 41.0594 70.3055 40.739 70.2934 40.4178C70.3083 40.0985 70.2563 39.7797 70.1407 39.4817C70.025 39.1837 69.8483 38.913 69.6217 38.6871C69.3953 38.4609 69.124 38.2844 68.8253 38.1687C68.5265 38.053 68.2069 38.0008 67.8868 38.0153L67.8846 38.0131ZM59.032 43.5685C57.5723 43.5685 56.3995 44.0256 55.5134 44.9399C54.8572 45.6171 54.376 46.6285 54.0692 47.9731H53.9324L53.3717 43.9803H49.7121V63.0117H53.9972V55.1728H54.1537C54.2843 55.6955 54.4677 56.2037 54.7011 56.6896C55.0636 57.4811 55.6581 58.1443 56.4063 58.5917C57.1817 59.014 58.0554 59.2241 58.9385 59.2006C60.7326 59.2006 62.0984 58.5035 63.0367 57.1099C63.9751 55.716 64.4445 53.771 64.4445 51.2749C64.4445 48.8642 63.9901 46.9771 63.0826 45.6135C62.1746 44.2503 60.8246 43.5685 59.032 43.5685ZM59.4663 54.2846C58.9665 55.0067 58.1849 55.3678 57.1205 55.3678C56.6817 55.388 56.2445 55.3036 55.8449 55.1216C55.4453 54.9396 55.0949 54.6653 54.8228 54.3214C54.2679 53.6267 53.9915 52.6753 53.9933 51.4678V51.1864C53.9933 49.9599 54.2696 49.021 54.8228 48.3696C55.3756 47.7181 56.1421 47.396 57.1205 47.4031C58.2039 47.4031 58.9904 47.746 59.4816 48.4324C59.9725 49.1185 60.2177 50.0753 60.2177 51.3031C60.2209 52.5728 59.9718 53.5667 59.4705 54.2846H59.4663Z" fill="#201515"></path><path d="M19 55.0117H4V59.0117H19V55.0117Z" fill="#201515"></path></svg>