<svg xmlns="http://www.w3.org/2000/svg" width="100" height="100" viewBox="0 0 100 100" fill="none"><rect width="100" height="100" rx="12" fill="#006EB9"></rect><path d="M63.1015 62.7626C62.1813 65.5638 59.5314 67.0248 56.6688 67.0248C51.8949 67.0248 49.2656 64.013 49.2656 59.3786C49.2656 55.1472 52.2197 51.8633 56.5889 51.8633C59.3909 51.8633 61.8384 53.2036 62.9507 55.843L60.5844 56.8405C59.9567 55.2191 58.4913 54.0906 56.7101 54.0906C53.5743 54.0906 52.2803 56.7609 52.2803 59.48C52.2803 62.199 53.6967 64.7383 56.781 64.7383C58.7336 64.7383 60.1487 63.5598 60.8164 61.7869L63.1028 62.7639L63.1015 62.7626Z" fill="white"></path><path d="M65.2044 52.0742H70.5648C73.5279 52.0742 76.1378 53.1629 76.1378 56.5071C76.1378 58.6125 74.8734 59.9733 72.8602 60.4663L77.0271 66.8236H73.9326L70.0789 60.8797H68.076V66.8236H65.2031V52.0742H65.2044ZM70.4836 58.9052C72.132 58.9052 73.3461 58.28 73.3461 56.5174C73.3461 54.7548 72.0521 54.2605 70.4836 54.2605H68.076V58.9052H70.4836Z" fill="white"></path><path d="M78.9896 52.0742H82.6203L86.889 62.8233L91.1267 52.0742H94.6763V66.8236H92.0264V55.5802L87.3633 66.8236H86.0886L81.5776 55.5802V66.8236H78.9883V52.0742H78.9896Z" fill="white"></path><path d="M50.0273 47.4064L54.7923 40.5484H50.5094V39.1953H57.0349V39.8693L52.386 46.7273H56.9008V48.0804H50.0286V47.4064H50.0273Z" fill="white"></path><path d="M61.1032 41.4414C63.0829 41.4414 64.6063 42.8253 64.6063 44.8152C64.6063 46.8051 63.0042 48.2018 61.0361 48.2018C59.0681 48.2018 57.4531 46.8307 57.4531 44.846C57.4531 42.8613 59.1402 41.4414 61.1032 41.4414ZM62.9308 44.828C62.9308 43.6328 62.3211 42.6379 61.0426 42.6379C59.764 42.6379 59.2021 43.6816 59.2021 44.8717C59.2021 46.0617 59.8169 47.0079 61.0787 47.0079C62.3405 47.0079 62.9308 45.9642 62.9308 44.8293V44.828Z" fill="white"></path><path d="M65.6732 38.6367H67.2327V42.6113C67.6528 41.8038 68.5125 41.4405 69.4134 41.4405C70.9729 41.4405 71.7527 42.533 71.7527 44.0132V48.0789H70.1803V44.1647C70.1803 43.2301 69.6931 42.7204 68.7845 42.7204C67.7856 42.7204 67.2314 43.3328 67.2314 44.2623V48.0789H65.6719V38.6367H65.6732Z" fill="white"></path><path d="M76.3415 41.4414C78.3211 41.4414 79.8446 42.8253 79.8446 44.8152C79.8446 46.8051 78.2425 48.2018 76.2744 48.2018C74.3064 48.2018 72.6914 46.8307 72.6914 44.846C72.6914 42.8613 74.3785 41.4414 76.3415 41.4414ZM78.1691 44.828C78.1691 43.6328 77.5594 42.6379 76.2809 42.6379C75.0023 42.6379 74.4404 43.6816 74.4404 44.8717C74.4404 46.0617 75.0552 47.0079 76.317 47.0079C77.5788 47.0079 78.1691 45.9642 78.1691 44.8293V44.828Z" fill="white"></path><path d="M30.3255 64.7129C27.2077 64.7129 24.2704 63.51 22.0549 61.3263L15.5797 54.8766C14.8257 54.1256 14.412 53.1268 14.4158 52.0651C14.4197 51.0034 14.8386 50.0072 15.5964 49.2613C17.1456 47.7362 19.6602 47.7439 21.2004 49.278L27.1304 55.1847C27.8251 55.8766 28.958 55.8792 29.6553 55.1911C29.9968 54.8548 30.185 54.4067 30.1863 53.9279C30.1876 53.4503 30.002 52.9997 29.6617 52.662L23.1955 46.2213C21.3885 44.4407 18.9887 43.4599 16.4445 43.4676C13.8487 43.474 11.4257 44.4895 9.62126 46.3266C7.81428 48.1662 6.84764 50.6041 6.8992 53.191C7.00102 58.3402 11.2929 62.5305 16.4664 62.5305C17.3918 62.5305 18.3056 62.3995 19.1833 62.1415C19.7633 61.9708 20.3729 62.3007 20.5431 62.8784C20.7145 63.4561 20.3832 64.0633 19.8032 64.2341C18.7245 64.5512 17.6019 64.7129 16.4664 64.7129C10.1085 64.7129 4.83444 59.5637 4.70943 53.2346C4.64627 50.0573 5.8346 47.0622 8.0553 44.8014C10.2747 42.542 13.252 41.2929 16.4393 41.2864C19.5519 41.2787 22.515 42.4816 24.7383 44.6731L31.2109 51.1202C31.9649 51.8725 32.3799 52.8713 32.3773 53.9343C32.3748 54.9973 31.9546 55.9947 31.1968 56.7419C29.645 58.2709 27.1265 58.2645 25.5825 56.7265L19.6524 50.8198C18.9603 50.1304 17.8326 50.1279 17.1366 50.8121C16.7963 51.1472 16.6082 51.5939 16.6069 52.0715C16.6056 52.5478 16.7912 52.9971 17.1289 53.3335L23.5976 59.7781C25.3982 61.5523 27.789 62.5318 30.3255 62.5318C35.5969 62.5318 39.8901 58.2606 39.8953 53.01C39.8978 50.4655 38.9028 48.07 37.0933 46.265C35.2837 44.46 32.88 43.4663 30.3255 43.4663C29.5109 43.4663 28.7028 43.5677 27.9218 43.7693C27.8083 43.7988 27.6949 43.8296 27.5828 43.863C27.0028 44.035 26.3932 43.7064 26.2205 43.13C26.0478 42.5523 26.3777 41.945 26.9564 41.773C27.0943 41.7319 27.2335 41.6934 27.3727 41.6575C28.3316 41.411 29.3253 41.2852 30.3242 41.2852C33.4639 41.2852 36.4179 42.506 38.6412 44.7231C40.8645 46.9402 42.0876 49.8839 42.0837 53.0112C42.0773 59.4635 36.8007 64.7116 30.3242 64.7116L30.3255 64.7129Z" fill="white"></path></svg>