<?xml version="1.0" encoding="UTF-8"?>
<svg xmlns="http://www.w3.org/2000/svg" width="48" height="48" viewBox="0 0 48 48" fill="none">
  <path fill-rule="evenodd" clip-rule="evenodd" d="M25.8541 45.4825C18.3093 44.7727 12.03 39.6844 9.58677 32.7882C9.44804 32.3965 9.65341 31.9658 10.045 31.8271C10.2333 31.7605 10.4403 31.7713 10.6205 31.8573C10.8007 31.9432 10.9395 32.0972 11.0063 32.2854C13.2407 38.5926 18.9574 43.2589 25.8403 43.9679L25.7153 43.8429C25.4215 43.5491 25.4215 43.072 25.7153 42.7782C26.0092 42.4843 26.4863 42.4843 26.7802 42.7782L28.2017 44.1996C28.2717 44.2695 28.3271 44.3525 28.365 44.4439C28.4028 44.5352 28.4223 44.6332 28.4223 44.732C28.4223 44.8309 28.4028 44.9288 28.365 45.0202C28.3271 45.1115 28.2717 45.1945 28.2017 45.2645L26.7802 46.686C26.4863 46.9798 26.0092 46.9798 25.7153 46.686C25.4215 46.3922 25.4215 45.915 25.7153 45.6212L25.8541 45.4825ZM34.3151 10.0119L34.5259 10.3768C34.6256 10.5498 34.6526 10.7553 34.6009 10.9482C34.5492 11.1411 34.4231 11.3055 34.2502 11.4054C34.0772 11.5052 33.8718 11.5322 33.6789 11.4805C33.486 11.4288 33.3216 11.3026 33.2217 11.1298L32.0911 9.17165C31.9913 8.99872 31.9642 8.7932 32.0159 8.60032C32.0676 8.40744 32.1938 8.24298 32.3667 8.14313L34.4724 6.92742C34.6454 6.82765 34.8509 6.80064 35.0437 6.85231C35.2366 6.90399 35.401 7.03012 35.5009 7.20299C35.6007 7.37594 35.6277 7.58143 35.576 7.77429C35.5244 7.96715 35.3982 8.13161 35.2254 8.23151L34.6907 8.54022C41.8062 11.3445 46.847 18.2831 46.847 26.3897C46.847 26.8163 46.8331 27.2395 46.8056 27.6591C46.7924 27.8583 46.7007 28.0442 46.5506 28.1758C46.4005 28.3075 46.2043 28.3742 46.005 28.3612C45.8058 28.3481 45.6199 28.2564 45.4883 28.1062C45.3566 27.9561 45.29 27.7599 45.3029 27.5606C45.3283 27.1736 45.3411 26.7831 45.3411 26.3897C45.3411 18.9865 40.7791 12.6404 34.3151 10.0119ZM20.4678 3.76638C21.8896 4.10414 23.2483 4.66714 24.4923 5.43405L27.108 4.27104L30.1888 7.35189L29.0303 9.9676C29.798 11.2128 30.361 12.573 30.6979 13.9965L33.3663 15.0234V19.3814L30.6979 20.4084C30.36 21.8303 29.7938 23.1864 29.0303 24.4328L30.1888 27.0485L27.108 30.1294L24.4923 28.9708C23.2503 29.7388 21.8897 30.3006 20.4678 30.6385L19.4409 33.3068H15.0829L14.0559 30.6385C12.6296 30.3006 11.2735 29.7345 10.0271 28.9708L7.41134 30.1294L4.33049 27.0485L5.4935 24.4328C4.7255 23.1909 4.16371 21.8303 3.82141 20.4084L1.15308 19.3814V15.0234L3.82141 13.9965C4.16371 12.5701 4.7255 11.214 5.4935 9.9676L4.33049 7.35189L7.41134 4.27104L10.0271 5.43405C11.271 4.66714 12.6297 4.10414 14.0515 3.76638L15.0829 1.09363H19.4409L20.4678 3.76638ZM17.2592 8.01513C12.1843 8.01513 8.07458 12.1249 8.07458 17.1998C8.07458 22.2746 12.1843 26.3897 17.2592 26.3897C22.3341 26.3897 26.4492 22.2746 26.4492 17.1998C26.4492 12.1249 22.3341 8.01513 17.2592 8.01513ZM19.8621 11.7259L21.6213 13.4853V22.3269C21.6211 22.4191 21.5844 22.5073 21.5193 22.5725C21.4542 22.6376 21.3659 22.6743 21.2738 22.6745H13.2455C13.1534 22.6743 13.0651 22.6376 13 22.5725C12.9349 22.5073 12.8982 22.4191 12.898 22.3269V12.1821C12.898 12.0611 12.9461 11.9451 13.0316 11.8595C13.1172 11.774 13.2332 11.7259 13.3542 11.7259H19.8621ZM19.3752 16.5394H15.1441C14.7806 16.5394 14.4853 16.8345 14.4853 17.1982C14.4853 17.5618 14.7806 17.857 15.1441 17.857H19.3752C19.7388 17.857 20.034 17.5618 20.034 17.1982C20.034 16.8345 19.7388 16.5394 19.3752 16.5394ZM19.3752 13.7221H15.1441C14.7806 13.7221 14.4853 14.0173 14.4853 14.3809C14.4853 14.7445 14.7806 15.0397 15.1441 15.0397H19.3752C19.7388 15.0397 20.034 14.7445 20.034 14.3809C20.034 14.0173 19.7388 13.7221 19.3752 13.7221ZM19.3752 19.3566H15.1441C14.7806 19.3566 14.4853 19.6518 14.4853 20.0154C14.4853 20.3791 14.7806 20.6742 15.1441 20.6742H19.3752C19.7388 20.6742 20.034 20.3791 20.034 20.0154C20.034 19.6518 19.7388 19.3566 19.3752 19.3566ZM38.8578 29.1581C39.6814 29.3538 40.4684 29.6799 41.189 30.1241L42.7042 29.4504L44.4889 31.2351L43.8177 32.7503C44.2625 33.4716 44.5886 34.2595 44.7839 35.0841L46.3296 35.679V38.2035L44.7839 38.7984C44.5881 39.6221 44.2601 40.4076 43.8177 41.1296L44.4889 42.6448L42.7042 44.4294L41.189 43.7583C40.4687 44.203 39.6816 44.5292 38.8578 44.7244L38.2629 46.2701H35.7385L35.1436 44.7244C34.3173 44.5286 33.5318 44.2006 32.8097 43.7583L31.2945 44.4294L29.5099 42.6448L30.1836 41.1296C29.7387 40.4102 29.4133 39.6221 29.215 38.7984L27.6693 38.2035V35.679L29.215 35.0841C29.4122 34.2598 29.7391 33.472 30.1836 32.7503L29.5099 31.2351L31.2945 29.4504L32.8097 30.1241C33.5304 29.6799 34.3174 29.3538 35.141 29.1581L35.7385 27.6099H38.2629L38.8578 29.1581ZM36.9994 32.5367C34.5664 32.5367 32.5962 34.507 32.5962 36.9399C32.5962 39.3729 34.5664 41.3457 36.9994 41.3457C39.4323 41.3457 41.4051 39.3729 41.4051 36.9399C41.4051 34.507 39.4323 32.5367 36.9994 32.5367Z" fill="#FF845E"></path>
</svg>
