<?xml version="1.0" encoding="UTF-8"?>
<svg xmlns="http://www.w3.org/2000/svg" width="48" height="48" viewBox="0 0 48 48" fill="none">
  <path d="M24 15C26.4853 15 28.5 12.9853 28.5 10.5C28.5 8.01472 26.4853 6 24 6C21.5147 6 19.5 8.01472 19.5 10.5C19.5 12.9853 21.5147 15 24 15Z" fill="#FF845E"></path>
  <path d="M39.2701 10.17L29.2501 20.25V24H28.6726C28.1127 23.2981 27.402 22.7313 26.5931 22.3418C25.7842 21.9523 24.8979 21.7501 24.0001 21.7501C23.1023 21.7501 22.216 21.9523 21.4071 22.3418C20.5982 22.7313 19.8874 23.2981 19.3276 24H18.7501V20.25L8.73008 10.17C8.42247 9.85824 8.25 9.43792 8.25 8.99997C8.25 8.56203 8.42247 8.1417 8.73008 7.82997C9.02226 7.53595 9.41441 7.36268 9.82853 7.34462C10.2426 7.32655 10.6484 7.46502 10.9651 7.73247L16.1026 12.0975C17.1954 13.0278 18.4448 13.7566 19.7926 14.25C21.1395 14.7476 22.5642 15.0016 24.0001 15C26.8937 15.0008 29.6932 13.9719 31.8976 12.0975L37.0351 7.73247C37.3296 7.48014 37.7048 7.34177 38.0926 7.34247C38.4204 7.34179 38.7412 7.43836 39.0141 7.61998C39.2871 7.80159 39.5001 8.06008 39.6261 8.36276C39.7522 8.66543 39.7856 8.99869 39.7223 9.32038C39.6589 9.64207 39.5015 9.93773 39.2701 10.17ZM31.5001 40.5V37.5C31.5001 36.3065 31.026 35.1619 30.1821 34.318C29.3381 33.4741 28.1936 33 27.0001 33H21.0001C19.8066 33 18.662 33.4741 17.8181 34.318C16.9742 35.1619 16.5001 36.3065 16.5001 37.5V40.5C16.5001 40.5 18.0001 42 24.0001 42C30.0001 42 31.5001 40.5 31.5001 40.5Z" fill="#FF845E"></path>
  <path d="M24 32.25C26.4853 32.25 28.5 30.2353 28.5 27.75C28.5 25.2647 26.4853 23.25 24 23.25C21.5147 23.25 19.5 25.2647 19.5 27.75C19.5 30.2353 21.5147 32.25 24 32.25Z" fill="#FF845E"></path>
  <path d="M45.7499 35.25V38.25C45.7499 38.25 44.2499 39.75 38.2499 39.75C36.4847 39.7876 34.7216 39.6088 32.9999 39.2175V37.5C32.9994 36.7089 32.842 35.9257 32.5369 35.1958C32.2318 34.4659 31.785 33.8037 31.2224 33.2475C31.595 32.4978 32.1693 31.8668 32.8808 31.4256C33.5923 30.9844 34.4127 30.7504 35.2499 30.75H41.2499C42.4434 30.75 43.588 31.2241 44.4319 32.068C45.2758 32.9119 45.7499 34.0565 45.7499 35.25Z" fill="#FF845E"></path>
  <path d="M38.25 30C40.7353 30 42.75 27.9853 42.75 25.5C42.75 23.0147 40.7353 21 38.25 21C35.7647 21 33.75 23.0147 33.75 25.5C33.75 27.9853 35.7647 30 38.25 30Z" fill="#FF845E"></path>
  <path d="M16.7775 33.2475C16.2149 33.8037 15.7681 34.4659 15.463 35.1958C15.1579 35.9257 15.0006 36.7089 15 37.5V39.2175C13.2783 39.6088 11.5152 39.7876 9.75 39.75C3.75 39.75 2.25 38.25 2.25 38.25V35.25C2.25 34.0565 2.72411 32.9119 3.56802 32.068C4.41193 31.2241 5.55653 30.75 6.75 30.75H12.75C13.5872 30.7504 14.4077 30.9844 15.1191 31.4256C15.8306 31.8668 16.405 32.4978 16.7775 33.2475Z" fill="#FF845E"></path>
  <path d="M9.75 30C12.2353 30 14.25 27.9853 14.25 25.5C14.25 23.0147 12.2353 21 9.75 21C7.26472 21 5.25 23.0147 5.25 25.5C5.25 27.9853 7.26472 30 9.75 30Z" fill="#FF845E"></path>
</svg>
