<?xml version="1.0" encoding="UTF-8"?>
<svg xmlns="http://www.w3.org/2000/svg" width="48" height="48" viewBox="0 0 48 48" fill="none">
  <path fill-rule="evenodd" clip-rule="evenodd" d="M41.1985 24.4082H46.5V46.5H41.1985V24.4082ZM8.72353 19.474H10.2433C10.3491 19.4743 10.4504 19.5165 10.5252 19.5912C10.6 19.666 10.6422 19.7674 10.6425 19.8731V21.3181C11.4894 21.4771 12.2939 21.8105 13.005 22.297L14.0269 21.2752C14.1019 21.2006 14.2034 21.1587 14.3092 21.1587C14.4149 21.1587 14.5164 21.2006 14.5914 21.2752L15.6656 22.35C15.7402 22.425 15.782 22.5265 15.782 22.6322C15.782 22.738 15.7402 22.8395 15.6656 22.9145L14.6437 23.9363C15.1304 24.6474 15.4637 25.452 15.6226 26.2988H17.0676C17.1733 26.2991 17.2747 26.3413 17.3495 26.4161C17.4243 26.4908 17.4664 26.5922 17.4667 26.6979V28.2177C17.4665 28.3235 17.4243 28.4249 17.3495 28.4997C17.2747 28.5745 17.1733 28.6166 17.0676 28.6169H15.6226C15.4636 29.4638 15.1303 30.2683 14.6437 30.9794L15.6656 32.0013C15.7402 32.0763 15.7821 32.1778 15.7821 32.2836C15.7821 32.3893 15.7402 32.4908 15.6656 32.5658L14.591 33.6404C14.5159 33.715 14.4145 33.7568 14.3087 33.7568C14.2029 33.7568 14.1014 33.715 14.0264 33.6404L13.0045 32.6185C12.2934 33.1051 11.4889 33.4384 10.642 33.5974V35.0424C10.6417 35.1482 10.5995 35.2495 10.5248 35.3243C10.45 35.3991 10.3486 35.4412 10.2428 35.4415H8.72353C8.61777 35.4412 8.51642 35.3991 8.44162 35.3243C8.36683 35.2495 8.32467 35.1482 8.32434 35.0424V33.5965C7.47748 33.4376 6.67294 33.1043 5.96184 32.6177L4.93997 33.6396C4.86495 33.7141 4.76347 33.756 4.65769 33.756C4.55191 33.756 4.45043 33.7141 4.37541 33.6396L3.30094 32.5651C3.22637 32.4901 3.18452 32.3886 3.18452 32.2829C3.18452 32.1771 3.22637 32.0756 3.30094 32.0006L4.32281 30.9788C3.83621 30.2677 3.50286 29.4631 3.34397 28.6162H1.89919C1.79344 28.616 1.69211 28.5738 1.61731 28.4991C1.54252 28.4243 1.50035 28.323 1.5 28.2173V26.6975C1.50032 26.5917 1.54248 26.4904 1.61728 26.4156C1.69208 26.3408 1.79342 26.2987 1.89919 26.2984H3.34416C3.50306 25.4515 3.83641 24.647 4.323 23.9359L3.30113 22.914C3.22656 22.839 3.1847 22.7375 3.1847 22.6318C3.1847 22.526 3.22656 22.4245 3.30113 22.3495L4.37578 21.2749C4.4508 21.2003 4.55228 21.1584 4.65806 21.1584C4.76384 21.1584 4.86532 21.2003 4.94034 21.2749L5.96222 22.2968C6.67333 21.8102 7.47787 21.4769 8.32472 21.3179V19.8731C8.32504 19.7674 8.3672 19.666 8.442 19.5912C8.51679 19.5165 8.61814 19.4743 8.72391 19.474H8.72353ZM9.48337 24C8.79959 24 8.13115 24.2028 7.5626 24.5827C6.99405 24.9625 6.55092 25.5025 6.28924 26.1342C6.02757 26.766 5.95909 27.4611 6.09249 28.1318C6.22588 28.8024 6.55515 29.4184 7.03865 29.902C7.52216 30.3855 8.13818 30.7148 8.80883 30.8482C9.47948 30.9816 10.1746 30.9131 10.8064 30.6515C11.4381 30.3898 11.9781 29.9467 12.358 29.3782C12.7379 28.8096 12.9407 28.1412 12.9407 27.4574C12.9407 27.0034 12.8513 26.5538 12.6775 26.1343C12.5038 25.7148 12.2491 25.3337 11.9281 25.0127C11.6071 24.6916 11.2259 24.4369 10.8065 24.2632C10.387 24.0894 9.9374 24 9.48337 24ZM19.7967 16.8332L24.1194 11.2363L18.5226 15.559C18.0173 15.3489 17.4547 15.3205 16.9308 15.4788C16.407 15.6371 15.9542 15.9722 15.6499 16.427C15.3455 16.8819 15.2083 17.4282 15.2618 17.9728C15.3152 18.5175 15.5559 19.0267 15.9429 19.4137C16.3299 19.8006 16.8391 20.0414 17.3838 20.0948C17.9284 20.1483 18.4747 20.0111 18.9296 19.7067C19.3844 19.4024 19.7195 18.9496 19.8778 18.4258C20.0361 17.9019 20.0077 17.3393 19.7976 16.834L19.7967 16.8332ZM18.7957 1.5C22.2919 1.74976 25.6131 3.12592 28.2614 5.42222L24.91 8.7735C23.164 7.34839 21.0379 6.46738 18.7957 6.23981V1.5ZM16.4315 6.23962C14.1891 6.46723 12.063 7.34831 10.317 8.7735L6.96563 5.42241C9.61407 3.12636 12.9352 1.75035 16.4315 1.50056V6.23962ZM8.64534 10.4453L5.29397 7.09406C3.2637 9.43595 1.94707 12.3106 1.5 15.3776H6.29391C6.67071 13.5687 7.47722 11.8769 8.64534 10.4453ZM29.933 7.09416L26.5819 10.4453C27.75 11.877 28.5565 13.5687 28.9334 15.3776H33.7267C33.2794 12.3107 31.9629 9.43617 29.933 7.09416ZM22.1564 37.3712H27.4579V46.5H22.1564V37.3712ZM31.6775 30.8896H36.9789V46.5H31.6775V30.8896ZM43.8493 14.7177V14.7165H38.9067C38.7575 14.7165 38.6145 14.7758 38.509 14.8813C38.4035 14.9867 38.3442 15.1298 38.3442 15.279C38.3442 15.4282 38.4035 15.5713 38.509 15.6767C38.6145 15.7822 38.7575 15.8415 38.9067 15.8415H42.1389L14.9542 35.8606C14.8342 35.9486 14.754 36.0807 14.7314 36.2278C14.7087 36.3749 14.7454 36.525 14.8334 36.645C14.9214 36.765 15.0535 36.8452 15.2006 36.8679C15.3477 36.8905 15.4978 36.8538 15.6178 36.7658L43.0067 16.5967L42.3094 19.994C42.2947 20.0661 42.2943 20.1404 42.3083 20.2127C42.3223 20.285 42.3504 20.3538 42.3911 20.4152C42.4317 20.4766 42.484 20.5294 42.545 20.5706C42.606 20.6118 42.6745 20.6406 42.7467 20.6553C42.8188 20.67 42.8931 20.6704 42.9654 20.6564C43.0377 20.6424 43.1065 20.6143 43.1679 20.5737C43.2293 20.533 43.2821 20.4807 43.3233 20.4197C43.3645 20.3587 43.3933 20.2902 43.408 20.218L44.393 15.4171C44.4141 15.3343 44.416 15.2477 44.3985 15.1641C44.3811 15.0804 44.3447 15.0019 44.2922 14.9344C44.2398 14.867 44.1726 14.8124 44.0958 14.7749C44.019 14.7374 43.9347 14.7179 43.8492 14.718L43.8493 14.7177ZM17.9368 41.205H12.6353V46.5H17.9367L17.9368 41.205Z" fill="#FF845E"></path>
</svg>
