<?xml version="1.0" encoding="UTF-8"?>
<svg xmlns="http://www.w3.org/2000/svg" width="48" height="48" viewBox="0 0 48 48" fill="none">
  <path fill-rule="evenodd" clip-rule="evenodd" d="M26.4892 22.0777V22.9632C26.4892 23.8211 25.7888 24.5215 24.9309 24.5215H13.7512L9.59269 29.365V24.5215H8.28389C7.42591 24.5215 6.72558 23.8211 6.72558 22.9632V13.322C6.72558 12.4641 7.42591 11.7637 8.28389 11.7637H21.7117V19.1107C21.7117 20.7443 23.0452 22.0777 24.6788 22.0777H26.4892ZM13.9915 15.9964C13.9915 15.3025 13.4281 14.7391 12.7342 14.7391C12.0403 14.7391 11.4769 15.3025 11.4769 15.9964C11.4769 16.6902 12.0403 17.2536 12.7342 17.2536C13.4281 17.2536 13.9915 16.6902 13.9915 15.9964ZM19.8555 15.9964C19.8555 15.3025 19.2921 14.7391 18.5981 14.7391C17.9043 14.7391 17.3409 15.3025 17.3409 15.9964C17.3409 16.6902 17.9043 17.2536 18.5981 17.2536C19.2921 17.2536 19.8555 16.6902 19.8555 15.9964ZM19.3038 21.1987C18.7525 19.7253 17.3309 18.6754 15.6662 18.6754C14.0014 18.6754 12.5799 19.7253 12.0285 21.1987C11.9674 21.3624 11.9737 21.5436 12.0461 21.7026C12.1185 21.8616 12.251 21.9853 12.4146 22.0467C12.5783 22.1078 12.7595 22.1015 12.9185 22.0291C13.0775 21.9567 13.2013 21.8242 13.2626 21.6606C13.6269 20.687 14.5661 19.993 15.6662 19.993C16.7662 19.993 17.7054 20.687 18.0698 21.6606C18.1311 21.8242 18.2549 21.9567 18.4139 22.0291C18.5729 22.1015 18.7541 22.1078 18.9178 22.0467C19.0814 21.9853 19.2139 21.8616 19.2863 21.7026C19.3587 21.5436 19.365 21.3624 19.3038 21.1987ZM9.45283 30.6471C11.0989 30.6471 12.4351 31.9835 12.4351 33.6295C12.4351 35.2756 11.0989 36.6118 9.45283 36.6118C7.80681 36.6118 6.47043 35.2756 6.47043 33.6295C6.47043 31.9835 7.80681 30.6471 9.45283 30.6471ZM24 30.6471C25.6461 30.6471 26.9824 31.9835 26.9824 33.6295C26.9824 35.2756 25.6461 36.6118 24 36.6118C22.354 36.6118 21.0176 35.2756 21.0176 33.6295C21.0176 31.9835 22.354 30.6471 24 30.6471ZM38.5472 30.6471C40.1933 30.6471 41.5296 31.9835 41.5296 33.6295C41.5296 35.2756 40.1933 36.6118 38.5472 36.6118C36.9012 36.6118 35.5649 35.2756 35.5649 33.6295C35.5649 31.9835 36.9012 30.6471 38.5472 30.6471ZM15.2685 43.7083C15.2685 46.9207 3.63721 46.9207 3.63721 43.7083C3.63721 40.4972 6.24041 37.894 9.45283 37.894C12.6638 37.894 15.2685 40.4972 15.2685 43.7083ZM29.8157 43.7083C29.8157 46.9207 18.1844 46.9207 18.1844 43.7083C18.1844 40.4972 20.7876 37.894 24 37.894C27.2111 37.894 29.8157 40.4972 29.8157 43.7083ZM44.3629 43.7083C44.3629 46.9207 32.7316 46.9207 32.7316 43.7083C32.7316 40.4972 35.3348 37.894 38.5472 37.894C41.7583 37.894 44.3629 40.4972 44.3629 43.7083ZM23.0293 9.49315H28.0198C28.299 9.49316 28.5754 9.43818 28.8334 9.33135C29.0913 9.22451 29.3257 9.06792 29.5231 8.87051C29.7205 8.67309 29.8771 8.43873 29.9839 8.18079C30.0908 7.92286 30.1457 7.6464 30.1457 7.36722V7.28383H42.2992C43.2074 7.28383 43.9487 8.0251 43.9487 8.93324V19.1107C43.9487 20.0188 43.2074 20.7601 42.2992 20.7601H40.9139V25.9143L36.5122 20.7601H24.6788C23.7707 20.7601 23.0293 20.0188 23.0293 19.1107V9.49315ZM37.5255 11.87C37.5255 11.1228 36.9188 10.5161 36.1715 10.5161C35.4242 10.5161 34.8175 11.1228 34.8175 11.87C34.8175 12.6173 35.4242 13.224 36.1715 13.224C36.9188 13.224 37.5255 12.6173 37.5255 11.87ZM32.1605 11.87C32.1605 11.1228 31.5538 10.5161 30.8065 10.5161C30.0592 10.5161 29.4526 11.1228 29.4526 11.87C29.4526 12.6173 30.0592 13.224 30.8065 13.224C31.5538 13.224 32.1605 12.6173 32.1605 11.87ZM36.125 15.2338C35.7254 16.3014 34.6954 17.0625 33.4891 17.0625C32.2827 17.0625 31.2526 16.3014 30.853 15.2338C30.7256 14.8931 30.3456 14.7202 30.0051 14.8476C29.6646 14.975 29.4915 15.355 29.6189 15.6956C30.2056 17.263 31.7179 18.3801 33.4891 18.3801C35.2602 18.3801 36.7725 17.263 37.3591 15.6956C37.4865 15.355 37.3134 14.975 36.9729 14.8476C36.6324 14.7202 36.2525 14.8931 36.125 15.2338ZM20.6634 8.1755V10.1636L15.5293 6.34727C15.4788 6.30966 15.4377 6.26075 15.4094 6.20443C15.3811 6.14812 15.3663 6.08596 15.3663 6.02294C15.3663 5.95991 15.3811 5.89775 15.4094 5.84144C15.4377 5.78513 15.4788 5.73621 15.5293 5.69861L20.6634 1.88232V3.87047H28.0198C28.2342 3.87047 28.4397 3.95564 28.5914 4.10717C28.7429 4.25879 28.8281 4.46438 28.8281 4.67875V7.36722C28.8281 7.58159 28.7429 7.78718 28.5914 7.9388C28.4398 8.09035 28.2342 8.17549 28.0198 8.1755H20.6634Z" fill="#FF845E"></path>
</svg>
