<?xml version="1.0" encoding="UTF-8"?>
<svg xmlns="http://www.w3.org/2000/svg" width="48" height="48" viewBox="0 0 48 48" fill="none">
  <path fill-rule="evenodd" clip-rule="evenodd" d="M32.285 22.924V10.6512C32.285 10.2517 32.1264 9.86878 31.844 9.58633L27.1502 4.8925C27.0103 4.75266 26.8443 4.64174 26.6616 4.56607C26.4789 4.4904 26.2831 4.45145 26.0853 4.45146H6.34846V1.88233C6.34848 1.75753 6.39807 1.63785 6.48632 1.5496C6.57456 1.46136 6.69425 1.41177 6.81905 1.41174H29.878V6.10934C29.878 6.30904 29.9573 6.50055 30.0985 6.64175C30.2397 6.78296 30.4312 6.86229 30.6309 6.86229H35.3247V21.901C34.6622 22.4059 34.4024 22.6693 34.0792 22.7869C33.7335 22.9127 33.3363 22.8641 32.3746 22.918H32.3742C32.3444 22.9197 32.3147 22.9217 32.285 22.924ZM31.3838 2.16525L34.5725 5.3564H31.3838V2.16525ZM29.3021 39.6219L27.4969 43.5117H2.27344C2.14864 43.5117 2.02894 43.4621 1.94069 43.3739C1.85244 43.2856 1.80286 43.1659 1.80286 43.0411V6.42793C1.80286 6.30312 1.85244 6.18343 1.94069 6.09518C2.02894 6.00692 2.14864 5.95734 2.27344 5.95734H25.3324V10.6512C25.3324 10.8509 25.4117 11.0424 25.5529 11.1836C25.6941 11.3248 25.8856 11.4041 26.0853 11.4041H30.7791V23.3846C29.9471 23.8608 29.332 24.6667 29.0977 25.6649L29.0974 25.6663C28.8781 26.6047 28.8575 27.0044 28.6737 27.3233C28.4901 27.6419 28.155 27.86 27.4542 28.519C26.2797 29.6164 25.9847 31.2918 26.7085 32.7286L26.7095 32.7308C27.144 33.5901 27.3849 33.9093 27.4485 34.2713C27.5122 34.6337 27.395 35.0165 27.2812 35.973C27.0947 37.5272 27.8961 38.9652 29.3021 39.6219ZM7.71674 33.4935H24.8691C25.2847 33.4935 25.6221 33.1562 25.6221 32.7406C25.6221 32.3251 25.2847 31.9877 24.8691 31.9877H7.71674C7.30121 31.9877 6.9638 32.3251 6.9638 32.7406C6.9638 33.1562 7.30121 33.4935 7.71674 33.4935ZM6.22883 12.0495V26.6487C6.22883 27.2548 6.60784 27.8874 7.42761 28.3908C8.75467 29.2056 11.4223 29.7961 14.5052 29.7961C17.5881 29.7961 20.2558 29.2056 21.5829 28.3908C22.4026 27.8874 22.7816 27.2548 22.7816 26.6487V12.0495C22.7816 11.4434 22.4026 10.8107 21.5828 10.3074C20.2558 9.4925 17.5881 8.902 14.5052 8.902C11.4223 8.902 8.75467 9.4925 7.42761 10.3074C6.60784 10.8107 6.22883 11.4434 6.22883 12.0495ZM7.73472 23.6967C9.14093 24.4213 11.6444 24.9298 14.5052 24.9298C17.3662 24.9298 19.8695 24.4213 21.2757 23.6967V26.6487C21.2757 26.73 21.2013 26.7882 21.1247 26.8613C20.9284 27.049 20.6373 27.2159 20.2772 27.3722C18.9763 27.937 16.8743 28.2902 14.5052 28.2902C12.1362 28.2902 10.0341 27.937 8.73321 27.3722C8.37312 27.2159 8.08201 27.049 7.88568 26.8613C7.80916 26.7882 7.73472 26.73 7.73472 26.6487V23.6967ZM8.99307 25.0324C8.88083 25.03 8.76924 25.0501 8.66486 25.0914C8.56047 25.1327 8.46539 25.1945 8.38518 25.273C8.30497 25.3516 8.24125 25.4453 8.19775 25.5488C8.15425 25.6523 8.13185 25.7635 8.13186 25.8757C8.13187 25.988 8.1543 26.0991 8.19782 26.2026C8.24134 26.3061 8.30509 26.3999 8.38531 26.4784C8.46554 26.557 8.56064 26.6187 8.66503 26.66C8.76943 26.7013 8.88101 26.7213 8.99326 26.7189C9.21383 26.7143 9.42378 26.6233 9.57811 26.4657C9.73244 26.308 9.81885 26.0962 9.81883 25.8756C9.8188 25.6549 9.73234 25.4431 9.57798 25.2855C9.42361 25.1279 9.21364 25.037 8.99307 25.0324ZM21.2757 16.9159C21.2757 16.9972 21.2013 17.0554 21.1247 17.1285C20.9284 17.3162 20.6373 17.4831 20.2772 17.6394C18.9763 18.2042 16.8743 18.5574 14.5052 18.5574C12.1362 18.5574 10.0341 18.2042 8.73321 17.6394C8.37312 17.4831 8.08201 17.3162 7.88568 17.1285C7.80916 17.0554 7.73472 16.9972 7.73472 16.9159V13.9639C9.14093 14.6884 11.6444 15.197 14.5052 15.197C17.3662 15.197 19.8695 14.6884 21.2757 13.9639V16.9159ZM8.99307 15.2682C8.76936 15.2682 8.55483 15.3571 8.39666 15.5153C8.2385 15.6735 8.14965 15.8881 8.14968 16.1118C8.1497 16.3355 8.2386 16.55 8.3968 16.7082C8.555 16.8664 8.76955 16.9552 8.99326 16.9552C9.10402 16.9552 9.21371 16.9333 9.31604 16.8909C9.41837 16.8485 9.51135 16.7864 9.58966 16.7081C9.66798 16.6297 9.7301 16.5367 9.77247 16.4344C9.81485 16.3321 9.83666 16.2224 9.83664 16.1116C9.83663 16.0008 9.8148 15.8912 9.7724 15.7888C9.73 15.6865 9.66786 15.5935 9.58953 15.5152C9.51119 15.4369 9.4182 15.3748 9.31586 15.3324C9.21352 15.29 9.10384 15.2682 8.99307 15.2682ZM21.2757 21.7823C21.2757 21.8635 21.2013 21.9219 21.1247 21.995C20.9284 22.1827 20.6373 22.3495 20.2772 22.5059C18.9763 23.0707 16.8743 23.4239 14.5052 23.4239C12.1362 23.4239 10.0341 23.0707 8.73321 22.5059C8.37312 22.3495 8.08201 22.1827 7.88568 21.9949C7.80916 21.9219 7.73472 21.8635 7.73472 21.7823V18.8303C9.14093 19.5548 11.6444 20.0633 14.5052 20.0633C17.3662 20.0633 19.8695 19.5548 21.2757 18.8304V21.7823ZM8.99307 20.1323C8.77094 20.1347 8.55871 20.2245 8.40247 20.3824C8.24623 20.5403 8.15859 20.7535 8.15859 20.9757C8.15859 21.1978 8.24623 21.411 8.40247 21.5689C8.55871 21.7268 8.77094 21.8166 8.99307 21.819C9.21674 21.819 9.43124 21.7301 9.5894 21.572C9.74756 21.4138 9.83641 21.1993 9.83641 20.9757C9.83641 20.752 9.74756 20.5375 9.5894 20.3793C9.43124 20.2212 9.21674 20.1323 8.99307 20.1323ZM21.2757 12.0495C21.2757 12.1307 21.2013 12.189 21.1247 12.2621C20.9284 12.4499 20.6373 12.6166 20.2772 12.773C18.9763 13.3379 16.8743 13.6911 14.5052 13.6911C12.1362 13.6911 10.0341 13.3379 8.7333 12.773C8.37312 12.6166 8.08201 12.4499 7.88568 12.2621C7.80916 12.189 7.73472 12.1308 7.73472 12.0495C7.73472 11.9682 7.80916 11.9099 7.88568 11.8368C8.08201 11.6491 8.37312 11.4822 8.73321 11.3259C10.0341 10.7611 12.1362 10.4079 14.5052 10.4079C16.8743 10.4079 18.9763 10.7611 20.2772 11.3259C20.6373 11.4822 20.9284 11.6491 21.1247 11.8368C21.2013 11.9099 21.2757 11.9682 21.2757 12.0495ZM7.71674 38.5485H24.8691C25.2847 38.5485 25.6221 38.2111 25.6221 37.7956C25.6221 37.3799 25.2847 37.0426 24.8691 37.0426H7.71674C7.30121 37.0426 6.9638 37.3799 6.9638 37.7956C6.9638 38.2111 7.30121 38.5485 7.71674 38.5485ZM26.8382 6.71028L30.0262 9.89824H26.8382V6.71028ZM44.9988 39.9978L46.6076 43.7537C46.6279 43.8011 46.6349 43.8531 46.6278 43.9042C46.6206 43.9553 46.5996 44.0034 46.567 44.0434C46.5344 44.0833 46.4915 44.1136 46.4429 44.1309C46.3943 44.1482 46.3419 44.1518 46.2914 44.1414L43.4666 43.5635L41.9484 46.0077C41.9211 46.0517 41.8822 46.0873 41.836 46.1107C41.7898 46.134 41.7381 46.1443 41.6865 46.1402C41.6349 46.1362 41.5854 46.1181 41.5434 46.0878C41.5014 46.0575 41.4686 46.0163 41.4484 45.9686L40.3683 43.4129C41.5232 43.3944 42.6053 42.812 43.2713 41.7949L43.2726 41.7929C43.7989 40.9863 43.9549 40.6176 44.2366 40.381C44.4149 40.2314 44.6365 40.1404 44.9988 39.9978ZM35.4373 43.3732L33.7155 47.0357C33.6936 47.0823 33.6593 47.122 33.6164 47.1505C33.5736 47.1791 33.5237 47.1954 33.4722 47.1976C33.4208 47.1998 33.3697 47.1879 33.3245 47.1632C33.2793 47.1385 33.2417 47.1019 33.2158 47.0574L31.7666 44.5634L28.9272 45.0608C28.8764 45.0697 28.8241 45.0646 28.776 45.0459C28.7279 45.0272 28.6858 44.9956 28.6544 44.9547C28.623 44.9138 28.6034 44.865 28.5977 44.8137C28.5921 44.7624 28.6006 44.7106 28.6223 44.6638L30.6937 40.2005C30.8034 40.2552 30.8944 40.3117 30.9764 40.3805C31.2583 40.6174 31.4148 40.9864 31.9431 41.7942L31.9436 41.7949C32.7225 42.9845 34.0664 43.5799 35.4373 43.3732ZM38.8426 22.9971C40.7808 24.4461 40.3408 24.2861 42.7559 24.4215C43.685 24.4738 44.4388 25.1045 44.6479 26.0089C45.2017 28.3655 44.9679 27.9595 46.7308 29.6177C47.4076 30.2515 47.5799 31.2206 47.1614 32.0512C46.0693 34.2109 46.1493 33.7494 46.4385 36.1522C46.5462 37.0752 46.0571 37.9273 45.2017 38.2903C42.9774 39.2441 43.3343 38.9426 42.0114 40.9701C41.5038 41.7453 40.5777 42.0837 39.6887 41.813C37.3721 41.1146 37.8397 41.1146 35.5262 41.813C34.6339 42.0837 33.711 41.7453 33.2034 40.9701C31.8774 38.9426 32.2374 39.2441 30.013 38.2903C29.1578 37.9273 28.6655 37.0752 28.7763 36.1522C29.0624 33.7494 29.1454 34.2109 28.0533 32.0512C27.635 31.2206 27.8041 30.2515 28.484 29.6177C30.2469 27.9595 30.013 28.3655 30.5637 26.0089C30.776 25.1045 31.5297 24.4738 32.4589 24.4215C34.8739 24.2861 34.434 24.4461 36.3722 22.9971C37.1167 22.4403 38.0981 22.4403 38.8426 22.9971ZM37.6059 38.7665C41.202 38.7665 44.1303 35.8346 44.1303 32.242C44.1303 28.6493 41.202 25.7175 37.6059 25.7175C34.0132 25.7175 31.0814 28.6493 31.0814 32.242C31.0814 35.8346 34.0132 38.7665 37.6059 38.7665ZM37.6059 37.2606C34.8424 37.2606 32.5873 35.0054 32.5873 32.242C32.5873 29.4786 34.8424 27.2234 37.6059 27.2234C40.372 27.2234 42.6244 29.4786 42.6244 32.242C42.6244 35.0054 40.372 37.2606 37.6059 37.2606ZM33.9574 32.9625L35.7757 34.7777C35.9124 34.9142 36.0964 34.9929 36.2895 34.9975C36.4826 35.0022 36.6702 34.9324 36.8133 34.8026L41.2312 30.797C41.539 30.5178 41.5624 30.0413 41.2832 29.7334C41.0041 29.4256 40.5276 29.4022 40.2197 29.6814L36.3326 33.2058L35.0213 31.8967C34.8799 31.7557 34.6884 31.6766 34.4887 31.6768C34.289 31.677 34.0976 31.7564 33.9565 31.8977C33.8155 32.0391 33.7364 32.2306 33.7365 32.4303C33.7367 32.63 33.8162 32.8214 33.9574 32.9625Z" fill="#FF845E"></path>
</svg>
