<?xml version="1.0" encoding="UTF-8"?>
<svg xmlns="http://www.w3.org/2000/svg" width="48" height="48" viewBox="0 0 48 48" fill="none">
  <path d="M20.353 5.92499C18.1874 5.92499 16.4343 7.67812 16.4343 9.85312C16.4343 12.0187 18.1874 13.7719 20.353 13.7719C22.5186 13.7719 24.2811 12.0187 24.2811 9.85312C24.2718 7.67812 22.5186 5.92499 20.353 5.92499ZM17.1561 17.3062L4.49989 17.3156C4.38739 17.3437 4.38739 17.4562 4.41551 17.5594L6.33739 25.2844C6.40301 25.5469 6.70301 25.8 6.96551 25.8L19.6218 25.7906C19.7343 25.7625 19.7343 25.65 19.7155 25.5469L17.7936 17.8219C17.7186 17.5594 17.4186 17.3062 17.1561 17.3062ZM27.2155 25.7906H40.1436V23.2031H27.2155V25.7906ZM38.5968 19.4812H25.6593V22.0687H38.5874V19.4812H38.5968ZM39.1593 18.3562H41.1093V15.7687H28.1811V18.3562H39.1593ZM42.3561 12.0469H29.428V14.6344H42.3561V12.0469ZM44.8311 26.9156H4.62176V29.3344H44.8311V26.9156ZM20.8311 25.7906H26.0905V23.2031H25.0968C24.7874 23.2031 24.5343 22.95 24.5343 22.6406V18.9187C24.5343 18.6094 24.7874 18.3562 25.0968 18.3562H27.0561V16.1625C25.9499 15.0656 24.4686 14.4375 22.8843 14.4375H22.4436C21.8061 14.7281 21.103 14.8875 20.353 14.8875C19.603 14.8875 18.8999 14.7281 18.2624 14.4375H17.8124C16.1905 14.4375 14.7093 15.1031 13.6311 16.1719H17.1561C17.9343 16.1719 18.6936 16.7812 18.8811 17.5406L20.803 25.2656C20.8405 25.4531 20.8499 25.6219 20.8311 25.7906ZM6.33739 43.7062H43.1249V30.4594H6.33739V43.7062ZM6.49676 7.07812C6.29989 6.83437 6.34676 6.48749 6.58114 6.29062C6.82489 6.09374 7.17176 6.13124 7.36864 6.37499L9.14051 8.56874C9.33739 8.81249 9.29989 9.15937 9.05614 9.35624C8.81239 9.55312 8.46551 9.51562 8.26864 9.27187L6.49676 7.07812ZM11.1561 4.07812C11.0718 3.77812 11.2405 3.46874 11.5405 3.38437C11.8405 3.29999 12.1499 3.46874 12.2343 3.76874L13.153 6.88124C13.2374 7.18124 13.0686 7.49062 12.7686 7.57499C12.4686 7.65937 12.1593 7.49062 12.0749 7.19062L11.1561 4.07812ZM6.62801 11.7187C6.93739 11.7469 7.16239 12.0281 7.12489 12.3375C7.09676 12.6469 6.81551 12.8719 6.50614 12.8344L3.14989 12.4687C2.84051 12.4406 2.61551 12.1594 2.65301 11.85C2.69051 11.5406 2.96239 11.3156 3.27176 11.3531L6.62801 11.7187Z" fill="#FF845E"></path>
</svg>
