<?xml version="1.0" encoding="UTF-8"?>
<svg xmlns="http://www.w3.org/2000/svg" width="48" height="48" viewBox="0 0 48 48" fill="none">
  <path d="M28.8299 9.74253H27.0974L27.7274 7.22253C27.8474 6.72753 27.5924 6.19503 27.1124 6.04503C26.6099 5.88753 26.1074 6.15753 25.9349 6.61503L25.1924 8.60253C24.9374 9.28503 24.2849 9.74253 23.5499 9.74253H22.5074V14.25H23.2574L24.3824 15H28.5149C29.1074 15 29.6099 14.55 29.6774 13.9575L29.9999 11.0325C30.0749 10.3425 29.5349 9.73503 28.8374 9.73503L28.8299 9.74253ZM38.3699 17.535L39.9749 18.75L41.5799 17.535C42.4874 16.845 43.2749 15.9675 43.8899 14.9475C44.4599 14.0025 44.3474 12.75 43.6199 11.9475C42.7799 11.0175 41.4224 11.0175 40.5899 11.9475L39.9749 12.63L39.3599 11.9475C38.5199 11.0175 37.1624 11.0175 36.3299 11.9475C35.6099 12.75 35.4974 14.01 36.0599 14.9475C36.6749 15.9675 37.4549 16.845 38.3699 17.535Z" fill="#FF845E"></path>
  <path d="M24 35.25C26.0711 35.25 27.75 33.5711 27.75 31.5C27.75 29.4289 26.0711 27.75 24 27.75C21.9289 27.75 20.25 29.4289 20.25 31.5C20.25 33.5711 21.9289 35.25 24 35.25Z" fill="#FF845E"></path>
  <path d="M18 39.75V46.5H30V39.75C30 37.2675 27.9825 35.25 25.5 35.25H22.5C20.0175 35.25 18 37.2675 18 39.75Z" fill="#FF845E"></path>
  <path d="M39 36C40.7604 36 42.1875 34.5729 42.1875 32.8125C42.1875 31.0521 40.7604 29.625 39 29.625C37.2396 29.625 35.8125 31.0521 35.8125 32.8125C35.8125 34.5729 37.2396 36 39 36Z" fill="#FF845E"></path>
  <path d="M33.75 39.75V45.75H44.25V39.75C44.25 37.68 42.57 36 40.5 36H37.5C35.43 36 33.75 37.68 33.75 39.75Z" fill="#FF845E"></path>
  <path d="M9 36C10.7604 36 12.1875 34.5729 12.1875 32.8125C12.1875 31.0521 10.7604 29.625 9 29.625C7.23959 29.625 5.8125 31.0521 5.8125 32.8125C5.8125 34.5729 7.23959 36 9 36Z" fill="#FF845E"></path>
  <path d="M3.75 39.7499V45.7499H14.25V39.7499C14.25 37.6799 12.57 35.9999 10.5 35.9999H7.5C5.43 35.9999 3.75 37.6799 3.75 39.7499ZM18 9.00745H21V15.0074H18V9.00745Z" fill="#FF845E"></path>
  <path d="M33.75 18V3C33.75 2.175 33.075 1.5 32.25 1.5H15.75C14.925 1.5 14.25 2.175 14.25 3V18C14.25 18.825 14.925 19.5 15.75 19.5H21.96L23.2875 23.49C23.3925 23.7975 23.6775 24 24 24C24.3225 24 24.6075 23.79 24.7125 23.49L26.04 19.5H32.25C33.075 19.5 33.75 18.825 33.75 18ZM25.5 18C25.1775 18 24.8925 18.21 24.7875 18.51L24 20.8725L23.2125 18.51C23.1622 18.361 23.0663 18.2316 22.9385 18.1401C22.8106 18.0486 22.6572 17.9996 22.5 18H15.75V3H32.25V18H25.5Z" fill="#FF845E"></path>
  <path d="M45.75 6.75H36V8.25H45.75V21.75H40.2825C39.9825 21.75 39.7125 21.93 39.5925 22.2075L39 23.595L38.4075 22.2075C38.2875 21.93 38.0175 21.75 37.7175 21.75H32.25V23.25H37.2225L38.31 25.7925C38.43 26.07 38.7 26.25 39 26.25C39.3 26.25 39.57 26.07 39.69 25.7925L40.7775 23.25H45.75C46.575 23.25 47.25 22.575 47.25 21.75V8.25C47.25 7.425 46.575 6.75 45.75 6.75ZM7.2225 23.25L8.31 25.7925C8.43 26.07 8.7 26.25 9 26.25C9.3 26.25 9.57 26.07 9.69 25.7925L10.7775 23.25H15.75V21.75H10.2825C9.9825 21.75 9.7125 21.93 9.5925 22.2075L9 23.595L8.4075 22.2075C8.2875 21.93 8.0175 21.75 7.7175 21.75H2.25V8.25H12V6.75H2.25C1.425 6.75 0.75 7.425 0.75 8.25V21.75C0.75 22.575 1.425 23.25 2.25 23.25H7.2225Z" fill="#FF845E"></path>
  <path d="M8.25 10.5C5.7675 10.5 3.75 12.5175 3.75 15C3.75 17.4825 5.7675 19.5 8.25 19.5C10.7325 19.5 12.75 17.4825 12.75 15C12.75 12.5175 10.7325 10.5 8.25 10.5ZM9 12.75H10.5V14.25H9V12.75ZM6 12.75H7.5V14.25H6V12.75ZM8.25 18C7.62947 17.9996 7.02433 17.8068 6.51794 17.4482C6.01155 17.0896 5.62883 16.5827 5.4225 15.9975L6.8325 15.495C7.0425 16.095 7.6125 16.4925 8.25 16.4925C8.8875 16.4925 9.45 16.0875 9.6675 15.495L11.0775 15.9975C10.8699 16.5819 10.4869 17.088 9.9808 17.4464C9.47468 17.8049 8.87019 17.9982 8.25 18Z" fill="#FF845E"></path>
</svg>
