<?xml version="1.0" encoding="UTF-8"?>
<svg xmlns="http://www.w3.org/2000/svg" width="48" height="48" viewBox="0 0 48 48" fill="none">
  <path fill-rule="evenodd" clip-rule="evenodd" d="M17.0849 37.7444H20.1189C20.5319 37.7444 20.8689 38.0813 20.8689 38.4944V45.6927C20.8689 46.1058 20.5319 46.4427 20.1189 46.4427H17.0849C16.6718 46.4427 16.3349 46.1058 16.3349 45.6927V38.4944C16.3349 38.0813 16.6718 37.7444 17.0849 37.7444ZM43.0281 5.82985C43.1009 6.01244 43.0991 6.2163 43.023 6.39756C42.947 6.57883 42.8029 6.72299 42.6216 6.79904C42.4404 6.87508 42.2365 6.87691 42.0539 6.80415C41.8713 6.73138 41.7246 6.58984 41.6453 6.40997C41.4589 5.96616 40.9905 5.79131 40.5397 5.88206C40.2524 5.94 39.9429 6.12 39.959 6.453C39.9773 6.83128 40.5914 6.94622 40.8807 6.99375C41.9958 7.17685 43.0605 7.66369 43.2132 8.9206C43.2194 8.97131 43.2233 9.03628 43.2252 9.11428C43.2502 10.1674 42.4567 10.8272 41.5056 11.0538V11.1497C41.5056 11.3486 41.4266 11.5394 41.2859 11.68C41.1453 11.8207 40.9545 11.8997 40.7556 11.8997C40.5567 11.8997 40.3659 11.8207 40.2253 11.68C40.0846 11.5394 40.0056 11.3486 40.0056 11.1497V11.0382C39.1732 10.8145 38.5193 10.2293 38.3062 9.37472C38.2597 9.18234 38.2913 8.97937 38.3941 8.81026C38.497 8.64114 38.6626 8.51965 38.8548 8.47238C39.047 8.42511 39.2501 8.45592 39.4196 8.55806C39.5891 8.6602 39.7113 8.82534 39.7593 9.01735C39.8741 9.47766 40.3789 9.65335 40.8082 9.64313C40.8493 9.64219 40.9061 9.63732 40.9785 9.6285C41.2249 9.5986 41.7387 9.4756 41.731 9.14944L41.7248 9.09647C41.671 8.65303 40.9945 8.52853 40.6403 8.47041C39.5549 8.29219 38.5245 7.75669 38.4647 6.5235C38.4161 5.52206 39.0826 4.75735 40.0055 4.47797V4.35319C40.0055 4.15428 40.0845 3.96351 40.2252 3.82286C40.3658 3.68221 40.5566 3.60319 40.7555 3.60319C40.9544 3.60319 41.1452 3.68221 41.2858 3.82286C41.4265 3.96351 41.5055 4.15428 41.5055 4.35319V4.46822C42.1454 4.65628 42.7198 5.09532 43.0281 5.82985ZM40.7557 2.38097C37.7897 2.38097 35.3854 4.78538 35.3854 7.75125C35.3854 10.7172 37.7897 13.1215 40.7557 13.1215C43.7217 13.1215 46.126 10.7172 46.126 7.75125C46.126 4.78528 43.7216 2.38097 40.7557 2.38097ZM24.5282 20.127C25.2634 20.3021 25.966 20.5934 26.6095 20.9898L27.9619 20.3891L29.5559 21.9831L28.9554 23.335C29.352 23.9786 29.6433 24.6814 29.8184 25.4168L31.1982 25.9479V28.2021L29.8181 28.7333C29.6429 29.4685 29.3517 30.171 28.9553 30.8145L29.5559 32.1669L27.962 33.7609L26.61 33.1604C25.9664 33.557 25.2637 33.8483 24.5282 34.0234L23.9971 35.4032H21.7429L21.2117 34.0231C20.4765 33.848 19.774 33.5567 19.1305 33.1603L17.7781 33.761L16.1841 32.167L16.7847 30.8151C16.3881 30.1714 16.0968 29.4687 15.9217 28.7333L14.5419 28.2022V25.948L15.9219 25.4168C16.097 24.6816 16.3883 23.9789 16.7848 23.3354L16.1842 21.9832L17.7781 20.3892L19.1306 20.9899C19.774 20.5935 20.4766 20.3022 21.2118 20.1271L21.7431 18.747H23.9972L24.5282 20.127ZM22.87 23.1439C20.6986 23.1439 18.9388 24.9038 18.9388 27.0751C18.9388 29.2464 20.6986 31.0063 22.87 31.0063C25.0413 31.0063 26.8012 29.2464 26.8012 27.0751C26.8012 24.9037 25.0413 23.1439 22.87 23.1439ZM23.4858 1.55719C24.7418 1.55719 25.7599 2.57541 25.7599 3.83138C25.7599 5.08735 24.7417 6.10547 23.4858 6.10547C22.2299 6.10547 21.2116 5.08735 21.2116 3.83138C21.2116 2.57541 22.2299 1.55719 23.4858 1.55719ZM19.5701 11.057H27.4016C27.4726 11.0573 27.5428 11.0414 27.6068 11.0105C27.6707 10.9796 27.7268 10.9345 27.7707 10.8786C27.8147 10.8228 27.8453 10.7577 27.8602 10.6882C27.8752 10.6188 27.8741 10.5468 27.8571 10.4779C27.3794 8.50697 25.6036 7.04316 23.4858 7.04316C21.368 7.04316 19.5922 8.50697 19.1145 10.4779C19.0975 10.5468 19.0964 10.6188 19.1114 10.6882C19.1264 10.7577 19.157 10.8228 19.2009 10.8786C19.2448 10.9345 19.3009 10.9796 19.3649 11.0105C19.4289 11.0414 19.499 11.0573 19.5701 11.057ZM14.5418 1.55719C13.2858 1.55719 12.2676 2.57541 12.2676 3.83138C12.2676 5.08735 13.2858 6.10547 14.5418 6.10547C15.7978 6.10547 16.8159 5.08735 16.8159 3.83138C16.8159 2.57541 15.7978 1.55719 14.5418 1.55719ZM18.4575 11.057H10.6261C10.5551 11.0573 10.4849 11.0414 10.4209 11.0105C10.357 10.9796 10.3009 10.9345 10.257 10.8786C10.2131 10.8228 10.1824 10.7577 10.1675 10.6882C10.1525 10.6188 10.1536 10.5468 10.1706 10.4779C10.6483 8.50697 12.4241 7.04316 14.5419 7.04316C16.6597 7.04316 18.4356 8.50688 18.9133 10.4779C18.9302 10.5469 18.9313 10.6188 18.9163 10.6883C18.9013 10.7577 18.8707 10.8228 18.8267 10.8786C18.7828 10.9345 18.7267 10.9796 18.6627 11.0105C18.5988 11.0414 18.5286 11.0573 18.4575 11.057ZM5.59795 1.55719C6.85391 1.55719 7.87213 2.57541 7.87213 3.83138C7.87213 5.08735 6.85391 6.10547 5.59795 6.10547C4.34198 6.10547 3.32376 5.08735 3.32376 3.83138C3.32376 2.57541 4.34198 1.55719 5.59795 1.55719ZM1.6822 11.057H9.5137C9.58474 11.0573 9.65491 11.0414 9.71888 11.0105C9.78285 10.9796 9.83893 10.9345 9.88285 10.8786C9.92677 10.8228 9.95738 10.7577 9.97235 10.6882C9.98732 10.6188 9.98625 10.5468 9.96923 10.4779C9.49157 8.50697 7.71576 7.04316 5.59795 7.04316C3.48013 7.04316 1.70432 8.50697 1.22666 10.4779C1.20964 10.5468 1.20857 10.6188 1.22354 10.6882C1.23851 10.7577 1.26912 10.8228 1.31304 10.8786C1.35696 10.9345 1.41304 10.9796 1.47701 11.0105C1.54098 11.0414 1.61115 11.0573 1.6822 11.057ZM1.5246 13.3896H27.5591C27.6647 13.3899 27.7659 13.432 27.8406 13.5066C27.9153 13.5813 27.9574 13.6826 27.9577 13.7882V15.9078C27.9574 16.0134 27.9153 16.1146 27.8406 16.1893C27.7659 16.264 27.6647 16.3061 27.5591 16.3064H1.5246C1.41898 16.3061 1.31777 16.264 1.24309 16.1893C1.1684 16.1146 1.1263 16.0134 1.12598 15.9078V13.7882C1.12627 13.6826 1.16837 13.5813 1.24306 13.5066C1.31775 13.432 1.41897 13.3899 1.5246 13.3896ZM20.4977 17.8063H3.93445L11.1376 24.9213L13.0418 24.9181L14.6895 24.2838C14.8085 23.9354 14.9496 23.5951 15.1121 23.2648L14.3952 21.6506L17.4456 18.6002L19.0599 19.3172C19.3901 19.1548 19.7304 19.0137 20.0787 18.8948L20.4977 17.8063ZM11.8969 26.4213V32.1821L15.0884 30.8371C14.9358 30.5219 14.8026 30.1977 14.6894 29.8662L13.0419 29.232V26.4213H11.8969ZM32.5282 24.8527C36.4508 22.4792 40.3268 19.688 44.0595 16.3973L42.538 16.4798C42.3419 16.4865 42.151 16.4159 42.0065 16.2832C41.8619 16.1504 41.7753 15.9662 41.7653 15.7703C41.7553 15.5743 41.8227 15.3822 41.953 15.2355C42.0833 15.0887 42.266 14.9991 42.4618 14.9858L46.0878 14.7889C46.5589 14.7649 46.9319 15.1788 46.8666 15.6413L46.3439 19.235C46.3142 19.4301 46.2087 19.6056 46.0504 19.7233C45.892 19.841 45.6936 19.8915 45.4982 19.8637C45.3028 19.8359 45.1263 19.7321 45.0071 19.5748C44.8879 19.4176 44.8355 19.2197 44.8615 19.024L45.0851 17.4888C41.0823 21.0215 36.9148 23.9913 32.6982 26.4948V24.9182L32.5282 24.8527ZM42.3419 24.1472C41.9288 24.1472 41.5919 24.4841 41.5919 24.8972V45.6927C41.5919 46.1058 41.9288 46.4427 42.3419 46.4427H45.376C45.789 46.4427 46.126 46.1058 46.126 45.6927V24.8972C46.126 24.4841 45.789 24.1472 45.376 24.1472H42.3419ZM36.957 28.4282H33.923C33.5099 28.4282 33.173 28.7651 33.173 29.1782V45.6928C33.173 46.1059 33.5099 46.4428 33.923 46.4428H36.957C37.3701 46.4428 37.707 46.1059 37.707 45.6928V29.1782C37.707 28.7651 37.3702 28.4282 36.957 28.4282ZM24.754 36.9032V45.6928C24.754 46.1059 25.0909 46.4428 25.504 46.4428H28.5381C28.9512 46.4428 29.2881 46.1059 29.2881 45.6928V34.5562L28.2944 35.5499L26.6805 34.8331C26.3501 34.9956 26.0096 35.1367 25.6612 35.2557L25.027 36.9033H24.754V36.9032Z" fill="#FF845E"></path>
</svg>
