<svg xmlns="http://www.w3.org/2000/svg" width="60" height="60" viewBox="0 0 60 60" fill="none"><g clip-path="url(#clip0_2424_2045)"><path d="M58.2422 45.4547H56.0695C55.834 44.2676 55.3664 43.1648 54.716 42.1945L56.2547 40.6559C56.9414 39.9691 56.9414 38.8559 56.2547 38.1691C55.568 37.4824 54.4547 37.4824 53.7691 38.1691L52.2293 39.7078C51.243 39.046 50.1353 38.5859 48.9703 38.3543V36.1816C48.9703 35.2113 48.1828 34.4238 47.2125 34.4238C46.241 34.4238 45.4547 35.2113 45.4547 36.1816V38.3543C44.2676 38.5898 43.1648 39.0574 42.1945 39.7078L40.6547 38.1691C39.9691 37.4824 38.8559 37.4824 38.1691 38.1691C37.4824 38.8559 37.4824 39.9691 38.1691 40.6559L39.7078 42.1945C39.0457 43.1812 38.5857 44.2892 38.3543 45.4547H36.1816C35.2113 45.4547 34.4238 46.241 34.4238 47.2125C34.4238 48.1828 35.2113 48.9703 36.1816 48.9703H38.3543C38.5898 50.1563 39.0574 51.259 39.7078 52.2293L38.1691 53.768C37.4871 54.45 37.4871 55.5727 38.1691 56.2547C38.8512 56.9355 39.9727 56.9367 40.6547 56.2547L42.1945 54.716C43.1812 55.3781 44.2892 55.8381 45.4547 56.0695V58.2422C45.4547 59.2125 46.241 60 47.2125 60C48.1828 60 48.9703 59.2125 48.9703 58.2422V56.0695C50.1562 55.834 51.259 55.3664 52.2293 54.716L53.7691 56.2547C54.4512 56.9367 55.5727 56.9355 56.2547 56.2547C56.9367 55.5727 56.9367 54.45 56.2547 53.768L54.716 52.2293C55.3779 51.243 55.8379 50.1353 56.0695 48.9703H58.2422C59.2066 48.9703 60 48.177 60 47.2125C60 46.248 59.2066 45.4547 58.2422 45.4547ZM47.2125 48.9703C46.248 48.9703 45.4547 48.177 45.4547 47.2125C45.4547 46.248 46.248 45.4547 47.2125 45.4547C48.177 45.4547 48.9703 46.248 48.9703 47.2125C48.9703 48.177 48.177 48.9703 47.2125 48.9703ZM14.0051 53.7668C13.241 53.7668 12.4723 53.6016 11.782 53.291L4.00781 49.8035V56.5758C4.00781 57.5461 4.79531 58.3336 5.76562 58.3336H22.2457C23.2172 58.3336 24.0035 57.5461 24.0035 56.5758V49.8047L16.2293 53.291C15.5302 53.606 14.7719 53.7682 14.0051 53.7668Z" fill="#FF845E"></path><path d="M27.0363 41.7489L14.7867 36.2564C14.2951 36.0354 13.715 36.0346 13.2234 36.2564L0.976172 41.7489C0.379219 42.0162 0 42.5682 0 43.1699C0 43.7716 0.379219 44.3236 0.976172 44.5909L13.2234 50.0844C13.7168 50.3062 14.2945 50.306 14.7879 50.0844L27.0363 44.5909C27.6327 44.3231 28.0113 43.7713 28.0113 43.1699C28.0113 42.5685 27.6327 42.0166 27.0363 41.7489ZM2.3502 37.5437C2.46949 37.5437 2.59043 37.5315 2.71172 37.5062C3.66199 37.3076 4.27137 36.3762 4.07262 35.4259C3.70312 33.6579 3.51562 31.8323 3.51562 30C3.51562 22.6414 6.4623 15.8046 11.8127 10.7487C12.5183 10.082 12.5498 8.96941 11.8832 8.26371C11.2165 7.55824 10.1039 7.52648 9.39832 8.1934C6.46184 10.968 4.15102 14.2424 2.52984 17.9251C0.851133 21.7386 0 25.8012 0 30C0 32.0735 0.212344 34.1411 0.631406 36.1452C0.804609 36.9743 1.53563 37.5437 2.3502 37.5437ZM56.4844 30C56.4844 30.966 56.4319 31.9382 56.3283 32.8894C56.2233 33.8545 56.9204 34.7221 57.8856 34.8272C57.9503 34.8342 58.0144 34.8376 58.078 34.8376C58.9635 34.8376 59.7253 34.1704 59.8234 33.2699C59.9406 32.1927 60.0001 31.0925 60.0001 30C60.0001 25.8012 59.149 21.7386 57.4704 17.9252C55.8492 14.2424 53.5383 10.9682 50.6019 8.19352C49.8966 7.52672 48.7837 7.55824 48.1171 8.26383C47.4504 8.96941 47.4818 10.082 48.1875 10.7488C53.5377 15.8046 56.4844 22.6414 56.4844 30ZM44.1035 1.75781C44.1035 0.7875 43.3172 0 42.3457 0H35.7105L35.6671 0.000117188C33.4977 0.0125391 31.7578 1.8034 31.7578 3.97277V15.0152H44.1035V1.75781ZM44.1035 20.4129V18.5309H31.7578V22.1707H42.3457C43.3172 22.1707 44.1035 21.3832 44.1035 20.4129ZM24.3329 0.000117188L24.2895 0H17.6543C16.6828 0 15.8965 0.7875 15.8965 1.75781V15.0152H28.2422V3.97277C28.2422 1.8034 26.5023 0.0125391 24.3329 0.000117188ZM15.8965 20.4129C15.8965 21.3832 16.6828 22.1707 17.6543 22.1707H28.2422V18.5309H15.8965V20.4129Z" fill="#FF845E"></path></g><defs><clipPath id="clip0_2424_2045"><rect width="60" height="60" fill="white"></rect></clipPath></defs></svg>