<?xml version="1.0" encoding="UTF-8"?>
<svg xmlns="http://www.w3.org/2000/svg" width="50" height="50" viewBox="0 0 50 50" fill="none">
  <path fill-rule="evenodd" clip-rule="evenodd" d="M37.7841 10.2441V15.7324C38.4941 15.9766 39.0048 16.6494 39.0048 17.4404C39.0048 18.2314 38.4931 18.9033 37.7841 19.1475V20.6934C37.7841 21.0166 37.5224 21.2793 37.1982 21.2793C36.8749 21.2793 36.6122 21.0166 36.6122 20.6934V19.1475C35.9033 18.9033 35.3915 18.2314 35.3915 17.4404C35.3915 16.6494 35.9033 15.9775 36.6122 15.7334V10.2441C36.6122 9.9209 36.8749 9.6582 37.1982 9.6582C37.5224 9.6582 37.7841 9.9209 37.7841 10.2441ZM13.499 44.668L7.82611 31.459C7.61127 30.96 7.03119 30.7275 6.53314 30.9424L3.3681 32.3018C2.86908 32.5156 2.63763 33.0957 2.85248 33.5947L8.52435 46.8047C8.73822 47.3037 9.31928 47.5352 9.81732 47.3213L12.9824 45.9619C13.2226 45.8584 13.4091 45.667 13.5068 45.4219C13.6044 45.1758 13.6015 44.9082 13.499 44.668ZM23.2704 30.4082C23.6279 30.7354 24.0126 30.9463 24.4804 31.0732L30.3232 32.6553C30.9765 32.832 31.4667 33.2246 31.7822 33.8232C32.0976 34.4219 32.1445 35.0488 31.9218 35.6875L31.9091 35.7246C31.5048 36.8838 30.2607 37.5361 29.0771 37.21L20.8671 34.9492C20.5556 34.8643 20.2324 35.0469 20.1464 35.3594C20.0605 35.6709 20.2441 35.9932 20.5556 36.0791L28.7656 38.3398C29.0742 38.4248 29.3857 38.4658 29.6923 38.4658C31.1513 38.4658 32.5126 37.5479 33.0146 36.1104L33.0273 36.0732C33.2294 35.4941 33.2802 34.9053 33.1816 34.333L44.4023 31.3437C45.2499 31.1172 46.0703 31.3223 46.7119 31.9209C47.3535 32.5195 47.6152 33.3232 47.4492 34.1846C47.4042 34.418 47.3329 34.6543 47.2382 34.8877C46.8564 35.8252 46.1835 36.4844 45.2372 36.8447L29.6249 42.8018C28.204 43.3438 26.8085 43.3809 25.3593 42.916L19.1181 40.9102C18.1035 40.584 17.0869 40.6689 16.0966 41.1621L13.7656 42.3223L9.70892 32.874L16.8261 29.4053C18.1386 28.7656 19.5038 28.6855 21.0009 29.1582C21.9023 29.4414 22.6865 29.874 23.2704 30.4082ZM33.4658 6.59277C28.5712 6.59277 24.5898 10.5742 24.5898 15.4687C24.5898 20.3633 28.5712 24.3447 33.4658 24.3447C38.3603 24.3447 42.3417 20.3633 42.3417 15.4687C42.3417 10.5742 38.3603 6.59277 33.4658 6.59277ZM42.3007 21.5225C43.1513 20.2842 43.7206 18.9092 43.9941 17.4355C44.0154 17.3216 44.0701 17.2166 44.151 17.1337C44.232 17.0508 44.3358 16.9937 44.4492 16.9697L46.2607 16.5869V14.3516L44.4492 13.9687C44.3358 13.9444 44.2321 13.8871 44.1512 13.804C44.0702 13.721 44.0156 13.6159 43.9941 13.502C43.7206 12.0293 43.1513 10.6543 42.3007 9.41504C42.1669 9.21973 42.163 8.96289 42.2929 8.76367L43.3027 7.21191L41.7226 5.63086L40.1699 6.6416C40.0727 6.7049 39.9589 6.73795 39.843 6.73656C39.727 6.73516 39.6141 6.6994 39.5185 6.63379C38.2802 5.7832 36.9052 5.21289 35.4326 4.93945C35.3185 4.9185 35.2133 4.86416 35.1302 4.78331C35.0471 4.70247 34.9898 4.59876 34.9658 4.48535L34.5829 2.67383H32.3476L31.9648 4.48535C31.9409 4.5987 31.8839 4.70239 31.8009 4.78324C31.718 4.8641 31.6129 4.91847 31.499 4.93945C30.0263 5.21289 28.6513 5.7832 27.412 6.63379C27.3164 6.6994 27.2035 6.73516 27.0876 6.73656C26.9716 6.73795 26.8578 6.7049 26.7607 6.6416L25.2089 5.63086L23.6279 7.21191L24.6386 8.76367C24.7018 8.86093 24.7346 8.97474 24.7331 9.09069C24.7315 9.20664 24.6956 9.31952 24.6298 9.41504C23.7792 10.6533 23.2099 12.0283 22.9365 13.502C22.9153 13.6161 22.8608 13.7213 22.7798 13.8044C22.6988 13.8875 22.5949 13.9447 22.4814 13.9687L20.6708 14.3516V16.5869L22.4814 16.9697C22.7138 17.0186 22.8935 17.2031 22.9365 17.4355C23.2099 18.9082 23.7792 20.2832 24.6298 21.5225C24.6956 21.618 24.7315 21.7309 24.7331 21.8468C24.7346 21.9628 24.7018 22.0766 24.6386 22.1738L23.6279 23.7266L25.2079 25.3066L26.7597 24.2969C26.8568 24.2333 26.9706 24.2001 27.0866 24.2015C27.2026 24.2029 27.3156 24.2388 27.4111 24.3047C28.6494 25.1553 30.0244 25.7246 31.498 25.998C31.612 26.0191 31.7173 26.0736 31.8002 26.1546C31.8832 26.2357 31.9401 26.3396 31.9638 26.4531L32.3466 28.2637H34.582L34.9648 26.4531C35.0136 26.2207 35.1982 26.041 35.4316 25.998C36.9042 25.7246 38.2792 25.1553 39.5175 24.3047C39.613 24.2388 39.726 24.2029 39.842 24.2015C39.958 24.2002 40.0718 24.2333 40.1689 24.2969L41.7216 25.3066L43.3017 23.7266L42.2919 22.1738C42.2295 22.0763 42.197 21.9626 42.1985 21.8468C42.2001 21.731 42.2356 21.6182 42.3007 21.5225ZM37.1982 16.8047C36.8486 16.8047 36.5634 17.0889 36.5634 17.4395C36.5634 17.7891 36.8486 18.0742 37.1982 18.0742C37.5488 18.0742 37.8329 17.7891 37.8329 17.4395C37.8329 17.0898 37.5488 16.8047 37.1982 16.8047ZM32.831 13.8027C32.831 13.4531 33.1162 13.168 33.4658 13.168C33.8154 13.168 34.1005 13.4531 34.1005 13.8027C34.1005 14.1533 33.8154 14.4375 33.4658 14.4375C33.1162 14.4375 32.831 14.1533 32.831 13.8027ZM30.3681 16.5498C30.3681 16.7182 30.3012 16.8796 30.1822 16.9987C30.0631 17.1177 29.9017 17.1846 29.7333 17.1846C29.565 17.1846 29.4035 17.1177 29.2845 16.9987C29.1654 16.8796 29.0986 16.7182 29.0986 16.5498C29.0986 16.2002 29.3837 15.915 29.7333 15.915C30.0829 15.915 30.3681 16.2002 30.3681 16.5498ZM35.2724 13.8027C35.2724 14.5937 34.7607 15.2656 34.0517 15.5098V20.6934C34.0517 21.0166 33.789 21.2793 33.4658 21.2793C33.1415 21.2793 32.8798 21.0166 32.8798 20.6934V15.5098C32.1708 15.2656 31.6591 14.5937 31.6591 13.8027C31.6591 13.0117 32.1708 12.3398 32.8798 12.0957V10.2441C32.8798 9.9209 33.1425 9.6582 33.4658 9.6582C33.789 9.6582 34.0517 9.9209 34.0517 10.2441V12.0957C34.7607 12.3398 35.2724 13.0117 35.2724 13.8027ZM30.3193 14.8428C31.0283 15.0869 31.54 15.7598 31.54 16.5498C31.54 17.3408 31.0283 18.0137 30.3193 18.2578V20.6934C30.3193 21.0166 30.0566 21.2793 29.7333 21.2793C29.4101 21.2793 29.1474 21.0166 29.1474 20.6934V18.2578C28.4384 18.0137 27.9267 17.3408 27.9267 16.5498C27.9267 15.7598 28.4384 15.0869 29.1474 14.8428V10.2441C29.1474 9.9209 29.4101 9.6582 29.7333 9.6582C30.0566 9.6582 30.3193 9.9209 30.3193 10.2441V14.8428ZM33.4658 7.76465C29.2177 7.76465 25.7617 11.2207 25.7617 15.4687C25.7617 19.7168 29.2177 23.1729 33.4658 23.1729C37.7138 23.1729 41.1708 19.7168 41.1708 15.4687C41.1708 11.2197 37.7138 7.76465 33.4658 7.76465Z" fill="#FF845E"></path>
</svg>
