<svg xmlns="http://www.w3.org/2000/svg" width="32" height="32" viewBox="0 0 32 32" fill="none"><path d="M11.5537 13.401C11.5537 15.0944 10.1751 16.473 8.48169 16.473C6.78828 16.473 5.40969 15.0944 5.40969 13.401V13.3664L3.98693 11.9437C3.83525 11.7939 3.83525 11.552 3.98693 11.4022C4.13675 11.2505 4.37862 11.2505 4.52844 11.4022L5.56522 12.4391C5.8686 11.5174 6.59816 10.7879 7.51982 10.4845L6.09894 9.06372C5.94726 8.9139 5.94726 8.67203 6.09894 8.52221C6.24876 8.37053 6.49063 8.37053 6.64045 8.52221L8.4471 10.329H8.4817C10.1751 10.329 11.5537 11.7076 11.5537 13.401Z" fill="#FF845E"></path><path d="M17.1006 20.0902C16.7223 19.1206 16.8432 18.0224 17.4231 17.1545C17.4383 17.1318 17.4556 17.1106 17.4749 17.0911C17.4749 17.0911 18.0817 16.4019 18.0817 13.977C18.0817 8.87555 14.7083 7.25696 13.2817 7.25696C13.0897 7.25696 12.9841 7.27618 12.8977 7.44896L12.6577 7.81955L11.8244 6.98621C11.7534 6.91327 11.6555 6.87296 11.5537 6.87296H10.1771L8.94443 5.64221C8.79462 5.49052 8.55274 5.49052 8.40293 5.64221C8.25124 5.79202 8.25124 6.0339 8.40293 6.18371L9.74693 7.52771C9.81799 7.60065 9.91596 7.64096 10.0177 7.64096H11.3943L12.2929 8.53758L11.5537 9.94496C12.6116 10.8934 13.1818 12.2988 13.0763 13.7446C12.9265 15.8105 11.3771 17.5559 9.33996 17.9302C8.90983 18.009 8.47783 18.0282 8.05549 17.9897C7.74827 17.961 7.45258 18.1108 7.3143 18.3853L7.22412 18.56C7.08968 18.8519 6.9995 19.1705 6.9649 19.5046L5.98569 18.4351V17.049C5.98569 16.9471 5.94538 16.8493 5.87244 16.7782L4.52844 15.4342C4.37862 15.2825 4.13675 15.2825 3.98693 15.4342C3.83525 15.584 3.83525 15.8259 3.98693 15.9757L5.21769 17.2083V18.585C5.21769 18.681 5.25416 18.7731 5.31753 18.8422L7.09156 20.7757C7.22412 21.2039 7.45259 21.5994 7.75981 21.9257L11.836 26.0057C12.1872 26.3551 12.3312 26.457 12.6097 26.457C12.8881 26.457 13.0321 26.3551 13.3835 26.0057L14.6218 24.7654L13.9134 23.5828C13.8404 23.4637 13.8385 23.3159 13.9076 23.1948C13.9748 23.0759 14.1035 23.001 14.2417 23.001H15.772L15.7777 22.473C15.7777 22.0237 16.1444 21.657 16.5937 21.657H17.6977C17.6977 21.4285 17.5095 21.0157 17.3444 20.6528C17.26 20.4685 17.1735 20.2765 17.1006 20.0902ZM16.1617 17.049H14.7831L15.7604 18.0262C15.9102 18.176 15.9102 18.4199 15.7604 18.5696C15.6855 18.6445 15.5876 18.6828 15.4878 18.6828C15.3898 18.6828 15.292 18.6445 15.2171 18.5696L13.5851 16.9357C13.4756 16.8262 13.4429 16.6611 13.5025 16.5171C13.562 16.3751 13.7022 16.281 13.8577 16.281H16.1617C16.3729 16.281 16.5457 16.4537 16.5457 16.665C16.5457 16.8762 16.3729 17.049 16.1617 17.049ZM27.6817 27.225H19.2337C18.3867 27.225 17.6977 26.5359 17.6977 25.689V25.305C17.6977 24.458 18.3867 23.769 19.2337 23.769H20.0017C20.4252 23.769 20.7697 23.4244 20.7697 23.001V22.041C20.7697 21.6175 20.4252 21.273 20.0017 21.273H19.0417C18.8296 21.273 18.6577 21.101 18.6577 20.889C18.6577 20.6769 18.8296 20.505 19.0417 20.505H20.0017C20.8486 20.505 21.5377 21.194 21.5377 22.041V23.001C21.5377 23.8479 20.8486 24.537 20.0017 24.537H19.2337C18.8102 24.537 18.4657 24.8815 18.4657 25.305V25.689C18.4657 26.1124 18.8102 26.457 19.2337 26.457H27.6817C27.8938 26.457 28.0657 26.6289 28.0657 26.841C28.0657 27.053 27.8938 27.225 27.6817 27.225Z" fill="#FF845E"></path><path d="M25.1856 26.073C25.1281 26.073 25.0713 26.0601 25.0194 26.0352C24.9676 26.0103 24.922 25.974 24.886 25.9292C24.5826 25.5505 21.9216 22.182 21.9216 20.505C21.9216 18.7052 23.3859 17.241 25.1856 17.241C26.9854 17.241 28.4496 18.7052 28.4496 20.505C28.4496 22.182 25.7887 25.5505 25.4853 25.9292C25.4493 25.974 25.4037 26.0103 25.3518 26.0352C25.3 26.0601 25.2432 26.073 25.1856 26.073ZM25.1856 18.009C23.8093 18.009 22.6896 19.1286 22.6896 20.505C22.6896 21.5669 24.2853 23.8822 25.1856 25.0643C26.0859 23.8818 27.6816 21.566 27.6816 20.505C27.6816 19.1286 26.5619 18.009 25.1856 18.009Z" fill="#FF845E"></path><path d="M25.1857 21.8489C25.9279 21.8489 26.5297 21.2472 26.5297 20.5049C26.5297 19.7627 25.9279 19.1609 25.1857 19.1609C24.4434 19.1609 23.8417 19.7627 23.8417 20.5049C23.8417 21.2472 24.4434 21.8489 25.1857 21.8489Z" fill="#FF845E"></path><path d="M19.8097 20.1209H19.8096C19.7521 20.1209 19.6953 20.108 19.6434 20.0831C19.5916 20.0582 19.546 20.0219 19.51 19.977C19.4536 19.9065 18.119 18.2342 17.2617 16.6436C17.1611 16.4569 17.2309 16.2239 17.4176 16.1233C17.6043 16.0228 17.8372 16.0925 17.9378 16.2793C18.5233 17.3656 19.3671 18.5251 19.8108 19.1107C20.7113 17.9276 22.3057 15.613 22.3057 14.5529C22.3057 13.1766 21.186 12.0569 19.8097 12.0569C19.1481 12.0569 18.5261 12.3126 18.0584 12.7768C17.908 12.9263 17.6648 12.9253 17.5154 12.7749C17.366 12.6243 17.3669 12.3812 17.5174 12.2318C18.1299 11.6238 18.944 11.2889 19.8097 11.2889C21.6095 11.2889 23.0737 12.7531 23.0737 14.5529C23.0737 16.2291 20.4128 19.5984 20.1094 19.977C20.0734 20.0219 20.0278 20.0582 19.9759 20.0831C19.924 20.108 19.8672 20.1209 19.8097 20.1209Z" fill="#FF845E"></path><path d="M19.8097 15.897C20.552 15.897 21.1537 15.2953 21.1537 14.553C21.1537 13.8107 20.552 13.209 19.8097 13.209C19.0674 13.209 18.4657 13.8107 18.4657 14.553C18.4657 15.2953 19.0674 15.897 19.8097 15.897Z" fill="#FF845E"></path></svg>