<svg xmlns="http://www.w3.org/2000/svg" width="60" height="60" viewBox="0 0 60 60" fill="none"><path d="M53.6091 24.4182L47.5182 27.6091L33.9546 29.5728V32.5091H48.5818V39.3091L41.0546 41.1728C40.6455 41.2728 40.3546 41.6455 40.3546 42.0728L40.3364 58.1819H44.9727L44.9455 46.2364C44.9455 45.7273 45.3636 45.3091 45.8727 45.3091H52.9909C55.1364 45.3091 56.8727 43.5728 56.8727 41.4273V27.6819C56.8727 25.8728 55.4091 24.4182 53.6091 24.4182ZM48.8273 24.1001C51.5364 24.1001 53.7273 21.9091 53.7273 19.2001C53.7273 16.491 51.5364 14.3001 48.8273 14.3001C46.1182 14.3001 43.9273 16.491 43.9273 19.2001C43.9273 21.9001 46.1182 24.1001 48.8273 24.1001ZM22.0636 21.2455C24.7727 21.2455 26.9636 19.0546 26.9636 16.3455C26.9636 13.6364 24.7727 11.4455 22.0636 11.4455C19.3546 11.4455 17.1636 13.6364 17.1636 16.3455C17.1727 19.0546 19.3636 21.2455 22.0636 21.2455ZM31.5818 12.3091H40.2273L43.2273 14.3728V7.06369C43.2273 4.16369 40.8818 1.81824 37.9818 1.81824H31.5818C28.6818 1.81824 26.3364 4.16369 26.3364 7.06369C26.3364 9.96369 28.6818 12.3091 31.5818 12.3091ZM30.8546 4.50006H38.4C38.9 4.50006 39.3091 4.90915 39.3091 5.40915C39.3091 5.90915 38.9 6.31824 38.4 6.31824H30.8546C30.3546 6.31824 29.9455 5.90915 29.9455 5.40915C29.9455 4.90915 30.3546 4.50006 30.8546 4.50006ZM30.8546 7.80915H34.7727C35.2727 7.80915 35.6818 8.21824 35.6818 8.71824C35.6818 9.21824 35.2727 9.62733 34.7727 9.62733H30.8546C30.3546 9.62733 29.9455 9.21824 29.9455 8.71824C29.9455 8.21824 30.3546 7.80915 30.8546 7.80915ZM10.6909 44.5637H33.4364V58.1819H10.6909V44.5637ZM16.8909 29.6819C16.8909 29.1819 17.3 28.7728 17.8 28.7728C18.3 28.7728 18.7091 29.1819 18.7091 29.6819V32.5091H25.4273V29.6819C25.4273 29.1819 25.8364 28.7728 26.3364 28.7728C26.8364 28.7728 27.2455 29.1819 27.2455 29.6819V32.5091H31.3727V27.891C31.3727 27.7182 31.3636 27.5455 31.3455 27.3728C31.1 24.9091 28.8727 23.1182 26.3909 23.1182H17.7364C15.2636 23.1182 13.0364 24.9091 12.7818 27.3728C12.7636 27.5455 12.7546 27.7182 12.7546 27.891V32.5091H16.8818V29.6819H16.8909Z" fill="#FF845E"></path><path d="M3.12732 34.3273H41.0091V37.7273H3.12732V34.3273ZM10.7 42.7455H33.4455L39.3364 39.5455H4.80005L10.7 42.7455Z" fill="#FF845E"></path></svg>