<svg xmlns="http://www.w3.org/2000/svg" width="32" height="32" viewBox="0 0 32 32" fill="none"><path d="M16 2C11.58 2 7.505 4.047 4.863 7.524C4.77956 7.36713 4.65536 7.23566 4.50349 7.14344C4.35161 7.05122 4.17767 7.00167 4 7C3.73478 7 3.48043 7.10536 3.29289 7.29289C3.10536 7.48043 3 7.73478 3 8V10C3 10.2652 3.10536 10.5196 3.29289 10.7071C3.48043 10.8946 3.73478 11 4 11H6C6.26522 11 6.51957 10.8946 6.70711 10.7071C6.89464 10.5196 7 10.2652 7 10C6.99809 9.78014 6.92275 9.56723 6.78595 9.3951C6.64915 9.22297 6.45875 9.1015 6.245 9.05C8.5 5.886 12.087 4 16 4C22.617 4 28 9.383 28 16C28 16.2652 28.1054 16.5196 28.2929 16.7071C28.4804 16.8946 28.7348 17 29 17C29.2652 17 29.5196 16.8946 29.7071 16.7071C29.8946 16.5196 30 16.2652 30 16C30 8.28 23.72 2 16 2ZM28 21H26C25.7348 21 25.4804 21.1054 25.2929 21.2929C25.1054 21.4804 25 21.7348 25 22C25 22.465 25.325 22.84 25.755 22.95C23.501 26.114 19.908 28 16 28C9.383 28 4 22.617 4 16C4 15.7348 3.89464 15.4804 3.70711 15.2929C3.51957 15.1054 3.26522 15 3 15C2.73478 15 2.48043 15.1054 2.29289 15.2929C2.10536 15.4804 2 15.7348 2 16C2 23.72 8.28 30 16 30C20.415 30 24.483 27.937 27.125 24.458C27.2071 24.6199 27.3322 24.7561 27.4865 24.8517C27.6408 24.9472 27.8185 24.9986 28 25C28.2652 25 28.5196 24.8946 28.7071 24.7071C28.8946 24.5196 29 24.2652 29 24V22C29 21.7348 28.8946 21.4804 28.7071 21.2929C28.5196 21.1054 28.2652 21 28 21Z" fill="#FF845E"></path><path d="M23 13H22.92C22.432 9.613 19.52 7 16 7C12.48 7 9.568 9.613 9.08 13H9C7.897 13 7 13.897 7 15V17C7 18.103 7.897 19 9 19H11C11.2652 19 11.5196 18.8946 11.7071 18.7071C11.8946 18.5196 12 18.2652 12 18V14C11.9985 13.754 11.9056 13.5174 11.7392 13.3363C11.5728 13.1551 11.345 13.0424 11.1 13.02C11.555 10.731 13.578 9 16 9C18.422 9 20.444 10.731 20.9 13.02C20.655 13.0424 20.4272 13.1551 20.2608 13.3363C20.0944 13.5174 20.0015 13.754 20 14V18C20 20.102 18.314 20.748 16.998 20.932C16.9808 20.6791 16.8681 20.4422 16.6828 20.2691C16.4976 20.0961 16.2535 19.9999 16 20H15C14.7348 20 14.4804 20.1054 14.2929 20.2929C14.1054 20.4804 14 20.7348 14 21V22C14 22.2652 14.1054 22.5196 14.2929 22.7071C14.4804 22.8946 14.7348 23 15 23H16C19.226 23 21.433 21.459 21.9 19H23C24.103 19 25 18.103 25 17V15C25 13.897 24.103 13 23 13Z" fill="#FF845E"></path></svg>