<svg xmlns="http://www.w3.org/2000/svg" width="32" height="32" viewBox="0 0 32 32" fill="none"><path d="M27.3136 2.4804C26.9474 2.11422 26.3539 2.11434 25.9877 2.4804C25.6217 2.84653 25.6217 3.44009 25.9878 3.80622C28.6557 6.47403 30.125 10.0212 30.125 13.7942C30.125 14.3119 30.5448 14.7317 31.0625 14.7317C31.5803 14.7317 32 14.3119 32 13.7942C32 9.52028 30.3357 5.50234 27.3136 2.4804ZM6.01206 2.48047C5.64588 2.11428 5.05237 2.1144 4.68619 2.48047C1.66431 5.50259 0 9.52047 0 13.7942C0 14.3119 0.41975 14.7317 0.9375 14.7317C1.45525 14.7317 1.875 14.3119 1.875 13.7942C1.875 10.0213 3.34425 6.47422 6.01206 3.80628C6.37819 3.44015 6.37819 2.84659 6.01206 2.48047ZM23.1473 5.32034C22.7812 5.68647 22.7813 6.28003 23.1474 6.64622C25.0568 8.5554 26.1082 11.0939 26.1082 13.7942C26.1082 14.3119 26.5281 14.7317 27.0457 14.7317C27.5636 14.7317 27.9832 14.3119 27.9832 13.7942C27.9832 10.593 26.7367 7.58365 24.4732 5.32028C24.1071 4.95422 23.5134 4.95428 23.1473 5.32034ZM8.85213 5.32078C8.486 4.95472 7.89244 4.95478 7.52631 5.32084C5.26306 7.58434 4.01662 10.5935 4.01662 13.7942C4.01662 14.3119 4.43644 14.7317 4.95412 14.7317C5.47194 14.7317 5.89162 14.3119 5.89162 13.7942C5.89162 11.0943 6.94306 8.5559 8.85219 6.64665C9.21825 6.28047 9.21825 5.68684 8.85213 5.32078ZM23.9667 20.602V15.8025C23.9667 14.0518 23.4093 12.3907 22.3549 10.9985C21.4735 9.83497 20.2716 8.92597 18.9212 8.39109C18.7331 6.94659 17.4949 5.82747 16 5.82747C14.5051 5.82747 13.2668 6.94659 13.0788 8.39109C11.7284 8.92597 10.5265 9.83497 9.64519 10.9985C8.59069 12.3907 8.03331 14.0518 8.03331 15.8025V20.602L6.124 24.4207C6.05254 24.5636 6.0188 24.7225 6.02598 24.8821C6.03316 25.0417 6.08103 25.1969 6.16504 25.3328C6.24905 25.4688 6.36641 25.581 6.50598 25.6588C6.64556 25.7366 6.8027 25.7775 6.9625 25.7775H25.0375C25.1973 25.7775 25.3545 25.7367 25.4941 25.6589C25.6337 25.5811 25.7511 25.4689 25.8351 25.3329C25.9191 25.197 25.967 25.0418 25.9742 24.8821C25.9813 24.7225 25.9476 24.5636 25.8761 24.4207L23.9667 20.602ZM16 29.7942C17.6878 29.7942 19.1804 28.9452 20.0753 27.6524H11.9247C12.8196 28.9452 14.3122 29.7942 16 29.7942Z" fill="#FF845E"></path></svg>