<svg xmlns="http://www.w3.org/2000/svg" width="60" height="60" viewBox="0 0 60 60" fill="none"><path d="M54.1515 56.502H43.7901V39.2301C43.7901 38.735 43.3882 38.3331 42.8872 38.3331H39.8173C39.3164 38.3331 38.9144 38.735 38.9144 39.2301V56.502H35.862V42.0321C35.862 41.5369 35.4601 41.135 34.9649 41.135H31.8892C31.394 41.135 30.9921 41.5369 30.9921 42.0321V56.502H27.9397V44.834C27.9397 44.3331 27.5377 43.9311 27.0368 43.9311H23.9669C23.4717 43.9311 23.0639 44.3331 23.0639 44.834V56.502H20.0115V47.6301C20.0115 47.135 19.6096 46.7331 19.1144 46.7331H16.0387C15.5435 46.7331 15.1416 47.135 15.1416 47.6301V56.502H12.0892V51.8301C12.0892 51.335 11.6872 50.9331 11.1921 50.9331H8.11636C7.62122 50.9331 7.21928 51.335 7.21928 51.8301V56.502H5.43151C5.27701 56.502 5.12885 56.5634 5.0196 56.6726C4.91036 56.7819 4.84898 56.93 4.84898 57.0845C4.84898 57.239 4.91036 57.3872 5.0196 57.4964C5.12885 57.6057 5.27701 57.667 5.43151 57.667H54.1521C54.3066 57.667 54.4548 57.6057 54.564 57.4964C54.6732 57.3872 54.7346 57.239 54.7346 57.0845C54.7346 56.93 54.6732 56.7819 54.564 56.6726C54.4548 56.5634 54.306 56.502 54.1515 56.502ZM2.9983 56.502H2.05811C1.90362 56.502 1.75545 56.5634 1.6462 56.6726C1.53696 56.7819 1.47559 56.93 1.47559 57.0845C1.47559 57.239 1.53696 57.3872 1.6462 57.4964C1.75545 57.6057 1.90362 57.667 2.05811 57.667H2.9983C3.1528 57.667 3.30097 57.6057 3.41021 57.4964C3.51946 57.3872 3.58083 57.239 3.58083 57.0845C3.58083 56.93 3.51946 56.7819 3.41021 56.6726C3.30097 56.5634 3.1528 56.502 2.9983 56.502ZM57.942 56.502H56.4391C56.2846 56.502 56.1364 56.5634 56.0272 56.6726C55.9179 56.7819 55.8566 56.93 55.8566 57.0845C55.8566 57.239 55.9179 57.3872 56.0272 57.4964C56.1364 57.6057 56.2846 57.667 56.4391 57.667H57.942C58.0965 57.667 58.2447 57.6057 58.3539 57.4964C58.4632 57.3872 58.5245 57.239 58.5245 57.0845C58.5245 56.93 58.4632 56.7819 58.3539 56.6726C58.2447 56.5634 58.0965 56.502 57.942 56.502ZM35.7938 19.3556L40.9084 23.6698C41.1915 23.9092 41.5911 23.9668 41.9278 23.8113C47.6669 21.1515 49.2793 18.1061 50.7799 16.4599C52.1663 14.4676 53.2206 12.2482 53.8789 9.87151L47.1799 4.22102C41.1175 7.10568 36.9554 12.5336 35.4758 18.3898C35.4333 18.5644 35.4407 18.7475 35.497 18.9182C35.5533 19.089 35.6558 19.2405 35.7938 19.3556ZM44.9546 8.88704C45.2049 8.5895 45.5114 8.34425 45.8566 8.16532C46.2018 7.98639 46.5789 7.8773 46.9664 7.8443C47.3538 7.81129 47.7439 7.85501 48.1144 7.97297C48.4849 8.09092 48.8285 8.28079 49.1255 8.5317C49.423 8.782 49.6683 9.08852 49.8472 9.43372C50.0261 9.77892 50.1352 10.156 50.1682 10.5434C50.2012 10.9309 50.1575 11.321 50.0396 11.6915C49.9216 12.062 49.7317 12.4056 49.4808 12.7026C49.2305 13.0001 48.924 13.2454 48.5788 13.4243C48.2336 13.6032 47.8565 13.7123 47.4691 13.7453C47.0817 13.7783 46.6916 13.7346 46.3211 13.6166C45.9506 13.4987 45.607 13.3088 45.31 13.0579C45.0124 12.8076 44.7672 12.5011 44.5882 12.1559C44.4093 11.8107 44.3002 11.4336 44.2672 11.0462C44.2342 10.6588 44.2779 10.2686 44.3959 9.89815C44.5138 9.52766 44.7037 9.18406 44.9546 8.88704ZM33.7701 25.454C33.6944 26.2637 34.4634 26.9103 35.2439 26.7006C36.9391 26.2463 38.4012 25.2851 39.4847 23.9977L35.7158 20.8113C34.6075 22.1234 33.9285 23.7439 33.7701 25.454ZM28.7779 18.3472C30.5896 17.1705 32.6808 16.5764 34.7896 16.5997C35.1682 15.4404 35.6401 14.322 36.2051 13.2501C33.0012 13.6521 30.2168 15.4637 28.5216 18.0851C28.4109 18.2599 28.609 18.4579 28.7779 18.3472ZM43.4109 30.6327C45.7876 28.4366 47.0168 25.3608 46.8769 22.221C45.9098 22.9513 44.8851 23.602 43.8129 24.1667C44.1973 26.2463 43.976 28.4249 43.1138 30.4171C43.0323 30.6035 43.2595 30.7667 43.4109 30.6327ZM53.9371 2.33655C52.0372 2.55427 50.1745 3.02241 48.3973 3.72879L54.1643 8.58704C54.5505 6.75617 54.7107 4.84898 54.6012 2.89694C54.596 2.81595 54.5745 2.73685 54.538 2.66439C54.5014 2.59192 54.4506 2.52759 54.3886 2.47525C54.3266 2.42291 54.2546 2.38365 54.177 2.35981C54.0994 2.33598 54.0179 2.32807 53.9371 2.33655ZM9.65306 45.7981C9.79369 45.7983 9.92964 45.7476 10.0358 45.6554L17.6983 38.9983L25.0061 41.682C25.1312 41.7285 25.2685 41.7304 25.3948 41.6873C25.5211 41.6442 25.6287 41.5588 25.6993 41.4455L33.3338 29.3267L33.9956 32.0925C34.0315 32.2428 34.1257 32.3727 34.2574 32.4536C34.3891 32.5345 34.5475 32.5598 34.6978 32.5238C34.8481 32.4879 34.978 32.3938 35.0589 32.2621C35.1398 32.1304 35.1651 31.9719 35.1292 31.8216L34.1447 27.7113L34.1435 27.7072C34.1256 27.6331 34.0933 27.5633 34.0484 27.5017C34.0035 27.4401 33.9469 27.3879 33.8818 27.3482C33.8167 27.3085 33.7444 27.282 33.6691 27.2702C33.5938 27.2585 33.5169 27.2617 33.4428 27.2797L29.336 28.2595C29.2607 28.2764 29.1895 28.3081 29.1266 28.3527C29.0636 28.3974 29.0102 28.4541 28.9694 28.5196C28.9285 28.5851 28.9011 28.658 28.8887 28.7342C28.8763 28.8104 28.8792 28.8882 28.8971 28.9633C28.915 29.0383 28.9477 29.1091 28.9932 29.1714C29.0387 29.2337 29.0962 29.2864 29.1622 29.3263C29.2283 29.3662 29.3016 29.3926 29.3779 29.404C29.4542 29.4154 29.532 29.4114 29.6068 29.3925L32.3237 28.7441L24.9647 40.4255L17.7764 37.7867C17.6786 37.7507 17.573 37.7417 17.4705 37.7604C17.3681 37.7792 17.2725 37.825 17.1938 37.8933L9.27093 44.7758C9.1813 44.8536 9.11759 44.957 9.08834 45.072C9.05909 45.1871 9.06569 45.3083 9.10725 45.4195C9.14882 45.5307 9.22336 45.6266 9.32091 45.6942C9.41846 45.7619 9.53435 45.7981 9.65306 45.7981Z" fill="#FF845E"></path></svg>