<?xml version="1.0" encoding="UTF-8"?>
<svg xmlns="http://www.w3.org/2000/svg" width="300" height="60" viewBox="0 0 300 60" fill="none">
  <path d="M7.66957 43.2201V36.6195H18.9913C21.0203 36.6195 22.542 36.0794 23.5565 34.9993C24.6116 33.8792 25.1391 32.339 25.1391 30.3788C25.1391 28.3786 24.571 26.7985 23.4348 25.6384C22.3391 24.4783 20.7565 23.8982 18.687 23.8982H7.66957V17.2976H18.2C20.1073 17.2976 21.5478 16.8575 22.5217 15.9774C23.5362 15.0573 24.0435 13.7172 24.0435 11.957C24.0435 10.1969 23.5565 8.87674 22.5826 7.99665C21.6493 7.07656 20.2493 6.61652 18.3826 6.61652H7.66957V0.0158691H20.3913C24.287 0.0158691 27.4319 0.995966 29.8261 2.95616C32.2203 4.91635 33.4174 7.57661 33.4174 10.9369C33.4174 13.0571 32.9102 14.8773 31.8957 16.3975C30.8812 17.9176 29.5217 19.0777 27.8174 19.8778C26.1131 20.6779 24.2058 21.0779 22.0957 21.0779L22.4 19.8178C24.6725 19.8178 26.7217 20.2979 28.5478 21.2579C30.4145 22.218 31.8957 23.5782 32.9913 25.3384C34.087 27.0585 34.6348 29.0987 34.6348 31.4589C34.6348 33.8192 34.0667 35.8994 32.9304 37.6996C31.8348 39.4597 30.2725 40.8199 28.2435 41.78C26.2551 42.74 23.9015 43.2201 21.1826 43.2201H7.66957ZM0 43.2201V0.0158691H9.37392V43.2201H0Z" fill="white"></path>
  <path d="M54.8687 43.8202C51.46 43.8202 48.4571 43.1601 45.86 41.84C43.3035 40.4798 41.2948 38.5996 39.8339 36.1994C38.4136 33.7592 37.7035 30.9589 37.7035 27.7986C37.7035 24.6383 38.4136 21.878 39.8339 19.5178C41.2948 17.1575 43.3035 15.3174 45.86 13.9972C48.4571 12.6771 51.46 12.017 54.8687 12.017C58.318 12.017 61.3209 12.6771 63.8774 13.9972C66.4745 15.3174 68.4832 17.1575 69.9035 19.5178C71.3238 21.878 72.0339 24.6383 72.0339 27.7986C72.0339 30.9589 71.3035 33.7592 69.8426 36.1994C68.4223 38.5996 66.4136 40.4798 63.8165 41.84C61.26 43.1601 58.2774 43.8202 54.8687 43.8202ZM54.8687 36.7395C56.289 36.7395 57.5672 36.3794 58.7035 35.6594C59.8803 34.9393 60.8136 33.9192 61.5035 32.5991C62.1933 31.2389 62.5383 29.6188 62.5383 27.7386C62.5383 24.9783 61.7875 22.8581 60.2861 21.378C58.8252 19.8578 57.0194 19.0977 54.8687 19.0977C52.718 19.0977 50.8919 19.8578 49.3904 21.378C47.9296 22.8981 47.1991 25.0183 47.1991 27.7386C47.1991 29.6188 47.5441 31.2389 48.2339 32.5991C48.9238 33.9192 49.8368 34.9393 50.973 35.6594C52.1499 36.3794 53.4484 36.7395 54.8687 36.7395Z" fill="white"></path>
  <path d="M90.7128 43.8802C86.736 43.8802 83.7737 42.9401 81.8258 41.0599C79.9186 39.1397 78.965 36.2394 78.965 32.359V5.77643L88.0954 2.41611V32.6591C88.0954 34.0192 88.4809 35.0393 89.2519 35.7194C90.0229 36.3994 91.22 36.7395 92.8432 36.7395C93.4519 36.7395 94.02 36.6795 94.5476 36.5595C95.0751 36.4394 95.6027 36.2994 96.1302 36.1394V42.9801C95.6027 43.2601 94.8519 43.4801 93.878 43.6401C92.9447 43.8002 91.8896 43.8802 90.7128 43.8802ZM73.1824 19.4578V12.6171H96.1302V19.4578H73.1824Z" fill="white"></path>
  <path d="M142.499 43.2201V0.0158691H151.629V43.2201H142.499ZM164.108 43.2201V24.2582C164.108 22.5781 163.661 21.318 162.769 20.4779C161.916 19.6378 160.658 19.2177 158.995 19.2177C157.574 19.2177 156.296 19.5378 155.16 20.1778C154.064 20.8179 153.192 21.698 152.542 22.8181C151.934 23.9382 151.629 25.2583 151.629 26.7785L150.838 19.3978C151.853 17.1576 153.334 15.3774 155.282 14.0572C157.27 12.6971 159.705 12.017 162.586 12.017C166.035 12.017 168.673 12.9771 170.499 14.8973C172.325 16.7775 173.238 19.3178 173.238 22.5181V43.2201H164.108Z" fill="white"></path>
  <path d="M194.916 43.8202C191.508 43.8202 188.505 43.1601 185.908 41.84C183.351 40.4798 181.342 38.5996 179.881 36.1994C178.461 33.7592 177.751 30.9589 177.751 27.7986C177.751 24.6383 178.461 21.878 179.881 19.5178C181.342 17.1575 183.351 15.3174 185.908 13.9972C188.505 12.6771 191.508 12.017 194.916 12.017C198.366 12.017 201.368 12.6771 203.925 13.9972C206.522 15.3174 208.531 17.1575 209.951 19.5178C211.371 21.878 212.081 24.6383 212.081 27.7986C212.081 30.9589 211.351 33.7592 209.89 36.1994C208.47 38.5996 206.461 40.4798 203.864 41.84C201.308 43.1601 198.325 43.8202 194.916 43.8202ZM194.916 36.7395C196.337 36.7395 197.615 36.3794 198.751 35.6594C199.928 34.9393 200.861 33.9192 201.551 32.5991C202.241 31.2389 202.586 29.6188 202.586 27.7386C202.586 24.9783 201.835 22.8581 200.334 21.378C198.873 19.8578 197.067 19.0977 194.916 19.0977C192.766 19.0977 190.939 19.8578 189.438 21.378C187.977 22.8981 187.247 25.0183 187.247 27.7386C187.247 29.6188 187.592 31.2389 188.281 32.5991C188.971 33.9192 189.884 34.9393 191.021 35.6594C192.197 36.3794 193.496 36.7395 194.916 36.7395Z" fill="white"></path>
  <path d="M216.922 43.2201V12.6171H225.869V19.8178H226.052V43.2201H216.922ZM238.53 43.2201V24.2582C238.53 22.5781 238.084 21.318 237.191 20.4779C236.339 19.6378 235.081 19.2177 233.417 19.2177C231.997 19.2177 230.719 19.5378 229.582 20.1778C228.487 20.8179 227.614 21.698 226.965 22.8181C226.356 23.9382 226.052 25.2583 226.052 26.7785L225.261 19.3978C226.275 17.1576 227.756 15.3774 229.704 14.0572C231.693 12.6971 234.127 12.017 237.009 12.017C240.458 12.017 243.096 12.9771 244.922 14.8973C246.748 16.7775 247.661 19.3178 247.661 22.5181V43.2201H238.53Z" fill="white"></path>
  <path d="M254.252 43.2201V13.0466H263.253V43.2201H254.252Z" fill="white"></path>
  <path d="M284.6 43.8202C281.354 43.8202 278.493 43.1401 276.017 41.78C273.542 40.4198 271.594 38.5396 270.174 36.1394C268.794 33.7392 268.104 30.9989 268.104 27.9186C268.104 24.8383 268.794 22.098 270.174 19.6978C271.594 17.2976 273.542 15.4174 276.017 14.0572C278.493 12.6971 281.354 12.017 284.6 12.017C287.319 12.017 289.754 12.5171 291.904 13.5172C294.096 14.4773 295.881 15.8174 297.261 17.5376C298.681 19.2578 299.594 21.278 300 23.5982H291.174C290.728 22.118 289.916 20.9979 288.739 20.2379C287.603 19.4778 286.264 19.0977 284.722 19.0977C283.261 19.0977 281.983 19.4578 280.887 20.1778C279.832 20.8979 279.02 21.918 278.452 23.2381C277.884 24.5583 277.6 26.1184 277.6 27.9186C277.6 29.7188 277.884 31.2789 278.452 32.5991C279.02 33.9192 279.832 34.9393 280.887 35.6594C281.983 36.3794 283.261 36.7395 284.722 36.7395C286.264 36.7395 287.603 36.3594 288.739 35.5994C289.916 34.8393 290.728 33.7192 291.174 32.239H300C299.594 34.5593 298.681 36.5794 297.261 38.2996C295.881 40.0198 294.096 41.3799 291.904 42.38C289.754 43.3401 287.319 43.8202 284.6 43.8202Z" fill="white"></path>
  <path d="M122.186 46.919C118.882 46.919 116.235 46.1587 114.244 44.6381C112.253 43.1176 111.077 41.038 110.715 38.3994L111.258 38.3323V60.0002H101.077V12.0356H111.054V19.616L110.443 19.4819C110.941 16.9774 112.299 15.0096 114.516 13.5785C116.733 12.1027 119.471 11.3648 122.729 11.3648C125.851 11.3648 128.543 12.1027 130.805 13.5785C133.113 15.0096 134.878 17.0445 136.1 19.6831C137.367 22.3217 138 25.4299 138 29.0077C138 32.6302 137.344 35.7831 136.032 38.4665C134.719 41.1498 132.887 43.2294 130.534 44.7052C128.181 46.1811 125.398 46.919 122.186 46.919ZM119.335 38.869C121.733 38.869 123.679 38.0192 125.172 36.3198C126.665 34.6203 127.412 32.2053 127.412 29.0748C127.412 25.9442 126.643 23.5516 125.104 21.8969C123.611 20.2421 121.643 19.4148 119.199 19.4148C116.846 19.4148 114.9 20.2645 113.362 21.9639C111.869 23.6187 111.122 26.0113 111.122 29.1419C111.122 32.2724 111.869 34.6874 113.362 36.3869C114.9 38.0416 116.891 38.869 119.335 38.869Z" fill="white"></path>
  <path d="M254.215 0V9.48725H263.251V0H254.215Z" fill="#FF845E"></path>
</svg>
