<svg xmlns="http://www.w3.org/2000/svg" width="32" height="32" viewBox="0 0 32 32" fill="none"><g clip-path="url(#clip0_2065_2943)"><path d="M8 10C8.82843 10 9.5 9.32843 9.5 8.5C9.5 7.67157 8.82843 7 8 7C7.17157 7 6.5 7.67157 6.5 8.5C6.5 9.32843 7.17157 10 8 10Z" fill="#FF845E"></path><path d="M24 10C24.8284 10 25.5 9.32843 25.5 8.5C25.5 7.67157 24.8284 7 24 7C23.1716 7 22.5 7.67157 22.5 8.5C22.5 9.32843 23.1716 10 24 10Z" fill="#FF845E"></path><path d="M24 19C24.8284 19 25.5 18.3284 25.5 17.5C25.5 16.6716 24.8284 16 24 16C23.1716 16 22.5 16.6716 22.5 17.5C22.5 18.3284 23.1716 19 24 19Z" fill="#FF845E"></path><path d="M8 19C8.82843 19 9.5 18.3284 9.5 17.5C9.5 16.6716 8.82843 16 8 16C7.17157 16 6.5 16.6716 6.5 17.5C6.5 18.3284 7.17157 19 8 19Z" fill="#FF845E"></path><path d="M12.5 8H13.5C13.6326 8 13.7597 7.94732 13.8535 7.85355C13.9473 7.75979 14 7.63261 14 7.5C14 7.36739 13.9473 7.24021 13.8535 7.14645C13.7597 7.05268 13.6326 7 13.5 7H12.5C12.3674 7 12.2402 7.05268 12.1464 7.14645C12.0526 7.24021 12 7.36739 12 7.5C12 7.63261 12.0526 7.75979 12.1464 7.85355C12.2402 7.94732 12.3674 8 12.5 8ZM12.5 17H13.5C13.6326 17 13.7597 16.9473 13.8535 16.8536C13.9473 16.7598 14 16.6326 14 16.5C14 16.3674 13.9473 16.2402 13.8535 16.1464C13.7597 16.0527 13.6326 16 13.5 16H12.5C12.3674 16 12.2402 16.0527 12.1464 16.1464C12.0526 16.2402 12 16.3674 12 16.5C12 16.6326 12.0526 16.7598 12.1464 16.8536C12.2402 16.9473 12.3674 17 12.5 17ZM28.5 8H29.5C29.6326 8 29.7597 7.94732 29.8535 7.85355C29.9473 7.75979 30 7.63261 30 7.5C30 7.36739 29.9473 7.24021 29.8535 7.14645C29.7597 7.05268 29.6326 7 29.5 7H28.5C28.3674 7 28.2402 7.05268 28.1464 7.14645C28.0526 7.24021 28 7.36739 28 7.5C28 7.63261 28.0526 7.75979 28.1464 7.85355C28.2402 7.94732 28.3674 8 28.5 8ZM29.5 16H28.5C28.3674 16 28.2402 16.0527 28.1464 16.1464C28.0526 16.2402 28 16.3674 28 16.5C28 16.6326 28.0526 16.7598 28.1464 16.8536C28.2402 16.9473 28.3674 17 28.5 17H29.5C29.6326 17 29.7597 16.9473 29.8535 16.8536C29.9473 16.7598 30 16.6326 30 16.5C30 16.3674 29.9473 16.2402 29.8535 16.1464C29.7597 16.0527 29.6326 16 29.5 16ZM12 28V29.295L10.1445 31.145C10.0751 31.2153 10.0281 31.3046 10.0094 31.4016C9.99071 31.4986 10.0012 31.5989 10.0395 31.69C10.0763 31.7819 10.1399 31.8606 10.222 31.9159C10.3041 31.9712 10.401 32.0005 10.5 32H21.5C21.5989 32.0004 21.6956 31.971 21.7776 31.9157C21.8597 31.8605 21.9232 31.7818 21.96 31.69C21.9982 31.5989 22.0087 31.4986 21.99 31.4016C21.9713 31.3046 21.9243 31.2153 21.855 31.145L20 29.295V28H12Z" fill="#FF845E"></path><path d="M30.5 4.99998H16.5V4.94998C17.107 4.82607 17.6464 4.48118 18.0136 3.98218C18.3808 3.48318 18.5496 2.86562 18.4873 2.24922C18.4251 1.63281 18.1361 1.06149 17.6766 0.64601C17.217 0.230528 16.6195 0.000488281 16 0.000488281C15.3805 0.000488281 14.783 0.230528 14.3234 0.64601C13.8639 1.06149 13.5749 1.63281 13.5127 2.24922C13.4504 2.86562 13.6192 3.48318 13.9864 3.98218C14.3536 4.48118 14.893 4.82607 15.5 4.94998V4.99998H1.5C1.10254 5.00117 0.721699 5.15958 0.440651 5.44063C0.159603 5.72168 0.00118705 6.10252 0 6.49998L0 25.5C0.00118705 25.8974 0.159603 26.2783 0.440651 26.5593C0.721699 26.8404 1.10254 26.9988 1.5 27H30.5C30.8975 26.9988 31.2783 26.8404 31.5593 26.5593C31.8404 26.2783 31.9988 25.8974 32 25.5V6.49998C31.9988 6.10252 31.8404 5.72168 31.5593 5.44063C31.2783 5.15958 30.8975 5.00117 30.5 4.99998ZM31 6.49998V14H27V13C27 12.3369 26.7366 11.7011 26.2678 11.2322C25.7989 10.7634 25.163 10.5 24.5 10.5H23.5C22.837 10.5 22.2011 10.7634 21.7322 11.2322C21.2634 11.7011 21 12.3369 21 13V14H16.5V5.99998H30.5C30.6326 5.99998 30.7598 6.05266 30.8536 6.14642C30.9473 6.24019 31 6.36737 31 6.49998ZM16 1.99998C16.0989 1.99998 16.1956 2.0293 16.2778 2.08424C16.36 2.13918 16.4241 2.21727 16.4619 2.30864C16.4998 2.4 16.5097 2.50053 16.4904 2.59752C16.4711 2.69451 16.4235 2.78361 16.3536 2.85353C16.2836 2.92346 16.1945 2.97108 16.0975 2.99037C16.0006 3.00966 15.9 2.99976 15.8087 2.96192C15.7173 2.92407 15.6392 2.85999 15.5843 2.77776C15.5293 2.69554 15.5 2.59887 15.5 2.49998C15.5 2.36737 15.5527 2.24019 15.6464 2.14642C15.7402 2.05266 15.8674 1.99998 16 1.99998ZM1.5 5.99998H15.5V14H11V13C11 12.3369 10.7366 11.7011 10.2678 11.2322C9.79893 10.7634 9.16304 10.5 8.5 10.5H7.5C6.83696 10.5 6.20107 10.7634 5.73223 11.2322C5.26339 11.7011 5 12.3369 5 13V14H1V6.49998C1 6.36737 1.05268 6.24019 1.14645 6.14642C1.24021 6.05266 1.36739 5.99998 1.5 5.99998ZM1 23V15H15.5V23H11V22C11 21.3369 10.7366 20.7011 10.2678 20.2322C9.79893 19.7634 9.16304 19.5 8.5 19.5H7.5C6.83696 19.5 6.20107 19.7634 5.73223 20.2322C5.26339 20.7011 5 21.3369 5 22V23H1ZM16 25.5C15.9011 25.5 15.8044 25.4707 15.7222 25.4157C15.64 25.3608 15.5759 25.2827 15.5381 25.1913C15.5002 25.1 15.4903 24.9994 15.5096 24.9024C15.5289 24.8054 15.5765 24.7163 15.6464 24.6464C15.7164 24.5765 15.8055 24.5289 15.9025 24.5096C15.9994 24.4903 16.1 24.5002 16.1913 24.538C16.2827 24.5759 16.3608 24.64 16.4157 24.7222C16.4707 24.8044 16.5 24.9011 16.5 25C16.5 25.1326 16.4473 25.2598 16.3536 25.3535C16.2598 25.4473 16.1326 25.5 16 25.5ZM27 23V22C27 21.3369 26.7366 20.7011 26.2678 20.2322C25.7989 19.7634 25.163 19.5 24.5 19.5H23.5C22.837 19.5 22.2011 19.7634 21.7322 20.2322C21.2634 20.7011 21 21.3369 21 22V23H16.5V15H31V23H27Z" fill="#FF845E"></path></g><defs><clipPath id="clip0_2065_2943"><rect width="32" height="32" fill="white"></rect></clipPath></defs></svg>