<svg xmlns="http://www.w3.org/2000/svg" width="36" height="36" viewBox="0 0 36 36" fill="none"><path d="M4.86277 13.3402L10.4315 18.909L11.6251 17.7159C11.6774 17.6637 11.7189 17.6017 11.7472 17.5334C11.7755 17.4651 11.7901 17.3919 11.7901 17.318C11.7901 17.244 11.7755 17.1709 11.7472 17.1026C11.7189 17.0343 11.6774 16.9722 11.6251 16.92L6.8529 12.1472C6.80065 12.0949 6.73862 12.0534 6.67033 12.0251C6.60204 11.9968 6.52885 11.9822 6.45493 11.9822C6.38101 11.9822 6.30781 11.9968 6.23952 12.0251C6.17124 12.0534 6.1092 12.0949 6.05696 12.1472L4.86277 13.3402ZM23.5569 29.6477C23.6623 29.5422 23.7216 29.3992 23.7216 29.25C23.7216 29.1008 23.6623 28.9578 23.5569 28.8523L18.7841 24.0795C18.6769 23.9772 18.5345 23.9202 18.3864 23.9202C18.2383 23.9202 18.0959 23.9772 17.9887 24.0795L16.7951 25.2731L22.3638 30.8419L23.5569 29.6477ZM3.27146 14.931C2.53446 15.6702 2.12061 16.6715 2.12061 17.7154C2.12061 18.7592 2.53446 19.7605 3.27146 20.4998L15.2038 32.4321C15.5694 32.7977 16.0035 33.0878 16.4812 33.2857C16.959 33.4836 17.471 33.5855 17.9881 33.5855C18.5053 33.5855 19.0173 33.4836 19.4951 33.2857C19.9728 33.0878 20.4069 32.7977 20.7725 32.4321L21.5679 31.6361L15.9215 25.9875C15.6073 26.1313 15.2572 26.1778 14.9163 26.1208C14.5754 26.0639 14.2594 25.9062 14.009 25.668L10.0316 21.6906C9.78662 21.4436 9.62396 21.127 9.56586 20.784C9.50776 20.4411 9.55707 20.0885 9.70702 19.7747L4.06683 14.1356L3.27146 14.931ZM27 5.0625C26.2543 5.06339 25.5395 5.36 25.0122 5.88725C24.485 6.4145 24.1884 7.12935 24.1875 7.875C24.1875 9.31837 25.9576 11.5493 27 12.6849C28.0423 11.5493 29.8125 9.31837 29.8125 7.875C29.8116 7.12935 29.515 6.4145 28.9877 5.88725C28.4605 5.36 27.7456 5.06339 27 5.0625ZM27 9.5625C26.6662 9.5625 26.3399 9.46353 26.0624 9.27811C25.7849 9.09268 25.5686 8.82913 25.4409 8.52078C25.3132 8.21243 25.2798 7.87313 25.3449 7.54579C25.41 7.21844 25.5707 6.91776 25.8067 6.68176C26.0427 6.44576 26.3434 6.28504 26.6707 6.21992C26.9981 6.15481 27.3374 6.18823 27.6457 6.31595C27.9541 6.44368 28.2176 6.65997 28.4031 6.93748C28.5885 7.21498 28.6875 7.54124 28.6875 7.875C28.6875 8.32255 28.5097 8.75178 28.1932 9.06824C27.8767 9.38471 27.4475 9.5625 27 9.5625Z" fill="#FF845E"></path><path d="M27 8.4375C27.3107 8.4375 27.5625 8.18566 27.5625 7.875C27.5625 7.56434 27.3107 7.3125 27 7.3125C26.6893 7.3125 26.4375 7.56434 26.4375 7.875C26.4375 8.18566 26.6893 8.4375 27 8.4375Z" fill="#FF845E"></path><path d="M27 2.25C25.665 2.25 24.3599 2.64588 23.2499 3.38758C22.1399 4.12928 21.2747 5.18349 20.7638 6.41689C20.2529 7.65029 20.1193 9.00749 20.3797 10.3169C20.6402 11.6262 21.283 12.829 22.227 13.773C23.171 14.717 24.3738 15.3598 25.6831 15.6203C26.9925 15.8808 28.3497 15.7471 29.5831 15.2362C30.8165 14.7253 31.8707 13.8601 32.6124 12.7501C33.3541 11.6401 33.75 10.335 33.75 9C33.7481 7.21038 33.0363 5.49462 31.7708 4.22917C30.5054 2.96372 28.7896 2.25194 27 2.25ZM27.3977 13.8977C27.2922 14.0031 27.1492 14.0624 27 14.0624C26.8508 14.0624 26.7078 14.0031 26.6023 13.8977C26.2395 13.5354 23.0625 10.2887 23.0625 7.875C23.0625 6.83071 23.4773 5.82919 24.2158 5.09077C24.9542 4.35234 25.9557 3.9375 27 3.9375C28.0443 3.9375 29.0458 4.35234 29.7842 5.09077C30.5227 5.82919 30.9375 6.83071 30.9375 7.875C30.9375 10.2887 27.7605 13.5354 27.3977 13.8977ZM24.1875 25.3125H25.3125V26.4375H24.1875V25.3125ZM26.4375 25.3125H27.5625V26.4375H26.4375V25.3125ZM26.4375 23.0625H27.5625V24.1875H26.4375V23.0625ZM26.4375 20.8125H27.5625V21.9375H26.4375V20.8125ZM26.4375 18.5625H27.5625V19.6875H26.4375V18.5625Z" fill="#FF845E"></path></svg>