<?xml version="1.0" encoding="UTF-8"?>
<svg xmlns="http://www.w3.org/2000/svg" width="50" height="50" viewBox="0 0 50 50" fill="none">
  <path fill-rule="evenodd" clip-rule="evenodd" d="M46.2667 44.7476H48.5294C48.7374 44.7476 48.9369 44.8303 49.084 44.9774C49.2311 45.1245 49.3137 45.3239 49.3137 45.532V47.8879C49.3137 48.096 49.2311 48.2955 49.084 48.4425C48.9369 48.5896 48.7374 48.6723 48.5294 48.6723H1.47059C1.26258 48.6723 1.06309 48.5896 0.915999 48.4425C0.768912 48.2955 0.686279 48.096 0.686279 47.8879V45.532C0.686279 45.3239 0.768912 45.1245 0.915999 44.9774C1.06309 44.8303 1.26258 44.7476 1.47059 44.7476H3.73334V15.5266C3.73334 15.3186 3.81597 15.1191 3.96306 14.972C4.11015 14.8249 4.30964 14.7423 4.51765 14.7423H10.7517C10.9597 14.7423 11.1592 14.8249 11.3063 14.972C11.4534 15.1191 11.536 15.3186 11.536 15.5266V44.7476H15.3084V21.4136C15.3084 21.2056 15.3911 21.0061 15.5382 20.859C15.6852 20.7119 15.8847 20.6293 16.0927 20.6293H22.3294C22.5374 20.6293 22.7369 20.7119 22.884 20.859C23.0311 21.0061 23.1137 21.2056 23.1137 21.4136V44.7476H26.8863V27.9569C26.8863 27.7489 26.9689 27.5494 27.116 27.4023C27.2631 27.2552 27.4626 27.1726 27.6706 27.1726H33.9045C34.1125 27.1726 34.312 27.2552 34.4591 27.4023C34.6062 27.5494 34.6888 27.7489 34.6888 27.9569V44.7476H38.464V34.2258C38.464 34.0178 38.5467 33.8183 38.6937 33.6712C38.8408 33.5241 39.0403 33.4415 39.2483 33.4415H45.4824C45.6904 33.4415 45.8899 33.5241 46.037 33.6712C46.184 33.8183 46.2667 34.0178 46.2667 34.2258V44.7476ZM5.30197 44.7476H9.96736V16.3109H5.30197V44.7476ZM16.8771 44.7476H21.5451V22.1979H16.8771V44.7476ZM28.4549 44.7476H33.1202V28.7412H28.4549V44.7476ZM40.0327 44.7476H44.698V35.0101L40.0327 35.0102V44.7476ZM47.7451 47.1036V46.3163H2.25491V47.1036H47.7451ZM42.2796 23.4666C42.3064 22.868 42.599 22.2876 43.1252 21.9146C44.0303 21.2732 45.2857 21.4874 45.9271 22.3924L47.8073 25.0457C47.9647 25.2679 48.0754 25.5198 48.1325 25.7861C48.1897 26.0523 48.1921 26.3274 48.1396 26.5947C48.0872 26.8619 47.981 27.1157 47.8275 27.3407C47.674 27.5656 47.4763 27.757 47.2466 27.9032L44.5031 29.6494C43.5674 30.245 42.3241 29.9687 41.7285 29.0329C41.4089 28.5309 41.3403 27.9402 41.49 27.4085C28.7578 24.6679 16.7602 18.048 7.64755 6.89235C6.94579 6.03333 7.07353 4.76618 7.93255 4.06441C8.79167 3.36265 10.0588 3.49039 10.7605 4.34941C19.2478 14.7393 30.4232 20.9016 42.2796 23.4666ZM42.534 26.9078L42.766 27.7043L42.5332 26.9037L42.534 26.9078ZM43.1786 27.5841L43.1872 27.5817C43.0884 27.6445 43.0187 27.744 42.9933 27.8582C42.968 27.9724 42.989 28.092 43.0518 28.1907C43.1146 28.2895 43.2141 28.3592 43.3283 28.3846C43.4425 28.4099 43.5622 28.3889 43.6609 28.3261L46.4043 26.5799C46.4548 26.5478 46.4982 26.5058 46.5319 26.4565C46.5656 26.4071 46.5889 26.3514 46.6004 26.2927C46.6119 26.2341 46.6114 26.1737 46.5988 26.1152C46.5863 26.0568 46.562 26.0014 46.5275 25.9526L44.6473 23.2993C44.5795 23.2039 44.4767 23.1393 44.3614 23.1196C44.2461 23.1 44.1276 23.1269 44.0322 23.1945C43.9367 23.2622 43.8721 23.365 43.8524 23.4803C43.8328 23.5956 43.8597 23.714 43.9273 23.8095L44.1016 24.0555C44.1921 24.1832 44.2423 24.3352 44.2457 24.4917C44.2492 24.6482 44.2057 24.8022 44.1209 24.9338C44.0361 25.0654 43.9138 25.1686 43.7698 25.2301C43.6259 25.2916 43.4668 25.3087 43.313 25.279C30.6181 22.8292 18.5964 16.4216 9.54569 5.34176C9.47162 5.25121 9.36464 5.19377 9.24824 5.18204C9.13185 5.17031 9.01555 5.20526 8.92491 5.27921C8.83436 5.35329 8.77691 5.46027 8.76518 5.57666C8.75345 5.69306 8.78841 5.80935 8.86236 5.9C18.0115 17.1003 30.1493 23.6015 42.976 26.1125C43.1299 26.1426 43.2713 26.2182 43.3818 26.3294C43.4924 26.4406 43.5671 26.5825 43.5962 26.7366C43.6253 26.8907 43.6075 27.05 43.5452 27.1939C43.4829 27.3378 43.3788 27.4598 43.2465 27.5439C43.2233 27.5586 43.2007 27.572 43.1786 27.5841ZM34.7593 1.32774C39.7976 1.32774 43.8809 5.41108 43.8809 10.4493C43.8809 15.4875 39.7976 19.5709 34.7593 19.5709C29.7212 19.5709 25.6378 15.4875 25.6378 10.4493C25.6378 5.41108 29.7212 1.32774 34.7593 1.32774ZM40.9517 14.7754C41.8092 13.5501 42.3123 12.0585 42.3123 10.4493C42.3123 6.27755 38.9312 2.89637 34.7593 2.89637C30.5876 2.89637 27.2064 6.27755 27.2064 10.4493C27.2064 12.0585 27.7095 13.5501 28.567 14.7754C29.1997 13.0731 30.5138 11.7021 32.1774 10.9941C31.4715 10.3147 31.0307 9.36147 31.0307 8.3098C31.0307 6.25843 32.7079 4.58118 34.7593 4.58118C36.8108 4.58118 38.488 6.25843 38.488 8.3098C38.488 9.36147 38.0473 10.3147 37.3413 10.9941C39.0049 11.7021 40.3189 13.0731 40.9517 14.7754ZM29.8078 16.1532C31.1336 17.3051 32.8649 18.0023 34.7593 18.0023C36.6537 18.0023 38.3851 17.3051 39.7109 16.1532C39.2777 13.812 37.2248 12.0385 34.7593 12.0385C32.2938 12.0385 30.2411 13.812 29.8078 16.1532ZM34.7593 10.4699C35.9478 10.4699 36.9194 9.49823 36.9194 8.3098C36.9194 7.12147 35.9478 6.1498 34.7593 6.1498C33.571 6.1498 32.5993 7.12147 32.5993 8.3098C32.5993 9.49823 33.571 10.4699 34.7593 10.4699Z" fill="#FF845E"></path>
</svg>
