<svg xmlns="http://www.w3.org/2000/svg" width="32" height="32" viewBox="0 0 32 32" fill="none"><path d="M16 22.98C17.6569 22.98 19 21.6368 19 19.98C19 18.3231 17.6569 16.98 16 16.98C14.3431 16.98 13 18.3231 13 19.98C13 21.6368 14.3431 22.98 16 22.98Z" fill="#FF845E"></path><path d="M10.5 29.1149V27.5599C10.5 25.3499 12.29 23.5599 14.5 23.5599H17.5C19.71 23.5599 21.5 25.3499 21.5 27.5599V29.1149H10.5Z" fill="#FF845E"></path><path d="M25.5 21.1699C27.1569 21.1699 28.5 19.8268 28.5 18.1699C28.5 16.5131 27.1569 15.1699 25.5 15.1699C23.8431 15.1699 22.5 16.5131 22.5 18.1699C22.5 19.8268 23.8431 21.1699 25.5 21.1699Z" fill="#FF845E"></path><path d="M31 25.745V27.3H22.495C22.42 25.815 21.695 24.5 20.6 23.635C20.9588 23.0565 21.4595 22.5792 22.0545 22.2485C22.6496 21.9177 23.3192 21.7444 24 21.745H27C29.21 21.745 31 23.535 31 25.745Z" fill="#FF845E"></path><path d="M6.5 21.1699C8.15685 21.1699 9.5 19.8268 9.5 18.1699C9.5 16.5131 8.15685 15.1699 6.5 15.1699C4.84315 15.1699 3.5 16.5131 3.5 18.1699C3.5 19.8268 4.84315 21.1699 6.5 21.1699Z" fill="#FF845E"></path><path d="M11.4 23.635C10.8409 24.0753 10.3826 24.6302 10.0557 25.2623C9.7289 25.8945 9.54111 26.5893 9.505 27.3H1V25.745C1 23.535 2.79 21.745 5 21.745H8C9.435 21.745 10.695 22.5 11.4 23.635ZM9.74 14.805C9.63 14.805 9.515 14.765 9.425 14.69C9.37401 14.6484 9.33173 14.5971 9.3006 14.5391C9.26947 14.4811 9.2501 14.4175 9.24359 14.352C9.23709 14.2865 9.24358 14.2204 9.2627 14.1574C9.28182 14.0944 9.31318 14.0358 9.355 13.985C11.005 11.985 13.43 10.84 16.02 10.84C18.61 10.84 21.035 11.985 22.685 13.98C22.86 14.195 22.83 14.51 22.62 14.685C22.405 14.86 22.09 14.83 21.915 14.62C20.455 12.855 18.31 11.84 16.025 11.84C13.74 11.84 11.59 12.855 10.13 14.62C10.0832 14.6767 10.0244 14.7223 9.9578 14.7534C9.89121 14.7845 9.81851 14.8004 9.745 14.8L9.74 14.805ZM26.02 6.25998L26.595 7.41998C26.695 7.62498 26.895 7.76998 27.12 7.79998L28.4 7.98498C28.975 8.06998 29.2 8.76998 28.785 9.17498L27.855 10.08C27.69 10.24 27.615 10.47 27.655 10.7L27.875 11.975C27.975 12.545 27.375 12.98 26.86 12.71L25.715 12.105C25.6145 12.0532 25.5031 12.0262 25.39 12.0262C25.2769 12.0262 25.1655 12.0532 25.065 12.105L23.92 12.71C23.41 12.98 22.81 12.545 22.905 11.975L23.125 10.7C23.165 10.475 23.09 10.24 22.925 10.08L21.995 9.17498C21.58 8.76998 21.81 8.06498 22.38 7.98498L23.66 7.79998C23.89 7.76498 24.085 7.62498 24.185 7.41998L24.76 6.25998C25.015 5.73998 25.755 5.73998 26.015 6.25998H26.02ZM7.02 6.25998L7.595 7.41998C7.695 7.62498 7.895 7.76998 8.12 7.79998L9.4 7.98498C9.975 8.06998 10.2 8.76998 9.785 9.17498L8.855 10.08C8.69 10.24 8.615 10.47 8.655 10.7L8.875 11.975C8.975 12.545 8.375 12.98 7.86 12.71L6.715 12.105C6.61448 12.0532 6.50306 12.0262 6.39 12.0262C6.27694 12.0262 6.16552 12.0532 6.065 12.105L4.92 12.71C4.41 12.98 3.81 12.545 3.905 11.975L4.125 10.7C4.165 10.475 4.09 10.24 3.925 10.08L2.995 9.17498C2.58 8.76998 2.81 8.06498 3.38 7.98498L4.66 7.79998C4.89 7.76498 5.085 7.62498 5.185 7.41998L5.76 6.25998C6.015 5.73998 6.755 5.73998 7.015 6.25998H7.02ZM16.65 2.36998L17.225 3.52998C17.325 3.73498 17.525 3.87998 17.75 3.90998L19.03 4.09498C19.605 4.17998 19.83 4.87998 19.415 5.28498L18.485 6.18998C18.32 6.34998 18.245 6.57998 18.285 6.80998L18.505 8.08498C18.605 8.65498 18.005 9.08998 17.49 8.81998L16.345 8.21498C16.2445 8.16323 16.1331 8.13623 16.02 8.13623C15.9069 8.13623 15.7955 8.16323 15.695 8.21498L14.55 8.81998C14.04 9.08998 13.44 8.65498 13.535 8.08498L13.755 6.80998C13.795 6.58498 13.72 6.34998 13.555 6.18998L12.625 5.28498C12.21 4.87998 12.44 4.17498 13.01 4.09498L14.29 3.90998C14.52 3.87498 14.715 3.73498 14.815 3.52998L15.39 2.36998C15.645 1.84998 16.385 1.84998 16.645 2.36998H16.65Z" fill="#FF845E"></path></svg>