<svg xmlns="http://www.w3.org/2000/svg" width="32" height="32" viewBox="0 0 32 32" fill="none"><path fill-rule="evenodd" clip-rule="evenodd" d="M16.1612 14.0155L16.7138 15.1304C16.7264 15.1568 16.7455 15.1795 16.7693 15.1965C16.7931 15.2135 16.8209 15.2241 16.8499 15.2274L18.0248 15.3772C18.0937 15.3861 18.148 15.4306 18.1702 15.4964C18.1923 15.5623 18.1758 15.6306 18.1262 15.6791L17.2366 16.5493C17.2154 16.5694 17.1997 16.5946 17.1909 16.6225C17.1822 16.6504 17.1807 16.6801 17.1865 16.7087L17.407 17.8724C17.42 17.9407 17.3944 18.0061 17.3386 18.0474C17.2828 18.0888 17.2128 18.0943 17.1512 18.0621L16.0488 17.4849C16.0231 17.471 15.9943 17.4638 15.965 17.4641C15.9358 17.4644 15.9071 17.4721 15.8817 17.4866L14.843 18.0559C14.7821 18.0893 14.712 18.0852 14.6554 18.0449C14.5988 18.0047 14.572 17.9398 14.5836 17.8713L14.7918 16.6444C14.7971 16.6156 14.795 16.586 14.7857 16.5583C14.7764 16.5306 14.7602 16.5057 14.7387 16.486L13.8762 15.6741C13.8517 15.6516 13.8341 15.6225 13.8257 15.5902C13.8173 15.558 13.8183 15.524 13.8287 15.4923C13.8383 15.4604 13.8569 15.4319 13.8823 15.4103C13.9076 15.3886 13.9387 15.3748 13.9717 15.3704L15.2028 15.1892C15.2318 15.1854 15.2593 15.1743 15.2828 15.1569C15.3063 15.1395 15.325 15.1164 15.337 15.0898L15.8427 14.0186C15.8565 13.9883 15.8788 13.9626 15.9069 13.9446C15.9349 13.9267 15.9676 13.9172 16.0009 13.9172C16.0342 13.9165 16.0671 13.9253 16.0955 13.9427C16.124 13.9602 16.1468 13.9854 16.1612 14.0155ZM21.803 18.8473C21.9025 18.9052 21.9751 19.0001 22.0048 19.1114C22.0345 19.2226 22.019 19.3411 21.9616 19.4409C21.9043 19.5408 21.8097 19.6138 21.6986 19.6441C21.5875 19.6744 21.469 19.6595 21.3688 19.6027L20.1302 18.8876C20.0307 18.8297 19.9581 18.7347 19.9284 18.6235C19.8987 18.5123 19.9142 18.3938 19.9716 18.2939C20.0289 18.1941 20.1235 18.1211 20.2346 18.0907C20.3457 18.0604 20.4642 18.0753 20.5643 18.1322L21.803 18.8473ZM16 11.9176C14.8728 11.9176 13.8522 12.3746 13.1134 13.1134C12.3746 13.8521 11.9177 14.8728 11.9177 16.0001C11.9177 17.1273 12.3747 18.1479 13.1134 18.8867C13.8522 19.6254 14.8728 20.0824 16 20.0824C17.1273 20.0824 18.1479 19.6254 18.8867 18.8867C19.6255 18.1479 20.0825 17.1273 20.0825 16.0001C20.0825 14.8728 19.6255 13.8522 18.8867 13.1134C18.1479 12.3746 17.1273 11.9176 16 11.9176ZM18.2681 13.732C17.6877 13.1516 16.8858 12.7926 16 12.7926C15.1143 12.7926 14.3124 13.1516 13.732 13.732C13.1517 14.3124 12.7927 15.1143 12.7927 16C12.7927 16.8857 13.1517 17.6876 13.732 18.268C14.3124 18.8484 15.1143 19.2074 16 19.2074C16.8858 19.2074 17.6877 18.8484 18.2681 18.268C18.8485 17.6876 19.2075 16.8857 19.2075 16C19.2075 15.1143 18.8485 14.3123 18.2681 13.732ZM16 0.25C17.1273 0.25 18.1479 0.707 18.8867 1.44575C19.6255 2.1845 20.0825 3.20512 20.0825 4.33244C20.0825 5.4145 19.6613 6.39819 18.9742 7.12875L18.9737 7.12931L18.9452 7.15925L18.9374 7.16738C18.9292 7.17594 18.9209 7.18444 18.9126 7.19287L18.9047 7.20087L18.8868 7.21906L18.8809 7.22487L18.8696 7.23606L18.8471 7.25819L18.8382 7.26675C18.8298 7.27481 18.8215 7.28287 18.8131 7.29087L18.812 7.29187C18.0799 7.98769 17.0899 8.41481 16.0001 8.41481C14.8729 8.41481 13.8522 7.95781 13.1135 7.21906C12.3747 6.48031 11.9177 5.45969 11.9177 4.33244C11.9177 3.20519 12.3747 2.18456 13.1135 1.44575C13.8522 0.706937 14.8728 0.25 16 0.25ZM18.2681 2.06437C17.6877 1.484 16.8858 1.125 16 1.125C15.1143 1.125 14.3124 1.484 13.732 2.06437C13.1517 2.64475 12.7927 3.44669 12.7927 4.33244C12.7927 4.88681 12.9333 5.40837 13.1809 5.86325C13.4486 5.53315 13.7721 5.25244 14.1366 5.03381C14.6995 4.69584 15.3438 4.51757 16.0003 4.51813C16.6567 4.51757 17.3009 4.6958 17.8637 5.03369C18.2282 5.25232 18.5517 5.53301 18.8195 5.86306C19.067 5.40819 19.2076 4.88675 19.2076 4.33244C19.2075 3.44669 18.8485 2.64475 18.2681 2.06437ZM29.6387 8.125C30.2027 9.10175 30.3175 10.2139 30.0473 11.2224C29.8971 11.7835 29.6288 12.3061 29.2604 12.7552L29.2608 12.7555C28.9054 13.1895 28.4637 13.545 27.9638 13.7995C27.2534 14.1646 26.4511 14.3121 25.6573 14.2236L25.6372 14.2214L25.6191 14.2192C25.2972 14.181 24.9811 14.1042 24.6775 13.9905L24.6707 13.9879C24.6603 13.9841 24.65 13.9801 24.6396 13.9761L24.6127 13.9656L24.6021 13.9614C24.1669 13.7894 23.7646 13.5437 23.4128 13.235L23.4115 13.2339L23.411 13.2334L23.4109 13.2333C23.2444 13.087 23.0902 12.9273 22.9498 12.7559C22.9454 12.7506 22.9412 12.7451 22.9371 12.7396C22.8013 12.5719 22.6788 12.3938 22.5709 12.2069L22.5702 12.2073C22.0062 11.2306 21.8914 10.1184 22.1616 9.10994C22.4317 8.10188 23.0875 7.19613 24.0649 6.63181C25.0413 6.06806 26.1528 5.95325 27.1606 6.22325C28.1682 6.49325 29.0736 7.14863 29.638 8.12531L29.6387 8.125ZM29.203 10.9968C29.4157 10.2033 29.3259 9.32906 28.8833 8.5625L28.8841 8.56206L28.8833 8.56081C28.4412 7.79488 27.729 7.28038 26.935 7.06763C26.1407 6.85481 25.2659 6.94456 24.499 7.38731C23.7332 7.8295 23.2186 8.54169 23.0058 9.33562C22.7998 10.1044 22.8777 10.9488 23.2851 11.6978C23.5529 11.3676 23.8764 11.0869 24.2409 10.8682C24.8038 10.5302 25.4481 10.3519 26.1046 10.3525C26.761 10.352 27.4052 10.5302 27.968 10.8681C28.3327 11.0868 28.6563 11.3676 28.9241 11.6978C29.0441 11.4758 29.1378 11.2406 29.203 10.9968ZM29.6232 23.8999C29.6286 23.8918 29.6338 23.8836 29.6387 23.875C30.2027 22.8982 30.3175 21.7861 30.0473 20.7777C29.7797 19.7788 29.1332 18.8804 28.1705 18.3151C28.1624 18.3096 28.1541 18.3045 28.1457 18.2996C27.1689 17.7356 26.0568 17.6208 25.0483 17.891C24.0494 18.1586 23.151 18.8051 22.5857 19.7677C22.5803 19.7759 22.5751 19.7842 22.5702 19.7926C22.0062 20.7694 21.8914 21.8815 22.1616 22.8899C22.3388 23.5525 22.6803 24.1595 23.1545 24.6549L23.1625 24.6632L23.1704 24.6714L23.1758 24.677C23.2672 24.7714 23.3632 24.8612 23.4633 24.9461C23.6503 25.1044 23.8511 25.2456 24.0633 25.368C24.4476 25.5904 24.8657 25.7485 25.3009 25.836C25.9171 25.9598 26.5536 25.9395 27.1607 25.7765C27.582 25.6637 27.9825 25.4841 28.347 25.2446L28.352 25.2414L28.3537 25.2402L28.3585 25.237C28.6986 25.0126 29.0028 24.7382 29.2608 24.4229L29.2598 24.4221L29.2656 24.4149C29.3977 24.2525 29.5172 24.0804 29.6232 23.8999ZM28.9239 23.3652C28.6561 23.0351 28.3326 22.7543 27.968 22.5357C27.4052 22.1978 26.761 22.0196 26.1045 22.0201C25.448 22.0196 24.8037 22.1978 24.2408 22.5358C23.8762 22.7545 23.5527 23.0353 23.2848 23.3656C23.1647 23.1435 23.0711 22.9082 23.0058 22.6644C22.7932 21.8708 22.8829 20.9966 23.3255 20.2301C23.3297 20.2227 23.3337 20.2154 23.3375 20.2079C23.7805 19.4533 24.487 18.9459 25.2738 18.7351C26.0673 18.5225 26.9415 18.6123 27.7081 19.0548C27.7154 19.0591 27.7228 19.0631 27.7303 19.0668C28.4848 19.5098 28.9922 20.2163 29.203 21.0031C29.409 21.7719 29.3313 22.6163 28.9239 23.3652ZM16 31.75C14.8728 31.75 13.8522 31.293 13.1134 30.5543C12.3746 29.8155 11.9177 28.7949 11.9177 27.6676C11.9177 26.5404 12.3747 25.5197 13.1134 24.7809C13.8522 24.0422 14.8728 23.5852 16 23.5852C17.1273 23.5852 18.1479 24.0422 18.8867 24.7809C19.6255 25.5197 20.0825 26.5403 20.0825 27.6676C20.0825 28.7652 19.6492 29.7616 18.9445 30.4953L18.9385 30.5016C18.9299 30.5105 18.9213 30.5193 18.9126 30.5281L18.9047 30.5361L18.8868 30.5543L18.8809 30.5601L18.8696 30.5713L18.8471 30.5934L18.8382 30.602C18.8298 30.6101 18.8215 30.6181 18.8131 30.6261L18.812 30.6271C18.0798 31.3229 17.0898 31.75 16 31.75ZM18.8194 29.1982C19.0668 28.7434 19.2075 28.2219 19.2075 27.6676C19.2075 26.7819 18.8485 25.9799 18.2681 25.3996C17.6877 24.8192 16.8858 24.4602 16 24.4602C15.1143 24.4602 14.3124 24.8192 13.732 25.3996C13.1517 25.9799 12.7927 26.7818 12.7927 27.6676C12.7927 28.222 12.9333 28.7435 13.1809 29.1984C13.4486 28.8683 13.7721 28.5876 14.1366 28.369C14.6995 28.031 15.3438 27.8528 16.0003 27.8533C16.6567 27.8528 17.3009 28.031 17.8637 28.3689C18.2282 28.5875 18.5516 28.8682 18.8194 29.1982ZM2.36135 23.875C1.79741 22.8982 1.6826 21.7861 1.95279 20.7777C2.22279 19.7701 2.8781 18.8647 3.85485 18.3003L3.85441 18.2996C4.83116 17.7356 5.94335 17.6208 6.95179 17.891C7.95941 18.161 8.86479 18.8163 9.42916 19.7931L9.42991 19.7926C9.99385 20.7694 10.1087 21.8815 9.83847 22.8899C9.6883 23.4511 9.42003 23.9737 9.0516 24.4228L9.05197 24.4231C8.64089 24.9248 8.11553 25.3207 7.51991 25.5776C6.88114 25.8562 6.18138 25.9657 5.48804 25.8954L5.48204 25.8948L5.45129 25.8915L5.42322 25.8883L5.41204 25.887C5.09091 25.8489 4.7755 25.7726 4.47254 25.6595L4.45179 25.6517L4.43504 25.6453C3.99415 25.4766 3.58594 25.2326 3.22866 24.9241L3.2086 24.9066L3.19935 24.8986C3.03394 24.7529 2.88064 24.5941 2.74097 24.4236C2.73674 24.4184 2.73262 24.4131 2.7286 24.4078C2.59262 24.2399 2.47006 24.0616 2.36204 23.8746L2.36135 23.875ZM2.79704 21.0033C2.59104 21.7721 2.66885 22.6164 3.07629 23.3654C3.34408 23.0352 3.66756 22.7545 4.0321 22.5358C4.59494 22.1978 5.23921 22.0196 5.89572 22.0201C6.55216 22.0196 7.19635 22.1978 7.75916 22.5357C8.1238 22.7544 8.44736 23.0352 8.71522 23.3654C8.83525 23.1434 8.92889 22.9081 8.99422 22.6644C9.20685 21.8708 9.1171 20.9966 8.67454 20.2301L8.67529 20.2296L8.67454 20.2284C8.23235 19.4625 7.52016 18.9479 6.72622 18.7352C5.93266 18.5226 5.05847 18.6123 4.29191 19.0549L4.29147 19.0541L4.29022 19.0549C3.52429 19.4971 3.00972 20.2093 2.79704 21.0033ZM2.37691 8.10013C2.94216 7.13744 3.84054 6.491 4.83941 6.22337C5.8471 5.95337 6.95866 6.06819 7.9351 6.63194C8.91254 7.19625 9.56829 8.102 9.83841 9.11006C10.1086 10.1185 9.99379 11.2307 9.42985 12.2074C9.42493 12.2159 9.41974 12.2242 9.41429 12.2323C9.30706 12.415 9.18591 12.5892 9.05191 12.7533L9.05079 12.7546L9.05179 12.7554C8.81337 13.0467 8.53546 13.3032 8.2261 13.5176L8.22598 13.5177C7.83856 13.7869 7.40743 13.987 6.95172 14.109C6.04541 14.3518 5.05529 14.2836 4.15504 13.8579L4.14041 13.851L4.1151 13.8387L4.09541 13.8292L4.07179 13.8174L4.05035 13.8066L4.02904 13.7957L4.00541 13.7834L3.98547 13.773C3.97616 13.7681 3.96687 13.7631 3.9576 13.7581L3.94235 13.7498L3.91047 13.7323L3.89835 13.7255C3.88364 13.7172 3.86898 13.7089 3.85435 13.7005L3.85397 13.7002L3.8536 13.7L3.85316 13.6997L3.85279 13.6995L3.85235 13.6993C3.64085 13.5771 3.44072 13.4363 3.25435 13.2784C3.13806 13.1798 3.02749 13.0747 2.92316 12.9635C2.46053 12.4724 2.1271 11.8741 1.95279 11.2222C1.6826 10.2138 1.79741 9.10163 2.36135 8.12488C2.36629 8.11648 2.37148 8.10822 2.37691 8.10013ZM5.06504 7.06763C4.27822 7.27844 3.57172 7.78575 3.12872 8.54037C3.12497 8.54781 3.12097 8.55525 3.11672 8.56256C2.67416 9.32913 2.58441 10.2032 2.79704 10.9969C2.86235 11.2407 2.95599 11.4759 3.07604 11.6979C3.34384 11.3677 3.66736 11.0869 4.03197 10.8682C4.59482 10.5303 5.23909 10.352 5.8956 10.3526C6.55204 10.352 7.19622 10.5303 7.75904 10.8681C8.12363 11.0868 8.44717 11.3676 8.71504 11.6978C9.12241 10.9489 9.20016 10.1045 8.99422 9.33575C8.78147 8.54181 8.26691 7.82962 7.50104 7.38744C6.7341 6.94456 5.85935 6.85475 5.06504 7.06763ZM5.8956 7.38681C5.71993 7.38659 5.54594 7.42109 5.38365 7.48833C5.22136 7.55557 5.07395 7.65423 4.94991 7.77863C4.82552 7.90267 4.72688 8.05008 4.65964 8.21237C4.59239 8.37466 4.55789 8.54864 4.5581 8.72431C4.55788 8.89998 4.59238 9.07397 4.65962 9.23626C4.72686 9.39856 4.82552 9.54596 4.94991 9.67C5.07396 9.79438 5.22137 9.89302 5.38366 9.96025C5.54595 10.0275 5.71993 10.062 5.8956 10.0618C6.07127 10.062 6.24524 10.0275 6.40754 9.96024C6.56983 9.89301 6.71723 9.79438 6.84129 9.67C7.08335 9.42794 7.2331 9.09356 7.2331 8.72431C7.2331 8.35506 7.08335 8.02063 6.84129 7.77863C6.71725 7.65423 6.56984 7.55557 6.40755 7.48833C6.24525 7.42109 6.07127 7.38659 5.8956 7.38681ZM16.0002 1.5525C15.8245 1.55228 15.6505 1.58678 15.4882 1.65401C15.3259 1.72124 15.1785 1.81987 15.0545 1.94425C14.9301 2.0683 14.8314 2.2157 14.7642 2.37799C14.697 2.54029 14.6625 2.71427 14.6627 2.88994C14.6624 3.06561 14.6969 3.23959 14.7642 3.40189C14.8314 3.56418 14.9301 3.71158 15.0545 3.83562C15.2965 4.07769 15.6309 4.22744 16.0002 4.22744C16.3694 4.22744 16.7038 4.07769 16.9458 3.83562C17.1878 3.59356 17.3377 3.25919 17.3377 2.88994C17.3377 2.52062 17.1879 2.18625 16.9458 1.94425C16.7038 1.70225 16.3694 1.5525 16.0002 1.5525ZM26.1046 7.38694C25.9289 7.38672 25.7549 7.42122 25.5926 7.48846C25.4304 7.5557 25.283 7.65435 25.1589 7.77875C24.9168 8.02081 24.7671 8.35519 24.7671 8.72444C24.7671 9.09369 24.9168 9.42813 25.1589 9.67013C25.401 9.91219 25.7353 10.0619 26.1046 10.0619C26.4738 10.0619 26.8083 9.91219 27.0503 9.67013C27.1747 9.54608 27.2733 9.39867 27.3406 9.23638C27.4078 9.07409 27.4423 8.90011 27.4421 8.72444C27.4423 8.54877 27.4078 8.37478 27.3406 8.21249C27.2733 8.05019 27.1747 7.90279 27.0503 7.77875C26.9262 7.65435 26.7788 7.55569 26.6166 7.48845C26.4543 7.42121 26.2803 7.38671 26.1046 7.38694ZM26.1046 19.0545C26.2803 19.0543 26.4543 19.0888 26.6165 19.156C26.7788 19.2233 26.9262 19.3219 27.0503 19.4463C27.1747 19.5704 27.2733 19.7178 27.3406 19.8801C27.4078 20.0423 27.4423 20.2163 27.4421 20.392C27.4423 20.5677 27.4078 20.7417 27.3406 20.9039C27.2733 21.0662 27.1747 21.2136 27.0503 21.3377C26.9262 21.4621 26.7788 21.5607 26.6165 21.6279C26.4542 21.6952 26.2803 21.7297 26.1046 21.7294C25.9289 21.7297 25.755 21.6952 25.5927 21.6279C25.4304 21.5607 25.283 21.4621 25.1589 21.3377C25.0345 21.2136 24.9359 21.0662 24.8686 20.9039C24.8014 20.7416 24.7669 20.5677 24.7671 20.392C24.7669 20.2163 24.8014 20.0423 24.8686 19.8801C24.9359 19.7178 25.0345 19.5704 25.1589 19.4463C25.283 19.3219 25.4304 19.2233 25.5926 19.156C25.7549 19.0888 25.9289 19.0543 26.1046 19.0545ZM16.0002 24.8877C15.8245 24.8875 15.6505 24.922 15.4882 24.9892C15.3259 25.0564 15.1785 25.1551 15.0545 25.2794C14.9301 25.4035 14.8314 25.5509 14.7642 25.7132C14.697 25.8755 14.6625 26.0495 14.6627 26.2251C14.6624 26.4008 14.6969 26.5748 14.7642 26.7371C14.8314 26.8994 14.9301 27.0468 15.0545 27.1708C15.2965 27.4129 15.6309 27.5626 16.0002 27.5626C16.3694 27.5626 16.7038 27.4128 16.9458 27.1708C17.1878 26.9288 17.3377 26.5944 17.3377 26.2251C17.3377 25.8559 17.1879 25.5214 16.9458 25.2794C16.8218 25.1551 16.6744 25.0564 16.5121 24.9892C16.3498 24.922 16.1758 24.8875 16.0002 24.8877ZM5.89572 19.0545C5.72005 19.0543 5.54607 19.0888 5.38378 19.156C5.22148 19.2233 5.07408 19.3219 4.95004 19.4463C4.82566 19.5704 4.72702 19.7178 4.65979 19.8801C4.59256 20.0424 4.55806 20.2163 4.55829 20.392C4.55807 20.5677 4.59256 20.7416 4.65979 20.9039C4.72702 21.0662 4.82566 21.2136 4.95004 21.3377C5.07409 21.4621 5.22149 21.5607 5.38379 21.6279C5.54608 21.6952 5.72006 21.7297 5.89572 21.7294C6.07139 21.7297 6.24537 21.6952 6.40766 21.6279C6.56995 21.5607 6.71736 21.4621 6.84141 21.3377C6.9658 21.2136 7.06445 21.0662 7.13169 20.9039C7.19893 20.7416 7.23344 20.5677 7.23322 20.392C7.23345 20.2163 7.19894 20.0423 7.1317 19.8801C7.06446 19.7178 6.96581 19.5704 6.84141 19.4463C6.71737 19.3219 6.56997 19.2233 6.40767 19.156C6.24538 19.0888 6.0714 19.0543 5.89572 19.0545ZM15.5625 9.55C15.5625 9.43397 15.6086 9.32269 15.6907 9.24064C15.7727 9.15859 15.884 9.1125 16 9.1125C16.1161 9.1125 16.2273 9.15859 16.3094 9.24064C16.3914 9.32269 16.4375 9.43397 16.4375 9.55V10.9809C16.4375 11.097 16.3914 11.2082 16.3094 11.2903C16.2273 11.3723 16.1161 11.4184 16 11.4184C15.884 11.4184 15.7727 11.3723 15.6907 11.2903C15.6086 11.2082 15.5625 11.097 15.5625 10.9809V9.55ZM15.5625 21.0191C15.5625 20.9031 15.6086 20.7918 15.6907 20.7098C15.7727 20.6277 15.884 20.5816 16 20.5816C16.1161 20.5816 16.2273 20.6277 16.3094 20.7098C16.3914 20.7918 16.4375 20.9031 16.4375 21.0191V22.45C16.4375 22.566 16.3914 22.6773 16.3094 22.7594C16.2273 22.8414 16.1161 22.8875 16 22.8875C15.884 22.8875 15.7727 22.8414 15.6907 22.7594C15.6086 22.6773 15.5625 22.566 15.5625 22.45V21.0191ZM21.3672 12.3973C21.4672 12.3411 21.5854 12.3266 21.6961 12.3568C21.8068 12.3871 21.9011 12.4598 21.9587 12.5591C22.0162 12.6584 22.0323 12.7764 22.0035 12.8875C21.9746 12.9986 21.9032 13.0939 21.8047 13.1527L20.566 13.8678C20.466 13.924 20.3478 13.9386 20.2371 13.9083C20.1264 13.878 20.032 13.8053 19.9745 13.706C19.917 13.6067 19.9009 13.4887 19.9297 13.3776C19.9586 13.2665 20.03 13.1713 20.1285 13.1124L21.3672 12.3973ZM11.434 18.1322C11.5341 18.076 11.6523 18.0615 11.763 18.0918C11.8737 18.1221 11.968 18.1947 12.0255 18.294C12.0831 18.3934 12.0992 18.5113 12.0703 18.6224C12.0415 18.7335 11.9701 18.8288 11.8715 18.8876L10.6329 19.6028C10.5328 19.659 10.4147 19.6735 10.304 19.6432C10.1933 19.6129 10.0989 19.5403 10.0414 19.441C9.98388 19.3416 9.96779 19.2237 9.99661 19.1126C10.0254 19.0015 10.0969 18.9062 10.1954 18.8474L11.434 18.1322ZM11.8699 13.1124C11.9694 13.1703 12.0419 13.2653 12.0717 13.3765C12.1014 13.4877 12.0859 13.6062 12.0285 13.7061C11.9711 13.8059 11.8766 13.8789 11.7655 13.9093C11.6544 13.9396 11.5359 13.9247 11.4357 13.8678L10.1971 13.1527C10.0976 13.0948 10.025 12.9999 9.99528 12.8886C9.96555 12.7774 9.98107 12.6589 10.0384 12.5591C10.0958 12.4592 10.1904 12.3862 10.3015 12.3559C10.4125 12.3256 10.5311 12.3405 10.6312 12.3973L11.8699 13.1124Z" fill="#FF845E"></path></svg>