<?xml version="1.0" encoding="UTF-8"?>
<svg xmlns="http://www.w3.org/2000/svg" width="50" height="50" viewBox="0 0 50 50" fill="none">
  <g clip-path="url(#clip0_2694_2427)">
    <path d="M10.2051 42.1875V40.0391C10.2051 39.4736 9.74512 39.0137 9.17969 39.0137H4.6875C4.12207 39.0137 3.66211 39.4736 3.66211 40.0391V42.1875C3.66211 42.7529 4.12207 43.2129 4.6875 43.2129H9.17969C9.74512 43.2129 10.2051 42.7529 10.2051 42.1875ZM8.74023 41.748H5.12695V40.4785H8.74023V41.748Z" fill="#FF845E"></path>
    <path d="M49.1549 25.5796C49.1549 21.2936 46.7473 17.5597 43.2139 15.658C43.2755 15.4924 43.3322 15.325 43.3838 15.1561H45.7009C46.3752 15.1561 46.9239 14.6074 46.9239 13.9331V10.9692C46.9239 10.2949 46.3752 9.74629 45.7009 9.74629H43.3837C43.2073 9.16346 42.9738 8.59947 42.6867 8.0625L44.3249 6.42441C44.8017 5.94746 44.8017 5.17168 44.3249 4.69473L42.2291 2.59902C41.7523 2.12217 40.9763 2.12217 40.4995 2.59902L38.8614 4.23721C38.3244 3.95007 37.7604 3.71656 37.1776 3.54004V1.22295C37.1775 0.548633 36.6289 0 35.9545 0H32.9907C32.3164 0 31.7677 0.548633 31.7677 1.22295V3.54014C31.1849 3.71654 30.6209 3.95003 30.0839 4.23721L28.4458 2.59902C27.969 2.12217 27.193 2.12217 26.7162 2.59902L24.6205 4.69482C24.1437 5.17168 24.1437 5.94746 24.6205 6.42441L26.2586 8.0625C25.9715 8.5995 25.738 9.16349 25.5615 9.74629H23.2444C22.5701 9.74629 22.0214 10.2949 22.0214 10.9692V12.2147H6.24097C5.56782 12.2147 5.02026 12.7623 5.02026 13.4354V27.4636H2.06567C1.39253 27.4636 0.844971 28.0111 0.844971 28.6843V44.6476C0.844971 45.3207 1.39253 45.8683 2.06567 45.8683H6.05464C6.45913 45.8683 6.78706 45.5404 6.78706 45.1358C6.78706 44.7313 6.45913 44.4034 6.05464 44.4034H2.30981V28.9285H9.8397V33.5938C9.8397 34.1592 10.2997 34.6191 10.8651 34.6191H15.2417C15.8072 34.6191 16.2671 34.1592 16.2671 33.5938V28.9285H23.7971V44.4035H9.47261C9.06812 44.4035 8.74019 44.7313 8.74019 45.1359C8.74019 45.5405 9.06812 45.8684 9.47261 45.8684H34.1895L37.084 49.602C37.2801 49.855 37.576 50 37.8959 50C38.2159 50 38.5119 49.855 38.7079 49.602L43.8197 43.0082C44.0618 42.6959 44.1042 42.2815 43.9304 41.9267C43.7566 41.5718 43.4031 41.3513 43.0079 41.3513H40.8846V36.4351C45.6468 35.1225 49.1549 30.7533 49.1549 25.5796ZM12.1721 13.6796H15.1603V18.0602H12.1721V13.6796ZM14.8024 33.1543H11.3046V28.9285H14.8024V33.1543ZM20.8473 27.4637H6.48511V13.6796H10.7073V18.4996C10.7073 19.065 11.1672 19.525 11.7327 19.525H15.5998C16.1652 19.525 16.6251 19.065 16.6251 18.4996V13.6796H20.8473V27.4637ZM23.4863 11.2111H25.743C26.2879 11.2111 26.7723 10.843 26.921 10.3157C27.0874 9.72526 27.3229 9.15649 27.6225 8.62119C27.8902 8.14316 27.808 7.54033 27.4227 7.15488L25.8273 5.55957L27.581 3.80586L29.1764 5.40137C29.5619 5.78672 30.1648 5.86865 30.6428 5.60117C31.1782 5.30154 31.747 5.06606 32.3374 4.89961C32.8645 4.75098 33.2327 4.2666 33.2327 3.72168V1.46484H35.7127V3.72158C35.7127 4.2665 36.0809 4.75088 36.6082 4.89961C37.1986 5.06599 37.7674 5.30144 38.3027 5.60107C38.7805 5.86865 39.3835 5.78652 39.769 5.40127L41.3644 3.80576L43.1181 5.55947L41.5226 7.15488C41.1374 7.54023 41.0551 8.14316 41.3228 8.62129C41.6224 9.15663 41.8579 9.72544 42.0244 10.3159C42.173 10.843 42.6574 11.2111 43.2023 11.2111H45.4589V13.6912H43.2022C42.6573 13.6912 42.1729 14.0594 42.0242 14.5866C41.9799 14.7419 41.9307 14.8958 41.8767 15.048C41.3195 14.8364 40.7463 14.6698 40.1625 14.5497C40.4116 13.8781 40.539 13.1674 40.5386 12.4511C40.5392 11.7537 40.4191 11.0615 40.1838 10.405C40.1183 10.2221 39.9828 10.0728 39.8072 9.98978C39.6316 9.9068 39.4302 9.89699 39.2473 9.9625C39.0644 10.028 38.9151 10.1635 38.8321 10.3391C38.7491 10.5148 38.7393 10.7162 38.8048 10.899C38.9833 11.397 39.0742 11.9222 39.0738 12.4512C39.0744 13.1053 38.9344 13.7519 38.6635 14.3473C38.4081 14.3297 38.1521 14.3208 37.896 14.3206C37.691 14.3206 37.4872 14.3266 37.2847 14.3374C37.6609 13.7803 37.8617 13.1234 37.8611 12.4512C37.8611 10.5827 36.3411 9.0627 34.4726 9.0627C32.6837 9.0627 31.2152 10.4563 31.0933 12.2147H29.8774C30.0009 9.78711 32.0149 7.85 34.4726 7.85C35.3528 7.8493 36.2146 8.10204 36.9549 8.57803C37.1183 8.68004 37.3153 8.71359 37.5032 8.6714C37.6912 8.62922 37.8549 8.5147 37.959 8.35264C38.0632 8.19059 38.0992 7.99405 38.0595 7.80558C38.0197 7.61711 37.9073 7.45189 37.7466 7.3457C36.7702 6.71774 35.6335 6.38427 34.4726 6.38516C31.2071 6.38516 28.5374 8.9792 28.4125 12.2147H23.4863V11.2111ZM32.5619 12.2354C32.6697 11.2761 33.485 10.5275 34.4726 10.5275C35.5333 10.5275 36.3962 11.3905 36.3962 12.4512C36.3962 13.5118 35.5333 14.3748 34.4726 14.3748C34.1556 14.3749 33.8436 14.2959 33.5649 14.1447V13.4354C33.5649 12.8367 33.1313 12.3384 32.5619 12.2354ZM22.3122 27.4637V13.6796H32.1001V15.9305C28.8293 17.9025 26.6372 21.4897 26.6372 25.5795C26.6372 26.2214 26.6919 26.8507 26.7957 27.4636H22.3122V27.4637ZM25.2621 44.4034V28.9285H27.1456C28.2815 32.5673 31.2181 35.4183 34.9073 36.4352V41.3514H32.784C32.3888 41.3514 32.0353 41.5719 31.8615 41.9268C31.6876 42.2816 31.73 42.6959 31.9721 43.0081L33.054 44.4035L25.2621 44.4034ZM42.1152 42.8162L37.896 48.2586L33.6768 42.8162H35.3449C35.9114 42.8162 36.3722 42.3553 36.3722 41.7888V36.7351C36.8708 36.8028 37.3792 36.8386 37.896 36.8386C38.4128 36.8386 38.9213 36.8028 39.4199 36.7351V41.7888C39.4199 42.3553 39.8807 42.8162 40.4472 42.8162H42.1152ZM37.896 35.3737C32.4956 35.3737 28.1019 30.9801 28.1019 25.5796C28.1019 20.1791 32.4956 15.7854 37.896 15.7854C43.2965 15.7854 47.6901 20.1791 47.6901 25.5796C47.6901 30.9801 43.2965 35.3737 37.896 35.3737Z" fill="#FF845E"></path>
    <path d="M45.385 27.1323C45.2931 27.1039 45.1965 27.0938 45.1008 27.1027C45.005 27.1116 44.9119 27.1393 44.8268 27.1842C44.7417 27.229 44.6663 27.2902 44.6049 27.3642C44.5435 27.4383 44.4972 27.5236 44.4688 27.6155C43.5725 30.5125 40.931 32.4589 37.8957 32.4589C34.1025 32.4589 31.0165 29.3728 31.0165 25.5796C31.0165 21.7862 34.1026 18.7002 37.8957 18.7002C39.5482 18.6999 41.1456 19.2947 42.3955 20.3757C43.6314 21.4456 44.4481 22.9192 44.6949 24.5253C44.7094 24.6204 44.7425 24.7117 44.7924 24.794C44.8423 24.8763 44.9078 24.9479 44.9854 25.0048C45.063 25.0617 45.151 25.1028 45.2445 25.1256C45.3379 25.1485 45.435 25.1527 45.53 25.138C45.722 25.1085 45.8944 25.0039 46.0093 24.8473C46.1242 24.6907 46.1722 24.4948 46.1427 24.3028C45.8432 22.3533 44.8528 20.5653 43.354 19.2681C41.838 17.9566 39.9003 17.2349 37.8957 17.2353C33.2947 17.2353 29.5515 20.9785 29.5515 25.5795C29.5515 30.1805 33.2947 33.9236 37.8957 33.9236C39.7138 33.9236 41.4419 33.3489 42.8934 32.2618C44.2961 31.211 45.3526 29.7148 45.8681 28.0483C45.8966 27.9565 45.9066 27.8599 45.8977 27.7641C45.8889 27.6684 45.8612 27.5753 45.8163 27.4903C45.7715 27.4052 45.7103 27.3298 45.6363 27.2684C45.5623 27.207 45.4769 27.1607 45.385 27.1323Z" fill="#FF845E"></path>
    <path d="M37.896 30.3949C38.3006 30.3949 38.6284 30.0671 38.6284 29.6625V29.2738H39.2541C40.4677 29.2738 41.455 28.2866 41.455 27.073C41.455 25.8595 40.4677 24.8722 39.2541 24.8722H36.5404C36.1331 24.8722 35.8019 24.5408 35.8018 24.1337V24.0889C35.8018 23.6815 36.1332 23.3502 36.5404 23.3502H39.8031C40.2077 23.3502 40.5355 23.0224 40.5355 22.6178C40.5355 22.2132 40.2077 21.8854 39.8031 21.8854H38.6284V21.4968C38.6284 21.0922 38.3006 20.7644 37.896 20.7644C37.4914 20.7644 37.1636 21.0922 37.1636 21.4968V21.8854H36.5404C35.3254 21.8854 34.3369 22.8738 34.3369 24.0889V24.1338C34.3371 25.3486 35.3256 26.3371 36.5404 26.3371H39.2541C39.66 26.3371 39.9901 26.6673 39.9901 27.0731C39.9901 27.4789 39.66 27.8091 39.2541 27.8091H35.9637C35.5591 27.8091 35.2313 28.1369 35.2313 28.5415C35.2313 28.9461 35.5591 29.2739 35.9637 29.2739H37.1636V29.6626C37.1636 29.7588 37.1825 29.854 37.2193 29.9429C37.2561 30.0317 37.3101 30.1125 37.3781 30.1805C37.4461 30.2485 37.5269 30.3024 37.6157 30.3392C37.7046 30.376 37.7998 30.3949 37.896 30.3949Z" fill="#FF845E"></path>
  </g>
  <defs>
    <clipPath id="clip0_2694_2427">
      <rect width="50" height="50" fill="white"></rect>
    </clipPath>
  </defs>
</svg>
