<svg xmlns="http://www.w3.org/2000/svg" width="32" height="32" viewBox="0 0 32 32" fill="none"><g clip-path="url(#clip0_1907_3794)"><path d="M14.2 9.95609C14.5662 10.3223 15.1594 10.3223 15.5256 9.95609L19.2719 6.20984L24.7081 11.6467H23.6881C23.1706 11.6467 22.7506 12.0661 22.7506 12.5842C22.7506 13.1017 23.1706 13.5217 23.6881 13.5217H26.9719C27.4782 13.5217 27.9088 13.107 27.9088 12.5842V9.30041C27.9088 8.78291 27.4894 8.36291 26.9713 8.36291C26.4538 8.36291 26.0338 8.78291 26.0338 9.30041V10.3204L19.9344 4.22103C19.5688 3.85541 18.975 3.85541 18.6087 4.22103C15.3768 7.45378 16.2687 6.56172 14.8631 7.96728L7.17 0.274219C6.80375 -0.0914063 6.21 -0.0914063 5.84438 0.274219C5.47813 0.640469 5.47813 1.23422 5.84438 1.60047L14.2 9.95609ZM7.85125 8.91247C7.85125 8.42684 7.4575 8.03247 6.97062 8.03247H3.38875C2.90188 8.03247 2.5075 8.42684 2.5075 8.91247V28.25H7.85125V8.91247ZM14.1894 19.7593H10.6075C10.1206 19.7593 9.72625 20.1537 9.72625 20.64V28.25H15.07V20.64C15.07 20.1537 14.6762 19.7593 14.1894 19.7593ZM17.8263 15.4493C17.3394 15.4493 16.945 15.8437 16.945 16.3293V28.25H22.2887V16.3293C22.2887 15.8437 21.895 15.4493 21.4081 15.4493H17.8263ZM25.0169 24.1981C24.5362 24.2043 24.1488 24.5962 24.1488 25.0775V28.25H29.4925V25.0775C29.4925 24.5918 29.0988 24.1975 28.6119 24.1975C28.6056 24.1975 25.0231 24.1968 25.0169 24.1981ZM31.0625 30.125H0.9375C0.42 30.125 0 30.545 0 31.0625C0 31.58 0.42 32 0.9375 32H31.0625C31.58 32 32 31.58 32 31.0625C32 30.545 31.58 30.125 31.0625 30.125Z" fill="#FF845E"></path></g><defs><clipPath id="clip0_1907_3794"><rect width="32" height="32" fill="white"></rect></clipPath></defs></svg>