<?xml version="1.0" encoding="UTF-8"?>
<svg xmlns="http://www.w3.org/2000/svg" width="50" height="50" viewBox="0 0 50 50" fill="none">
  <path d="M28.2395 20.0878L28.7226 19.9689C29.3076 20.5735 29.8915 21.1792 30.4743 21.7859L29.5841 22.6929L28.2396 20.0878H28.2395ZM37.4784 30.8045C38.609 30.8045 39.5383 29.9137 39.5861 28.784C39.6602 27.028 39.6736 25.3564 39.5767 23.5974C39.473 22.248 39.171 21.7409 38.3239 21.2442C37.7795 20.9251 36.894 20.6622 36.0113 20.4294L34.0929 24.1465C34.0354 24.2581 33.9483 24.3517 33.8411 24.417C33.7339 24.4824 33.6108 24.517 33.4852 24.517C33.3052 24.517 33.1325 24.4459 33.0046 24.3192C32.0483 23.373 31.6458 22.9808 31.4445 22.7853C31.2432 22.9808 30.8408 23.373 29.8844 24.3192C29.8082 24.3947 29.7152 24.4512 29.6131 24.4841C29.5109 24.517 29.4025 24.5254 29.2965 24.5086C29.1905 24.4918 29.09 24.4502 29.0031 24.3873C28.9161 24.3244 28.8452 24.2419 28.7961 24.1465L26.8778 20.4294C25.9951 20.6623 25.1094 20.9251 24.5652 21.2442C23.718 21.7409 23.4162 22.248 23.3124 23.5974C23.2156 25.3563 23.2289 27.028 23.303 28.784C23.3506 29.9137 24.2799 30.8045 25.4106 30.8045H25.5185V25.7195C25.5185 25.5382 25.5905 25.3643 25.7187 25.2361C25.8469 25.1079 26.0208 25.0359 26.2021 25.0359C26.3834 25.0359 26.5573 25.1079 26.6855 25.2361C26.8137 25.3643 26.8857 25.5382 26.8857 25.7195V30.8045H36.0033V25.7195C36.0033 25.5382 36.0753 25.3643 36.2035 25.2361C36.3317 25.1079 36.5056 25.0359 36.6869 25.0359C36.8682 25.0359 37.042 25.1079 37.1702 25.2361C37.2984 25.3643 37.3705 25.5382 37.3705 25.7195V30.8045H37.4784ZM32.4148 21.786L33.3049 22.693L34.6495 20.0879L34.1742 19.971C33.5255 20.6405 32.6869 21.5025 32.4148 21.786ZM30.5424 19.8739L31.4445 20.7974L32.3516 19.873C31.753 19.976 31.1412 19.9763 30.5424 19.8739ZM35.5029 13.7835C34.2337 14.3623 32.8409 14.648 31.4446 14.648C30.0483 14.648 28.6554 14.3624 27.3863 13.7835C27.3281 14.0629 27.2989 14.3476 27.299 14.6331C27.299 16.9226 29.155 18.7787 31.4446 18.7787C33.7341 18.7787 35.5902 16.9226 35.5902 14.6331C35.5903 14.3476 35.561 14.0629 35.5029 13.7835ZM35.7976 12.0245V10.5252L32.1101 11.5133C31.6639 11.6328 31.2252 11.6328 30.779 11.5133L27.0915 10.5252V12.0245C27.0915 12.2074 27.1842 12.3642 27.3445 12.4524C28.5214 13.0995 29.9303 13.4763 31.4445 13.4763C32.9586 13.4763 34.3675 13.0996 35.5446 12.4524C35.7048 12.3643 35.7976 12.2074 35.7976 12.0245ZM24.5696 8.06698C24.4389 8.10204 24.3512 8.21639 24.3512 8.35165C24.3512 8.4869 24.439 8.60126 24.5696 8.63632L31.0823 10.3814C31.3305 10.4479 31.5586 10.4479 31.8069 10.3814L37.1709 8.94413V13.4552C37.1709 13.6365 37.2429 13.8103 37.3711 13.9385C37.4993 14.0667 37.6731 14.1388 37.8544 14.1388C38.0357 14.1388 38.2096 14.0667 38.3378 13.9385C38.466 13.8103 38.538 13.6365 38.538 13.4552V8.35165C38.5386 8.28663 38.5174 8.2233 38.4778 8.17172C38.4382 8.12014 38.3825 8.08327 38.3196 8.06698L31.8069 6.32186C31.5586 6.25536 31.3305 6.25536 31.0823 6.32186L24.5696 8.06698ZM37.3008 2.29345L37.7325 2.14989C37.9042 2.09224 38.0461 1.96885 38.127 1.80677C38.2079 1.64469 38.2212 1.45715 38.1641 1.28524C38.1358 1.2001 38.091 1.12137 38.0322 1.05356C37.9734 0.985755 37.9019 0.930196 37.8216 0.890063C37.7413 0.84993 37.654 0.826009 37.5645 0.819669C37.4749 0.813329 37.3851 0.824694 37.3 0.853113L34.633 1.74227C34.5251 1.77818 34.428 1.84049 34.3504 1.92351C34.2728 2.00654 34.2172 2.10766 34.1886 2.21766C34.1597 2.32763 34.1587 2.44308 34.1857 2.55354C34.2126 2.664 34.2667 2.76599 34.343 2.85028L36.1849 4.87762C36.4376 5.15721 36.8703 5.17792 37.1499 4.92421C37.429 4.6705 37.4506 4.23788 37.1964 3.95829L36.8594 3.58739C43.1546 5.61522 47.5911 11.5711 47.6066 18.2894C47.6108 20.3398 47.2083 22.3375 46.4115 24.226C46.3765 24.3086 46.3581 24.3974 46.3574 24.4872C46.3567 24.577 46.3737 24.666 46.4075 24.7492C46.4412 24.8324 46.491 24.9081 46.5541 24.9721C46.6171 25.036 46.6921 25.0869 46.7749 25.1218C46.8588 25.1575 46.9491 25.1759 47.0403 25.1759C47.1747 25.1759 47.3062 25.1363 47.4182 25.0619C47.5303 24.9876 47.6179 24.8818 47.6701 24.7579C48.5404 22.699 48.9787 20.5216 48.9739 18.2861C48.9574 10.9831 44.1397 4.50809 37.3008 2.29335V2.29345ZM17.0237 31.4547C17.0072 31.5429 17.0082 31.6335 17.0268 31.7214C17.0453 31.8092 17.081 31.8925 17.1317 31.9666C17.1825 32.0406 17.2473 32.1039 17.3226 32.1529C17.3978 32.2019 17.4819 32.2356 17.5702 32.252L20.2565 32.7552C20.2984 32.7627 20.3403 32.7665 20.3822 32.7665C20.4841 32.7666 20.5847 32.7439 20.6767 32.7001C20.7687 32.6562 20.8497 32.5924 20.9138 32.5132C20.9778 32.4339 21.0234 32.3414 21.0471 32.2423C21.0707 32.1432 21.0719 32.04 21.0505 31.9404L20.5121 29.4198C20.433 29.0508 20.0701 28.8149 19.701 28.8945C19.6132 28.9132 19.5299 28.949 19.456 28.9999C19.382 29.0507 19.3188 29.1157 19.27 29.191C19.2211 29.2663 19.1876 29.3506 19.1714 29.4389C19.1551 29.5271 19.1564 29.6178 19.1752 29.7056L19.2604 30.1038C17.6845 28.4149 16.4644 26.4064 15.7014 24.2312C15.5767 23.8749 15.1865 23.6876 14.8301 23.8123C14.4738 23.937 14.2865 24.3272 14.4117 24.6836C15.2284 27.0131 16.5298 29.1657 18.2088 30.9808L17.8214 30.9088C17.4505 30.8387 17.0932 31.0834 17.0236 31.4548L17.0237 31.4547ZM22.9544 45.3698L15.7958 41.2367C15.2046 40.8955 14.4418 41.0999 14.1005 41.6909L13.222 43.2125C12.8936 43.7813 13.0897 44.5132 13.6585 44.8416L20.9011 49.0231C21.47 49.3516 22.2018 49.1555 22.5302 48.5866L23.4087 47.065C23.75 46.474 23.5456 45.711 22.9544 45.3698ZM44.1388 29.4071C41.6888 31.8571 38.0084 36.4409 34.2003 37.5893C32.2475 38.1641 29.8107 38.2975 28.7429 38.0609C28.2822 37.9591 28.1091 37.5828 28.1812 37.2571C28.2532 36.9314 28.6243 36.7083 28.95 36.7803C29.8741 36.9849 32.0369 36.8537 33.8076 36.3324C34.4856 36.1328 35.0921 35.8846 35.5126 35.5901C36.7637 34.7143 35.8236 32.839 34.1742 33.3484C24.4703 35.9486 21.856 28.7378 16.3463 40.1783C16.3616 40.1867 16.3768 40.1951 16.3919 40.2039L23.5506 44.337C23.6206 44.3774 23.6876 44.4208 23.752 44.4669C25.2649 43.3182 27.1294 42.8107 29.1513 42.3967C30.8116 42.0565 32.8249 41.7699 34.6033 41.2511C37.0883 40.526 38.4385 39.437 40.3221 37.6859C42.4665 35.6925 46.1036 31.8919 46.5945 30.6928C47.2968 28.9766 45.5371 28.009 44.1388 29.4072V29.4071ZM3.97563 13.233H2.2186C1.56187 13.233 1.02603 13.7687 1.02612 14.4256V22.7886C1.02612 23.4454 1.56187 23.9811 2.2187 23.9811H3.97563C4.65815 23.9811 5.21655 23.4226 5.21665 22.7401V14.4739C5.21665 13.7914 4.65815 13.233 3.97563 13.233ZM21.2373 10.7681C22.5032 9.59442 21.3492 7.84247 19.9651 8.48807C19.4999 8.70507 18.9815 9.10624 18.4697 9.59354C17.133 10.8664 15.9378 12.6738 15.6531 13.5765C15.5526 13.8945 15.1738 14.1043 14.8557 14.0038C14.5376 13.9033 14.2983 13.5654 14.4405 13.1154C14.7694 12.0724 16.1035 10.0288 17.5776 8.62499C20.4762 5.90126 26.2862 5.00595 29.6329 4.10917C31.5428 3.59725 31.5848 1.58954 29.7473 1.33973C28.4634 1.16532 23.3535 2.41473 20.5548 3.27518C18.0966 4.03085 16.4784 4.65575 14.608 6.4453C13.2693 7.72606 12.0145 9.32626 10.8898 10.594C9.52026 12.138 8.14849 13.499 6.39722 14.2349C6.40493 14.3136 6.40903 14.3934 6.40903 14.4741V22.7403C6.40903 22.7578 6.40874 22.7752 6.40835 22.7926C19.0709 23.7413 14.1334 17.8719 21.2371 10.7682L21.2373 10.7681Z" fill="#FF845E"></path>
</svg>
