<?xml version="1.0" encoding="UTF-8"?>
<svg xmlns="http://www.w3.org/2000/svg" width="50" height="50" viewBox="0 0 50 50" fill="none">
  <g clip-path="url(#clip0_2660_1155)">
    <path d="M39.8183 33.4847H35.4529C35.2457 33.4847 35.047 33.567 34.9005 33.7135C34.754 33.86 34.6717 34.0587 34.6717 34.2659V48.3227C34.6717 48.5299 34.754 48.7286 34.9005 48.8751C35.047 49.0216 35.2457 49.1039 35.4529 49.1039H39.8183C40.0255 49.1039 40.2242 49.0216 40.3707 48.8751C40.5172 48.7286 40.5995 48.5299 40.5995 48.3227V34.2659C40.5995 34.0587 40.5172 33.86 40.3707 33.7135C40.2242 33.567 40.0255 33.4847 39.8183 33.4847ZM39.037 47.5414H36.2342V35.0472H39.037V47.5414ZM32.1952 37.481H27.83C27.6228 37.481 27.4241 37.5633 27.2776 37.7098C27.131 37.8563 27.0487 38.055 27.0487 38.2622V48.3227C27.0487 48.5299 27.131 48.7287 27.2776 48.8752C27.4241 49.0217 27.6228 49.104 27.83 49.104H32.1952C32.4024 49.104 32.6011 49.0217 32.7476 48.8752C32.8942 48.7287 32.9765 48.5299 32.9765 48.3227V38.2622C32.9765 38.055 32.8942 37.8563 32.7476 37.7098C32.6011 37.5633 32.4024 37.481 32.1952 37.481ZM31.414 47.5414H28.6112V39.0434H31.414V47.5414ZM24.5722 41.4769H20.2068C19.9996 41.4769 19.8009 41.5593 19.6544 41.7058C19.5079 41.8523 19.4256 42.051 19.4256 42.2582V48.3227C19.4256 48.5299 19.5079 48.7287 19.6544 48.8752C19.8009 49.0217 19.9996 49.104 20.2068 49.104H24.5722C24.7794 49.104 24.9781 49.0217 25.1246 48.8752C25.2711 48.7287 25.3534 48.5299 25.3534 48.3227V42.2582C25.3534 42.051 25.2711 41.8523 25.1246 41.7058C24.9781 41.5593 24.7794 41.4769 24.5722 41.4769ZM23.7909 47.5414H20.9881V43.0393H23.7909V47.5414ZM46.1678 26.5843C46.0512 26.4598 45.9104 26.3605 45.7541 26.2925C45.5977 26.2246 45.429 26.1894 45.2585 26.1892C45.088 26.1894 44.9195 26.2246 44.7631 26.2926C44.6068 26.3606 44.4661 26.4598 44.3496 26.5843L40.9021 30.2778C40.7603 30.4296 40.666 30.6195 40.6307 30.8242C40.5955 31.0289 40.6208 31.2395 40.7036 31.43C40.7864 31.6204 40.9231 31.7826 41.0968 31.8964C41.2706 32.0102 41.4738 32.0708 41.6815 32.0706H42.2947V48.3227C42.2947 48.5299 42.377 48.7286 42.5235 48.8751C42.6701 49.0216 42.8688 49.1039 43.076 49.1039H47.4414C47.6486 49.1039 47.8473 49.0216 47.9938 48.8751C48.1403 48.7286 48.2227 48.5299 48.2227 48.3227V32.0706H48.8359C49.0436 32.0707 49.2468 32.0101 49.4205 31.8962C49.5942 31.7824 49.7308 31.6202 49.8136 31.4297C49.8964 31.2393 49.9217 31.0287 49.8864 30.8241C49.8511 30.6194 49.7568 30.4295 49.615 30.2777L46.1678 26.5843ZM47.4414 30.5081C47.2342 30.5081 47.0355 30.5904 46.889 30.7369C46.7425 30.8834 46.6602 31.0822 46.6602 31.2894V47.5414H43.8573V31.2894C43.8573 31.0822 43.775 30.8834 43.6285 30.7369C43.482 30.5904 43.2833 30.5081 43.0761 30.5081H42.8247L45.2588 27.9002L47.6929 30.5081H47.4414ZM38.2817 28.5305L38.6091 29.0974C38.8342 29.4878 39.2535 29.7117 39.7046 29.6815C40.1524 29.6516 40.5368 29.3739 40.7079 28.9568L42.5117 24.5597C42.6505 24.2214 42.6253 23.8458 42.4426 23.5293C42.2599 23.2128 41.9473 23.0031 41.5848 22.9541L36.8749 22.3177C36.4285 22.2573 35.9954 22.4514 35.7456 22.8242C35.4941 23.1994 35.4781 23.6748 35.7034 24.0645L36.031 24.6319L31.5468 27.2209C29.3866 22.8738 25.4812 19.7396 20.9116 18.5311C23.9352 16.9875 26.0104 13.8419 26.0104 10.2206C26.0104 5.0791 21.8274 0.896185 16.686 0.896185C11.5445 0.896185 7.36162 5.0791 7.36162 10.2206C7.36162 13.8406 9.43535 16.9853 12.4572 18.5296C9.65625 19.2688 7.08262 20.7421 4.97002 22.8546C1.82793 25.9963 0.0976562 30.1571 0.0976562 34.5704C0.0976563 34.7776 0.179966 34.9763 0.326479 35.1228C0.472992 35.2693 0.671706 35.3517 0.878906 35.3517H19.3211C19.3494 35.4687 19.3938 35.5839 19.4571 35.6934L20.4153 37.353C20.4999 37.5003 20.6128 37.6293 20.7475 37.7326C20.8823 37.836 21.0361 37.9115 21.2003 37.955C21.3642 37.9994 21.5353 38.011 21.7036 37.9889C21.872 37.9668 22.0343 37.9115 22.1812 37.8263L26.4671 35.3518H32.4928C32.7 35.3517 32.8986 35.2694 33.0451 35.1229C33.1916 34.9764 33.274 34.7777 33.274 34.5705C33.274 33.5662 33.1814 32.5629 33.0007 31.5796L38.2817 28.5305ZM12.2382 26.5502L9.57441 21.3378C9.96734 21.1257 10.3695 20.9313 10.7798 20.7552L15.3947 23.8738L12.2382 26.5502ZM16.4513 29.2134H16.9204L18.0211 33.7892H15.3504L16.4513 29.2134ZM17.1018 27.6509H16.2699L15.2643 26.0331L16.6858 24.8278L18.1074 26.0331L17.1018 27.6509ZM17.977 23.8739L22.5878 20.758C22.9985 20.9349 23.4011 21.1302 23.7944 21.3431L21.1334 26.5502L17.977 23.8739ZM8.92393 10.2205C8.92393 5.94052 12.4059 2.45859 16.6858 2.45859C20.9657 2.45859 24.4477 5.94052 24.4477 10.2205C24.4477 14.5004 20.9657 17.9823 16.6858 17.9823C12.4059 17.9823 8.92393 14.5004 8.92393 10.2205ZM20.7551 20.1107L16.6858 22.8606L12.6111 20.107C13.9371 19.7332 15.3082 19.544 16.6858 19.5448C18.0841 19.5448 19.4503 19.7419 20.7551 20.1107ZM8.23564 22.1519L11.2955 28.1394C11.3491 28.2442 11.4258 28.3356 11.5197 28.4067C11.6136 28.4778 11.7224 28.5267 11.8379 28.5498C11.9534 28.573 12.0726 28.5697 12.1867 28.5402C12.3007 28.5108 12.4066 28.4559 12.4965 28.3798L14.0595 27.0546L14.9996 28.567L13.7434 33.7892H1.68018C1.92881 28.9575 4.4707 24.7219 8.23564 22.1519ZM20.1697 33.7892H19.6283L18.3721 28.567L19.3122 27.0546L20.8751 28.3797C20.965 28.4558 21.0709 28.5107 21.1849 28.5401C21.299 28.5696 21.4182 28.5729 21.5337 28.5497C21.6492 28.5266 21.758 28.4777 21.8519 28.4066C21.9458 28.3355 22.0225 28.2441 22.0761 28.1393L25.1329 22.1578C27.297 23.6351 29.0395 25.65 30.1894 28.0044L20.1697 33.7892ZM21.6335 36.3382L20.9451 35.1458L37.4886 25.5944C37.5774 25.5431 37.6553 25.4748 37.7178 25.3935C37.7802 25.3121 37.8261 25.2192 37.8526 25.1201C37.8792 25.021 37.886 24.9176 37.8726 24.8159C37.8592 24.7142 37.8259 24.6161 37.7746 24.5272L37.4545 23.9727L40.8741 24.4347L39.5645 27.6271L39.2442 27.0726C39.1406 26.8931 38.97 26.7622 38.7699 26.7086C38.5697 26.6549 38.3565 26.683 38.1771 26.7866L21.6335 36.3382ZM31.6912 33.7892H29.1734L31.5552 32.4141C31.6215 32.8701 31.6669 33.3289 31.6912 33.7892ZM39.7555 21.1898C45.3505 21.1898 49.9023 16.638 49.9023 11.043C49.9023 5.44804 45.3505 0.896088 39.7555 0.896088C34.1605 0.896088 29.6085 5.44804 29.6085 11.0431C29.6085 16.638 34.1605 21.1898 39.7555 21.1898ZM39.7555 2.45859C44.489 2.45859 48.3398 6.30956 48.3398 11.043C48.3398 15.7764 44.4889 19.6273 39.7555 19.6273C35.0221 19.6273 31.1711 15.7764 31.1711 11.043C31.171 6.30956 35.022 2.45859 39.7555 2.45859ZM39.7556 18.3613C43.7908 18.3613 47.0737 15.0783 47.0737 11.0431C47.0737 7.00781 43.7908 3.7247 39.7556 3.7247C35.7202 3.7247 32.4372 7.00771 32.4372 11.0431C32.4372 15.0784 35.7201 18.3613 39.7556 18.3613ZM39.7556 5.2872C42.9293 5.2872 45.5112 7.86923 45.5112 11.0431C45.5112 14.2169 42.9293 16.7988 39.7556 16.7988C36.5817 16.7988 33.9997 14.2168 33.9997 11.0431C33.9997 7.86933 36.5817 5.2872 39.7556 5.2872ZM37.4609 9.68183C37.4609 8.71933 38.0989 7.90302 38.9742 7.63359V7.15771C38.9742 6.95051 39.0565 6.75179 39.203 6.60528C39.3496 6.45877 39.5483 6.37646 39.7555 6.37646C39.9627 6.37646 40.1614 6.45877 40.3079 6.60528C40.4544 6.75179 40.5367 6.95051 40.5367 7.15771V7.60048C41.0326 7.72225 41.4691 8.0161 41.7686 8.42968C41.8899 8.5976 41.9397 8.80687 41.9068 9.01145C41.8739 9.21603 41.761 9.39916 41.5931 9.52055C41.4252 9.64194 41.2159 9.69166 41.0113 9.65876C40.8068 9.62586 40.6236 9.51303 40.5022 9.34511C40.3922 9.19277 40.2162 9.10185 40.0318 9.10185H39.6033C39.2836 9.10185 39.0234 9.36201 39.0234 9.68183C39.0234 10.0017 39.2836 10.2618 39.6033 10.2618H39.9076C41.089 10.2618 42.05 11.2229 42.05 12.4042C42.05 13.3667 41.4119 14.1831 40.5366 14.4525V14.9285C40.5366 15.1357 40.4543 15.3344 40.3078 15.4809C40.1613 15.6275 39.9626 15.7098 39.7554 15.7098C39.5482 15.7098 39.3495 15.6275 39.2029 15.4809C39.0564 15.3344 38.9741 15.1357 38.9741 14.9285V14.4857C38.4783 14.3639 38.0418 14.0701 37.7424 13.6566C37.6209 13.4887 37.5712 13.2795 37.604 13.0749C37.6369 12.8703 37.7497 12.6871 37.9176 12.5657C38.0855 12.4443 38.2947 12.3945 38.4993 12.4274C38.7039 12.4602 38.8871 12.573 39.0085 12.7409C39.1187 12.8934 39.2946 12.9843 39.479 12.9843H39.9076C40.2273 12.9843 40.4875 12.724 40.4875 12.4043C40.4875 12.0846 40.2273 11.8244 39.9076 11.8244H39.6033C38.422 11.8243 37.4609 10.8632 37.4609 9.68183Z" fill="#FF845E"></path>
  </g>
  <defs>
    <clipPath id="clip0_2660_1155">
      <rect width="50" height="50" fill="white"></rect>
    </clipPath>
  </defs>
</svg>
