<?xml version="1.0" encoding="UTF-8"?>
<svg xmlns="http://www.w3.org/2000/svg" width="50" height="50" viewBox="0 0 50 50" fill="none">
  <path d="M14.7061 6.70615L17.3698 8.84707L16.4733 12.1447C16.3569 12.5728 16.5136 13.0179 16.8724 13.2786C17.0529 13.4107 17.2705 13.482 17.4941 13.4824C17.6949 13.4824 17.8962 13.4244 18.0741 13.3078L20.9334 11.4361L23.7927 13.3078C24.1638 13.5508 24.6355 13.5393 24.9944 13.2785C25.3533 13.0178 25.5099 12.5727 25.3936 12.1446L24.4971 8.84697L27.1607 6.70606C27.5065 6.42813 27.6413 5.97598 27.5043 5.5541C27.3673 5.13223 26.9924 4.84561 26.5493 4.82402L23.1359 4.65762L21.9228 1.46289C21.7657 1.04883 21.3774 0.781349 20.9336 0.781349C20.4897 0.781349 20.1013 1.04893 19.944 1.46299L18.731 4.65781L15.3177 4.82422C14.8746 4.8458 14.4998 5.13233 14.3627 5.5543C14.2256 5.97608 14.3603 6.42822 14.7061 6.70615ZM19.1363 6.20235C19.3421 6.19241 19.5405 6.12263 19.7071 6.00156C19.8738 5.8805 20.0015 5.71341 20.0746 5.5208L20.9334 3.25879L21.7921 5.52061C21.8651 5.7132 21.9927 5.88029 22.1594 6.00138C22.326 6.12246 22.5243 6.19228 22.7301 6.20225L25.1469 6.32002L23.2611 7.83594C23.1006 7.96494 22.9811 8.13799 22.9175 8.33386C22.8538 8.52973 22.8487 8.73993 22.9027 8.93867L23.5375 11.2735L21.5132 9.94844C21.3409 9.83552 21.1394 9.77536 20.9335 9.77536C20.7275 9.77536 20.526 9.83552 20.3538 9.94844L18.3294 11.2736L18.9641 8.93887C19.0182 8.74016 19.0131 8.52999 18.9495 8.33412C18.8859 8.13826 18.7665 7.96523 18.6059 7.83623L16.72 6.32041L19.1363 6.20235ZM8.03992 16.3952L10.8991 18.2669C11.2703 18.5099 11.742 18.4985 12.1009 18.2377C12.4597 17.977 12.6165 17.5319 12.5001 17.1038L11.6035 13.8061L14.2672 11.6651C14.6129 11.3872 14.7476 10.9351 14.6106 10.5132C14.4735 10.0913 14.0986 9.80479 13.6556 9.7832L10.2423 9.6168L9.02938 6.42188C8.87225 6.00791 8.48397 5.74033 8.04012 5.74033C7.59627 5.74033 7.20779 6.00791 7.05057 6.42197L5.83748 9.6169L2.4241 9.7833C1.98104 9.80488 1.60623 10.0914 1.46912 10.5134C1.33201 10.9354 1.46688 11.3875 1.81268 11.6653L4.47625 13.8063L3.57977 17.1039C3.46336 17.5319 3.62 17.977 3.97889 18.2378C4.15929 18.3699 4.37698 18.4412 4.60057 18.4416C4.80135 18.4416 5.00262 18.3836 5.18055 18.267L8.03992 16.3952ZM3.82645 11.2792L6.24324 11.1613C6.44893 11.1514 6.64724 11.0816 6.81384 10.9605C6.98044 10.8395 7.10809 10.6724 7.18113 10.4799L8.03992 8.21787L8.89881 10.48C8.97189 10.6725 9.09955 10.8395 9.26614 10.9605C9.43274 11.0816 9.63103 11.1513 9.8367 11.1613L12.2535 11.2792L10.3677 12.7949C10.0395 13.0586 9.89891 13.4914 10.0094 13.8976L10.6441 16.2323L8.61961 14.907C8.44736 14.7942 8.24592 14.7341 8.04001 14.7341C7.83409 14.7341 7.63266 14.7943 7.46043 14.9071L5.43602 16.2323L6.07078 13.8976C6.12485 13.6988 6.11977 13.4887 6.05614 13.2928C5.99251 13.097 5.87311 12.9239 5.71258 12.7949L3.82645 11.2792ZM27.2561 10.5132C27.119 10.9351 27.2539 11.3873 27.5996 11.6652L30.2633 13.8062L29.3668 17.1038C29.2504 17.5318 29.407 17.9769 29.7659 18.2377C29.9463 18.3698 30.164 18.4411 30.3876 18.4415C30.5884 18.4415 30.7896 18.3835 30.9677 18.2669L33.8268 16.3951L36.686 18.2668C37.0571 18.5098 37.5288 18.4983 37.8877 18.2377C38.2466 17.9771 38.4034 17.5319 38.2871 17.1037L37.3905 13.8061L40.0542 11.6651C40.4 11.3872 40.5346 10.9351 40.3976 10.5132C40.2605 10.0913 39.8857 9.80479 39.4428 9.7832L36.0294 9.6168L34.8164 6.42207C34.6593 6.00791 34.2709 5.74033 33.8269 5.74033C33.383 5.74033 32.9946 6.00791 32.8375 6.42188L31.6244 9.6168L28.2111 9.7832C27.7681 9.80479 27.3932 10.0913 27.2561 10.5132ZM32.0302 11.1614C32.2359 11.1515 32.4342 11.0817 32.6008 10.9606C32.7674 10.8396 32.895 10.6725 32.9681 10.48L33.8268 8.21787L34.6856 10.4797C34.7586 10.6723 34.8863 10.8394 35.0529 10.9605C35.2195 11.0815 35.4179 11.1514 35.6236 11.1613L38.0403 11.2792L36.1544 12.795C35.9939 12.924 35.8745 13.097 35.8108 13.2929C35.7472 13.4887 35.7421 13.6989 35.7962 13.8976L36.4309 16.2323L34.4064 14.907C34.2341 14.7943 34.0327 14.7342 33.8268 14.7342C33.6209 14.7342 33.4194 14.7943 33.2472 14.9071L31.2228 16.2323L31.8576 13.8976C31.9116 13.6988 31.9065 13.4887 31.8429 13.2928C31.7793 13.097 31.6599 12.9239 31.4994 12.7949L29.6135 11.2791L32.0302 11.1614ZM39.2896 30.6303C36.3654 30.6303 33.7528 31.9882 32.0478 34.1061C30.0675 32.1757 27.6239 30.8032 24.9798 30.1058C27.5926 28.671 29.3679 25.8931 29.3679 22.7077C29.3679 18.057 25.5842 14.2734 20.9335 14.2734C16.2828 14.2734 12.4991 18.057 12.4991 22.7077C12.4991 25.8907 14.2719 28.6668 16.8815 30.1024C14.4192 30.7494 12.1485 31.979 10.261 33.6876C7.35301 36.3174 5.52273 39.9036 5.1074 43.7855C5.09571 43.8944 5.10709 44.0047 5.1408 44.109C5.17451 44.2133 5.2298 44.3093 5.30306 44.3908C5.37633 44.4723 5.46593 44.5375 5.56605 44.5822C5.66616 44.6268 5.77455 44.6498 5.88416 44.6498L31.2892 44.6497C32.9095 47.3824 35.8889 49.2187 39.2895 49.2187C44.4144 49.2187 48.5838 45.0493 48.5838 39.9244C48.5838 34.7995 44.4145 30.6303 39.2896 30.6303ZM14.0617 22.7077C14.0617 18.9186 17.1444 15.8359 20.9336 15.8359C24.7227 15.8359 27.8055 18.9186 27.8055 22.7077C27.8055 26.4965 24.7234 29.5789 20.9348 29.5795H20.9323C17.1437 29.5788 14.0617 26.4964 14.0617 22.7077ZM6.77977 43.0874C7.93348 36.2192 13.8708 31.1427 20.9323 31.1421H20.9347C24.7761 31.1424 28.4695 32.6975 31.1592 35.426C30.4182 36.7598 29.9954 38.2937 29.9954 39.9246C29.9944 41.0031 30.1821 42.0735 30.5498 43.0874H6.77977ZM39.2896 47.6563C35.0264 47.6563 31.5579 44.1878 31.5579 39.9245C31.5579 35.6612 35.0264 32.1928 39.2896 32.1928C43.5529 32.1928 47.0214 35.6612 47.0214 39.9245C47.0214 44.1878 43.5529 47.6563 39.2896 47.6563ZM44.6447 35.9353C44.2573 35.5501 43.741 35.3399 43.1967 35.3411C42.9285 35.3413 42.663 35.3948 42.4157 35.4985C42.1683 35.6022 41.944 35.754 41.7558 35.945L38.1689 39.5679L36.8219 38.2208C36.0249 37.424 34.7283 37.4239 33.9312 38.2209C33.1345 39.0178 33.1345 40.3145 33.9312 41.1115L36.729 43.9092C37.1274 44.3076 37.6508 44.5067 38.1742 44.5067C38.6975 44.5067 39.221 44.3075 39.6194 43.9091C40.6813 42.8473 41.7523 41.7609 42.788 40.7104C43.4095 40.08 44.031 39.4496 44.6541 38.8207C45.4458 38.0219 45.4415 36.7274 44.6447 35.9353ZM43.5442 37.7209C42.9202 38.3507 42.2978 38.982 41.6754 39.6134C40.6416 40.6619 39.5725 41.7463 38.5146 42.8042C38.4243 42.8943 38.3018 42.945 38.1742 42.945C38.0466 42.945 37.9241 42.8943 37.8338 42.8042L35.0361 40.0066C34.946 39.9163 34.8953 39.7938 34.8953 39.6662C34.8953 39.5385 34.946 39.4161 35.0361 39.3257C35.13 39.2318 35.2533 39.185 35.3765 39.185C35.4998 39.185 35.6231 39.2318 35.717 39.3257L37.6191 41.2279C37.6917 41.3005 37.7778 41.358 37.8726 41.3973C37.9674 41.4365 38.069 41.4567 38.1716 41.4567H38.1735C38.2764 41.4565 38.3783 41.4359 38.4732 41.3962C38.5682 41.3564 38.6543 41.2983 38.7267 41.2252L42.8661 37.0444C42.9101 36.9998 42.9625 36.9644 43.0202 36.9403C43.078 36.9161 43.14 36.9036 43.2026 36.9036C43.3319 36.8988 43.4518 36.9525 43.5429 37.0432C43.7299 37.229 43.7305 37.5331 43.5442 37.7209Z" fill="#FF845E"></path>
</svg>
