<svg xmlns="http://www.w3.org/2000/svg" width="32" height="32" viewBox="0 0 32 32" fill="none"><g clip-path="url(#clip0_2377_2919)"><path d="M5.99823 0C4.4074 0 2.88173 0.631954 1.75684 1.75684C0.631954 2.88173 0 4.4074 0 5.99823C0 7.58906 0.631954 9.11473 1.75684 10.2396C2.88173 11.3645 4.4074 11.9965 5.99823 11.9965C7.58906 11.9965 9.11473 11.3645 10.2396 10.2396C11.3645 9.11473 11.9965 7.58906 11.9965 5.99823C11.9965 4.4074 11.3645 2.88173 10.2396 1.75684C9.11473 0.631954 7.58906 0 5.99823 0ZM25.998 0C24.4072 0 22.8815 0.631954 21.7566 1.75684C20.6317 2.88173 19.9998 4.4074 19.9998 5.99823C19.9998 7.58906 20.6317 9.11473 21.7566 10.2396C22.8815 11.3645 24.4072 11.9965 25.998 11.9965C27.5888 11.9965 29.1145 11.3645 30.2394 10.2396C31.3643 9.11473 31.9962 7.58906 31.9962 5.99823C31.9962 4.4074 31.3643 2.88173 30.2394 1.75684C29.1145 0.631954 27.5888 0 25.998 0ZM6.00012 1.74996C6.24579 1.74996 6.49714 1.92004 6.49714 2.24886V2.73832C7.374 2.96132 7.90126 3.57928 8.14882 4.36166C8.3189 5.01553 7.40613 5.27821 7.19258 4.66214C6.99226 4.02906 6.59352 3.7059 5.98122 3.68322C5.30089 3.68889 4.77364 4.19914 4.77364 4.84923C4.77364 5.15727 4.88514 5.25365 5.03254 5.32546C5.23286 5.42373 5.61838 5.4842 6.05114 5.52767C6.48202 5.57302 6.95825 5.60326 7.40613 5.82248C7.85212 6.04169 8.22441 6.46879 8.22441 7.19636C8.21943 7.69323 8.0458 8.17367 7.73197 8.55892C7.41814 8.94417 6.98273 9.21137 6.49714 9.31672V9.75137C6.49714 10.4034 5.49743 10.4279 5.49743 9.75137V9.31105C4.84356 9.14286 4.17457 8.68364 3.8533 7.68771C3.66999 7.04707 4.58844 6.75415 4.80765 7.38534C4.99663 8.01087 5.44641 8.36237 6.01713 8.37371C6.33357 8.37775 6.63869 8.25602 6.86546 8.03528C7.09223 7.81453 7.22212 7.5128 7.2266 7.19636C7.2266 6.8562 7.09053 6.79006 6.96581 6.72013C6.76738 6.62375 6.37997 6.56517 5.9472 6.51981C5.51633 6.47635 5.0401 6.44422 4.59411 6.225C4.14622 6.00768 3.77393 5.58625 3.77393 4.84923C3.77393 3.80228 4.51851 2.94809 5.49743 2.72698V2.24886C5.49743 1.91248 5.75444 1.74807 6.00012 1.74996ZM25.9999 1.74996C26.2456 1.74996 26.4988 1.92004 26.4988 2.24886V2.73832C27.3738 2.96132 27.901 3.57928 28.1486 4.36166C28.3187 5.01553 27.4059 5.27821 27.1923 4.66214C26.992 4.02906 26.5952 3.7059 25.9829 3.68322C25.3007 3.68889 24.7734 4.19914 24.7734 4.84923C24.7734 5.15727 24.8849 5.25365 25.0342 5.32546C25.2326 5.42373 25.62 5.4842 26.0528 5.52767C26.4837 5.57302 26.9599 5.60326 27.4059 5.82248C27.8538 6.04169 28.2261 6.46879 28.2261 7.19636C28.2211 7.69323 28.0474 8.17367 27.7336 8.55892C27.4198 8.94417 26.9844 9.21137 26.4988 9.31672V9.75137C26.4988 10.4034 25.4972 10.4279 25.4972 9.75137V9.31105C24.8433 9.14286 24.1743 8.68364 23.8531 7.68771C23.6716 7.04707 24.5901 6.75415 24.8074 7.38534C24.9964 8.01087 25.4462 8.36237 26.0188 8.37371C26.3349 8.37724 26.6395 8.2553 26.8659 8.0346C27.0923 7.81391 27.2219 7.51247 27.2264 7.19636C27.2264 6.8562 27.0903 6.79006 26.9675 6.72013C26.7671 6.62375 26.3797 6.56517 25.947 6.51981C25.518 6.47635 25.0399 6.44422 24.5939 6.225C24.146 6.00768 23.7737 5.58625 23.7737 4.84923C23.7737 3.80228 24.5183 2.94809 25.4991 2.72698V2.24886C25.4991 1.91248 25.7542 1.74807 25.9999 1.74996ZM16.8986 4.10843L17.2879 4.49962H13.5026C12.8336 4.49962 12.8336 5.50121 13.5026 5.50121H18.4993C18.5983 5.5013 18.6951 5.47204 18.7774 5.41714C18.8598 5.36223 18.9241 5.28414 18.9621 5.19274C19.0001 5.10133 19.0102 5.0007 18.991 4.90357C18.9719 4.80644 18.9244 4.71717 18.8545 4.64702L17.6035 3.39975C17.1273 2.9273 16.428 3.63787 16.8986 4.10843ZM13.5026 6.50092C13.4032 6.50045 13.306 6.52957 13.2232 6.58457C13.1404 6.63956 13.0758 6.71795 13.0377 6.80975C12.9996 6.90154 12.9897 7.0026 13.0092 7.10005C13.0288 7.19751 13.0768 7.28695 13.1473 7.357L14.3852 8.58537C14.8784 9.07671 15.5871 8.36615 15.092 7.87669L14.714 7.49873H18.4993C19.1701 7.49873 19.1701 6.50092 18.4993 6.50092H13.5026ZM26.9278 14.1962L24.4899 15.5946C24.2632 15.725 24.2008 15.9594 24.2877 16.1106L28.7722 23.8209C28.8591 23.9721 29.0973 24.0364 29.324 23.906L31.7619 22.5075C31.9754 22.3847 32.0529 22.1428 31.9641 21.9916L27.4815 14.2793C27.4135 14.1622 27.1961 14.0431 26.9278 14.1962ZM4.98341 15.0655L0.0604736 23.5394C0.0313565 23.5883 0.0122588 23.6425 0.00429279 23.6988C-0.00367326 23.7552 -0.000348443 23.8125 0.0140736 23.8676C0.0284957 23.9226 0.0537267 23.9743 0.0882972 24.0195C0.122868 24.0647 0.166087 24.1025 0.215437 24.1309L2.65328 25.5274C2.70309 25.5565 2.75817 25.5754 2.81533 25.583C2.87249 25.5907 2.9306 25.5869 2.9863 25.572C3.042 25.5571 3.09419 25.5312 3.13986 25.496C3.18552 25.4608 3.22375 25.4169 3.25235 25.3668L8.17717 16.8948C8.20621 16.8458 8.2252 16.7915 8.23302 16.7351C8.24085 16.6787 8.23736 16.6212 8.22276 16.5662C8.20816 16.5111 8.18274 16.4595 8.14798 16.4144C8.11322 16.3693 8.06982 16.3315 8.02032 16.3033L5.58247 14.9049C5.53268 14.8754 5.47747 14.8562 5.42013 14.8484C5.36278 14.8406 5.30445 14.8444 5.2486 14.8595C5.19274 14.8747 5.14049 14.9009 5.09494 14.9366C5.04939 14.9723 5.01146 15.0149 4.98341 15.0655ZM16.0917 17.783C14.7877 17.9323 13.7011 18.3235 13.308 18.7393C12.9357 19.1361 12.3291 20.0451 11.8925 20.9258C11.6752 21.3661 11.4957 21.8007 11.3974 22.1598C11.2991 22.517 11.2972 22.7683 11.3218 22.8401C11.3577 22.9157 11.3709 22.98 11.5524 22.9762C11.7546 22.9705 12.1117 22.8553 12.5124 22.6209C13.3136 22.156 14.2756 21.2678 14.8935 20.3928C14.9658 20.2905 15.0737 20.2189 15.1961 20.192C15.3184 20.1651 15.4464 20.1848 15.555 20.2473C18.7128 22.0578 21.882 23.8776 25.0361 25.6805L27.3435 23.3938L24.0855 17.7509C23.9419 17.8057 23.7794 17.8586 23.3674 17.9399C22.6304 18.0797 21.5532 18.1534 20.1736 17.9096C19.5033 17.7947 18.8257 17.7271 18.1459 17.7074C17.4602 17.6835 16.7737 17.7088 16.0917 17.783ZM8.45497 18.4123L4.56576 25.1022L6.04358 26.204C6.30689 25.9656 6.63914 25.8169 6.99238 25.7796C7.34563 25.7422 7.70161 25.818 8.00898 25.9961C8.16583 26.0868 8.39828 26.2607 8.523 26.4497C8.76127 26.1009 9.12292 25.8555 9.53501 25.7629C9.9471 25.6703 10.379 25.7375 10.7435 25.9507C11.2727 26.2531 11.5599 26.7823 11.5788 27.2982C11.8 27.2817 12.0223 27.3094 12.2327 27.3796C12.4431 27.4498 12.6374 27.5611 12.8045 27.707C12.9715 27.853 13.1079 28.0306 13.2057 28.2297C13.3034 28.4288 13.3607 28.6453 13.3741 28.8667C13.7103 28.8387 14.0469 28.9153 14.3379 29.0859C14.9956 29.4677 15.245 30.1499 15.1581 30.7754C15.8139 31.1571 16.343 31.4576 17.0328 31.8526C17.3635 32.0416 17.7736 31.9244 17.955 31.6107C17.9994 31.535 18.0283 31.4511 18.04 31.3641C18.0517 31.277 18.046 31.1885 18.0231 31.1038C18.0002 31.019 17.9607 30.9396 17.9068 30.8702C17.853 30.8009 17.7858 30.7429 17.7093 30.6998C17.1651 30.3899 16.6359 30.0875 16.0935 29.7738C15.4983 29.4337 15.9991 28.5662 16.5925 28.9102C17.4769 29.4204 18.4841 29.9911 19.4272 30.5354C19.756 30.7244 20.1585 30.6091 20.3437 30.2897C20.3882 30.2142 20.4172 30.1306 20.429 30.0438C20.4408 29.957 20.4352 29.8687 20.4125 29.7841C20.3898 29.6995 20.3505 29.6202 20.2968 29.551C20.2431 29.4817 20.1762 29.4238 20.0999 29.3807C18.9547 28.7231 17.8133 28.0768 16.6605 27.4097C16.0482 27.0582 16.5547 26.1945 17.1651 26.546C18.5711 27.3587 19.9903 28.1713 21.4114 28.9839C21.7403 29.1729 22.1485 29.0576 22.3318 28.7382C22.3758 28.6628 22.4044 28.5794 22.4159 28.4929C22.4274 28.4063 22.4216 28.3184 22.3987 28.2341C22.3758 28.1498 22.3364 28.071 22.2827 28.0021C22.2291 27.9332 22.1622 27.8758 22.0861 27.833C20.6045 26.9788 18.8413 25.9753 17.1084 24.9756C16.5188 24.6354 17.0328 23.7869 17.6054 24.1139C19.4649 25.1721 21.7025 26.4572 23.8039 27.6667C24.1328 27.8538 24.5353 27.7366 24.7205 27.421C24.7655 27.3459 24.795 27.2626 24.8072 27.1758C24.8194 27.0891 24.8141 27.0009 24.7915 26.9163C24.7689 26.8317 24.7296 26.7525 24.6759 26.6833C24.6221 26.6142 24.555 26.5566 24.4786 26.5139L15.4397 21.3359C14.7575 22.1957 13.8636 22.997 13.0207 23.4864C12.535 23.7699 12.0645 23.9627 11.5826 23.974C11.323 23.993 11.0644 23.9254 10.8472 23.7818C10.6301 23.6382 10.4667 23.4267 10.3826 23.1803C10.2427 22.7967 10.307 22.3431 10.4298 21.8952C10.5545 21.4455 10.7549 20.9636 10.993 20.4836C11.2991 19.8618 11.6166 19.3402 11.9228 18.8961L8.45497 18.4123ZM9.32428 27.0563C8.8575 27.8651 8.38505 28.6721 7.91827 29.4809C7.87391 29.5564 7.84506 29.6399 7.83342 29.7267C7.82177 29.8134 7.82756 29.9016 7.85044 29.9861C7.87332 30.0706 7.91283 30.1496 7.96667 30.2187C8.0205 30.2877 8.08757 30.3452 8.16394 30.388C8.318 30.4759 8.50053 30.4994 8.67182 30.4534C8.84312 30.4074 8.98931 30.2956 9.0786 30.1423L10.4884 27.7215C10.5323 27.6458 10.5607 27.5621 10.5721 27.4753C10.5835 27.3885 10.5777 27.3003 10.5548 27.2158C10.532 27.1313 10.4926 27.0522 10.4391 26.983C10.3855 26.9137 10.3188 26.8558 10.2427 26.8125C10.0882 26.7255 9.90566 26.7025 9.73435 26.7484C9.56303 26.7944 9.41651 26.9055 9.32617 27.0582L9.32428 27.0563ZM6.58974 27.1016L6.35729 27.5079C6.31266 27.5832 6.28346 27.6666 6.27137 27.7533C6.25929 27.8399 6.26457 27.9281 6.28691 28.0127C6.30924 28.0973 6.34819 28.1766 6.40148 28.246C6.45477 28.3154 6.52133 28.3735 6.59729 28.4169C6.7521 28.5056 6.93566 28.5295 7.10803 28.4835C7.28039 28.4375 7.4276 28.3253 7.51763 28.1713L7.75385 27.7668C7.79873 27.6915 7.828 27.608 7.83993 27.5211C7.85185 27.4342 7.84618 27.3459 7.82326 27.2612C7.80034 27.1766 7.76064 27.0974 7.70651 27.0285C7.65238 26.9595 7.58493 26.9021 7.50818 26.8597C7.43208 26.815 7.34787 26.7857 7.26041 26.7736C7.17295 26.7616 7.08396 26.7669 6.99858 26.7894C6.91321 26.8119 6.83312 26.8511 6.76295 26.9047C6.69278 26.9582 6.63391 27.0252 6.58974 27.1016ZM11.1234 28.6267L10.1822 30.2425C10.1379 30.3178 10.1091 30.4012 10.0975 30.4878C10.0859 30.5744 10.0917 30.6625 10.1146 30.7468C10.1374 30.8311 10.177 30.91 10.2308 30.9789C10.2846 31.0477 10.3516 31.1051 10.4279 31.1477C10.5819 31.2371 10.765 31.2618 10.9371 31.2165C11.1093 31.1712 11.2564 31.0594 11.3464 30.9058L12.2837 29.2919C12.3283 29.2165 12.3574 29.133 12.3692 29.0462C12.3809 28.9594 12.3752 28.8711 12.3523 28.7865C12.3294 28.702 12.2898 28.6228 12.2358 28.5539C12.1819 28.4849 12.1146 28.4274 12.038 28.3848C11.9617 28.3407 11.8775 28.3121 11.7901 28.3006C11.7028 28.2891 11.614 28.295 11.5289 28.3178C11.4438 28.3406 11.364 28.38 11.2941 28.4336C11.2242 28.4873 11.1655 28.5542 11.1215 28.6305L11.1234 28.6267ZM12.9187 30.1952L12.45 31.0041C12.3625 31.157 12.3392 31.3384 12.3853 31.5084C12.4313 31.6785 12.543 31.8233 12.6957 31.9112C12.8507 31.9988 13.0339 32.0222 13.206 31.9763C13.3781 31.9304 13.5253 31.8188 13.616 31.6655L14.0809 30.8567C14.1265 30.7817 14.1564 30.6983 14.1689 30.6115C14.1813 30.5247 14.1761 30.4362 14.1535 30.3515C14.1309 30.2668 14.0914 30.1875 14.0374 30.1184C13.9833 30.0493 13.9158 29.9919 13.839 29.9496C13.684 29.8619 13.5008 29.8385 13.3287 29.8845C13.1566 29.9304 13.0094 30.042 12.9187 30.1952Z" fill="#FF845E"></path></g><defs><clipPath id="clip0_2377_2919"><rect width="32" height="32" fill="white"></rect></clipPath></defs></svg>