<svg xmlns="http://www.w3.org/2000/svg" width="32" height="32" viewBox="0 0 32 32" fill="none"><path fill-rule="evenodd" clip-rule="evenodd" d="M13.2072 7.42556C12.437 7.35309 11.6696 7.58956 11.0737 8.08292C10.4779 8.57629 10.1024 9.28615 10.03 10.0563C9.95751 10.8265 10.194 11.594 10.6873 12.1898C11.1807 12.7856 11.8906 13.1611 12.6608 13.2336C12.7532 13.2424 12.845 13.2453 12.9361 13.2453C13.6856 13.2446 14.4061 12.9554 14.948 12.4377C15.4899 11.9199 15.8117 11.2134 15.8466 10.4647C15.8815 9.71601 15.6268 8.98263 15.1353 8.41674C14.6439 7.85085 13.9534 7.4959 13.2072 7.42556ZM6.01969 29.1131H0V19H6.0195V29.1132L6.01969 29.1131ZM31.7329 22.4024L18.0381 29.3837C17.7635 29.5305 17.4546 29.601 17.1435 29.5877C16.8325 29.5744 16.5307 29.4779 16.2696 29.3082L11.629 26.4214C11.4522 26.3087 11.2538 26.2343 11.0465 26.2029C10.8392 26.1714 10.6276 26.1838 10.4254 26.239L7.08612 27.1258V20.4653L11.1956 18.6729C11.4197 18.5706 11.663 18.5173 11.9092 18.5168C12.1555 18.5163 12.3991 18.5684 12.6236 18.6697L21.0894 22.2987C21.2014 22.5158 21.2541 22.7587 21.242 23.0027C21.2299 23.2467 21.1535 23.4832 21.0205 23.6881C20.8875 23.8931 20.7027 24.0593 20.4849 24.1698C20.267 24.2803 20.0237 24.3312 19.7798 24.3174L15.5293 22.4967C15.3992 22.441 15.2523 22.4392 15.1209 22.4918C14.9895 22.5445 14.8843 22.6471 14.8286 22.7772C14.7729 22.9074 14.7712 23.0543 14.8238 23.1857C14.8764 23.3171 14.9791 23.4222 15.1092 23.4779L19.4392 25.3333C19.4873 25.3551 19.539 25.3678 19.5917 25.3708C20.0544 25.4205 20.5217 25.3379 20.9393 25.1325C21.3569 24.9271 21.7075 24.6073 21.9505 24.2104C22.0205 24.096 22.0811 23.9761 22.1318 23.8519L31.1339 20.9119C31.3067 20.9118 31.4755 20.9635 31.6187 21.0602C31.7619 21.157 31.8728 21.2943 31.9373 21.4547C32.0017 21.615 32.0167 21.7909 31.9803 21.9598C31.9438 22.1287 31.8577 22.2829 31.7329 22.4024ZM3.41319 20.5942C3.41242 20.6648 3.42566 20.7347 3.45212 20.8001C3.47858 20.8655 3.51774 20.925 3.56734 20.9751C3.61694 21.0253 3.676 21.0651 3.74108 21.0922C3.80617 21.1194 3.876 21.1334 3.94653 21.1334C4.01706 21.1334 4.08689 21.1194 4.15198 21.0922C4.21707 21.0651 4.27612 21.0253 4.32572 20.9751C4.37532 20.925 4.41449 20.8655 4.44095 20.8001C4.46741 20.7347 4.48064 20.6648 4.47988 20.5942V20.538C4.48064 20.4675 4.46741 20.3975 4.44095 20.3321C4.41449 20.2667 4.37532 20.2073 4.32572 20.1571C4.27612 20.107 4.21707 20.0672 4.15198 20.04C4.08689 20.0128 4.01706 19.9988 3.94653 19.9988C3.876 19.9988 3.80617 20.0128 3.74108 20.04C3.676 20.0672 3.61694 20.107 3.56734 20.1571C3.51774 20.2073 3.47858 20.2667 3.45212 20.3321C3.42566 20.3975 3.41242 20.4675 3.41319 20.538V20.5942ZM14.8418 10.5094C14.807 10.879 14.6655 11.2306 14.4346 11.5213C14.2037 11.8121 13.8933 12.0295 13.5411 12.1471C13.189 12.2648 12.8102 12.2776 12.4509 12.184C12.0916 12.0904 11.7672 11.8944 11.5172 11.6199C11.2672 11.3454 11.1023 11.0042 11.0426 10.6378C10.9829 10.2713 11.0309 9.89541 11.1808 9.55574C11.3308 9.21607 11.5761 8.92727 11.8871 8.72444C12.1981 8.52161 12.5613 8.4135 12.9326 8.41324C12.9924 8.41324 13.0529 8.41618 13.1139 8.42212C13.6198 8.46992 14.0861 8.71666 14.4101 9.1081C14.7342 9.49954 14.8896 10.0037 14.8421 10.5096L14.8418 10.5094ZM21.9525 5.09649C21.9242 5.09643 21.897 5.10755 21.8768 5.12745C21.8566 5.14735 21.8451 5.17441 21.8448 5.20274V9.82843H24.3569C24.4798 9.30701 24.79 8.84892 25.2285 8.54124C25.6671 8.23356 26.2034 8.09774 26.7355 8.15961C27.2676 8.22147 27.7585 8.4767 28.1148 8.87679C28.471 9.27687 28.6679 9.79391 28.6679 10.3296C28.6679 10.8653 28.471 11.3824 28.1148 11.7825C27.7585 12.1825 27.2676 12.4378 26.7355 12.4996C26.2034 12.5615 25.6671 12.4257 25.2285 12.118C24.79 11.8103 24.4798 11.3522 24.3569 10.8308H21.8448V15.4536C21.8451 15.4822 21.8565 15.5096 21.8766 15.5299C21.8967 15.5502 21.9239 15.5619 21.9525 15.5625H24.3569C24.4795 15.0405 24.7896 14.5817 25.2284 14.2734C25.6672 13.9651 26.204 13.8289 26.7366 13.8906C27.2693 13.9523 27.7608 14.2076 28.1175 14.608C28.4742 15.0084 28.6712 15.526 28.6712 16.0622C28.6712 16.5985 28.4742 17.116 28.1175 17.5164C27.7608 17.9168 27.2693 18.1721 26.7366 18.2338C26.204 18.2955 25.6672 18.1593 25.2284 17.851C24.7896 17.5428 24.4795 17.084 24.3569 16.5619H21.9525C21.807 16.5619 21.6629 16.5332 21.5285 16.4774C21.3941 16.4217 21.272 16.34 21.1691 16.2371C21.0663 16.1341 20.9847 16.012 20.9291 15.8775C20.8734 15.743 20.8448 15.5989 20.8449 15.4534V10.8307H19.264L19.2666 11.2081C19.2676 11.3221 19.2296 11.433 19.159 11.5225C19.0885 11.612 18.9895 11.6748 18.8784 11.7005L17.7125 11.9658C17.6524 12.1439 17.5816 12.3181 17.5004 12.4876L18.1494 13.493C18.2112 13.5885 18.2385 13.7022 18.2269 13.8153C18.2152 13.9284 18.1653 14.0342 18.0854 14.1151L16.7901 15.4299C16.7097 15.5102 16.6045 15.5609 16.4917 15.5737C16.3788 15.5866 16.265 15.5608 16.1686 15.5007L15.1546 14.8668C14.9863 14.9496 14.8132 15.0225 14.6364 15.085L14.3846 16.2554C14.3601 16.3664 14.2988 16.4657 14.2107 16.5375C14.1226 16.6092 14.0128 16.649 13.8992 16.6505L12.0546 16.6623H12.0513C11.938 16.6621 11.8281 16.6235 11.7395 16.5528C11.651 16.4822 11.589 16.3836 11.5638 16.2731L11.296 15.1086C11.1188 15.0467 10.9449 14.9758 10.7749 14.8961L9.77 15.5449C9.67436 15.6065 9.56058 15.6337 9.44744 15.6219C9.3343 15.6101 9.22857 15.56 9.14769 15.4801L7.83444 14.1858C7.75353 14.1058 7.70227 14.0006 7.68908 13.8875C7.67589 13.7744 7.70157 13.6603 7.76188 13.5637L8.39725 12.5496C8.31442 12.3809 8.24124 12.2077 8.17806 12.0308L7.00869 11.7802C6.89737 11.7561 6.79759 11.6948 6.72582 11.6063C6.65406 11.5179 6.61459 11.4076 6.61394 11.2937L6.60144 9.45112C6.6005 9.33715 6.63844 9.22627 6.709 9.13677C6.77956 9.04726 6.87852 8.98449 6.98956 8.95881L8.15537 8.69343C8.21547 8.51536 8.28631 8.34111 8.3675 8.17162L7.71844 7.16624C7.65669 7.07075 7.62939 6.95704 7.64105 6.84393C7.65272 6.73081 7.70264 6.62507 7.78256 6.54418L9.07794 5.22931C9.15791 5.14844 9.26313 5.09733 9.37613 5.08447C9.48913 5.0716 9.60314 5.09774 9.69925 5.15856L10.7134 5.79243C10.8817 5.70957 11.0547 5.63672 11.2316 5.57424L11.4832 4.40381C11.5073 4.29261 11.5685 4.19291 11.6567 4.12111C11.745 4.0493 11.855 4.00968 11.9688 4.00874L13.8132 3.99699H13.8167C13.9301 3.99664 14.0403 4.03502 14.1289 4.10578C14.2176 4.17654 14.2794 4.27544 14.3042 4.38612L14.5719 5.55068C14.7491 5.61261 14.9231 5.68354 15.0931 5.76318L16.0983 5.11462C16.1939 5.05301 16.3077 5.02585 16.4209 5.03763C16.534 5.04942 16.6398 5.09943 16.7207 5.17943L18.0338 6.47368C18.1148 6.55369 18.1662 6.65891 18.1793 6.772C18.1925 6.88509 18.1668 6.9993 18.1064 7.09581L17.4711 8.10993C17.5534 8.27784 17.6266 8.45007 17.6903 8.62587L18.8596 8.87943C18.9705 8.90331 19.07 8.96418 19.1417 9.05204C19.2134 9.13989 19.2531 9.24952 19.2543 9.36293L19.2575 9.82874H20.845V5.20268C20.8455 4.90925 20.9624 4.62801 21.1701 4.42071C21.3777 4.21341 21.6592 4.09701 21.9526 4.09706H24.357C24.4796 3.57501 24.7898 3.11623 25.2285 2.80797C25.6673 2.49971 26.2041 2.36347 26.7368 2.42517C27.2695 2.48687 27.7609 2.7422 28.1176 3.1426C28.4743 3.543 28.6714 4.06053 28.6714 4.59677C28.6714 5.13302 28.4743 5.65055 28.1176 6.05095C27.7609 6.45135 27.2695 6.70668 26.7368 6.76838C26.2041 6.83008 25.6673 6.69384 25.2285 6.38558C24.7898 6.07732 24.4796 5.61854 24.357 5.09649H21.9525Z" fill="#FF845E"></path></svg>