<?xml version="1.0" encoding="UTF-8"?>
<svg xmlns="http://www.w3.org/2000/svg" width="50" height="50" viewBox="0 0 50 50" fill="none">
  <g clip-path="url(#clip0_2653_3299)">
    <path d="M44.5 20.75C44 18.5 43 16.25 41.75 14.25L44.25 9L40.75 5.5L35.5 8C33.5 6.75 31.5 6 29.25 5.5L27.5 0H22.5L20.5 5.5C18.25 6 16.25 7 14.25 8.25L9 5.75L5.5 9L8 14.25C6.75 16.25 6 18.25 5.5 20.5L0 22.5V27.5L5.5 29.5C6 31.75 7 34 8 35.75L5.5 41L9 44.5L14.25 42C16.25 43.25 18.25 44.25 20.5 44.75L22.5 50H27.5L29.5 44.5C30.25 44.25 31.25 44 32 43.75L28 39.75C18.5 41.5 10 34.5 10 25C10 16.75 16.75 10 25 10C34.25 10 41.25 18.25 39.75 27L44 31.25C44.25 30.5 44.5 30 44.5 29.25L50 27.5V22.5L44.5 20.75Z" fill="#FF845E"></path>
    <path d="M49 43.5L34.25 28.75C37.75 21 30.5 12.75 22.5 15L27 19.5C29 21.5 29 24.75 27 26.5C25.25 28.5 21.75 28.5 20 26.5L15.5 22.25C13.25 29.25 20.5 37.25 28.75 34L43.5 48.75C45 50.25 47.25 50.25 48.75 48.75C50.25 47.5 50.25 45 49 43.5Z" fill="#FF845E"></path>
  </g>
  <defs>
    <clipPath id="clip0_2653_3299">
      <rect width="50" height="50" fill="white"></rect>
    </clipPath>
  </defs>
</svg>
