<svg xmlns="http://www.w3.org/2000/svg" width="36" height="36" viewBox="0 0 36 36" fill="none"><g clip-path="url(#clip0_2065_2960)"><path d="M16.9003 24.8794V34.2105C16.9003 34.6872 16.5122 35.0754 16.0355 35.0754H13.1442C12.6675 35.0754 12.2794 34.6872 12.2794 34.2105V24.8794C12.2794 24.4026 12.6675 24.0145 13.1442 24.0145H16.0355C16.5129 24.0145 16.9003 24.4019 16.9003 24.8794ZM22.1407 18.734H19.2495C18.7727 18.734 18.3846 19.1222 18.3846 19.5989V34.2098C18.3846 34.6865 18.7727 35.0747 19.2495 35.0747H22.1407C22.6174 35.0747 23.0055 34.6865 23.0055 34.2098V19.5989C23.0055 19.1222 22.6174 18.734 22.1407 18.734ZM9.93094 21.112H7.03969C6.56297 21.112 6.17484 21.5001 6.17484 21.9769V34.2098C6.17484 34.6865 6.56297 35.0747 7.03969 35.0747H9.93094C10.4077 35.0747 10.7958 34.6865 10.7958 34.2098V21.9769C10.7958 21.5001 10.4077 21.112 9.93094 21.112ZM28.3852 19.0476V21.2625H28.4555C28.8499 21.2625 29.1713 21.5838 29.1713 21.9783V32.703C29.1713 34.0108 28.1074 35.0747 26.7996 35.0747C26.1682 35.0747 25.5734 34.8272 25.1241 34.3786C24.6748 33.9293 24.428 33.3344 24.428 32.703V21.9783C24.428 21.7877 24.5025 21.6077 24.6375 21.472C24.7725 21.3363 24.9525 21.2618 25.1438 21.2618H25.2141V19.0469C22.9605 18.6511 20.9897 17.4255 19.6277 15.6987L15.0054 20.7604C14.9145 20.8598 14.7911 20.9233 14.6575 20.9394C14.5238 20.9555 14.3888 20.9232 14.277 20.8483L8.60977 17.0508L2.82656 24.5707C2.77398 24.6391 2.70635 24.6944 2.62893 24.7325C2.5515 24.7705 2.46635 24.7902 2.38008 24.7901C2.26055 24.7901 2.13961 24.7521 2.03766 24.6733C1.79156 24.4842 1.74516 24.1305 1.935 23.8844L8.03953 15.9476C8.22023 15.7127 8.55211 15.6579 8.7982 15.8231L14.5005 19.6446L18.971 14.7494C18.1448 13.3769 17.6688 11.7703 17.6688 10.0554C17.6688 5.021 21.7645 0.925293 26.7989 0.925293C31.8333 0.925293 35.9297 5.021 35.9297 10.0554C35.9297 14.549 32.6665 18.2946 28.3852 19.0476ZM28.0463 22.3875H25.553V23.5926H28.0463V22.3875ZM34.8047 10.0554C34.8047 5.64115 31.2138 2.05029 26.7996 2.05029C22.3854 2.05029 18.7945 5.64115 18.7945 10.0554C18.7945 11.4391 19.1475 12.7413 19.7677 13.8776L20.2795 13.3172C20.3112 13.2827 20.347 13.2518 20.3857 13.2265L20.6198 13.0725C20.1595 12.1334 19.9207 11.1012 19.9216 10.0554C19.9216 6.26342 23.007 3.17811 26.7989 3.17811C30.5909 3.17811 33.6762 6.26342 33.6762 10.0554C33.6762 13.8473 30.5909 16.9326 26.7989 16.9326C24.4905 16.9326 22.4445 15.7894 21.1964 14.0393L21.0621 14.1279L20.397 14.8563C21.8587 16.8004 24.1847 18.0604 26.7989 18.0604C31.2138 18.0604 34.8047 14.4696 34.8047 10.0554ZM26.0726 11.7436L26.2941 10.691L22.1393 13.4212C23.1855 14.8654 24.8843 15.8083 26.8003 15.8083C29.9721 15.8083 32.5526 13.2279 32.5526 10.0561C32.5526 6.88428 29.9721 4.30381 26.8003 4.30381C23.6285 4.30381 21.048 6.88428 21.048 10.0561C21.048 10.9097 21.2365 11.7197 21.5712 12.4488L25.6205 9.78818L24.5426 9.70732C24.4689 9.70184 24.3971 9.6819 24.3312 9.64865C24.2652 9.6154 24.2065 9.56948 24.1583 9.51353C24.1101 9.45757 24.0734 9.39267 24.0503 9.32253C24.0272 9.25239 24.0182 9.17839 24.0237 9.10475C24.0469 8.79467 24.3183 8.56193 24.6262 8.58584L27.1955 8.77779C27.3572 8.78975 27.5055 8.87131 27.6033 9.00068C27.701 9.13006 27.7376 9.296 27.7038 9.4542L27.1737 11.9756C27.1471 12.1019 27.0781 12.2152 26.978 12.2966C26.8779 12.378 26.7528 12.4226 26.6238 12.4228C26.5859 12.4228 26.5465 12.4186 26.5078 12.4108C26.2034 12.3454 26.0086 12.0473 26.0726 11.7436ZM3.82641 27.8606H0.935156C0.458437 27.8606 0.0703125 28.2487 0.0703125 28.7254V34.2098C0.0703125 34.6865 0.458437 35.0747 0.935156 35.0747H3.82641C4.30312 35.0747 4.69125 34.6865 4.69125 34.2098V28.7254C4.69125 28.2487 4.30312 27.8606 3.82641 27.8606Z" fill="#FF845E"></path></g><defs><clipPath id="clip0_2065_2960"><rect width="36" height="36" fill="white"></rect></clipPath></defs></svg>