<svg xmlns="http://www.w3.org/2000/svg" width="60" height="60" viewBox="0 0 60 60" fill="none"><g clip-path="url(#clip0_2377_2895)"><path d="M20.4375 10.5703H14.332V4.46484C17.5547 4.76953 20.1328 7.34766 20.4375 10.5703ZM44.1211 28.3594C43.6641 28.1953 43.2305 27.9375 42.8086 27.7031C43.1953 28.2305 43.5703 28.8164 43.8867 29.3906C44.1211 29.1094 44.3789 28.793 44.6719 28.5469C44.4844 28.4883 44.2969 28.4297 44.1211 28.3594ZM49.8398 27.8789C49.3594 28.1602 48.8438 28.3711 48.3047 28.5352C48.5859 28.793 48.8672 29.0977 49.0781 29.3789C49.3945 28.8047 49.7695 28.2305 50.1562 27.6914H50.1445C50.0508 27.7617 49.9453 27.8203 49.8398 27.8789ZM54.7852 21.8789C54.7852 21.3633 54.4453 20.918 53.9766 20.7656C53.6953 21.5156 53.5195 22.2656 53.3906 23.0508C54.1172 23.1797 54.7852 22.6055 54.7852 21.8789ZM39.375 21.8438C39.2461 21.5039 39.1055 21.1641 39.0117 20.8242C37.8867 21.3867 38.3555 23.1328 39.5859 23.0742C39.4922 22.6641 39.4102 22.2656 39.375 21.8438ZM44.7891 20.8828C45.668 21.4336 46.8164 21.5156 47.7305 21.1055C46.5352 20.625 45.4102 19.957 44.4023 19.1602C44.0508 19.6289 43.6758 20.0742 43.2539 20.4727C43.7578 20.4141 44.3555 20.6133 44.7891 20.8828ZM42.7148 22.1367C42.082 22.875 42.8203 24.0352 43.8164 23.6836C45.1992 22.793 47.0391 22.5352 48.5156 23.3555C48.8203 23.5078 49.1016 23.7539 49.4648 23.7422C50.2734 23.7773 50.7656 22.8047 50.2969 22.1484C49.7813 21.5156 49.0664 21.7617 48.4805 22.1602C47.2148 22.8398 45.6211 22.8047 44.332 22.1016C44.1562 21.9961 43.9805 21.8789 43.7813 21.8086C43.207 21.5977 42.832 22.0078 42.7148 22.1367ZM40.9102 23.0273C41.3203 24.4336 42.1758 25.6758 43.3125 26.4844H43.3242C46.9688 29.0625 51.7148 26.3789 52.2656 22.1602C52.0781 22.1367 51.8789 22.1367 51.6914 22.1133C52.3008 24.3867 49.7461 25.8984 47.9297 24.5039C47.0391 24.0234 45.9023 24.0352 45.0117 24.5273C43.1367 25.957 40.4297 24.1758 41.4023 21.9023C41.1797 22.0195 40.957 22.1484 40.7227 22.2656C40.7695 22.5117 40.8398 22.7812 40.9102 23.0273ZM47.4375 36.1875C46.793 36.2344 46.1133 36.2227 45.4688 36.1875V42.8555H47.4961V36.1875H47.4375ZM49.0781 44.1445H43.8984C43.6055 44.1445 43.3711 44.3789 43.3711 44.6602V59.3555C43.3711 59.6367 43.6055 59.8711 43.8984 59.8711H49.0781C49.3711 59.8711 49.6055 59.6367 49.6055 59.3555V44.6719C49.6055 44.3906 49.3594 44.1445 49.0781 44.1445ZM51.4688 28.125C50.7773 28.9922 50.1797 29.9766 49.7344 30.9844C49.5469 31.4883 48.7617 31.4883 48.5625 30.9961C48.1406 30.0703 47.3906 29.3203 46.4883 28.8633C45.5859 29.3203 44.8242 30.0703 44.4141 30.9961C44.2031 31.5 43.4414 31.4883 43.2422 30.9844C42.8086 29.9883 42.1992 28.9922 41.5078 28.125C39.7852 28.7695 38.2969 29.7773 37.2305 31.0078C42.0352 36.1758 50.9648 36.1992 55.7461 30.9961C54.6797 29.7773 53.1797 28.7695 51.4688 28.125ZM51.832 20.8242C52.0781 20.8711 52.3477 20.8594 52.5938 20.8711C54.1289 16.8398 50.7773 12.1758 46.4883 12.2578C42.1641 12.1758 38.8477 16.9219 40.4062 20.9531C41.7656 20.2617 42.9141 19.1836 43.6875 17.8828C43.875 17.543 44.3789 17.4609 44.6602 17.7305C45.5742 18.5391 46.5938 19.1953 47.6836 19.7109C48.9961 20.332 50.4141 20.6719 51.832 20.8242ZM46.4883 9.16406C35.7539 9.16406 29.7422 21.668 36.375 30.0352C37.6875 28.5703 39.5625 27.4102 41.625 26.7188C40.957 26.0391 40.418 25.2188 40.0195 24.3047C36.9961 24.8672 35.8711 20.543 38.7773 19.5469C38.2969 15.1523 42 10.9102 46.4883 10.9805C50.918 10.9219 54.7148 15.0703 54.1992 19.5C57.3516 20.3789 56.168 25.043 52.9688 24.2812C52.5703 25.2188 52.0195 26.0391 51.3398 26.7305C53.4023 27.4219 55.2773 28.5703 56.5898 30.0352C63.293 21.7383 57.1289 9.08203 46.4883 9.16406ZM30.832 7.18359H36.5391C34.5 5.15625 32.0859 2.69531 30.4688 1.05469V6.82031C30.4688 7.01953 30.6328 7.18359 30.832 7.18359ZM37.0781 32.6367C37.207 32.7539 37.3242 32.8711 37.4531 32.9766V50.0039C37.4531 50.2031 37.2891 50.3672 37.0898 50.3672H0.984375C0.785156 50.3672 0.621094 50.2031 0.621094 50.0039V0.480469C0.621094 0.28125 0.785156 0.117188 0.984375 0.117188H29.1797V6.82031C29.1797 7.73438 29.918 8.47266 30.8203 8.47266H37.4414V11.1328C30.7852 16.4414 30.6328 27.1172 37.0781 32.6367ZM13.043 11.2148C13.043 11.5664 13.3359 11.8594 13.6875 11.8594H21.1172C21.4688 11.8594 21.7617 11.5664 21.7617 11.2148C21.7617 6.77344 18.1406 3.15234 13.6875 3.15234C13.3359 3.15234 13.043 3.44531 13.043 3.79688V11.2148ZM8.88281 31.5938C8.88281 31.2422 8.58984 30.9492 8.23828 30.9492H4.75781C4.40625 30.9492 4.11328 31.2422 4.11328 31.5938V45.4102C4.11328 45.7617 4.40625 46.0547 4.75781 46.0547H8.25C8.60156 46.0547 8.89453 45.7617 8.89453 45.4102V31.5938H8.88281ZM16.8516 26.0508C16.8516 25.6992 16.5586 25.4062 16.207 25.4062H12.7148C12.3633 25.4062 12.0703 25.6992 12.0703 26.0508V45.3984C12.0703 45.75 12.3633 46.043 12.7148 46.043H16.207C16.5586 46.043 16.8516 45.75 16.8516 45.3984V26.0508ZM19.8281 13.1367C19.8281 12.7852 19.5352 12.4922 19.1836 12.4922H12.3984V5.71875C12.3984 5.36719 12.1055 5.07422 11.7539 5.07422C7.30078 5.07422 3.69141 8.69531 3.69141 13.1367C4.13672 23.8477 19.3828 23.8359 19.8281 13.1367ZM24.8203 33.0117C24.8203 32.6484 24.5391 32.3672 24.1758 32.3672H20.6953C20.332 32.3672 20.0508 32.6484 20.0508 33.0117V45.3984C20.0508 45.75 20.332 46.043 20.6953 46.043H24.1758C24.5391 46.043 24.8203 45.75 24.8203 45.3984V33.0117ZM32.7891 37.5469C32.7891 37.1953 32.5078 36.9023 32.1445 36.9023H28.6641C28.3125 36.9023 28.0195 37.1953 28.0195 37.5469V45.4102C28.0195 45.7617 28.3125 46.0547 28.6641 46.0547H32.1445C32.5078 46.0547 32.7891 45.7617 32.7891 45.4102V37.5469ZM5.40234 44.7539H7.60547V32.2266H5.40234V44.7539ZM29.3086 44.7539H31.5117V38.1797H29.3086V44.7539ZM21.3398 44.7539H23.543V33.6562H21.3398V44.7539ZM13.3594 44.7539H15.5625V26.6953H13.3594V44.7539ZM11.1094 13.1367V6.39844C7.67578 6.71484 4.96875 9.62109 4.96875 13.1484C5.27344 21.7734 17.4141 22.2891 18.5039 13.793H11.7539C11.4023 13.7812 11.1094 13.4883 11.1094 13.1367Z" fill="#FF845E"></path></g><defs><clipPath id="clip0_2377_2895"><rect width="60" height="60" fill="white"></rect></clipPath></defs></svg>