<svg xmlns="http://www.w3.org/2000/svg" width="32" height="32" viewBox="0 0 32 32" fill="none"><g clip-path="url(#clip0_2377_2923)"><path fill-rule="evenodd" clip-rule="evenodd" d="M4.31484 13.2014L3.44978 16.9268C3.26744 17.6074 2.56777 18.0113 1.88717 17.8289C1.20651 17.6465 0.802561 16.9469 0.984961 16.2663L2.49599 10.9444C2.57387 10.6717 2.73864 10.4319 2.96526 10.2615C3.19188 10.091 3.46795 9.9992 3.75152 9.99999L10.8033 10.0179L12.4172 7.22239C12.587 6.93052 12.8656 6.71785 13.1919 6.63099C13.5182 6.54413 13.8657 6.59016 14.1581 6.759C14.4505 6.92784 14.6641 7.20571 14.752 7.53173C14.84 7.85775 14.7951 8.20533 14.6272 8.49831L12.5404 12.1126C12.4602 12.2516 12.3448 12.367 12.2058 12.4473C12.0668 12.5275 11.9092 12.5697 11.7487 12.5697H10.3999V18.8979C10.3999 18.9811 10.3669 19.0609 10.308 19.1198C10.2492 19.1786 10.1694 19.2117 10.0862 19.2117H4.62857C4.54536 19.2117 4.46557 19.1786 4.40673 19.1198C4.3479 19.0609 4.31484 18.9811 4.31484 18.8979V13.2014ZM7.3827 4.53295C8.51494 4.53295 9.43422 5.45216 9.43422 6.58446C9.43422 7.7167 8.51494 8.63597 7.3827 8.63597C6.2504 8.63597 5.33119 7.7167 5.33119 6.58446C5.33119 5.45216 6.2504 4.53295 7.3827 4.53295ZM28.276 25.8977L25.2194 27.5701H20.5706C20.2352 27.5701 19.9136 27.4368 19.6765 27.1997C19.4393 26.9626 19.3061 26.6409 19.3061 26.3056V26.3054C19.3061 25.9701 19.4393 25.6485 19.6765 25.4113C19.9136 25.1742 20.2352 25.041 20.5706 25.041H24.4446L26.8198 23.3567C26.9176 23.2873 27.0227 23.2287 27.1331 23.182C27.4492 23.0512 28.1183 22.8358 29.116 22.8371C29.146 22.8371 29.1758 22.8375 29.2054 22.8381C30.2348 22.8591 31.0584 23.6996 31.0584 24.7292C31.0588 26.6743 31.0588 29.9709 31.0588 30.9961C31.0588 31.0793 31.0257 31.1591 30.9669 31.2179C30.9081 31.2767 30.8283 31.3098 30.7451 31.3098H26.3143C26.2311 31.3098 26.1514 31.2767 26.0925 31.2179C26.0337 31.159 26.0007 31.0793 26.0006 30.9961V27.7108L28.276 25.8977ZM29.0311 17.4367C30.1502 17.4367 31.0588 18.3453 31.0588 19.4644C31.0588 20.5836 30.1502 21.4922 29.0311 21.4922C27.9119 21.4922 27.0033 20.5836 27.0033 19.4644C27.0033 18.3453 27.9119 17.4367 29.0311 17.4367ZM21.7026 18.36H24.1543C24.1187 18.7367 23.7989 19.0357 23.4135 19.0357H22.4449C22.0596 19.0357 21.7384 18.7367 21.7026 18.36ZM20.9385 16.8687H24.92C24.8843 17.2466 24.5631 17.5443 24.1776 17.5443H21.6808C21.2939 17.5443 20.974 17.2466 20.9385 16.8687ZM20.1928 15.3774H25.6641C25.6286 15.7553 25.3087 16.053 24.9233 16.053H20.9351C20.5483 16.053 20.2283 15.7553 20.1928 15.3774ZM22.9292 3.82424C25.463 3.82424 27.5169 5.87826 27.5169 8.41197C27.5169 10.9595 25.8888 10.8073 25.6689 14.5617H20.1895C19.9697 10.8073 18.3415 10.9595 18.3415 8.41197C18.3415 5.87826 20.3955 3.82424 22.9292 3.82424ZM20.5465 9.19296L22.135 10.7814C22.1816 10.828 22.237 10.865 22.2979 10.8903C22.3588 10.9155 22.424 10.9285 22.49 10.9285C22.5559 10.9285 22.6212 10.9155 22.6821 10.8903C22.743 10.865 22.7983 10.828 22.8449 10.7814L25.3119 8.31441C25.5078 8.11852 25.5078 7.8004 25.3119 7.60451C25.116 7.40862 24.7979 7.40862 24.602 7.60451L22.49 9.71663L21.2564 8.48306C21.1622 8.38898 21.0346 8.33614 20.9014 8.33614C20.7683 8.33614 20.6407 8.38898 20.5465 8.48306C20.4524 8.57723 20.3996 8.7049 20.3996 8.83801C20.3996 8.97113 20.4524 9.09879 20.5465 9.19296ZM23.4312 2.27299C23.4312 2.55001 23.2063 2.77495 22.9292 2.77495C22.6522 2.77495 22.4273 2.55001 22.4273 2.27299V1.19215C22.4273 0.915127 22.6522 0.690186 22.9292 0.690186C23.2063 0.690186 23.4312 0.915127 23.4312 1.19215V2.27299ZM19.9034 2.94939C19.9698 3.06474 19.9877 3.20176 19.9531 3.33031C19.9186 3.45886 19.8344 3.56843 19.7191 3.63494C19.6037 3.70135 19.4667 3.71925 19.3382 3.68471C19.2096 3.65017 19.1001 3.56601 19.0335 3.45072L18.4939 2.51437C18.4275 2.39902 18.4096 2.26202 18.4441 2.13347C18.4787 2.00493 18.5629 1.89535 18.6781 1.82882C18.7935 1.76241 18.9305 1.74452 19.0591 1.77908C19.1876 1.81363 19.2972 1.89781 19.3637 2.0131L19.9034 2.94939ZM17.1875 5.29913C17.3027 5.36581 17.3867 5.47549 17.4211 5.60408C17.4555 5.73267 17.4374 5.86965 17.3709 5.98493C17.3042 6.10013 17.1945 6.18416 17.066 6.21855C16.9374 6.25294 16.8004 6.23488 16.6851 6.16833L15.7488 5.62716C15.6336 5.56049 15.5496 5.45081 15.5152 5.32222C15.4808 5.19362 15.4989 5.05663 15.5654 4.94135C15.6321 4.82615 15.7418 4.74213 15.8703 4.70774C15.9989 4.67335 16.1359 4.69141 16.2512 4.75795L17.1875 5.29913ZM26.8231 3.45122C26.7564 3.56644 26.6467 3.65047 26.5181 3.68486C26.3895 3.71925 26.2526 3.70118 26.1373 3.63462C25.8974 3.49602 25.8153 3.1887 25.9539 2.94882L26.495 2.01254C26.5617 1.89733 26.6714 1.81331 26.8 1.77892C26.9286 1.74453 27.0656 1.76259 27.1809 1.82913C27.2961 1.89581 27.3801 2.00549 27.4145 2.13408C27.4489 2.26267 27.4308 2.39966 27.3643 2.51494L26.8231 3.45122ZM29.1736 6.16815C28.9339 6.30694 28.6266 6.22499 28.4878 5.98524C28.349 5.7455 28.4309 5.43817 28.6707 5.29932L29.6054 4.75814C29.7207 4.6915 29.8576 4.67333 29.9862 4.70763C30.1148 4.74193 30.2246 4.82588 30.2913 4.94104C30.358 5.05627 30.3761 5.19324 30.3418 5.32186C30.3075 5.45048 30.2236 5.56022 30.1084 5.62697L29.1736 6.16815ZM9.67271 23.1987C9.39569 23.1987 9.17075 22.9738 9.17075 22.6968C9.17075 22.4198 9.39569 22.1948 9.67271 22.1948H16.5705C16.8475 22.1948 17.0725 22.4198 17.0725 22.6968C17.0725 22.9738 16.8475 23.1987 16.5705 23.1987H9.67271ZM9.67271 26.0206C9.39569 26.0206 9.17075 25.7956 9.17075 25.5186C9.17075 25.2416 9.39569 25.0166 9.67271 25.0166H16.5705C16.8475 25.0166 17.0725 25.2416 17.0725 25.5186C17.0725 25.7956 16.8475 26.0206 16.5705 26.0206H9.67271ZM9.67271 28.8424C9.39569 28.8424 9.17075 28.6175 9.17075 28.3404C9.17075 28.0634 9.39569 27.8385 9.67271 27.8385H16.5705C16.8475 27.8385 17.0725 28.0634 17.0725 28.3404C17.0725 28.6175 16.8475 28.8424 16.5705 28.8424H9.67271Z" fill="#FF845E"></path></g><defs><clipPath id="clip0_2377_2923"><rect width="32" height="32" fill="white"></rect></clipPath></defs></svg>