<svg xmlns="http://www.w3.org/2000/svg" width="60" height="60" viewBox="0 0 60 60" fill="none"><path fill-rule="evenodd" clip-rule="evenodd" d="M9.26629 34.3969C9.26659 34.1347 9.22106 33.8746 9.13176 33.6281L11.4961 31.3125H17.2451V33.2004C17.2451 33.2238 17.2451 33.2463 17.2461 33.2692L12.756 34.7161C12.531 34.7881 12.3417 34.9428 12.2265 35.1491L9.12954 40.6607C9.06717 40.6555 9.00462 40.6529 8.94204 40.6528C8.43527 40.6528 7.94328 40.8235 7.54542 41.1374C7.14756 41.4513 6.86703 41.89 6.74907 42.3829C6.63111 42.8757 6.6826 43.3939 6.89524 43.8539C7.10788 44.3139 7.46926 44.6888 7.92111 44.9183C8.37296 45.1477 8.88892 45.2183 9.38577 45.1186C9.88263 45.0188 10.3314 44.7547 10.6597 44.3686C10.988 43.9826 11.1768 43.4972 11.1954 42.9908C11.2141 42.4844 11.0617 41.9865 10.7627 41.5773L13.6795 36.382L17.9477 35.0066C18.1988 35.2835 18.5051 35.5049 18.8468 35.6565C19.1886 35.8081 19.5583 35.8865 19.9321 35.8868H25.9237V27.9592C25.9237 27.4129 26.0361 26.8725 26.254 26.3715C26.4719 25.8705 26.7905 25.4198 27.1901 25.0473C26.8675 24.555 26.6841 23.9847 26.6594 23.3967C26.6346 22.8087 26.7693 22.2249 27.0493 21.7073C27.3293 21.1896 27.7442 20.7573 28.2499 20.4563C28.7556 20.1552 29.3333 19.9966 29.9218 19.9971C30.5104 19.9977 31.0878 20.1575 31.5929 20.4596C32.098 20.7616 32.512 21.1947 32.791 21.7129C33.0699 22.2311 33.2035 22.8152 33.1776 23.4031C33.1516 23.9911 32.9671 24.5611 32.6436 25.0527C33.0415 25.425 33.3588 25.875 33.5756 26.3749C33.7925 26.8749 33.9044 27.414 33.9044 27.9589V35.1997C33.9838 35.195 34.064 35.1927 34.1447 35.1926C34.9459 35.1918 35.7286 35.4338 36.3896 35.8866H39.9052C40.2883 35.8862 40.6668 35.8038 41.0154 35.6449C41.364 35.486 41.6745 35.2543 41.926 34.9653L46.3215 36.3818L49.2384 41.5771C48.9394 41.9863 48.7871 42.4842 48.8058 42.9906C48.8246 43.497 49.0134 43.9823 49.3417 44.3683C49.6701 44.7542 50.1189 45.0183 50.6158 45.1179C51.1126 45.2176 51.6286 45.1469 52.0803 44.9174C52.5321 44.6879 52.8934 44.3129 53.106 43.8529C53.3185 43.3929 53.3699 42.8747 53.2519 42.3819C53.1338 41.8891 52.8532 41.4504 52.4553 41.1366C52.0574 40.8228 51.5654 40.6522 51.0586 40.6523C50.9954 40.6523 50.9327 40.6552 50.8711 40.6602L47.7746 35.1483C47.6593 34.942 47.47 34.7873 47.245 34.7153L42.5918 33.2153V31.3125H48.504L50.868 33.6285C50.6927 34.1124 50.6883 34.6417 50.8555 35.1284C51.0228 35.6151 51.3516 36.0299 51.7872 36.3039C52.2229 36.5779 52.7392 36.6945 53.2503 36.6344C53.7615 36.5742 54.2366 36.341 54.5968 35.9734C54.957 35.6058 55.1805 35.1259 55.2302 34.6137C55.2799 34.1014 55.1528 33.5876 54.87 33.1576C54.5872 32.7276 54.1658 32.4074 53.6757 32.2501C53.1857 32.0928 52.6566 32.108 52.1764 32.2931L49.5865 29.7562C49.4987 29.656 49.3904 29.5757 49.2689 29.5207C49.1475 29.4657 49.0157 29.4374 48.8824 29.4375H42.5915V26.0113H50.9375C51.1515 26.4794 51.5192 26.8602 51.9795 27.0905C52.4398 27.3207 52.9651 27.3866 53.468 27.2771C53.9709 27.1676 54.4212 26.8893 54.7442 26.4885C55.0671 26.0877 55.2432 25.5885 55.2432 25.0738C55.2432 24.5591 55.0671 24.0599 54.7442 23.6591C54.4212 23.2583 53.9709 22.98 53.468 22.8705C52.9651 22.761 52.4398 22.8268 51.9795 23.0571C51.5192 23.2874 51.1515 23.6682 50.9375 24.1363H42.5915V20.7103H48.8832C49.0165 20.7105 49.1483 20.6821 49.2697 20.6272C49.3912 20.5722 49.4995 20.4919 49.5873 20.3917L52.1772 17.8548C52.6572 18.0398 53.1861 18.055 53.6759 17.8978C54.1658 17.7406 54.5871 17.4205 54.8698 16.9907C55.1525 16.5609 55.2797 16.0473 55.2301 15.5353C55.1805 15.0232 54.9571 14.5436 54.5972 14.176C54.2372 13.8085 53.7623 13.5752 53.2514 13.515C52.7405 13.4547 52.2243 13.5711 51.7888 13.8448C51.3532 14.1185 51.0244 14.5331 50.857 15.0195C50.6897 15.506 50.6938 16.0351 50.8688 16.5189L48.504 18.8353H42.5915V17.1562L47.281 15.4213C47.4909 15.3446 47.6664 15.1951 47.7754 15L50.8711 9.48679C50.9331 9.49195 50.9956 9.49457 51.0586 9.49464C51.5654 9.49464 52.0574 9.32394 52.4553 9.01006C52.8531 8.69619 53.1336 8.25745 53.2516 7.7646C53.3696 7.27176 53.3181 6.75355 53.1054 6.29355C52.8928 5.83356 52.5314 5.4586 52.0796 5.22916C51.6277 4.99972 51.1118 4.92917 50.6149 5.02889C50.118 5.12861 49.6693 5.39279 49.3409 5.77881C49.0126 6.16484 48.8239 6.65021 48.8052 7.15663C48.7866 7.66305 48.939 8.16099 49.238 8.57015L46.311 13.7834L42.0645 15.3544C41.8151 15.0158 41.4898 14.7405 41.1147 14.5506C40.7396 14.3607 40.3252 14.2614 39.9047 14.2608H38.5709V9.70734C38.5709 7.41248 37.6593 5.21161 36.0366 3.5889C34.4139 1.96619 32.213 1.05457 29.9181 1.05457C27.6233 1.05457 25.4224 1.96619 23.7997 3.5889C22.177 5.21161 21.2654 7.41248 21.2654 9.70734V14.2608H19.9316C19.5212 14.2613 19.1164 14.3559 18.7482 14.5373C18.38 14.7186 18.0583 14.982 17.8077 15.307L13.6892 13.7836L10.7622 8.57015C11.0612 8.161 11.2136 7.66306 11.195 7.15664C11.1763 6.65023 10.9876 6.16486 10.6593 5.77884C10.331 5.39281 9.8822 5.12863 9.38535 5.0289C8.8885 4.92917 8.37254 4.99971 7.92069 5.22913C7.46885 5.45856 7.10745 5.83351 6.8948 6.29349C6.68215 6.75347 6.63064 7.27167 6.74858 7.76452C6.86652 8.25736 7.14703 8.69611 7.54487 9.01C7.94272 9.32389 8.43469 9.49461 8.94145 9.49464C9.00473 9.49464 9.06723 9.49203 9.12895 9.48679L12.2248 15C12.3337 15.1952 12.5091 15.3447 12.7191 15.4213L17.2448 17.0957V18.8359H11.4961L9.13176 16.5193C9.30677 16.0355 9.31094 15.5064 9.14357 15.0199C8.97621 14.5334 8.6474 14.1189 8.21179 13.8451C7.77618 13.5714 7.26001 13.455 6.74908 13.5152C6.23814 13.5755 5.76321 13.8088 5.40323 14.1763C5.04325 14.5439 4.81989 15.0236 4.77029 15.5357C4.72069 16.0477 4.84783 16.5614 5.13058 16.9912C5.41333 17.421 5.83465 17.7411 6.32453 17.8983C6.8144 18.0555 7.34332 18.0403 7.82337 17.8553L10.4132 20.3921C10.5011 20.4924 10.6094 20.5727 10.7308 20.6276C10.8523 20.6826 10.9841 20.7109 11.1174 20.7108H17.2452V24.1368H9.06262C8.84863 23.6687 8.48095 23.2879 8.02064 23.0576C7.56033 22.8274 7.03511 22.7616 6.53222 22.8711C6.02933 22.9806 5.57903 23.2588 5.25613 23.6596C4.93323 24.0604 4.75715 24.5596 4.75715 25.0743C4.75715 25.5889 4.93323 26.0881 5.25613 26.4889C5.57903 26.8897 6.02933 27.1679 6.53222 27.2774C7.03511 27.3869 7.56033 27.3211 8.02064 27.0909C8.48095 26.8606 8.84863 26.4798 9.06262 26.0118H17.2448V29.4375H11.1169C10.9836 29.4374 10.8518 29.4657 10.7304 29.5207C10.6089 29.5757 10.5006 29.656 10.4127 29.7562L7.8229 32.2931C7.37371 32.1198 6.88084 32.0948 6.41643 32.2218C5.95201 32.3488 5.54041 32.621 5.24187 32.9987C4.94333 33.3765 4.77351 33.8398 4.75727 34.321C4.74102 34.8022 4.8792 35.276 5.15159 35.673C5.42397 36.07 5.81627 36.3694 6.27106 36.5274C6.72586 36.6854 7.21929 36.6937 7.67914 36.5511C8.139 36.4084 8.54114 36.1224 8.82672 35.7348C9.11231 35.3472 9.26635 34.8783 9.26629 34.3969ZM42.8651 55.3665H27.3165C26.5213 51.4017 23.6772 48.9935 20.3485 41.5508C19.0434 38.6328 22.0477 36.9287 24.0125 39.4353L27.7976 44.2661V27.9592C27.7934 27.6788 27.8451 27.4003 27.9495 27.14C28.0539 26.8797 28.2091 26.6428 28.4059 26.443C28.6027 26.2432 28.8373 26.0846 29.096 25.9763C29.3547 25.868 29.6324 25.8122 29.9129 25.8122C30.1933 25.8122 30.471 25.868 30.7297 25.9763C30.9884 26.0846 31.223 26.2432 31.4198 26.443C31.6166 26.6428 31.7718 26.8797 31.8762 27.14C31.9806 27.4003 32.0323 27.6788 32.0281 27.9592V39.1833C32.0364 38.6277 32.2629 38.0977 32.6586 37.7078C33.0544 37.3179 33.5877 37.0993 34.1433 37.0993C34.6989 37.0993 35.2322 37.3179 35.628 37.7078C36.0238 38.0977 36.2503 38.6277 36.2586 39.1833V41.1239C36.2544 40.8435 36.306 40.565 36.4104 40.3047C36.5149 40.0444 36.67 39.8075 36.8668 39.6077C37.0637 39.4079 37.2983 39.2493 37.557 39.141C37.8157 39.0327 38.0933 38.9769 38.3738 38.9769C38.6543 38.9769 38.9319 39.0327 39.1906 39.141C39.4493 39.2493 39.6839 39.4079 39.8807 39.6077C40.0776 39.8075 40.2327 40.0444 40.3372 40.3047C40.4416 40.565 40.4932 40.8435 40.489 41.1239V43.005C40.4849 42.7246 40.5365 42.4461 40.6409 42.1858C40.7453 41.9255 40.9005 41.6886 41.0973 41.4888C41.2941 41.289 41.5287 41.1304 41.7874 41.0221C42.0461 40.9138 42.3238 40.858 42.6043 40.858C42.8847 40.858 43.1624 40.9138 43.4211 41.0221C43.6798 41.1304 43.9144 41.289 44.1112 41.4888C44.3081 41.6886 44.4632 41.9255 44.5676 42.1858C44.672 42.4461 44.7237 42.7246 44.7195 43.005V45.877C44.7195 48.1256 44.4602 52.3535 42.8634 55.3665H42.8651ZM27.4625 57.2415V58.9453H42.2945V57.2415H27.4625ZM25.3781 14.2608V9.70734C25.3841 8.50722 25.8652 7.35832 26.716 6.51186C27.5667 5.66539 28.718 5.19021 29.9182 5.19021C31.1183 5.19021 32.2696 5.66539 33.1204 6.51186C33.9712 7.35832 34.4522 8.50722 34.4583 9.70734V14.2608H25.3781Z" fill="#FF845E"></path></svg>