<?xml version="1.0" encoding="UTF-8"?>
<svg xmlns="http://www.w3.org/2000/svg" width="48" height="48" viewBox="0 0 48 48" fill="none">
  <path fill-rule="evenodd" clip-rule="evenodd" d="M1.75938 28.5214H17.6656C17.9402 28.5214 18.1766 28.6246 18.3565 28.8232C18.5364 29.0217 18.6098 29.2602 18.571 29.5204L17.3479 37.7207H11.2923V40.1189H8.1325V37.7207H2.07691L0.853847 29.5204C0.815035 29.2602 0.888441 29.0217 1.06844 28.8232C1.24835 28.6247 1.48469 28.5214 1.75938 28.5214ZM2.97916 44.2221H16.4457C16.5515 44.2218 16.6529 44.1796 16.7277 44.1048C16.8025 44.03 16.8447 43.9286 16.845 43.8228V42.0182C16.8447 41.9124 16.8025 41.811 16.7277 41.7362C16.6529 41.6614 16.5515 41.6193 16.4457 41.619H2.97916C2.87336 41.6193 2.77198 41.6614 2.69716 41.7362C2.62234 41.811 2.58018 41.9124 2.57988 42.0182V43.8228C2.58015 43.9286 2.62231 44.03 2.69713 44.1048C2.77195 44.1796 2.87335 44.2218 2.97916 44.2221ZM44.3774 17.5074H44.4858C44.3837 14.4667 43.1399 11.7018 41.1718 9.6302C41.0973 9.72873 40.9912 9.79492 40.8632 9.82098C40.69 9.85623 40.525 9.80805 40.398 9.68514C38.3329 7.68817 35.5257 6.4548 32.4455 6.4548C29.3655 6.4548 26.5582 7.68827 24.4932 9.68514C24.3662 9.80805 24.2013 9.85623 24.028 9.82098C23.8999 9.79492 23.7939 9.72873 23.7194 9.6302C21.7513 11.7019 20.5076 14.4668 20.4054 17.5074H20.5138C20.6151 17.5076 20.7122 17.548 20.7839 17.6197C20.8555 17.6913 20.8959 17.7884 20.8962 17.8898V20.1253C22.1551 20.8037 23.3806 21.3386 24.5726 21.7301C24.7007 21.7722 24.8283 21.8125 24.9555 21.8513C25.0104 22.4142 25.1291 22.9691 25.3091 23.5053C24.9056 23.4013 24.5056 23.2841 24.1098 23.1539C23.0605 22.8094 21.9893 22.3619 20.8962 21.8117V22.28C20.8959 22.3813 20.8555 22.4784 20.7839 22.5501C20.7122 22.6217 20.6151 22.6621 20.5138 22.6624H18.691C18.1652 22.6624 17.7349 22.2322 17.7349 21.7063V18.4634C17.7349 17.9376 18.1652 17.5074 18.691 17.5074H18.9047C19.011 13.9416 20.5117 10.7109 22.8772 8.34527C22.943 8.27961 23.0094 8.21464 23.0764 8.15036C22.9428 7.77311 23.0525 7.36436 23.3629 7.10298C25.8235 5.03064 28.9946 3.77795 32.4454 3.77795C35.8964 3.77795 39.0674 5.03055 41.5279 7.10298C41.8383 7.36436 41.948 7.77311 41.8144 8.15036C41.8815 8.21464 41.9479 8.27961 42.0137 8.34527C44.3792 10.7108 45.8799 13.9416 45.9862 17.5074H46.2C46.7258 17.5074 47.156 17.9376 47.156 18.4634V21.7063C47.156 22.2322 46.7258 22.6624 46.2 22.6624H44.3772C44.2759 22.6621 44.1787 22.6217 44.1071 22.5501C44.0354 22.4784 43.9951 22.3813 43.9948 22.28V17.8898C43.9952 17.7884 44.0356 17.6913 44.1073 17.6197C44.1789 17.5481 44.276 17.5077 44.3774 17.5074ZM46.2633 42.1377C45.7277 34.997 39.7173 29.32 32.4455 29.32C25.1738 29.32 19.1635 34.9969 18.6278 42.1377C18.6173 42.2705 18.6344 42.4041 18.6781 42.5299C18.7218 42.6557 18.7911 42.7711 18.8817 42.8688C18.9723 42.9664 19.0822 43.0442 19.2044 43.0972C19.3267 43.1502 19.4585 43.1773 19.5918 43.1767H45.2993C45.4325 43.1773 45.5644 43.1502 45.6866 43.0972C45.8088 43.0442 45.9187 42.9664 46.0093 42.8688C46.0999 42.7711 46.1693 42.6557 46.213 42.5299C46.2567 42.4041 46.2739 42.2705 46.2633 42.1377ZM32.4456 13.6188C28.3096 13.6188 24.9566 16.9718 24.9566 21.1078C24.9566 21.3627 24.9694 21.6146 24.9943 21.8631C26.3938 22.2858 27.7411 22.5072 29.036 22.5272C29.2328 22.5316 29.4199 22.6134 29.5566 22.755C29.6934 22.8965 29.7688 23.0862 29.7665 23.283C29.7641 23.4798 29.6843 23.6677 29.5442 23.806C29.4042 23.9442 29.2152 24.0216 29.0184 24.0214C27.8247 24.003 26.6027 23.8347 25.3523 23.5165C26.3552 26.471 29.1521 28.597 32.4455 28.597C36.5816 28.597 39.9346 25.244 39.9346 21.1079C39.9347 16.9718 36.5817 13.6188 32.4456 13.6188ZM6.35125 11.1642C9.41838 10.3424 12.571 12.1626 13.3928 15.2297C14.2146 18.2968 12.3945 21.4495 9.32735 22.2713C9.07473 22.3389 8.81783 22.3893 8.55841 22.4223L5.43607 25.6869L4.36422 21.298C3.34591 20.528 2.61432 19.4395 2.28578 18.2058C1.46397 15.1387 3.28413 11.986 6.35125 11.1642ZM5.13269 18.7065C5.13063 18.7325 5.13399 18.7587 5.14255 18.7833C5.15111 18.808 5.1647 18.8306 5.18244 18.8497C5.20019 18.8688 5.22171 18.8841 5.24564 18.8945C5.26958 18.9048 5.29541 18.9102 5.3215 18.91H10.357C10.3831 18.9102 10.4089 18.9048 10.4329 18.8945C10.4568 18.8841 10.4783 18.8688 10.4961 18.8497C10.5138 18.8306 10.5274 18.808 10.536 18.7833C10.5445 18.7587 10.5479 18.7325 10.5458 18.7065C10.4409 17.3078 9.2636 16.1959 7.83925 16.1959C6.41491 16.1958 5.23769 17.3078 5.13269 18.7065ZM7.83935 13.1203C7.02916 13.1203 6.37244 13.7771 6.37244 14.5872C6.37244 15.3973 7.02925 16.0541 7.83935 16.0541C8.64953 16.0541 9.30625 15.3973 9.30625 14.5872C9.30625 13.7771 8.64944 13.1203 7.83935 13.1203Z" fill="#FF845E"></path>
</svg>
