<svg xmlns="http://www.w3.org/2000/svg" width="32" height="32" viewBox="0 0 32 32" fill="none"><path d="M30.673 30.4736C30.7786 30.4539 30.8672 30.4021 30.9098 30.3344C30.9207 30.3191 30.9281 30.3016 30.9313 30.2832C30.9346 30.2647 30.9336 30.2458 30.9285 30.2277C30.6821 29.2891 30.5338 28.4725 30.5338 25.0181C30.5338 20.1136 27.8261 17.0667 23.4666 17.0667C19.1072 17.0667 16.3994 20.1136 16.3994 25.0181C16.3994 28.4725 16.2512 29.2891 16.0064 30.224C16.0005 30.2425 15.999 30.262 16.002 30.2812C16.0049 30.3003 16.0123 30.3185 16.0234 30.3344C16.0661 30.4021 16.1557 30.4544 16.2618 30.4741C17.4448 30.6837 19.657 30.9333 23.4666 30.9333C27.2762 30.9333 29.4869 30.6832 30.673 30.4736ZM22.9333 28.8V28.2347C21.6554 28.0848 20.6682 27.3947 20.2981 26.3568C20.2744 26.2909 20.264 26.221 20.2674 26.151C20.2708 26.0811 20.2879 26.0125 20.3179 25.9492C20.3479 25.8859 20.3901 25.8292 20.4421 25.7823C20.494 25.7353 20.5548 25.6991 20.6208 25.6757C20.6867 25.6521 20.7566 25.6417 20.8265 25.6452C20.8964 25.6486 20.965 25.6658 21.0282 25.6958C21.0915 25.7257 21.1482 25.7679 21.1952 25.8198C21.2421 25.8717 21.2784 25.9324 21.3018 25.9984C21.5205 26.6101 22.1274 27.0261 22.9333 27.1541V24.4458C21.6496 24.2032 20.2666 23.7893 20.2666 22.1333C20.2666 20.9243 21.4021 19.9536 22.9333 19.768V19.2C22.9333 19.0585 22.9895 18.9229 23.0895 18.8229C23.1895 18.7228 23.3252 18.6667 23.4666 18.6667C23.6081 18.6667 23.7437 18.7228 23.8437 18.8229C23.9438 18.9229 24 19.0585 24 19.2V19.7653C25.2778 19.9152 26.265 20.6053 26.6352 21.6432C26.6588 21.7091 26.6693 21.779 26.6659 21.8489C26.6625 21.9189 26.6453 21.9875 26.6153 22.0508C26.5853 22.114 26.5431 22.1708 26.4912 22.2177C26.4392 22.2646 26.3785 22.3008 26.3125 22.3243C26.2466 22.3479 26.1767 22.3584 26.1067 22.355C26.0368 22.3516 25.9682 22.3344 25.9049 22.3044C25.8416 22.2744 25.7849 22.2322 25.738 22.1803C25.691 22.1283 25.6548 22.0676 25.6314 22.0016C25.4128 21.3898 24.8058 20.9738 24 20.8458V23.5541C25.2837 23.7968 26.6666 24.2107 26.6666 25.8667C26.6666 27.0757 25.5312 28.0464 24 28.232V28.8C24 28.9414 23.9438 29.0771 23.8437 29.1771C23.7437 29.2771 23.6081 29.3333 23.4666 29.3333C23.3252 29.3333 23.1895 29.2771 23.0895 29.1771C22.9895 29.0771 22.9333 28.9414 22.9333 28.8Z" fill="#FF845E"></path><path d="M21.3333 22.1338C21.3333 22.8682 21.8315 23.1274 22.9333 23.3556V20.8495C22.0267 21.0026 21.3333 21.5263 21.3333 22.1338ZM25.6 25.8671C25.6 25.1327 25.1019 24.8735 24 24.6452V27.1514C24.9067 26.9983 25.6 26.4746 25.6 25.8671ZM13.3333 4.80042C13.3333 4.65897 13.2771 4.52332 13.1771 4.4233C13.0771 4.32328 12.9415 4.26709 12.8 4.26709C12.6586 4.26709 12.5229 4.32328 12.4229 4.4233C12.3229 4.52332 12.2667 4.65897 12.2667 4.80042V5.86709H13.3333V4.80042ZM8.53333 7.46709C8.67478 7.46709 8.81044 7.4109 8.91046 7.31088C9.01048 7.21086 9.06667 7.07521 9.06667 6.93376V4.80042C9.06667 4.65897 9.01048 4.52332 8.91046 4.4233C8.81044 4.32328 8.67478 4.26709 8.53333 4.26709C8.39189 4.26709 8.25623 4.32328 8.15621 4.4233C8.05619 4.52332 8 4.65897 8 4.80042V6.93376C8 7.07521 8.05619 7.21086 8.15621 7.31088C8.25623 7.4109 8.39189 7.46709 8.53333 7.46709ZM22.3083 12.3194C22.1712 12.3543 22.0259 12.3335 21.9042 12.2614C21.7825 12.1893 21.6944 12.0718 21.6592 11.9348C21.6293 11.8196 21.5883 11.7087 21.5477 11.5978C21.5125 11.4996 21.4763 11.4015 21.4459 11.3012C21.4132 11.1949 21.3881 11.0863 21.3707 10.9764C21.0357 10.8671 20.7371 10.905 20.624 11.0602C20.5152 11.2127 20.52 11.5012 20.6405 11.914C20.7429 12.2623 21.1504 13.2666 21.4987 14.0431C22.1125 13.9279 22.7707 13.8666 23.4672 13.8666C24.1637 13.8666 24.8229 13.9279 25.4357 14.0431C25.7835 13.2666 26.1909 12.2623 26.2944 11.913C26.4149 11.5018 26.4192 11.2132 26.3077 11.0575C26.1989 10.9076 25.9003 10.8687 25.5648 10.977C25.5467 11.087 25.5212 11.1957 25.4885 11.3023C25.4576 11.402 25.4219 11.5002 25.3867 11.5983C25.3461 11.7092 25.3051 11.8202 25.2752 11.9354C25.2401 12.0724 25.152 12.1899 25.0303 12.262C24.9086 12.3342 24.7632 12.355 24.6261 12.3199C24.4891 12.2848 24.3716 12.1967 24.2994 12.075C24.2273 11.9533 24.2065 11.8079 24.2416 11.6708C24.28 11.5215 24.3317 11.377 24.384 11.2335C24.4144 11.1519 24.4437 11.0698 24.4699 10.9866C24.5115 10.8516 24.5312 10.737 24.528 10.6468L24.5291 10.642C24.5252 10.6101 24.5208 10.5783 24.5157 10.5466C24.4843 10.4095 24.3269 10.2948 24.2027 10.2458C23.9941 10.1599 23.8235 10.1343 23.4672 10.1343C23.1109 10.1343 22.9403 10.1599 22.7371 10.2436C22.608 10.2954 22.4501 10.41 22.4144 10.57C22.4117 10.5855 22.4091 10.6106 22.4064 10.6346V10.6383C22.4011 10.7295 22.4203 10.8468 22.464 10.986C22.4901 11.0698 22.5195 11.1519 22.5499 11.2335C22.6021 11.3775 22.6533 11.5215 22.6923 11.6708C22.7097 11.7387 22.7135 11.8093 22.7036 11.8787C22.6937 11.948 22.6702 12.0147 22.6345 12.075C22.5988 12.1353 22.5515 12.1879 22.4955 12.23C22.4394 12.272 22.3756 12.3025 22.3077 12.3199L22.3083 12.3194ZM1.8208 23.4671L5.33333 26.9796V24.0004C5.33333 23.859 5.27714 23.7233 5.17712 23.6233C5.07711 23.5233 4.94145 23.4671 4.8 23.4671H1.8208Z" fill="#FF845E"></path><path d="M6.39998 24.0005V27.7338H15.2805C15.3141 27.0751 15.3328 26.2122 15.3328 25.0186C15.3328 20.9973 17.0581 18.0266 19.928 16.7279L19.8661 16.5823C19.7676 16.3329 19.7238 16.0653 19.7375 15.7975C19.7512 15.5296 19.8222 15.2679 19.9456 15.0298C20.0768 14.7825 20.2642 14.5695 20.4928 14.4079C20.1472 13.6314 19.7387 12.6309 19.6165 12.2159C19.5354 11.9381 19.2885 11.0943 19.7584 10.4373C20.0864 9.98607 20.6949 9.76474 21.3333 9.86341V1.60047C21.3333 1.45902 21.2771 1.32337 21.1771 1.22335C21.0771 1.12333 20.9414 1.06714 20.8 1.06714H1.59998C1.45853 1.06714 1.32288 1.12333 1.22286 1.22335C1.12284 1.32337 1.06665 1.45902 1.06665 1.60047V22.4005H4.79998C5.68212 22.4005 6.39998 23.1183 6.39998 24.0005ZM15.4667 3.73381C15.4674 3.61404 15.5084 3.49801 15.583 3.40432C15.6576 3.31064 15.7615 3.24473 15.8781 3.21718C15.9946 3.18962 16.1171 3.20202 16.2257 3.25238C16.3344 3.30273 16.423 3.38813 16.4773 3.49487L17.6 5.74074V3.73327C17.6 3.59182 17.6562 3.45617 17.7562 3.35615C17.8562 3.25613 17.9919 3.19994 18.1333 3.19994C18.2748 3.19994 18.4104 3.25613 18.5104 3.35615C18.6105 3.45617 18.6667 3.59182 18.6667 3.73327V7.99994C18.6664 8.1413 18.6101 8.27679 18.5101 8.37675C18.4102 8.47671 18.2747 8.53299 18.1333 8.53327C18.0342 8.53332 17.937 8.50575 17.8527 8.45365C17.7684 8.40156 17.7003 8.327 17.656 8.23834L16.5333 5.99247V7.99994C16.5333 8.14139 16.4771 8.27704 16.3771 8.37706C16.2771 8.47708 16.1414 8.53327 16 8.53327C15.8585 8.53327 15.7229 8.47708 15.6229 8.37706C15.5228 8.27704 15.4667 8.14139 15.4667 7.99994V3.73381ZM11.2 4.80047C11.2 3.91834 11.9179 3.20047 12.8 3.20047C13.6821 3.20047 14.4 3.91834 14.4 4.80047V8.00047C14.4 8.14192 14.3438 8.27758 14.2438 8.3776C14.1438 8.47762 14.0081 8.53381 13.8667 8.53381C13.7252 8.53381 13.5895 8.47762 13.4895 8.3776C13.3895 8.27758 13.3333 8.14192 13.3333 8.00047V6.93381H12.2667V8.00047C12.2667 8.14192 12.2105 8.27758 12.1104 8.3776C12.0104 8.47762 11.8748 8.53381 11.7333 8.53381C11.5919 8.53381 11.4562 8.47762 11.3562 8.3776C11.2562 8.27758 11.2 8.14192 11.2 8.00047V4.80047ZM6.93332 4.80047C6.93332 3.91834 7.65118 3.20047 8.53332 3.20047C9.41545 3.20047 10.1333 3.91834 10.1333 4.80047V6.93381C10.1333 7.81594 9.41545 8.53381 8.53332 8.53381C7.65118 8.53381 6.93332 7.81594 6.93332 6.93381V4.80047ZM3.73332 3.73381C3.73332 3.59236 3.78951 3.4567 3.88953 3.35668C3.98955 3.25666 4.1252 3.20047 4.26665 3.20047C4.4081 3.20047 4.54375 3.25666 4.64377 3.35668C4.74379 3.4567 4.79998 3.59236 4.79998 3.73381V7.46714H5.86665C6.0081 7.46714 6.14375 7.52333 6.24377 7.62335C6.34379 7.72337 6.39998 7.85902 6.39998 8.00047C6.39998 8.14192 6.34379 8.27758 6.24377 8.3776C6.14375 8.47762 6.0081 8.53381 5.86665 8.53381H4.26665C4.1252 8.53381 3.98955 8.47762 3.88953 8.3776C3.78951 8.27758 3.73332 8.14192 3.73332 8.00047V3.73381ZM4.26665 10.1338H18.1333C18.2748 10.1338 18.4104 10.19 18.5104 10.29C18.6105 10.39 18.6667 10.5257 18.6667 10.6671C18.6667 10.8086 18.6105 10.9442 18.5104 11.0443C18.4104 11.1443 18.2748 11.2005 18.1333 11.2005H4.26665C4.1252 11.2005 3.98955 11.1443 3.88953 11.0443C3.78951 10.9442 3.73332 10.8086 3.73332 10.6671C3.73332 10.5257 3.78951 10.39 3.88953 10.29C3.98955 10.19 4.1252 10.1338 4.26665 10.1338ZM4.26665 12.8005H18.1333C18.2748 12.8005 18.4104 12.8567 18.5104 12.9567C18.6105 13.0567 18.6667 13.1924 18.6667 13.3338C18.6667 13.4753 18.6105 13.6109 18.5104 13.7109C18.4104 13.8109 18.2748 13.8671 18.1333 13.8671H4.26665C4.1252 13.8671 3.98955 13.8109 3.88953 13.7109C3.78951 13.6109 3.73332 13.4753 3.73332 13.3338C3.73332 13.1924 3.78951 13.0567 3.88953 12.9567C3.98955 12.8567 4.1252 12.8005 4.26665 12.8005ZM4.26665 15.4671H18.1333C18.2748 15.4671 18.4104 15.5233 18.5104 15.6234C18.6105 15.7234 18.6667 15.859 18.6667 16.0005C18.6667 16.1419 18.6105 16.2776 18.5104 16.3776C18.4104 16.4776 18.2748 16.5338 18.1333 16.5338H4.26665C4.1252 16.5338 3.98955 16.4776 3.88953 16.3776C3.78951 16.2776 3.73332 16.1419 3.73332 16.0005C3.73332 15.859 3.78951 15.7234 3.88953 15.6234C3.98955 15.5233 4.1252 15.4671 4.26665 15.4671ZM4.26665 19.2005C4.1252 19.2005 3.98955 19.1443 3.88953 19.0443C3.78951 18.9442 3.73332 18.8086 3.73332 18.6671C3.73332 18.5257 3.78951 18.39 3.88953 18.29C3.98955 18.19 4.1252 18.1338 4.26665 18.1338H14.9333C15.0748 18.1338 15.2104 18.19 15.3104 18.29C15.4105 18.39 15.4667 18.5257 15.4667 18.6671C15.4667 18.8086 15.4105 18.9442 15.3104 19.0443C15.2104 19.1443 15.0748 19.2005 14.9333 19.2005H4.26665ZM25.5973 15.1637C24.9563 15.0111 24.2384 14.9333 23.4672 14.9333C22.696 14.9333 21.9781 15.0111 21.3344 15.1642C21.2391 15.1888 21.1502 15.2336 21.0739 15.2957C20.9975 15.3577 20.9353 15.4355 20.8917 15.5237C20.8392 15.6243 20.8088 15.735 20.8026 15.8483C20.7963 15.9616 20.8144 16.075 20.8555 16.1807L20.928 16.3514C21.7099 16.1215 22.5584 15.9999 23.4672 15.9999C24.376 15.9999 25.2245 16.1215 26.0064 16.3514L26.0853 16.1653C26.1236 16.0613 26.1395 15.9505 26.1322 15.8399C26.1248 15.7294 26.0943 15.6217 26.0427 15.5237C25.9987 15.4352 25.9361 15.3572 25.8593 15.2951C25.7824 15.2329 25.6931 15.1881 25.5973 15.1637Z" fill="#FF845E"></path></svg>