<svg xmlns="http://www.w3.org/2000/svg" width="60" height="60" viewBox="0 0 60 60" fill="none"><g clip-path="url(#clip0_2065_2908)"><path d="M30 17.6953C25.1539 17.6953 21.2109 21.6383 21.2109 26.4844C21.2109 31.3304 25.1539 35.2734 30 35.2734C34.8461 35.2734 38.7891 31.3304 38.7891 26.4844C38.7891 21.6383 34.8461 17.6953 30 17.6953Z" fill="#FF845E"></path><path d="M58.7984 24.8175L55.629 23.7995C54.9892 21.1398 53.9349 18.5973 52.5048 16.2653L53.945 13.3848C54.1101 13.0548 54.167 12.6813 54.1078 12.3171C54.0487 11.9529 53.8764 11.6166 53.6154 11.3558L48.6441 6.38449C48.1068 5.84719 47.2931 5.7184 46.6151 6.05484L43.7329 7.49684C41.5939 6.19055 39.2748 5.20172 36.8166 4.5477L35.088 0.971602C34.942 0.679659 34.7175 0.434143 34.4398 0.262544C34.1621 0.090945 33.8421 3.73593e-05 33.5156 0L26.4844 0C26.1579 3.73593e-05 25.8379 0.090945 25.5602 0.262544C25.2825 0.434143 25.058 0.679659 24.912 0.971602L23.1833 4.54781C20.7251 5.20184 18.4059 6.19066 16.267 7.49695L13.3848 6.05496C12.705 5.71336 11.8931 5.84555 11.3558 6.38461L6.38449 11.3558C6.12354 11.6166 5.95128 11.9529 5.89212 12.3171C5.83295 12.6813 5.88988 13.0548 6.05484 13.3848L7.49684 16.267C6.19055 18.4059 5.20172 20.7251 4.5477 23.1833L0.971602 24.912C0.679659 25.058 0.434143 25.2825 0.262544 25.5602C0.090945 25.8379 3.73593e-05 26.1579 0 26.4844L0 33.5156C3.73593e-05 33.8421 0.090945 34.1621 0.262544 34.4398C0.434143 34.7175 0.679659 34.942 0.971602 35.088L4.54781 36.8167C5.14172 39.0362 6.02578 41.1666 7.18453 43.1699L5.95887 46.8451C5.85616 47.155 5.84158 47.4873 5.91676 47.805C5.99194 48.1227 6.15391 48.4132 6.38461 48.6442L11.3559 53.6155C11.5869 53.8462 11.8775 54.0082 12.1951 54.0834C12.5128 54.1585 12.8451 54.144 13.155 54.0413L16.8302 52.8156C19.0396 54.0979 21.3758 55.0403 23.7997 55.6274L24.8177 58.7985C24.9341 59.1484 25.1578 59.4529 25.4569 59.6685C25.7561 59.8842 26.1156 60.0002 26.4844 60H33.5156C34.2727 60 34.9439 59.5159 35.1825 58.7984L36.2005 55.6273C38.6244 55.0402 40.9607 54.0977 43.17 52.8155L46.8452 54.0411C47.4786 54.2505 48.1757 54.0858 48.6443 53.6154L53.6156 48.6441C53.8463 48.4131 54.0083 48.1225 54.0835 47.8049C54.1586 47.4872 54.1441 47.1549 54.0414 46.845L52.8157 43.1698C54.098 40.9604 55.0404 38.6242 55.6275 36.2003L58.7986 35.1823C59.1485 35.0659 59.4529 34.8422 59.6686 34.5431C59.8842 34.2439 60.0002 33.8844 60 33.5156V26.4844C60 25.7273 59.5159 25.0562 58.7984 24.8175ZM30 49.3359C19.3382 49.3359 10.6641 40.6618 10.6641 30C10.6641 19.3382 19.3382 10.6641 30 10.6641C40.6618 10.6641 49.3359 19.3382 49.3359 30C49.3359 40.6618 40.6618 49.3359 30 49.3359Z" fill="#FF845E"></path><path d="M38.549 35.3024C36.3324 37.4516 33.3233 38.789 30 38.789C26.6767 38.789 23.6672 37.4516 21.4508 35.3024C19.9985 36.7381 18.8841 38.5176 18.276 40.5245C21.1743 43.7501 25.3321 45.8203 30 45.8203C34.667 45.8203 38.8245 43.7509 41.7225 40.5262C41.115 38.5185 40.0009 36.7383 38.549 35.3024Z" fill="#FF845E"></path></g><defs><clipPath id="clip0_2065_2908"><rect width="60" height="60" fill="white"></rect></clipPath></defs></svg>