<svg xmlns="http://www.w3.org/2000/svg" width="32" height="32" viewBox="0 0 32 32" fill="none"><path fill-rule="evenodd" clip-rule="evenodd" d="M9.27218 31.5624L11.8375 28.9988L3.78006 20.9413L1.21643 23.5066L9.27218 31.5624ZM14.1938 13.9362V10.4194H11.6107V13.9362H14.1938ZM12.9022 3.13795C14.4383 3.13795 15.6837 4.38338 15.6837 5.91945C15.6837 7.45551 14.4383 8.70095 12.9022 8.70095C11.3662 8.70095 10.1207 7.45551 10.1207 5.91945C10.1207 4.38338 11.3662 3.13795 12.9022 3.13795ZM13.2779 7.63795C13.2779 7.84526 13.1096 8.01357 12.9022 8.01357C12.6949 8.01357 12.5267 7.84526 12.5267 7.63795V7.52988C12.0767 7.3917 11.7294 7.0037 11.7294 6.52007C11.7294 6.42093 11.7688 6.32586 11.8389 6.25576C11.909 6.18566 12.0041 6.14627 12.1032 6.14626C12.3105 6.14626 12.4788 6.31282 12.4788 6.52007C12.4788 6.80351 12.9607 6.95238 13.2229 6.72557C13.2867 6.67063 13.3257 6.59801 13.3257 6.52007C13.3257 5.97263 11.8322 6.48107 11.8322 5.22851C11.8322 4.79976 12.1316 4.45076 12.5267 4.31607V4.20088C12.5267 3.99363 12.695 3.82532 12.9022 3.82532C13.1095 3.82532 13.2779 3.99363 13.2779 4.20088V4.31607C13.6729 4.45076 13.9724 4.79976 13.9724 5.22851C13.9724 5.43576 13.8041 5.60407 13.5967 5.60407C13.3894 5.60407 13.2212 5.43576 13.2212 5.22851C13.2212 5.02651 12.8527 4.9167 12.6561 5.08676C12.61 5.12576 12.5834 5.17713 12.5834 5.22851C12.5834 5.37732 12.7925 5.42338 13.0086 5.4712C13.5366 5.58638 14.0752 5.70682 14.0752 6.52001C14.0752 7.0037 13.7279 7.39163 13.2779 7.52982V7.63788L13.2779 7.63795ZM10.5743 15.9506H27.4174C27.5237 15.9506 27.6123 15.862 27.6123 15.7539V14.8823C27.6122 14.8306 27.5916 14.7811 27.5551 14.7446C27.5185 14.7081 27.4691 14.6875 27.4174 14.6874H10.5743C10.4662 14.6874 10.3777 14.7742 10.3777 14.8823V15.7539C10.3779 15.806 10.3986 15.8559 10.4355 15.8928C10.4723 15.9296 10.5222 15.9504 10.5743 15.9506ZM17.3863 4.89545C17.2109 5.00351 16.9788 4.95038 16.8707 4.77501C16.8446 4.73338 16.827 4.687 16.8188 4.63855C16.8107 4.59009 16.8121 4.5405 16.8232 4.49261C16.8342 4.44473 16.8546 4.39948 16.8831 4.35947C16.9116 4.31946 16.9477 4.28547 16.9894 4.25945L20.7046 1.93857C20.7665 1.90078 20.8379 1.88154 20.9105 1.88311C20.983 1.88468 21.0536 1.90701 21.1138 1.94745L22.7402 2.88645L25.4827 1.30257L25.0044 1.17501C24.8042 1.12182 24.6854 0.916321 24.7386 0.716133C24.7642 0.620048 24.827 0.538073 24.913 0.488236C24.9991 0.4384 25.1014 0.424784 25.1975 0.450383L26.5492 0.813571C26.5968 0.826149 26.6415 0.848036 26.6805 0.877966C26.7196 0.907897 26.7524 0.945278 26.7769 0.987948C26.8015 1.03062 26.8173 1.07773 26.8236 1.12656C26.8298 1.1754 26.8263 1.22498 26.8132 1.27245L26.4518 2.6242C26.3986 2.82263 26.1931 2.94132 25.9929 2.8882C25.7927 2.83507 25.674 2.62951 25.7272 2.43113L25.8565 1.95101L22.9279 3.6412C22.871 3.67384 22.8066 3.69102 22.741 3.69102C22.6754 3.69102 22.611 3.67384 22.5541 3.6412L20.9118 2.69332L17.3862 4.89551L17.3863 4.89545ZM26.4519 13.9362V4.48263H23.8706V13.9362H26.4519ZM22.3664 13.9362V6.46157H19.7834V13.9362H22.3664ZM18.2792 13.9362V8.44051H15.6979V13.9362H18.2792ZM25.2064 20.0254L28.6044 16.3545C29.6284 15.249 31.432 16.7549 30.5462 17.9756L25.9576 24.3039C25.0505 25.5547 23.7519 26.2776 22.207 26.2776H13.3292C12.5852 26.2776 11.9438 26.5699 11.4566 27.1315L11.2582 27.3583L5.38868 21.4906L8.28356 18.6648C9.14106 17.8285 10.1597 17.3909 11.3556 17.3909H13.8111C14.6101 17.3909 15.294 17.5752 15.9831 17.9738L16.7379 18.4079H22.7154C24.1327 18.4079 25.0576 20.0874 24.0141 21.3134C23.6951 21.6695 23.231 21.8963 22.7154 21.8963H17.6184C17.4111 21.8963 17.2427 22.0646 17.2427 22.2701C17.2428 22.3697 17.2824 22.4652 17.3528 22.5356C17.4233 22.606 17.5188 22.6456 17.6184 22.6456H22.7154C24.1363 22.6456 25.2807 21.4444 25.2064 20.0254Z" fill="#FF845E"></path></svg>