<svg xmlns="http://www.w3.org/2000/svg" width="32" height="32" viewBox="0 0 32 32" fill="none"><path fill-rule="evenodd" clip-rule="evenodd" d="M16 1.06744C7.51088 1.06744 0.999878 8.09826 0.999878 16.0675V17.1418C0.999878 17.4861 1.28063 17.7668 1.62488 17.7668H7.84113C8.18538 17.7668 8.46613 17.4861 8.46613 17.1418V13.44C8.46613 13.0958 8.18538 12.815 7.84113 12.815H6.49544C7.85494 8.87194 11.6103 6.01913 15.9999 6.01913C20.2836 6.01913 24.1099 8.76994 25.5045 12.815H24.1588C23.8146 12.815 23.5338 13.0958 23.5338 13.44V17.1418C23.5338 17.4861 23.8146 17.7668 24.1588 17.7668H30.3751C30.7193 17.7668 31.0001 17.4861 31.0001 17.1418V16.0675C31.0001 8.09826 24.4891 1.06744 16 1.06744ZM16 12.3828C13.9649 12.3828 12.3153 14.0324 12.3153 16.0675C12.3153 18.1026 13.9649 19.7522 16 19.7522C18.0351 19.7522 19.6847 18.1026 19.6847 16.0675C19.6847 14.0324 18.0351 12.3828 16 12.3828ZM16.4444 18.442L16.4489 18.6284C16.4496 18.7428 16.4054 18.8528 16.3258 18.9348C16.2461 19.0168 16.1375 19.0642 16.0232 19.0669C15.9089 19.0696 15.7982 19.0273 15.7148 18.9491C15.6314 18.871 15.582 18.7632 15.5773 18.6489L15.5725 18.4508C15.2498 18.3654 15.0135 18.1838 14.7736 17.9575C14.6915 17.8777 14.644 17.7688 14.6414 17.6542C14.6388 17.5397 14.6814 17.4288 14.7599 17.3453C14.8384 17.2619 14.9465 17.2127 15.061 17.2083C15.1755 17.2039 15.2871 17.2446 15.3718 17.3218C15.5769 17.5153 15.7069 17.6274 15.9999 17.6274C16.3164 17.6274 16.6706 17.4236 16.6706 17.0753C16.6706 16.7269 16.3164 16.5232 15.9999 16.5232C15.2006 16.5232 14.4542 15.9287 14.4542 15.0961C14.4542 14.4344 14.9371 13.9017 15.5564 13.7304L15.551 13.5066C15.5503 13.3923 15.5946 13.2823 15.6742 13.2002C15.7538 13.1182 15.8625 13.0708 15.9767 13.0681C16.091 13.0654 16.2018 13.1077 16.2852 13.1859C16.3686 13.2641 16.4179 13.3719 16.4226 13.4861L16.4287 13.7386C16.7604 13.8326 17.1558 14.0331 17.3473 14.3244C17.4085 14.421 17.4294 14.5377 17.4053 14.6495C17.3812 14.7613 17.3142 14.8591 17.2187 14.9219C17.1231 14.9847 17.0067 15.0075 16.8946 14.9852C16.7824 14.963 16.6835 14.8975 16.6192 14.803C16.5409 14.6839 16.2564 14.5423 16 14.5423C15.6841 14.5423 15.3293 14.7491 15.3293 15.0961C15.3293 15.4444 15.6834 15.6483 16 15.6483C16.7994 15.6483 17.5458 16.2428 17.5458 17.0754C17.5458 17.7366 17.0628 18.2695 16.4444 18.442ZM16 10.5988C12.9797 10.5988 10.5313 13.0472 10.5313 16.0675C10.5313 19.0878 12.9797 21.5363 16 21.5363C19.0203 21.5363 21.4688 19.0878 21.4688 16.0675C21.4688 13.0472 19.0203 10.5988 16 10.5988ZM16 20.6272C13.4818 20.6272 11.4403 18.5856 11.4403 16.0675C11.4403 13.5494 13.4819 11.5078 16 11.5078C18.5181 11.5078 20.5597 13.5494 20.5597 16.0675C20.5597 18.5857 18.5182 20.6272 16 20.6272ZM17.6032 27.7731V22.2066C16.5571 22.4791 15.4429 22.4791 14.3968 22.2066V27.773H13.5263C13.2495 27.773 13.1093 28.1057 13.3026 28.3038L15.7764 30.8383C15.8055 30.8681 15.8403 30.8918 15.8787 30.908C15.9171 30.9242 15.9583 30.9325 16 30.9325C16.0417 30.9325 16.0829 30.9242 16.1213 30.908C16.1598 30.8918 16.1945 30.8681 16.2236 30.8383L18.6974 28.3038C18.8907 28.1057 18.7505 27.773 18.4738 27.773L17.6032 27.7731ZM7.66688 27.7731V21.6851C7.66688 21.513 7.5265 21.3726 7.35438 21.3726H4.773C4.69017 21.3728 4.61078 21.4058 4.55221 21.4643C4.49365 21.5229 4.46067 21.6023 4.4605 21.6851V27.7731H3.58994C3.31319 27.7731 3.173 28.1058 3.36632 28.3038L5.84007 30.8383C5.86917 30.8682 5.90394 30.8919 5.94235 30.9081C5.98075 30.9242 6.02201 30.9326 6.06369 30.9326C6.10537 30.9326 6.14663 30.9242 6.18503 30.9081C6.22344 30.8919 6.25821 30.8682 6.28732 30.8383L8.76107 28.3038C8.95438 28.1058 8.81419 27.7731 8.53744 27.7731H7.66688ZM27.5395 27.7731V21.6851C27.5395 21.513 27.3991 21.3726 27.227 21.3726H24.6456C24.5628 21.3728 24.4834 21.4058 24.4248 21.4643C24.3663 21.5229 24.3333 21.6023 24.3331 21.6851V27.7731H23.4626C23.1858 27.7731 23.0456 28.1058 23.2389 28.3038L25.7127 30.8383C25.7418 30.8682 25.7766 30.8919 25.815 30.9081C25.8534 30.9242 25.8946 30.9326 25.9363 30.9326C25.978 30.9326 26.0193 30.9242 26.0577 30.9081C26.0961 30.8919 26.1308 30.8682 26.1599 30.8383L28.6337 28.3038C28.827 28.1058 28.6868 27.7731 28.4101 27.7731H27.5395Z" fill="#FF845E"></path></svg>