<svg xmlns="http://www.w3.org/2000/svg" width="32" height="32" viewBox="0 0 32 32" fill="none"><g clip-path="url(#clip0_2424_2075)"><path d="M16.5955 17.5124C16.8317 17.5125 17.0676 17.5309 17.301 17.5675V16.4181C17.301 15.8037 17.5487 15.2466 17.9487 14.8395C17.8822 14.8223 17.8138 14.8134 17.7451 14.8131H15.7716C15.4812 15.1951 15.08 15.4784 14.6228 15.6243C14.6228 15.6285 14.6222 15.6325 14.6222 15.6367V17.2945L13.5559 16.2282L13.5588 18.6789C14.3775 17.9425 15.4526 17.5124 16.5955 17.5124ZM16.5955 25.1732C18.0344 25.1732 19.2637 24.1878 19.6122 22.8353L18.9362 22.1594C18.6173 21.8408 18.4018 21.4333 18.3181 20.9903C18.2616 20.696 18.2639 20.3935 18.3249 20.1C17.9433 19.8503 17.6458 19.4912 17.4713 19.0698C17.187 18.986 16.892 18.9435 16.5955 18.9436C15.1163 18.9436 13.8812 19.9791 13.5621 21.3541L13.5638 22.77C13.8885 24.1539 15.1318 25.1732 16.5955 25.1732Z" fill="#FF845E"></path><path d="M21.376 24.0483C21.1673 24.0089 20.9652 23.9399 20.776 23.8433C20.0737 25.482 18.4468 26.6045 16.5955 26.6045C15.4778 26.6045 14.401 26.1918 13.5669 25.445L13.5698 27.8749L14.6222 26.8225V28.4802C14.6222 28.9351 14.991 29.3038 15.4458 29.3038H17.7452C18.2001 29.3038 18.5688 28.9351 18.5688 28.4802V26.8225L19.741 27.9947C20.0626 28.3163 20.5841 28.3163 20.9057 27.9947L22.5316 26.3688C22.8533 26.0471 22.8533 25.5256 22.5316 25.204L21.376 24.0483ZM30.5422 15.5944H29.9141C29.8538 15.423 29.7843 15.2548 29.7061 15.0907L30.1498 14.6471C30.4715 14.3255 30.4715 13.804 30.1498 13.4823L28.8816 12.2141C28.8052 12.1375 28.7144 12.0767 28.6145 12.0353C28.5145 11.9939 28.4074 11.9727 28.2992 11.9729C28.191 11.9727 28.0839 11.9939 27.9839 12.0353C27.884 12.0767 27.7932 12.1375 27.7168 12.2141L27.2732 12.6577C27.1091 12.5795 26.941 12.5101 26.7695 12.4497V11.8217C26.7695 11.3669 26.4007 10.998 25.9459 10.998H24.1522C23.6973 10.998 23.3286 11.3668 23.3286 11.8217V12.4497C23.1571 12.5101 22.989 12.5795 22.8249 12.6577L22.3813 12.2141C22.3049 12.1375 22.2141 12.0767 22.1141 12.0353C22.0142 11.9939 21.9071 11.9727 21.7989 11.9729C21.6907 11.9727 21.5836 11.9939 21.4836 12.0353C21.3837 12.0767 21.2929 12.1375 21.2165 12.2141L19.9483 13.4823C19.6266 13.804 19.6266 14.3255 19.9483 14.6471L20.392 15.0907C20.3138 15.2548 20.2443 15.423 20.1839 15.5944H19.5559C19.101 15.5944 18.7323 15.9632 18.7323 16.4181V18.2116C18.7323 18.6665 19.1011 19.0353 19.5559 19.0353H20.1839C20.2443 19.2068 20.3138 19.3749 20.392 19.539L19.9483 19.9826C19.6266 20.3042 19.6266 20.8257 19.9483 21.1474L21.2165 22.4157C21.2929 22.4923 21.3837 22.553 21.4836 22.5944C21.5836 22.6358 21.6907 22.657 21.7989 22.6568C22.0097 22.6568 22.2205 22.5765 22.3813 22.4157L22.8249 21.972C22.989 22.0502 23.1571 22.1197 23.3286 22.18V22.8081C23.3286 23.2628 23.6973 23.6317 24.1522 23.6317H25.9458C26.4006 23.6317 26.7694 23.2629 26.7694 22.8081V22.18C26.9408 22.1197 27.1089 22.0502 27.273 21.972L27.7167 22.4157C27.7931 22.4923 27.8839 22.553 27.9838 22.5944C28.0838 22.6358 28.1909 22.657 28.2991 22.6568C28.5099 22.6568 28.7206 22.5765 28.8814 22.4157L30.1497 21.1474C30.4713 20.8257 30.4713 20.3042 30.1497 19.9826L29.706 19.539C29.7842 19.3749 29.8536 19.2068 29.914 19.0353H30.542C30.9969 19.0353 31.3656 18.6666 31.3656 18.2116V16.4181C31.3658 15.9632 30.997 15.5944 30.5422 15.5944ZM25.049 21.37C22.813 21.37 20.9939 19.5508 20.9939 17.3148C20.9939 15.0789 22.813 13.2598 25.049 13.2598C27.285 13.2598 29.1041 15.0789 29.1041 17.3148C29.1041 19.5508 27.285 21.37 25.049 21.37Z" fill="#FF845E"></path><path d="M25.049 14.691C23.6021 14.691 22.4251 15.868 22.4251 17.3148C22.4251 18.7616 23.6021 19.9387 25.049 19.9387C26.4958 19.9387 27.6729 18.7616 27.6729 17.3148C27.6729 15.868 26.4958 14.691 25.049 14.691ZM12.1238 15.5549L12.114 15.5539L9.02899 15.2244C8.55929 15.1749 8.11599 14.9828 7.75862 14.674C7.22634 14.7955 6.70759 14.4716 6.56883 13.9603L5.38269 9.59033L5.38326 30.475C5.38326 31.3173 6.06604 32 6.90825 32C7.7471 32 8.43323 31.3171 8.43323 30.475V18.6149C8.43323 18.5276 8.46791 18.4439 8.52965 18.3822C8.59138 18.3204 8.67511 18.2858 8.76242 18.2858C8.84972 18.2858 8.93345 18.3204 8.99519 18.3822C9.05692 18.4439 9.0916 18.5276 9.0916 18.6149V30.4751C9.0916 31.3174 9.77438 32.0001 10.6166 32.0001C11.4588 32.0001 12.1416 31.3174 12.1416 30.4751C12.1416 2.80254 12.145 33.2815 12.1238 15.5549Z" fill="#FF845E"></path><path d="M5.86598 7.54592L9.22238 6.63501C9.71995 6.4999 10.2929 6.75416 10.4622 7.37797L11.3906 10.7986L12.1183 10.8763L12.1161 9.11284C12.1168 9.04588 12.1438 8.98188 12.1913 8.93465C12.2387 8.88742 12.3029 8.86074 12.3698 8.86037C12.4368 8.86 12.5012 8.88598 12.5492 8.93269C12.5972 8.9794 12.6249 9.0431 12.6263 9.11005V9.1122L12.6407 11.9931L9.41094 11.6482C8.71314 11.5739 8.0869 12.0789 8.01234 12.7769C7.93777 13.4748 8.44314 14.1009 9.14101 14.1755L13.7837 14.6713C13.9615 14.6903 14.1413 14.6715 14.3113 14.6162C14.4814 14.561 14.6378 14.4705 14.7705 14.3506C14.9032 14.2307 15.0091 14.0842 15.0812 13.9207C15.1534 13.7571 15.1903 13.5801 15.1894 13.4013L15.1678 9.09953C15.1595 7.44531 13.8037 6.10731 12.1605 6.10731C6.13677 6.10731 6.55777 6.09686 6.38087 6.13164L3.97775 5.22073L6.13205 2.49436C6.12958 2.54084 6.12834 2.58737 6.12833 2.63391C6.12833 4.08848 7.30752 5.26768 8.76209 5.26768C10.2167 5.26768 11.3959 4.08848 11.3959 2.63391C11.396 1.1792 10.2168 0 8.76224 0C7.87852 0 7.09713 0.435669 6.61931 1.10349C6.55449 0.823489 6.39624 0.573919 6.17062 0.395881C5.61995 -0.0393591 4.82075 0.0543155 4.38565 0.605128L0.907953 5.00619C0.784146 5.16289 0.699013 5.34657 0.659456 5.54232C0.6199 5.73807 0.627033 5.94039 0.680278 6.13287C0.733523 6.32535 0.83138 6.50257 0.965915 6.65017C1.10045 6.79776 1.26788 6.91157 1.45461 6.98237L5.13598 8.37776C5.19201 7.96671 5.49042 7.6479 5.86598 7.54592Z" fill="#FF845E"></path><path d="M9.52296 10.5991L10.3214 10.6843L9.48482 7.60181L6.12842 8.51279L7.09951 12.0905C7.46398 11.1228 8.44688 10.4843 9.52296 10.5991Z" fill="#FF845E"></path></g><defs><clipPath id="clip0_2424_2075"><rect width="32" height="32" fill="white"></rect></clipPath></defs></svg>