<svg xmlns="http://www.w3.org/2000/svg" width="32" height="32" viewBox="0 0 32 32" fill="none"><path fill-rule="evenodd" clip-rule="evenodd" d="M17.5795 24.06C18.0634 24.119 18.4595 23.978 18.5944 23.4745C18.715 23.0245 18.43 22.6036 18.0069 22.4544C16.5861 22.1936 15.2112 21.6965 14.1296 21.3055C12.5872 20.7479 12.191 20.6151 10.6689 21.4963L7.99167 23.0463L10.2467 27.0309L10.3515 26.9705C10.4655 26.9048 10.601 26.887 10.728 26.9211L16.9347 28.5826C17.6925 28.7858 18.4145 28.6957 19.0849 28.283L27.6414 23.0143C27.8965 22.8573 28.0215 22.49 27.9842 22.13C27.954 21.838 27.8112 21.5708 27.5429 21.4349C27.108 21.2146 26.3485 21.2829 25.1683 21.9702L20.4533 24.7164C20.0712 24.9389 19.678 25.0803 19.2696 25.149C18.0947 25.3463 16.3327 24.7954 15.279 24.4945C14.9424 24.3984 14.6007 24.3008 14.268 24.2116C14.2039 24.1954 14.1437 24.1666 14.0908 24.1269C14.0379 24.0872 13.9935 24.0374 13.96 23.9804C13.9265 23.9233 13.9047 23.8602 13.8958 23.7947C13.8869 23.7292 13.8911 23.6625 13.9082 23.5986C13.9253 23.5347 13.9548 23.4749 13.9952 23.4225C14.0356 23.3702 14.086 23.3263 14.1435 23.2936C14.2009 23.2609 14.2643 23.2399 14.33 23.2319C14.3956 23.2238 14.4622 23.2289 14.5259 23.2468C15.542 23.519 16.5497 23.8465 17.5795 24.06ZM9.90655 4.56558C9.97704 4.56545 10.0446 4.53739 10.0944 4.48754C10.1443 4.4377 10.1723 4.37013 10.1725 4.29964V1.31358C10.1144 1.34049 10.0616 1.37765 10.0167 1.42327L7.03011 4.40983C6.98449 4.45476 6.94733 4.50754 6.92042 4.56564L9.90655 4.56558ZM27.2309 24.437V27.1195C27.2309 27.4125 26.992 27.6515 26.699 27.6515H22.0106L27.2309 24.437ZM26.699 1.26746H11.1725V4.29964C11.1725 4.99808 10.605 5.56558 9.90655 5.56558H6.87436V21.4181C7.08416 21.5608 7.25821 21.75 7.38298 21.9709L7.50023 22.1781L8.90673 21.3638V19.7863C8.90673 19.5109 9.13136 19.2863 9.40673 19.2863H10.8862C11.1616 19.2863 11.3862 19.5109 11.3862 19.7863V20.0579C12.1146 19.8118 12.7719 19.7862 13.5108 20.0304V16.7164C13.5108 16.441 13.7354 16.2164 14.0108 16.2164H15.4904C15.7657 16.2164 15.9904 16.441 15.9904 16.7164V20.8978C16.6669 21.1176 17.3904 21.3236 18.1149 21.4613V17.7499C18.1149 17.4745 18.3395 17.2499 18.6149 17.2499H20.0945C20.3699 17.2499 20.5945 17.4745 20.5945 17.7499V23.4797L22.719 22.2423V13.4638C22.719 13.1885 22.9436 12.9638 23.219 12.9638H24.6985C24.9739 12.9638 25.1985 13.1885 25.1985 13.4638V20.8235C26.0132 20.4286 26.688 20.2964 27.2309 20.3388V1.79939C27.2309 1.50639 26.992 1.26746 26.699 1.26746ZM14.9479 3.80427H21.6845C21.8172 3.80427 21.9443 3.85695 22.0381 3.95072C22.1319 4.04448 22.1845 4.17166 22.1845 4.30427C22.1845 4.43688 22.1319 4.56405 22.0381 4.65782C21.9443 4.75159 21.8172 4.80427 21.6845 4.80427H14.9479C14.8152 4.80427 14.6881 4.75159 14.5943 4.65782C14.5005 4.56405 14.4479 4.43688 14.4479 4.30427C14.4479 4.17166 14.5005 4.04448 14.5943 3.95072C14.6881 3.85695 14.8152 3.80427 14.9479 3.80427ZM14.9479 6.05802H21.6845C21.8172 6.05802 21.9443 6.1107 22.0381 6.20447C22.1319 6.29823 22.1845 6.42541 22.1845 6.55802C22.1845 6.69063 22.1319 6.8178 22.0381 6.91157C21.9443 7.00534 21.8172 7.05802 21.6845 7.05802H14.9479C14.8152 7.05802 14.6881 7.00534 14.5943 6.91157C14.5005 6.8178 14.4479 6.69063 14.4479 6.55802C14.4479 6.42541 14.5005 6.29823 14.5943 6.20447C14.6881 6.1107 14.8152 6.05802 14.9479 6.05802ZM14.9479 8.31196H21.6845C21.8172 8.31196 21.9443 8.36463 22.0381 8.4584C22.1319 8.55217 22.1845 8.67935 22.1845 8.81196C22.1845 8.94456 22.1319 9.07174 22.0381 9.16551C21.9443 9.25928 21.8172 9.31196 21.6845 9.31196H14.9479C14.8152 9.31196 14.6881 9.25928 14.5943 9.16551C14.5005 9.07174 14.4479 8.94456 14.4479 8.81196C14.4479 8.67935 14.5005 8.55217 14.5943 8.4584C14.6881 8.36463 14.8152 8.31196 14.9479 8.31196ZM12.2818 3.80427H13.002C13.1346 3.80427 13.2618 3.85695 13.3555 3.95072C13.4493 4.04448 13.502 4.17166 13.502 4.30427C13.502 4.43688 13.4493 4.56405 13.3555 4.65782C13.2618 4.75159 13.1346 4.80427 13.002 4.80427H12.2818C12.1492 4.80427 12.022 4.75159 11.9282 4.65782C11.8345 4.56405 11.7818 4.43688 11.7818 4.30427C11.7818 4.17166 11.8345 4.04448 11.9282 3.95072C12.022 3.85695 12.1492 3.80427 12.2818 3.80427ZM12.2818 6.05802H13.002C13.1346 6.05802 13.2618 6.1107 13.3555 6.20447C13.4493 6.29823 13.502 6.42541 13.502 6.55802C13.502 6.69063 13.4493 6.8178 13.3555 6.91157C13.2618 7.00534 13.1346 7.05802 13.002 7.05802H12.2818C12.1492 7.05802 12.022 7.00534 11.9282 6.91157C11.8345 6.8178 11.7818 6.69063 11.7818 6.55802C11.7818 6.42541 11.8345 6.29823 11.9282 6.20447C12.022 6.1107 12.1492 6.05802 12.2818 6.05802ZM12.2818 8.31196H13.002C13.1346 8.31196 13.2618 8.36463 13.3555 8.4584C13.4493 8.55217 13.502 8.67935 13.502 8.81196C13.502 8.94456 13.4493 9.07174 13.3555 9.16551C13.2618 9.25928 13.1346 9.31196 13.002 9.31196H12.2818C12.1492 9.31196 12.022 9.25928 11.9282 9.16551C11.8345 9.07174 11.7818 8.94456 11.7818 8.81196C11.7818 8.67935 11.8345 8.55217 11.9282 8.4584C12.022 8.36463 12.1492 8.31196 12.2818 8.31196ZM24.4515 10.0663L24.2877 11.5311C24.2805 11.5963 24.2606 11.6594 24.229 11.7168C24.1975 11.7742 24.1549 11.8249 24.1037 11.8659C24.0526 11.9069 23.9939 11.9374 23.931 11.9557C23.868 11.974 23.8021 11.9797 23.737 11.9725C23.6054 11.958 23.485 11.8918 23.4022 11.7885C23.3612 11.7374 23.3307 11.6786 23.3124 11.6157C23.2941 11.5528 23.2884 11.4868 23.2956 11.4217L23.3036 11.3501L19.7084 14.9761C19.6436 15.0413 19.562 15.0872 19.4728 15.109C19.3835 15.1307 19.29 15.1273 19.2025 15.0992L14.848 13.6879L10.4532 17.11C10.3489 17.1884 10.2179 17.2228 10.0885 17.2056C9.95908 17.1885 9.84155 17.1213 9.76119 17.0184C9.68083 16.9155 9.64405 16.7852 9.65878 16.6555C9.6735 16.5258 9.73854 16.407 9.83992 16.3248L14.444 12.7398C14.508 12.6897 14.5833 12.6561 14.6633 12.6418C14.7433 12.6276 14.8256 12.6331 14.9029 12.658L19.2167 14.0558L22.6449 10.5983L22.503 10.6107C22.3721 10.62 22.2428 10.5774 22.143 10.4921C22.0432 10.4068 21.9809 10.2857 21.9697 10.155C21.9584 10.0242 21.999 9.89421 22.0827 9.79312C22.1664 9.69203 22.2866 9.62792 22.4172 9.61464L23.9159 9.48321C24.242 9.45508 24.5064 9.74771 24.4515 10.0663ZM10.2279 29.028L6.51267 22.4635C6.33304 22.1461 5.92636 22.0334 5.60898 22.213L4.34529 22.9282C4.02786 23.1078 3.91517 23.5145 4.09479 23.832L7.81004 30.3965C7.98973 30.714 8.39636 30.8266 8.71373 30.647L9.97742 29.9318C10.2949 29.7521 10.4075 29.3454 10.2279 29.028ZM5.79136 24.3403C5.67368 24.3561 5.55455 24.3248 5.45977 24.2533C5.365 24.1818 5.30222 24.0758 5.28505 23.9583C5.26787 23.8409 5.29768 23.7214 5.36801 23.6257C5.43835 23.5301 5.54354 23.466 5.66079 23.4474C5.7792 23.4301 5.89962 23.4605 5.99558 23.532C6.09154 23.6035 6.15518 23.7102 6.17248 23.8286C6.18979 23.947 6.15936 24.0674 6.08789 24.1634C6.01641 24.2593 5.90975 24.323 5.79136 24.3403Z" fill="#FF845E"></path></svg>