<svg xmlns="http://www.w3.org/2000/svg" width="60" height="60" viewBox="0 0 60 60" fill="none"><path fill-rule="evenodd" clip-rule="evenodd" d="M41.9613 34.8061C42.3643 34.8591 42.678 35.2062 42.678 35.623V38.418C42.678 38.8712 42.3073 39.2419 41.8541 39.2419H40.2832C40.1959 39.2417 40.1122 39.2068 40.0504 39.1451C39.9887 39.0833 39.9539 38.9996 39.9537 38.9123V35.1286C39.9537 35.0206 40.0064 34.9242 40.0874 34.864C40.0146 32.276 38.9542 29.9233 37.2715 28.171C37.2659 28.1723 37.2603 28.1735 37.2546 28.1747C37.1053 28.2051 36.9632 28.1636 36.8537 28.0576C35.074 26.3366 32.6545 25.2736 30.0001 25.2736C27.3456 25.2736 24.9262 26.3366 23.1465 28.0576C23.037 28.1636 22.8949 28.2051 22.7456 28.1747C22.74 28.1735 22.7343 28.1724 22.7287 28.171C21.0462 29.9232 19.9856 32.276 19.9129 34.864C19.9542 34.8946 19.9879 34.9345 20.0111 34.9804C20.0343 35.0264 20.0465 35.0771 20.0466 35.1286V36.7251C21.1642 37.3367 22.2503 37.8157 23.3048 38.162C23.4141 38.1979 23.5228 38.2322 23.6312 38.2653C23.935 39.0954 24.3983 39.8581 24.995 40.5103C24.2497 40.3832 23.4934 40.1937 22.7263 39.9417C21.8502 39.6541 20.9569 39.2844 20.0466 38.8332V38.9123C20.0463 38.9996 20.0116 39.0833 19.9498 39.1451C19.8881 39.2068 19.8044 39.2417 19.717 39.2419H18.146C17.6929 39.2419 17.3221 38.8711 17.3221 38.418V35.623C17.3221 35.2062 17.6357 34.8591 18.0387 34.8061C18.1286 31.6499 19.4552 28.7899 21.5481 26.6971C21.6571 26.5881 21.7683 26.4812 21.8815 26.3764C21.9023 26.1701 22.0024 25.9755 22.1725 25.8323C24.2931 24.0462 27.0259 22.9667 30 22.9667C32.9741 22.9667 35.707 24.0462 37.8277 25.8323C37.9977 25.9755 38.0979 26.1701 38.1186 26.3764C38.2318 26.4811 38.343 26.588 38.452 26.6971C40.5449 28.7899 41.8714 31.6499 41.9613 34.8061ZM12.4589 49.3846C12.1221 49.2339 11.7572 49.1563 11.3882 49.1568C9.93891 49.1568 8.76398 50.3317 8.76398 51.781C8.76398 53.2302 9.93891 54.4051 11.3882 54.4051C12.8374 54.4051 14.0123 53.2302 14.0123 51.781C14.0123 51.3996 13.9309 51.0373 13.7846 50.7102L18.0578 46.4372C18.2336 46.2614 18.3323 46.023 18.3323 45.7743C18.3323 45.5257 18.2336 45.2873 18.0578 45.1115C16.4966 43.5504 15.2413 41.6916 14.3878 39.6311C13.5652 37.645 13.1111 35.4626 13.1111 33.169C13.1111 28.5052 15.0014 24.2829 18.0577 21.2267C21.1139 18.1704 25.3362 16.2801 30 16.2801C34.6638 16.2801 38.8861 18.1704 41.9423 21.2267C44.9986 24.2829 46.8889 28.5052 46.8889 33.169C46.8889 35.4626 46.4348 37.645 45.6122 39.6311C44.7587 41.6916 43.5034 43.5504 41.9423 45.1115C41.7666 45.2873 41.6678 45.5257 41.6678 45.7743C41.6678 46.023 41.7666 46.2614 41.9423 46.4372L46.2154 50.7102C46.0647 51.0471 45.987 51.412 45.9875 51.781C45.9875 53.2302 47.1625 54.4051 48.6117 54.4051C50.061 54.4051 51.2359 53.2302 51.2359 51.781C51.2359 50.3317 50.061 49.1568 48.6117 49.1568C48.2304 49.1568 47.868 49.2382 47.541 49.3846L43.9141 45.7578C45.3579 44.1618 46.5169 42.3297 47.3406 40.3415C48.1619 38.359 48.6356 36.2498 48.7406 34.1065H53.8693C54.2467 35.0928 55.202 35.7932 56.3209 35.7932C57.7702 35.7932 58.9451 34.6183 58.9451 33.169C58.9451 31.7198 57.7702 30.5448 56.3209 30.5448C55.2019 30.5448 54.2467 31.2453 53.8693 32.2315H48.7406C48.5204 27.7564 46.7323 23.6933 43.9141 20.5804L47.541 16.9535C47.8778 17.1042 48.2427 17.1818 48.6117 17.1814C50.061 17.1814 51.2359 16.0064 51.2359 14.5572C51.2359 13.1079 50.061 11.933 48.6117 11.933C47.1625 11.933 45.9875 13.1079 45.9875 14.5572C45.9875 14.9386 46.069 15.301 46.2154 15.6279L42.5885 19.2548C39.4755 16.4365 35.4125 14.6485 30.9374 14.4283V9.29956C31.9236 8.92221 32.6241 7.96702 32.6241 6.848C32.6241 5.39874 31.4491 4.22382 29.9999 4.22382C28.5505 4.22382 27.3757 5.39874 27.3757 6.848C27.3757 7.96702 28.0761 8.92221 29.0624 9.29956V14.4284C24.5872 14.6486 20.5242 16.4367 17.4113 19.2549L13.7844 15.628C13.9351 15.2912 14.0127 14.9263 14.0122 14.5573C14.0122 13.108 12.8373 11.9331 11.388 11.9331C9.93879 11.9331 8.76387 13.108 8.76387 14.5573C8.76387 16.0066 9.93879 17.1815 11.388 17.1815C11.7695 17.1815 12.1317 17.1 12.4588 16.9537L16.0856 20.5805C13.2674 23.6935 11.4793 27.7565 11.2591 32.2316H6.13043C5.75297 31.2454 4.79777 30.5449 3.67887 30.5449C2.22961 30.5449 1.05469 31.7199 1.05469 33.1691C1.05469 34.6184 2.22961 35.7933 3.67887 35.7933C4.79777 35.7933 5.75297 35.0929 6.13043 34.1066H11.2591C11.3642 36.2499 11.8378 38.3591 12.6592 40.3416C13.4829 42.3298 14.6418 44.1619 16.0856 45.7579L12.4589 49.3846ZM17.5795 54.8424C18.0611 48.4237 23.4635 43.3208 30 43.3208C36.5365 43.3208 41.9389 48.4237 42.4205 54.8424C42.43 54.9617 42.4146 55.0818 42.3753 55.1949C42.336 55.308 42.2736 55.4117 42.1922 55.4995C42.1108 55.5873 42.012 55.6572 41.9021 55.7048C41.7923 55.7525 41.6737 55.7768 41.554 55.7762H18.446C18.3263 55.7768 18.2077 55.7524 18.0979 55.7048C17.988 55.6571 17.8893 55.5872 17.8078 55.4995C17.7264 55.4117 17.6641 55.308 17.6248 55.1949C17.5855 55.0818 17.5701 54.9617 17.5795 54.8424ZM30 29.2075C26.2822 29.2075 23.2683 32.2213 23.2683 35.9392C23.2674 36.739 23.4095 37.5325 23.6877 38.2824C24.8599 38.6343 25.9857 38.8186 27.065 38.8353C27.311 38.8408 27.5448 38.9431 27.7158 39.12C27.8867 39.2969 27.981 39.534 27.9781 39.78C27.9752 40.026 27.8753 40.2609 27.7003 40.4337C27.5252 40.6065 27.289 40.7033 27.043 40.703C26.382 40.6919 25.7228 40.6318 25.0707 40.5231C26.2998 41.8443 28.0533 42.6709 30.0001 42.6709C33.7179 42.6709 36.7318 39.657 36.7318 35.9392C36.7317 32.2214 33.7178 29.2075 30 29.2075Z" fill="#FF845E"></path></svg>