<?xml version="1.0" encoding="UTF-8"?>
<svg xmlns="http://www.w3.org/2000/svg" width="50" height="50" viewBox="0 0 50 50" fill="none">
  <path d="M29.4093 20.0656C29.2021 20.0656 29.0034 20.1479 28.8569 20.2944C28.7104 20.441 28.6281 20.6397 28.6281 20.8469V21.4633H26.4171C26.2099 21.4633 26.0112 21.5456 25.8647 21.6921C25.7182 21.8386 25.6359 22.0373 25.6359 22.2445C25.6359 22.4517 25.7182 22.6504 25.8647 22.797C26.0112 22.9435 26.2099 23.0258 26.4171 23.0258H26.896C27.1351 23.582 27.5867 24.4922 28.2788 25.3789C27.782 25.8367 26.7054 26.0883 27.1226 26.9687C27.6929 27.9484 28.7773 26.9734 29.3539 26.5125C29.9304 26.9734 31.0148 27.9484 31.5851 26.9687C32.0015 26.0867 30.9257 25.8375 30.4288 25.3789C30.986 24.6552 31.4505 23.8647 31.8117 23.0258H32.4023C32.6095 23.0258 32.8082 22.9435 32.9547 22.797C33.1012 22.6504 33.1835 22.4517 33.1835 22.2445C33.1835 22.0373 33.1012 21.8386 32.9547 21.6921C32.8082 21.5456 32.6095 21.4633 32.4023 21.4633H30.1906V20.8469C30.1906 20.6397 30.1083 20.441 29.9617 20.2944C29.8152 20.1479 29.6165 20.0656 29.4093 20.0656ZM29.3539 24.2156C29.0816 23.8378 28.8382 23.4401 28.6257 23.0258H30.082C29.896 23.3851 29.6546 23.8016 29.3539 24.2156ZM18.3874 19.4297L18.7835 18.4258H21.0773L21.4726 19.4289C21.8562 20.3797 23.2968 19.8047 22.9273 18.8555L20.6562 13.1016C20.4242 12.4547 19.4343 12.4531 19.2031 13.1016L16.9328 18.8555C16.5734 19.8164 17.9929 20.3789 18.3867 19.4289L18.3874 19.4297ZM20.4609 16.8633H19.3992L19.9304 15.5172L20.4609 16.8633ZM18.0046 32.3633C17.7974 32.3633 17.5987 32.4456 17.4522 32.5921C17.3057 32.7386 17.2234 32.9373 17.2234 33.1445V36.8922C17.2234 37.0994 17.3057 37.2981 17.4522 37.4446C17.5987 37.5911 17.7974 37.6734 18.0046 37.6734C18.2118 37.6734 18.4105 37.5911 18.5571 37.4446C18.7036 37.2981 18.7859 37.0994 18.7859 36.8922V33.1445C18.7859 32.9373 18.7036 32.7386 18.5571 32.5921C18.4105 32.4456 18.2118 32.3633 18.0046 32.3633ZM21.1031 37.2906V32.7469C21.1031 32.5397 21.0208 32.341 20.8742 32.1944C20.7277 32.0479 20.529 31.9656 20.3218 31.9656C20.1146 31.9656 19.9159 32.0479 19.7694 32.1944C19.6229 32.341 19.5406 32.5397 19.5406 32.7469V37.2906C19.557 38.3164 21.0859 38.3187 21.1031 37.2906ZM21.8578 31.7875V38.2492C21.8734 39.2742 23.4023 39.2773 23.4203 38.2492V31.7883C23.4031 30.7633 21.8749 30.7586 21.8578 31.7875ZM24.9546 29.8242C24.7474 29.8242 24.5487 29.9065 24.4022 30.053C24.2557 30.1995 24.1734 30.3983 24.1734 30.6055V39.4312C24.1734 39.6384 24.2557 39.8372 24.4022 39.9837C24.5487 40.1302 24.7474 40.2125 24.9546 40.2125C25.1618 40.2125 25.3605 40.1302 25.5071 39.9837C25.6536 39.8372 25.7359 39.6384 25.7359 39.4312V30.6055C25.7359 30.3983 25.6536 30.1995 25.5071 30.053C25.3605 29.9065 25.1618 29.8242 24.9546 29.8242ZM31.1546 33.1445V36.8922C31.1546 37.0994 31.2369 37.2981 31.3835 37.4446C31.53 37.5911 31.7287 37.6734 31.9359 37.6734C32.1431 37.6734 32.3418 37.5911 32.4883 37.4446C32.6348 37.2981 32.7171 37.0994 32.7171 36.8922V33.1445C32.6999 32.1187 31.1718 32.1172 31.1546 33.1445ZM28.8374 32.7469V37.2906C28.8374 37.4978 28.9198 37.6965 29.0663 37.843C29.2128 37.9896 29.4115 38.0719 29.6187 38.0719C29.8259 38.0719 30.0246 37.9896 30.1711 37.843C30.3176 37.6965 30.3999 37.4978 30.3999 37.2906V32.7469C30.3835 31.7211 28.8546 31.7187 28.8374 32.7469ZM26.5203 31.7875V38.2492C26.5374 39.2742 28.0656 39.2773 28.0828 38.2492V31.7883C28.0671 30.7633 26.5374 30.7586 26.5203 31.7875ZM28.1773 15.0367L21.1304 23.9461C20.5023 24.7461 21.7163 25.7164 22.357 24.9148L29.4031 16.0055C30.0249 15.193 28.8296 14.2398 28.1773 15.0367Z" fill="#FF845E"></path>
  <path d="M38.5703 9.10155C25.4625 -3.61876 4.44845 6.84061 5.81251 25.0078C5.82267 28.0859 5.81251 37.8437 5.81251 37.8437C5.81251 38.7656 6.56251 39.5156 7.48439 39.5156H8.50783C8.63425 40.0565 8.94017 40.5387 9.37573 40.8834C9.81128 41.2282 10.3508 41.4152 10.9063 41.414H14.461C15.3281 41.414 16.0313 40.7109 16.0313 39.8515V29.2109C16.0313 28.3437 15.3281 27.6406 14.461 27.6406H10.9063C9.7422 27.6406 8.76564 28.4531 8.50783 29.5391C8.50783 29.5391 7.41407 29.539 7.37501 29.5469V25.3203C8.8047 25.4945 10.1742 24.4906 10.1641 23C10.1578 14.5601 16.9742 7.72264 25.25 7.85936C33.2969 7.99217 39.836 14.6094 39.836 22.6015C39.836 23.3359 40.125 24.0156 40.6406 24.5234C40.9005 24.7855 41.2114 24.9914 41.5541 25.1285C41.8967 25.2656 42.2639 25.3309 42.6328 25.3203V29.6172C42.5938 29.6094 41.5078 29.6094 41.5078 29.6094C41.3782 29.0701 41.0714 28.59 40.6366 28.2458C40.2017 27.9016 39.664 27.7132 39.1094 27.7109H35.5547C34.6875 27.7109 33.9844 28.414 33.9844 29.2812V39.9219C33.9844 40.789 34.6875 41.4922 35.5547 41.4922H39.1094C40.0781 41.4922 40.9219 40.9297 41.3203 40.1094V42.2601C41.3178 42.7424 41.1241 43.2039 40.7817 43.5435C40.4392 43.883 39.976 44.0727 39.4938 44.0711H27.0625C26.9221 43.744 26.6889 43.4653 26.3918 43.2693C26.0946 43.0734 25.7466 42.9689 25.3906 42.9687H22.3828C21.2641 42.9601 20.4594 43.9781 20.5781 45.0625C20.5781 45.5418 20.768 46.0017 21.1062 46.3414C21.4445 46.6811 21.9035 46.8729 22.3828 46.875H25.3906C26.1875 46.875 26.875 46.3515 27.1094 45.6336H39.4938C41.3617 45.6336 42.8828 44.1203 42.8828 42.2601V39.5547C43.6328 39.3906 44.1953 38.7187 44.1953 37.9219V22.6015C44.1953 17.5 42.1953 12.7109 38.5703 9.10155Z" fill="#FF845E"></path>
</svg>
