<svg xmlns="http://www.w3.org/2000/svg" width="32" height="32" viewBox="0 0 32 32" fill="none"><g clip-path="url(#clip0_2377_2907)"><path d="M27.6923 23.6923C27.2431 23.6923 26.8006 23.5831 26.4031 23.374C26.0055 23.1648 25.6648 22.8621 25.4104 22.4919L24.0553 20.5208C22.4589 23.383 19.4244 25.2308 16.0001 25.2308C11.2218 25.2308 7.27982 21.581 6.81507 16.9231H7.69239C7.8606 16.9231 8.02561 16.8772 8.16961 16.7902C8.31361 16.7033 8.43111 16.5786 8.50941 16.4298C8.58772 16.2809 8.62385 16.1135 8.61391 15.9455C8.60397 15.7776 8.54833 15.6156 8.45301 15.477L7.10739 13.5198L5.06839 10.5539C4.98357 10.4305 4.87001 10.3296 4.73749 10.2599C4.60498 10.1901 4.45749 10.1537 4.30774 10.1537C4.158 10.1537 4.01051 10.1901 3.87799 10.2598C3.74547 10.3295 3.63189 10.4304 3.54707 10.5538L0.162447 15.477C0.0671487 15.6156 0.0115331 15.7776 0.00160849 15.9455C-0.00831615 16.1134 0.0278274 16.2809 0.106135 16.4297C0.184442 16.5786 0.301937 16.7032 0.445926 16.7902C0.589916 16.8771 0.754927 16.9231 0.923135 16.9231H1.87563C2.09526 20.3563 3.53732 23.5538 5.99182 26.0083C8.66514 28.6817 12.2194 30.1539 16.0001 30.1539C19.7807 30.1539 23.335 28.6817 26.0083 26.0083C26.7148 25.3019 27.3451 24.523 27.8886 23.6847C27.8233 23.6895 27.7578 23.6921 27.6923 23.6923Z" fill="#FF845E"></path><path d="M16.7034 15.0769H15.2969C15.0302 15.0769 14.8134 14.8601 14.8134 14.5934V13.8901C14.8134 13.6236 15.0302 13.4067 15.2969 13.4067H16.7034C16.97 13.4067 17.1869 13.6236 17.1869 13.8901C17.1869 14.3999 17.6002 14.8132 18.11 14.8132C18.6197 14.8132 19.033 14.3999 19.033 13.8901C19.033 12.6797 18.105 11.6823 16.9231 11.5712V11.077C16.9231 10.5672 16.5098 10.1539 16 10.1539C15.4902 10.1539 15.077 10.5672 15.077 11.077V11.5712C13.8951 11.6823 12.967 12.6797 12.967 13.8901V14.5934C12.967 15.8781 14.0121 16.9231 15.2967 16.9231H16.7033C16.9699 16.9231 17.1868 17.14 17.1868 17.4066V18.1099C17.1868 18.3765 16.9699 18.5934 16.7033 18.5934H15.2967C15.0301 18.5934 14.8132 18.3766 14.8132 18.11C14.8132 17.6002 14.3999 17.1869 13.8902 17.1869C13.3804 17.1869 12.9671 17.6002 12.9671 18.11C12.9671 19.3204 13.8951 20.3178 15.077 20.4289V20.9231C15.077 21.4329 15.4904 21.8461 16.0001 21.8461C16.5099 21.8461 16.9232 21.4328 16.9232 20.9231V20.4289C18.105 20.3177 19.0331 19.3203 19.0331 18.1099V17.4066C19.033 16.122 17.988 15.0769 16.7034 15.0769Z" fill="#FF845E"></path><path d="M31.8939 15.5703C31.8156 15.4215 31.6981 15.2968 31.5541 15.2099C31.4101 15.1229 31.2451 15.077 31.0769 15.0769H30.1244C29.9048 11.6438 28.4627 8.44625 26.0082 5.99169C23.3349 3.31844 19.7806 1.84619 16 1.84619C12.2195 1.84619 8.66501 3.31844 5.99176 5.99175C5.28526 6.69823 4.65503 7.47706 4.11145 8.31538C4.17676 8.31051 4.24221 8.30797 4.3077 8.30775C4.75691 8.30769 5.19939 8.41694 5.59695 8.62607C5.9945 8.83519 6.3352 9.13792 6.58964 9.50813L7.94476 11.4793C9.54108 8.61707 12.5756 6.76932 16 6.76932C20.7782 6.76932 24.7202 10.4191 25.1849 15.077H24.3076C24.1394 15.077 23.9744 15.1229 23.8304 15.2099C23.6864 15.2968 23.5689 15.4215 23.4906 15.5703C23.4123 15.7192 23.3762 15.8866 23.3861 16.0546C23.396 16.2225 23.4517 16.3845 23.547 16.5231L24.8926 18.4803L26.9316 21.4462C27.0165 21.5696 27.13 21.6705 27.2626 21.7402C27.3951 21.8099 27.5426 21.8463 27.6923 21.8463C27.8421 21.8463 27.9896 21.8099 28.1221 21.7402C28.2546 21.6705 28.3682 21.5696 28.453 21.4462L29.6751 19.6685L31.8376 16.5231C31.9329 16.3845 31.9885 16.2225 31.9984 16.0546C32.0083 15.8866 31.9722 15.7192 31.8939 15.5703Z" fill="#FF845E"></path></g><defs><clipPath id="clip0_2377_2907"><rect width="32" height="32" fill="white"></rect></clipPath></defs></svg>