<svg xmlns="http://www.w3.org/2000/svg" width="32" height="32" viewBox="0 0 32 32" fill="none"><path fill-rule="evenodd" clip-rule="evenodd" d="M18.5601 22.4473L17.4222 23.3761C17.0101 23.7124 16.505 23.8805 16.0001 23.8805C15.4952 23.8805 14.9901 23.7126 14.578 23.3763L13.4399 22.4473L3.1159 29.9178C3.3392 30.0101 3.5841 30.061 3.84043 30.061H28.1596C28.4161 30.061 28.6608 30.0101 28.8843 29.9178L18.5601 22.4473ZM19.3129 21.8329L29.6636 29.3226C29.9226 28.9898 30.063 28.58 30.0626 28.1583V13.2749C30.0626 13.2053 30.0587 13.1363 30.0512 13.0678L19.3129 21.8329ZM2.33637 29.3226L12.6871 21.8329L1.94882 13.0678C1.94144 13.1361 1.93738 13.2053 1.93738 13.2749V28.1581C1.93738 28.5964 2.08649 29.0006 2.33637 29.3226ZM8.46206 9.30234H23.5379V7.86914H8.46224L8.46206 9.30234Z" fill="#FF845E"></path><path fill-rule="evenodd" clip-rule="evenodd" d="M24.0074 10.2414H7.99236C7.86785 10.2414 7.74843 10.192 7.66038 10.1039C7.57234 10.0159 7.52287 9.89647 7.52287 9.77196V7.39941C7.52287 7.2749 7.57234 7.15548 7.66038 7.06743C7.74843 6.97939 7.86785 6.92992 7.99236 6.92992H24.0074C24.0691 6.92992 24.1301 6.94207 24.1871 6.96566C24.244 6.98925 24.2958 7.02384 24.3394 7.06743C24.383 7.11103 24.4176 7.16278 24.4412 7.21975C24.4647 7.27671 24.4769 7.33776 24.4769 7.39941V9.77196C24.4769 9.83361 24.4647 9.89466 24.4412 9.95162C24.4176 10.0086 24.383 10.0603 24.3394 10.1039C24.2958 10.1475 24.244 10.1821 24.1871 10.2057C24.1301 10.2293 24.0691 10.2414 24.0074 10.2414ZM7.99236 11.6748H24.0074C24.1319 11.6748 24.2513 11.7243 24.3394 11.8123C24.4274 11.9004 24.4769 12.0198 24.4769 12.1443C24.4769 12.2688 24.4274 12.3882 24.3394 12.4763C24.2513 12.5643 24.1319 12.6138 24.0074 12.6138H7.99236C7.86785 12.6138 7.74843 12.5643 7.66038 12.4763C7.57234 12.3882 7.52287 12.2688 7.52287 12.1443C7.52287 12.0198 7.57234 11.9004 7.66038 11.8123C7.74843 11.7243 7.86785 11.6748 7.99236 11.6748ZM8.5855 14.0472H23.4143C23.5388 14.0472 23.6583 14.0967 23.7464 14.1847C23.8345 14.2728 23.8839 14.3923 23.8839 14.5169C23.8839 14.6414 23.8345 14.7609 23.7464 14.849C23.6583 14.937 23.5388 14.9865 23.4143 14.9865H8.5855C8.46093 14.9865 8.34147 14.937 8.25339 14.849C8.16531 14.7609 8.11582 14.6414 8.11582 14.5169C8.11582 14.3923 8.16531 14.2728 8.25339 14.1847C8.34147 14.0967 8.46093 14.0472 8.5855 14.0472ZM18.2575 21.4821L25.9105 15.2351V5.49673H20.8852C20.8804 5.4968 20.8756 5.4968 20.8708 5.49673H6.08931V15.2355L13.7416 21.4817C13.7499 21.488 13.7578 21.4946 13.7658 21.5014L15.1716 22.6489C15.4059 22.8389 15.6983 22.9426 15.9999 22.9426C16.3015 22.9426 16.5939 22.8389 16.8281 22.6489L18.2346 21.5009C18.242 21.4944 18.2497 21.488 18.2575 21.4821ZM11.5514 16.4197H20.4484C20.5729 16.4197 20.6923 16.4692 20.7804 16.5572C20.8684 16.6453 20.9179 16.7647 20.9179 16.8892C20.9179 17.0137 20.8684 17.1332 20.7804 17.2212C20.6923 17.3092 20.5729 17.3587 20.4484 17.3587H11.5514C11.4268 17.3587 11.3074 17.3092 11.2194 17.2212C11.1313 17.1332 11.0819 17.0137 11.0819 16.8892C11.0819 16.7647 11.1313 16.6453 11.2194 16.5572C11.3074 16.4692 11.4268 16.4197 11.5514 16.4197ZM12.5619 4.55756H19.438L15.9999 2.04956L12.5619 4.55756ZM26.8494 9.9637V14.4689L29.6924 12.1482C29.5772 11.9909 29.4384 11.8523 29.2808 11.7374L26.8494 9.9637ZM5.15033 14.4689V9.9637L2.7191 11.7372C2.56153 11.8521 2.42265 11.9907 2.30737 12.148L5.15033 14.4689Z" fill="#FF845E"></path></svg>