<svg xmlns="http://www.w3.org/2000/svg" width="32" height="32" viewBox="0 0 32 32" fill="none"><g clip-path="url(#clip0_2424_2088)"><path fill-rule="evenodd" clip-rule="evenodd" d="M18.1002 9.02174L17.6772 8.28911C17.5835 8.12711 17.713 7.92011 17.907 7.94636L20.6809 8.32111C20.7157 8.32579 20.749 8.3384 20.7782 8.35796C20.8074 8.37752 20.8317 8.40352 20.8493 8.43395C20.8668 8.46438 20.8772 8.49843 20.8795 8.53349C20.8819 8.56855 20.8762 8.60368 20.8628 8.63617L19.8004 11.2259C19.7261 11.407 19.4821 11.4155 19.3886 11.2534L18.9657 10.5209L9.08486 16.2256C9.01564 16.2654 8.93346 16.2762 8.85633 16.2555C8.7792 16.2348 8.71341 16.1844 8.67336 16.1154L8.10905 15.1379C8.06927 15.0687 8.05854 14.9865 8.0792 14.9094C8.09987 14.8323 8.15024 14.7665 8.2193 14.7264L18.1002 9.02174ZM16 3.22524C21.0691 3.22524 25.5417 6.19561 27.5987 10.6387L26.4649 10.9425C26.215 11.0095 26.1392 11.3383 26.3545 11.5023L29.4328 13.8478C29.5985 13.974 29.8383 13.9098 29.9186 13.7176L31.4118 10.1472C31.5162 9.89749 31.286 9.65055 31.0362 9.71761L29.6938 10.0774C27.1012 4.0918 20.8545 0.382299 14.1804 1.19399C14.9123 1.55605 15.1462 2.51305 14.6431 3.17324L14.5407 3.30767C15.0252 3.25268 15.5124 3.22515 16 3.22524ZM3.30767 17.4592C2.67405 11.8874 5.70924 6.68355 10.6387 4.40124L10.9425 5.53505C11.0095 5.78499 11.3383 5.8608 11.5023 5.64549L13.8478 2.56724C13.974 2.40155 13.9098 2.16174 13.7176 2.08142L10.1473 0.588299C9.89755 0.483861 9.65061 0.714049 9.71767 0.963924L10.0774 2.3063C4.09186 4.89867 0.382299 11.1455 1.19399 17.8196C1.55605 17.0877 2.51305 16.8538 3.17324 17.3569L3.30767 17.4592ZM6.9668 25.0332C5.9098 23.9762 5.03711 22.7347 4.40124 21.3612L5.53511 21.0574C5.78505 20.9905 5.86086 20.6617 5.64555 20.4977L2.5673 18.1522C2.40161 18.026 2.1618 18.0902 2.08149 18.2824L0.588299 21.8527C0.483861 22.1024 0.714049 22.3494 0.963924 22.2822L2.3063 21.9225C4.89867 27.9081 11.1455 31.6176 17.8196 30.8059C17.0877 30.4439 16.8538 29.4869 17.3569 28.8267L17.4593 28.6922C13.4732 29.1455 9.65874 27.725 6.9668 25.0332ZM25.0332 25.0332C23.9762 26.0902 22.7347 26.9629 21.3612 27.5987L21.0574 26.4649C20.9905 26.2149 20.6617 26.1391 20.4977 26.3544L18.1522 29.4327C18.0259 29.5984 18.0902 29.8382 18.2824 29.9185L21.8527 31.4117C22.1025 31.5162 22.3494 31.286 22.2824 31.0361L21.9227 29.6937C27.9082 27.1013 31.6177 20.8545 30.806 14.1804C30.444 14.9123 29.487 15.1462 28.8268 14.6432L28.6924 14.5407C29.1455 18.5267 27.725 22.3412 25.0332 25.0332ZM24.1919 12.7742H25.0132C25.1598 12.7742 25.2357 12.5995 25.1357 12.4924L23.1055 10.3171C23.08 10.2898 23.0492 10.268 23.015 10.2532C22.9807 10.2383 22.9438 10.2306 22.9065 10.2306C22.8691 10.2306 22.8322 10.2383 22.7979 10.2532C22.7637 10.268 22.7329 10.2898 22.7074 10.3171L20.6772 12.4924C20.5771 12.5995 20.653 12.7742 20.7997 12.7742H21.621V22.5894C21.6211 22.6468 21.644 22.7018 21.6845 22.7424C21.7251 22.783 21.7801 22.8058 21.8375 22.8059H23.9754C24.0328 22.8058 24.0878 22.783 24.1284 22.7424C24.169 22.7018 24.1919 22.6468 24.192 22.5894V12.7742H24.1919ZM8.36874 19.2342H10.5066C10.564 19.2343 10.619 19.2572 10.6596 19.2978C10.7002 19.3383 10.723 19.3933 10.7231 19.4507V22.5894C10.723 22.6468 10.7002 22.7018 10.6596 22.7424C10.619 22.783 10.564 22.8058 10.5066 22.8059H8.36874C8.31134 22.8058 8.25632 22.783 8.21573 22.7424C8.17515 22.7018 8.15232 22.6468 8.15224 22.5894V19.4507C8.15234 19.3933 8.17518 19.3383 8.21576 19.2978C8.25634 19.2572 8.31135 19.2343 8.36874 19.2342ZM12.8583 16.8809H14.9962C15.0536 16.881 15.1086 16.9038 15.1492 16.9444C15.1897 16.985 15.2126 17.04 15.2127 17.0974V22.5894C15.2126 22.6468 15.1897 22.7018 15.1492 22.7424C15.1086 22.783 15.0536 22.8058 14.9962 22.8059H12.8583C12.8009 22.8058 12.7459 22.783 12.7053 22.7424C12.6647 22.7018 12.6419 22.6468 12.6417 22.5894V17.0974C12.6419 17.04 12.6647 16.985 12.7053 16.9444C12.7459 16.9038 12.8009 16.881 12.8583 16.8809ZM17.3479 14.5272C17.2905 14.5273 17.2355 14.5502 17.1949 14.5908C17.1543 14.6313 17.1314 14.6863 17.1313 14.7437V22.5894C17.1314 22.6468 17.1543 22.7018 17.1949 22.7424C17.2354 22.783 17.2905 22.8058 17.3479 22.8059H19.4857C19.5431 22.8058 19.5982 22.783 19.6387 22.7424C19.6793 22.7018 19.7022 22.6468 19.7023 22.5894V14.7438C19.7022 14.6864 19.6793 14.6314 19.6388 14.5908C19.5982 14.5502 19.5431 14.5274 19.4857 14.5273L17.3479 14.5272Z" fill="#FF845E"></path></g><defs><clipPath id="clip0_2424_2088"><rect width="32" height="32" fill="white"></rect></clipPath></defs></svg>