<svg xmlns="http://www.w3.org/2000/svg" width="60" height="60" viewBox="0 0 60 60" fill="none"><path fill-rule="evenodd" clip-rule="evenodd" d="M57.8543 34.4613C56.9743 29.2641 52.8059 27.8918 52.8059 24.1992C53.8934 11.0531 47.3168 1.05469 32.1891 1.05469C23.8336 1.05469 17.8641 4.96289 14.4633 10.4484C18.5754 10.8703 22.1133 13.2281 24.1512 16.5961L39.1993 7.90781L37.82 7.63477C37.6992 7.61117 37.5843 7.56401 37.4818 7.496C37.3793 7.42798 37.2912 7.34043 37.2225 7.23835C37.1539 7.13627 37.106 7.02166 37.0816 6.90108C37.0572 6.78049 37.0569 6.65628 37.0805 6.53555C37.1041 6.41481 37.1513 6.2999 37.2193 6.19738C37.2873 6.09487 37.3749 6.00676 37.4769 5.93809C37.579 5.86942 37.6936 5.82154 37.8142 5.79718C37.9348 5.77281 38.059 5.77244 38.1797 5.79609L42.0012 6.55312C42.5637 6.66328 42.9036 7.24102 42.6938 7.81406L41.4504 11.4609C41.284 11.9508 40.7532 12.2133 40.2633 12.0469C39.7735 11.8805 39.511 11.3496 39.6774 10.8598L40.1321 9.52383L24.9985 18.2613C25.643 19.7941 25.9993 21.477 25.9993 23.2441C25.9993 26.2992 24.934 29.1047 23.154 31.3113V33.5965C23.154 33.948 22.868 34.234 22.5165 34.234H19.8247C18.5004 35.0414 17.0192 35.6168 15.4372 35.9027C16.7215 37.6547 18.2942 39.2414 20.1704 40.5832C20.734 49.568 16.9782 55.9301 16.5575 58.9453L42.1934 58.8949C42.1934 53.5746 37.9114 49.6242 41.4153 48.0902C43.527 47.1656 50.4094 50.7375 52.1028 48.6293C53.3379 43.3418 54.5157 44.2383 54.5157 42.3223C51.8731 40.3102 52.0243 40.0395 54.6821 39.1816L54.7067 35.0543L57.8543 34.4613ZM7.27505 36.1523L8.24888 36.4137L8.55591 35.2687C9.3645 35.577 10.2129 35.8066 11.0907 35.9461L10.7836 37.0922L11.7575 37.3535L11.2266 39.3363L6.74302 38.1352L7.27505 36.1523ZM10.7415 41.1457L8.93325 47.8957C8.60278 49.1285 7.32427 49.8668 6.09145 49.5363C4.85864 49.2059 4.12036 47.9273 4.45083 46.6945L6.25903 39.9445L10.7415 41.1457ZM13.1356 12.2555C19.2047 12.2555 24.1254 17.1762 24.1254 23.2453C24.1254 29.3145 19.2059 34.2352 13.1356 34.2352C7.06645 34.2352 2.14575 29.3156 2.14575 23.2453C2.14575 17.175 7.06645 12.2555 13.1356 12.2555ZM13.1356 15.0703C17.6497 15.0703 21.3094 18.7301 21.3106 23.2453C21.3106 27.7594 17.6508 31.4191 13.1356 31.4191C8.62153 31.4191 4.96177 27.7594 4.9606 23.2453C4.9606 18.7301 8.62036 15.0703 13.1356 15.0703ZM42.3856 14.6953H45.4969C45.8485 14.6953 46.1344 14.9812 46.1344 15.3328V33.5965C46.1344 33.948 45.8485 34.234 45.4969 34.234H42.3856C42.034 34.234 41.7481 33.948 41.7481 33.5965V15.3328C41.7481 14.9812 42.0352 14.6953 42.3856 14.6953ZM27.0657 22.7262H30.177C30.5286 22.7262 30.8145 23.0121 30.8145 23.3637V33.5965C30.8145 33.948 30.5286 34.234 30.177 34.234H27.0657C26.7141 34.234 26.4282 33.948 26.4282 33.5965V23.3637C26.4282 23.0121 26.7153 22.7262 27.0657 22.7262ZM34.7262 18.7102H37.8375C38.1891 18.7102 38.475 18.9961 38.475 19.3477V33.5965C38.475 33.948 38.1891 34.234 37.8375 34.234H34.7262C34.3747 34.234 34.0887 33.948 34.0887 33.5965V19.3477C34.0887 18.9973 34.3747 18.7102 34.7262 18.7102Z" fill="#FF845E"></path></svg>