<svg xmlns="http://www.w3.org/2000/svg" width="32" height="32" viewBox="0 0 32 32" fill="none"><path fill-rule="evenodd" clip-rule="evenodd" d="M8 16.6667C8 16.4899 8.07024 16.3203 8.19526 16.1953C8.32029 16.0702 8.48986 16 8.66667 16H23.3333C23.5101 16 23.6797 16.0702 23.8047 16.1953C23.9298 16.3203 24 16.4899 24 16.6667C24 16.8435 23.9298 17.013 23.8047 17.1381C23.6797 17.2631 23.5101 17.3333 23.3333 17.3333H8.66667C8.48986 17.3333 8.32029 17.2631 8.19526 17.1381C8.07024 17.013 8 16.8435 8 16.6667Z" fill="#FF845E"></path><path fill-rule="evenodd" clip-rule="evenodd" d="M9.99992 16C10.1767 16 10.3463 16.0702 10.4713 16.1952C10.5963 16.3202 10.6666 16.4898 10.6666 16.6666V19.3333C10.6666 19.5101 10.5963 19.6797 10.4713 19.8047C10.3463 19.9297 10.1767 20 9.99992 20C9.82311 20 9.65354 19.9297 9.52851 19.8047C9.40349 19.6797 9.33325 19.5101 9.33325 19.3333V16.6666C9.33325 16.4898 9.40349 16.3202 9.52851 16.1952C9.65354 16.0702 9.82311 16 9.99992 16ZM21.9999 16C22.1767 16 22.3463 16.0702 22.4713 16.1952C22.5963 16.3202 22.6666 16.4898 22.6666 16.6666V19.3333C22.6666 19.5101 22.5963 19.6797 22.4713 19.8047C22.3463 19.9297 22.1767 20 21.9999 20C21.8231 20 21.6535 19.9297 21.5285 19.8047C21.4035 19.6797 21.3333 19.5101 21.3333 19.3333V16.6666C21.3333 16.4898 21.4035 16.3202 21.5285 16.1952C21.6535 16.0702 21.8231 16 21.9999 16ZM25.3333 9.33329C26.0322 9.33298 26.7134 9.11297 27.2805 8.70436C27.8475 8.29575 28.2718 7.71922 28.4933 7.05629C28.7148 6.39337 28.7223 5.67758 28.5148 5.01016C28.3072 4.34273 27.8951 3.75743 27.3367 3.33702C26.7784 2.91661 26.1019 2.68236 25.4032 2.66739C24.7044 2.65242 24.0185 2.8575 23.4427 3.25362C22.8668 3.64973 22.43 4.21685 22.1941 4.87478C21.9582 5.53271 21.935 6.24816 22.1279 6.91996L21.6626 7.84929C21.5824 8.009 21.5498 8.18836 21.5685 8.36607C21.5873 8.54378 21.6567 8.71237 21.7685 8.8518C21.8802 8.99123 22.0297 9.09565 22.1991 9.15264C22.3684 9.20963 22.5506 9.2168 22.7239 9.17329L23.7279 8.92129C24.2039 9.18396 24.7506 9.33329 25.3333 9.33329Z" fill="#FF845E"></path><path d="M28 22.6667C28 23.3739 27.719 24.0522 27.2189 24.5523C26.7188 25.0524 26.0405 25.3333 25.3333 25.3333C24.626 25.3333 23.9478 25.0524 23.4477 24.5523C22.9476 24.0522 22.6666 23.3739 22.6666 22.6667C22.6666 21.9594 22.9476 21.2811 23.4477 20.781C23.9478 20.281 24.626 20 25.3333 20C26.0405 20 26.7188 20.281 27.2189 20.781C27.719 21.2811 28 21.9594 28 22.6667Z" fill="#FF845E"></path><path fill-rule="evenodd" clip-rule="evenodd" d="M25.3333 25.3333C26.0405 25.3333 26.7188 25.0524 27.2189 24.5523C27.719 24.0522 28 23.3739 28 22.6667C28 21.9594 27.719 21.2811 27.2189 20.781C26.7188 20.281 26.0405 20 25.3333 20C24.626 20 23.9478 20.281 23.4477 20.781C22.9476 21.2811 22.6666 21.9594 22.6666 22.6667C22.6666 23.3739 22.9476 24.0522 23.4477 24.5523C23.9478 25.0524 24.626 25.3333 25.3333 25.3333Z" fill="#FF845E"></path><path d="M9.33333 22.6667C9.33333 23.3739 9.05238 24.0522 8.55229 24.5523C8.05219 25.0524 7.37391 25.3333 6.66667 25.3333C5.95942 25.3333 5.28115 25.0524 4.78105 24.5523C4.28095 24.0522 4 23.3739 4 22.6667C4 21.9594 4.28095 21.2811 4.78105 20.781C5.28115 20.281 5.95942 20 6.66667 20C7.37391 20 8.05219 20.281 8.55229 20.781C9.05238 21.2811 9.33333 21.9594 9.33333 22.6667Z" fill="#FF845E"></path><path fill-rule="evenodd" clip-rule="evenodd" d="M6.66667 25.3333C7.37391 25.3333 8.05219 25.0524 8.55229 24.5523C9.05238 24.0522 9.33333 23.3739 9.33333 22.6667C9.33333 21.9594 9.05238 21.2811 8.55229 20.781C8.05219 20.281 7.37391 20 6.66667 20C5.95942 20 5.28115 20.281 4.78105 20.781C4.28095 21.2811 4 21.9594 4 22.6667C4 23.3739 4.28095 24.0522 4.78105 24.5523C5.28115 25.0524 5.95942 25.3333 6.66667 25.3333Z" fill="#FF845E"></path><path d="M18.6666 22.6667C18.6666 23.3739 18.3856 24.0522 17.8855 24.5523C17.3854 25.0524 16.7072 25.3333 15.9999 25.3333C15.2927 25.3333 14.6144 25.0524 14.1143 24.5523C13.6142 24.0522 13.3333 23.3739 13.3333 22.6667C13.3333 21.9594 13.6142 21.2811 14.1143 20.781C14.6144 20.281 15.2927 20 15.9999 20C16.7072 20 17.3854 20.281 17.8855 20.781C18.3856 21.2811 18.6666 21.9594 18.6666 22.6667Z" fill="#FF845E"></path><path fill-rule="evenodd" clip-rule="evenodd" d="M15.9999 25.3333C16.7072 25.3333 17.3854 25.0524 17.8855 24.5523C18.3856 24.0522 18.6666 23.3739 18.6666 22.6667C18.6666 21.9594 18.3856 21.2811 17.8855 20.781C17.3854 20.281 16.7072 20 15.9999 20C15.2927 20 14.6144 20.281 14.1143 20.781C13.6142 21.2811 13.3333 21.9594 13.3333 22.6667C13.3333 23.3739 13.6142 24.0522 14.1143 24.5523C14.6144 25.0524 15.2927 25.3333 15.9999 25.3333Z" fill="#FF845E"></path><path d="M18.6666 9.33329C18.6666 10.0405 18.3856 10.7188 17.8855 11.2189C17.3854 11.719 16.7072 12 15.9999 12C15.2927 12 14.6144 11.719 14.1143 11.2189C13.6142 10.7188 13.3333 10.0405 13.3333 9.33329C13.3333 8.62605 13.6142 7.94777 14.1143 7.44767C14.6144 6.94758 15.2927 6.66663 15.9999 6.66663C16.7072 6.66663 17.3854 6.94758 17.8855 7.44767C18.3856 7.94777 18.6666 8.62605 18.6666 9.33329Z" fill="#FF845E"></path><path fill-rule="evenodd" clip-rule="evenodd" d="M16 12C16.7072 12 17.3855 11.719 17.8856 11.2189C18.3857 10.7188 18.6666 10.0405 18.6666 9.33329C18.6666 8.62605 18.3857 7.94777 17.8856 7.44767C17.3855 6.94758 16.7072 6.66663 16 6.66663C15.2927 6.66663 14.6144 6.94758 14.1143 7.44767C13.6142 7.94777 13.3333 8.62605 13.3333 9.33329C13.3333 10.0405 13.6142 10.7188 14.1143 11.2189C14.6144 11.719 15.2927 12 16 12ZM10.6666 29.3333C10.6666 28.2724 10.2452 27.255 9.49505 26.5049C8.74491 25.7547 7.72749 25.3333 6.66663 25.3333C5.60576 25.3333 4.58834 25.7547 3.8382 26.5049C3.08805 27.255 2.66663 28.2724 2.66663 29.3333H10.6666ZM20 29.3333C20 28.2724 19.5785 27.255 18.8284 26.5049C18.0782 25.7547 17.0608 25.3333 16 25.3333C14.9391 25.3333 13.9217 25.7547 13.1715 26.5049C12.4214 27.255 12 28.2724 12 29.3333H20ZM29.3333 29.3333C29.3333 28.2724 28.9119 27.255 28.1617 26.5049C27.4116 25.7547 26.3942 25.3333 25.3333 25.3333C24.2724 25.3333 23.255 25.7547 22.5049 26.5049C21.7547 27.255 21.3333 28.2724 21.3333 29.3333H29.3333Z" fill="#FF845E"></path><path fill-rule="evenodd" clip-rule="evenodd" d="M20 16C20 14.9391 19.5786 13.9217 18.8284 13.1716C18.0783 12.4214 17.0609 12 16 12C14.9391 12 13.9217 12.4214 13.1716 13.1716C12.4214 13.9217 12 14.9391 12 16H20Z" fill="#FF845E"></path></svg>