<svg xmlns="http://www.w3.org/2000/svg" width="60" height="60" viewBox="0 0 60 60" fill="none"><g clip-path="url(#clip0_2377_2899)"><path fill-rule="evenodd" clip-rule="evenodd" d="M0.967529 10.6632C0.969847 7.87115 2.06711 5.19133 4.02363 3.1994C5.98015 1.20746 8.63985 0.0623093 11.4315 0.00990921C14.2231 -0.0424909 16.9239 1.00204 18.9538 2.91915C20.9836 4.83626 22.1807 7.47301 22.2878 10.263C20.5364 11.3905 19.0529 12.8874 17.9412 14.6488C16.8296 16.4102 16.1167 18.3935 15.8526 20.4595C14.23 21.1577 12.4594 21.442 10.6998 21.287C8.94013 21.132 7.24654 20.5424 5.77099 19.5713C4.29544 18.6002 3.08411 17.2779 2.24572 15.7231C1.40733 14.1683 0.968128 12.4297 0.967529 10.6632ZM30 34.5763C32.4378 34.5765 34.8209 33.8539 36.848 32.4997C38.875 31.1455 40.455 29.2206 41.388 26.9684C42.3211 24.7163 42.5653 22.238 42.0898 19.8471C41.6143 17.4561 40.4404 15.2598 38.7167 13.536C36.993 11.8122 34.7968 10.6383 32.4058 10.1627C30.0149 9.68714 27.5366 9.93126 25.2844 10.8642C23.0322 11.7972 21.1073 13.377 19.753 15.404C18.3987 17.431 17.676 19.8141 17.6761 22.2519C17.68 25.5193 18.9796 28.6517 21.29 30.9621C23.6003 33.2725 26.7327 34.5723 30 34.5763ZM48.3693 21.3281C46.9176 21.3311 45.4808 21.0355 44.1483 20.4595C43.8842 18.3939 43.1716 16.4111 42.0604 14.6499C40.9492 12.8887 39.4663 11.3919 37.7157 10.2642C37.9257 4.58918 42.6687 0 48.3693 0C51.1976 0 53.91 1.12353 55.9099 3.12343C57.9098 5.12333 59.0333 7.83578 59.0333 10.6641C59.0333 13.4923 57.9098 16.2048 55.9099 18.2047C53.91 20.2046 51.1976 21.3281 48.3693 21.3281ZM50.9725 7.36605C50.9725 7.62265 51.0744 7.86874 51.2559 8.05018C51.4373 8.23162 51.6834 8.33355 51.94 8.33355C52.1966 8.33355 52.4427 8.23162 52.6241 8.05018C52.8056 7.86874 52.9075 7.62265 52.9075 7.36605C52.9075 5.32465 51.3761 3.61605 49.3373 3.19863V2.04656C49.3373 1.78984 49.2353 1.54363 49.0537 1.36211C48.8722 1.18058 48.626 1.07859 48.3693 1.07859C48.1126 1.07859 47.8664 1.18058 47.6848 1.36211C47.5033 1.54363 47.4013 1.78984 47.4013 2.04656V3.19922C45.3623 3.61664 43.8293 5.32523 43.8293 7.36664C43.8293 9.4057 45.3617 11.1149 47.4013 11.5332V16.1241C46.4428 15.7793 45.7644 14.9405 45.7644 13.9627C45.7659 13.8347 45.7419 13.7077 45.6939 13.5891C45.6459 13.4705 45.5748 13.3626 45.4848 13.2716C45.3949 13.1806 45.2877 13.1084 45.1696 13.0591C45.0515 13.0098 44.9249 12.9844 44.7969 12.9844C44.6689 12.9844 44.5422 13.0098 44.4241 13.0591C44.306 13.1084 44.1989 13.1806 44.1089 13.2716C44.0189 13.3626 43.9479 13.4705 43.8999 13.5891C43.8519 13.7077 43.8279 13.8347 43.8293 13.9627C43.8293 16.0031 45.3617 17.7127 47.4013 18.1301V19.2812C47.4013 19.5379 47.5033 19.7841 47.6848 19.9657C47.8664 20.1472 48.1126 20.2492 48.3693 20.2492C48.626 20.2492 48.8722 20.1472 49.0537 19.9657C49.2353 19.7841 49.3373 19.5379 49.3373 19.2812V18.1301C51.3763 17.7127 52.9075 16.0031 52.9075 13.9627C52.9075 11.9222 51.3761 10.2127 49.3373 9.79523V5.20371C50.294 5.54766 50.9725 6.38602 50.9725 7.36605ZM45.7644 7.36605C45.7644 8.34445 46.4428 9.18246 47.4013 9.52758V5.20336C46.4428 5.5473 45.7644 6.38566 45.7644 7.3657V7.36605ZM50.9725 13.9621C50.9725 12.9837 50.294 12.1457 49.3373 11.8005V16.1235C50.294 15.7787 50.9725 14.9399 50.9725 13.9621ZM16.1716 13.9621C16.1716 11.9216 14.6392 10.2121 12.5996 9.79465V5.20371C13.5571 5.54766 14.2356 6.38602 14.2356 7.36605C14.2356 7.62278 14.3376 7.86898 14.5191 8.05051C14.7007 8.23204 14.9469 8.33402 15.2036 8.33402C15.4603 8.33402 15.7065 8.23204 15.888 8.05051C16.0696 7.86898 16.1716 7.62278 16.1716 7.36605C16.1716 5.32465 14.6392 3.61605 12.5996 3.19863V2.04656C12.601 1.9186 12.577 1.79164 12.529 1.67301C12.481 1.55439 12.41 1.44646 12.32 1.35548C12.23 1.2645 12.1228 1.19227 12.0048 1.14297C11.8867 1.09368 11.76 1.0683 11.632 1.0683C11.504 1.0683 11.3773 1.09368 11.2593 1.14297C11.1412 1.19227 11.034 1.2645 10.944 1.35548C10.8541 1.44646 10.783 1.55439 10.735 1.67301C10.687 1.79164 10.663 1.9186 10.6644 2.04656V3.19922C8.62538 3.61664 7.09257 5.32523 7.09257 7.36664C7.09257 9.4057 8.62479 11.1149 10.6644 11.5332V16.1241C9.7069 15.7793 9.02851 14.9405 9.02851 13.9627C9.02851 13.7059 8.92652 13.4597 8.745 13.2782C8.56347 13.0967 8.31726 12.9947 8.06054 12.9947C7.80382 12.9947 7.55761 13.0967 7.37608 13.2782C7.19455 13.4597 7.09257 13.7059 7.09257 13.9627C7.09257 16.0031 8.62479 17.7127 10.6644 18.1301V19.2812C10.663 19.4092 10.687 19.5361 10.735 19.6548C10.783 19.7734 10.8541 19.8813 10.944 19.9723C11.034 20.0633 11.1412 20.1355 11.2593 20.1848C11.3773 20.2341 11.504 20.2595 11.632 20.2595C11.76 20.2595 11.8867 20.2341 12.0048 20.1848C12.1228 20.1355 12.23 20.0633 12.32 19.9723C12.41 19.8813 12.481 19.7734 12.529 19.6548C12.577 19.5361 12.601 19.4092 12.5996 19.2812V18.1301C14.6392 17.7121 16.1719 16.0025 16.1719 13.9621H16.1716ZM14.2356 13.9621C14.2356 12.9837 13.5571 12.1457 12.5996 11.8005V16.1235C13.5571 15.7787 14.2356 14.9399 14.2356 13.9621ZM9.02851 7.36605C9.02851 8.34445 9.7069 9.18246 10.6644 9.52758V5.20336C9.7069 5.5473 9.02851 6.38566 9.02851 7.3657V7.36605ZM33.1144 18.4821C33.1144 17.2419 32.213 16.1866 30.9685 15.8202V21.3722C33.2907 21.7973 35.0494 23.7195 35.0494 26.021C35.0494 28.3226 33.2907 30.2455 30.9685 30.6698V32.0984C30.9685 32.3551 30.8665 32.6013 30.685 32.7828C30.5034 32.9643 30.2572 33.0663 30.0005 33.0663C29.7438 33.0663 29.4976 32.9643 29.316 32.7828C29.1345 32.6013 29.0325 32.3551 29.0325 32.0984V30.6698C26.7102 30.2455 24.9507 28.3225 24.9507 26.021C24.9507 25.7643 25.0526 25.5181 25.2342 25.3366C25.4157 25.155 25.6619 25.053 25.9186 25.053C26.1753 25.053 26.4216 25.155 26.6031 25.3366C26.7846 25.5181 26.8866 25.7643 26.8866 26.021C26.8866 27.262 27.788 28.3164 29.0325 28.6838V23.1309C26.7102 22.7066 24.9507 20.7845 24.9507 18.4821C24.9507 16.1797 26.7102 14.2584 29.0325 13.8341V12.4044C29.0325 12.2773 29.0576 12.1514 29.1062 12.034C29.1549 11.9165 29.2262 11.8098 29.316 11.72C29.4059 11.6301 29.5126 11.5588 29.6301 11.5101C29.7475 11.4615 29.8734 11.4364 30.0005 11.4364C30.1276 11.4364 30.2535 11.4615 30.3709 11.5101C30.4884 11.5588 30.5951 11.6301 30.685 11.72C30.7748 11.8098 30.8461 11.9165 30.8948 12.034C30.9434 12.1514 30.9685 12.2773 30.9685 12.4044V13.8341C33.2907 14.2584 35.0494 16.1805 35.0494 18.4821C35.0494 18.7387 34.9475 18.9848 34.766 19.1662C34.5846 19.3477 34.3385 19.4496 34.0819 19.4496C33.8253 19.4496 33.5792 19.3477 33.3978 19.1662C33.2163 18.9848 33.1144 18.7387 33.1144 18.4821ZM26.8866 18.4821C26.8866 17.2419 27.788 16.1866 29.0325 15.8202V21.1448C27.788 20.7776 26.8866 19.7231 26.8866 18.4821ZM33.1144 26.021C33.1144 27.262 32.213 28.3164 30.9685 28.6838V23.3591C32.213 23.7255 33.1144 24.7799 33.1144 26.021ZM32.8683 37.0972H27.132C26.8753 37.0973 26.6291 37.1993 26.4476 37.3808C26.266 37.5623 26.164 37.8085 26.164 38.0652V48.9687H22.5843C22.4012 48.9687 22.2218 49.0206 22.0671 49.1185C21.9123 49.2164 21.7885 49.3561 21.7099 49.5215C21.6314 49.6869 21.6014 49.8712 21.6234 50.053C21.6454 50.2348 21.7185 50.4066 21.8343 50.5485L29.25 59.643C29.3407 59.7545 29.455 59.8443 29.5848 59.906C29.7145 59.9678 29.8564 59.9998 30 59.9998C30.1437 59.9998 30.2855 59.9678 30.4153 59.906C30.545 59.8443 30.6594 59.7545 30.75 59.643L38.1662 50.5485C38.2815 50.4064 38.3542 50.2347 38.376 50.0531C38.3977 49.8715 38.3676 49.6874 38.2892 49.5222C38.2107 49.3569 38.0871 49.2173 37.9327 49.1193C37.7782 49.0214 37.5991 48.9692 37.4162 48.9687H33.8369V38.0652C33.8369 37.9381 33.8119 37.8122 33.7633 37.6947C33.7147 37.5772 33.6434 37.4705 33.5535 37.3806C33.4636 37.2907 33.3569 37.2194 33.2394 37.1708C33.1219 37.1222 32.996 37.0972 32.8689 37.0972H32.8683ZM14.4113 24.5768C14.5383 24.5768 14.6642 24.6019 14.7815 24.6506C14.8989 24.6992 15.0056 24.7705 15.0954 24.8604C15.1852 24.9503 15.2564 25.057 15.305 25.1744C15.3535 25.2919 15.3785 25.4177 15.3784 25.5448V36.4888H18.4431C18.6263 36.4887 18.8057 36.5406 18.9606 36.6384C19.1154 36.7363 19.2393 36.876 19.3179 37.0415C19.3964 37.207 19.4264 37.3914 19.4043 37.5732C19.3822 37.755 19.309 37.9268 19.1931 38.0687L12.617 46.133C12.5263 46.2443 12.4119 46.3341 12.2822 46.3958C12.1525 46.4574 12.0107 46.4894 11.867 46.4894C11.7234 46.4894 11.5816 46.4574 11.4518 46.3958C11.3221 46.3341 11.2077 46.2443 11.117 46.133L4.54128 38.0687C4.42565 37.9268 4.35263 37.755 4.33067 37.5732C4.30872 37.3915 4.33874 37.2072 4.41724 37.0419C4.49575 36.8765 4.61953 36.7367 4.77423 36.6388C4.92893 36.541 5.10821 36.4889 5.29128 36.4888H8.35608V25.5448C8.35608 25.288 8.45807 25.0418 8.6396 24.8603C8.82113 24.6788 9.06733 24.5768 9.32405 24.5768H14.4113ZM50.6762 24.5768C50.9329 24.577 51.179 24.679 51.3605 24.8605C51.542 25.042 51.6441 25.2881 51.6442 25.5448V36.4888H54.7089C54.892 36.4888 55.0713 36.5408 55.2261 36.6387C55.3808 36.7366 55.5046 36.8764 55.5831 37.0418C55.6615 37.2073 55.6915 37.3916 55.6694 37.5734C55.6473 37.7551 55.574 37.9269 55.4582 38.0687L48.8829 46.133C48.7921 46.2442 48.6777 46.3338 48.548 46.3954C48.4183 46.4569 48.2765 46.4889 48.1329 46.4889C47.9893 46.4889 47.8476 46.4569 47.7178 46.3954C47.5881 46.3338 47.4737 46.2442 47.3829 46.133L40.806 38.0687C40.6904 37.9268 40.6174 37.755 40.5954 37.5732C40.5734 37.3915 40.6035 37.2072 40.682 37.0419C40.7605 36.8765 40.8843 36.7367 41.039 36.6388C41.1937 36.541 41.3729 36.4889 41.556 36.4888H44.6215V25.5448C44.6214 25.4177 44.6463 25.2918 44.6948 25.1743C44.7433 25.0569 44.8146 24.9502 44.9044 24.8603C44.9942 24.7703 45.1009 24.699 45.2183 24.6504C45.3357 24.6018 45.4616 24.5767 45.5887 24.5768H50.6762Z" fill="#FF845E"></path></g><defs><clipPath id="clip0_2377_2899"><rect width="60" height="60" fill="white"></rect></clipPath></defs></svg>