<?xml version="1.0" encoding="UTF-8"?>
<svg xmlns="http://www.w3.org/2000/svg" width="50" height="50" viewBox="0 0 50 50" fill="none">
  <g clip-path="url(#clip0_2660_1149)">
    <path d="M22.4668 41.6533C22.4663 41.2702 22.3138 40.9028 22.0429 40.6319C21.772 40.361 21.4046 40.2085 21.0215 40.208H13.4648C13.4613 40.0893 13.4335 39.9726 13.3831 39.8651C13.3328 39.7576 13.2608 39.6616 13.1719 39.583L6.31445 33.5342C5.86914 33.1421 5.53274 32.6415 5.33789 32.0811L2.1416 22.8291C1.98532 22.3767 1.90545 21.9015 1.90527 21.4229V15.3926C1.90527 15.2565 1.95926 15.126 2.05538 15.0297C2.1515 14.9334 2.2819 14.8792 2.41797 14.8789C2.87891 14.8789 4.10254 14.8789 4.50195 17.1992L5.00488 20.4883C5.04448 20.7126 5.17031 20.9126 5.35545 21.0454C5.54059 21.1782 5.77034 21.2332 5.99555 21.1988C6.22076 21.1643 6.42355 21.0431 6.56053 20.861C6.69751 20.679 6.7578 20.4506 6.72852 20.2246L6.22461 16.9277V16.9131C5.66406 13.626 3.59766 13.1357 2.41797 13.1357C1.81958 13.1363 1.24584 13.3742 0.822716 13.7973C0.399589 14.2205 0.16165 14.7942 0.161133 15.3926V21.4229C0.161162 22.0953 0.273379 22.763 0.493164 23.3984L3.69238 32.6514C3.98419 33.4953 4.48872 34.2498 5.15723 34.8418L11.2393 40.2129H9.9502C9.56694 40.2134 9.19952 40.3658 8.92843 40.6367C8.65734 40.9076 8.50468 41.275 8.50391 41.6582V43.4463H7.76953C7.38603 43.4466 7.01831 43.599 6.74714 43.8702C6.47596 44.1414 6.3235 44.5091 6.32324 44.8926V49.1328C6.32324 49.3641 6.41512 49.5859 6.57867 49.7495C6.74221 49.913 6.96402 50.0049 7.19531 50.0049C7.4266 50.0049 7.64841 49.913 7.81196 49.7495C7.9755 49.5859 8.06738 49.3641 8.06738 49.1328V45.1856H20.7627V49.1279C20.7627 49.3592 20.8546 49.581 21.0181 49.7446C21.1817 49.9081 21.4035 50 21.6348 50C21.8661 50 22.0879 49.9081 22.2514 49.7446C22.415 49.581 22.5068 49.3592 22.5068 49.1279L22.4668 41.6533ZM10.2539 41.9522H20.7236V43.4414H10.2539V41.9522ZM47.582 13.1357C46.4023 13.1357 44.3398 13.624 43.7783 16.9131L43.2715 20.2246C43.2422 20.4506 43.3025 20.679 43.4395 20.861C43.5765 21.0431 43.7792 21.1643 44.0044 21.1988C44.2297 21.2332 44.4594 21.1782 44.6446 21.0454C44.8297 20.9126 44.9555 20.7126 44.9951 20.4883L45.498 17.1992C45.8975 14.8789 47.1211 14.8789 47.582 14.8789C47.7181 14.8792 47.8485 14.9334 47.9446 15.0297C48.0407 15.126 48.0947 15.2565 48.0947 15.3926V21.4229C48.0945 21.9015 48.0147 22.3767 47.8584 22.8291L44.6592 32.0811C44.4643 32.6415 44.1279 33.1421 43.6826 33.5342L36.8262 39.583C36.7372 39.6616 36.6653 39.7576 36.6149 39.8651C36.5645 39.9726 36.5367 40.0893 36.5332 40.208H28.9424C28.5591 40.2085 28.1917 40.3609 27.9206 40.6318C27.6495 40.9028 27.4969 41.2701 27.4961 41.6533V49.1279C27.4961 49.3592 27.588 49.581 27.7515 49.7446C27.9151 49.9081 28.1369 50 28.3682 50C28.5995 50 28.8213 49.9081 28.9848 49.7446C29.1484 49.581 29.2402 49.3592 29.2402 49.1279V45.1856H41.9355V49.1279C41.9355 49.3592 42.0274 49.581 42.191 49.7446C42.3545 49.9081 42.5763 50 42.8076 50C43.0389 50 43.2607 49.9081 43.4243 49.7446C43.5878 49.581 43.6797 49.3592 43.6797 49.1279V44.8877C43.6794 44.5042 43.527 44.1365 43.2558 43.8653C42.9846 43.5941 42.6169 43.4417 42.2334 43.4414H41.4551V41.6533C41.4546 41.2702 41.3021 40.9028 41.0312 40.6319C40.7602 40.361 40.3929 40.2085 40.0098 40.208H38.7568L44.8389 34.8369C45.5074 34.2449 46.0119 33.4904 46.3037 32.6465L49.5117 23.3984C49.7315 22.763 49.8437 22.0953 49.8438 21.4229V15.3926C49.8435 15.0959 49.7848 14.8021 49.671 14.5281C49.5572 14.2541 49.3905 14.0052 49.1804 13.7956C48.9704 13.586 48.7211 13.4199 48.4469 13.3067C48.1726 13.1934 47.8787 13.1354 47.582 13.1357ZM39.7109 43.4414H29.2402V41.9522H39.7109V43.4414Z" fill="#FF845E"></path>
    <path d="M31.7607 29.0771L31.7168 29.1123C30.6683 29.9463 29.8065 30.9909 29.1868 32.1786C28.5671 33.3663 28.2034 34.6708 28.1191 36.0078L27.9775 38.292C27.9631 38.5227 28.0408 38.7498 28.1938 38.9232C28.3467 39.0966 28.5622 39.2022 28.7929 39.2168H28.8486C29.0703 39.2162 29.2835 39.1314 29.4449 38.9794C29.6063 38.8274 29.7038 38.6197 29.7177 38.3984L29.8603 36.1143C29.9284 35.0304 30.2211 33.9725 30.7199 33.0079C31.2187 32.0432 31.9127 31.1928 32.7578 30.5107L34.5781 29.417L40.2802 23.9355C40.9013 23.3369 41.9238 23.0049 42.5937 23.5674L43.0507 23.9502L36.75 31.1279C36.6744 31.214 36.6166 31.3142 36.5798 31.4227C36.5429 31.5311 36.5278 31.6458 36.5353 31.7601C36.5428 31.8744 36.5727 31.9861 36.6234 32.0889C36.674 32.1916 36.7444 32.2834 36.8305 32.3589C36.9166 32.4344 37.0168 32.4923 37.1253 32.5291C37.2337 32.5659 37.3484 32.581 37.4627 32.5735C37.577 32.5661 37.6887 32.5361 37.7915 32.4855C37.8942 32.4348 37.986 32.3644 38.0615 32.2783L44.6533 24.7676C44.7681 24.6355 44.8555 24.4819 44.9104 24.3157C44.9652 24.1496 44.9864 23.9741 44.9726 23.7996C44.9589 23.6252 44.9106 23.4552 44.8304 23.2996C44.7503 23.144 44.6399 23.006 44.5058 22.8936L43.7148 22.2305C42.4404 21.1621 40.4443 21.3516 39.0713 22.6787L33.5107 28.0273L31.7607 29.0771ZM5.4941 22.8955C5.35978 23.0082 5.24931 23.1466 5.16916 23.3025C5.08901 23.4584 5.04079 23.6288 5.02733 23.8036C5.01387 23.9784 5.03543 24.1542 5.09077 24.3205C5.1461 24.4869 5.23409 24.6405 5.34957 24.7725L11.9384 32.2803C12.014 32.3664 12.1057 32.4368 12.2085 32.4874C12.3112 32.5381 12.4229 32.568 12.5372 32.5755C12.6515 32.583 12.7662 32.5679 12.8747 32.531C12.9831 32.4942 13.0833 32.4364 13.1694 32.3608C13.2555 32.2853 13.3259 32.1935 13.3766 32.0908C13.4272 31.9881 13.4571 31.8764 13.4646 31.762C13.4721 31.6477 13.457 31.5331 13.4202 31.4246C13.3833 31.3161 13.3255 31.216 13.25 31.1299L6.94918 23.9521L7.40621 23.5693C8.07613 23.0068 9.0986 23.3389 9.72067 23.9385L15.4218 29.4189L17.2421 30.5127C18.0872 31.1948 18.7812 32.0452 19.28 33.0098C19.7788 33.9745 20.0715 35.0324 20.1396 36.1162L20.2822 38.4004C20.2958 38.6217 20.3933 38.8296 20.5548 38.9816C20.7162 39.1336 20.9296 39.2184 21.1513 39.2187H21.207C21.4377 39.2042 21.6533 39.0986 21.8062 38.9252C21.9591 38.7517 22.0369 38.5247 22.0224 38.2939L21.8808 36.0098C21.7966 34.6727 21.4328 33.3683 20.8132 32.1805C20.1935 30.9928 19.3316 29.9482 18.2832 29.1143L18.2392 29.0791L16.4892 28.0273L10.9296 22.6836C9.55563 21.3594 7.55953 21.166 6.28512 22.2344L5.4941 22.8955ZM25.8867 13.1699V5.27344C25.8867 5.04215 25.7948 4.82034 25.6313 4.65679C25.4677 4.49325 25.2459 4.40137 25.0146 4.40137C24.7835 4.40163 24.5619 4.49362 24.3986 4.65714C24.2353 4.82065 24.1435 5.04232 24.1435 5.27344V13.5645C24.1434 13.7125 24.1811 13.8581 24.2531 13.9875C24.325 14.1168 24.4288 14.2257 24.5547 14.3037L28.125 17.877C28.2885 18.0405 28.5104 18.1324 28.7417 18.1324C28.973 18.1324 29.1948 18.0405 29.3584 17.877C29.5219 17.7134 29.6138 17.4916 29.6138 17.2603C29.6138 17.0289 29.5219 16.8071 29.3584 16.6436L25.8867 13.1699Z" fill="#FF845E"></path>
    <path d="M38.6074 13.5742C38.6074 6.08789 32.5117 0 25.0186 0C17.5254 0 11.4258 6.09082 11.4258 13.5742C11.4258 21.0576 17.5225 27.1484 25.0156 27.1484C32.5088 27.1484 38.6074 21.0635 38.6074 13.5742ZM25.0186 25.4102C18.4863 25.4102 13.1729 20.1025 13.1729 13.5771C13.1729 7.05176 18.4863 1.74414 25.0186 1.74414C31.5508 1.74414 36.8633 7.05273 36.8633 13.5742C36.8633 20.0957 31.5498 25.4102 25.0186 25.4102Z" fill="#FF845E"></path>
  </g>
  <defs>
    <clipPath id="clip0_2660_1149">
      <rect width="50" height="50" fill="white"></rect>
    </clipPath>
  </defs>
</svg>
