<?xml version="1.0" encoding="UTF-8"?>
<svg xmlns="http://www.w3.org/2000/svg" width="50" height="50" viewBox="0 0 50 50" fill="none">
  <path fill-rule="evenodd" clip-rule="evenodd" d="M19.1597 18.7265C14.5706 21.4853 10.8614 16.5215 7.09316 17.063C6.95738 17.0826 6.8764 16.9167 6.97513 16.8218C8.87356 15.0003 14.6694 10.12 19.3478 15.5069C19.2757 15.097 19.2259 14.6836 19.1987 14.2683C13.7857 7.86079 20.5606 3.12216 22.933 1.68628C23.0503 1.61549 23.1894 1.73677 23.1354 1.86275C21.6869 5.24628 25.2228 9.90804 21.9782 13.5742C21.164 11.7968 20.9039 9.65932 21.1388 7.2C20.3006 9.51785 20.8391 14.6057 20.8052 14.6306C20.8204 14.7653 20.8384 14.8993 20.859 15.0326C21.1196 16.7114 21.8233 18.2768 23.0536 19.9082C23.9777 18.5243 25.201 17.0102 26.724 15.3237C27.1269 15.5542 27.583 15.6753 28.0471 15.675H33.0208C33.5005 15.675 33.952 15.5474 34.3429 15.3243C36.3161 17.5077 37.7851 19.4023 38.7514 21.0992C42.2823 27.2991 37.2608 33.5962 30.534 33.4831C23.8941 33.5947 18.9159 27.461 22.1815 21.34C21.3182 20.2696 20.6597 19.2275 20.182 18.1781C18.7715 17.1553 16.5092 16.2642 13.6781 16.0981C16.3085 17.0785 18.0619 17.9451 19.1597 18.7265ZM30.4778 26.8207C29.7636 26.8071 29.0494 26.4813 28.868 25.7525C28.8176 25.5506 28.6892 25.3771 28.511 25.2699C28.3327 25.1627 28.1192 25.1307 27.9174 25.1809C27.7156 25.2312 27.542 25.3596 27.4349 25.5379C27.3277 25.7161 27.2957 25.9296 27.3458 26.1315C27.6432 27.3257 28.6033 28.0677 29.7225 28.3059V28.663C29.7225 29.0959 30.074 29.4474 30.5068 29.4474C30.9396 29.4474 31.2911 29.0959 31.2911 28.663V28.3166C32.6162 28.0633 33.8618 27.1519 33.6741 25.5862L33.6739 25.5847C33.4779 23.9746 31.9983 23.3506 30.6406 23.1277L30.6402 23.1276C30.3212 23.0755 29.9829 22.9961 29.6905 22.8532C29.403 22.7127 29.1573 22.5034 29.1391 22.1313C29.116 21.6484 29.4503 21.3204 29.8612 21.1587C30.0553 21.0832 30.2608 21.0411 30.4689 21.0344C30.4992 21.0358 30.5294 21.0355 30.5596 21.0335C31.1358 21.0423 31.719 21.3207 31.9866 21.9588C32.154 22.358 32.6139 22.5463 33.0131 22.3789C33.4123 22.2116 33.6005 21.7517 33.4333 21.3525C33.0075 20.3368 32.1851 19.7584 31.2911 19.5535V19.1925C31.2911 18.7595 30.9396 18.4081 30.5068 18.4081C30.074 18.4081 29.7225 18.7595 29.7225 19.1925V19.5623C29.5743 19.5976 29.4287 19.6433 29.2869 19.699C28.2562 20.1045 27.514 20.9957 27.5723 22.2068L27.5724 22.2072C27.6489 23.783 29.059 24.4584 30.387 24.6757C30.734 24.7327 31.1049 24.8138 31.4315 24.962C31.7698 25.1155 32.0644 25.347 32.1167 25.7736C32.1553 26.0979 32.0029 26.3277 31.7798 26.4812C31.446 26.7112 30.9923 26.8104 30.5848 26.8204C30.5714 26.8207 30.558 26.8209 30.5444 26.821C30.5222 26.82 30.5 26.8199 30.4778 26.8207ZM15.5439 43.8527L12.1431 37.8435L17.3011 34.8572C18.494 34.1673 19.694 33.6246 21.0042 34.0501L21.0045 34.0502C22.686 34.5954 25.4279 35.7579 28.229 36.2719C28.8945 36.5072 29.3233 37.1717 29.139 37.8566L29.139 37.8569C28.9574 38.5334 28.3795 38.8614 27.5895 38.7736C26.0497 38.4554 24.6199 37.9879 23.0339 37.5618C22.86 37.5151 22.6747 37.5394 22.5188 37.6293C22.3628 37.7192 22.2489 37.8673 22.2021 38.0411C22.1555 38.215 22.1798 38.4002 22.2697 38.5562C22.3596 38.7121 22.5077 38.826 22.6815 38.8728C24.3044 39.309 27.3634 40.1129 27.3725 40.1144L28.2399 40.2556L28.2422 40.2559C29.5187 40.4591 30.6899 40.2792 31.8074 39.6279L38.7966 35.5574C40.2199 34.7282 41.2656 34.482 42.0084 34.6376C42.8115 34.8058 43.1163 35.5226 43.0628 36.1718C43.028 36.593 42.8547 37.0043 42.5225 37.209L29.8393 45.0178L29.8388 45.0182C28.8379 45.636 27.7407 45.7757 26.6048 45.4727L17.4055 43.0074C17.3194 42.9843 17.2296 42.9783 17.1412 42.99C17.0528 43.0016 16.9676 43.0305 16.8904 43.0751L15.5439 43.8527ZM28.0471 14.1064C27.4344 14.1064 26.9331 13.6049 26.9331 12.9905C26.9331 12.3779 27.4344 11.8765 28.0471 11.8765H33.0208C33.6335 11.8765 34.1348 12.3779 34.1348 12.9905C34.1348 13.6049 33.6335 14.1064 33.0208 14.1064H28.0471ZM9.83258 36.5176L15.5956 46.7007C15.69 46.8691 15.6316 47.0843 15.4639 47.179L15.4631 47.1795L13.5044 48.2896C13.336 48.3839 13.1209 48.3255 13.0263 48.1579L13.026 48.1575L7.2616 37.9718L7.2614 37.9714C7.1662 37.8035 7.22463 37.589 7.39169 37.4947L7.39228 37.4944L9.35424 36.3837C9.52179 36.2891 9.7362 36.3496 9.83209 36.5167L9.83258 36.5176ZM9.08346 37.5967C8.63856 37.6602 8.3314 38.0733 8.39493 38.5182C8.46111 38.9631 8.87424 39.2729 9.31915 39.2068C9.76405 39.1431 10.0712 38.7275 10.0077 38.2826C9.9414 37.8377 9.52836 37.5305 9.08346 37.5967ZM27.3263 10.4069L26.2635 9.34412C25.7093 8.79216 25.7093 7.88745 26.2635 7.33324C26.7317 6.8651 27.4758 6.78588 28.0368 7.14324C28.2449 7.27677 28.4824 7.29932 28.7108 7.20432C28.9393 7.10932 29.0931 6.92618 29.1451 6.68412C29.2831 6.04628 29.8553 5.56451 30.534 5.56451C31.199 5.56451 31.7802 6.0349 31.9228 6.68412C31.9747 6.92618 32.1286 7.10932 32.357 7.20432C32.5855 7.29932 32.823 7.27677 33.0311 7.14324C33.5807 6.79039 34.3249 6.85373 34.8044 7.33324C35.3563 7.88745 35.3563 8.79216 34.8044 9.34412L33.7416 10.4069C33.507 10.3411 33.2645 10.3077 33.0208 10.3078H28.0471C27.7976 10.3078 27.5558 10.3425 27.3263 10.4069Z" fill="#FF845E"></path>
</svg>
