<svg xmlns="http://www.w3.org/2000/svg" width="32" height="32" viewBox="0 0 32 32" fill="none"><g clip-path="url(#clip0_2065_2952)"><path d="M11.876 15.35C12.9865 15.9436 13.9121 16.8315 14.5513 17.9163C15.1906 19.0011 15.5188 20.241 15.5 21.5H16.5C16.487 20.2426 16.8179 19.0056 17.4569 17.9225C18.0958 16.8395 19.0186 15.9517 20.1255 15.355L20.686 16.7085L22.386 13.8405L19.157 13.0125L19.74 14.4215C18.3983 15.1582 17.2792 16.242 16.5 17.5595V13.25H18L16 10.5835L14 13.25H15.5V17.58C14.719 16.2592 13.6006 15.1701 12.2595 14.4245L12.844 13.0125L9.615 13.8405L11.315 16.7085L11.876 15.35ZM20 29.5V24.5C20 23.187 17.988 22.5 16 22.5C14.012 22.5 12 23.187 12 24.5V29.5C12 30.813 14.012 31.5 16 31.5C17.988 31.5 20 30.813 20 29.5ZM16 23.5C17.861 23.5 19 24.15 19 24.5C19 24.85 17.861 25.5 16 25.5C14.139 25.5 13 24.85 13 24.5C13 24.15 14.139 23.5 16 23.5ZM13 27C13 27.35 14.139 28 16 28C17.861 28 19 27.35 19 27V28.358C18.065 28.8066 17.0367 29.0266 16 29C14.9633 29.0266 13.935 28.8066 13 28.358V27ZM27.5 7.5C25.512 7.5 23.5 8.187 23.5 9.5V14.5C23.5 15.813 25.512 16.5 27.5 16.5C29.488 16.5 31.5 15.813 31.5 14.5V9.5C31.5 8.187 29.488 7.5 27.5 7.5ZM30.5 13.358C29.565 13.8066 28.5367 14.0266 27.5 14C26.4633 14.0266 25.435 13.8066 24.5 13.358V12C24.5 12.35 25.639 13 27.5 13C29.361 13 30.5 12.35 30.5 12V13.358ZM27.5 10.5C25.639 10.5 24.5 9.85 24.5 9.5C24.5 9.15 25.639 8.5 27.5 8.5C29.361 8.5 30.5 9.15 30.5 9.5C30.5 9.85 29.361 10.5 27.5 10.5ZM4.5 16.5C6.488 16.5 8.5 15.813 8.5 14.5V9.5C8.5 8.187 6.488 7.5 4.5 7.5C2.512 7.5 0.5 8.187 0.5 9.5V14.5C0.5 15.813 2.512 16.5 4.5 16.5ZM4.5 8.5C6.361 8.5 7.5 9.15 7.5 9.5C7.5 9.85 6.361 10.5 4.5 10.5C2.639 10.5 1.5 9.85 1.5 9.5C1.5 9.15 2.639 8.5 4.5 8.5ZM1.5 12C1.5 12.35 2.639 13 4.5 13C6.361 13 7.5 12.35 7.5 12V13.358C6.56497 13.8066 5.53674 14.0266 4.5 14C3.46326 14.0266 2.43503 13.8066 1.5 13.358V12ZM16 9.5C17.988 9.5 20 8.813 20 7.5V2.5C20 1.187 17.988 0.5 16 0.5C14.012 0.5 12 1.187 12 2.5V7.5C12 8.813 14.012 9.5 16 9.5ZM16 1.5C17.861 1.5 19 2.15 19 2.5C19 2.85 17.861 3.5 16 3.5C14.139 3.5 13 2.8525 13 2.5C13 2.1475 14.139 1.5 16 1.5ZM13 5C13 5.3525 14.139 6 16 6C17.861 6 19 5.3525 19 5V6.358C18.065 6.8066 17.0367 7.02665 16 7C14.9633 7.02665 13.935 6.8066 13 6.358V5Z" fill="#FF845E"></path></g><defs><clipPath id="clip0_2065_2952"><rect width="32" height="32" fill="white"></rect></clipPath></defs></svg>