<?xml version="1.0" encoding="UTF-8"?>
<svg xmlns="http://www.w3.org/2000/svg" width="50" height="50" viewBox="0 0 50 50" fill="none">
  <path fill-rule="evenodd" clip-rule="evenodd" d="M4.37502 41.5744V39.1239C4.37502 38.6911 4.72639 38.3396 5.15933 38.3396C5.59217 38.3396 5.94364 38.6911 5.94364 39.1239V40.7901H44.0566V39.1239C44.0566 38.6911 44.4081 38.3396 44.8409 38.3396C45.2738 38.3396 45.6252 38.6911 45.6252 39.1239V41.5744C45.6252 42.0073 45.2738 42.3587 44.8409 42.3587H25.7844V46.4934L25.8381 46.45C26.1745 46.1777 26.6687 46.2298 26.9411 46.5663C27.2135 46.9027 27.1614 47.397 26.8249 47.6693L25.4935 48.7469C25.3539 48.8599 25.1798 48.9216 25.0001 48.9216C24.8205 48.9216 24.6463 48.8599 24.5067 48.7469L23.1753 47.6693C22.8388 47.397 22.7868 46.9027 23.0591 46.5663C23.3315 46.2298 23.8257 46.1777 24.1622 46.45L24.2158 46.4934V42.3587H5.15933C4.72639 42.3587 4.37502 42.0073 4.37502 41.5744ZM24.2158 22.1543H5.94364V24.9079L5.99717 24.8646C6.33364 24.5923 6.82796 24.6443 7.10031 24.9808C7.37266 25.3173 7.32051 25.8115 6.98404 26.0838L5.65276 27.1615C5.51311 27.2745 5.33891 27.3361 5.15928 27.3361C4.97965 27.3361 4.80546 27.2745 4.6658 27.1615L3.33453 26.0838C2.99806 25.8115 2.9459 25.3173 3.21825 24.9808C3.49061 24.6443 3.98492 24.5923 4.32139 24.8646L4.37502 24.9079V21.37C4.37502 20.9372 4.72639 20.5857 5.15933 20.5857H24.2158V19.5375C24.2158 19.1046 24.5673 18.7532 25.0001 18.7532C25.433 18.7532 25.7844 19.1046 25.7844 19.5375V20.5857H44.8409C45.2738 20.5857 45.6252 20.9372 45.6252 21.37V24.9079L45.6788 24.8646C46.0153 24.5923 46.5096 24.6443 46.782 24.9808C47.0543 25.3173 47.0022 25.8115 46.6657 26.0838L45.3344 27.1615C45.1948 27.2745 45.0206 27.3361 44.841 27.3361C44.6613 27.3361 44.4871 27.2745 44.3475 27.1615L43.0162 26.0838C42.6797 25.8115 42.6276 25.3173 42.8999 24.9808C43.1723 24.6443 43.6666 24.5923 44.0031 24.8646L44.0566 24.9079V22.1543H25.7844V24.9079L25.8381 24.8646C26.1745 24.5923 26.6687 24.6443 26.9411 24.9808C27.2135 25.3173 27.1614 25.8115 26.8249 26.0838L25.4935 27.1615C25.3539 27.2745 25.1797 27.3361 25.0001 27.3361C24.8205 27.3361 24.6463 27.2745 24.5067 27.1615L23.1753 26.0838C22.8388 25.8115 22.7868 25.3173 23.0591 24.9808C23.3315 24.6443 23.8257 24.5923 24.1622 24.8646L24.2158 24.9079V22.1543ZM33.7475 16.9323H16.2528C13.841 16.9323 11.8683 14.9594 11.8683 12.5493C11.8683 10.7207 13.0035 9.1449 14.6026 8.48892C14.5951 8.35461 14.5914 8.22011 14.5917 8.08559C14.5917 4.21598 17.7277 1.07843 21.5974 1.07843C23.4895 1.07843 25.208 1.82912 26.4688 3.0497C27.1537 2.80472 27.8756 2.67984 28.603 2.68059C31.8646 2.68059 34.5478 5.14814 34.8905 8.31823C36.7935 8.83471 38.132 10.5749 38.132 12.5493C38.132 14.9594 36.1592 16.9323 33.7475 16.9323ZM8.35766 29.013C8.48766 29.013 8.61237 29.0647 8.70433 29.1566C8.79622 29.2485 8.84784 29.3732 8.84786 29.5032V35.9C8.84784 36.03 8.79622 36.1547 8.70433 36.2467C8.61236 36.3386 8.48767 36.3902 8.35766 36.3902H1.9609C1.83089 36.3902 1.70621 36.3386 1.61423 36.2467C1.52235 36.1547 1.47072 36.03 1.4707 35.9V29.5032C1.4707 29.3732 1.52237 29.2485 1.61423 29.1566C1.70621 29.0647 1.83089 29.0131 1.9609 29.013H8.35766ZM28.1985 29.013C28.3285 29.0131 28.4532 29.0648 28.5451 29.1567C28.637 29.2486 28.6887 29.3732 28.6887 29.5032V35.9C28.6887 36.03 28.6371 36.1547 28.5451 36.2466C28.4532 36.3385 28.3285 36.3902 28.1985 36.3902H21.8017C21.6717 36.3901 21.547 36.3385 21.4551 36.2466C21.3632 36.1546 21.3115 36.03 21.3115 35.9V29.5032C21.3115 29.3732 21.3632 29.2486 21.4551 29.1566C21.547 29.0647 21.6717 29.0131 21.8017 29.013H28.1985ZM48.0393 29.013C48.1693 29.013 48.294 29.0647 48.386 29.1566C48.4779 29.2485 48.5295 29.3732 48.5295 29.5032V35.9C48.5295 36.03 48.4779 36.1547 48.386 36.2467C48.294 36.3386 48.1693 36.3902 48.0393 36.3902H41.6426C41.5126 36.3902 41.3879 36.3386 41.2959 36.2467C41.204 36.1547 41.1524 36.03 41.1524 35.9V29.5032C41.1524 29.3732 41.204 29.2485 41.2959 29.1566C41.3879 29.0647 41.5126 29.0131 41.6426 29.013H48.0393Z" fill="#FF845E"></path>
</svg>
