<svg xmlns="http://www.w3.org/2000/svg" width="36" height="36" viewBox="0 0 36 36" fill="none"><path d="M21.1526 18.6895V19.8336C21.1526 20.26 20.8056 20.607 20.3792 20.607H15.6208C15.1944 20.607 14.8474 20.26 14.8474 19.8336V18.6895C14.8474 18.263 15.1944 17.916 15.6208 17.916H16.3029V14.3361H15.9761C15.5497 14.3361 15.2027 13.9892 15.2027 13.5627V12.4186C15.2027 11.9921 15.5497 11.6451 15.9761 11.6451H18.9236C19.3501 11.6451 19.6971 11.9921 19.6971 12.4186V17.9161H20.3792C20.8056 17.916 21.1526 18.263 21.1526 18.6895ZM27.394 21.8204C27.7381 22.1646 27.7381 22.7246 27.394 23.0687L26.5452 23.9176C26.4633 23.9996 26.366 24.0646 26.2588 24.1089C26.1517 24.1532 26.0369 24.1759 25.921 24.1757C25.6949 24.1757 25.4689 24.0896 25.2968 23.9176L23.4 22.0208L23.1618 22.2591C22.9427 22.4785 22.6235 22.5526 22.3292 22.4522C22.1602 22.3947 22.0153 22.2822 21.9177 22.1327C20.7029 22.7463 19.3609 23.0657 17.9999 23.0651C13.2057 23.0651 9.3053 19.1646 9.3053 14.3704C9.3053 9.57613 13.2057 5.67576 17.9999 5.67576C22.7941 5.67576 26.6946 9.5762 26.6946 14.3704C26.6946 15.8149 26.3389 17.2206 25.6627 18.4793C25.7858 18.5753 25.8782 18.7051 25.9284 18.8528C26.0288 19.1471 25.9548 19.4663 25.7352 19.6857L25.4971 19.9238L27.394 21.8204ZM24.519 18.2184C25.2068 17.0557 25.5696 15.733 25.5696 14.3703C25.5696 10.1964 22.1739 6.80069 18 6.80069C13.8261 6.80069 10.4304 10.1964 10.4304 14.3703C10.4304 18.5443 13.8261 21.94 18 21.94C19.2971 21.94 20.5639 21.6091 21.687 20.9819L21.4123 18.8388C21.3962 18.7165 21.4085 18.5921 21.4484 18.4754C21.4882 18.3586 21.5545 18.2526 21.642 18.1656C21.7289 18.0781 21.8349 18.0118 21.9517 17.9719C22.0685 17.9321 22.1929 17.9197 22.3152 17.9359L24.519 18.2184ZM32.4375 10.1122H29.0882C28.623 10.1122 28.2445 10.4907 28.2445 10.9559V12.9429C28.2445 13.4082 28.623 13.7867 29.0882 13.7867H32.4375C32.9027 13.7867 33.2812 13.4082 33.2812 12.9429V10.9559C33.2812 10.4906 32.9027 10.1122 32.4375 10.1122ZM32.4375 14.9541H29.0882C28.623 14.9541 28.2445 15.3326 28.2445 15.7979V17.7848C28.2445 18.2501 28.623 18.6286 29.0882 18.6286H32.4375C32.9027 18.6286 33.2812 18.2501 33.2812 17.7848V15.7979C33.2812 15.3326 32.9027 14.9541 32.4375 14.9541ZM32.4375 5.27012H29.0882C28.623 5.27012 28.2445 5.64862 28.2445 6.11387V8.10083C28.2445 8.56609 28.623 8.94458 29.0882 8.94458H32.4375C32.9027 8.94458 33.2812 8.56609 33.2812 8.10083V6.11387C33.2812 5.64869 32.9027 5.27012 32.4375 5.27012ZM32.4375 19.7961H29.0882C28.623 19.7961 28.2445 20.1746 28.2445 20.6399V22.6268C28.2445 23.0921 28.623 23.4706 29.0882 23.4706H32.4375C32.9027 23.4706 33.2812 23.0921 33.2812 22.6268V20.6399C33.2812 20.1746 32.9027 19.7961 32.4375 19.7961ZM6.91179 14.9541H3.56252C3.09727 14.9541 2.71877 15.3326 2.71877 15.7979V17.7848C2.71877 18.2501 3.09727 18.6286 3.56252 18.6286H6.91179C7.37705 18.6286 7.75554 18.2501 7.75554 17.7848V15.7979C7.75554 15.3326 7.37705 14.9541 6.91179 14.9541ZM18 11.4924C18.926 11.4924 19.6793 10.739 19.6793 9.81301C19.6793 8.887 18.926 8.1336 18 8.1336C17.074 8.1336 16.3207 8.88693 16.3207 9.81294C16.3207 10.739 17.074 11.4924 18 11.4924ZM35.9297 4.97425V26.8028C35.9297 28.1128 34.8639 29.1786 33.5539 29.1786H25.5238L27.245 32.1322C27.3992 32.397 27.4012 32.7118 27.2502 32.9745C27.0988 33.238 26.8173 33.4017 26.5155 33.4017H9.48445C9.18274 33.4017 8.90121 33.238 8.74983 32.9745C8.59887 32.7119 8.60077 32.397 8.75496 32.1322L10.4762 29.1785H2.44617C1.13611 29.1786 0.0703125 28.1128 0.0703125 26.8028V4.97425C0.0703125 3.66419 1.13611 2.59839 2.44617 2.59839H33.5539C34.8639 2.59839 35.9297 3.66419 35.9297 4.97425ZM24.2217 29.1786H11.7784L9.97291 32.2767H26.0272L24.2217 29.1786ZM34.8047 4.97425C34.8047 4.28455 34.2436 3.72339 33.5539 3.72339H2.44617C1.75641 3.72339 1.19531 4.28448 1.19531 4.97425V25.0174H34.8047V4.97425ZM6.91179 19.7961H3.56252C3.09727 19.7961 2.71877 20.1746 2.71877 20.6399V22.6268C2.71877 23.0921 3.09727 23.4706 3.56252 23.4706H6.91179C7.37705 23.4706 7.75554 23.0921 7.75554 22.6268V20.6399C7.75554 20.1746 7.37705 19.7961 6.91179 19.7961ZM6.91179 10.1122H3.56252C3.09727 10.1122 2.71877 10.4907 2.71877 10.9559V12.9429C2.71877 13.4082 3.09727 13.7867 3.56252 13.7867H6.91179C7.37705 13.7867 7.75554 13.4082 7.75554 12.9429V10.9559C7.75554 10.4906 7.37705 10.1122 6.91179 10.1122ZM6.91179 5.27012H3.56252C3.09727 5.27012 2.71877 5.64862 2.71877 6.11387V8.10083C2.71877 8.56609 3.09727 8.94458 3.56252 8.94458H6.91179C7.37705 8.94458 7.75554 8.56609 7.75554 8.10083V6.11387C7.75554 5.64869 7.37705 5.27012 6.91179 5.27012Z" fill="#FF845E"></path></svg>