<?xml version="1.0" encoding="UTF-8"?>
<svg xmlns="http://www.w3.org/2000/svg" width="48" height="48" viewBox="0 0 48 48" fill="none">
  <path fill-rule="evenodd" clip-rule="evenodd" d="M11.5545 9.88529C12.8414 11.009 13.6565 12.6605 13.6565 14.4969C13.6565 17.8697 10.9069 20.6192 7.5341 20.6192C4.1613 20.6192 1.41174 17.8697 1.41174 14.4969C1.41174 11.1241 4.1613 8.37451 7.5341 8.37451C8.4866 8.37351 9.42602 8.59634 10.2766 9.02505C16.1612 3.27531 24.6149 1.72105 31.8889 4.36133L31.2608 3.47051C31.1458 3.30729 31.1003 3.10508 31.1343 2.90833C31.1683 2.71158 31.2791 2.53639 31.4422 2.42129C31.6055 2.30629 31.8077 2.26081 32.0044 2.29483C32.2012 2.32886 32.3763 2.43961 32.4915 2.60274L34.6807 5.7075C34.7519 5.80838 34.7971 5.9252 34.8125 6.04768C34.8278 6.17016 34.8128 6.29454 34.7688 6.40986C34.7248 6.52519 34.6531 6.62792 34.5601 6.70902C34.467 6.79012 34.3554 6.8471 34.2352 6.87493L30.8864 7.65009C30.4815 7.74373 30.0767 7.49112 29.983 7.08623C29.9381 6.89169 29.9722 6.68727 30.0779 6.5179C30.1837 6.34852 30.3523 6.22806 30.5468 6.18298L31.7291 5.90929C24.9959 3.31361 17.0986 4.63879 11.5545 9.88529ZM4.30614 14.4407C4.30558 14.4781 4.30558 14.5156 4.30614 14.5531H4.12873C3.7132 14.5531 3.37579 14.8905 3.37579 15.306C3.37579 15.7216 3.7132 16.0589 4.12873 16.0589H4.59066C5.16883 17.5746 6.56233 18.6321 8.16685 18.6321C9.17956 18.6321 10.1006 18.2168 10.7941 17.5305C10.936 17.3899 11.0163 17.1989 11.0173 16.9992C11.0184 16.7995 10.9401 16.6076 10.7997 16.4656C10.6592 16.3238 10.4681 16.2435 10.2684 16.2425C10.0688 16.2414 9.87685 16.3197 9.73485 16.4601C9.32017 16.8705 8.7725 17.1262 8.16685 17.1262C7.38229 17.1262 6.69767 16.7035 6.2717 16.0589H8.5197C8.93523 16.0589 9.27264 15.7216 9.27264 15.306C9.27264 14.8905 8.93523 14.5531 8.5197 14.5531H5.81212C5.81155 14.5156 5.81155 14.4781 5.81212 14.4407H8.5197C8.93523 14.4407 9.27264 14.1033 9.27264 13.6877C9.27264 13.2721 8.93523 12.9348 8.5197 12.9348H6.2717C6.69767 12.2902 7.38229 11.8675 8.16685 11.8675C8.7725 11.8675 9.32017 12.1232 9.73485 12.5337C9.87685 12.674 10.0688 12.7523 10.2684 12.7512C10.4681 12.7502 10.6592 12.6699 10.7997 12.5281C10.9401 12.3861 11.0184 12.1942 11.0173 11.9945C11.0163 11.7949 10.936 11.6038 10.7941 11.4633C10.1006 10.777 9.17956 10.3616 8.16685 10.3616C6.56233 10.3616 5.16883 11.4191 4.59066 12.9348H4.12873C3.7132 12.9348 3.37579 13.2721 3.37579 13.6877C3.37579 14.1033 3.7132 14.4407 4.12873 14.4407H4.30614ZM19.7198 43.9642C19.6173 43.9797 19.5127 43.9738 19.4126 43.9468C11.3652 41.7905 5.69438 35.1923 4.33052 27.4969L3.87301 28.4863C3.69861 28.8635 3.2508 29.0282 2.87367 28.8538C2.69248 28.7699 2.552 28.6175 2.48309 28.4301C2.41417 28.2427 2.42247 28.0356 2.50614 27.8543L4.1004 24.4059C4.15223 24.2939 4.23081 24.1964 4.3292 24.1218C4.4276 24.0473 4.5428 23.9981 4.66468 23.9786C4.78656 23.959 4.91137 23.9697 5.02813 24.0098C5.14489 24.0498 5.25003 24.1179 5.33428 24.2081L7.67988 26.7207C7.81606 26.8667 7.88869 27.0608 7.88182 27.2603C7.87496 27.4599 7.78916 27.6485 7.64327 27.7849C7.49726 27.921 7.30316 27.9937 7.10362 27.9868C6.90408 27.98 6.71541 27.8942 6.57908 27.7483L5.75094 26.8612C6.82398 33.6995 11.557 39.6616 18.3979 42.0588C18.0547 41.2828 17.8778 40.4435 17.8787 39.595C17.8787 36.2236 20.6286 33.4737 24 33.4737C27.3714 33.4737 30.1213 36.2236 30.1213 39.595C30.1213 42.9664 27.3714 45.7163 24 45.7163C22.3368 45.7163 20.8249 45.0471 19.7198 43.9642ZM23.247 35.938C23.1495 35.9645 23.0541 35.9962 22.9612 36.0327C22.074 36.3818 21.4387 37.1504 21.4896 38.1914C21.5533 39.5393 22.7482 40.1306 23.8851 40.3157C24.1583 40.3607 24.4517 40.4241 24.7099 40.5414C24.9518 40.6513 25.1682 40.8123 25.205 41.118L25.2051 41.1188C25.239 41.3996 25.0531 41.5682 24.8366 41.6743C24.6002 41.7901 24.3201 41.844 24.0628 41.8498H24.0611C23.5007 41.8636 22.9105 41.6341 22.7679 41.061C22.7196 40.8673 22.5963 40.7007 22.4252 40.5978C22.2541 40.4949 22.0492 40.4642 21.8554 40.5123C21.6617 40.5606 21.495 40.6838 21.3921 40.8549C21.2892 41.026 21.2584 41.231 21.3066 41.4248C21.5525 42.4129 22.3297 43.0419 23.247 43.2651V43.4694C23.247 43.8849 23.5845 44.2223 24 44.2223C24.4155 44.2223 24.7529 43.8849 24.7529 43.4694V43.2763C25.8536 43.0349 26.8585 42.2471 26.7 40.938C26.5348 39.5647 25.2837 39.0198 24.1285 38.8296L24.1271 38.8294C23.8767 38.7886 23.6108 38.7272 23.3813 38.6151C23.1823 38.5179 23.006 38.3778 22.9938 38.1202L22.9937 38.1183C22.9767 37.7761 23.2209 37.5487 23.5125 37.434C24.0592 37.2189 24.8238 37.3484 25.109 38.0279C25.1863 38.2119 25.3336 38.3578 25.5184 38.4334C25.7032 38.5089 25.9104 38.508 26.0946 38.4309C26.2787 38.3536 26.4245 38.2063 26.5001 38.0214C26.5756 37.8366 26.5747 37.6293 26.4975 37.4452C26.1473 36.6105 25.4831 36.1214 24.7529 35.93V35.7227C24.7529 35.3071 24.4155 34.9698 24 34.9698C23.5845 34.9698 23.247 35.3071 23.247 35.7227V35.938ZM44.9225 18.7847C46.9408 26.7435 44.0597 34.8239 38.1457 39.7954L39.2311 39.6968C39.6451 39.6592 40.0116 39.9647 40.0491 40.3786C40.0867 40.7924 39.7812 41.1589 39.3673 41.1965L35.5839 41.5401C35.461 41.5512 35.3372 41.532 35.2234 41.484C35.1097 41.4361 35.0094 41.3609 34.9316 41.2652C34.8537 41.1694 34.8006 41.0559 34.7769 40.9348C34.7532 40.8136 34.7596 40.6885 34.7957 40.5705L35.7988 37.2828C35.8571 37.0919 35.9889 36.9319 36.1652 36.8381C36.3414 36.7442 36.5477 36.7242 36.7387 36.7824C37.1362 36.9036 37.3604 37.3248 37.2391 37.7223L36.8849 38.8831C42.6034 34.2658 45.4033 26.569 43.4258 19.0108H42.6782C42.572 19.0108 42.4696 18.9941 42.3735 18.963C39.9804 19.3754 38.5259 19.6876 37.133 18.6856C37.1766 18.5527 37.2014 18.3968 37.2028 18.2148C37.206 17.8049 37.2057 15.5199 37.2017 11.3611C37.2016 11.2355 37.1859 11.1105 37.1549 10.9889C38.2636 10.207 39.4298 9.41253 39.4298 7.90806V5.81112C40.8128 5.81112 41.9449 6.94326 41.9449 8.32623V9.95267C41.905 10.2418 41.7445 10.6423 41.4433 11.016H45.1679C45.7175 11.016 46.167 11.4656 46.167 12.0152C46.167 12.5648 45.7175 13.0143 45.1679 13.0143H45.5891C46.1387 13.0143 46.5882 13.4639 46.5882 14.0135C46.5882 14.5631 46.1387 15.0127 45.5891 15.0127H44.8871C45.4367 15.0127 45.8863 15.4622 45.8863 16.0119C45.8863 16.5629 45.4367 17.0125 44.8871 17.0125H44.2912C44.8408 17.0125 45.2903 17.462 45.2903 18.0117C45.2903 18.3224 45.1467 18.6011 44.9225 18.7847ZM35.2256 11.3626C35.3503 11.3625 35.47 11.412 35.5582 11.5002C35.6464 11.5884 35.6961 11.7079 35.6962 11.8327C35.7002 16.131 35.7001 18.2772 35.6958 18.27H33.1001C32.9753 18.27 32.8556 18.2205 32.7674 18.1322C32.6791 18.044 32.6295 17.9243 32.6295 17.7995V11.8331C32.6295 11.7083 32.6791 11.5886 32.7674 11.5004C32.8556 11.4121 32.9753 11.3626 33.1001 11.3626H35.2256ZM17.4733 17.6171L17.0005 15.7917H16.0485C15.8488 15.7916 15.6574 15.7123 15.5162 15.5711C15.375 15.4299 15.2957 15.2384 15.2956 15.0388C15.2956 14.6233 15.6329 14.2859 16.0485 14.2859H17.5833C17.7502 14.2858 17.9123 14.3413 18.0442 14.4434C18.1762 14.5455 18.2704 14.6886 18.3123 14.8501L18.785 16.6755H30.8355C30.9495 16.6755 31.062 16.7013 31.1646 16.7512C31.2671 16.801 31.357 16.8734 31.4275 16.9631C31.4979 17.0527 31.5471 17.1572 31.5713 17.2686C31.5955 17.38 31.5941 17.4954 31.5671 17.6062L30.21 23.1911C29.9431 24.2891 28.9842 25.0418 27.8453 25.0418H19.9788L19.9669 25.0417H19.7856C19.5644 25.0417 19.3804 25.218 19.3804 25.4373C19.3804 25.6619 19.6074 25.8098 19.8339 25.8098H29.7477C30.1634 25.8098 30.5007 26.1472 30.5007 26.5627C30.5006 26.7145 30.4547 26.8627 30.3691 26.988C30.2834 27.1132 30.1618 27.2096 30.0204 27.2647C30.2601 27.6097 30.3884 28.02 30.3878 28.4401C30.3878 29.5825 29.457 30.512 28.305 30.512C27.153 30.512 26.2221 29.5825 26.2221 28.4401C26.2221 28.0259 26.3445 27.6397 26.5553 27.3157H22.2513C22.4692 27.6502 22.5849 28.0409 22.5844 28.4401C22.5844 29.5825 21.6536 30.512 20.5015 30.512C19.3495 30.512 18.4188 29.5825 18.4188 28.4401C18.4183 27.945 18.5963 27.4663 18.9201 27.0918C18.3077 26.7749 17.8745 26.1535 17.8745 25.4373C17.8745 24.6536 18.3582 23.975 19.0448 23.6854L18.6311 22.088L17.4733 17.6171ZM28.305 27.8741C27.988 27.8741 27.728 28.1258 27.728 28.4401C27.728 28.7544 27.988 29.0061 28.305 29.0061C28.6219 29.0061 28.882 28.7544 28.882 28.4401C28.882 28.1258 28.6219 27.8741 28.305 27.8741ZM20.5015 27.8741C20.1846 27.8741 19.9247 28.1258 19.9247 28.4401C19.9247 28.7544 20.1846 29.0061 20.5015 29.0061C20.8185 29.0061 21.0785 28.7544 21.0785 28.4401C21.0785 28.1258 20.8185 27.8741 20.5015 27.8741Z" fill="#FF845E"></path>
</svg>
