<svg xmlns="http://www.w3.org/2000/svg" width="32" height="32" viewBox="0 0 32 32" fill="none"><path d="M17.982 30H14.018C13.7528 30 13.4984 29.8946 13.3109 29.7071C13.1234 29.5196 13.018 29.2652 13.018 29V28.317C12.6847 28.1575 12.3646 27.9716 12.061 27.761L11.485 28.096C11.3711 28.1625 11.2452 28.2058 11.1145 28.2233C10.9838 28.2409 10.8509 28.2323 10.7235 28.1982C10.5961 28.1641 10.4767 28.105 10.3723 28.0245C10.2678 27.944 10.1804 27.8435 10.115 27.729L8.13201 24.265C8.00114 24.0361 7.96596 23.7648 8.03413 23.5101C8.1023 23.2554 8.2683 23.0379 8.49601 22.905L9.07701 22.565C9.0439 22.1891 9.0439 21.8109 9.07701 21.435L8.49601 21.095C8.2683 20.9621 8.1023 20.7446 8.03413 20.4899C7.96596 20.2352 8.00114 19.9639 8.13201 19.735L10.114 16.271C10.1796 16.1565 10.2672 16.0562 10.3717 15.9757C10.4762 15.8952 10.5957 15.8362 10.7231 15.8021C10.8506 15.768 10.9835 15.7594 11.1142 15.7769C11.245 15.7944 11.371 15.8376 11.485 15.904L12.06 16.239C12.364 16.029 12.683 15.843 13.017 15.683V15C13.017 14.7348 13.1224 14.4804 13.3099 14.2929C13.4974 14.1054 13.7518 14 14.017 14H17.982C18.2472 14 18.5016 14.1054 18.6891 14.2929C18.8767 14.4804 18.982 14.7348 18.982 15V15.683C19.316 15.843 19.635 16.028 19.939 16.239L20.514 15.904C20.628 15.8372 20.7541 15.7936 20.885 15.7759C21.0159 15.7582 21.1491 15.7667 21.2767 15.8008C21.4043 15.835 21.5239 15.8941 21.6285 15.9748C21.7331 16.0555 21.8206 16.1562 21.886 16.271L23.868 19.735C23.9989 19.9639 24.0341 20.2352 23.9659 20.4899C23.8977 20.7446 23.7317 20.9621 23.504 21.095L22.922 21.435C22.9555 21.8109 22.9555 22.1891 22.922 22.565L23.504 22.905C23.7317 23.0379 23.8977 23.2554 23.9659 23.5101C24.0341 23.7648 23.9989 24.0361 23.868 24.265L21.886 27.729C21.8204 27.8435 21.7328 27.9438 21.6283 28.0243C21.5238 28.1048 21.4043 28.1638 21.2769 28.1979C21.1495 28.232 21.0165 28.2406 20.8858 28.2231C20.755 28.2056 20.629 28.1624 20.515 28.096L19.94 27.761C19.636 27.971 19.317 28.157 18.983 28.317V29C18.983 29.2652 18.8777 29.5196 18.6901 29.7071C18.5026 29.8946 18.2472 30 17.982 30ZM15.018 28H16.982V27.651C16.982 27.4447 17.0458 27.2434 17.1647 27.0747C17.2835 26.9061 17.4517 26.7783 17.646 26.709C18.2185 26.5058 18.7481 26.1979 19.208 25.801C19.532 25.523 19.996 25.481 20.364 25.694L20.65 25.861L21.64 24.132L21.34 23.958C21.1628 23.8545 21.0218 23.699 20.9359 23.5126C20.8501 23.3262 20.8236 23.1179 20.86 22.916C20.919 22.591 20.947 22.292 20.947 22C20.947 21.708 20.919 21.409 20.859 21.085C20.8223 20.8829 20.8487 20.6744 20.9346 20.4878C21.0205 20.3013 21.1617 20.1456 21.339 20.042L21.639 19.868L20.65 18.139L20.364 18.306C19.995 18.52 19.531 18.477 19.208 18.199C18.7481 17.8022 18.2184 17.4943 17.646 17.291C17.4517 17.2217 17.2835 17.0939 17.1647 16.9253C17.0458 16.7566 16.982 16.5553 16.982 16.349V16H15.018V16.349C15.0178 16.5553 14.9537 16.7564 14.8347 16.9249C14.7156 17.0934 14.5474 17.2209 14.353 17.29C13.7808 17.4936 13.2515 17.8019 12.792 18.199C12.6344 18.3349 12.4383 18.4182 12.2311 18.4374C12.0239 18.4566 11.8159 18.4107 11.636 18.306L11.35 18.139L10.36 19.868L10.66 20.042C11.023 20.253 11.215 20.67 11.14 21.084C11.081 21.409 11.053 21.708 11.053 22C11.053 22.292 11.081 22.591 11.141 22.915C11.215 23.33 11.023 23.747 10.661 23.958L10.361 24.132L11.35 25.861L11.636 25.694C11.8159 25.5893 12.0239 25.5434 12.2311 25.5626C12.4383 25.5818 12.6344 25.6651 12.792 25.801C13.252 26.198 13.777 26.504 14.353 26.709C14.5475 26.7782 14.7159 26.9058 14.835 27.0745C14.954 27.2432 15.018 27.4445 15.018 27.651V28Z" fill="#FF845E"></path><path d="M16.063 25C14.408 25 13.063 23.654 13.063 22C13.063 20.346 14.408 19 16.063 19C17.718 19 19.063 20.346 19.063 22C19.063 23.654 17.717 25 16.063 25ZM16.063 21C15.7978 21 15.5434 21.1054 15.3559 21.2929C15.1683 21.4804 15.063 21.7348 15.063 22C15.063 22.2652 15.1683 22.5196 15.3559 22.7071C15.5434 22.8946 15.7978 23 16.063 23C16.3282 23 16.5826 22.8946 16.7701 22.7071C16.9576 22.5196 17.063 22.2652 17.063 22C17.063 21.7348 16.9576 21.4804 16.7701 21.2929C16.5826 21.1054 16.3282 21 16.063 21ZM16 10C14.897 10 14 9.103 14 8V4C14 2.897 14.897 2 16 2C17.103 2 18 2.897 18 4V8C18 9.103 17.103 10 16 10Z" fill="#FF845E"></path><path d="M16 13C13.243 13 11 10.757 11 8V7C11 6.73478 11.1054 6.48043 11.2929 6.29289C11.4804 6.10536 11.7348 6 12 6C12.2652 6 12.5196 6.10536 12.7071 6.29289C12.8946 6.48043 13 6.73478 13 7V8C13 9.654 14.346 11 16 11C17.654 11 19 9.654 19 8V7C19 6.73478 19.1054 6.48043 19.2929 6.29289C19.4804 6.10536 19.7348 6 20 6C20.2652 6 20.5196 6.10536 20.7071 6.29289C20.8946 6.48043 21 6.73478 21 7V8C21 10.757 18.757 13 16 13Z" fill="#FF845E"></path><path d="M16 15C15.7348 15 15.4804 14.8946 15.2929 14.7071C15.1054 14.5196 15 14.2652 15 14V13C15 12.7348 15.1054 12.4804 15.2929 12.2929C15.4804 12.1054 15.7348 12 16 12C16.2652 12 16.5196 12.1054 16.7071 12.2929C16.8946 12.4804 17 12.7348 17 13V14C17 14.2652 16.8946 14.5196 16.7071 14.7071C16.5196 14.8946 16.2652 15 16 15ZM3 9C2.73478 9 2.48043 8.89464 2.29289 8.70711C2.10536 8.51957 2 8.26522 2 8V6C2 5.73478 2.10536 5.48043 2.29289 5.29289C2.48043 5.10536 2.73478 5 3 5C3.26522 5 3.51957 5.10536 3.70711 5.29289C3.89464 5.48043 4 5.73478 4 6V8C4 8.26522 3.89464 8.51957 3.70711 8.70711C3.51957 8.89464 3.26522 9 3 9ZM6 12C5.73478 12 5.48043 11.8946 5.29289 11.7071C5.10536 11.5196 5 11.2652 5 11V3C5 2.73478 5.10536 2.48043 5.29289 2.29289C5.48043 2.10536 5.73478 2 6 2C6.26522 2 6.51957 2.10536 6.70711 2.29289C6.89464 2.48043 7 2.73478 7 3V11C7 11.2652 6.89464 11.5196 6.70711 11.7071C6.51957 11.8946 6.26522 12 6 12ZM9 10C8.73478 10 8.48043 9.89464 8.29289 9.70711C8.10536 9.51957 8 9.26522 8 9V5C8 4.73478 8.10536 4.48043 8.29289 4.29289C8.48043 4.10536 8.73478 4 9 4C9.26522 4 9.51957 4.10536 9.70711 4.29289C9.89464 4.48043 10 4.73478 10 5V9C10 9.26522 9.89464 9.51957 9.70711 9.70711C9.51957 9.89464 9.26522 10 9 10ZM23 10C22.7348 10 22.4804 9.89464 22.2929 9.70711C22.1054 9.51957 22 9.26522 22 9V5C22 4.73478 22.1054 4.48043 22.2929 4.29289C22.4804 4.10536 22.7348 4 23 4C23.2652 4 23.5196 4.10536 23.7071 4.29289C23.8946 4.48043 24 4.73478 24 5V9C24 9.26522 23.8946 9.51957 23.7071 9.70711C23.5196 9.89464 23.2652 10 23 10ZM26 12C25.7348 12 25.4804 11.8946 25.2929 11.7071C25.1054 11.5196 25 11.2652 25 11V3C25 2.73478 25.1054 2.48043 25.2929 2.29289C25.4804 2.10536 25.7348 2 26 2C26.2652 2 26.5196 2.10536 26.7071 2.29289C26.8946 2.48043 27 2.73478 27 3V11C27 11.2652 26.8946 11.5196 26.7071 11.7071C26.5196 11.8946 26.2652 12 26 12ZM29 9C28.7348 9 28.4804 8.89464 28.2929 8.70711C28.1054 8.51957 28 8.26522 28 8V6C28 5.73478 28.1054 5.48043 28.2929 5.29289C28.4804 5.10536 28.7348 5 29 5C29.2652 5 29.5196 5.10536 29.7071 5.29289C29.8946 5.48043 30 5.73478 30 6V8C30 8.26522 29.8946 8.51957 29.7071 8.70711C29.5196 8.89464 29.2652 9 29 9Z" fill="#FF845E"></path></svg>