<svg xmlns="http://www.w3.org/2000/svg" width="32" height="32" viewBox="0 0 32 32" fill="none"><g clip-path="url(#clip0_2424_2064)"><path d="M19.886 16.1286H17.6329C17.4939 16.1301 17.3612 16.1864 17.2634 16.2852C17.1657 16.384 17.1108 16.5174 17.1108 16.6564C17.1108 16.7954 17.1657 16.9288 17.2634 17.0276C17.3612 17.1264 17.4939 17.1827 17.6329 17.1842H20.1391C19.9757 16.8561 19.8892 16.4951 19.886 16.1286ZM31.7492 8.49873C31.7492 7.37661 30.8987 6.4668 29.8494 6.4668H26.4614C25.4122 6.4668 24.5616 7.37648 24.5616 8.49873V12.6209L25.0642 12.4276L26.9567 8.74311L25.9223 13.3832L21.8868 14.9354C21.241 15.1838 20.9215 15.9075 21.1688 16.5507C21.4138 17.1878 22.1343 17.5187 22.7842 17.2687L27.4453 15.4759C27.6376 15.4019 27.8087 15.2815 27.9433 15.1254C28.0778 14.9693 28.1717 14.7824 28.2166 14.5812L29.3588 9.45736L29.4165 14.5677C29.4226 15.1069 28.9843 16.1696 27.876 16.5959L24.5231 17.8855V30.3568C24.5231 31.2313 25.232 31.9402 26.1065 31.9402C26.981 31.9402 27.6898 31.2313 27.6898 30.3568V18.9237H28.5912V30.3568C28.5912 31.2313 29.3001 31.9402 30.1745 31.9402C31.049 31.9402 31.7579 31.2313 31.7579 30.3568C31.7582 16.4972 31.7492 8.53998 31.7492 8.49873Z" fill="#FF845E"></path><path d="M28.1406 5.62437C29.6937 5.62437 30.9527 4.36532 30.9527 2.81219C30.9527 1.25906 29.6937 0 28.1406 0C26.5874 0 25.3284 1.25906 25.3284 2.81219C25.3284 4.36532 26.5874 5.62437 28.1406 5.62437Z" fill="#FF845E"></path><path d="M9.95263 10.6807C11.5073 10.6807 12.7676 9.42037 12.7676 7.86572C12.7676 6.31107 11.5073 5.05078 9.95263 5.05078C8.39799 5.05078 7.1377 6.31107 7.1377 7.86572C7.1377 9.42037 8.39799 10.6807 9.95263 10.6807Z" fill="#FF845E"></path><path d="M20.0341 18.0352H13.426L15.5543 17.3507C16.2247 17.1351 16.5935 16.4167 16.3778 15.7462C16.1622 15.0758 15.4439 14.7071 14.7733 14.9226L14.4865 15.0149L13.1416 12.7901C12.9908 12.5408 12.6663 12.4606 12.4169 12.6115C12.3576 12.6474 12.3059 12.6946 12.2648 12.7504C12.2237 12.8062 12.194 12.8696 12.1775 12.9369C12.1609 13.0042 12.1577 13.0741 12.1681 13.1426C12.1786 13.2111 12.2024 13.2769 12.2383 13.3363L13.4538 15.347L11.3601 16.0204L11.3946 13.8258C11.4132 12.6396 10.4605 11.6652 9.27459 11.6567L7.31015 11.6426C6.12265 11.6341 5.15615 12.5971 5.15934 13.784L5.17915 21.0269C5.18184 22.0149 5.86352 22.8787 6.8374 23.1021H4.15352L2.33352 13.8435C2.22109 13.2714 1.66615 12.8988 1.09415 13.0113C0.522087 13.1238 0.149525 13.6786 0.261962 14.2507L2.2494 24.3613C2.34446 24.8448 2.76096 25.1956 3.25034 25.2118L1.22102 30.4735C1.08121 30.8361 1.26171 31.2434 1.6244 31.3833C1.9869 31.5232 2.39434 31.3426 2.53415 30.9799L4.75815 25.2133H9.20115L10.4728 28.5104L9.92059 29.9063C9.60959 30.6921 9.99459 31.5813 10.7805 31.8923C11.5665 32.2033 12.4556 31.8181 12.7665 31.0324L16.2403 22.2539C16.6372 21.2508 15.8971 20.1605 14.8174 20.1605H14.813L9.68634 20.1754C8.79909 20.178 8.04702 19.5206 7.93371 18.6406C7.93359 18.6398 7.93352 18.6389 7.93334 18.6381L7.54527 15.512L8.7859 18.3269C9.04927 18.9246 9.72152 19.2266 10.3433 19.0266L12.0353 18.4824C12.0031 18.5641 11.9865 18.6511 11.9864 18.7389C11.9864 19.1279 12.3021 19.4426 12.6901 19.4426H20.0342C20.4227 19.4426 20.7378 19.1276 20.7378 18.7389C20.7378 18.3503 20.4228 18.0352 20.0341 18.0352ZM11.1811 23.2316L12.5635 23.2276L11.2369 26.5799L10.7091 25.2115C11.2759 25.1931 11.73 24.7289 11.73 24.1576C11.73 23.7583 11.5081 23.411 11.1811 23.2316ZM10.6562 16.2469L9.63396 13.9274L11.2583 16.0532L10.6562 16.2469Z" fill="#FF845E"></path></g><defs><clipPath id="clip0_2424_2064"><rect width="32" height="32" fill="white"></rect></clipPath></defs></svg>