<?xml version="1.0" encoding="UTF-8"?>
<svg xmlns="http://www.w3.org/2000/svg" width="50" height="50" viewBox="0 0 50 50" fill="none">
  <g clip-path="url(#clip0_2660_1145)">
    <path d="M44.627 32.4717C46.4629 27.6338 46.4648 22.3271 44.6309 17.5283C44.4766 17.126 44.6787 16.6748 45.0811 16.5205C45.4834 16.3662 45.9346 16.5684 46.0889 16.9707C48.0596 22.1279 48.0596 27.8301 46.0869 33.0254C46.0307 33.1734 45.9309 33.3009 45.8006 33.3909C45.6703 33.4809 45.5158 33.5291 45.3574 33.5293C45.2656 33.5293 45.1719 33.5127 45.0801 33.4785C44.8866 33.405 44.7301 33.2577 44.6452 33.0689C44.5602 32.8801 44.5536 32.6653 44.627 32.4717ZM17.5293 5.37012C22.332 3.53418 27.6387 3.53613 32.4727 5.37305C32.5645 5.4082 32.6582 5.42383 32.75 5.42383C33.0645 5.42383 33.3613 5.23242 33.4795 4.91992C33.6328 4.5166 33.4307 4.06641 33.0273 3.91309C27.835 1.93945 22.1328 1.93848 16.9717 3.91113C16.5693 4.06543 16.3672 4.5166 16.5215 4.91895C16.6758 5.32129 17.127 5.52344 17.5293 5.36914V5.37012ZM32.4717 44.6289C27.6689 46.4619 22.3623 46.4609 17.5283 44.626C17.126 44.4736 16.6748 44.6758 16.5215 45.0791C16.3682 45.4824 16.5713 45.9326 16.9746 46.0859C19.5723 47.0723 22.2959 47.5645 25.0166 47.5645C27.7373 47.5645 30.4502 47.0723 33.0293 46.0879C33.4316 45.9346 33.6338 45.4834 33.4805 45.0801C33.4065 44.8868 33.2588 44.7307 33.0699 44.6461C32.8809 44.5615 32.6661 44.5553 32.4727 44.6289H32.4717ZM4.92188 16.5205C4.51856 16.3672 4.06836 16.5703 3.91504 16.9727C1.94141 22.165 1.94043 27.8672 3.91309 33.0283C3.94967 33.1241 4.00477 33.2117 4.07523 33.2861C4.14569 33.3606 4.23012 33.4204 4.32372 33.4622C4.41731 33.504 4.51822 33.527 4.62069 33.5298C4.72315 33.5326 4.82517 33.5152 4.9209 33.4785C5.32324 33.3242 5.52539 32.873 5.37109 32.4707C3.53516 27.668 3.53711 22.3613 5.37402 17.5273C5.52734 17.124 5.3252 16.6738 4.92188 16.5205ZM34.3086 8.2373C34.3086 4.12695 37.6533 0.782227 41.7637 0.782227C45.874 0.782227 49.2188 4.12695 49.2188 8.2373C49.2188 12.3477 45.874 15.6895 41.7637 15.6895C37.6533 15.6895 34.3086 12.3467 34.3086 8.2373ZM41.7637 14.1279C42.7657 14.1289 43.7513 13.8727 44.626 13.3838V12.5137C44.626 10.9355 43.3418 9.65137 41.7637 9.65137C40.1855 9.65137 38.9014 10.9355 38.9014 12.5137V13.3838C39.7762 13.8723 40.7617 14.1284 41.7637 14.1279ZM41.7637 8.09082C42.5957 8.09082 43.2725 7.41406 43.2725 6.58203C43.2725 5.75 42.5957 5.07617 41.7637 5.07617C40.9316 5.07617 40.2578 5.75195 40.2578 6.58203C40.2578 7.41211 40.9336 8.09082 41.7637 8.09082ZM35.8701 8.2373C35.8701 9.73437 36.4326 11.1025 37.3564 12.1426C37.4795 10.6699 38.3262 9.40137 39.5391 8.69238C39.0176 8.1416 38.6963 7.39844 38.6963 6.58203C38.6963 4.89063 40.0723 3.51465 41.7637 3.51465C43.4551 3.51465 44.834 4.89063 44.834 6.58203C44.834 7.39941 44.5117 8.14258 43.9893 8.69336C45.2022 9.40234 46.0479 10.6709 46.1709 12.1426C47.0947 11.1025 47.6572 9.73437 47.6572 8.2373C47.6572 4.9873 45.0137 2.34375 41.7637 2.34375C38.5137 2.34375 35.8701 4.9873 35.8701 8.2373ZM49.2188 41.7627C49.2188 45.873 45.874 49.2178 41.7637 49.2178C37.6533 49.2178 34.3086 45.873 34.3086 41.7627C34.3086 37.6523 37.6533 34.3076 41.7637 34.3076C45.874 34.3076 49.2188 37.6523 49.2188 41.7627ZM41.7637 47.6562C42.7657 47.6572 43.7513 47.401 44.626 46.9121V46.043C44.626 44.4629 43.3418 43.1777 41.7637 43.1777C40.1855 43.1777 38.9014 44.4629 38.9014 46.043V46.9121C39.7761 47.401 40.7616 47.6572 41.7637 47.6562ZM41.7637 41.6162C42.5957 41.6162 43.2725 40.9404 43.2725 40.1104C43.2725 39.2803 42.5957 38.6045 41.7637 38.6045C40.9316 38.6045 40.2578 39.2803 40.2578 40.1104C40.2578 40.9404 40.9336 41.6162 41.7637 41.6162ZM47.6572 41.7627C47.6572 38.5127 45.0137 35.8691 41.7637 35.8691C38.5137 35.8691 35.8701 38.5127 35.8701 41.7627C35.8701 43.2607 36.4326 44.6289 37.3564 45.6699C37.4795 44.1973 38.3262 42.9277 39.5391 42.2188C39.0176 41.6689 38.6963 40.9268 38.6963 40.1104C38.6963 38.4189 40.0723 37.043 41.7637 37.043C43.4551 37.043 44.834 38.4189 44.834 40.1104C44.834 40.9268 44.5127 41.6699 43.9893 42.2197C45.2012 42.9287 46.0469 44.1982 46.1699 45.6699C47.0938 44.6289 47.6563 43.2607 47.6563 41.7627H47.6572ZM0.782227 8.23633C0.782227 4.12598 4.12695 0.78125 8.2373 0.78125C12.3477 0.78125 15.6895 4.12598 15.6895 8.23633C15.6895 12.3467 12.3467 15.6885 8.2373 15.6885C4.12793 15.6885 0.782227 12.3457 0.782227 8.23633ZM8.2373 14.127C9.23947 14.1277 10.225 13.8712 11.0996 13.3818V12.5127C11.0996 10.9346 9.81543 9.65039 8.2373 9.65039C6.65918 9.65039 5.37207 10.9346 5.37207 12.5127V13.3809C6.24765 13.8703 7.2342 14.1269 8.2373 14.126V14.127ZM8.2373 8.08984C9.06738 8.08984 9.74316 7.41309 9.74316 6.58105C9.74316 5.74902 9.06738 5.0752 8.2373 5.0752C7.40723 5.0752 6.72852 5.75098 6.72852 6.58105C6.72852 7.41113 7.40527 8.08984 8.2373 8.08984ZM2.34375 8.23633C2.34375 9.73242 2.90527 11.0986 3.82813 12.1387C3.95215 10.668 4.79883 9.40039 6.01172 8.69141C5.48926 8.14063 5.16797 7.39746 5.16797 6.58008C5.16797 4.88867 6.54492 3.5127 8.23828 3.5127C9.93164 3.5127 11.3057 4.88867 11.3057 6.58008C11.3057 7.39746 10.9844 8.14062 10.4629 8.69043C11.6758 9.39844 12.5215 10.667 12.6455 12.1387C13.5674 11.0986 14.1299 9.73145 14.1299 8.23535C14.1299 4.98535 11.4873 2.3418 8.23926 2.3418C4.99121 2.3418 2.3457 4.98535 2.3457 8.23535L2.34375 8.23633ZM37.416 28.3262C36.5273 31.6416 34.4004 34.4131 31.4268 36.1299C29.4463 37.2734 27.248 37.8584 25.0205 37.8584C23.9043 37.8584 22.7813 37.7119 21.6738 37.415C20.3447 37.0586 19.1035 36.5029 17.9814 35.7744L15.959 37.7969C16.1543 38.1045 16.2598 38.4609 16.2598 38.835C16.2598 39.3545 16.0586 39.8418 15.6924 40.208L7.24902 48.6514C6.87012 49.0303 6.37305 49.2188 5.87598 49.2188C5.37891 49.2188 4.88184 49.0293 4.50293 48.6514L1.34668 45.4951C0.590821 44.7393 0.590821 43.5078 1.34473 42.749L9.79004 34.3066C10.4434 33.6533 11.4492 33.5654 12.1992 34.04L14.2256 32.0137C14.1006 31.8223 13.9805 31.626 13.8652 31.4268C10.3232 25.29 12.4346 17.4131 18.5713 13.8672C21.5449 12.1514 25.0088 11.6953 28.3242 12.584C31.6406 13.4727 34.4111 15.5996 36.1279 18.5732C37.8457 21.5459 38.3018 25.0098 37.4131 28.3262H37.416ZM14.6992 38.835C14.6992 38.7754 14.6846 38.6621 14.5898 38.5664L11.4346 35.4111C11.3389 35.3154 11.2256 35.3018 11.166 35.3018C11.1064 35.3018 10.9922 35.3164 10.8975 35.4111L2.4541 43.8516C2.30859 43.998 2.30859 44.2461 2.4541 44.3916L5.61035 47.5479C5.75586 47.6934 6.00195 47.6934 6.14844 47.5479L14.5918 39.1045C14.6875 39.0088 14.7012 38.8955 14.7012 38.8359L14.6992 38.835ZM16.7139 34.834C16.1572 34.3643 15.6396 33.8457 15.167 33.2822L13.3398 35.1094L14.8896 36.6592L16.7139 34.835V34.834ZM34.7783 19.3535C33.2705 16.7412 30.8359 14.8721 27.9229 14.0918C25.0098 13.3105 21.9668 13.7109 19.3545 15.2187C13.9629 18.334 12.1074 25.2539 15.2197 30.6455C16.0146 32.0215 17.0674 33.1914 18.3115 34.1045C18.3379 34.1211 18.3623 34.1387 18.3867 34.1592C19.4854 34.9521 20.7305 35.5459 22.0781 35.9072C24.9922 36.6885 28.0352 36.2871 30.6465 34.7783C33.2588 33.2705 35.1279 30.8359 35.9082 27.9229C36.6885 25.0098 36.2881 21.9668 34.7793 19.3545L34.7783 19.3535ZM34.1035 24.998C34.1035 30.0186 30.0195 34.1025 24.999 34.1025C19.9785 34.1025 15.8975 30.0186 15.8975 24.998C15.8975 19.9775 19.9805 15.8965 24.999 15.8965C30.0176 15.8965 34.1035 19.9795 34.1035 24.998ZM24.999 32.541C26.3701 32.541 27.6553 32.1719 28.7637 31.5303V30.332C28.7637 28.2578 27.0752 26.5703 24.999 26.5703C22.9229 26.5703 21.2373 28.2578 21.2373 30.332V31.5313C22.3457 32.1719 23.6299 32.541 24.999 32.541ZM24.999 25.0088C26.1426 25.0088 27.0723 24.0801 27.0723 22.9385C27.0723 21.7969 26.1426 20.8652 24.999 20.8652C23.8555 20.8652 22.9287 21.7949 22.9287 22.9385C22.9287 24.082 23.8574 25.0088 24.999 25.0088ZM32.542 24.998C32.542 20.8398 29.1582 17.458 24.999 17.458C20.8398 17.458 17.458 20.8408 17.458 24.998C17.458 27.0811 18.3066 28.9688 19.6758 30.3359V30.333C19.6758 28.2832 20.8408 26.501 22.5439 25.6123C21.8213 24.9482 21.3672 23.9961 21.3672 22.9395C21.3672 20.9355 22.9961 19.3047 24.999 19.3047C27.002 19.3047 28.6338 20.9355 28.6338 22.9395C28.6338 23.9961 28.1797 24.9482 27.4561 25.6133C29.1592 26.5029 30.3252 28.2842 30.3252 30.334V30.3359C31.6943 28.9697 32.542 27.082 32.542 24.999V24.998Z" fill="#FF845E"></path>
  </g>
  <defs>
    <clipPath id="clip0_2660_1145">
      <rect width="50" height="50" fill="white"></rect>
    </clipPath>
  </defs>
</svg>
