<?xml version="1.0" encoding="UTF-8"?>
<svg xmlns="http://www.w3.org/2000/svg" width="48" height="48" viewBox="0 0 48 48" fill="none">
  <path fill-rule="evenodd" clip-rule="evenodd" d="M16.2212 23.2079C18.4453 25.6872 20.1103 27.8467 21.2158 29.7877C25.3639 37.071 19.4629 44.4686 11.5601 44.3354C3.65722 44.4687 -2.24368 37.071 1.90429 29.7877C3.00979 27.8467 4.67479 25.6872 6.89891 23.2079C7.23193 23.3256 7.58258 23.3856 7.93579 23.3854H15.1843C15.5476 23.3854 15.8966 23.3227 16.2212 23.2079ZM7.93588 21.8854H15.1844C16.0782 21.8854 16.8092 21.1543 16.8092 20.2607C16.8092 19.367 16.0782 18.6359 15.1844 18.6359H7.93588C7.04216 18.6359 6.3111 19.367 6.3111 20.2606C6.3111 21.1543 7.04216 21.8854 7.93588 21.8854ZM20.3207 20.2581C19.8698 20.2581 19.5019 20.6259 19.5019 21.0769V24.7279C20.6175 26.1033 21.6669 27.5488 22.5192 29.0454C24.2503 32.0849 24.6291 35.6107 23.1941 38.8445C23.0873 39.0846 22.9719 39.3207 22.8482 39.5525H24.8826V21.0769C24.8826 20.6259 24.5147 20.2581 24.0638 20.2581H20.3207ZM38.3981 20.7578L38.2445 23.04C38.2379 23.1372 38.2846 23.2238 38.3694 23.2718C38.4541 23.3198 38.5525 23.3152 38.6324 23.2597L44.5158 19.1687C44.5468 19.1479 44.5725 19.1201 44.5908 19.0876C44.6091 19.055 44.6196 19.0187 44.6215 18.9814C44.6244 18.9442 44.6186 18.9068 44.6045 18.8722C44.5904 18.8376 44.5685 18.8068 44.5404 18.7822L39.2531 14.0091C39.1811 13.944 39.0845 13.927 38.9946 13.9634C38.9047 13.9999 38.8472 14.0792 38.8407 14.1761L38.6816 16.5416C34.3998 16.4252 28.5334 14.6788 24.784 12.4398C20.6494 9.97081 17.9368 7.03269 16.0281 3.66284C17.2993 8.7829 21.0752 13.8492 26.7143 17.2167C30.5097 19.4831 34.5824 20.6415 38.3981 20.7578ZM46.6436 41.0525H21.8843C21.3023 41.8142 20.6281 42.4922 19.8835 43.0809H46.6436C47.0939 43.0809 47.461 42.7137 47.461 42.2635V41.8699C47.461 41.4196 47.0939 41.0525 46.6436 41.0525ZM44.0464 31.314H40.3033C39.8523 31.314 39.4844 31.6818 39.4844 32.1328V39.5525H44.8651V32.1328C44.8651 31.6818 44.4974 31.314 44.0464 31.314ZM30.3119 25.9056H34.0552C34.5062 25.9056 34.874 26.2735 34.874 26.7245V39.5525H29.4932V26.7244C29.4931 26.2735 29.8609 25.9056 30.3119 25.9056ZM11.4767 36.6948C10.9885 36.6822 10.5145 36.5499 10.1366 36.2982C9.79457 36.0704 9.53329 35.7372 9.42426 35.2996C9.37559 35.1121 9.255 34.9513 9.0886 34.852C8.9222 34.7527 8.7234 34.723 8.53525 34.7693C8.3471 34.8156 8.18475 34.9341 8.08338 35.0992C7.982 35.2643 7.94976 35.4627 7.99363 35.6515C8.19969 36.4781 8.6871 37.1031 9.32329 37.5268C9.75782 37.8163 10.2625 38.0076 10.7909 38.1008V38.674C10.7909 38.7709 10.8101 38.8669 10.8472 38.9565C10.8843 39.0461 10.9387 39.1275 11.0072 39.1961C11.0758 39.2646 11.1572 39.319 11.2468 39.3561C11.3364 39.3932 11.4324 39.4123 11.5294 39.4123C11.6263 39.4123 11.7223 39.3932 11.8119 39.3561C11.9015 39.319 11.9829 39.2646 12.0515 39.196C12.12 39.1274 12.1744 39.046 12.2115 38.9564C12.2486 38.8669 12.2677 38.7708 12.2677 38.6739V38.1148C12.9099 38.0169 13.5642 37.7825 14.0779 37.3927C14.6953 36.9242 15.1059 36.2534 15.0845 35.3533C15.0829 35.2627 15.077 35.1722 15.0668 35.0821C14.9471 34.0958 14.4133 33.4537 13.7058 33.0265C13.0843 32.6512 12.3389 32.4643 11.6556 32.3521C11.1628 32.2712 10.6436 32.1343 10.2634 31.886C9.96885 31.6937 9.75754 31.4153 9.73776 31.0081C9.71638 30.5676 9.90866 30.2122 10.2117 29.9659C10.449 29.7729 10.7518 29.6388 11.0801 29.5727C11.2136 29.546 11.3492 29.5307 11.4853 29.5272C11.5176 29.529 11.5499 29.5288 11.5821 29.5266C11.7636 29.5292 11.9464 29.5526 12.1249 29.5978C12.6738 29.7369 13.1736 30.0987 13.4368 30.7255C13.4743 30.8149 13.529 30.896 13.5979 30.9642C13.6667 31.0325 13.7483 31.0865 13.8381 31.1232C13.9278 31.1599 14.0239 31.1785 14.1208 31.1781C14.2177 31.1777 14.3136 31.1581 14.403 31.1206C14.4924 31.0831 14.5736 31.0284 14.6418 30.9595C14.71 30.8907 14.764 30.8091 14.8007 30.7193C14.8374 30.6296 14.8561 30.5335 14.8557 30.4366C14.8552 30.3396 14.8357 30.2437 14.7982 30.1543C14.3348 29.0506 13.4525 28.4128 12.4826 28.167C12.4114 28.149 12.3398 28.1331 12.2677 28.1195V27.5473C12.2677 27.1395 11.9371 26.809 11.5293 26.809C11.1215 26.809 10.7909 27.1395 10.7909 27.5473V28.1306C10.2315 28.2433 9.70616 28.4795 9.28297 28.8236C8.63263 29.3523 8.22022 30.12 8.26672 31.0773C8.31341 32.0391 8.79332 32.6843 9.46147 33.1204C10.0439 33.5007 10.7593 33.6974 11.4191 33.8057C11.9489 33.8927 12.5146 34.0302 12.9444 34.2897C13.2882 34.4972 13.5463 34.8005 13.6015 35.255C13.6088 35.3156 13.6127 35.3596 13.6135 35.3877C13.622 35.7491 13.4492 36.0245 13.1895 36.2215C12.8645 36.4681 12.4081 36.6134 11.9517 36.6688C11.8439 36.6826 11.7354 36.6912 11.6268 36.6946L11.5917 36.6953C11.5709 36.6936 11.5501 36.6927 11.5292 36.6927C11.5116 36.6929 11.4941 36.6936 11.4767 36.6948ZM7.7106 17.1442L6.54219 15.9759C5.89288 15.3266 5.89288 14.264 6.54219 13.6147C7.09447 13.0624 7.96879 12.969 8.62597 13.3909C8.8701 13.5476 9.15041 13.5726 9.41835 13.4617C9.68619 13.3507 9.86675 13.1349 9.92863 12.8515C10.0922 12.1019 10.7633 11.5362 11.5602 11.5362C12.3426 11.5362 13.025 12.0877 13.1918 12.8515C13.2537 13.1349 13.4341 13.3507 13.702 13.4617C13.97 13.5727 14.2502 13.5476 14.4943 13.3909C15.1398 12.9765 16.0145 13.0512 16.5779 13.6146V13.6147C17.2273 14.264 17.2273 15.3266 16.5779 15.9759L15.4095 17.1442C15.3346 17.1387 15.2594 17.136 15.1843 17.1359H7.93588C7.86013 17.1359 7.78504 17.1388 7.7106 17.1442Z" fill="#FF845E"></path>
</svg>
