<svg xmlns="http://www.w3.org/2000/svg" width="36" height="36" viewBox="0 0 36 36" fill="none"><path d="M8.65686 25.8761H22.3392V24.8158C22.3392 24.4181 22.6646 24.0927 23.0622 24.0927H26.1672C26.5649 24.0927 26.8903 24.4181 26.8903 24.8158V27.9209C26.8903 28.3186 26.5649 28.6439 26.1672 28.6439H23.0622C22.6645 28.6439 22.3392 28.3185 22.3392 27.9209V26.8605H8.16467C8.03414 26.8605 7.90895 26.8086 7.81664 26.7163C7.72434 26.624 7.67249 26.4988 7.67249 26.3683V21.514H8.65686V25.8761ZM23.0623 14.3967H26.1673C26.565 14.3967 26.8904 14.0713 26.8904 13.6736V10.5685C26.8904 10.1708 26.565 9.84543 26.1673 9.84543H23.0623C22.6646 9.84543 22.3393 10.1708 22.3393 10.5685V11.6289H16.7808V12.6133H22.3393V13.6736C22.3393 14.0713 22.6647 14.3967 23.0623 14.3967ZM16.7807 19.7369H22.3392V20.7972C22.3392 21.1949 22.6646 21.5203 23.0622 21.5203H26.1672C26.5649 21.5203 26.8903 21.1949 26.8903 20.7972V17.6922C26.8903 17.2945 26.5649 16.9691 26.1672 16.9691H23.0622C22.6645 16.9691 22.3392 17.2945 22.3392 17.6922V18.7525H16.7807V19.7369ZM12.8808 3.93152H14.4528C14.6264 3.93152 14.7977 3.95261 14.964 3.9922L12.8208 1.849C12.86 2.01473 12.8808 2.1858 12.8808 2.35954V3.93152ZM0.852032 20.5296C0.768211 20.5295 0.687865 20.4961 0.628588 20.4369C0.569311 20.3776 0.535934 20.2973 0.535767 20.2134V1.36497C0.535915 1.28115 0.569274 1.2008 0.628538 1.14153C0.687802 1.08225 0.768141 1.04887 0.851962 1.04871H10.5747C11.2571 1.04871 11.8488 1.6934 11.8488 2.35954V4.37378C11.8488 4.69856 12.1137 4.96342 12.4385 4.96342H14.4527C15.1248 4.96342 15.7934 5.58049 15.7934 6.26758V20.2134C15.7933 20.2972 15.7599 20.3776 15.7006 20.4368C15.6414 20.4961 15.5611 20.5295 15.4772 20.5296H0.852032ZM2.39905 12.8566C2.39864 12.9199 2.42045 12.9815 2.4607 13.0304C2.50095 13.0794 2.55708 13.1127 2.61934 13.1245L3.41309 13.281L3.98474 14.6608L3.5341 15.3328C3.49846 15.3852 3.48231 15.4485 3.48847 15.5115C3.49462 15.5746 3.52269 15.6335 3.56778 15.6781L4.60784 16.7181C4.65237 16.7632 4.71129 16.7913 4.77436 16.7975C4.83743 16.8036 4.90066 16.7875 4.95308 16.7519L5.62513 16.3012L7.0048 16.8727L7.16131 17.6665C7.17318 17.7288 7.2065 17.7849 7.25547 17.8251C7.30444 17.8654 7.36596 17.8872 7.42934 17.8868H8.90021C8.96359 17.8872 9.02511 17.8654 9.07407 17.8252C9.12303 17.7849 9.15633 17.7288 9.16817 17.6665L9.32469 16.8727L10.7044 16.3011L11.3764 16.7518C11.4288 16.7874 11.4921 16.8036 11.5551 16.7974C11.6182 16.7912 11.6771 16.7632 11.7216 16.7181L12.7617 15.678C12.8068 15.6335 12.8349 15.5746 12.841 15.5115C12.8472 15.4484 12.831 15.3852 12.7954 15.3328L12.3448 14.6607L12.9164 13.281L13.7101 13.1245C13.7724 13.1126 13.8285 13.0793 13.8688 13.0303C13.909 12.9814 13.9308 12.9199 13.9304 12.8565V11.3856C13.9308 11.3223 13.909 11.2607 13.8688 11.2118C13.8285 11.1628 13.7724 11.1295 13.7101 11.1177L12.9165 10.9612L12.3448 9.58141L12.7955 8.90936C12.8311 8.85696 12.8472 8.79372 12.8411 8.73065C12.8349 8.66758 12.8069 8.60865 12.7618 8.56413L11.7217 7.52407C11.6772 7.47896 11.6183 7.45088 11.5552 7.44473C11.4921 7.43857 11.4289 7.45473 11.3765 7.49039L10.7045 7.94102L9.32476 7.36938L9.16824 6.57562C9.15637 6.51337 9.12307 6.45724 9.07412 6.417C9.02516 6.37675 8.96365 6.35493 8.90028 6.35533H7.42941C7.36604 6.35492 7.30452 6.37673 7.25557 6.41698C7.20661 6.45723 7.17331 6.51336 7.16145 6.57562L7.00494 7.36938L5.6252 7.94102L4.95315 7.49039C4.90074 7.45476 4.83751 7.43862 4.77444 7.44477C4.71137 7.45092 4.65245 7.47898 4.60791 7.52407L3.56785 8.56413C3.52273 8.60864 3.49465 8.66756 3.48849 8.73065C3.48234 8.79373 3.4985 8.85697 3.53417 8.90936L3.98481 9.58141L3.41317 10.9612L2.61948 11.1177C2.55722 11.1295 2.50109 11.1628 2.46084 11.2118C2.42059 11.2607 2.39878 11.3223 2.39919 11.3856V12.8565L2.39905 12.8566ZM8.16467 15.0779C9.79768 15.0779 11.1215 13.7541 11.1215 12.1211C11.1215 10.4881 9.79768 9.16432 8.16467 9.16432C6.53167 9.16432 5.20789 10.4882 5.20789 12.1211C5.20789 13.754 6.53174 15.0779 8.16467 15.0779ZM30.7078 28.0684C30.607 27.9855 30.4774 27.946 30.3475 27.9587C30.2176 27.9713 30.0981 28.035 30.0151 28.1358C25.8744 33.1679 18.9311 35.1953 12.7372 33.1795C8.28498 31.7303 4.73019 28.4402 2.93567 24.1245L4.45295 24.924C4.69356 25.0504 4.99182 24.9585 5.11824 24.7179C5.24502 24.4777 5.15284 24.1794 4.91223 24.053L2.25723 22.6543C2.19188 22.6199 2.11961 22.6006 2.04579 22.5979C1.97196 22.5952 1.89848 22.6092 1.8308 22.6388C1.76312 22.6684 1.70296 22.7128 1.65481 22.7689C1.60665 22.8249 1.57173 22.891 1.55263 22.9624L0.769415 25.8746C0.699243 26.1376 0.854493 26.4078 1.11746 26.4779C1.17984 26.4947 1.24491 26.4991 1.30897 26.4907C1.37302 26.4824 1.4348 26.4615 1.49077 26.4292C1.54674 26.3969 1.59579 26.354 1.63513 26.3027C1.67448 26.2515 1.70333 26.193 1.72004 26.1306L2.10676 24.6919C4.03613 29.1807 7.77127 32.5987 12.433 34.116C14.1438 34.6721 15.9071 34.9514 17.6718 34.9514C19.3081 34.9514 20.9443 34.7114 22.5396 34.2318C25.7853 33.2568 28.6329 31.3653 30.7754 28.7608C30.9482 28.5514 30.9181 28.2413 30.708 28.0685L30.7078 28.0684ZM34.0119 19.1087C33.7374 19.091 33.5035 19.2947 33.4866 19.5655C33.4455 20.1737 33.3686 20.7789 33.2562 21.378C33.2087 21.6454 33.3849 21.902 33.6527 21.9518C33.6798 21.9575 33.7103 21.9602 33.7408 21.9602C33.8559 21.9602 33.9674 21.9199 34.0559 21.8463C34.1445 21.7727 34.2044 21.6704 34.2254 21.5572C34.3407 20.9245 34.4254 20.2771 34.4694 19.6329C34.4864 19.3615 34.283 19.1266 34.0119 19.1086V19.1087ZM33.1036 23.7561C32.9824 23.7068 32.8465 23.7076 32.7258 23.7582C32.6052 23.8088 32.5095 23.9052 32.4597 24.0263C32.2178 24.6236 31.9394 25.2055 31.626 25.7686C31.4938 26.0062 31.5819 26.3058 31.8192 26.438C31.8916 26.4787 31.9734 26.5 32.0564 26.4997C32.2293 26.4997 32.3987 26.4085 32.4869 26.2465C32.8202 25.6487 33.1167 25.0312 33.3748 24.3974C33.4765 24.1449 33.3545 23.8582 33.1037 23.7562L33.1036 23.7561ZM35.1574 12.3149C34.9066 12.2123 34.6185 12.3339 34.5168 12.5857L33.9542 13.965C32.5918 9.27323 29.3064 5.42151 24.8674 3.3416C21.9972 1.99715 18.8212 1.48338 15.6833 1.85449C15.4135 1.88669 15.2207 2.13173 15.2522 2.40152C15.2678 2.53113 15.3341 2.64928 15.4366 2.73008C15.5392 2.81089 15.6695 2.84775 15.7992 2.8326C18.7545 2.48252 21.7464 2.96683 24.4498 4.2333C28.6896 6.21963 31.8123 9.92292 33.0628 14.4263L31.6564 13.4461C31.4327 13.291 31.1246 13.3455 30.9694 13.5685C30.9324 13.6215 30.9062 13.6814 30.8924 13.7446C30.8785 13.8077 30.8773 13.873 30.8887 13.9367C30.9001 14.0004 30.9239 14.0612 30.9588 14.1157C30.9937 14.1701 31.039 14.2172 31.0921 14.2541L33.5542 15.9683C33.6369 16.0256 33.735 16.0564 33.8356 16.0568C33.883 16.0568 33.9305 16.05 33.9745 16.0364C34.1203 15.9944 34.2354 15.889 34.2931 15.7504L35.4284 12.9561C35.5301 12.7043 35.4081 12.4169 35.1573 12.3149H35.1574Z" fill="#FF845E"></path></svg>